<?xml version="1.0" encoding="UTF-8" standalone="no"?>
<!DOCTYPE svg PUBLIC "-//W3C//DTD SVG 1.1//EN"
 "http://www.w3.org/Graphics/SVG/1.1/DTD/svg11.dtd">
<!-- Generated by graphviz version 2.38.0 (20140413.2041)
 -->
<!-- Title: %3 Pages: 1 -->
<svg width="609pt" height="98pt"
 viewBox="0.00 0.00 609.45 98.00" xmlns="http://www.w3.org/2000/svg" xmlns:xlink="http://www.w3.org/1999/xlink">
<g id="graph0" class="graph" transform="scale(1 1) rotate(0) translate(4 94)">
<title>%3</title>
<polygon fill="white" stroke="none" points="-4,4 -4,-94 605.45,-94 605.45,4 -4,4"/>
<!-- github.com/supermuesli/csdl@azure/postgres/Basic1.py@latest -->
<g id="node1" class="node"><title>github.com/supermuesli/csdl@azure/postgres/Basic1.py@latest</title>
<ellipse fill="none" stroke="black" cx="236.579" cy="-45" rx="236.658" ry="18"/>
<text text-anchor="middle" x="236.579" y="-41.3" font-family="Times,serif" font-size="14.00">github.com/supermuesli/csdl@azure/postgres/Basic1.py@latest</text>
</g>
<!-- CpuCores -->
<g id="node2" class="node"><title>CpuCores</title>
<ellipse fill="none" stroke="black" cx="555.304" cy="-72" rx="46.2923" ry="18"/>
<text text-anchor="middle" x="555.304" y="-68.3" font-family="Times,serif" font-size="14.00">CpuCores</text>
</g>
<!-- github.com/supermuesli/csdl@azure/postgres/Basic1.py@latest&#45;&gt;CpuCores -->
<g id="edge1" class="edge"><title>github.com/supermuesli/csdl@azure/postgres/Basic1.py@latest&#45;&gt;CpuCores</title>
<path fill="none" stroke="red" d="M395.014,-58.4209C432.788,-61.6411 470.634,-64.8673 499.952,-67.3666"/>
<polygon fill="red" stroke="red" points="499.691,-70.857 509.952,-68.2191 500.286,-63.8823 499.691,-70.857"/>
</g>
<!-- Ram -->
<g id="node3" class="node"><title>Ram</title>
<ellipse fill="none" stroke="black" cx="555.304" cy="-18" rx="27.8951" ry="18"/>
<text text-anchor="middle" x="555.304" y="-14.3" font-family="Times,serif" font-size="14.00">Ram</text>
</g>
<!-- github.com/supermuesli/csdl@azure/postgres/Basic1.py@latest&#45;&gt;Ram -->
<g id="edge2" class="edge"><title>github.com/supermuesli/csdl@azure/postgres/Basic1.py@latest&#45;&gt;Ram</title>
<path fill="none" stroke="red" d="M395.014,-31.5791C440.705,-27.6841 486.498,-23.7802 517.181,-21.1647"/>
<polygon fill="red" stroke="red" points="517.712,-24.6322 527.378,-20.2954 517.117,-17.6575 517.712,-24.6322"/>
</g>
</g>
</svg>
