<?xml version="1.0" encoding="UTF-8" standalone="no"?>
<!DOCTYPE svg PUBLIC "-//W3C//DTD SVG 1.1//EN"
 "http://www.w3.org/Graphics/SVG/1.1/DTD/svg11.dtd">
<!-- Generated by graphviz version 2.38.0 (20140413.2041)
 -->
<!-- Title: %3 Pages: 1 -->
<svg width="682pt" height="98pt"
 viewBox="0.00 0.00 682.24 98.00" xmlns="http://www.w3.org/2000/svg" xmlns:xlink="http://www.w3.org/1999/xlink">
<g id="graph0" class="graph" transform="scale(1 1) rotate(0) translate(4 94)">
<title>%3</title>
<polygon fill="white" stroke="none" points="-4,4 -4,-94 678.243,-94 678.243,4 -4,4"/>
<!-- github.com/supermuesli/csdl@azure/postgres/GeneralPurpose1.py@latest -->
<g id="node1" class="node"><title>github.com/supermuesli/csdl@azure/postgres/GeneralPurpose1.py@latest</title>
<ellipse fill="none" stroke="black" cx="272.976" cy="-45" rx="272.952" ry="18"/>
<text text-anchor="middle" x="272.976" y="-41.3" font-family="Times,serif" font-size="14.00">github.com/supermuesli/csdl@azure/postgres/GeneralPurpose1.py@latest</text>
</g>
<!-- CpuCores -->
<g id="node2" class="node"><title>CpuCores</title>
<ellipse fill="none" stroke="black" cx="628.097" cy="-72" rx="46.2923" ry="18"/>
<text text-anchor="middle" x="628.097" y="-68.3" font-family="Times,serif" font-size="14.00">CpuCores</text>
</g>
<!-- github.com/supermuesli/csdl@azure/postgres/GeneralPurpose1.py@latest&#45;&gt;CpuCores -->
<g id="edge1" class="edge"><title>github.com/supermuesli/csdl@azure/postgres/GeneralPurpose1.py@latest&#45;&gt;CpuCores</title>
<path fill="none" stroke="red" d="M451.83,-58.5989C495.799,-61.9608 539.661,-65.3146 572.509,-67.8261"/>
<polygon fill="red" stroke="red" points="572.535,-71.3382 582.772,-68.6109 573.068,-64.3586 572.535,-71.3382"/>
</g>
<!-- Ram -->
<g id="node3" class="node"><title>Ram</title>
<ellipse fill="none" stroke="black" cx="628.097" cy="-18" rx="27.8951" ry="18"/>
<text text-anchor="middle" x="628.097" y="-14.3" font-family="Times,serif" font-size="14.00">Ram</text>
</g>
<!-- github.com/supermuesli/csdl@azure/postgres/GeneralPurpose1.py@latest&#45;&gt;Ram -->
<g id="edge2" class="edge"><title>github.com/supermuesli/csdl@azure/postgres/GeneralPurpose1.py@latest&#45;&gt;Ram</title>
<path fill="none" stroke="red" d="M451.83,-31.4011C504.159,-27.4 556.337,-23.4104 589.976,-20.8384"/>
<polygon fill="red" stroke="red" points="590.518,-24.3072 600.222,-20.0549 589.985,-17.3276 590.518,-24.3072"/>
</g>
</g>
</svg>
