<?xml version="1.0" encoding="UTF-8" standalone="no"?>
<!DOCTYPE svg PUBLIC "-//W3C//DTD SVG 1.1//EN"
 "http://www.w3.org/Graphics/SVG/1.1/DTD/svg11.dtd">
<!-- Generated by graphviz version 2.38.0 (20140413.2041)
 -->
<!-- Title: %3 Pages: 1 -->
<svg width="1230pt" height="260pt"
 viewBox="0.00 0.00 1230.40 260.00" xmlns="http://www.w3.org/2000/svg" xmlns:xlink="http://www.w3.org/1999/xlink">
<g id="graph0" class="graph" transform="scale(1 1) rotate(0) translate(4 256)">
<title>%3</title>
<polygon fill="white" stroke="none" points="-4,4 -4,-256 1226.4,-256 1226.4,4 -4,4"/>
<!-- github.com/supermuesli/csdl@azure/postgres/Postgresql.py@latest -->
<g id="node1" class="node"><title>github.com/supermuesli/csdl@azure/postgres/Postgresql.py@latest</title>
<ellipse fill="none" stroke="black" cx="248.928" cy="-126" rx="248.856" ry="18"/>
<text text-anchor="middle" x="248.928" y="-122.3" font-family="Times,serif" font-size="14.00">github.com/supermuesli/csdl@azure/postgres/Postgresql.py@latest</text>
</g>
<!-- Price -->
<g id="node2" class="node"><title>Price</title>
<ellipse fill="none" stroke="black" cx="800.332" cy="-234" rx="28.6953" ry="18"/>
<text text-anchor="middle" x="800.332" y="-230.3" font-family="Times,serif" font-size="14.00">Price</text>
</g>
<!-- github.com/supermuesli/csdl@azure/postgres/Postgresql.py@latest&#45;&gt;Price -->
<g id="edge1" class="edge"><title>github.com/supermuesli/csdl@azure/postgres/Postgresql.py@latest&#45;&gt;Price</title>
<path fill="none" stroke="red" d="M301.335,-143.64C357.708,-162.281 451.171,-191.13 533.856,-207 614.09,-222.4 709.762,-229.395 761.528,-232.258"/>
<polygon fill="red" stroke="red" points="761.411,-235.756 771.582,-232.792 761.782,-228.766 761.411,-235.756"/>
</g>
<!-- Storage -->
<g id="node4" class="node"><title>Storage</title>
<ellipse fill="none" stroke="black" cx="800.332" cy="-180" rx="37.8943" ry="18"/>
<text text-anchor="middle" x="800.332" y="-176.3" font-family="Times,serif" font-size="14.00">Storage</text>
</g>
<!-- github.com/supermuesli/csdl@azure/postgres/Postgresql.py@latest&#45;&gt;Storage -->
<g id="edge3" class="edge"><title>github.com/supermuesli/csdl@azure/postgres/Postgresql.py@latest&#45;&gt;Storage</title>
<path fill="none" stroke="red" d="M397.158,-140.471C515.704,-152.123 674.944,-167.774 752.69,-175.416"/>
<polygon fill="red" stroke="red" points="752.812,-178.944 763.107,-176.439 753.497,-171.978 752.812,-178.944"/>
</g>
<!-- Region -->
<g id="node5" class="node"><title>Region</title>
<ellipse fill="none" stroke="black" cx="800.332" cy="-126" rx="36.2938" ry="18"/>
<text text-anchor="middle" x="800.332" y="-122.3" font-family="Times,serif" font-size="14.00">Region</text>
</g>
<!-- github.com/supermuesli/csdl@azure/postgres/Postgresql.py@latest&#45;&gt;Region -->
<g id="edge4" class="edge"><title>github.com/supermuesli/csdl@azure/postgres/Postgresql.py@latest&#45;&gt;Region</title>
<path fill="none" stroke="red" d="M498.109,-126C595.286,-126 696.932,-126 753.79,-126"/>
<polygon fill="red" stroke="red" points="753.875,-129.5 763.875,-126 753.875,-122.5 753.875,-129.5"/>
</g>
<!-- github.com/supermuesli/csdl@azure/postgres/WorkloadType.py@latest -->
<g id="node6" class="node"><title>github.com/supermuesli/csdl@azure/postgres/WorkloadType.py@latest</title>
<ellipse fill="none" stroke="black" cx="800.332" cy="-72" rx="266.453" ry="18"/>
<text text-anchor="middle" x="800.332" y="-68.3" font-family="Times,serif" font-size="14.00">github.com/supermuesli/csdl@azure/postgres/WorkloadType.py@latest</text>
</g>
<!-- github.com/supermuesli/csdl@azure/postgres/Postgresql.py@latest&#45;&gt;github.com/supermuesli/csdl@azure/postgres/WorkloadType.py@latest -->
<g id="edge5" class="edge"><title>github.com/supermuesli/csdl@azure/postgres/Postgresql.py@latest&#45;&gt;github.com/supermuesli/csdl@azure/postgres/WorkloadType.py@latest</title>
<path fill="none" stroke="red" d="M397.158,-111.529C471.534,-104.219 561.928,-95.3341 638.165,-87.8409"/>
<polygon fill="red" stroke="red" points="638.735,-91.3018 648.345,-86.8403 638.05,-84.3353 638.735,-91.3018"/>
</g>
<!-- github.com/supermuesli/csdl@azure/postgres/MachineType.py@latest -->
<g id="node7" class="node"><title>github.com/supermuesli/csdl@azure/postgres/MachineType.py@latest</title>
<ellipse fill="none" stroke="black" cx="800.332" cy="-18" rx="261.854" ry="18"/>
<text text-anchor="middle" x="800.332" y="-14.3" font-family="Times,serif" font-size="14.00">github.com/supermuesli/csdl@azure/postgres/MachineType.py@latest</text>
</g>
<!-- github.com/supermuesli/csdl@azure/postgres/Postgresql.py@latest&#45;&gt;github.com/supermuesli/csdl@azure/postgres/MachineType.py@latest -->
<g id="edge6" class="edge"><title>github.com/supermuesli/csdl@azure/postgres/Postgresql.py@latest&#45;&gt;github.com/supermuesli/csdl@azure/postgres/MachineType.py@latest</title>
<path fill="none" stroke="red" d="M301.335,-108.36C357.708,-89.7195 451.171,-60.8701 533.856,-45 559.789,-40.0225 587.335,-35.923 614.49,-32.5573"/>
<polygon fill="red" stroke="red" points="614.966,-36.0254 624.473,-31.3502 614.125,-29.076 614.966,-36.0254"/>
</g>
<!-- PricingModel -->
<g id="node3" class="node"><title>PricingModel</title>
<ellipse fill="none" stroke="black" cx="1162.6" cy="-234" rx="59.5901" ry="18"/>
<text text-anchor="middle" x="1162.6" y="-230.3" font-family="Times,serif" font-size="14.00">PricingModel</text>
</g>
<!-- Price&#45;&gt;PricingModel -->
<g id="edge2" class="edge"><title>Price&#45;&gt;PricingModel</title>
<path fill="none" stroke="red" d="M829.004,-234C884.826,-234 1012.4,-234 1092.33,-234"/>
<polygon fill="red" stroke="red" points="1092.8,-237.5 1102.8,-234 1092.8,-230.5 1092.8,-237.5"/>
</g>
</g>
</svg>
