<?xml version="1.0" encoding="UTF-8" standalone="no"?>
<!DOCTYPE svg PUBLIC "-//W3C//DTD SVG 1.1//EN"
 "http://www.w3.org/Graphics/SVG/1.1/DTD/svg11.dtd">
<!-- Generated by graphviz version 2.38.0 (20140413.2041)
 -->
<!-- Title: %3 Pages: 1 -->
<svg width="311pt" height="44pt"
 viewBox="0.00 0.00 311.38 44.00" xmlns="http://www.w3.org/2000/svg" xmlns:xlink="http://www.w3.org/1999/xlink">
<g id="graph0" class="graph" transform="scale(1 1) rotate(0) translate(4 40)">
<title>%3</title>
<polygon fill="white" stroke="none" points="-4,4 -4,-40 307.379,-40 307.379,4 -4,4"/>
<!-- CCS -->
<g id="node1" class="node"><title>CCS</title>
<ellipse fill="none" stroke="black" cx="27.2976" cy="-18" rx="27.0966" ry="18"/>
<text text-anchor="middle" x="27.2976" y="-14.3" font-family="Times,serif" font-size="14.00">CCS</text>
</g>
<!-- Price -->
<g id="node2" class="node"><title>Price</title>
<ellipse fill="none" stroke="black" cx="119.193" cy="-18" rx="28.6953" ry="18"/>
<text text-anchor="middle" x="119.193" y="-14.3" font-family="Times,serif" font-size="14.00">Price</text>
</g>
<!-- CCS&#45;&gt;Price -->
<g id="edge1" class="edge"><title>CCS&#45;&gt;Price</title>
<path fill="none" stroke="red" d="M54.7828,-18C62.7359,-18 71.6224,-18 80.167,-18"/>
<polygon fill="red" stroke="red" points="80.3342,-21.5001 90.3342,-18 80.3342,-14.5001 80.3342,-21.5001"/>
</g>
<!-- PricingModel -->
<g id="node3" class="node"><title>PricingModel</title>
<ellipse fill="none" stroke="black" cx="243.585" cy="-18" rx="59.5901" ry="18"/>
<text text-anchor="middle" x="243.585" y="-14.3" font-family="Times,serif" font-size="14.00">PricingModel</text>
</g>
<!-- Price&#45;&gt;PricingModel -->
<g id="edge2" class="edge"><title>Price&#45;&gt;PricingModel</title>
<path fill="none" stroke="red" d="M147.965,-18C155.652,-18 164.353,-18 173.289,-18"/>
<polygon fill="red" stroke="red" points="173.436,-21.5001 183.436,-18 173.436,-14.5001 173.436,-21.5001"/>
</g>
</g>
</svg>
