<?xml version="1.0" encoding="UTF-8" standalone="no"?>
<!DOCTYPE svg PUBLIC "-//W3C//DTD SVG 1.1//EN"
 "http://www.w3.org/Graphics/SVG/1.1/DTD/svg11.dtd">
<!-- Generated by graphviz version 2.38.0 (20140413.2041)
 -->
<!-- Title: %3 Pages: 1 -->
<svg width="311pt" height="98pt"
 viewBox="0.00 0.00 311.38 98.00" xmlns="http://www.w3.org/2000/svg" xmlns:xlink="http://www.w3.org/1999/xlink">
<g id="graph0" class="graph" transform="scale(1 1) rotate(0) translate(4 94)">
<title>%3</title>
<polygon fill="white" stroke="none" points="-4,4 -4,-94 307.379,-94 307.379,4 -4,4"/>
<!-- CCS -->
<g id="node1" class="node"><title>CCS</title>
<ellipse fill="none" stroke="black" cx="27.2976" cy="-45" rx="27.0966" ry="18"/>
<text text-anchor="middle" x="27.2976" y="-41.3" font-family="Times,serif" font-size="14.00">CCS</text>
</g>
<!-- Price -->
<g id="node2" class="node"><title>Price</title>
<ellipse fill="none" stroke="black" cx="119.193" cy="-45" rx="28.6953" ry="18"/>
<text text-anchor="middle" x="119.193" y="-41.3" font-family="Times,serif" font-size="14.00">Price</text>
</g>
<!-- CCS&#45;&gt;Price -->
<g id="edge1" class="edge"><title>CCS&#45;&gt;Price</title>
<path fill="none" stroke="red" d="M54.7828,-45C62.7359,-45 71.6224,-45 80.167,-45"/>
<polygon fill="red" stroke="red" points="80.3342,-48.5001 90.3342,-45 80.3342,-41.5001 80.3342,-48.5001"/>
</g>
<!-- Currency -->
<g id="node3" class="node"><title>Currency</title>
<ellipse fill="none" stroke="black" cx="243.585" cy="-72" rx="43.5923" ry="18"/>
<text text-anchor="middle" x="243.585" y="-68.3" font-family="Times,serif" font-size="14.00">Currency</text>
</g>
<!-- Price&#45;&gt;Currency -->
<g id="edge2" class="edge"><title>Price&#45;&gt;Currency</title>
<path fill="none" stroke="red" d="M146.449,-50.7922C160.525,-53.8975 178.311,-57.8211 194.746,-61.4466"/>
<polygon fill="red" stroke="red" points="194.239,-64.919 204.759,-63.6555 195.747,-58.0833 194.239,-64.919"/>
</g>
<!-- PricingModel -->
<g id="node4" class="node"><title>PricingModel</title>
<ellipse fill="none" stroke="black" cx="243.585" cy="-18" rx="59.5901" ry="18"/>
<text text-anchor="middle" x="243.585" y="-14.3" font-family="Times,serif" font-size="14.00">PricingModel</text>
</g>
<!-- Price&#45;&gt;PricingModel -->
<g id="edge3" class="edge"><title>Price&#45;&gt;PricingModel</title>
<path fill="none" stroke="red" d="M146.449,-39.2078C157.643,-36.7383 171.184,-33.7513 184.525,-30.8082"/>
<polygon fill="red" stroke="red" points="185.635,-34.1476 194.646,-28.5755 184.126,-27.312 185.635,-34.1476"/>
</g>
</g>
</svg>
