<?xml version="1.0" encoding="UTF-8" standalone="no"?>
<!DOCTYPE svg PUBLIC "-//W3C//DTD SVG 1.1//EN"
 "http://www.w3.org/Graphics/SVG/1.1/DTD/svg11.dtd">
<!-- Generated by graphviz version 2.38.0 (20140413.2041)
 -->
<!-- Title: %3 Pages: 1 -->
<svg width="427pt" height="98pt"
 viewBox="0.00 0.00 427.07 98.00" xmlns="http://www.w3.org/2000/svg" xmlns:xlink="http://www.w3.org/1999/xlink">
<g id="graph0" class="graph" transform="scale(1 1) rotate(0) translate(4 94)">
<title>%3</title>
<polygon fill="white" stroke="none" points="-4,4 -4,-94 423.069,-94 423.069,4 -4,4"/>
<!-- DatabaseAsAService -->
<g id="node1" class="node"><title>DatabaseAsAService</title>
<ellipse fill="none" stroke="black" cx="85.1424" cy="-45" rx="85.2851" ry="18"/>
<text text-anchor="middle" x="85.1424" y="-41.3" font-family="Times,serif" font-size="14.00">DatabaseAsAService</text>
</g>
<!-- Price -->
<g id="node2" class="node"><title>Price</title>
<ellipse fill="none" stroke="black" cx="234.882" cy="-45" rx="28.6953" ry="18"/>
<text text-anchor="middle" x="234.882" y="-41.3" font-family="Times,serif" font-size="14.00">Price</text>
</g>
<!-- DatabaseAsAService&#45;&gt;Price -->
<g id="edge1" class="edge"><title>DatabaseAsAService&#45;&gt;Price</title>
<path fill="none" stroke="red" d="M170.37,-45C179.291,-45 188.007,-45 195.982,-45"/>
<polygon fill="red" stroke="red" points="195.996,-48.5001 205.996,-45 195.996,-41.5001 195.996,-48.5001"/>
</g>
<!-- Currency -->
<g id="node3" class="node"><title>Currency</title>
<ellipse fill="none" stroke="black" cx="359.275" cy="-72" rx="43.5923" ry="18"/>
<text text-anchor="middle" x="359.275" y="-68.3" font-family="Times,serif" font-size="14.00">Currency</text>
</g>
<!-- Price&#45;&gt;Currency -->
<g id="edge2" class="edge"><title>Price&#45;&gt;Currency</title>
<path fill="none" stroke="red" d="M262.139,-50.7922C276.215,-53.8975 294.001,-57.8211 310.435,-61.4466"/>
<polygon fill="red" stroke="red" points="309.929,-64.919 320.448,-63.6555 311.437,-58.0833 309.929,-64.919"/>
</g>
<!-- PricingModel -->
<g id="node4" class="node"><title>PricingModel</title>
<ellipse fill="none" stroke="black" cx="359.275" cy="-18" rx="59.5901" ry="18"/>
<text text-anchor="middle" x="359.275" y="-14.3" font-family="Times,serif" font-size="14.00">PricingModel</text>
</g>
<!-- Price&#45;&gt;PricingModel -->
<g id="edge3" class="edge"><title>Price&#45;&gt;PricingModel</title>
<path fill="none" stroke="red" d="M262.139,-39.2078C273.333,-36.7383 286.873,-33.7513 300.214,-30.8082"/>
<polygon fill="red" stroke="red" points="301.324,-34.1476 310.335,-28.5755 299.816,-27.312 301.324,-34.1476"/>
</g>
</g>
</svg>
