<?xml version="1.0" encoding="UTF-8" standalone="no"?>
<!DOCTYPE svg PUBLIC "-//W3C//DTD SVG 1.1//EN"
 "http://www.w3.org/Graphics/SVG/1.1/DTD/svg11.dtd">
<!-- Generated by graphviz version 2.38.0 (20140413.2041)
 -->
<!-- Title: %3 Pages: 1 -->
<svg width="427pt" height="44pt"
 viewBox="0.00 0.00 427.07 44.00" xmlns="http://www.w3.org/2000/svg" xmlns:xlink="http://www.w3.org/1999/xlink">
<g id="graph0" class="graph" transform="scale(1 1) rotate(0) translate(4 40)">
<title>%3</title>
<polygon fill="white" stroke="none" points="-4,4 -4,-40 423.069,-40 423.069,4 -4,4"/>
<!-- DatabaseAsAService -->
<g id="node1" class="node"><title>DatabaseAsAService</title>
<ellipse fill="none" stroke="black" cx="85.1424" cy="-18" rx="85.2851" ry="18"/>
<text text-anchor="middle" x="85.1424" y="-14.3" font-family="Times,serif" font-size="14.00">DatabaseAsAService</text>
</g>
<!-- Price -->
<g id="node2" class="node"><title>Price</title>
<ellipse fill="none" stroke="black" cx="234.882" cy="-18" rx="28.6953" ry="18"/>
<text text-anchor="middle" x="234.882" y="-14.3" font-family="Times,serif" font-size="14.00">Price</text>
</g>
<!-- DatabaseAsAService&#45;&gt;Price -->
<g id="edge1" class="edge"><title>DatabaseAsAService&#45;&gt;Price</title>
<path fill="none" stroke="red" d="M170.37,-18C179.291,-18 188.007,-18 195.982,-18"/>
<polygon fill="red" stroke="red" points="195.996,-21.5001 205.996,-18 195.996,-14.5001 195.996,-21.5001"/>
</g>
<!-- PricingModel -->
<g id="node3" class="node"><title>PricingModel</title>
<ellipse fill="none" stroke="black" cx="359.275" cy="-18" rx="59.5901" ry="18"/>
<text text-anchor="middle" x="359.275" y="-14.3" font-family="Times,serif" font-size="14.00">PricingModel</text>
</g>
<!-- Price&#45;&gt;PricingModel -->
<g id="edge2" class="edge"><title>Price&#45;&gt;PricingModel</title>
<path fill="none" stroke="red" d="M263.655,-18C271.342,-18 280.043,-18 288.979,-18"/>
<polygon fill="red" stroke="red" points="289.126,-21.5001 299.126,-18 289.126,-14.5001 289.126,-21.5001"/>
</g>
</g>
</svg>
