<?xml version="1.0" encoding="UTF-8" standalone="no"?>
<!DOCTYPE svg PUBLIC "-//W3C//DTD SVG 1.1//EN"
 "http://www.w3.org/Graphics/SVG/1.1/DTD/svg11.dtd">
<!-- Generated by graphviz version 2.38.0 (20140413.2041)
 -->
<!-- Title: %3 Pages: 1 -->
<svg width="2625pt" height="2177pt"
 viewBox="0.00 0.00 2624.89 2177.00" xmlns="http://www.w3.org/2000/svg" xmlns:xlink="http://www.w3.org/1999/xlink">
<g id="graph0" class="graph" transform="scale(1 1) rotate(0) translate(4 2173)">
<title>%3</title>
<polygon fill="white" stroke="none" points="-4,4 -4,-2173 2620.89,-2173 2620.89,4 -4,4"/>
<!-- VMAsAService -->
<g id="node1" class="node"><title>VMAsAService</title>
<ellipse fill="none" stroke="black" cx="813.981" cy="-18" rx="67.6881" ry="18"/>
<text text-anchor="middle" x="813.981" y="-14.3" font-family="Times,serif" font-size="14.00">VMAsAService</text>
</g>
<!-- ServerAsAService -->
<g id="node2" class="node"><title>ServerAsAService</title>
<ellipse fill="none" stroke="black" cx="1369.28" cy="-45" rx="76.0865" ry="18"/>
<text text-anchor="middle" x="1369.28" y="-41.3" font-family="Times,serif" font-size="14.00">ServerAsAService</text>
</g>
<!-- VMAsAService&#45;&gt;ServerAsAService -->
<g id="edge1" class="edge"><title>VMAsAService&#45;&gt;ServerAsAService</title>
<path fill="none" stroke="black" d="M880.625,-21.2033C981.252,-26.1137 1173.58,-35.4988 1284.25,-40.8994"/>
<polygon fill="black" stroke="black" points="1284.22,-44.4017 1294.37,-41.3933 1284.56,-37.41 1284.22,-44.4017"/>
</g>
<!-- IaaS -->
<g id="node3" class="node"><title>IaaS</title>
<ellipse fill="none" stroke="black" cx="1934.34" cy="-126" rx="27" ry="18"/>
<text text-anchor="middle" x="1934.34" y="-122.3" font-family="Times,serif" font-size="14.00">IaaS</text>
</g>
<!-- ServerAsAService&#45;&gt;IaaS -->
<g id="edge2" class="edge"><title>ServerAsAService&#45;&gt;IaaS</title>
<path fill="none" stroke="black" d="M1434.6,-54.2523C1553.65,-71.3792 1804.71,-107.496 1897.7,-120.874"/>
<polygon fill="black" stroke="black" points="1897.34,-124.357 1907.74,-122.317 1898.34,-117.428 1897.34,-124.357"/>
</g>
<!-- CCS -->
<g id="node5" class="node"><title>CCS</title>
<ellipse fill="none" stroke="black" cx="2321.96" cy="-207" rx="27.0966" ry="18"/>
<text text-anchor="middle" x="2321.96" y="-203.3" font-family="Times,serif" font-size="14.00">CCS</text>
</g>
<!-- IaaS&#45;&gt;CCS -->
<g id="edge4" class="edge"><title>IaaS&#45;&gt;CCS</title>
<path fill="none" stroke="black" d="M1960.65,-130.48C2009.51,-139.226 2120.14,-159.516 2212.51,-180 2237.26,-185.487 2264.98,-192.404 2286.21,-197.863"/>
<polygon fill="black" stroke="black" points="2285.5,-201.296 2296.06,-200.413 2287.26,-194.52 2285.5,-201.296"/>
</g>
<!-- SaaS -->
<g id="node4" class="node"><title>SaaS</title>
<ellipse fill="none" stroke="black" cx="1934.34" cy="-207" rx="28.6953" ry="18"/>
<text text-anchor="middle" x="1934.34" y="-203.3" font-family="Times,serif" font-size="14.00">SaaS</text>
</g>
<!-- SaaS&#45;&gt;CCS -->
<g id="edge3" class="edge"><title>SaaS&#45;&gt;CCS</title>
<path fill="none" stroke="black" d="M1963.07,-207C2031.35,-207 2207.61,-207 2284.35,-207"/>
<polygon fill="black" stroke="black" points="2284.5,-210.5 2294.5,-207 2284.5,-203.5 2284.5,-210.5"/>
</g>
<!-- Attribute -->
<g id="node8" class="node"><title>Attribute</title>
<ellipse fill="none" stroke="black" cx="2473.65" cy="-666" rx="42.4939" ry="18"/>
<text text-anchor="middle" x="2473.65" y="-662.3" font-family="Times,serif" font-size="14.00">Attribute</text>
</g>
<!-- CCS&#45;&gt;Attribute -->
<g id="edge10" class="edge"><title>CCS&#45;&gt;Attribute</title>
<path fill="none" stroke="black" d="M2328.73,-224.712C2351.58,-294.775 2435.76,-552.887 2463.62,-638.329"/>
<polygon fill="black" stroke="black" points="2460.38,-639.671 2466.81,-648.093 2467.03,-637.501 2460.38,-639.671"/>
</g>
<!-- StorageAsAService -->
<g id="node6" class="node"><title>StorageAsAService</title>
<ellipse fill="none" stroke="black" cx="1369.28" cy="-126" rx="79.8859" ry="18"/>
<text text-anchor="middle" x="1369.28" y="-122.3" font-family="Times,serif" font-size="14.00">StorageAsAService</text>
</g>
<!-- StorageAsAService&#45;&gt;IaaS -->
<g id="edge5" class="edge"><title>StorageAsAService&#45;&gt;IaaS</title>
<path fill="none" stroke="black" d="M1449.46,-126C1573.17,-126 1807.39,-126 1897.11,-126"/>
<polygon fill="black" stroke="black" points="1897.32,-129.5 1907.32,-126 1897.32,-122.5 1897.32,-129.5"/>
</g>
<!-- NumericAttribute -->
<g id="node7" class="node"><title>NumericAttribute</title>
<ellipse fill="none" stroke="black" cx="2321.96" cy="-1719" rx="73.387" ry="18"/>
<text text-anchor="middle" x="2321.96" y="-1715.3" font-family="Times,serif" font-size="14.00">NumericAttribute</text>
</g>
<!-- NumericAttribute&#45;&gt;Attribute -->
<g id="edge6" class="edge"><title>NumericAttribute&#45;&gt;Attribute</title>
<path fill="none" stroke="black" d="M2325.55,-1700.72C2343.34,-1575.64 2447.01,-846.343 2468.68,-693.92"/>
<polygon fill="black" stroke="black" points="2472.15,-694.352 2470.09,-683.959 2465.22,-693.367 2472.15,-694.352"/>
</g>
<!-- object -->
<g id="node12" class="node"><title>object</title>
<ellipse fill="none" stroke="black" cx="2584.39" cy="-666" rx="32.4942" ry="18"/>
<text text-anchor="middle" x="2584.39" y="-662.3" font-family="Times,serif" font-size="14.00">object</text>
</g>
<!-- Attribute&#45;&gt;object -->
<g id="edge11" class="edge"><title>Attribute&#45;&gt;object</title>
<path fill="none" stroke="black" d="M2516.07,-666C2524.34,-666 2533.04,-666 2541.33,-666"/>
<polygon fill="black" stroke="black" points="2541.56,-669.5 2551.56,-666 2541.56,-662.5 2541.56,-669.5"/>
</g>
<!-- ChoiceAttribute -->
<g id="node9" class="node"><title>ChoiceAttribute</title>
<ellipse fill="none" stroke="black" cx="2321.96" cy="-1125" rx="67.6881" ry="18"/>
<text text-anchor="middle" x="2321.96" y="-1121.3" font-family="Times,serif" font-size="14.00">ChoiceAttribute</text>
</g>
<!-- ChoiceAttribute&#45;&gt;Attribute -->
<g id="edge7" class="edge"><title>ChoiceAttribute&#45;&gt;Attribute</title>
<path fill="none" stroke="black" d="M2328.82,-1107.01C2351.81,-1036.52 2435.83,-778.882 2463.64,-693.613"/>
<polygon fill="black" stroke="black" points="2467.05,-694.461 2466.82,-683.869 2460.39,-692.291 2467.05,-694.461"/>
</g>
<!-- BoolAttribute -->
<g id="node10" class="node"><title>BoolAttribute</title>
<ellipse fill="none" stroke="black" cx="2321.96" cy="-693" rx="59.5901" ry="18"/>
<text text-anchor="middle" x="2321.96" y="-689.3" font-family="Times,serif" font-size="14.00">BoolAttribute</text>
</g>
<!-- BoolAttribute&#45;&gt;Attribute -->
<g id="edge8" class="edge"><title>BoolAttribute&#45;&gt;Attribute</title>
<path fill="none" stroke="black" d="M2373.63,-683.859C2389.92,-680.922 2407.91,-677.678 2424.03,-674.768"/>
<polygon fill="black" stroke="black" points="2425.11,-678.131 2434.33,-672.912 2423.87,-671.242 2425.11,-678.131"/>
</g>
<!-- OptionAttribute -->
<g id="node11" class="node"><title>OptionAttribute</title>
<ellipse fill="none" stroke="black" cx="2321.96" cy="-639" rx="66.8882" ry="18"/>
<text text-anchor="middle" x="2321.96" y="-635.3" font-family="Times,serif" font-size="14.00">OptionAttribute</text>
</g>
<!-- OptionAttribute&#45;&gt;Attribute -->
<g id="edge9" class="edge"><title>OptionAttribute&#45;&gt;Attribute</title>
<path fill="none" stroke="black" d="M2378.27,-648.977C2393.43,-651.711 2409.73,-654.652 2424.46,-657.308"/>
<polygon fill="black" stroke="black" points="2423.9,-660.764 2434.36,-659.095 2425.14,-653.875 2423.9,-660.764"/>
</g>
<!-- Region -->
<g id="node13" class="node"><title>Region</title>
<ellipse fill="none" stroke="black" cx="1934.34" cy="-1287" rx="36.2938" ry="18"/>
<text text-anchor="middle" x="1934.34" y="-1283.3" font-family="Times,serif" font-size="14.00">Region</text>
</g>
<!-- Region&#45;&gt;ChoiceAttribute -->
<g id="edge12" class="edge"><title>Region&#45;&gt;ChoiceAttribute</title>
<path fill="none" stroke="black" d="M1969.76,-1291.79C2024.71,-1297.72 2134.04,-1302.42 2212.51,-1260 2257.33,-1235.77 2290.33,-1184.46 2307.52,-1152.54"/>
<polygon fill="black" stroke="black" points="2310.82,-1153.79 2312.35,-1143.31 2304.61,-1150.55 2310.82,-1153.79"/>
</g>
<!-- NorthAmerica -->
<g id="node14" class="node"><title>NorthAmerica</title>
<ellipse fill="none" stroke="black" cx="1934.34" cy="-963" rx="61.99" ry="18"/>
<text text-anchor="middle" x="1934.34" y="-959.3" font-family="Times,serif" font-size="14.00">NorthAmerica</text>
</g>
<!-- NorthAmerica&#45;&gt;OptionAttribute -->
<g id="edge13" class="edge"><title>NorthAmerica&#45;&gt;OptionAttribute</title>
<path fill="none" stroke="black" d="M1982.74,-974.249C2044.46,-985.8 2151.63,-994.759 2212.51,-936 2299.62,-851.927 2173.02,-760.643 2248.51,-666 2251.83,-661.844 2255.85,-658.327 2260.29,-655.352"/>
<polygon fill="black" stroke="black" points="2262.27,-658.252 2269.24,-650.272 2258.81,-652.163 2262.27,-658.252"/>
</g>
<!-- Australia -->
<g id="node15" class="node"><title>Australia</title>
<ellipse fill="none" stroke="black" cx="1934.34" cy="-909" rx="42.7926" ry="18"/>
<text text-anchor="middle" x="1934.34" y="-905.3" font-family="Times,serif" font-size="14.00">Australia</text>
</g>
<!-- Australia&#45;&gt;OptionAttribute -->
<g id="edge14" class="edge"><title>Australia&#45;&gt;OptionAttribute</title>
<path fill="none" stroke="black" d="M1971.91,-917.914C2030.88,-929.898 2146.97,-943.224 2212.51,-882 2283.63,-815.562 2186.59,-741.086 2248.51,-666 2251.9,-661.898 2255.97,-658.42 2260.43,-655.469"/>
<polygon fill="black" stroke="black" points="2262.41,-658.368 2269.42,-650.422 2258.99,-652.264 2262.41,-658.368"/>
</g>
<!-- Africa -->
<g id="node16" class="node"><title>Africa</title>
<ellipse fill="none" stroke="black" cx="1934.34" cy="-855" rx="33.2948" ry="18"/>
<text text-anchor="middle" x="1934.34" y="-851.3" font-family="Times,serif" font-size="14.00">Africa</text>
</g>
<!-- Africa&#45;&gt;OptionAttribute -->
<g id="edge15" class="edge"><title>Africa&#45;&gt;OptionAttribute</title>
<path fill="none" stroke="black" d="M1965.18,-862.228C2021.22,-873.872 2142.83,-889.692 2212.51,-828 2267.74,-779.111 2200.08,-721.627 2248.51,-666 2252.15,-661.824 2256.49,-658.293 2261.22,-655.307"/>
<polygon fill="black" stroke="black" points="2262.97,-658.345 2270.09,-650.501 2259.63,-652.191 2262.97,-658.345"/>
</g>
<!-- EastAsia -->
<g id="node17" class="node"><title>EastAsia</title>
<ellipse fill="none" stroke="black" cx="1934.34" cy="-801" rx="42.4939" ry="18"/>
<text text-anchor="middle" x="1934.34" y="-797.3" font-family="Times,serif" font-size="14.00">EastAsia</text>
</g>
<!-- EastAsia&#45;&gt;OptionAttribute -->
<g id="edge16" class="edge"><title>EastAsia&#45;&gt;OptionAttribute</title>
<path fill="none" stroke="black" d="M1972.27,-808.955C2030.2,-819.143 2142.95,-829.458 2212.51,-774 2252.08,-742.459 2213.37,-702.398 2248.51,-666 2252.42,-661.957 2256.98,-658.514 2261.89,-655.583"/>
<polygon fill="black" stroke="black" points="2263.76,-658.557 2271.02,-650.842 2260.53,-652.345 2263.76,-658.557"/>
</g>
<!-- SouthAmerica -->
<g id="node18" class="node"><title>SouthAmerica</title>
<ellipse fill="none" stroke="black" cx="1934.34" cy="-747" rx="61.99" ry="18"/>
<text text-anchor="middle" x="1934.34" y="-743.3" font-family="Times,serif" font-size="14.00">SouthAmerica</text>
</g>
<!-- SouthAmerica&#45;&gt;OptionAttribute -->
<g id="edge17" class="edge"><title>SouthAmerica&#45;&gt;OptionAttribute</title>
<path fill="none" stroke="black" d="M1990.11,-754.788C2049.3,-760.377 2144.29,-760.887 2212.51,-720 2237.25,-705.171 2225.9,-683.907 2248.51,-666 2253.42,-662.118 2258.93,-658.754 2264.68,-655.849"/>
<polygon fill="black" stroke="black" points="2266.21,-658.999 2273.84,-651.653 2263.29,-652.634 2266.21,-658.999"/>
</g>
<!-- Europe -->
<g id="node19" class="node"><title>Europe</title>
<ellipse fill="none" stroke="black" cx="1934.34" cy="-693" rx="36.2938" ry="18"/>
<text text-anchor="middle" x="1934.34" y="-689.3" font-family="Times,serif" font-size="14.00">Europe</text>
</g>
<!-- Europe&#45;&gt;OptionAttribute -->
<g id="edge18" class="edge"><title>Europe&#45;&gt;OptionAttribute</title>
<path fill="none" stroke="black" d="M1970.56,-691.23C2023.42,-688.2 2126.27,-680.854 2212.51,-666 2229.94,-662.999 2248.69,-658.714 2265.63,-654.439"/>
<polygon fill="black" stroke="black" points="2266.55,-657.815 2275.37,-651.933 2264.81,-651.036 2266.55,-657.815"/>
</g>
<!-- Antarctica -->
<g id="node20" class="node"><title>Antarctica</title>
<ellipse fill="none" stroke="black" cx="1934.34" cy="-639" rx="47.3916" ry="18"/>
<text text-anchor="middle" x="1934.34" y="-635.3" font-family="Times,serif" font-size="14.00">Antarctica</text>
</g>
<!-- Antarctica&#45;&gt;OptionAttribute -->
<g id="edge19" class="edge"><title>Antarctica&#45;&gt;OptionAttribute</title>
<path fill="none" stroke="black" d="M1981.85,-639C2047.03,-639 2166.33,-639 2244.63,-639"/>
<polygon fill="black" stroke="black" points="2244.92,-642.5 2254.92,-639 2244.92,-635.5 2244.92,-642.5"/>
</g>
<!-- Storage -->
<g id="node21" class="node"><title>Storage</title>
<ellipse fill="none" stroke="black" cx="1934.34" cy="-2151" rx="37.8943" ry="18"/>
<text text-anchor="middle" x="1934.34" y="-2147.3" font-family="Times,serif" font-size="14.00">Storage</text>
</g>
<!-- Storage&#45;&gt;NumericAttribute -->
<g id="edge20" class="edge"><title>Storage&#45;&gt;NumericAttribute</title>
<path fill="none" stroke="black" d="M1968.49,-2158.65C2025.57,-2169.72 2142.99,-2182.93 2212.51,-2124 2271.16,-2074.29 2306.86,-1830.86 2317.55,-1747.25"/>
<polygon fill="black" stroke="black" points="2321.04,-1747.57 2318.81,-1737.21 2314.09,-1746.7 2321.04,-1747.57"/>
</g>
<!-- StorageWriteSpeed -->
<g id="node22" class="node"><title>StorageWriteSpeed</title>
<ellipse fill="none" stroke="black" cx="1934.34" cy="-2097" rx="79.0865" ry="18"/>
<text text-anchor="middle" x="1934.34" y="-2093.3" font-family="Times,serif" font-size="14.00">StorageWriteSpeed</text>
</g>
<!-- StorageWriteSpeed&#45;&gt;NumericAttribute -->
<g id="edge21" class="edge"><title>StorageWriteSpeed&#45;&gt;NumericAttribute</title>
<path fill="none" stroke="black" d="M1994.89,-2108.7C2056.36,-2117.15 2151.63,-2119.65 2212.51,-2070 2312.71,-1988.29 2322.22,-1815.9 2321.84,-1747.67"/>
<polygon fill="black" stroke="black" points="2325.34,-1747.23 2321.7,-1737.28 2318.34,-1747.32 2325.34,-1747.23"/>
</g>
<!-- StorageReadSpeed -->
<g id="node23" class="node"><title>StorageReadSpeed</title>
<ellipse fill="none" stroke="black" cx="1934.34" cy="-2043" rx="77.1866" ry="18"/>
<text text-anchor="middle" x="1934.34" y="-2039.3" font-family="Times,serif" font-size="14.00">StorageReadSpeed</text>
</g>
<!-- StorageReadSpeed&#45;&gt;NumericAttribute -->
<g id="edge22" class="edge"><title>StorageReadSpeed&#45;&gt;NumericAttribute</title>
<path fill="none" stroke="black" d="M1995.24,-2054.19C2056.33,-2062.03 2150.68,-2063.88 2212.51,-2016 2298.52,-1949.4 2316.35,-1807.94 2320.02,-1747.43"/>
<polygon fill="black" stroke="black" points="2323.53,-1747.27 2320.56,-1737.11 2316.54,-1746.91 2323.53,-1747.27"/>
</g>
<!-- OperatingSystem -->
<g id="node24" class="node"><title>OperatingSystem</title>
<ellipse fill="none" stroke="black" cx="1934.34" cy="-1233" rx="72.2875" ry="18"/>
<text text-anchor="middle" x="1934.34" y="-1229.3" font-family="Times,serif" font-size="14.00">OperatingSystem</text>
</g>
<!-- OperatingSystem&#45;&gt;ChoiceAttribute -->
<g id="edge23" class="edge"><title>OperatingSystem&#45;&gt;ChoiceAttribute</title>
<path fill="none" stroke="black" d="M2005.21,-1236.42C2062.74,-1236.87 2145.44,-1231.96 2212.51,-1206 2244.96,-1193.44 2276.16,-1168.31 2296.69,-1149.35"/>
<polygon fill="black" stroke="black" points="2299.15,-1151.84 2304.02,-1142.43 2294.35,-1146.75 2299.15,-1151.84"/>
</g>
<!-- CpuCores -->
<g id="node25" class="node"><title>CpuCores</title>
<ellipse fill="none" stroke="black" cx="1934.34" cy="-1989" rx="46.2923" ry="18"/>
<text text-anchor="middle" x="1934.34" y="-1985.3" font-family="Times,serif" font-size="14.00">CpuCores</text>
</g>
<!-- CpuCores&#45;&gt;NumericAttribute -->
<g id="edge24" class="edge"><title>CpuCores&#45;&gt;NumericAttribute</title>
<path fill="none" stroke="black" d="M1976.42,-1996.87C2034.75,-2005.62 2142.28,-2012.57 2212.51,-1962 2284.44,-1910.21 2309.46,-1799.57 2317.49,-1747.37"/>
<polygon fill="black" stroke="black" points="2321,-1747.56 2318.96,-1737.16 2314.07,-1746.56 2321,-1747.56"/>
</g>
<!-- CpuClockSpeed -->
<g id="node26" class="node"><title>CpuClockSpeed</title>
<ellipse fill="none" stroke="black" cx="1934.34" cy="-1935" rx="67.6881" ry="18"/>
<text text-anchor="middle" x="1934.34" y="-1931.3" font-family="Times,serif" font-size="14.00">CpuClockSpeed</text>
</g>
<!-- CpuClockSpeed&#45;&gt;NumericAttribute -->
<g id="edge25" class="edge"><title>CpuClockSpeed&#45;&gt;NumericAttribute</title>
<path fill="none" stroke="black" d="M1993.12,-1943.91C2052.91,-1950.02 2146.62,-1950.56 2212.51,-1908 2270.79,-1870.36 2301.22,-1789.66 2313.8,-1746.91"/>
<polygon fill="black" stroke="black" points="2317.2,-1747.73 2316.55,-1737.16 2310.46,-1745.83 2317.2,-1747.73"/>
</g>
<!-- Ram -->
<g id="node27" class="node"><title>Ram</title>
<ellipse fill="none" stroke="black" cx="1934.34" cy="-1881" rx="27.8951" ry="18"/>
<text text-anchor="middle" x="1934.34" y="-1877.3" font-family="Times,serif" font-size="14.00">Ram</text>
</g>
<!-- Ram&#45;&gt;NumericAttribute -->
<g id="edge26" class="edge"><title>Ram&#45;&gt;NumericAttribute</title>
<path fill="none" stroke="black" d="M1961.72,-1884.86C2013.37,-1891.11 2130,-1898.6 2212.51,-1854 2257.33,-1829.77 2290.33,-1778.46 2307.52,-1746.54"/>
<polygon fill="black" stroke="black" points="2310.82,-1747.79 2312.35,-1737.31 2304.61,-1744.55 2310.82,-1747.79"/>
</g>
<!-- RamClockSpeed -->
<g id="node28" class="node"><title>RamClockSpeed</title>
<ellipse fill="none" stroke="black" cx="1934.34" cy="-1827" rx="70.3881" ry="18"/>
<text text-anchor="middle" x="1934.34" y="-1823.3" font-family="Times,serif" font-size="14.00">RamClockSpeed</text>
</g>
<!-- RamClockSpeed&#45;&gt;NumericAttribute -->
<g id="edge27" class="edge"><title>RamClockSpeed&#45;&gt;NumericAttribute</title>
<path fill="none" stroke="black" d="M2003.47,-1830.41C2061.07,-1830.97 2144.77,-1826.22 2212.51,-1800 2244.77,-1787.51 2275.79,-1762.61 2296.32,-1743.69"/>
<polygon fill="black" stroke="black" points="2298.78,-1746.18 2303.66,-1736.77 2293.98,-1741.09 2298.78,-1746.18"/>
</g>
<!-- RamWriteSpeed -->
<g id="node29" class="node"><title>RamWriteSpeed</title>
<ellipse fill="none" stroke="black" cx="1934.34" cy="-1773" rx="69.5877" ry="18"/>
<text text-anchor="middle" x="1934.34" y="-1769.3" font-family="Times,serif" font-size="14.00">RamWriteSpeed</text>
</g>
<!-- RamWriteSpeed&#45;&gt;NumericAttribute -->
<g id="edge28" class="edge"><title>RamWriteSpeed&#45;&gt;NumericAttribute</title>
<path fill="none" stroke="black" d="M2002.35,-1769.24C2058.72,-1765.42 2141.28,-1758.27 2212.51,-1746 2229.14,-1743.14 2246.98,-1739.1 2263.3,-1735.03"/>
<polygon fill="black" stroke="black" points="2264.41,-1738.35 2273.23,-1732.49 2262.68,-1731.57 2264.41,-1738.35"/>
</g>
<!-- RamReadSpeed -->
<g id="node30" class="node"><title>RamReadSpeed</title>
<ellipse fill="none" stroke="black" cx="1934.34" cy="-1719" rx="67.6881" ry="18"/>
<text text-anchor="middle" x="1934.34" y="-1715.3" font-family="Times,serif" font-size="14.00">RamReadSpeed</text>
</g>
<!-- RamReadSpeed&#45;&gt;NumericAttribute -->
<g id="edge29" class="edge"><title>RamReadSpeed&#45;&gt;NumericAttribute</title>
<path fill="none" stroke="black" d="M2002.07,-1719C2067.61,-1719 2167.76,-1719 2238.31,-1719"/>
<polygon fill="black" stroke="black" points="2238.49,-1722.5 2248.49,-1719 2238.49,-1715.5 2238.49,-1722.5"/>
</g>
<!-- NetworkCapacity -->
<g id="node31" class="node"><title>NetworkCapacity</title>
<ellipse fill="none" stroke="black" cx="1934.34" cy="-1665" rx="72.5877" ry="18"/>
<text text-anchor="middle" x="1934.34" y="-1661.3" font-family="Times,serif" font-size="14.00">NetworkCapacity</text>
</g>
<!-- NetworkCapacity&#45;&gt;NumericAttribute -->
<g id="edge30" class="edge"><title>NetworkCapacity&#45;&gt;NumericAttribute</title>
<path fill="none" stroke="black" d="M2005.49,-1668.98C2061.75,-1672.85 2142.59,-1679.96 2212.51,-1692 2229.14,-1694.86 2246.98,-1698.9 2263.3,-1702.97"/>
<polygon fill="black" stroke="black" points="2262.68,-1706.43 2273.23,-1705.51 2264.41,-1699.65 2262.68,-1706.43"/>
</g>
<!-- NetworkUploadSpeed -->
<g id="node32" class="node"><title>NetworkUploadSpeed</title>
<ellipse fill="none" stroke="black" cx="1934.34" cy="-1611" rx="89.0842" ry="18"/>
<text text-anchor="middle" x="1934.34" y="-1607.3" font-family="Times,serif" font-size="14.00">NetworkUploadSpeed</text>
</g>
<!-- NetworkUploadSpeed&#45;&gt;NumericAttribute -->
<g id="edge31" class="edge"><title>NetworkUploadSpeed&#45;&gt;NumericAttribute</title>
<path fill="none" stroke="black" d="M2022.08,-1607.61C2078.17,-1608.24 2151.76,-1614.48 2212.51,-1638 2244.77,-1650.49 2275.79,-1675.39 2296.32,-1694.31"/>
<polygon fill="black" stroke="black" points="2293.98,-1696.91 2303.66,-1701.23 2298.78,-1691.82 2293.98,-1696.91"/>
</g>
<!-- NetworkDownloadSpeed -->
<g id="node33" class="node"><title>NetworkDownloadSpeed</title>
<ellipse fill="none" stroke="black" cx="1934.34" cy="-1557" rx="99.3824" ry="18"/>
<text text-anchor="middle" x="1934.34" y="-1553.3" font-family="Times,serif" font-size="14.00">NetworkDownloadSpeed</text>
</g>
<!-- NetworkDownloadSpeed&#45;&gt;NumericAttribute -->
<g id="edge32" class="edge"><title>NetworkDownloadSpeed&#45;&gt;NumericAttribute</title>
<path fill="none" stroke="black" d="M2022.51,-1548.63C2079.78,-1547.04 2154.56,-1552.67 2212.51,-1584 2257.33,-1608.23 2290.33,-1659.54 2307.52,-1691.46"/>
<polygon fill="black" stroke="black" points="2304.61,-1693.45 2312.35,-1700.69 2310.82,-1690.21 2304.61,-1693.45"/>
</g>
<!-- PricingModel -->
<g id="node34" class="node"><title>PricingModel</title>
<ellipse fill="none" stroke="black" cx="1934.34" cy="-1179" rx="59.5901" ry="18"/>
<text text-anchor="middle" x="1934.34" y="-1175.3" font-family="Times,serif" font-size="14.00">PricingModel</text>
</g>
<!-- PricingModel&#45;&gt;ChoiceAttribute -->
<g id="edge33" class="edge"><title>PricingModel&#45;&gt;ChoiceAttribute</title>
<path fill="none" stroke="black" d="M1993.27,-1175.84C2049.57,-1172.19 2137.35,-1164.95 2212.51,-1152 2229.86,-1149.01 2248.52,-1144.75 2265.4,-1140.5"/>
<polygon fill="black" stroke="black" points="2266.29,-1143.88 2275.1,-1138 2264.54,-1137.1 2266.29,-1143.88"/>
</g>
<!-- PayAndGo -->
<g id="node35" class="node"><title>PayAndGo</title>
<ellipse fill="none" stroke="black" cx="1934.34" cy="-585" rx="50.0912" ry="18"/>
<text text-anchor="middle" x="1934.34" y="-581.3" font-family="Times,serif" font-size="14.00">PayAndGo</text>
</g>
<!-- PayAndGo&#45;&gt;OptionAttribute -->
<g id="edge34" class="edge"><title>PayAndGo&#45;&gt;OptionAttribute</title>
<path fill="none" stroke="black" d="M1984.19,-587.583C2039.8,-591.025 2133.18,-598.336 2212.51,-612 2229.94,-615.001 2248.69,-619.286 2265.63,-623.561"/>
<polygon fill="black" stroke="black" points="2264.81,-626.964 2275.37,-626.067 2266.55,-620.185 2264.81,-626.964"/>
</g>
<!-- Subscription -->
<g id="node36" class="node"><title>Subscription</title>
<ellipse fill="none" stroke="black" cx="1934.34" cy="-531" rx="55.4913" ry="18"/>
<text text-anchor="middle" x="1934.34" y="-527.3" font-family="Times,serif" font-size="14.00">Subscription</text>
</g>
<!-- Subscription&#45;&gt;OptionAttribute -->
<g id="edge35" class="edge"><title>Subscription&#45;&gt;OptionAttribute</title>
<path fill="none" stroke="black" d="M1985.07,-523.708C2043.79,-517.687 2142.32,-515.932 2212.51,-558 2237.25,-572.829 2225.9,-594.093 2248.51,-612 2253.42,-615.882 2258.93,-619.246 2264.68,-622.151"/>
<polygon fill="black" stroke="black" points="2263.29,-625.366 2273.84,-626.347 2266.21,-619.001 2263.29,-625.366"/>
</g>
<!-- Price -->
<g id="node37" class="node"><title>Price</title>
<ellipse fill="none" stroke="black" cx="2321.96" cy="-585" rx="28.6953" ry="18"/>
<text text-anchor="middle" x="2321.96" y="-581.3" font-family="Times,serif" font-size="14.00">Price</text>
</g>
<!-- Price&#45;&gt;Attribute -->
<g id="edge36" class="edge"><title>Price&#45;&gt;Attribute</title>
<path fill="none" stroke="black" d="M2348.11,-592.623C2362.36,-597.37 2380.31,-604.077 2395.4,-612 2412.56,-621.007 2430.37,-633.236 2444.56,-643.779"/>
<polygon fill="black" stroke="black" points="2442.8,-646.839 2452.89,-650.082 2447.03,-641.257 2442.8,-646.839"/>
</g>
<!-- DatabaseAsAService -->
<g id="node38" class="node"><title>DatabaseAsAService</title>
<ellipse fill="none" stroke="black" cx="1369.28" cy="-234" rx="85.2851" ry="18"/>
<text text-anchor="middle" x="1369.28" y="-230.3" font-family="Times,serif" font-size="14.00">DatabaseAsAService</text>
</g>
<!-- DatabaseAsAService&#45;&gt;SaaS -->
<g id="edge37" class="edge"><title>DatabaseAsAService&#45;&gt;SaaS</title>
<path fill="none" stroke="black" d="M1452.46,-230.06C1576.21,-224.125 1805.52,-213.129 1895.6,-208.809"/>
<polygon fill="black" stroke="black" points="1895.81,-212.303 1905.64,-208.328 1895.48,-205.312 1895.81,-212.303"/>
</g>
<!-- SQLDatabaseAsAService -->
<g id="node39" class="node"><title>SQLDatabaseAsAService</title>
<ellipse fill="none" stroke="black" cx="813.981" cy="-288" rx="102.082" ry="18"/>
<text text-anchor="middle" x="813.981" y="-284.3" font-family="Times,serif" font-size="14.00">SQLDatabaseAsAService</text>
</g>
<!-- SQLDatabaseAsAService&#45;&gt;DatabaseAsAService -->
<g id="edge38" class="edge"><title>SQLDatabaseAsAService&#45;&gt;DatabaseAsAService</title>
<path fill="none" stroke="black" d="M903.572,-279.354C1007.42,-269.218 1178.41,-252.531 1281.49,-242.471"/>
<polygon fill="black" stroke="black" points="1281.94,-245.944 1291.55,-241.489 1281.26,-238.977 1281.94,-245.944"/>
</g>
<!-- NoSQLDatabaseAsAService -->
<g id="node40" class="node"><title>NoSQLDatabaseAsAService</title>
<ellipse fill="none" stroke="black" cx="813.981" cy="-234" rx="112.38" ry="18"/>
<text text-anchor="middle" x="813.981" y="-230.3" font-family="Times,serif" font-size="14.00">NoSQLDatabaseAsAService</text>
</g>
<!-- NoSQLDatabaseAsAService&#45;&gt;DatabaseAsAService -->
<g id="edge39" class="edge"><title>NoSQLDatabaseAsAService&#45;&gt;DatabaseAsAService</title>
<path fill="none" stroke="black" d="M926.617,-234C1028.6,-234 1177.73,-234 1273.91,-234"/>
<polygon fill="black" stroke="black" points="1273.92,-237.5 1283.92,-234 1273.92,-230.5 1273.92,-237.5"/>
</g>
<!-- github.com/supermuesli/csdl@examples/StorageRequirement.py@latest -->
<g id="node41" class="node"><title>github.com/supermuesli/csdl@examples/StorageRequirement.py@latest</title>
<ellipse fill="none" stroke="black" cx="813.981" cy="-180" rx="268.352" ry="18"/>
<text text-anchor="middle" x="813.981" y="-176.3" font-family="Times,serif" font-size="14.00">github.com/supermuesli/csdl@examples/StorageRequirement.py@latest</text>
</g>
<!-- github.com/supermuesli/csdl@examples/StorageRequirement.py@latest&#45;&gt;StorageAsAService -->
<g id="edge40" class="edge"><title>github.com/supermuesli/csdl@examples/StorageRequirement.py@latest&#45;&gt;StorageAsAService</title>
<path fill="none" stroke="black" d="M966.906,-165.173C1069.74,-155.137 1201.65,-142.263 1285.6,-134.07"/>
<polygon fill="black" stroke="black" points="1285.98,-137.549 1295.6,-133.094 1285.3,-130.582 1285.98,-137.549"/>
</g>
<!-- github.com/supermuesli/csdl@aws/regions/Region.py@latest -->
<g id="node42" class="node"><title>github.com/supermuesli/csdl@aws/regions/Region.py@latest</title>
<ellipse fill="none" stroke="black" cx="1369.28" cy="-1287" rx="229.359" ry="18"/>
<text text-anchor="middle" x="1369.28" y="-1283.3" font-family="Times,serif" font-size="14.00">github.com/supermuesli/csdl@aws/regions/Region.py@latest</text>
</g>
<!-- github.com/supermuesli/csdl@aws/regions/Region.py@latest&#45;&gt;Region -->
<g id="edge41" class="edge"><title>github.com/supermuesli/csdl@aws/regions/Region.py@latest&#45;&gt;Region</title>
<path fill="none" stroke="black" d="M1598.89,-1287C1706.31,-1287 1824.4,-1287 1887.51,-1287"/>
<polygon fill="black" stroke="black" points="1887.9,-1290.5 1897.9,-1287 1887.9,-1283.5 1887.9,-1290.5"/>
</g>
<!-- github.com/supermuesli/csdl@misc/countries/USA.py@latest -->
<g id="node43" class="node"><title>github.com/supermuesli/csdl@misc/countries/USA.py@latest</title>
<ellipse fill="none" stroke="black" cx="1369.28" cy="-963" rx="231.259" ry="18"/>
<text text-anchor="middle" x="1369.28" y="-959.3" font-family="Times,serif" font-size="14.00">github.com/supermuesli/csdl@misc/countries/USA.py@latest</text>
</g>
<!-- github.com/supermuesli/csdl@misc/countries/USA.py@latest&#45;&gt;NorthAmerica -->
<g id="edge42" class="edge"><title>github.com/supermuesli/csdl@misc/countries/USA.py@latest&#45;&gt;NorthAmerica</title>
<path fill="none" stroke="black" d="M1600.92,-963C1694.76,-963 1796.4,-963 1862.25,-963"/>
<polygon fill="black" stroke="black" points="1862.5,-966.5 1872.5,-963 1862.5,-959.5 1862.5,-966.5"/>
</g>
<!-- github.com/supermuesli/csdl@aws/regions/California.py@latest -->
<g id="node44" class="node"><title>github.com/supermuesli/csdl@aws/regions/California.py@latest</title>
<ellipse fill="none" stroke="black" cx="813.981" cy="-1017" rx="239.358" ry="18"/>
<text text-anchor="middle" x="813.981" y="-1013.3" font-family="Times,serif" font-size="14.00">github.com/supermuesli/csdl@aws/regions/California.py@latest</text>
</g>
<!-- github.com/supermuesli/csdl@aws/regions/California.py@latest&#45;&gt;github.com/supermuesli/csdl@misc/countries/USA.py@latest -->
<g id="edge43" class="edge"><title>github.com/supermuesli/csdl@aws/regions/California.py@latest&#45;&gt;github.com/supermuesli/csdl@misc/countries/USA.py@latest</title>
<path fill="none" stroke="black" d="M960.717,-1002.78C1038.71,-995.165 1134.74,-985.793 1213.99,-978.059"/>
<polygon fill="black" stroke="black" points="1214.45,-981.53 1224.06,-977.075 1213.77,-974.563 1214.45,-981.53"/>
</g>
<!-- github.com/supermuesli/csdl@aws/regions/NorthernVirginia.py@latest -->
<g id="node45" class="node"><title>github.com/supermuesli/csdl@aws/regions/NorthernVirginia.py@latest</title>
<ellipse fill="none" stroke="black" cx="813.981" cy="-963" rx="264.553" ry="18"/>
<text text-anchor="middle" x="813.981" y="-959.3" font-family="Times,serif" font-size="14.00">github.com/supermuesli/csdl@aws/regions/NorthernVirginia.py@latest</text>
</g>
<!-- github.com/supermuesli/csdl@aws/regions/NorthernVirginia.py@latest&#45;&gt;github.com/supermuesli/csdl@misc/countries/USA.py@latest -->
<g id="edge44" class="edge"><title>github.com/supermuesli/csdl@aws/regions/NorthernVirginia.py@latest&#45;&gt;github.com/supermuesli/csdl@misc/countries/USA.py@latest</title>
<path fill="none" stroke="black" d="M1078.67,-963C1095.03,-963 1111.46,-963 1127.72,-963"/>
<polygon fill="black" stroke="black" points="1127.82,-966.5 1137.82,-963 1127.82,-959.5 1127.82,-966.5"/>
</g>
<!-- github.com/supermuesli/csdl@aws/regions/NewYork.py@latest -->
<g id="node46" class="node"><title>github.com/supermuesli/csdl@aws/regions/NewYork.py@latest</title>
<ellipse fill="none" stroke="black" cx="813.981" cy="-909" rx="238.558" ry="18"/>
<text text-anchor="middle" x="813.981" y="-905.3" font-family="Times,serif" font-size="14.00">github.com/supermuesli/csdl@aws/regions/NewYork.py@latest</text>
</g>
<!-- github.com/supermuesli/csdl@aws/regions/NewYork.py@latest&#45;&gt;github.com/supermuesli/csdl@misc/countries/USA.py@latest -->
<g id="edge45" class="edge"><title>github.com/supermuesli/csdl@aws/regions/NewYork.py@latest&#45;&gt;github.com/supermuesli/csdl@misc/countries/USA.py@latest</title>
<path fill="none" stroke="black" d="M960.717,-923.223C1038.71,-930.835 1134.74,-940.207 1213.99,-947.941"/>
<polygon fill="black" stroke="black" points="1213.77,-951.437 1224.06,-948.925 1214.45,-944.47 1213.77,-951.437"/>
</g>
<!-- github.com/supermuesli/csdl@misc/dataTransfer/Out.py@latest -->
<g id="node47" class="node"><title>github.com/supermuesli/csdl@misc/dataTransfer/Out.py@latest</title>
<ellipse fill="none" stroke="black" cx="1934.34" cy="-1503" rx="239.358" ry="18"/>
<text text-anchor="middle" x="1934.34" y="-1499.3" font-family="Times,serif" font-size="14.00">github.com/supermuesli/csdl@misc/dataTransfer/Out.py@latest</text>
</g>
<!-- github.com/supermuesli/csdl@misc/dataTransfer/Out.py@latest&#45;&gt;NumericAttribute -->
<g id="edge46" class="edge"><title>github.com/supermuesli/csdl@misc/dataTransfer/Out.py@latest&#45;&gt;NumericAttribute</title>
<path fill="none" stroke="black" d="M2165.57,-1507.74C2182.12,-1513.34 2197.99,-1520.62 2212.51,-1530 2270.79,-1567.64 2301.22,-1648.34 2313.8,-1691.09"/>
<polygon fill="black" stroke="black" points="2310.46,-1692.17 2316.55,-1700.84 2317.2,-1690.27 2310.46,-1692.17"/>
</g>
<!-- github.com/supermuesli/csdl@aws/s3/S3Type.py@latest -->
<g id="node48" class="node"><title>github.com/supermuesli/csdl@aws/s3/S3Type.py@latest</title>
<ellipse fill="none" stroke="black" cx="1934.34" cy="-1125" rx="213.362" ry="18"/>
<text text-anchor="middle" x="1934.34" y="-1121.3" font-family="Times,serif" font-size="14.00">github.com/supermuesli/csdl@aws/s3/S3Type.py@latest</text>
</g>
<!-- github.com/supermuesli/csdl@aws/s3/S3Type.py@latest&#45;&gt;ChoiceAttribute -->
<g id="edge47" class="edge"><title>github.com/supermuesli/csdl@aws/s3/S3Type.py@latest&#45;&gt;ChoiceAttribute</title>
<path fill="none" stroke="black" d="M2147.61,-1125C2182.01,-1125 2215.58,-1125 2243.88,-1125"/>
<polygon fill="black" stroke="black" points="2244.06,-1128.5 2254.06,-1125 2244.06,-1121.5 2244.06,-1128.5"/>
</g>
<!-- github.com/supermuesli/csdl@aws/s3/Standard.py@latest -->
<g id="node49" class="node"><title>github.com/supermuesli/csdl@aws/s3/Standard.py@latest</title>
<ellipse fill="none" stroke="black" cx="1934.34" cy="-477" rx="217.162" ry="18"/>
<text text-anchor="middle" x="1934.34" y="-473.3" font-family="Times,serif" font-size="14.00">github.com/supermuesli/csdl@aws/s3/Standard.py@latest</text>
</g>
<!-- github.com/supermuesli/csdl@aws/s3/Standard.py@latest&#45;&gt;OptionAttribute -->
<g id="edge48" class="edge"><title>github.com/supermuesli/csdl@aws/s3/Standard.py@latest&#45;&gt;OptionAttribute</title>
<path fill="none" stroke="black" d="M2042.01,-461.364C2098.34,-459.034 2165.35,-466.4 2212.51,-504 2252.08,-535.541 2213.37,-575.602 2248.51,-612 2252.42,-616.043 2256.98,-619.486 2261.89,-622.417"/>
<polygon fill="black" stroke="black" points="2260.53,-625.655 2271.02,-627.158 2263.76,-619.443 2260.53,-625.655"/>
</g>
<!-- github.com/supermuesli/csdl@aws/s3/StandardInfreqAccess.py@latest -->
<g id="node50" class="node"><title>github.com/supermuesli/csdl@aws/s3/StandardInfreqAccess.py@latest</title>
<ellipse fill="none" stroke="black" cx="1934.34" cy="-423" rx="263.453" ry="18"/>
<text text-anchor="middle" x="1934.34" y="-419.3" font-family="Times,serif" font-size="14.00">github.com/supermuesli/csdl@aws/s3/StandardInfreqAccess.py@latest</text>
</g>
<!-- github.com/supermuesli/csdl@aws/s3/StandardInfreqAccess.py@latest&#45;&gt;OptionAttribute -->
<g id="edge49" class="edge"><title>github.com/supermuesli/csdl@aws/s3/StandardInfreqAccess.py@latest&#45;&gt;OptionAttribute</title>
<path fill="none" stroke="black" d="M2031.47,-406.267C2090.61,-401.692 2164.09,-407.136 2212.51,-450 2267.74,-498.889 2200.08,-556.373 2248.51,-612 2252.15,-616.176 2256.49,-619.707 2261.22,-622.693"/>
<polygon fill="black" stroke="black" points="2259.63,-625.809 2270.09,-627.499 2262.97,-619.655 2259.63,-625.809"/>
</g>
<!-- github.com/supermuesli/csdl@misc/requests/GETAmount.py@latest -->
<g id="node51" class="node"><title>github.com/supermuesli/csdl@misc/requests/GETAmount.py@latest</title>
<ellipse fill="none" stroke="black" cx="1934.34" cy="-1449" rx="256.955" ry="18"/>
<text text-anchor="middle" x="1934.34" y="-1445.3" font-family="Times,serif" font-size="14.00">github.com/supermuesli/csdl@misc/requests/GETAmount.py@latest</text>
</g>
<!-- github.com/supermuesli/csdl@misc/requests/GETAmount.py@latest&#45;&gt;NumericAttribute -->
<g id="edge50" class="edge"><title>github.com/supermuesli/csdl@misc/requests/GETAmount.py@latest&#45;&gt;NumericAttribute</title>
<path fill="none" stroke="black" d="M2175.14,-1455.43C2188.35,-1460.89 2200.94,-1467.67 2212.51,-1476 2284.44,-1527.79 2309.46,-1638.43 2317.49,-1690.63"/>
<polygon fill="black" stroke="black" points="2314.07,-1691.44 2318.96,-1700.84 2321,-1690.44 2314.07,-1691.44"/>
</g>
<!-- github.com/supermuesli/csdl@misc/requests/POSTAmount.py@latest -->
<g id="node52" class="node"><title>github.com/supermuesli/csdl@misc/requests/POSTAmount.py@latest</title>
<ellipse fill="none" stroke="black" cx="1934.34" cy="-1395" rx="260.754" ry="18"/>
<text text-anchor="middle" x="1934.34" y="-1391.3" font-family="Times,serif" font-size="14.00">github.com/supermuesli/csdl@misc/requests/POSTAmount.py@latest</text>
</g>
<!-- github.com/supermuesli/csdl@misc/requests/POSTAmount.py@latest&#45;&gt;NumericAttribute -->
<g id="edge51" class="edge"><title>github.com/supermuesli/csdl@misc/requests/POSTAmount.py@latest&#45;&gt;NumericAttribute</title>
<path fill="none" stroke="black" d="M2178.15,-1401.53C2190.34,-1407.03 2201.91,-1413.79 2212.51,-1422 2298.52,-1488.6 2316.35,-1630.06 2320.02,-1690.57"/>
<polygon fill="black" stroke="black" points="2316.54,-1691.09 2320.56,-1700.89 2323.53,-1690.73 2316.54,-1691.09"/>
</g>
<!-- github.com/supermuesli/csdl@aws/ec2/EC2.py@latest -->
<g id="node53" class="node"><title>github.com/supermuesli/csdl@aws/ec2/EC2.py@latest</title>
<ellipse fill="none" stroke="black" cx="254.777" cy="-18" rx="206.063" ry="18"/>
<text text-anchor="middle" x="254.777" y="-14.3" font-family="Times,serif" font-size="14.00">github.com/supermuesli/csdl@aws/ec2/EC2.py@latest</text>
</g>
<!-- github.com/supermuesli/csdl@aws/ec2/EC2.py@latest&#45;&gt;VMAsAService -->
<g id="edge52" class="edge"><title>github.com/supermuesli/csdl@aws/ec2/EC2.py@latest&#45;&gt;VMAsAService</title>
<path fill="none" stroke="black" d="M460.886,-18C556.712,-18 665.032,-18 735.913,-18"/>
<polygon fill="black" stroke="black" points="736.094,-21.5001 746.094,-18 736.094,-14.5001 736.094,-21.5001"/>
</g>
<!-- github.com/supermuesli/csdl@aws/ec2/MachineType.py@latest -->
<g id="node54" class="node"><title>github.com/supermuesli/csdl@aws/ec2/MachineType.py@latest</title>
<ellipse fill="none" stroke="black" cx="1934.34" cy="-1071" rx="239.358" ry="18"/>
<text text-anchor="middle" x="1934.34" y="-1067.3" font-family="Times,serif" font-size="14.00">github.com/supermuesli/csdl@aws/ec2/MachineType.py@latest</text>
</g>
<!-- github.com/supermuesli/csdl@aws/ec2/MachineType.py@latest&#45;&gt;ChoiceAttribute -->
<g id="edge53" class="edge"><title>github.com/supermuesli/csdl@aws/ec2/MachineType.py@latest&#45;&gt;ChoiceAttribute</title>
<path fill="none" stroke="black" d="M2105.54,-1083.6C2141.02,-1087.34 2178.09,-1092.07 2212.51,-1098 2229.86,-1100.99 2248.52,-1105.25 2265.4,-1109.5"/>
<polygon fill="black" stroke="black" points="2264.54,-1112.9 2275.1,-1112 2266.29,-1106.12 2264.54,-1112.9"/>
</g>
<!-- github.com/supermuesli/csdl@aws/ec2/A1Large.py@latest -->
<g id="node55" class="node"><title>github.com/supermuesli/csdl@aws/ec2/A1Large.py@latest</title>
<ellipse fill="none" stroke="black" cx="1934.34" cy="-369" rx="221.761" ry="18"/>
<text text-anchor="middle" x="1934.34" y="-365.3" font-family="Times,serif" font-size="14.00">github.com/supermuesli/csdl@aws/ec2/A1Large.py@latest</text>
</g>
<!-- github.com/supermuesli/csdl@aws/ec2/A1Large.py@latest&#45;&gt;OptionAttribute -->
<g id="edge54" class="edge"><title>github.com/supermuesli/csdl@aws/ec2/A1Large.py@latest&#45;&gt;OptionAttribute</title>
<path fill="none" stroke="black" d="M2021.43,-352.412C2082.55,-345.952 2162.34,-349.133 2212.51,-396 2283.63,-462.438 2186.59,-536.914 2248.51,-612 2251.9,-616.102 2255.97,-619.58 2260.43,-622.531"/>
<polygon fill="black" stroke="black" points="2258.99,-625.736 2269.42,-627.578 2262.41,-619.632 2258.99,-625.736"/>
</g>
<!-- github.com/supermuesli/csdl@aws/EBS.py@latest -->
<g id="node56" class="node"><title>github.com/supermuesli/csdl@aws/EBS.py@latest</title>
<ellipse fill="none" stroke="black" cx="813.981" cy="-126" rx="191.966" ry="18"/>
<text text-anchor="middle" x="813.981" y="-122.3" font-family="Times,serif" font-size="14.00">github.com/supermuesli/csdl@aws/EBS.py@latest</text>
</g>
<!-- github.com/supermuesli/csdl@aws/EBS.py@latest&#45;&gt;StorageAsAService -->
<g id="edge55" class="edge"><title>github.com/supermuesli/csdl@aws/EBS.py@latest&#45;&gt;StorageAsAService</title>
<path fill="none" stroke="black" d="M1005.78,-126C1098.45,-126 1205.38,-126 1278.97,-126"/>
<polygon fill="black" stroke="black" points="1279.12,-129.5 1289.12,-126 1279.12,-122.5 1279.12,-129.5"/>
</g>
<!-- github.com/supermuesli/csdl@misc/StaticIp.py@latest -->
<g id="node57" class="node"><title>github.com/supermuesli/csdl@misc/StaticIp.py@latest</title>
<ellipse fill="none" stroke="black" cx="1934.34" cy="-1341" rx="206.063" ry="18"/>
<text text-anchor="middle" x="1934.34" y="-1337.3" font-family="Times,serif" font-size="14.00">github.com/supermuesli/csdl@misc/StaticIp.py@latest</text>
</g>
<!-- github.com/supermuesli/csdl@misc/StaticIp.py@latest&#45;&gt;NumericAttribute -->
<g id="edge56" class="edge"><title>github.com/supermuesli/csdl@misc/StaticIp.py@latest&#45;&gt;NumericAttribute</title>
<path fill="none" stroke="black" d="M2035.61,-1325.3C2093.36,-1321.96 2163.9,-1328.35 2212.51,-1368 2312.71,-1449.71 2322.22,-1622.1 2321.84,-1690.33"/>
<polygon fill="black" stroke="black" points="2318.34,-1690.68 2321.7,-1700.72 2325.34,-1690.77 2318.34,-1690.68"/>
</g>
<!-- github.com/supermuesli/csdl@aws/ec2/ElasticIpAmount.py@latest -->
<g id="node58" class="node"><title>github.com/supermuesli/csdl@aws/ec2/ElasticIpAmount.py@latest</title>
<ellipse fill="none" stroke="black" cx="1369.28" cy="-1341" rx="250.756" ry="18"/>
<text text-anchor="middle" x="1369.28" y="-1337.3" font-family="Times,serif" font-size="14.00">github.com/supermuesli/csdl@aws/ec2/ElasticIpAmount.py@latest</text>
</g>
<!-- github.com/supermuesli/csdl@aws/ec2/ElasticIpAmount.py@latest&#45;&gt;github.com/supermuesli/csdl@misc/StaticIp.py@latest -->
<g id="edge57" class="edge"><title>github.com/supermuesli/csdl@aws/ec2/ElasticIpAmount.py@latest&#45;&gt;github.com/supermuesli/csdl@misc/StaticIp.py@latest</title>
<path fill="none" stroke="black" d="M1620.53,-1341C1652.99,-1341 1686.02,-1341 1717.85,-1341"/>
<polygon fill="black" stroke="black" points="1718.14,-1344.5 1728.14,-1341 1718.14,-1337.5 1718.14,-1344.5"/>
</g>
<!-- github.com/supermuesli/csdl@aws/s3/S3.py@latest -->
<g id="node59" class="node"><title>github.com/supermuesli/csdl@aws/s3/S3.py@latest</title>
<ellipse fill="none" stroke="black" cx="813.981" cy="-72" rx="194.965" ry="18"/>
<text text-anchor="middle" x="813.981" y="-68.3" font-family="Times,serif" font-size="14.00">github.com/supermuesli/csdl@aws/s3/S3.py@latest</text>
</g>
<!-- github.com/supermuesli/csdl@aws/s3/S3.py@latest&#45;&gt;StorageAsAService -->
<g id="edge58" class="edge"><title>github.com/supermuesli/csdl@aws/s3/S3.py@latest&#45;&gt;StorageAsAService</title>
<path fill="none" stroke="black" d="M948.568,-85.0375C1053.57,-95.2855 1196.51,-109.236 1285.55,-117.925"/>
<polygon fill="black" stroke="black" points="1285.3,-121.418 1295.6,-118.906 1285.98,-114.451 1285.3,-121.418"/>
</g>
<!-- github.com/supermuesli/csdl@aws/rdsPostgres/Postgresql.py@latest -->
<g id="node60" class="node"><title>github.com/supermuesli/csdl@aws/rdsPostgres/Postgresql.py@latest</title>
<ellipse fill="none" stroke="black" cx="254.777" cy="-288" rx="254.555" ry="18"/>
<text text-anchor="middle" x="254.777" y="-284.3" font-family="Times,serif" font-size="14.00">github.com/supermuesli/csdl@aws/rdsPostgres/Postgresql.py@latest</text>
</g>
<!-- github.com/supermuesli/csdl@aws/rdsPostgres/Postgresql.py@latest&#45;&gt;SQLDatabaseAsAService -->
<g id="edge59" class="edge"><title>github.com/supermuesli/csdl@aws/rdsPostgres/Postgresql.py@latest&#45;&gt;SQLDatabaseAsAService</title>
<path fill="none" stroke="black" d="M509.921,-288C577.202,-288 646.401,-288 701.659,-288"/>
<polygon fill="black" stroke="black" points="701.811,-291.5 711.811,-288 701.811,-284.5 701.811,-291.5"/>
</g>
<!-- github.com/supermuesli/csdl@aws/rdsPostgres/AvailabilityZone.py@latest -->
<g id="node61" class="node"><title>github.com/supermuesli/csdl@aws/rdsPostgres/AvailabilityZone.py@latest</title>
<ellipse fill="none" stroke="black" cx="1934.34" cy="-1017" rx="278.351" ry="18"/>
<text text-anchor="middle" x="1934.34" y="-1013.3" font-family="Times,serif" font-size="14.00">github.com/supermuesli/csdl@aws/rdsPostgres/AvailabilityZone.py@latest</text>
</g>
<!-- github.com/supermuesli/csdl@aws/rdsPostgres/AvailabilityZone.py@latest&#45;&gt;ChoiceAttribute -->
<g id="edge60" class="edge"><title>github.com/supermuesli/csdl@aws/rdsPostgres/AvailabilityZone.py@latest&#45;&gt;ChoiceAttribute</title>
<path fill="none" stroke="black" d="M2158,-1027.8C2176.75,-1031.97 2195.15,-1037.28 2212.51,-1044 2244.96,-1056.56 2276.16,-1081.69 2296.69,-1100.65"/>
<polygon fill="black" stroke="black" points="2294.35,-1103.25 2304.02,-1107.57 2299.15,-1098.16 2294.35,-1103.25"/>
</g>
<!-- github.com/supermuesli/csdl@aws/rdsPostgres/SingleAZ.py@latest -->
<g id="node62" class="node"><title>github.com/supermuesli/csdl@aws/rdsPostgres/SingleAZ.py@latest</title>
<ellipse fill="none" stroke="black" cx="1934.34" cy="-315" rx="252.655" ry="18"/>
<text text-anchor="middle" x="1934.34" y="-311.3" font-family="Times,serif" font-size="14.00">github.com/supermuesli/csdl@aws/rdsPostgres/SingleAZ.py@latest</text>
</g>
<!-- github.com/supermuesli/csdl@aws/rdsPostgres/SingleAZ.py@latest&#45;&gt;OptionAttribute -->
<g id="edge61" class="edge"><title>github.com/supermuesli/csdl@aws/rdsPostgres/SingleAZ.py@latest&#45;&gt;OptionAttribute</title>
<path fill="none" stroke="black" d="M2020.6,-298.073C2082.11,-291.188 2162.77,-293.986 2212.51,-342 2299.62,-426.073 2173.02,-517.357 2248.51,-612 2251.83,-616.156 2255.85,-619.673 2260.29,-622.648"/>
<polygon fill="black" stroke="black" points="2258.81,-625.837 2269.24,-627.728 2262.27,-619.748 2258.81,-625.837"/>
</g>
<!-- github.com/supermuesli/csdl@aws/rdsPostgres/MultiAZ.py@latest -->
<g id="node63" class="node"><title>github.com/supermuesli/csdl@aws/rdsPostgres/MultiAZ.py@latest</title>
<ellipse fill="none" stroke="black" cx="1934.34" cy="-261" rx="250.456" ry="18"/>
<text text-anchor="middle" x="1934.34" y="-257.3" font-family="Times,serif" font-size="14.00">github.com/supermuesli/csdl@aws/rdsPostgres/MultiAZ.py@latest</text>
</g>
<!-- github.com/supermuesli/csdl@aws/rdsPostgres/MultiAZ.py@latest&#45;&gt;OptionAttribute -->
<g id="edge62" class="edge"><title>github.com/supermuesli/csdl@aws/rdsPostgres/MultiAZ.py@latest&#45;&gt;OptionAttribute</title>
<path fill="none" stroke="black" d="M2018.65,-244.019C2080.6,-236.65 2162.69,-238.85 2212.51,-288 2264.08,-338.877 2203.96,-554.875 2248.51,-612 2251.78,-616.192 2255.77,-619.734 2260.19,-622.725"/>
<polygon fill="black" stroke="black" points="2258.69,-625.903 2269.11,-627.827 2262.17,-619.825 2258.69,-625.903"/>
</g>
</g>
</svg>
