<?xml version="1.0" encoding="UTF-8" standalone="no"?>
<!DOCTYPE svg PUBLIC "-//W3C//DTD SVG 1.1//EN"
 "http://www.w3.org/Graphics/SVG/1.1/DTD/svg11.dtd">
<!-- Generated by graphviz version 2.38.0 (20140413.2041)
 -->
<!-- Title: %3 Pages: 1 -->
<svg width="2313pt" height="1016pt"
 viewBox="0.00 0.00 2312.91 1016.00" xmlns="http://www.w3.org/2000/svg" xmlns:xlink="http://www.w3.org/1999/xlink">
<g id="graph0" class="graph" transform="scale(1 1) rotate(0) translate(4 1012)">
<title>%3</title>
<polygon fill="white" stroke="none" points="-4,4 -4,-1012 2308.91,-1012 2308.91,4 -4,4"/>
<!-- VMAsAService -->
<g id="node1" class="node"><title>VMAsAService</title>
<ellipse fill="none" stroke="black" cx="719.089" cy="-45" rx="67.6881" ry="18"/>
<text text-anchor="middle" x="719.089" y="-41.3" font-family="Times,serif" font-size="14.00">VMAsAService</text>
</g>
<!-- ServerAsAService -->
<g id="node2" class="node"><title>ServerAsAService</title>
<ellipse fill="none" stroke="black" cx="1197.7" cy="-45" rx="76.0865" ry="18"/>
<text text-anchor="middle" x="1197.7" y="-41.3" font-family="Times,serif" font-size="14.00">ServerAsAService</text>
</g>
<!-- VMAsAService&#45;&gt;ServerAsAService -->
<g id="edge1" class="edge"><title>VMAsAService&#45;&gt;ServerAsAService</title>
<path fill="none" stroke="black" d="M786.862,-45C871.684,-45 1018.18,-45 1111.12,-45"/>
<polygon fill="black" stroke="black" points="1111.34,-48.5001 1121.34,-45 1111.34,-41.5001 1111.34,-48.5001"/>
</g>
<!-- IaaS -->
<g id="node3" class="node"><title>IaaS</title>
<ellipse fill="none" stroke="black" cx="1690.61" cy="-72" rx="27" ry="18"/>
<text text-anchor="middle" x="1690.61" y="-68.3" font-family="Times,serif" font-size="14.00">IaaS</text>
</g>
<!-- ServerAsAService&#45;&gt;IaaS -->
<g id="edge2" class="edge"><title>ServerAsAService&#45;&gt;IaaS</title>
<path fill="none" stroke="black" d="M1271.93,-49.0276C1378.73,-54.9014 1573.21,-65.5979 1653.48,-70.0127"/>
<polygon fill="black" stroke="black" points="1653.4,-73.5138 1663.58,-70.5684 1653.79,-66.5244 1653.4,-73.5138"/>
</g>
<!-- CCS -->
<g id="node5" class="node"><title>CCS</title>
<ellipse fill="none" stroke="black" cx="2006.08" cy="-126" rx="27.0966" ry="18"/>
<text text-anchor="middle" x="2006.08" y="-122.3" font-family="Times,serif" font-size="14.00">CCS</text>
</g>
<!-- IaaS&#45;&gt;CCS -->
<g id="edge4" class="edge"><title>IaaS&#45;&gt;CCS</title>
<path fill="none" stroke="black" d="M1717.65,-74.4757C1756.74,-78.4062 1832.8,-86.8883 1896.64,-99 1921.7,-103.755 1949.63,-110.748 1970.86,-116.426"/>
<polygon fill="black" stroke="black" points="1970.14,-119.856 1980.71,-119.092 1971.97,-113.099 1970.14,-119.856"/>
</g>
<!-- SaaS -->
<g id="node4" class="node"><title>SaaS</title>
<ellipse fill="none" stroke="black" cx="1690.61" cy="-126" rx="28.6953" ry="18"/>
<text text-anchor="middle" x="1690.61" y="-122.3" font-family="Times,serif" font-size="14.00">SaaS</text>
</g>
<!-- SaaS&#45;&gt;CCS -->
<g id="edge3" class="edge"><title>SaaS&#45;&gt;CCS</title>
<path fill="none" stroke="black" d="M1719.43,-126C1776.09,-126 1904.86,-126 1968.33,-126"/>
<polygon fill="black" stroke="black" points="1968.66,-129.5 1978.66,-126 1968.66,-122.5 1968.66,-129.5"/>
</g>
<!-- Attribute -->
<g id="node8" class="node"><title>Attribute</title>
<ellipse fill="none" stroke="black" cx="2157.77" cy="-207" rx="42.4939" ry="18"/>
<text text-anchor="middle" x="2157.77" y="-203.3" font-family="Times,serif" font-size="14.00">Attribute</text>
</g>
<!-- CCS&#45;&gt;Attribute -->
<g id="edge9" class="edge"><title>CCS&#45;&gt;Attribute</title>
<path fill="none" stroke="black" d="M2031.23,-133.289C2045.64,-138.054 2064.08,-144.89 2079.53,-153 2096.68,-162.007 2114.5,-174.236 2128.69,-184.779"/>
<polygon fill="black" stroke="black" points="2126.93,-187.839 2137.02,-191.082 2131.16,-182.257 2126.93,-187.839"/>
</g>
<!-- StorageAsAService -->
<g id="node6" class="node"><title>StorageAsAService</title>
<ellipse fill="none" stroke="black" cx="1197.7" cy="-99" rx="79.8859" ry="18"/>
<text text-anchor="middle" x="1197.7" y="-95.3" font-family="Times,serif" font-size="14.00">StorageAsAService</text>
</g>
<!-- StorageAsAService&#45;&gt;IaaS -->
<g id="edge5" class="edge"><title>StorageAsAService&#45;&gt;IaaS</title>
<path fill="none" stroke="black" d="M1275.67,-94.7664C1383.23,-88.8507 1574.2,-78.3473 1653.52,-73.985"/>
<polygon fill="black" stroke="black" points="1653.72,-77.4795 1663.51,-73.4356 1653.33,-70.4901 1653.72,-77.4795"/>
</g>
<!-- NumericAttribute -->
<g id="node7" class="node"><title>NumericAttribute</title>
<ellipse fill="none" stroke="black" cx="2006.08" cy="-639" rx="73.387" ry="18"/>
<text text-anchor="middle" x="2006.08" y="-635.3" font-family="Times,serif" font-size="14.00">NumericAttribute</text>
</g>
<!-- NumericAttribute&#45;&gt;Attribute -->
<g id="edge6" class="edge"><title>NumericAttribute&#45;&gt;Attribute</title>
<path fill="none" stroke="black" d="M2013.33,-620.987C2036.67,-553.607 2118.97,-316.112 2147.19,-234.659"/>
<polygon fill="black" stroke="black" points="2150.54,-235.684 2150.51,-225.089 2143.93,-233.392 2150.54,-235.684"/>
</g>
<!-- Object -->
<g id="node11" class="node"><title>Object</title>
<ellipse fill="none" stroke="black" cx="2270.47" cy="-207" rx="34.394" ry="18"/>
<text text-anchor="middle" x="2270.47" y="-203.3" font-family="Times,serif" font-size="14.00">Object</text>
</g>
<!-- Attribute&#45;&gt;Object -->
<g id="edge10" class="edge"><title>Attribute&#45;&gt;Object</title>
<path fill="none" stroke="black" d="M2200.31,-207C2208.68,-207 2217.51,-207 2225.95,-207"/>
<polygon fill="black" stroke="black" points="2225.99,-210.5 2235.99,-207 2225.99,-203.5 2225.99,-210.5"/>
</g>
<!-- ChoiceAttribute -->
<g id="node9" class="node"><title>ChoiceAttribute</title>
<ellipse fill="none" stroke="black" cx="2006.08" cy="-234" rx="67.6881" ry="18"/>
<text text-anchor="middle" x="2006.08" y="-230.3" font-family="Times,serif" font-size="14.00">ChoiceAttribute</text>
</g>
<!-- ChoiceAttribute&#45;&gt;Attribute -->
<g id="edge7" class="edge"><title>ChoiceAttribute&#45;&gt;Attribute</title>
<path fill="none" stroke="black" d="M2062.4,-224.023C2077.56,-221.289 2093.86,-218.348 2108.59,-215.692"/>
<polygon fill="black" stroke="black" points="2109.27,-219.125 2118.49,-213.905 2108.03,-212.236 2109.27,-219.125"/>
</g>
<!-- BoolAttribute -->
<g id="node10" class="node"><title>BoolAttribute</title>
<ellipse fill="none" stroke="black" cx="2006.08" cy="-180" rx="59.5901" ry="18"/>
<text text-anchor="middle" x="2006.08" y="-176.3" font-family="Times,serif" font-size="14.00">BoolAttribute</text>
</g>
<!-- BoolAttribute&#45;&gt;Attribute -->
<g id="edge8" class="edge"><title>BoolAttribute&#45;&gt;Attribute</title>
<path fill="none" stroke="black" d="M2057.76,-189.141C2074.04,-192.078 2092.03,-195.322 2108.16,-198.232"/>
<polygon fill="black" stroke="black" points="2107.99,-201.758 2118.46,-200.088 2109.24,-194.869 2107.99,-201.758"/>
</g>
<!-- Region -->
<g id="node12" class="node"><title>Region</title>
<ellipse fill="none" stroke="black" cx="1690.61" cy="-288" rx="36.2938" ry="18"/>
<text text-anchor="middle" x="1690.61" y="-284.3" font-family="Times,serif" font-size="14.00">Region</text>
</g>
<!-- Region&#45;&gt;ChoiceAttribute -->
<g id="edge11" class="edge"><title>Region&#45;&gt;ChoiceAttribute</title>
<path fill="none" stroke="black" d="M1726.63,-284.607C1767.6,-280.357 1837.38,-272.242 1896.64,-261 1913.53,-257.796 1931.72,-253.575 1948.29,-249.425"/>
<polygon fill="black" stroke="black" points="1949.54,-252.718 1958.37,-246.86 1947.81,-245.935 1949.54,-252.718"/>
</g>
<!-- Currency -->
<g id="node13" class="node"><title>Currency</title>
<ellipse fill="none" stroke="black" cx="1690.61" cy="-234" rx="43.5923" ry="18"/>
<text text-anchor="middle" x="1690.61" y="-230.3" font-family="Times,serif" font-size="14.00">Currency</text>
</g>
<!-- Currency&#45;&gt;ChoiceAttribute -->
<g id="edge12" class="edge"><title>Currency&#45;&gt;ChoiceAttribute</title>
<path fill="none" stroke="black" d="M1734.21,-234C1783.9,-234 1867.02,-234 1928.1,-234"/>
<polygon fill="black" stroke="black" points="1928.47,-237.5 1938.47,-234 1928.47,-230.5 1928.47,-237.5"/>
</g>
<!-- Storage -->
<g id="node14" class="node"><title>Storage</title>
<ellipse fill="none" stroke="black" cx="1690.61" cy="-990" rx="37.8943" ry="18"/>
<text text-anchor="middle" x="1690.61" y="-986.3" font-family="Times,serif" font-size="14.00">Storage</text>
</g>
<!-- Storage&#45;&gt;NumericAttribute -->
<g id="edge13" class="edge"><title>Storage&#45;&gt;NumericAttribute</title>
<path fill="none" stroke="black" d="M1726.4,-995.695C1771.04,-1000.93 1848.44,-1002.74 1896.64,-963 1988.37,-887.389 2002.94,-731.602 2004.94,-667.506"/>
<polygon fill="black" stroke="black" points="2008.44,-667.413 2005.18,-657.335 2001.45,-667.252 2008.44,-667.413"/>
</g>
<!-- StorageWriteSpeed -->
<g id="node15" class="node"><title>StorageWriteSpeed</title>
<ellipse fill="none" stroke="black" cx="1690.61" cy="-936" rx="79.0865" ry="18"/>
<text text-anchor="middle" x="1690.61" y="-932.3" font-family="Times,serif" font-size="14.00">StorageWriteSpeed</text>
</g>
<!-- StorageWriteSpeed&#45;&gt;NumericAttribute -->
<g id="edge14" class="edge"><title>StorageWriteSpeed&#45;&gt;NumericAttribute</title>
<path fill="none" stroke="black" d="M1762.97,-943.582C1805.86,-944.324 1859.2,-938.053 1896.64,-909 1974.46,-848.613 1996.65,-723.564 2002.8,-667.399"/>
<polygon fill="black" stroke="black" points="2006.32,-667.422 2003.83,-657.123 1999.35,-666.725 2006.32,-667.422"/>
</g>
<!-- StorageReadSpeed -->
<g id="node16" class="node"><title>StorageReadSpeed</title>
<ellipse fill="none" stroke="black" cx="1690.61" cy="-882" rx="77.1866" ry="18"/>
<text text-anchor="middle" x="1690.61" y="-878.3" font-family="Times,serif" font-size="14.00">StorageReadSpeed</text>
</g>
<!-- StorageReadSpeed&#45;&gt;NumericAttribute -->
<g id="edge15" class="edge"><title>StorageReadSpeed&#45;&gt;NumericAttribute</title>
<path fill="none" stroke="black" d="M1763.11,-888.472C1805.52,-888.691 1858.31,-882.26 1896.64,-855 1960.86,-809.328 1989.22,-714.426 1999.77,-667.1"/>
<polygon fill="black" stroke="black" points="2003.21,-667.729 2001.86,-657.22 1996.37,-666.276 2003.21,-667.729"/>
</g>
<!-- OperatingSystem -->
<g id="node17" class="node"><title>OperatingSystem</title>
<ellipse fill="none" stroke="black" cx="1690.61" cy="-180" rx="72.2875" ry="18"/>
<text text-anchor="middle" x="1690.61" y="-176.3" font-family="Times,serif" font-size="14.00">OperatingSystem</text>
</g>
<!-- OperatingSystem&#45;&gt;ChoiceAttribute -->
<g id="edge16" class="edge"><title>OperatingSystem&#45;&gt;ChoiceAttribute</title>
<path fill="none" stroke="black" d="M1757.93,-186.809C1798.23,-191.422 1850.61,-198.268 1896.64,-207 1913.53,-210.204 1931.72,-214.425 1948.29,-218.575"/>
<polygon fill="black" stroke="black" points="1947.81,-222.065 1958.37,-221.14 1949.54,-215.282 1947.81,-222.065"/>
</g>
<!-- CpuCores -->
<g id="node18" class="node"><title>CpuCores</title>
<ellipse fill="none" stroke="black" cx="1690.61" cy="-828" rx="46.2923" ry="18"/>
<text text-anchor="middle" x="1690.61" y="-824.3" font-family="Times,serif" font-size="14.00">CpuCores</text>
</g>
<!-- CpuCores&#45;&gt;NumericAttribute -->
<g id="edge17" class="edge"><title>CpuCores&#45;&gt;NumericAttribute</title>
<path fill="none" stroke="black" d="M1735.49,-832.227C1779.53,-834.301 1847.69,-831.41 1896.64,-801 1947.49,-769.41 1979.84,-704.141 1994.98,-666.81"/>
<polygon fill="black" stroke="black" points="1998.41,-667.661 1998.8,-657.073 1991.89,-665.107 1998.41,-667.661"/>
</g>
<!-- CpuClockSpeed -->
<g id="node19" class="node"><title>CpuClockSpeed</title>
<ellipse fill="none" stroke="black" cx="1690.61" cy="-774" rx="67.6881" ry="18"/>
<text text-anchor="middle" x="1690.61" y="-770.3" font-family="Times,serif" font-size="14.00">CpuClockSpeed</text>
</g>
<!-- CpuClockSpeed&#45;&gt;NumericAttribute -->
<g id="edge18" class="edge"><title>CpuClockSpeed&#45;&gt;NumericAttribute</title>
<path fill="none" stroke="black" d="M1757.98,-775.902C1799.72,-774.589 1853.63,-768.156 1896.64,-747 1934.99,-728.139 1967.95,-690.354 1987.16,-664.864"/>
<polygon fill="black" stroke="black" points="1990.03,-666.867 1993.14,-656.737 1984.39,-662.72 1990.03,-666.867"/>
</g>
<!-- Ram -->
<g id="node20" class="node"><title>Ram</title>
<ellipse fill="none" stroke="black" cx="1690.61" cy="-720" rx="27.8951" ry="18"/>
<text text-anchor="middle" x="1690.61" y="-716.3" font-family="Times,serif" font-size="14.00">Ram</text>
</g>
<!-- Ram&#45;&gt;NumericAttribute -->
<g id="edge19" class="edge"><title>Ram&#45;&gt;NumericAttribute</title>
<path fill="none" stroke="black" d="M1718.75,-719.266C1758.58,-717.559 1834.84,-711.88 1896.64,-693 1921.76,-685.327 1948.18,-672.291 1968.65,-660.949"/>
<polygon fill="black" stroke="black" points="1970.63,-663.851 1977.61,-655.883 1967.18,-657.758 1970.63,-663.851"/>
</g>
<!-- RamClockSpeed -->
<g id="node21" class="node"><title>RamClockSpeed</title>
<ellipse fill="none" stroke="black" cx="1690.61" cy="-666" rx="70.3881" ry="18"/>
<text text-anchor="middle" x="1690.61" y="-662.3" font-family="Times,serif" font-size="14.00">RamClockSpeed</text>
</g>
<!-- RamClockSpeed&#45;&gt;NumericAttribute -->
<g id="edge20" class="edge"><title>RamClockSpeed&#45;&gt;NumericAttribute</title>
<path fill="none" stroke="black" d="M1757.32,-660.34C1806.56,-656.1 1874.12,-650.28 1926.26,-645.789"/>
<polygon fill="black" stroke="black" points="1926.81,-649.255 1936.47,-644.91 1926.21,-642.281 1926.81,-649.255"/>
</g>
<!-- RamWriteSpeed -->
<g id="node22" class="node"><title>RamWriteSpeed</title>
<ellipse fill="none" stroke="black" cx="1690.61" cy="-612" rx="69.5877" ry="18"/>
<text text-anchor="middle" x="1690.61" y="-608.3" font-family="Times,serif" font-size="14.00">RamWriteSpeed</text>
</g>
<!-- RamWriteSpeed&#45;&gt;NumericAttribute -->
<g id="edge21" class="edge"><title>RamWriteSpeed&#45;&gt;NumericAttribute</title>
<path fill="none" stroke="black" d="M1756.94,-617.627C1806.23,-621.872 1874.06,-627.714 1926.34,-632.218"/>
<polygon fill="black" stroke="black" points="1926.32,-635.729 1936.58,-633.1 1926.92,-628.754 1926.32,-635.729"/>
</g>
<!-- RamReadSpeed -->
<g id="node23" class="node"><title>RamReadSpeed</title>
<ellipse fill="none" stroke="black" cx="1690.61" cy="-558" rx="67.6881" ry="18"/>
<text text-anchor="middle" x="1690.61" y="-554.3" font-family="Times,serif" font-size="14.00">RamReadSpeed</text>
</g>
<!-- RamReadSpeed&#45;&gt;NumericAttribute -->
<g id="edge22" class="edge"><title>RamReadSpeed&#45;&gt;NumericAttribute</title>
<path fill="none" stroke="black" d="M1757.42,-561.122C1798.22,-564.409 1851.32,-571.154 1896.64,-585 1921.76,-592.673 1948.18,-605.709 1968.65,-617.051"/>
<polygon fill="black" stroke="black" points="1967.18,-620.242 1977.61,-622.117 1970.63,-614.149 1967.18,-620.242"/>
</g>
<!-- NetworkCapacity -->
<g id="node24" class="node"><title>NetworkCapacity</title>
<ellipse fill="none" stroke="black" cx="1690.61" cy="-504" rx="72.5877" ry="18"/>
<text text-anchor="middle" x="1690.61" y="-500.3" font-family="Times,serif" font-size="14.00">NetworkCapacity</text>
</g>
<!-- NetworkCapacity&#45;&gt;NumericAttribute -->
<g id="edge23" class="edge"><title>NetworkCapacity&#45;&gt;NumericAttribute</title>
<path fill="none" stroke="black" d="M1763.2,-502.287C1804.15,-503.966 1855.4,-510.716 1896.64,-531 1934.99,-549.861 1967.95,-587.646 1987.16,-613.136"/>
<polygon fill="black" stroke="black" points="1984.39,-615.28 1993.14,-621.263 1990.03,-611.133 1984.39,-615.28"/>
</g>
<!-- NetworkUploadSpeed -->
<g id="node25" class="node"><title>NetworkUploadSpeed</title>
<ellipse fill="none" stroke="black" cx="1690.61" cy="-450" rx="89.0842" ry="18"/>
<text text-anchor="middle" x="1690.61" y="-446.3" font-family="Times,serif" font-size="14.00">NetworkUploadSpeed</text>
</g>
<!-- NetworkUploadSpeed&#45;&gt;NumericAttribute -->
<g id="edge24" class="edge"><title>NetworkUploadSpeed&#45;&gt;NumericAttribute</title>
<path fill="none" stroke="black" d="M1777.27,-445.696C1816.24,-447.483 1861.42,-455.116 1896.64,-477 1947.49,-508.59 1979.84,-573.859 1994.98,-611.19"/>
<polygon fill="black" stroke="black" points="1991.89,-612.893 1998.8,-620.927 1998.41,-610.339 1991.89,-612.893"/>
</g>
<!-- NetworkDownloadSpeed -->
<g id="node26" class="node"><title>NetworkDownloadSpeed</title>
<ellipse fill="none" stroke="black" cx="1690.61" cy="-396" rx="99.3824" ry="18"/>
<text text-anchor="middle" x="1690.61" y="-392.3" font-family="Times,serif" font-size="14.00">NetworkDownloadSpeed</text>
</g>
<!-- NetworkDownloadSpeed&#45;&gt;NumericAttribute -->
<g id="edge25" class="edge"><title>NetworkDownloadSpeed&#45;&gt;NumericAttribute</title>
<path fill="none" stroke="black" d="M1784.46,-390.007C1822.27,-391.944 1864.53,-400.162 1896.64,-423 1960.86,-468.672 1989.22,-563.574 1999.77,-610.9"/>
<polygon fill="black" stroke="black" points="1996.37,-611.724 2001.86,-620.78 2003.21,-610.271 1996.37,-611.724"/>
</g>
<!-- github.com/supermuesli/csdl@examples/Requirement1.py@latest -->
<g id="node27" class="node"><title>github.com/supermuesli/csdl@examples/Requirement1.py@latest</title>
<ellipse fill="none" stroke="black" cx="245.678" cy="-72" rx="245.857" ry="18"/>
<text text-anchor="middle" x="245.678" y="-68.3" font-family="Times,serif" font-size="14.00">github.com/supermuesli/csdl@examples/Requirement1.py@latest</text>
</g>
<!-- github.com/supermuesli/csdl@examples/Requirement1.py@latest&#45;&gt;VMAsAService -->
<g id="edge26" class="edge"><title>github.com/supermuesli/csdl@examples/Requirement1.py@latest&#45;&gt;VMAsAService</title>
<path fill="none" stroke="black" d="M439.779,-60.9402C511.084,-56.8562 587.769,-52.4641 642.55,-49.3265"/>
<polygon fill="black" stroke="black" points="643.078,-52.8021 652.862,-48.7359 642.678,-45.8135 643.078,-52.8021"/>
</g>
<!-- github.com/supermuesli/csdl@misc/StaticIp.py@latest -->
<g id="node28" class="node"><title>github.com/supermuesli/csdl@misc/StaticIp.py@latest</title>
<ellipse fill="none" stroke="black" cx="1690.61" cy="-342" rx="206.063" ry="18"/>
<text text-anchor="middle" x="1690.61" y="-338.3" font-family="Times,serif" font-size="14.00">github.com/supermuesli/csdl@misc/StaticIp.py@latest</text>
</g>
<!-- github.com/supermuesli/csdl@misc/StaticIp.py@latest&#45;&gt;NumericAttribute -->
<g id="edge27" class="edge"><title>github.com/supermuesli/csdl@misc/StaticIp.py@latest&#45;&gt;NumericAttribute</title>
<path fill="none" stroke="black" d="M1866.49,-351.448C1877.24,-356.075 1887.42,-361.847 1896.64,-369 1974.46,-429.387 1996.65,-554.436 2002.8,-610.601"/>
<polygon fill="black" stroke="black" points="1999.35,-611.275 2003.83,-620.877 2006.32,-610.578 1999.35,-611.275"/>
</g>
<!-- github.com/supermuesli/csdl@aws/ec2/A1Large.py@latest -->
<g id="node29" class="node"><title>github.com/supermuesli/csdl@aws/ec2/A1Large.py@latest</title>
<ellipse fill="none" stroke="black" cx="245.678" cy="-18" rx="221.761" ry="18"/>
<text text-anchor="middle" x="245.678" y="-14.3" font-family="Times,serif" font-size="14.00">github.com/supermuesli/csdl@aws/ec2/A1Large.py@latest</text>
</g>
<!-- github.com/supermuesli/csdl@aws/ec2/A1Large.py@latest&#45;&gt;VMAsAService -->
<g id="edge28" class="edge"><title>github.com/supermuesli/csdl@aws/ec2/A1Large.py@latest&#45;&gt;VMAsAService</title>
<path fill="none" stroke="black" d="M427.253,-28.3424C502,-32.6235 584.584,-37.3535 642.591,-40.6758"/>
<polygon fill="black" stroke="black" points="642.583,-44.181 652.767,-41.2586 642.983,-37.1925 642.583,-44.181"/>
</g>
<!-- github.com/supermuesli/csdl@aws/Region.py@latest -->
<g id="node30" class="node"><title>github.com/supermuesli/csdl@aws/Region.py@latest</title>
<ellipse fill="none" stroke="black" cx="1197.7" cy="-288" rx="200.665" ry="18"/>
<text text-anchor="middle" x="1197.7" y="-284.3" font-family="Times,serif" font-size="14.00">github.com/supermuesli/csdl@aws/Region.py@latest</text>
</g>
<!-- github.com/supermuesli/csdl@aws/Region.py@latest&#45;&gt;Region -->
<g id="edge29" class="edge"><title>github.com/supermuesli/csdl@aws/Region.py@latest&#45;&gt;Region</title>
<path fill="none" stroke="black" d="M1398.73,-288C1488.94,-288 1587.65,-288 1643.76,-288"/>
<polygon fill="black" stroke="black" points="1644.07,-291.5 1654.07,-288 1644.07,-284.5 1644.07,-291.5"/>
</g>
<!-- github.com/supermuesli/csdl@aws/EBS.py@latest -->
<g id="node31" class="node"><title>github.com/supermuesli/csdl@aws/EBS.py@latest</title>
<ellipse fill="none" stroke="black" cx="719.089" cy="-99" rx="191.966" ry="18"/>
<text text-anchor="middle" x="719.089" y="-95.3" font-family="Times,serif" font-size="14.00">github.com/supermuesli/csdl@aws/EBS.py@latest</text>
</g>
<!-- github.com/supermuesli/csdl@aws/EBS.py@latest&#45;&gt;StorageAsAService -->
<g id="edge30" class="edge"><title>github.com/supermuesli/csdl@aws/EBS.py@latest&#45;&gt;StorageAsAService</title>
<path fill="none" stroke="black" d="M910.856,-99C978.796,-99 1052.11,-99 1107.48,-99"/>
<polygon fill="black" stroke="black" points="1107.6,-102.5 1117.6,-99 1107.6,-95.5001 1107.6,-102.5"/>
</g>
<!-- github.com/supermuesli/csdl@aws/ec2/ElasticIpAmount.py@latest -->
<g id="node32" class="node"><title>github.com/supermuesli/csdl@aws/ec2/ElasticIpAmount.py@latest</title>
<ellipse fill="none" stroke="black" cx="1197.7" cy="-342" rx="250.756" ry="18"/>
<text text-anchor="middle" x="1197.7" y="-338.3" font-family="Times,serif" font-size="14.00">github.com/supermuesli/csdl@aws/ec2/ElasticIpAmount.py@latest</text>
</g>
<!-- github.com/supermuesli/csdl@aws/ec2/ElasticIpAmount.py@latest&#45;&gt;github.com/supermuesli/csdl@misc/StaticIp.py@latest -->
<g id="edge31" class="edge"><title>github.com/supermuesli/csdl@aws/ec2/ElasticIpAmount.py@latest&#45;&gt;github.com/supermuesli/csdl@misc/StaticIp.py@latest</title>
<path fill="none" stroke="black" d="M1448.83,-342C1457.32,-342 1465.81,-342 1474.25,-342"/>
<polygon fill="black" stroke="black" points="1474.52,-345.5 1484.52,-342 1474.52,-338.5 1474.52,-345.5"/>
</g>
</g>
</svg>
