<?xml version="1.0" encoding="UTF-8" standalone="no"?>
<!DOCTYPE svg PUBLIC "-//W3C//DTD SVG 1.1//EN"
 "http://www.w3.org/Graphics/SVG/1.1/DTD/svg11.dtd">
<!-- Generated by graphviz version 2.38.0 (20140413.2041)
 -->
<!-- Title: %3 Pages: 1 -->
<svg width="2488pt" height="1637pt"
 viewBox="0.00 0.00 2488.40 1637.00" xmlns="http://www.w3.org/2000/svg" xmlns:xlink="http://www.w3.org/1999/xlink">
<g id="graph0" class="graph" transform="scale(1 1) rotate(0) translate(4 1633)">
<title>%3</title>
<polygon fill="white" stroke="none" points="-4,4 -4,-1633 2484.4,-1633 2484.4,4 -4,4"/>
<!-- VMAsAService -->
<g id="node1" class="node"><title>VMAsAService</title>
<ellipse fill="none" stroke="black" cx="775.634" cy="-45" rx="67.6881" ry="18"/>
<text text-anchor="middle" x="775.634" y="-41.3" font-family="Times,serif" font-size="14.00">VMAsAService</text>
</g>
<!-- ServerAsAService -->
<g id="node2" class="node"><title>ServerAsAService</title>
<ellipse fill="none" stroke="black" cx="1310.79" cy="-45" rx="76.0865" ry="18"/>
<text text-anchor="middle" x="1310.79" y="-41.3" font-family="Times,serif" font-size="14.00">ServerAsAService</text>
</g>
<!-- VMAsAService&#45;&gt;ServerAsAService -->
<g id="edge1" class="edge"><title>VMAsAService&#45;&gt;ServerAsAService</title>
<path fill="none" stroke="black" d="M843.35,-45C939.847,-45 1118.39,-45 1224.39,-45"/>
<polygon fill="black" stroke="black" points="1224.41,-48.5001 1234.41,-45 1224.41,-41.5001 1224.41,-48.5001"/>
</g>
<!-- IaaS -->
<g id="node3" class="node"><title>IaaS</title>
<ellipse fill="none" stroke="black" cx="1836.85" cy="-99" rx="27" ry="18"/>
<text text-anchor="middle" x="1836.85" y="-95.3" font-family="Times,serif" font-size="14.00">IaaS</text>
</g>
<!-- ServerAsAService&#45;&gt;IaaS -->
<g id="edge2" class="edge"><title>ServerAsAService&#45;&gt;IaaS</title>
<path fill="none" stroke="black" d="M1380.84,-52.1151C1493.7,-63.7445 1713.74,-86.4179 1799.96,-95.3027"/>
<polygon fill="black" stroke="black" points="1799.73,-98.7971 1810.04,-96.3406 1800.45,-91.834 1799.73,-98.7971"/>
</g>
<!-- CCS -->
<g id="node5" class="node"><title>CCS</title>
<ellipse fill="none" stroke="black" cx="2185.47" cy="-153" rx="27.0966" ry="18"/>
<text text-anchor="middle" x="2185.47" y="-149.3" font-family="Times,serif" font-size="14.00">CCS</text>
</g>
<!-- IaaS&#45;&gt;CCS -->
<g id="edge4" class="edge"><title>IaaS&#45;&gt;CCS</title>
<path fill="none" stroke="black" d="M1863.74,-100.817C1907.65,-104.147 1999.44,-112.187 2076.03,-126 2101.13,-130.528 2129.05,-137.527 2150.28,-143.265"/>
<polygon fill="black" stroke="black" points="2149.55,-146.694 2160.12,-145.964 2151.4,-139.943 2149.55,-146.694"/>
</g>
<!-- SaaS -->
<g id="node4" class="node"><title>SaaS</title>
<ellipse fill="none" stroke="black" cx="1836.85" cy="-153" rx="28.6953" ry="18"/>
<text text-anchor="middle" x="1836.85" y="-149.3" font-family="Times,serif" font-size="14.00">SaaS</text>
</g>
<!-- SaaS&#45;&gt;CCS -->
<g id="edge3" class="edge"><title>SaaS&#45;&gt;CCS</title>
<path fill="none" stroke="black" d="M1865.63,-153C1927.82,-153 2078.24,-153 2147.92,-153"/>
<polygon fill="black" stroke="black" points="2147.99,-156.5 2157.99,-153 2147.99,-149.5 2147.99,-156.5"/>
</g>
<!-- Attribute -->
<g id="node8" class="node"><title>Attribute</title>
<ellipse fill="none" stroke="black" cx="2337.16" cy="-504" rx="42.4939" ry="18"/>
<text text-anchor="middle" x="2337.16" y="-500.3" font-family="Times,serif" font-size="14.00">Attribute</text>
</g>
<!-- CCS&#45;&gt;Attribute -->
<g id="edge10" class="edge"><title>CCS&#45;&gt;Attribute</title>
<path fill="none" stroke="black" d="M2193.89,-170.406C2218.13,-227.231 2295.06,-407.62 2324.52,-476.712"/>
<polygon fill="black" stroke="black" points="2321.37,-478.245 2328.51,-486.071 2327.81,-475.499 2321.37,-478.245"/>
</g>
<!-- StorageAsAService -->
<g id="node6" class="node"><title>StorageAsAService</title>
<ellipse fill="none" stroke="black" cx="1310.79" cy="-99" rx="79.8859" ry="18"/>
<text text-anchor="middle" x="1310.79" y="-95.3" font-family="Times,serif" font-size="14.00">StorageAsAService</text>
</g>
<!-- StorageAsAService&#45;&gt;IaaS -->
<g id="edge5" class="edge"><title>StorageAsAService&#45;&gt;IaaS</title>
<path fill="none" stroke="black" d="M1390.81,-99C1506.12,-99 1715.86,-99 1799.75,-99"/>
<polygon fill="black" stroke="black" points="1799.81,-102.5 1809.81,-99 1799.81,-95.5001 1799.81,-102.5"/>
</g>
<!-- NumericAttribute -->
<g id="node7" class="node"><title>NumericAttribute</title>
<ellipse fill="none" stroke="black" cx="2185.47" cy="-1260" rx="73.387" ry="18"/>
<text text-anchor="middle" x="2185.47" y="-1256.3" font-family="Times,serif" font-size="14.00">NumericAttribute</text>
</g>
<!-- NumericAttribute&#45;&gt;Attribute -->
<g id="edge6" class="edge"><title>NumericAttribute&#45;&gt;Attribute</title>
<path fill="none" stroke="black" d="M2190.09,-1241.69C2210.03,-1141 2306.29,-654.859 2330.58,-532.167"/>
<polygon fill="black" stroke="black" points="2334.07,-532.562 2332.58,-522.072 2327.2,-531.202 2334.07,-532.562"/>
</g>
<!-- object -->
<g id="node12" class="node"><title>object</title>
<ellipse fill="none" stroke="black" cx="2447.9" cy="-504" rx="32.4942" ry="18"/>
<text text-anchor="middle" x="2447.9" y="-500.3" font-family="Times,serif" font-size="14.00">object</text>
</g>
<!-- Attribute&#45;&gt;object -->
<g id="edge11" class="edge"><title>Attribute&#45;&gt;object</title>
<path fill="none" stroke="black" d="M2379.58,-504C2387.85,-504 2396.55,-504 2404.84,-504"/>
<polygon fill="black" stroke="black" points="2405.07,-507.5 2415.07,-504 2405.07,-500.5 2405.07,-507.5"/>
</g>
<!-- ChoiceAttribute -->
<g id="node9" class="node"><title>ChoiceAttribute</title>
<ellipse fill="none" stroke="black" cx="2185.47" cy="-801" rx="67.6881" ry="18"/>
<text text-anchor="middle" x="2185.47" y="-797.3" font-family="Times,serif" font-size="14.00">ChoiceAttribute</text>
</g>
<!-- ChoiceAttribute&#45;&gt;Attribute -->
<g id="edge7" class="edge"><title>ChoiceAttribute&#45;&gt;Attribute</title>
<path fill="none" stroke="black" d="M2195.61,-782.868C2221.04,-732.404 2292.75,-590.128 2322.73,-530.653"/>
<polygon fill="black" stroke="black" points="2325.95,-532.026 2327.33,-521.52 2319.7,-528.875 2325.95,-532.026"/>
</g>
<!-- BoolAttribute -->
<g id="node10" class="node"><title>BoolAttribute</title>
<ellipse fill="none" stroke="black" cx="2185.47" cy="-531" rx="59.5901" ry="18"/>
<text text-anchor="middle" x="2185.47" y="-527.3" font-family="Times,serif" font-size="14.00">BoolAttribute</text>
</g>
<!-- BoolAttribute&#45;&gt;Attribute -->
<g id="edge8" class="edge"><title>BoolAttribute&#45;&gt;Attribute</title>
<path fill="none" stroke="black" d="M2237.15,-521.859C2253.43,-518.922 2271.42,-515.678 2287.55,-512.768"/>
<polygon fill="black" stroke="black" points="2288.62,-516.131 2297.84,-510.912 2287.38,-509.242 2288.62,-516.131"/>
</g>
<!-- OptionAttribute -->
<g id="node11" class="node"><title>OptionAttribute</title>
<ellipse fill="none" stroke="black" cx="2185.47" cy="-477" rx="66.8882" ry="18"/>
<text text-anchor="middle" x="2185.47" y="-473.3" font-family="Times,serif" font-size="14.00">OptionAttribute</text>
</g>
<!-- OptionAttribute&#45;&gt;Attribute -->
<g id="edge9" class="edge"><title>OptionAttribute&#45;&gt;Attribute</title>
<path fill="none" stroke="black" d="M2241.78,-486.977C2256.94,-489.711 2273.25,-492.652 2287.97,-495.308"/>
<polygon fill="black" stroke="black" points="2287.41,-498.764 2297.88,-497.095 2288.66,-491.875 2287.41,-498.764"/>
</g>
<!-- Region -->
<g id="node13" class="node"><title>Region</title>
<ellipse fill="none" stroke="black" cx="1836.85" cy="-909" rx="36.2938" ry="18"/>
<text text-anchor="middle" x="1836.85" y="-905.3" font-family="Times,serif" font-size="14.00">Region</text>
</g>
<!-- Region&#45;&gt;ChoiceAttribute -->
<g id="edge12" class="edge"><title>Region&#45;&gt;ChoiceAttribute</title>
<path fill="none" stroke="black" d="M1873.14,-910.641C1920.89,-911.622 2007.93,-908.977 2076.03,-882 2108.18,-869.26 2139.21,-844.391 2159.78,-825.554"/>
<polygon fill="black" stroke="black" points="2162.23,-828.058 2167.13,-818.667 2157.44,-822.95 2162.23,-828.058"/>
</g>
<!-- NorthAmerica -->
<g id="node14" class="node"><title>NorthAmerica</title>
<ellipse fill="none" stroke="black" cx="1836.85" cy="-693" rx="61.99" ry="18"/>
<text text-anchor="middle" x="1836.85" y="-689.3" font-family="Times,serif" font-size="14.00">NorthAmerica</text>
</g>
<!-- NorthAmerica&#45;&gt;OptionAttribute -->
<g id="edge13" class="edge"><title>NorthAmerica&#45;&gt;OptionAttribute</title>
<path fill="none" stroke="black" d="M1888.85,-702.794C1942.31,-709.895 2025.44,-711.501 2076.03,-666 2130.86,-616.677 2063.59,-559.627 2112.03,-504 2115.66,-499.824 2120.01,-496.293 2124.74,-493.307"/>
<polygon fill="black" stroke="black" points="2126.48,-496.345 2133.6,-488.501 2123.14,-490.191 2126.48,-496.345"/>
</g>
<!-- Australia -->
<g id="node15" class="node"><title>Australia</title>
<ellipse fill="none" stroke="black" cx="1836.85" cy="-639" rx="42.7926" ry="18"/>
<text text-anchor="middle" x="1836.85" y="-635.3" font-family="Times,serif" font-size="14.00">Australia</text>
</g>
<!-- Australia&#45;&gt;OptionAttribute -->
<g id="edge14" class="edge"><title>Australia&#45;&gt;OptionAttribute</title>
<path fill="none" stroke="black" d="M1876.42,-646.246C1927.88,-653.58 2019.12,-658.109 2076.03,-612 2115.34,-580.147 2076.88,-540.398 2112.03,-504 2115.93,-499.957 2120.49,-496.514 2125.4,-493.583"/>
<polygon fill="black" stroke="black" points="2127.27,-496.557 2134.53,-488.842 2124.04,-490.345 2127.27,-496.557"/>
</g>
<!-- Africa -->
<g id="node16" class="node"><title>Africa</title>
<ellipse fill="none" stroke="black" cx="1836.85" cy="-585" rx="33.2948" ry="18"/>
<text text-anchor="middle" x="1836.85" y="-581.3" font-family="Times,serif" font-size="14.00">Africa</text>
</g>
<!-- Africa&#45;&gt;OptionAttribute -->
<g id="edge15" class="edge"><title>Africa&#45;&gt;OptionAttribute</title>
<path fill="none" stroke="black" d="M1869.04,-589.342C1917.24,-594.419 2011.01,-597.665 2076.03,-558 2100.65,-542.977 2089.41,-521.907 2112.03,-504 2116.93,-500.118 2122.45,-496.754 2128.19,-493.849"/>
<polygon fill="black" stroke="black" points="2129.72,-496.999 2137.36,-489.653 2126.81,-490.634 2129.72,-496.999"/>
</g>
<!-- EastAsia -->
<g id="node17" class="node"><title>EastAsia</title>
<ellipse fill="none" stroke="black" cx="1836.85" cy="-531" rx="42.4939" ry="18"/>
<text text-anchor="middle" x="1836.85" y="-527.3" font-family="Times,serif" font-size="14.00">EastAsia</text>
</g>
<!-- EastAsia&#45;&gt;OptionAttribute -->
<g id="edge16" class="edge"><title>EastAsia&#45;&gt;OptionAttribute</title>
<path fill="none" stroke="black" d="M1878.54,-528.021C1926.15,-524.16 2007.22,-516.41 2076.03,-504 2093.1,-500.92 2111.48,-496.696 2128.17,-492.504"/>
<polygon fill="black" stroke="black" points="2129.5,-495.778 2138.32,-489.909 2127.76,-488.997 2129.5,-495.778"/>
</g>
<!-- SouthAmerica -->
<g id="node18" class="node"><title>SouthAmerica</title>
<ellipse fill="none" stroke="black" cx="1836.85" cy="-477" rx="61.99" ry="18"/>
<text text-anchor="middle" x="1836.85" y="-473.3" font-family="Times,serif" font-size="14.00">SouthAmerica</text>
</g>
<!-- SouthAmerica&#45;&gt;OptionAttribute -->
<g id="edge17" class="edge"><title>SouthAmerica&#45;&gt;OptionAttribute</title>
<path fill="none" stroke="black" d="M1898.62,-477C1956.92,-477 2045.16,-477 2108.17,-477"/>
<polygon fill="black" stroke="black" points="2108.45,-480.5 2118.45,-477 2108.45,-473.5 2108.45,-480.5"/>
</g>
<!-- Europe -->
<g id="node19" class="node"><title>Europe</title>
<ellipse fill="none" stroke="black" cx="1836.85" cy="-423" rx="36.2938" ry="18"/>
<text text-anchor="middle" x="1836.85" y="-419.3" font-family="Times,serif" font-size="14.00">Europe</text>
</g>
<!-- Europe&#45;&gt;OptionAttribute -->
<g id="edge18" class="edge"><title>Europe&#45;&gt;OptionAttribute</title>
<path fill="none" stroke="black" d="M1873.17,-425.548C1919.86,-429.248 2004.56,-437.11 2076.03,-450 2093.1,-453.08 2111.48,-457.304 2128.17,-461.496"/>
<polygon fill="black" stroke="black" points="2127.76,-465.003 2138.32,-464.091 2129.5,-458.222 2127.76,-465.003"/>
</g>
<!-- Antarctica -->
<g id="node20" class="node"><title>Antarctica</title>
<ellipse fill="none" stroke="black" cx="1836.85" cy="-369" rx="47.3916" ry="18"/>
<text text-anchor="middle" x="1836.85" y="-365.3" font-family="Times,serif" font-size="14.00">Antarctica</text>
</g>
<!-- Antarctica&#45;&gt;OptionAttribute -->
<g id="edge19" class="edge"><title>Antarctica&#45;&gt;OptionAttribute</title>
<path fill="none" stroke="black" d="M1882.23,-363.433C1932.92,-359.339 2016.52,-359.694 2076.03,-396 2100.65,-411.023 2089.41,-432.093 2112.03,-450 2116.93,-453.882 2122.45,-457.246 2128.19,-460.151"/>
<polygon fill="black" stroke="black" points="2126.81,-463.366 2137.36,-464.347 2129.72,-457.001 2126.81,-463.366"/>
</g>
<!-- Storage -->
<g id="node21" class="node"><title>Storage</title>
<ellipse fill="none" stroke="black" cx="1836.85" cy="-1611" rx="37.8943" ry="18"/>
<text text-anchor="middle" x="1836.85" y="-1607.3" font-family="Times,serif" font-size="14.00">Storage</text>
</g>
<!-- Storage&#45;&gt;NumericAttribute -->
<g id="edge20" class="edge"><title>Storage&#45;&gt;NumericAttribute</title>
<path fill="none" stroke="black" d="M1872.12,-1617.61C1922.65,-1625.26 2017.47,-1631.38 2076.03,-1584 2168.65,-1509.04 2182.68,-1352.23 2184.43,-1288.17"/>
<polygon fill="black" stroke="black" points="2187.94,-1288.08 2184.63,-1278.02 2180.94,-1287.95 2187.94,-1288.08"/>
</g>
<!-- StorageWriteSpeed -->
<g id="node22" class="node"><title>StorageWriteSpeed</title>
<ellipse fill="none" stroke="black" cx="1836.85" cy="-1557" rx="79.0865" ry="18"/>
<text text-anchor="middle" x="1836.85" y="-1553.3" font-family="Times,serif" font-size="14.00">StorageWriteSpeed</text>
</g>
<!-- StorageWriteSpeed&#45;&gt;NumericAttribute -->
<g id="edge21" class="edge"><title>StorageWriteSpeed&#45;&gt;NumericAttribute</title>
<path fill="none" stroke="black" d="M1903.88,-1566.62C1955.81,-1570.48 2027.28,-1567.13 2076.03,-1530 2154.55,-1470.19 2176.38,-1344.38 2182.32,-1288.17"/>
<polygon fill="black" stroke="black" points="2185.8,-1288.49 2183.28,-1278.2 2178.83,-1287.82 2185.8,-1288.49"/>
</g>
<!-- StorageReadSpeed -->
<g id="node23" class="node"><title>StorageReadSpeed</title>
<ellipse fill="none" stroke="black" cx="1836.85" cy="-1503" rx="77.1866" ry="18"/>
<text text-anchor="middle" x="1836.85" y="-1499.3" font-family="Times,serif" font-size="14.00">StorageReadSpeed</text>
</g>
<!-- StorageReadSpeed&#45;&gt;NumericAttribute -->
<g id="edge22" class="edge"><title>StorageReadSpeed&#45;&gt;NumericAttribute</title>
<path fill="none" stroke="black" d="M1904.91,-1511.62C1956.22,-1514.63 2026.37,-1510.65 2076.03,-1476 2140.81,-1430.8 2168.96,-1335.26 2179.32,-1287.87"/>
<polygon fill="black" stroke="black" points="2182.76,-1288.49 2181.37,-1277.99 2175.91,-1287.07 2182.76,-1288.49"/>
</g>
<!-- OperatingSystem -->
<g id="node24" class="node"><title>OperatingSystem</title>
<ellipse fill="none" stroke="black" cx="1836.85" cy="-855" rx="72.2875" ry="18"/>
<text text-anchor="middle" x="1836.85" y="-851.3" font-family="Times,serif" font-size="14.00">OperatingSystem</text>
</g>
<!-- OperatingSystem&#45;&gt;ChoiceAttribute -->
<g id="edge23" class="edge"><title>OperatingSystem&#45;&gt;ChoiceAttribute</title>
<path fill="none" stroke="black" d="M1905.95,-849.67C1953.77,-845.345 2019.1,-838.268 2076.03,-828 2093.1,-824.92 2111.48,-820.696 2128.17,-816.504"/>
<polygon fill="black" stroke="black" points="2129.5,-819.778 2138.32,-813.909 2127.76,-812.997 2129.5,-819.778"/>
</g>
<!-- CpuCores -->
<g id="node25" class="node"><title>CpuCores</title>
<ellipse fill="none" stroke="black" cx="1836.85" cy="-1449" rx="46.2923" ry="18"/>
<text text-anchor="middle" x="1836.85" y="-1445.3" font-family="Times,serif" font-size="14.00">CpuCores</text>
</g>
<!-- CpuCores&#45;&gt;NumericAttribute -->
<g id="edge24" class="edge"><title>CpuCores&#45;&gt;NumericAttribute</title>
<path fill="none" stroke="black" d="M1880.86,-1454.44C1931.4,-1458.63 2015.95,-1458.57 2076.03,-1422 2127.16,-1390.87 2159.4,-1325.43 2174.45,-1287.94"/>
<polygon fill="black" stroke="black" points="2177.89,-1288.75 2178.24,-1278.16 2171.36,-1286.22 2177.89,-1288.75"/>
</g>
<!-- CpuClockSpeed -->
<g id="node26" class="node"><title>CpuClockSpeed</title>
<ellipse fill="none" stroke="black" cx="1836.85" cy="-1395" rx="67.6881" ry="18"/>
<text text-anchor="middle" x="1836.85" y="-1391.3" font-family="Times,serif" font-size="14.00">CpuClockSpeed</text>
</g>
<!-- CpuClockSpeed&#45;&gt;NumericAttribute -->
<g id="edge25" class="edge"><title>CpuClockSpeed&#45;&gt;NumericAttribute</title>
<path fill="none" stroke="black" d="M1902.93,-1398.92C1952.69,-1399.32 2021.73,-1394.1 2076.03,-1368 2114.54,-1349.49 2147.46,-1311.61 2166.62,-1286.01"/>
<polygon fill="black" stroke="black" points="2169.51,-1287.98 2172.57,-1277.84 2163.85,-1283.86 2169.51,-1287.98"/>
</g>
<!-- Ram -->
<g id="node27" class="node"><title>Ram</title>
<ellipse fill="none" stroke="black" cx="1836.85" cy="-1341" rx="27.8951" ry="18"/>
<text text-anchor="middle" x="1836.85" y="-1337.3" font-family="Times,serif" font-size="14.00">Ram</text>
</g>
<!-- Ram&#45;&gt;NumericAttribute -->
<g id="edge26" class="edge"><title>Ram&#45;&gt;NumericAttribute</title>
<path fill="none" stroke="black" d="M1864.88,-1340.97C1909.7,-1340.25 2001.8,-1335.94 2076.03,-1314 2101.5,-1306.47 2128.24,-1293.22 2148.79,-1281.74"/>
<polygon fill="black" stroke="black" points="2150.53,-1284.77 2157.48,-1276.78 2147.06,-1278.69 2150.53,-1284.77"/>
</g>
<!-- RamClockSpeed -->
<g id="node28" class="node"><title>RamClockSpeed</title>
<ellipse fill="none" stroke="black" cx="1836.85" cy="-1287" rx="70.3881" ry="18"/>
<text text-anchor="middle" x="1836.85" y="-1283.3" font-family="Times,serif" font-size="14.00">RamClockSpeed</text>
</g>
<!-- RamClockSpeed&#45;&gt;NumericAttribute -->
<g id="edge27" class="edge"><title>RamClockSpeed&#45;&gt;NumericAttribute</title>
<path fill="none" stroke="black" d="M1904.27,-1281.83C1961.5,-1277.37 2044.25,-1270.92 2104.99,-1266.19"/>
<polygon fill="black" stroke="black" points="2105.61,-1269.65 2115.3,-1265.39 2105.06,-1262.67 2105.61,-1269.65"/>
</g>
<!-- RamWriteSpeed -->
<g id="node29" class="node"><title>RamWriteSpeed</title>
<ellipse fill="none" stroke="black" cx="1836.85" cy="-1233" rx="69.5877" ry="18"/>
<text text-anchor="middle" x="1836.85" y="-1229.3" font-family="Times,serif" font-size="14.00">RamWriteSpeed</text>
</g>
<!-- RamWriteSpeed&#45;&gt;NumericAttribute -->
<g id="edge28" class="edge"><title>RamWriteSpeed&#45;&gt;NumericAttribute</title>
<path fill="none" stroke="black" d="M1903.86,-1238.14C1961.05,-1242.6 2043.94,-1249.05 2104.81,-1253.79"/>
<polygon fill="black" stroke="black" points="2104.9,-1257.31 2115.14,-1254.6 2105.44,-1250.33 2104.9,-1257.31"/>
</g>
<!-- RamReadSpeed -->
<g id="node30" class="node"><title>RamReadSpeed</title>
<ellipse fill="none" stroke="black" cx="1836.85" cy="-1179" rx="67.6881" ry="18"/>
<text text-anchor="middle" x="1836.85" y="-1175.3" font-family="Times,serif" font-size="14.00">RamReadSpeed</text>
</g>
<!-- RamReadSpeed&#45;&gt;NumericAttribute -->
<g id="edge29" class="edge"><title>RamReadSpeed&#45;&gt;NumericAttribute</title>
<path fill="none" stroke="black" d="M1904.28,-1180.35C1952.74,-1182.82 2019.56,-1189.31 2076.03,-1206 2101.5,-1213.53 2128.24,-1226.78 2148.79,-1238.26"/>
<polygon fill="black" stroke="black" points="2147.06,-1241.31 2157.48,-1243.22 2150.53,-1235.23 2147.06,-1241.31"/>
</g>
<!-- NetworkCapacity -->
<g id="node31" class="node"><title>NetworkCapacity</title>
<ellipse fill="none" stroke="black" cx="1836.85" cy="-1125" rx="72.5877" ry="18"/>
<text text-anchor="middle" x="1836.85" y="-1121.3" font-family="Times,serif" font-size="14.00">NetworkCapacity</text>
</g>
<!-- NetworkCapacity&#45;&gt;NumericAttribute -->
<g id="edge30" class="edge"><title>NetworkCapacity&#45;&gt;NumericAttribute</title>
<path fill="none" stroke="black" d="M1907.89,-1121.06C1957.21,-1121.05 2023.52,-1126.76 2076.03,-1152 2114.54,-1170.51 2147.46,-1208.39 2166.62,-1233.99"/>
<polygon fill="black" stroke="black" points="2163.85,-1236.14 2172.57,-1242.16 2169.51,-1232.02 2163.85,-1236.14"/>
</g>
<!-- NetworkUploadSpeed -->
<g id="node32" class="node"><title>NetworkUploadSpeed</title>
<ellipse fill="none" stroke="black" cx="1836.85" cy="-1071" rx="89.0842" ry="18"/>
<text text-anchor="middle" x="1836.85" y="-1067.3" font-family="Times,serif" font-size="14.00">NetworkUploadSpeed</text>
</g>
<!-- NetworkUploadSpeed&#45;&gt;NumericAttribute -->
<g id="edge31" class="edge"><title>NetworkUploadSpeed&#45;&gt;NumericAttribute</title>
<path fill="none" stroke="black" d="M1918.61,-1063.76C1967.48,-1063.17 2029.19,-1069.49 2076.03,-1098 2127.16,-1129.13 2159.4,-1194.57 2174.45,-1232.06"/>
<polygon fill="black" stroke="black" points="2171.36,-1233.78 2178.24,-1241.84 2177.89,-1231.25 2171.36,-1233.78"/>
</g>
<!-- NetworkDownloadSpeed -->
<g id="node33" class="node"><title>NetworkDownloadSpeed</title>
<ellipse fill="none" stroke="black" cx="1836.85" cy="-1017" rx="99.3824" ry="18"/>
<text text-anchor="middle" x="1836.85" y="-1013.3" font-family="Times,serif" font-size="14.00">NetworkDownloadSpeed</text>
</g>
<!-- NetworkDownloadSpeed&#45;&gt;NumericAttribute -->
<g id="edge32" class="edge"><title>NetworkDownloadSpeed&#45;&gt;NumericAttribute</title>
<path fill="none" stroke="black" d="M1922.18,-1007.68C1971.16,-1006.59 2031.74,-1013.1 2076.03,-1044 2140.81,-1089.2 2168.96,-1184.74 2179.32,-1232.13"/>
<polygon fill="black" stroke="black" points="2175.91,-1232.93 2181.37,-1242.01 2182.76,-1231.51 2175.91,-1232.93"/>
</g>
<!-- PricingModel -->
<g id="node34" class="node"><title>PricingModel</title>
<ellipse fill="none" stroke="black" cx="1836.85" cy="-801" rx="59.5901" ry="18"/>
<text text-anchor="middle" x="1836.85" y="-797.3" font-family="Times,serif" font-size="14.00">PricingModel</text>
</g>
<!-- PricingModel&#45;&gt;ChoiceAttribute -->
<g id="edge33" class="edge"><title>PricingModel&#45;&gt;ChoiceAttribute</title>
<path fill="none" stroke="black" d="M1896.65,-801C1954.65,-801 2043.62,-801 2107.28,-801"/>
<polygon fill="black" stroke="black" points="2107.67,-804.5 2117.67,-801 2107.67,-797.5 2107.67,-804.5"/>
</g>
<!-- Static -->
<g id="node35" class="node"><title>Static</title>
<ellipse fill="none" stroke="black" cx="1836.85" cy="-315" rx="30.5947" ry="18"/>
<text text-anchor="middle" x="1836.85" y="-311.3" font-family="Times,serif" font-size="14.00">Static</text>
</g>
<!-- Static&#45;&gt;OptionAttribute -->
<g id="edge34" class="edge"><title>Static&#45;&gt;OptionAttribute</title>
<path fill="none" stroke="black" d="M1866.08,-309.341C1914.75,-301.319 2015.08,-292.616 2076.03,-342 2115.34,-373.853 2076.88,-413.602 2112.03,-450 2115.93,-454.043 2120.49,-457.486 2125.4,-460.417"/>
<polygon fill="black" stroke="black" points="2124.04,-463.655 2134.53,-465.158 2127.27,-457.443 2124.04,-463.655"/>
</g>
<!-- Dynamic -->
<g id="node36" class="node"><title>Dynamic</title>
<ellipse fill="none" stroke="black" cx="1836.85" cy="-261" rx="43.5923" ry="18"/>
<text text-anchor="middle" x="1836.85" y="-257.3" font-family="Times,serif" font-size="14.00">Dynamic</text>
</g>
<!-- Dynamic&#45;&gt;OptionAttribute -->
<g id="edge35" class="edge"><title>Dynamic&#45;&gt;OptionAttribute</title>
<path fill="none" stroke="black" d="M1876.25,-253.054C1928.37,-244.691 2021.26,-238.742 2076.03,-288 2130.86,-337.323 2063.59,-394.373 2112.03,-450 2115.66,-454.176 2120.01,-457.707 2124.74,-460.693"/>
<polygon fill="black" stroke="black" points="2123.14,-463.809 2133.6,-465.499 2126.48,-457.655 2123.14,-463.809"/>
</g>
<!-- PayAndGo -->
<g id="node37" class="node"><title>PayAndGo</title>
<ellipse fill="none" stroke="black" cx="1310.79" cy="-369" rx="50.0912" ry="18"/>
<text text-anchor="middle" x="1310.79" y="-365.3" font-family="Times,serif" font-size="14.00">PayAndGo</text>
</g>
<!-- PayAndGo&#45;&gt;Static -->
<g id="edge36" class="edge"><title>PayAndGo&#45;&gt;Static</title>
<path fill="none" stroke="black" d="M1359.22,-364.113C1461.7,-353.552 1702.17,-328.775 1796.7,-319.034"/>
<polygon fill="black" stroke="black" points="1797.11,-322.51 1806.7,-318.004 1796.39,-315.547 1797.11,-322.51"/>
</g>
<!-- PayPerResource -->
<g id="node38" class="node"><title>PayPerResource</title>
<ellipse fill="none" stroke="black" cx="1310.79" cy="-315" rx="68.4888" ry="18"/>
<text text-anchor="middle" x="1310.79" y="-311.3" font-family="Times,serif" font-size="14.00">PayPerResource</text>
</g>
<!-- PayPerResource&#45;&gt;Static -->
<g id="edge37" class="edge"><title>PayPerResource&#45;&gt;Static</title>
<path fill="none" stroke="black" d="M1379.23,-315C1489.87,-315 1706.55,-315 1795.88,-315"/>
<polygon fill="black" stroke="black" points="1796.13,-318.5 1806.13,-315 1796.13,-311.5 1796.13,-318.5"/>
</g>
<!-- Subscription -->
<g id="node39" class="node"><title>Subscription</title>
<ellipse fill="none" stroke="black" cx="1310.79" cy="-261" rx="55.4913" ry="18"/>
<text text-anchor="middle" x="1310.79" y="-257.3" font-family="Times,serif" font-size="14.00">Subscription</text>
</g>
<!-- Subscription&#45;&gt;Static -->
<g id="edge38" class="edge"><title>Subscription&#45;&gt;Static</title>
<path fill="none" stroke="black" d="M1363.95,-266.375C1468.78,-277.177 1702.92,-301.303 1796.3,-310.925"/>
<polygon fill="black" stroke="black" points="1796.14,-314.427 1806.45,-311.971 1796.86,-307.464 1796.14,-314.427"/>
</g>
<!-- Price -->
<g id="node40" class="node"><title>Price</title>
<ellipse fill="none" stroke="black" cx="2185.47" cy="-423" rx="28.6953" ry="18"/>
<text text-anchor="middle" x="2185.47" y="-419.3" font-family="Times,serif" font-size="14.00">Price</text>
</g>
<!-- Price&#45;&gt;Attribute -->
<g id="edge39" class="edge"><title>Price&#45;&gt;Attribute</title>
<path fill="none" stroke="black" d="M2211.62,-430.623C2225.87,-435.37 2243.82,-442.077 2258.91,-450 2276.07,-459.007 2293.88,-471.236 2308.07,-481.779"/>
<polygon fill="black" stroke="black" points="2306.32,-484.839 2316.4,-488.082 2310.54,-479.257 2306.32,-484.839"/>
</g>
<!-- DatabaseAsAService -->
<g id="node41" class="node"><title>DatabaseAsAService</title>
<ellipse fill="none" stroke="black" cx="1310.79" cy="-153" rx="85.2851" ry="18"/>
<text text-anchor="middle" x="1310.79" y="-149.3" font-family="Times,serif" font-size="14.00">DatabaseAsAService</text>
</g>
<!-- DatabaseAsAService&#45;&gt;SaaS -->
<g id="edge40" class="edge"><title>DatabaseAsAService&#45;&gt;SaaS</title>
<path fill="none" stroke="black" d="M1395.99,-153C1511.55,-153 1714.5,-153 1798.16,-153"/>
<polygon fill="black" stroke="black" points="1798.22,-156.5 1808.22,-153 1798.22,-149.5 1798.22,-156.5"/>
</g>
<!-- SQLDatabaseAsAService -->
<g id="node42" class="node"><title>SQLDatabaseAsAService</title>
<ellipse fill="none" stroke="black" cx="775.634" cy="-207" rx="102.082" ry="18"/>
<text text-anchor="middle" x="775.634" y="-203.3" font-family="Times,serif" font-size="14.00">SQLDatabaseAsAService</text>
</g>
<!-- SQLDatabaseAsAService&#45;&gt;DatabaseAsAService -->
<g id="edge41" class="edge"><title>SQLDatabaseAsAService&#45;&gt;DatabaseAsAService</title>
<path fill="none" stroke="black" d="M864.376,-198.113C963.826,-188.041 1124.91,-171.726 1223.68,-161.722"/>
<polygon fill="black" stroke="black" points="1224.03,-165.204 1233.63,-160.714 1223.33,-158.239 1224.03,-165.204"/>
</g>
<!-- NoSQLDatabaseAsAService -->
<g id="node43" class="node"><title>NoSQLDatabaseAsAService</title>
<ellipse fill="none" stroke="black" cx="775.634" cy="-153" rx="112.38" ry="18"/>
<text text-anchor="middle" x="775.634" y="-149.3" font-family="Times,serif" font-size="14.00">NoSQLDatabaseAsAService</text>
</g>
<!-- NoSQLDatabaseAsAService&#45;&gt;DatabaseAsAService -->
<g id="edge42" class="edge"><title>NoSQLDatabaseAsAService&#45;&gt;DatabaseAsAService</title>
<path fill="none" stroke="black" d="M888.077,-153C985.027,-153 1123.96,-153 1215.5,-153"/>
<polygon fill="black" stroke="black" points="1215.59,-156.5 1225.59,-153 1215.59,-149.5 1215.59,-156.5"/>
</g>
<!-- github.com/supermuesli/csdl@examples/Requirement1.py@latest -->
<g id="node44" class="node"><title>github.com/supermuesli/csdl@examples/Requirement1.py@latest</title>
<ellipse fill="none" stroke="black" cx="245.678" cy="-72" rx="245.857" ry="18"/>
<text text-anchor="middle" x="245.678" y="-68.3" font-family="Times,serif" font-size="14.00">github.com/supermuesli/csdl@examples/Requirement1.py@latest</text>
</g>
<!-- github.com/supermuesli/csdl@examples/Requirement1.py@latest&#45;&gt;VMAsAService -->
<g id="edge43" class="edge"><title>github.com/supermuesli/csdl@examples/Requirement1.py@latest&#45;&gt;VMAsAService</title>
<path fill="none" stroke="black" d="M447.782,-61.7154C535.605,-57.2241 633.286,-52.2286 698.791,-48.8787"/>
<polygon fill="black" stroke="black" points="699.214,-52.3617 709.022,-48.3555 698.856,-45.3709 699.214,-52.3617"/>
</g>
<!-- github.com/supermuesli/csdl@misc/StaticIp.py@latest -->
<g id="node45" class="node"><title>github.com/supermuesli/csdl@misc/StaticIp.py@latest</title>
<ellipse fill="none" stroke="black" cx="1836.85" cy="-963" rx="206.063" ry="18"/>
<text text-anchor="middle" x="1836.85" y="-959.3" font-family="Times,serif" font-size="14.00">github.com/supermuesli/csdl@misc/StaticIp.py@latest</text>
</g>
<!-- github.com/supermuesli/csdl@misc/StaticIp.py@latest&#45;&gt;NumericAttribute -->
<g id="edge44" class="edge"><title>github.com/supermuesli/csdl@misc/StaticIp.py@latest&#45;&gt;NumericAttribute</title>
<path fill="none" stroke="black" d="M2035.35,-967.878C2049.91,-973.377 2063.69,-980.608 2076.03,-990 2154.55,-1049.81 2176.38,-1175.62 2182.32,-1231.83"/>
<polygon fill="black" stroke="black" points="2178.83,-1232.18 2183.28,-1241.8 2185.8,-1231.51 2178.83,-1232.18"/>
</g>
<!-- github.com/supermuesli/csdl@misc/countries/USA.py@latest -->
<g id="node46" class="node"><title>github.com/supermuesli/csdl@misc/countries/USA.py@latest</title>
<ellipse fill="none" stroke="black" cx="1310.79" cy="-693" rx="231.259" ry="18"/>
<text text-anchor="middle" x="1310.79" y="-689.3" font-family="Times,serif" font-size="14.00">github.com/supermuesli/csdl@misc/countries/USA.py@latest</text>
</g>
<!-- github.com/supermuesli/csdl@misc/countries/USA.py@latest&#45;&gt;NorthAmerica -->
<g id="edge45" class="edge"><title>github.com/supermuesli/csdl@misc/countries/USA.py@latest&#45;&gt;NorthAmerica</title>
<path fill="none" stroke="black" d="M1542.41,-693C1622.85,-693 1707.29,-693 1764.83,-693"/>
<polygon fill="black" stroke="black" points="1764.89,-696.5 1774.89,-693 1764.89,-689.5 1764.89,-696.5"/>
</g>
<!-- github.com/supermuesli/csdl@aws/ec2/EC2.py@latest -->
<g id="node47" class="node"><title>github.com/supermuesli/csdl@aws/ec2/EC2.py@latest</title>
<ellipse fill="none" stroke="black" cx="245.678" cy="-18" rx="206.063" ry="18"/>
<text text-anchor="middle" x="245.678" y="-14.3" font-family="Times,serif" font-size="14.00">github.com/supermuesli/csdl@aws/ec2/EC2.py@latest</text>
</g>
<!-- github.com/supermuesli/csdl@aws/ec2/EC2.py@latest&#45;&gt;VMAsAService -->
<g id="edge46" class="edge"><title>github.com/supermuesli/csdl@aws/ec2/EC2.py@latest&#45;&gt;VMAsAService</title>
<path fill="none" stroke="black" d="M423.949,-27.0657C517.457,-31.8478 627.295,-37.465 698.795,-41.1215"/>
<polygon fill="black" stroke="black" points="698.893,-44.631 709.059,-41.6464 699.251,-37.6402 698.893,-44.631"/>
</g>
<!-- github.com/supermuesli/csdl@aws/regions/Region.py@latest -->
<g id="node48" class="node"><title>github.com/supermuesli/csdl@aws/regions/Region.py@latest</title>
<ellipse fill="none" stroke="black" cx="1310.79" cy="-909" rx="229.359" ry="18"/>
<text text-anchor="middle" x="1310.79" y="-905.3" font-family="Times,serif" font-size="14.00">github.com/supermuesli/csdl@aws/regions/Region.py@latest</text>
</g>
<!-- github.com/supermuesli/csdl@aws/regions/Region.py@latest&#45;&gt;Region -->
<g id="edge47" class="edge"><title>github.com/supermuesli/csdl@aws/regions/Region.py@latest&#45;&gt;Region</title>
<path fill="none" stroke="black" d="M1540.51,-909C1634.24,-909 1733.76,-909 1790.02,-909"/>
<polygon fill="black" stroke="black" points="1790.34,-912.5 1800.34,-909 1790.34,-905.5 1790.34,-912.5"/>
</g>
<!-- github.com/supermuesli/csdl@aws/regions/California.py@latest -->
<g id="node49" class="node"><title>github.com/supermuesli/csdl@aws/regions/California.py@latest</title>
<ellipse fill="none" stroke="black" cx="775.634" cy="-747" rx="239.358" ry="18"/>
<text text-anchor="middle" x="775.634" y="-743.3" font-family="Times,serif" font-size="14.00">github.com/supermuesli/csdl@aws/regions/California.py@latest</text>
</g>
<!-- github.com/supermuesli/csdl@aws/regions/California.py@latest&#45;&gt;github.com/supermuesli/csdl@misc/countries/USA.py@latest -->
<g id="edge48" class="edge"><title>github.com/supermuesli/csdl@aws/regions/California.py@latest&#45;&gt;github.com/supermuesli/csdl@misc/countries/USA.py@latest</title>
<path fill="none" stroke="black" d="M919.16,-732.564C993.258,-725.06 1083.81,-715.888 1159.07,-708.265"/>
<polygon fill="black" stroke="black" points="1159.52,-711.738 1169.11,-707.248 1158.81,-704.774 1159.52,-711.738"/>
</g>
<!-- github.com/supermuesli/csdl@aws/regions/EastVirginia.py@latest -->
<g id="node50" class="node"><title>github.com/supermuesli/csdl@aws/regions/EastVirginia.py@latest</title>
<ellipse fill="none" stroke="black" cx="775.634" cy="-693" rx="248.056" ry="18"/>
<text text-anchor="middle" x="775.634" y="-689.3" font-family="Times,serif" font-size="14.00">github.com/supermuesli/csdl@aws/regions/EastVirginia.py@latest</text>
</g>
<!-- github.com/supermuesli/csdl@aws/regions/EastVirginia.py@latest&#45;&gt;github.com/supermuesli/csdl@misc/countries/USA.py@latest -->
<g id="edge49" class="edge"><title>github.com/supermuesli/csdl@aws/regions/EastVirginia.py@latest&#45;&gt;github.com/supermuesli/csdl@misc/countries/USA.py@latest</title>
<path fill="none" stroke="black" d="M1024.09,-693C1039.02,-693 1054.03,-693 1068.92,-693"/>
<polygon fill="black" stroke="black" points="1069.22,-696.5 1079.22,-693 1069.22,-689.5 1069.22,-696.5"/>
</g>
<!-- github.com/supermuesli/csdl@aws/regions/NewYork.py@latest -->
<g id="node51" class="node"><title>github.com/supermuesli/csdl@aws/regions/NewYork.py@latest</title>
<ellipse fill="none" stroke="black" cx="775.634" cy="-639" rx="238.558" ry="18"/>
<text text-anchor="middle" x="775.634" y="-635.3" font-family="Times,serif" font-size="14.00">github.com/supermuesli/csdl@aws/regions/NewYork.py@latest</text>
</g>
<!-- github.com/supermuesli/csdl@aws/regions/NewYork.py@latest&#45;&gt;github.com/supermuesli/csdl@misc/countries/USA.py@latest -->
<g id="edge50" class="edge"><title>github.com/supermuesli/csdl@aws/regions/NewYork.py@latest&#45;&gt;github.com/supermuesli/csdl@misc/countries/USA.py@latest</title>
<path fill="none" stroke="black" d="M918.81,-653.4C992.91,-660.905 1083.54,-670.085 1158.88,-677.715"/>
<polygon fill="black" stroke="black" points="1158.63,-681.208 1168.93,-678.734 1159.34,-674.244 1158.63,-681.208"/>
</g>
<!-- github.com/supermuesli/csdl@aws/ec2/MachineType.py@latest -->
<g id="node52" class="node"><title>github.com/supermuesli/csdl@aws/ec2/MachineType.py@latest</title>
<ellipse fill="none" stroke="black" cx="1836.85" cy="-747" rx="239.358" ry="18"/>
<text text-anchor="middle" x="1836.85" y="-743.3" font-family="Times,serif" font-size="14.00">github.com/supermuesli/csdl@aws/ec2/MachineType.py@latest</text>
</g>
<!-- github.com/supermuesli/csdl@aws/ec2/MachineType.py@latest&#45;&gt;ChoiceAttribute -->
<g id="edge51" class="edge"><title>github.com/supermuesli/csdl@aws/ec2/MachineType.py@latest&#45;&gt;ChoiceAttribute</title>
<path fill="none" stroke="black" d="M1987.89,-760.975C2017.22,-764.561 2047.66,-768.885 2076.03,-774 2093.1,-777.08 2111.48,-781.304 2128.17,-785.496"/>
<polygon fill="black" stroke="black" points="2127.76,-789.003 2138.32,-788.091 2129.5,-782.222 2127.76,-789.003"/>
</g>
<!-- github.com/supermuesli/csdl@aws/ec2/A1Large.py@latest -->
<g id="node53" class="node"><title>github.com/supermuesli/csdl@aws/ec2/A1Large.py@latest</title>
<ellipse fill="none" stroke="black" cx="1836.85" cy="-207" rx="221.761" ry="18"/>
<text text-anchor="middle" x="1836.85" y="-203.3" font-family="Times,serif" font-size="14.00">github.com/supermuesli/csdl@aws/ec2/A1Large.py@latest</text>
</g>
<!-- github.com/supermuesli/csdl@aws/ec2/A1Large.py@latest&#45;&gt;OptionAttribute -->
<g id="edge52" class="edge"><title>github.com/supermuesli/csdl@aws/ec2/A1Large.py@latest&#45;&gt;OptionAttribute</title>
<path fill="none" stroke="black" d="M2046.08,-213.02C2056.94,-218.571 2067.05,-225.477 2076.03,-234 2146.62,-300.997 2050.11,-374.914 2112.03,-450 2115.41,-454.102 2119.48,-457.58 2123.94,-460.531"/>
<polygon fill="black" stroke="black" points="2122.5,-463.736 2132.93,-465.578 2125.93,-457.632 2122.5,-463.736"/>
</g>
<!-- github.com/supermuesli/csdl@aws/EBS.py@latest -->
<g id="node54" class="node"><title>github.com/supermuesli/csdl@aws/EBS.py@latest</title>
<ellipse fill="none" stroke="black" cx="775.634" cy="-99" rx="191.966" ry="18"/>
<text text-anchor="middle" x="775.634" y="-95.3" font-family="Times,serif" font-size="14.00">github.com/supermuesli/csdl@aws/EBS.py@latest</text>
</g>
<!-- github.com/supermuesli/csdl@aws/EBS.py@latest&#45;&gt;StorageAsAService -->
<g id="edge53" class="edge"><title>github.com/supermuesli/csdl@aws/EBS.py@latest&#45;&gt;StorageAsAService</title>
<path fill="none" stroke="black" d="M967.61,-99C1053.72,-99 1151.31,-99 1220.17,-99"/>
<polygon fill="black" stroke="black" points="1220.54,-102.5 1230.54,-99 1220.54,-95.5001 1220.54,-102.5"/>
</g>
<!-- github.com/supermuesli/csdl@aws/ec2/ElasticIpAmount.py@latest -->
<g id="node55" class="node"><title>github.com/supermuesli/csdl@aws/ec2/ElasticIpAmount.py@latest</title>
<ellipse fill="none" stroke="black" cx="1310.79" cy="-963" rx="250.756" ry="18"/>
<text text-anchor="middle" x="1310.79" y="-959.3" font-family="Times,serif" font-size="14.00">github.com/supermuesli/csdl@aws/ec2/ElasticIpAmount.py@latest</text>
</g>
<!-- github.com/supermuesli/csdl@aws/ec2/ElasticIpAmount.py@latest&#45;&gt;github.com/supermuesli/csdl@misc/StaticIp.py@latest -->
<g id="edge54" class="edge"><title>github.com/supermuesli/csdl@aws/ec2/ElasticIpAmount.py@latest&#45;&gt;github.com/supermuesli/csdl@misc/StaticIp.py@latest</title>
<path fill="none" stroke="black" d="M1561.92,-963C1581.55,-963 1601.26,-963 1620.63,-963"/>
<polygon fill="black" stroke="black" points="1620.72,-966.5 1630.72,-963 1620.72,-959.5 1620.72,-966.5"/>
</g>
</g>
</svg>
