<?xml version="1.0" encoding="UTF-8" standalone="no"?>
<!DOCTYPE svg PUBLIC "-//W3C//DTD SVG 1.1//EN"
 "http://www.w3.org/Graphics/SVG/1.1/DTD/svg11.dtd">
<!-- Generated by graphviz version 2.38.0 (20140413.2041)
 -->
<!-- Title: %3 Pages: 1 -->
<svg width="2585pt" height="1799pt"
 viewBox="0.00 0.00 2584.59 1799.00" xmlns="http://www.w3.org/2000/svg" xmlns:xlink="http://www.w3.org/1999/xlink">
<g id="graph0" class="graph" transform="scale(1 1) rotate(0) translate(4 1795)">
<title>%3</title>
<polygon fill="white" stroke="none" points="-4,4 -4,-1795 2580.59,-1795 2580.59,4 -4,4"/>
<!-- VMAsAService -->
<g id="node1" class="node"><title>VMAsAService</title>
<ellipse fill="none" stroke="black" cx="775.634" cy="-45" rx="67.6881" ry="18"/>
<text text-anchor="middle" x="775.634" y="-41.3" font-family="Times,serif" font-size="14.00">VMAsAService</text>
</g>
<!-- ServerAsAService -->
<g id="node2" class="node"><title>ServerAsAService</title>
<ellipse fill="none" stroke="black" cx="1335.49" cy="-45" rx="76.0865" ry="18"/>
<text text-anchor="middle" x="1335.49" y="-41.3" font-family="Times,serif" font-size="14.00">ServerAsAService</text>
</g>
<!-- VMAsAService&#45;&gt;ServerAsAService -->
<g id="edge1" class="edge"><title>VMAsAService&#45;&gt;ServerAsAService</title>
<path fill="none" stroke="black" d="M843.37,-45C944.753,-45 1137.54,-45 1249.03,-45"/>
<polygon fill="black" stroke="black" points="1249.23,-48.5001 1259.23,-45 1249.23,-41.5001 1249.23,-48.5001"/>
</g>
<!-- IaaS -->
<g id="node3" class="node"><title>IaaS</title>
<ellipse fill="none" stroke="black" cx="1909.64" cy="-99" rx="27" ry="18"/>
<text text-anchor="middle" x="1909.64" y="-95.3" font-family="Times,serif" font-size="14.00">IaaS</text>
</g>
<!-- ServerAsAService&#45;&gt;IaaS -->
<g id="edge2" class="edge"><title>ServerAsAService&#45;&gt;IaaS</title>
<path fill="none" stroke="black" d="M1406.36,-51.5944C1529.21,-63.1896 1779.72,-86.8321 1872.78,-95.6153"/>
<polygon fill="black" stroke="black" points="1872.54,-99.1079 1882.82,-96.5631 1873.19,-92.1389 1872.54,-99.1079"/>
</g>
<!-- CCS -->
<g id="node5" class="node"><title>CCS</title>
<ellipse fill="none" stroke="black" cx="2281.66" cy="-153" rx="27.0966" ry="18"/>
<text text-anchor="middle" x="2281.66" y="-149.3" font-family="Times,serif" font-size="14.00">CCS</text>
</g>
<!-- IaaS&#45;&gt;CCS -->
<g id="edge4" class="edge"><title>IaaS&#45;&gt;CCS</title>
<path fill="none" stroke="black" d="M1936.8,-100.474C1984.07,-103.409 2086.78,-111.031 2172.22,-126 2197.34,-130.402 2225.27,-137.405 2246.49,-143.175"/>
<polygon fill="black" stroke="black" points="2245.75,-146.603 2256.32,-145.893 2247.61,-139.856 2245.75,-146.603"/>
</g>
<!-- SaaS -->
<g id="node4" class="node"><title>SaaS</title>
<ellipse fill="none" stroke="black" cx="1909.64" cy="-153" rx="28.6953" ry="18"/>
<text text-anchor="middle" x="1909.64" y="-149.3" font-family="Times,serif" font-size="14.00">SaaS</text>
</g>
<!-- SaaS&#45;&gt;CCS -->
<g id="edge3" class="edge"><title>SaaS&#45;&gt;CCS</title>
<path fill="none" stroke="black" d="M1938.45,-153C2004.29,-153 2169.71,-153 2243.78,-153"/>
<polygon fill="black" stroke="black" points="2244.03,-156.5 2254.03,-153 2244.03,-149.5 2244.03,-156.5"/>
</g>
<!-- Attribute -->
<g id="node8" class="node"><title>Attribute</title>
<ellipse fill="none" stroke="black" cx="2433.35" cy="-585" rx="42.4939" ry="18"/>
<text text-anchor="middle" x="2433.35" y="-581.3" font-family="Times,serif" font-size="14.00">Attribute</text>
</g>
<!-- CCS&#45;&gt;Attribute -->
<g id="edge10" class="edge"><title>CCS&#45;&gt;Attribute</title>
<path fill="none" stroke="black" d="M2288.71,-170.47C2311.79,-237.076 2394.39,-475.441 2422.73,-557.225"/>
<polygon fill="black" stroke="black" points="2419.47,-558.531 2426.06,-566.834 2426.09,-556.239 2419.47,-558.531"/>
</g>
<!-- StorageAsAService -->
<g id="node6" class="node"><title>StorageAsAService</title>
<ellipse fill="none" stroke="black" cx="1335.49" cy="-99" rx="79.8859" ry="18"/>
<text text-anchor="middle" x="1335.49" y="-95.3" font-family="Times,serif" font-size="14.00">StorageAsAService</text>
</g>
<!-- StorageAsAService&#45;&gt;IaaS -->
<g id="edge5" class="edge"><title>StorageAsAService&#45;&gt;IaaS</title>
<path fill="none" stroke="black" d="M1415.44,-99C1541.06,-99 1781.52,-99 1872.53,-99"/>
<polygon fill="black" stroke="black" points="1872.62,-102.5 1882.62,-99 1872.62,-95.5001 1872.62,-102.5"/>
</g>
<!-- NumericAttribute -->
<g id="node7" class="node"><title>NumericAttribute</title>
<ellipse fill="none" stroke="black" cx="2281.66" cy="-1422" rx="73.387" ry="18"/>
<text text-anchor="middle" x="2281.66" y="-1418.3" font-family="Times,serif" font-size="14.00">NumericAttribute</text>
</g>
<!-- NumericAttribute&#45;&gt;Attribute -->
<g id="edge6" class="edge"><title>NumericAttribute&#45;&gt;Attribute</title>
<path fill="none" stroke="black" d="M2285.93,-1403.74C2305.18,-1296.08 2403.84,-744.396 2427.33,-613.079"/>
<polygon fill="black" stroke="black" points="2430.81,-613.48 2429.13,-603.02 2423.92,-612.248 2430.81,-613.48"/>
</g>
<!-- object -->
<g id="node12" class="node"><title>object</title>
<ellipse fill="none" stroke="black" cx="2544.09" cy="-585" rx="32.4942" ry="18"/>
<text text-anchor="middle" x="2544.09" y="-581.3" font-family="Times,serif" font-size="14.00">object</text>
</g>
<!-- Attribute&#45;&gt;object -->
<g id="edge11" class="edge"><title>Attribute&#45;&gt;object</title>
<path fill="none" stroke="black" d="M2475.77,-585C2484.04,-585 2492.74,-585 2501.03,-585"/>
<polygon fill="black" stroke="black" points="2501.26,-588.5 2511.26,-585 2501.26,-581.5 2501.26,-588.5"/>
</g>
<!-- ChoiceAttribute -->
<g id="node9" class="node"><title>ChoiceAttribute</title>
<ellipse fill="none" stroke="black" cx="2281.66" cy="-963" rx="67.6881" ry="18"/>
<text text-anchor="middle" x="2281.66" y="-959.3" font-family="Times,serif" font-size="14.00">ChoiceAttribute</text>
</g>
<!-- ChoiceAttribute&#45;&gt;Attribute -->
<g id="edge7" class="edge"><title>ChoiceAttribute&#45;&gt;Attribute</title>
<path fill="none" stroke="black" d="M2289.78,-945.023C2313.86,-884.207 2392.39,-685.896 2421.43,-612.576"/>
<polygon fill="black" stroke="black" points="2424.76,-613.674 2425.19,-603.087 2418.25,-611.096 2424.76,-613.674"/>
</g>
<!-- BoolAttribute -->
<g id="node10" class="node"><title>BoolAttribute</title>
<ellipse fill="none" stroke="black" cx="2281.66" cy="-612" rx="59.5901" ry="18"/>
<text text-anchor="middle" x="2281.66" y="-608.3" font-family="Times,serif" font-size="14.00">BoolAttribute</text>
</g>
<!-- BoolAttribute&#45;&gt;Attribute -->
<g id="edge8" class="edge"><title>BoolAttribute&#45;&gt;Attribute</title>
<path fill="none" stroke="black" d="M2333.34,-602.859C2349.62,-599.922 2367.61,-596.678 2383.74,-593.768"/>
<polygon fill="black" stroke="black" points="2384.81,-597.131 2394.03,-591.912 2383.57,-590.242 2384.81,-597.131"/>
</g>
<!-- NameAttribute -->
<g id="node11" class="node"><title>NameAttribute</title>
<ellipse fill="none" stroke="black" cx="2281.66" cy="-558" rx="63.8893" ry="18"/>
<text text-anchor="middle" x="2281.66" y="-554.3" font-family="Times,serif" font-size="14.00">NameAttribute</text>
</g>
<!-- NameAttribute&#45;&gt;Attribute -->
<g id="edge9" class="edge"><title>NameAttribute&#45;&gt;Attribute</title>
<path fill="none" stroke="black" d="M2335.86,-567.595C2351.42,-570.403 2368.36,-573.458 2383.63,-576.213"/>
<polygon fill="black" stroke="black" points="2383.44,-579.735 2393.9,-578.065 2384.68,-572.846 2383.44,-579.735"/>
</g>
<!-- Region -->
<g id="node13" class="node"><title>Region</title>
<ellipse fill="none" stroke="black" cx="1909.64" cy="-1071" rx="36.2938" ry="18"/>
<text text-anchor="middle" x="1909.64" y="-1067.3" font-family="Times,serif" font-size="14.00">Region</text>
</g>
<!-- Region&#45;&gt;ChoiceAttribute -->
<g id="edge12" class="edge"><title>Region&#45;&gt;ChoiceAttribute</title>
<path fill="none" stroke="black" d="M1945.87,-1073.18C1997.45,-1075.09 2095.67,-1073.88 2172.22,-1044 2204.63,-1031.35 2235.83,-1006.23 2256.38,-987.301"/>
<polygon fill="black" stroke="black" points="2258.83,-989.795 2263.71,-980.388 2254.03,-984.701 2258.83,-989.795"/>
</g>
<!-- NorthAmerica -->
<g id="node14" class="node"><title>NorthAmerica</title>
<ellipse fill="none" stroke="black" cx="1909.64" cy="-855" rx="61.99" ry="18"/>
<text text-anchor="middle" x="1909.64" y="-851.3" font-family="Times,serif" font-size="14.00">NorthAmerica</text>
</g>
<!-- NorthAmerica&#45;&gt;NameAttribute -->
<g id="edge13" class="edge"><title>NorthAmerica&#45;&gt;NameAttribute</title>
<path fill="none" stroke="black" d="M1959.09,-865.852C2017.76,-875.867 2115.72,-882.047 2172.22,-828 2251.11,-752.525 2139.52,-669.856 2208.22,-585 2211.81,-580.566 2216.2,-576.861 2221.03,-573.764"/>
<polygon fill="black" stroke="black" points="2223.01,-576.671 2230.13,-568.82 2219.67,-570.521 2223.01,-576.671"/>
</g>
<!-- Australia -->
<g id="node15" class="node"><title>Australia</title>
<ellipse fill="none" stroke="black" cx="1909.64" cy="-801" rx="42.7926" ry="18"/>
<text text-anchor="middle" x="1909.64" y="-797.3" font-family="Times,serif" font-size="14.00">Australia</text>
</g>
<!-- Australia&#45;&gt;NameAttribute -->
<g id="edge14" class="edge"><title>Australia&#45;&gt;NameAttribute</title>
<path fill="none" stroke="black" d="M1947.77,-809.536C2004.04,-820.078 2110.84,-830.347 2172.22,-774 2235.21,-716.17 2153.06,-650.34 2208.22,-585 2212.04,-580.467 2216.71,-576.694 2221.81,-573.554"/>
<polygon fill="black" stroke="black" points="2223.52,-576.608 2230.73,-568.845 2220.25,-570.417 2223.52,-576.608"/>
</g>
<!-- Africa -->
<g id="node16" class="node"><title>Africa</title>
<ellipse fill="none" stroke="black" cx="1909.64" cy="-747" rx="33.2948" ry="18"/>
<text text-anchor="middle" x="1909.64" y="-743.3" font-family="Times,serif" font-size="14.00">Africa</text>
</g>
<!-- Africa&#45;&gt;NameAttribute -->
<g id="edge15" class="edge"><title>Africa&#45;&gt;NameAttribute</title>
<path fill="none" stroke="black" d="M1940.68,-753.77C1994.11,-763.909 2106.24,-776.313 2172.22,-720 2219.45,-679.687 2166.47,-630.968 2208.22,-585 2212.21,-580.608 2216.98,-576.928 2222.14,-573.844"/>
<polygon fill="black" stroke="black" points="2223.86,-576.898 2231.14,-569.198 2220.64,-570.678 2223.86,-576.898"/>
</g>
<!-- EastAsia -->
<g id="node17" class="node"><title>EastAsia</title>
<ellipse fill="none" stroke="black" cx="1909.64" cy="-693" rx="42.4939" ry="18"/>
<text text-anchor="middle" x="1909.64" y="-689.3" font-family="Times,serif" font-size="14.00">EastAsia</text>
</g>
<!-- EastAsia&#45;&gt;NameAttribute -->
<g id="edge16" class="edge"><title>EastAsia&#45;&gt;NameAttribute</title>
<path fill="none" stroke="black" d="M1948.53,-700.035C2003.41,-708.004 2105.71,-714.262 2172.22,-666 2204.1,-642.863 2179.52,-611.988 2208.22,-585 2212.77,-580.716 2218.07,-577.097 2223.69,-574.043"/>
<polygon fill="black" stroke="black" points="2225.23,-577.186 2232.72,-569.694 2222.19,-570.879 2225.23,-577.186"/>
</g>
<!-- SouthAmerica -->
<g id="node18" class="node"><title>SouthAmerica</title>
<ellipse fill="none" stroke="black" cx="1909.64" cy="-639" rx="61.99" ry="18"/>
<text text-anchor="middle" x="1909.64" y="-635.3" font-family="Times,serif" font-size="14.00">SouthAmerica</text>
</g>
<!-- SouthAmerica&#45;&gt;NameAttribute -->
<g id="edge17" class="edge"><title>SouthAmerica&#45;&gt;NameAttribute</title>
<path fill="none" stroke="black" d="M1970.68,-641.762C2025.12,-642.211 2106.64,-637.674 2172.22,-612 2190.84,-604.708 2190.67,-594.591 2208.22,-585 2214.69,-581.46 2221.73,-578.195 2228.79,-575.25"/>
<polygon fill="black" stroke="black" points="2230.38,-578.384 2238.38,-571.436 2227.79,-571.88 2230.38,-578.384"/>
</g>
<!-- Europe -->
<g id="node19" class="node"><title>Europe</title>
<ellipse fill="none" stroke="black" cx="1909.64" cy="-585" rx="36.2938" ry="18"/>
<text text-anchor="middle" x="1909.64" y="-581.3" font-family="Times,serif" font-size="14.00">Europe</text>
</g>
<!-- Europe&#45;&gt;NameAttribute -->
<g id="edge18" class="edge"><title>Europe&#45;&gt;NameAttribute</title>
<path fill="none" stroke="black" d="M1945.78,-582.436C2006.04,-578.039 2130.19,-568.98 2209.23,-563.212"/>
<polygon fill="black" stroke="black" points="2209.87,-566.675 2219.59,-562.456 2209.36,-559.693 2209.87,-566.675"/>
</g>
<!-- Antarctica -->
<g id="node20" class="node"><title>Antarctica</title>
<ellipse fill="none" stroke="black" cx="1909.64" cy="-531" rx="47.3916" ry="18"/>
<text text-anchor="middle" x="1909.64" y="-527.3" font-family="Times,serif" font-size="14.00">Antarctica</text>
</g>
<!-- Antarctica&#45;&gt;NameAttribute -->
<g id="edge19" class="edge"><title>Antarctica&#45;&gt;NameAttribute</title>
<path fill="none" stroke="black" d="M1956.38,-534.338C2019.73,-538.96 2134.76,-547.354 2209.41,-552.801"/>
<polygon fill="black" stroke="black" points="2209.44,-556.312 2219.67,-553.55 2209.95,-549.331 2209.44,-556.312"/>
</g>
<!-- Currency -->
<g id="node21" class="node"><title>Currency</title>
<ellipse fill="none" stroke="black" cx="1909.64" cy="-1017" rx="43.5923" ry="18"/>
<text text-anchor="middle" x="1909.64" y="-1013.3" font-family="Times,serif" font-size="14.00">Currency</text>
</g>
<!-- Currency&#45;&gt;ChoiceAttribute -->
<g id="edge20" class="edge"><title>Currency&#45;&gt;ChoiceAttribute</title>
<path fill="none" stroke="black" d="M1953.03,-1014.47C2004.97,-1010.95 2095.54,-1003.43 2172.22,-990 2189.31,-987.006 2207.69,-982.808 2224.38,-978.613"/>
<polygon fill="black" stroke="black" points="2225.71,-981.886 2234.53,-976.013 2223.97,-975.105 2225.71,-981.886"/>
</g>
<!-- Storage -->
<g id="node22" class="node"><title>Storage</title>
<ellipse fill="none" stroke="black" cx="1909.64" cy="-1773" rx="37.8943" ry="18"/>
<text text-anchor="middle" x="1909.64" y="-1769.3" font-family="Times,serif" font-size="14.00">Storage</text>
</g>
<!-- Storage&#45;&gt;NumericAttribute -->
<g id="edge21" class="edge"><title>Storage&#45;&gt;NumericAttribute</title>
<path fill="none" stroke="black" d="M1944.63,-1780.11C1999.05,-1789.39 2106.3,-1798.8 2172.22,-1746 2265.22,-1671.51 2279.04,-1514.43 2280.68,-1450.23"/>
<polygon fill="black" stroke="black" points="2284.18,-1450.12 2280.85,-1440.06 2277.18,-1450 2284.18,-1450.12"/>
</g>
<!-- StorageWriteSpeed -->
<g id="node23" class="node"><title>StorageWriteSpeed</title>
<ellipse fill="none" stroke="black" cx="1909.64" cy="-1719" rx="79.0865" ry="18"/>
<text text-anchor="middle" x="1909.64" y="-1715.3" font-family="Times,serif" font-size="14.00">StorageWriteSpeed</text>
</g>
<!-- StorageWriteSpeed&#45;&gt;NumericAttribute -->
<g id="edge22" class="edge"><title>StorageWriteSpeed&#45;&gt;NumericAttribute</title>
<path fill="none" stroke="black" d="M1973.99,-1729.57C2031.46,-1735.51 2115.62,-1734.66 2172.22,-1692 2251.04,-1632.59 2272.72,-1506.56 2278.56,-1450.23"/>
<polygon fill="black" stroke="black" points="2282.05,-1450.53 2279.5,-1440.25 2275.08,-1449.87 2282.05,-1450.53"/>
</g>
<!-- StorageReadSpeed -->
<g id="node24" class="node"><title>StorageReadSpeed</title>
<ellipse fill="none" stroke="black" cx="1909.64" cy="-1665" rx="77.1866" ry="18"/>
<text text-anchor="middle" x="1909.64" y="-1661.3" font-family="Times,serif" font-size="14.00">StorageReadSpeed</text>
</g>
<!-- StorageReadSpeed&#45;&gt;NumericAttribute -->
<g id="edge23" class="edge"><title>StorageReadSpeed&#45;&gt;NumericAttribute</title>
<path fill="none" stroke="black" d="M1975.13,-1674.63C2031.99,-1679.59 2114.54,-1677.81 2172.22,-1638 2237.23,-1593.12 2265.27,-1497.44 2275.56,-1449.94"/>
<polygon fill="black" stroke="black" points="2279.01,-1450.53 2277.59,-1440.03 2272.15,-1449.12 2279.01,-1450.53"/>
</g>
<!-- OperatingSystem -->
<g id="node25" class="node"><title>OperatingSystem</title>
<ellipse fill="none" stroke="black" cx="1909.64" cy="-963" rx="72.2875" ry="18"/>
<text text-anchor="middle" x="1909.64" y="-959.3" font-family="Times,serif" font-size="14.00">OperatingSystem</text>
</g>
<!-- OperatingSystem&#45;&gt;ChoiceAttribute -->
<g id="edge24" class="edge"><title>OperatingSystem&#45;&gt;ChoiceAttribute</title>
<path fill="none" stroke="black" d="M1981.98,-963C2045.57,-963 2138.41,-963 2203.67,-963"/>
<polygon fill="black" stroke="black" points="2203.89,-966.5 2213.89,-963 2203.89,-959.5 2203.89,-966.5"/>
</g>
<!-- CpuCores -->
<g id="node26" class="node"><title>CpuCores</title>
<ellipse fill="none" stroke="black" cx="1909.64" cy="-1611" rx="46.2923" ry="18"/>
<text text-anchor="middle" x="1909.64" y="-1607.3" font-family="Times,serif" font-size="14.00">CpuCores</text>
</g>
<!-- CpuCores&#45;&gt;NumericAttribute -->
<g id="edge25" class="edge"><title>CpuCores&#45;&gt;NumericAttribute</title>
<path fill="none" stroke="black" d="M1953.49,-1617.12C2008.33,-1622.73 2104.35,-1624.85 2172.22,-1584 2223.64,-1553.05 2255.85,-1487.25 2270.8,-1449.73"/>
<polygon fill="black" stroke="black" points="2274.24,-1450.53 2274.56,-1439.94 2267.7,-1448.02 2274.24,-1450.53"/>
</g>
<!-- CpuClockSpeed -->
<g id="node27" class="node"><title>CpuClockSpeed</title>
<ellipse fill="none" stroke="black" cx="1909.64" cy="-1557" rx="67.6881" ry="18"/>
<text text-anchor="middle" x="1909.64" y="-1553.3" font-family="Times,serif" font-size="14.00">CpuClockSpeed</text>
</g>
<!-- CpuClockSpeed&#45;&gt;NumericAttribute -->
<g id="edge26" class="edge"><title>CpuClockSpeed&#45;&gt;NumericAttribute</title>
<path fill="none" stroke="black" d="M1974.58,-1562C2029.59,-1563.67 2109.73,-1559.65 2172.22,-1530 2210.82,-1511.68 2243.72,-1473.76 2262.85,-1448.09"/>
<polygon fill="black" stroke="black" points="2265.75,-1450.05 2268.79,-1439.9 2260.08,-1445.93 2265.75,-1450.05"/>
</g>
<!-- Ram -->
<g id="node28" class="node"><title>Ram</title>
<ellipse fill="none" stroke="black" cx="1909.64" cy="-1503" rx="27.8951" ry="18"/>
<text text-anchor="middle" x="1909.64" y="-1499.3" font-family="Times,serif" font-size="14.00">Ram</text>
</g>
<!-- Ram&#45;&gt;NumericAttribute -->
<g id="edge27" class="edge"><title>Ram&#45;&gt;NumericAttribute</title>
<path fill="none" stroke="black" d="M1937.6,-1503.36C1985.72,-1503.32 2089.13,-1500.11 2172.22,-1476 2197.73,-1468.6 2224.47,-1455.35 2245.01,-1443.83"/>
<polygon fill="black" stroke="black" points="2246.76,-1446.87 2253.7,-1438.86 2243.28,-1440.79 2246.76,-1446.87"/>
</g>
<!-- RamClockSpeed -->
<g id="node29" class="node"><title>RamClockSpeed</title>
<ellipse fill="none" stroke="black" cx="1909.64" cy="-1449" rx="70.3881" ry="18"/>
<text text-anchor="middle" x="1909.64" y="-1445.3" font-family="Times,serif" font-size="14.00">RamClockSpeed</text>
</g>
<!-- RamClockSpeed&#45;&gt;NumericAttribute -->
<g id="edge28" class="edge"><title>RamClockSpeed&#45;&gt;NumericAttribute</title>
<path fill="none" stroke="black" d="M1977.65,-1444.11C2040.44,-1439.53 2134.37,-1432.67 2200.98,-1427.81"/>
<polygon fill="black" stroke="black" points="2201.29,-1431.3 2211.01,-1427.08 2200.78,-1424.32 2201.29,-1431.3"/>
</g>
<!-- RamWriteSpeed -->
<g id="node30" class="node"><title>RamWriteSpeed</title>
<ellipse fill="none" stroke="black" cx="1909.64" cy="-1395" rx="69.5877" ry="18"/>
<text text-anchor="middle" x="1909.64" y="-1391.3" font-family="Times,serif" font-size="14.00">RamWriteSpeed</text>
</g>
<!-- RamWriteSpeed&#45;&gt;NumericAttribute -->
<g id="edge29" class="edge"><title>RamWriteSpeed&#45;&gt;NumericAttribute</title>
<path fill="none" stroke="black" d="M1976.79,-1399.83C2039.57,-1404.41 2134.01,-1411.3 2200.92,-1416.18"/>
<polygon fill="black" stroke="black" points="2200.77,-1419.68 2211,-1416.92 2201.28,-1412.7 2200.77,-1419.68"/>
</g>
<!-- RamReadSpeed -->
<g id="node31" class="node"><title>RamReadSpeed</title>
<ellipse fill="none" stroke="black" cx="1909.64" cy="-1341" rx="67.6881" ry="18"/>
<text text-anchor="middle" x="1909.64" y="-1337.3" font-family="Times,serif" font-size="14.00">RamReadSpeed</text>
</g>
<!-- RamReadSpeed&#45;&gt;NumericAttribute -->
<g id="edge30" class="edge"><title>RamReadSpeed&#45;&gt;NumericAttribute</title>
<path fill="none" stroke="black" d="M1977.47,-1341.34C2031.08,-1343.17 2107.76,-1349.3 2172.22,-1368 2197.73,-1375.4 2224.47,-1388.65 2245.01,-1400.17"/>
<polygon fill="black" stroke="black" points="2243.28,-1403.21 2253.7,-1405.14 2246.76,-1397.13 2243.28,-1403.21"/>
</g>
<!-- NetworkCapacity -->
<g id="node32" class="node"><title>NetworkCapacity</title>
<ellipse fill="none" stroke="black" cx="1909.64" cy="-1287" rx="72.5877" ry="18"/>
<text text-anchor="middle" x="1909.64" y="-1283.3" font-family="Times,serif" font-size="14.00">NetworkCapacity</text>
</g>
<!-- NetworkCapacity&#45;&gt;NumericAttribute -->
<g id="edge31" class="edge"><title>NetworkCapacity&#45;&gt;NumericAttribute</title>
<path fill="none" stroke="black" d="M1979.55,-1281.87C2034.34,-1280.59 2111.59,-1285.23 2172.22,-1314 2210.82,-1332.32 2243.72,-1370.24 2262.85,-1395.91"/>
<polygon fill="black" stroke="black" points="2260.08,-1398.07 2268.79,-1404.1 2265.75,-1393.95 2260.08,-1398.07"/>
</g>
<!-- NetworkUploadSpeed -->
<g id="node33" class="node"><title>NetworkUploadSpeed</title>
<ellipse fill="none" stroke="black" cx="1909.64" cy="-1233" rx="89.0842" ry="18"/>
<text text-anchor="middle" x="1909.64" y="-1229.3" font-family="Times,serif" font-size="14.00">NetworkUploadSpeed</text>
</g>
<!-- NetworkUploadSpeed&#45;&gt;NumericAttribute -->
<g id="edge32" class="edge"><title>NetworkUploadSpeed&#45;&gt;NumericAttribute</title>
<path fill="none" stroke="black" d="M1987.89,-1224.36C2043.05,-1221.96 2116.97,-1226.74 2172.22,-1260 2223.64,-1290.95 2255.85,-1356.75 2270.8,-1394.27"/>
<polygon fill="black" stroke="black" points="2267.7,-1395.98 2274.56,-1404.06 2274.24,-1393.47 2267.7,-1395.98"/>
</g>
<!-- NetworkDownloadSpeed -->
<g id="node34" class="node"><title>NetworkDownloadSpeed</title>
<ellipse fill="none" stroke="black" cx="1909.64" cy="-1179" rx="99.3824" ry="18"/>
<text text-anchor="middle" x="1909.64" y="-1175.3" font-family="Times,serif" font-size="14.00">NetworkDownloadSpeed</text>
</g>
<!-- NetworkDownloadSpeed&#45;&gt;NumericAttribute -->
<g id="edge33" class="edge"><title>NetworkDownloadSpeed&#45;&gt;NumericAttribute</title>
<path fill="none" stroke="black" d="M1989.8,-1168.29C2045.53,-1164.97 2119.33,-1169.5 2172.22,-1206 2237.23,-1250.88 2265.27,-1346.56 2275.56,-1394.06"/>
<polygon fill="black" stroke="black" points="2272.15,-1394.88 2277.59,-1403.97 2279.01,-1393.47 2272.15,-1394.88"/>
</g>
<!-- PricingModel -->
<g id="node35" class="node"><title>PricingModel</title>
<ellipse fill="none" stroke="black" cx="1909.64" cy="-909" rx="59.5901" ry="18"/>
<text text-anchor="middle" x="1909.64" y="-905.3" font-family="Times,serif" font-size="14.00">PricingModel</text>
</g>
<!-- PricingModel&#45;&gt;ChoiceAttribute -->
<g id="edge34" class="edge"><title>PricingModel&#45;&gt;ChoiceAttribute</title>
<path fill="none" stroke="black" d="M1968.37,-912.608C2021.59,-916.49 2102.63,-923.808 2172.22,-936 2189.31,-938.994 2207.69,-943.192 2224.38,-947.387"/>
<polygon fill="black" stroke="black" points="2223.97,-950.895 2234.53,-949.987 2225.71,-944.114 2223.97,-950.895"/>
</g>
<!-- Static -->
<g id="node36" class="node"><title>Static</title>
<ellipse fill="none" stroke="black" cx="1909.64" cy="-477" rx="30.5947" ry="18"/>
<text text-anchor="middle" x="1909.64" y="-473.3" font-family="Times,serif" font-size="14.00">Static</text>
</g>
<!-- Static&#45;&gt;NameAttribute -->
<g id="edge35" class="edge"><title>Static&#45;&gt;NameAttribute</title>
<path fill="none" stroke="black" d="M1940.08,-475.044C1989.79,-472.815 2092.72,-472.875 2172.22,-504 2190.84,-511.292 2190.67,-521.409 2208.22,-531 2214.69,-534.54 2221.73,-537.805 2228.79,-540.75"/>
<polygon fill="black" stroke="black" points="2227.79,-544.12 2238.38,-544.564 2230.38,-537.616 2227.79,-544.12"/>
</g>
<!-- Dynamic -->
<g id="node37" class="node"><title>Dynamic</title>
<ellipse fill="none" stroke="black" cx="1909.64" cy="-423" rx="43.5923" ry="18"/>
<text text-anchor="middle" x="1909.64" y="-419.3" font-family="Times,serif" font-size="14.00">Dynamic</text>
</g>
<!-- Dynamic&#45;&gt;NameAttribute -->
<g id="edge36" class="edge"><title>Dynamic&#45;&gt;NameAttribute</title>
<path fill="none" stroke="black" d="M1949.91,-415.766C2005.11,-407.895 2106.26,-402.14 2172.22,-450 2204.1,-473.137 2179.52,-504.012 2208.22,-531 2212.77,-535.284 2218.07,-538.903 2223.69,-541.957"/>
<polygon fill="black" stroke="black" points="2222.19,-545.121 2232.72,-546.306 2225.23,-538.814 2222.19,-545.121"/>
</g>
<!-- PayAndGo -->
<g id="node38" class="node"><title>PayAndGo</title>
<ellipse fill="none" stroke="black" cx="1335.49" cy="-531" rx="50.0912" ry="18"/>
<text text-anchor="middle" x="1335.49" y="-527.3" font-family="Times,serif" font-size="14.00">PayAndGo</text>
</g>
<!-- PayAndGo&#45;&gt;Static -->
<g id="edge37" class="edge"><title>PayAndGo&#45;&gt;Static</title>
<path fill="none" stroke="black" d="M1384.29,-526.489C1494.92,-516.047 1766.94,-490.374 1869.05,-480.736"/>
<polygon fill="black" stroke="black" points="1869.61,-484.199 1879.24,-479.775 1868.95,-477.23 1869.61,-484.199"/>
</g>
<!-- PayPerResource -->
<g id="node39" class="node"><title>PayPerResource</title>
<ellipse fill="none" stroke="black" cx="1335.49" cy="-477" rx="68.4888" ry="18"/>
<text text-anchor="middle" x="1335.49" y="-473.3" font-family="Times,serif" font-size="14.00">PayPerResource</text>
</g>
<!-- PayPerResource&#45;&gt;Static -->
<g id="edge38" class="edge"><title>PayPerResource&#45;&gt;Static</title>
<path fill="none" stroke="black" d="M1403.8,-477C1523.96,-477 1771.82,-477 1868.64,-477"/>
<polygon fill="black" stroke="black" points="1868.88,-480.5 1878.88,-477 1868.88,-473.5 1868.88,-480.5"/>
</g>
<!-- Subscription -->
<g id="node40" class="node"><title>Subscription</title>
<ellipse fill="none" stroke="black" cx="1335.49" cy="-423" rx="55.4913" ry="18"/>
<text text-anchor="middle" x="1335.49" y="-419.3" font-family="Times,serif" font-size="14.00">Subscription</text>
</g>
<!-- Subscription&#45;&gt;Static -->
<g id="edge39" class="edge"><title>Subscription&#45;&gt;Static</title>
<path fill="none" stroke="black" d="M1388.78,-427.935C1502.15,-438.635 1768.44,-463.768 1869.14,-473.272"/>
<polygon fill="black" stroke="black" points="1868.91,-476.765 1879.19,-474.221 1869.56,-469.796 1868.91,-476.765"/>
</g>
<!-- Price -->
<g id="node41" class="node"><title>Price</title>
<ellipse fill="none" stroke="black" cx="2281.66" cy="-504" rx="28.6953" ry="18"/>
<text text-anchor="middle" x="2281.66" y="-500.3" font-family="Times,serif" font-size="14.00">Price</text>
</g>
<!-- Price&#45;&gt;Attribute -->
<g id="edge40" class="edge"><title>Price&#45;&gt;Attribute</title>
<path fill="none" stroke="black" d="M2307.81,-511.623C2322.06,-516.37 2340.01,-523.077 2355.1,-531 2372.26,-540.007 2390.07,-552.236 2404.27,-562.779"/>
<polygon fill="black" stroke="black" points="2402.51,-565.839 2412.59,-569.082 2406.73,-560.257 2402.51,-565.839"/>
</g>
<!-- Euro -->
<g id="node42" class="node"><title>Euro</title>
<ellipse fill="none" stroke="black" cx="1909.64" cy="-369" rx="27.8951" ry="18"/>
<text text-anchor="middle" x="1909.64" y="-365.3" font-family="Times,serif" font-size="14.00">Euro</text>
</g>
<!-- Euro&#45;&gt;NameAttribute -->
<g id="edge41" class="edge"><title>Euro&#45;&gt;NameAttribute</title>
<path fill="none" stroke="black" d="M1936.19,-363.103C1987.58,-352.867 2104.33,-338.057 2172.22,-396 2219.45,-436.313 2166.47,-485.032 2208.22,-531 2212.21,-535.392 2216.98,-539.072 2222.14,-542.156"/>
<polygon fill="black" stroke="black" points="2220.64,-545.322 2231.14,-546.802 2223.86,-539.102 2220.64,-545.322"/>
</g>
<!-- UsDollar -->
<g id="node43" class="node"><title>UsDollar</title>
<ellipse fill="none" stroke="black" cx="1909.64" cy="-315" rx="42.7926" ry="18"/>
<text text-anchor="middle" x="1909.64" y="-311.3" font-family="Times,serif" font-size="14.00">UsDollar</text>
</g>
<!-- UsDollar&#45;&gt;NameAttribute -->
<g id="edge42" class="edge"><title>UsDollar&#45;&gt;NameAttribute</title>
<path fill="none" stroke="black" d="M1947.77,-306.464C2004.04,-295.922 2110.84,-285.653 2172.22,-342 2235.21,-399.83 2153.06,-465.66 2208.22,-531 2212.04,-535.533 2216.71,-539.306 2221.81,-542.446"/>
<polygon fill="black" stroke="black" points="2220.25,-545.583 2230.73,-547.155 2223.52,-539.392 2220.25,-545.583"/>
</g>
<!-- JapaneseYen -->
<g id="node44" class="node"><title>JapaneseYen</title>
<ellipse fill="none" stroke="black" cx="1909.64" cy="-261" rx="56.59" ry="18"/>
<text text-anchor="middle" x="1909.64" y="-257.3" font-family="Times,serif" font-size="14.00">JapaneseYen</text>
</g>
<!-- JapaneseYen&#45;&gt;NameAttribute -->
<g id="edge43" class="edge"><title>JapaneseYen&#45;&gt;NameAttribute</title>
<path fill="none" stroke="black" d="M1956.29,-250.633C2014.6,-240.347 2114.82,-233.085 2172.22,-288 2251.11,-363.475 2139.52,-446.144 2208.22,-531 2211.81,-535.434 2216.2,-539.139 2221.03,-542.236"/>
<polygon fill="black" stroke="black" points="2219.67,-545.479 2230.13,-547.18 2223.01,-539.329 2219.67,-545.479"/>
</g>
<!-- DatabaseAsAService -->
<g id="node45" class="node"><title>DatabaseAsAService</title>
<ellipse fill="none" stroke="black" cx="1335.49" cy="-153" rx="85.2851" ry="18"/>
<text text-anchor="middle" x="1335.49" y="-149.3" font-family="Times,serif" font-size="14.00">DatabaseAsAService</text>
</g>
<!-- DatabaseAsAService&#45;&gt;SaaS -->
<g id="edge44" class="edge"><title>DatabaseAsAService&#45;&gt;SaaS</title>
<path fill="none" stroke="black" d="M1420.91,-153C1547.09,-153 1779.77,-153 1870.76,-153"/>
<polygon fill="black" stroke="black" points="1870.89,-156.5 1880.89,-153 1870.89,-149.5 1870.89,-156.5"/>
</g>
<!-- SQLDatabaseAsAService -->
<g id="node46" class="node"><title>SQLDatabaseAsAService</title>
<ellipse fill="none" stroke="black" cx="775.634" cy="-207" rx="102.082" ry="18"/>
<text text-anchor="middle" x="775.634" y="-203.3" font-family="Times,serif" font-size="14.00">SQLDatabaseAsAService</text>
</g>
<!-- SQLDatabaseAsAService&#45;&gt;DatabaseAsAService -->
<g id="edge45" class="edge"><title>SQLDatabaseAsAService&#45;&gt;DatabaseAsAService</title>
<path fill="none" stroke="black" d="M865.336,-198.414C970.209,-188.262 1143.61,-171.477 1247.66,-161.405"/>
<polygon fill="black" stroke="black" points="1248.2,-164.869 1257.82,-160.422 1247.52,-157.902 1248.2,-164.869"/>
</g>
<!-- NoSQLDatabaseAsAService -->
<g id="node47" class="node"><title>NoSQLDatabaseAsAService</title>
<ellipse fill="none" stroke="black" cx="775.634" cy="-153" rx="112.38" ry="18"/>
<text text-anchor="middle" x="775.634" y="-149.3" font-family="Times,serif" font-size="14.00">NoSQLDatabaseAsAService</text>
</g>
<!-- NoSQLDatabaseAsAService&#45;&gt;DatabaseAsAService -->
<g id="edge46" class="edge"><title>NoSQLDatabaseAsAService&#45;&gt;DatabaseAsAService</title>
<path fill="none" stroke="black" d="M888.184,-153C991.213,-153 1142.59,-153 1239.86,-153"/>
<polygon fill="black" stroke="black" points="1239.97,-156.5 1249.97,-153 1239.97,-149.5 1239.97,-156.5"/>
</g>
<!-- github.com/supermuesli/csdl@examples/Requirement1.py@latest -->
<g id="node48" class="node"><title>github.com/supermuesli/csdl@examples/Requirement1.py@latest</title>
<ellipse fill="none" stroke="black" cx="245.678" cy="-72" rx="245.857" ry="18"/>
<text text-anchor="middle" x="245.678" y="-68.3" font-family="Times,serif" font-size="14.00">github.com/supermuesli/csdl@examples/Requirement1.py@latest</text>
</g>
<!-- github.com/supermuesli/csdl@examples/Requirement1.py@latest&#45;&gt;VMAsAService -->
<g id="edge47" class="edge"><title>github.com/supermuesli/csdl@examples/Requirement1.py@latest&#45;&gt;VMAsAService</title>
<path fill="none" stroke="black" d="M447.782,-61.7154C535.605,-57.2241 633.286,-52.2286 698.791,-48.8787"/>
<polygon fill="black" stroke="black" points="699.214,-52.3617 709.022,-48.3555 698.856,-45.3709 699.214,-52.3617"/>
</g>
<!-- github.com/supermuesli/csdl@misc/StaticIp.py@latest -->
<g id="node49" class="node"><title>github.com/supermuesli/csdl@misc/StaticIp.py@latest</title>
<ellipse fill="none" stroke="black" cx="1909.64" cy="-1125" rx="206.063" ry="18"/>
<text text-anchor="middle" x="1909.64" y="-1121.3" font-family="Times,serif" font-size="14.00">github.com/supermuesli/csdl@misc/StaticIp.py@latest</text>
</g>
<!-- github.com/supermuesli/csdl@misc/StaticIp.py@latest&#45;&gt;NumericAttribute -->
<g id="edge48" class="edge"><title>github.com/supermuesli/csdl@misc/StaticIp.py@latest&#45;&gt;NumericAttribute</title>
<path fill="none" stroke="black" d="M2115.4,-1123.98C2135.84,-1130.2 2155.26,-1139.22 2172.22,-1152 2251.04,-1211.41 2272.72,-1337.44 2278.56,-1393.77"/>
<polygon fill="black" stroke="black" points="2275.08,-1394.13 2279.5,-1403.75 2282.05,-1393.47 2275.08,-1394.13"/>
</g>
<!-- github.com/supermuesli/csdl@aws/ec2/A1Large.py@latest -->
<g id="node50" class="node"><title>github.com/supermuesli/csdl@aws/ec2/A1Large.py@latest</title>
<ellipse fill="none" stroke="black" cx="245.678" cy="-18" rx="221.761" ry="18"/>
<text text-anchor="middle" x="245.678" y="-14.3" font-family="Times,serif" font-size="14.00">github.com/supermuesli/csdl@aws/ec2/A1Large.py@latest</text>
</g>
<!-- github.com/supermuesli/csdl@aws/ec2/A1Large.py@latest&#45;&gt;VMAsAService -->
<g id="edge49" class="edge"><title>github.com/supermuesli/csdl@aws/ec2/A1Large.py@latest&#45;&gt;VMAsAService</title>
<path fill="none" stroke="black" d="M433.559,-27.5572C524.834,-32.2251 629.59,-37.5823 698.656,-41.1144"/>
<polygon fill="black" stroke="black" points="698.838,-44.6282 709.004,-41.6436 699.195,-37.6373 698.838,-44.6282"/>
</g>
<!-- github.com/supermuesli/csdl@aws/regions/Region.py@latest -->
<g id="node51" class="node"><title>github.com/supermuesli/csdl@aws/regions/Region.py@latest</title>
<ellipse fill="none" stroke="black" cx="1335.49" cy="-1071" rx="229.359" ry="18"/>
<text text-anchor="middle" x="1335.49" y="-1067.3" font-family="Times,serif" font-size="14.00">github.com/supermuesli/csdl@aws/regions/Region.py@latest</text>
</g>
<!-- github.com/supermuesli/csdl@aws/regions/Region.py@latest&#45;&gt;Region -->
<g id="edge50" class="edge"><title>github.com/supermuesli/csdl@aws/regions/Region.py@latest&#45;&gt;Region</title>
<path fill="none" stroke="black" d="M1565.08,-1071C1675.65,-1071 1798.17,-1071 1862.83,-1071"/>
<polygon fill="black" stroke="black" points="1863.08,-1074.5 1873.08,-1071 1863.08,-1067.5 1863.08,-1074.5"/>
</g>
<!-- github.com/supermuesli/csdl@misc/countries/USA.py@latest -->
<g id="node52" class="node"><title>github.com/supermuesli/csdl@misc/countries/USA.py@latest</title>
<ellipse fill="none" stroke="black" cx="1335.49" cy="-855" rx="231.259" ry="18"/>
<text text-anchor="middle" x="1335.49" y="-851.3" font-family="Times,serif" font-size="14.00">github.com/supermuesli/csdl@misc/countries/USA.py@latest</text>
</g>
<!-- github.com/supermuesli/csdl@misc/countries/USA.py@latest&#45;&gt;NorthAmerica -->
<g id="edge51" class="edge"><title>github.com/supermuesli/csdl@misc/countries/USA.py@latest&#45;&gt;NorthAmerica</title>
<path fill="none" stroke="black" d="M1567.14,-855C1664.11,-855 1769.91,-855 1837.65,-855"/>
<polygon fill="black" stroke="black" points="1837.77,-858.5 1847.77,-855 1837.77,-851.5 1837.77,-858.5"/>
</g>
<!-- github.com/supermuesli/csdl@aws/regions/California.py@latest -->
<g id="node53" class="node"><title>github.com/supermuesli/csdl@aws/regions/California.py@latest</title>
<ellipse fill="none" stroke="black" cx="775.634" cy="-909" rx="239.358" ry="18"/>
<text text-anchor="middle" x="775.634" y="-905.3" font-family="Times,serif" font-size="14.00">github.com/supermuesli/csdl@aws/regions/California.py@latest</text>
</g>
<!-- github.com/supermuesli/csdl@aws/regions/California.py@latest&#45;&gt;github.com/supermuesli/csdl@misc/countries/USA.py@latest -->
<g id="edge52" class="edge"><title>github.com/supermuesli/csdl@aws/regions/California.py@latest&#45;&gt;github.com/supermuesli/csdl@misc/countries/USA.py@latest</title>
<path fill="none" stroke="black" d="M923.204,-894.812C1002.15,-887.171 1099.5,-877.747 1179.67,-869.986"/>
<polygon fill="black" stroke="black" points="1180.25,-873.447 1189.86,-869 1179.57,-866.479 1180.25,-873.447"/>
</g>
<!-- github.com/supermuesli/csdl@aws/regions/EastVirginia.py@latest -->
<g id="node54" class="node"><title>github.com/supermuesli/csdl@aws/regions/EastVirginia.py@latest</title>
<ellipse fill="none" stroke="black" cx="775.634" cy="-855" rx="248.056" ry="18"/>
<text text-anchor="middle" x="775.634" y="-851.3" font-family="Times,serif" font-size="14.00">github.com/supermuesli/csdl@aws/regions/EastVirginia.py@latest</text>
</g>
<!-- github.com/supermuesli/csdl@aws/regions/EastVirginia.py@latest&#45;&gt;github.com/supermuesli/csdl@misc/countries/USA.py@latest -->
<g id="edge53" class="edge"><title>github.com/supermuesli/csdl@aws/regions/EastVirginia.py@latest&#45;&gt;github.com/supermuesli/csdl@misc/countries/USA.py@latest</title>
<path fill="none" stroke="black" d="M1024.16,-855C1047.24,-855 1070.62,-855 1093.64,-855"/>
<polygon fill="black" stroke="black" points="1093.84,-858.5 1103.84,-855 1093.84,-851.5 1093.84,-858.5"/>
</g>
<!-- github.com/supermuesli/csdl@aws/regions/NewYork.py@latest -->
<g id="node55" class="node"><title>github.com/supermuesli/csdl@aws/regions/NewYork.py@latest</title>
<ellipse fill="none" stroke="black" cx="775.634" cy="-801" rx="238.558" ry="18"/>
<text text-anchor="middle" x="775.634" y="-797.3" font-family="Times,serif" font-size="14.00">github.com/supermuesli/csdl@aws/regions/NewYork.py@latest</text>
</g>
<!-- github.com/supermuesli/csdl@aws/regions/NewYork.py@latest&#45;&gt;github.com/supermuesli/csdl@misc/countries/USA.py@latest -->
<g id="edge54" class="edge"><title>github.com/supermuesli/csdl@aws/regions/NewYork.py@latest&#45;&gt;github.com/supermuesli/csdl@misc/countries/USA.py@latest</title>
<path fill="none" stroke="black" d="M923.204,-815.188C1002.15,-822.829 1099.5,-832.253 1179.67,-840.014"/>
<polygon fill="black" stroke="black" points="1179.57,-843.521 1189.86,-841 1180.25,-836.553 1179.57,-843.521"/>
</g>
<!-- github.com/supermuesli/csdl@aws/EBS.py@latest -->
<g id="node56" class="node"><title>github.com/supermuesli/csdl@aws/EBS.py@latest</title>
<ellipse fill="none" stroke="black" cx="775.634" cy="-99" rx="191.966" ry="18"/>
<text text-anchor="middle" x="775.634" y="-95.3" font-family="Times,serif" font-size="14.00">github.com/supermuesli/csdl@aws/EBS.py@latest</text>
</g>
<!-- github.com/supermuesli/csdl@aws/EBS.py@latest&#45;&gt;StorageAsAService -->
<g id="edge55" class="edge"><title>github.com/supermuesli/csdl@aws/EBS.py@latest&#45;&gt;StorageAsAService</title>
<path fill="none" stroke="black" d="M967.445,-99C1061.47,-99 1170.37,-99 1244.99,-99"/>
<polygon fill="black" stroke="black" points="1245.29,-102.5 1255.29,-99 1245.29,-95.5001 1245.29,-102.5"/>
</g>
<!-- github.com/supermuesli/csdl@aws/ec2/ElasticIpAmount.py@latest -->
<g id="node57" class="node"><title>github.com/supermuesli/csdl@aws/ec2/ElasticIpAmount.py@latest</title>
<ellipse fill="none" stroke="black" cx="1335.49" cy="-1125" rx="250.756" ry="18"/>
<text text-anchor="middle" x="1335.49" y="-1121.3" font-family="Times,serif" font-size="14.00">github.com/supermuesli/csdl@aws/ec2/ElasticIpAmount.py@latest</text>
</g>
<!-- github.com/supermuesli/csdl@aws/ec2/ElasticIpAmount.py@latest&#45;&gt;github.com/supermuesli/csdl@misc/StaticIp.py@latest -->
<g id="edge56" class="edge"><title>github.com/supermuesli/csdl@aws/ec2/ElasticIpAmount.py@latest&#45;&gt;github.com/supermuesli/csdl@misc/StaticIp.py@latest</title>
<path fill="none" stroke="black" d="M1586.61,-1125C1622.05,-1125 1658.24,-1125 1692.96,-1125"/>
<polygon fill="black" stroke="black" points="1693.19,-1128.5 1703.19,-1125 1693.19,-1121.5 1693.19,-1128.5"/>
</g>
<!-- github.com/supermuesli/csdl@misc/currencies/FeritsCurrencies.py@latest -->
<g id="node58" class="node"><title>github.com/supermuesli/csdl@misc/currencies/FeritsCurrencies.py@latest</title>
<ellipse fill="none" stroke="black" cx="1335.49" cy="-1017" rx="275.651" ry="18"/>
<text text-anchor="middle" x="1335.49" y="-1013.3" font-family="Times,serif" font-size="14.00">github.com/supermuesli/csdl@misc/currencies/FeritsCurrencies.py@latest</text>
</g>
<!-- github.com/supermuesli/csdl@misc/currencies/FeritsCurrencies.py@latest&#45;&gt;Currency -->
<g id="edge57" class="edge"><title>github.com/supermuesli/csdl@misc/currencies/FeritsCurrencies.py@latest&#45;&gt;Currency</title>
<path fill="none" stroke="black" d="M1611.25,-1017C1704.32,-1017 1798.98,-1017 1855.76,-1017"/>
<polygon fill="black" stroke="black" points="1855.91,-1020.5 1865.91,-1017 1855.91,-1013.5 1855.91,-1020.5"/>
</g>
<!-- github.com/supermuesli/csdl@misc/currencies/IndianRupee.py@latest -->
<g id="node59" class="node"><title>github.com/supermuesli/csdl@misc/currencies/IndianRupee.py@latest</title>
<ellipse fill="none" stroke="black" cx="1909.64" cy="-207" rx="262.653" ry="18"/>
<text text-anchor="middle" x="1909.64" y="-203.3" font-family="Times,serif" font-size="14.00">github.com/supermuesli/csdl@misc/currencies/IndianRupee.py@latest</text>
</g>
<!-- github.com/supermuesli/csdl@misc/currencies/IndianRupee.py@latest&#45;&gt;NameAttribute -->
<g id="edge58" class="edge"><title>github.com/supermuesli/csdl@misc/currencies/IndianRupee.py@latest&#45;&gt;NameAttribute</title>
<path fill="none" stroke="black" d="M2004.41,-190.19C2060.51,-185.865 2129.06,-191.608 2172.22,-234 2267.07,-327.182 2125.93,-426.558 2208.22,-531 2211.75,-535.481 2216.1,-539.218 2220.91,-542.335"/>
<polygon fill="black" stroke="black" points="2219.52,-545.566 2229.97,-547.302 2222.89,-539.427 2219.52,-545.566"/>
</g>
</g>
</svg>
