<?xml version="1.0" encoding="UTF-8" standalone="no"?>
<!DOCTYPE svg PUBLIC "-//W3C//DTD SVG 1.1//EN"
 "http://www.w3.org/Graphics/SVG/1.1/DTD/svg11.dtd">
<!-- Generated by graphviz version 2.38.0 (20140413.2041)
 -->
<!-- Title: %3 Pages: 1 -->
<svg width="2585pt" height="1448pt"
 viewBox="0.00 0.00 2584.59 1448.00" xmlns="http://www.w3.org/2000/svg" xmlns:xlink="http://www.w3.org/1999/xlink">
<g id="graph0" class="graph" transform="scale(1 1) rotate(0) translate(4 1444)">
<title>%3</title>
<polygon fill="white" stroke="none" points="-4,4 -4,-1444 2580.59,-1444 2580.59,4 -4,4"/>
<!-- VMAsAService -->
<g id="node1" class="node"><title>VMAsAService</title>
<ellipse fill="none" stroke="black" cx="775.634" cy="-45" rx="67.6881" ry="18"/>
<text text-anchor="middle" x="775.634" y="-41.3" font-family="Times,serif" font-size="14.00">VMAsAService</text>
</g>
<!-- ServerAsAService -->
<g id="node2" class="node"><title>ServerAsAService</title>
<ellipse fill="none" stroke="black" cx="1335.49" cy="-45" rx="76.0865" ry="18"/>
<text text-anchor="middle" x="1335.49" y="-41.3" font-family="Times,serif" font-size="14.00">ServerAsAService</text>
</g>
<!-- VMAsAService&#45;&gt;ServerAsAService -->
<g id="edge1" class="edge"><title>VMAsAService&#45;&gt;ServerAsAService</title>
<path fill="none" stroke="black" d="M843.37,-45C944.753,-45 1137.54,-45 1249.03,-45"/>
<polygon fill="black" stroke="black" points="1249.23,-48.5001 1259.23,-45 1249.23,-41.5001 1249.23,-48.5001"/>
</g>
<!-- IaaS -->
<g id="node3" class="node"><title>IaaS</title>
<ellipse fill="none" stroke="black" cx="1909.64" cy="-72" rx="27" ry="18"/>
<text text-anchor="middle" x="1909.64" y="-68.3" font-family="Times,serif" font-size="14.00">IaaS</text>
</g>
<!-- ServerAsAService&#45;&gt;IaaS -->
<g id="edge2" class="edge"><title>ServerAsAService&#45;&gt;IaaS</title>
<path fill="none" stroke="black" d="M1410.12,-48.4745C1534.08,-54.3245 1779.98,-65.9286 1872.4,-70.2898"/>
<polygon fill="black" stroke="black" points="1872.48,-73.7976 1882.64,-70.773 1872.81,-66.8054 1872.48,-73.7976"/>
</g>
<!-- CCS -->
<g id="node5" class="node"><title>CCS</title>
<ellipse fill="none" stroke="black" cx="2281.66" cy="-126" rx="27.0966" ry="18"/>
<text text-anchor="middle" x="2281.66" y="-122.3" font-family="Times,serif" font-size="14.00">CCS</text>
</g>
<!-- IaaS&#45;&gt;CCS -->
<g id="edge4" class="edge"><title>IaaS&#45;&gt;CCS</title>
<path fill="none" stroke="black" d="M1936.8,-73.4737C1984.07,-76.4089 2086.78,-84.031 2172.22,-99 2197.34,-103.402 2225.27,-110.405 2246.49,-116.175"/>
<polygon fill="black" stroke="black" points="2245.75,-119.603 2256.32,-118.893 2247.61,-112.856 2245.75,-119.603"/>
</g>
<!-- SaaS -->
<g id="node4" class="node"><title>SaaS</title>
<ellipse fill="none" stroke="black" cx="1909.64" cy="-126" rx="28.6953" ry="18"/>
<text text-anchor="middle" x="1909.64" y="-122.3" font-family="Times,serif" font-size="14.00">SaaS</text>
</g>
<!-- SaaS&#45;&gt;CCS -->
<g id="edge3" class="edge"><title>SaaS&#45;&gt;CCS</title>
<path fill="none" stroke="black" d="M1938.45,-126C2004.29,-126 2169.71,-126 2243.78,-126"/>
<polygon fill="black" stroke="black" points="2244.03,-129.5 2254.03,-126 2244.03,-122.5 2244.03,-129.5"/>
</g>
<!-- Attribute -->
<g id="node8" class="node"><title>Attribute</title>
<ellipse fill="none" stroke="black" cx="2433.35" cy="-504" rx="42.4939" ry="18"/>
<text text-anchor="middle" x="2433.35" y="-500.3" font-family="Times,serif" font-size="14.00">Attribute</text>
</g>
<!-- CCS&#45;&gt;Attribute -->
<g id="edge10" class="edge"><title>CCS&#45;&gt;Attribute</title>
<path fill="none" stroke="black" d="M2289.58,-143.474C2313.47,-203.797 2392.59,-403.608 2421.58,-476.814"/>
<polygon fill="black" stroke="black" points="2418.4,-478.267 2425.33,-486.276 2424.9,-475.69 2418.4,-478.267"/>
</g>
<!-- StorageAsAService -->
<g id="node6" class="node"><title>StorageAsAService</title>
<ellipse fill="none" stroke="black" cx="1335.49" cy="-99" rx="79.8859" ry="18"/>
<text text-anchor="middle" x="1335.49" y="-95.3" font-family="Times,serif" font-size="14.00">StorageAsAService</text>
</g>
<!-- StorageAsAService&#45;&gt;IaaS -->
<g id="edge5" class="edge"><title>StorageAsAService&#45;&gt;IaaS</title>
<path fill="none" stroke="black" d="M1413.95,-95.3446C1539.05,-89.4412 1780.78,-78.034 1872.32,-73.7142"/>
<polygon fill="black" stroke="black" points="1872.64,-77.2028 1882.47,-73.2352 1872.31,-70.2106 1872.64,-77.2028"/>
</g>
<!-- NumericAttribute -->
<g id="node7" class="node"><title>NumericAttribute</title>
<ellipse fill="none" stroke="black" cx="2281.66" cy="-1071" rx="73.387" ry="18"/>
<text text-anchor="middle" x="2281.66" y="-1067.3" font-family="Times,serif" font-size="14.00">NumericAttribute</text>
</g>
<!-- NumericAttribute&#45;&gt;Attribute -->
<g id="edge6" class="edge"><title>NumericAttribute&#45;&gt;Attribute</title>
<path fill="none" stroke="black" d="M2287.47,-1052.78C2309.25,-970.295 2398.66,-631.624 2425.01,-531.808"/>
<polygon fill="black" stroke="black" points="2428.46,-532.434 2427.63,-521.872 2421.7,-530.648 2428.46,-532.434"/>
</g>
<!-- object -->
<g id="node12" class="node"><title>object</title>
<ellipse fill="none" stroke="black" cx="2544.09" cy="-504" rx="32.4942" ry="18"/>
<text text-anchor="middle" x="2544.09" y="-500.3" font-family="Times,serif" font-size="14.00">object</text>
</g>
<!-- Attribute&#45;&gt;object -->
<g id="edge11" class="edge"><title>Attribute&#45;&gt;object</title>
<path fill="none" stroke="black" d="M2475.77,-504C2484.04,-504 2492.74,-504 2501.03,-504"/>
<polygon fill="black" stroke="black" points="2501.26,-507.5 2511.26,-504 2501.26,-500.5 2501.26,-507.5"/>
</g>
<!-- ChoiceAttribute -->
<g id="node9" class="node"><title>ChoiceAttribute</title>
<ellipse fill="none" stroke="black" cx="2281.66" cy="-639" rx="67.6881" ry="18"/>
<text text-anchor="middle" x="2281.66" y="-635.3" font-family="Times,serif" font-size="14.00">ChoiceAttribute</text>
</g>
<!-- ChoiceAttribute&#45;&gt;Attribute -->
<g id="edge7" class="edge"><title>ChoiceAttribute&#45;&gt;Attribute</title>
<path fill="none" stroke="black" d="M2301.92,-621.627C2328.6,-597.571 2376.85,-554.053 2406.6,-527.227"/>
<polygon fill="black" stroke="black" points="2409.02,-529.757 2414.1,-520.461 2404.33,-524.559 2409.02,-529.757"/>
</g>
<!-- BoolAttribute -->
<g id="node10" class="node"><title>BoolAttribute</title>
<ellipse fill="none" stroke="black" cx="2281.66" cy="-504" rx="59.5901" ry="18"/>
<text text-anchor="middle" x="2281.66" y="-500.3" font-family="Times,serif" font-size="14.00">BoolAttribute</text>
</g>
<!-- BoolAttribute&#45;&gt;Attribute -->
<g id="edge8" class="edge"><title>BoolAttribute&#45;&gt;Attribute</title>
<path fill="none" stroke="black" d="M2341.82,-504C2354.59,-504 2368,-504 2380.46,-504"/>
<polygon fill="black" stroke="black" points="2380.68,-507.5 2390.68,-504 2380.68,-500.5 2380.68,-507.5"/>
</g>
<!-- NameAttribute -->
<g id="node11" class="node"><title>NameAttribute</title>
<ellipse fill="none" stroke="black" cx="2281.66" cy="-396" rx="63.8893" ry="18"/>
<text text-anchor="middle" x="2281.66" y="-392.3" font-family="Times,serif" font-size="14.00">NameAttribute</text>
</g>
<!-- NameAttribute&#45;&gt;Attribute -->
<g id="edge9" class="edge"><title>NameAttribute&#45;&gt;Attribute</title>
<path fill="none" stroke="black" d="M2306.05,-412.875C2332.13,-431.693 2374.37,-462.168 2402.74,-482.634"/>
<polygon fill="black" stroke="black" points="2400.9,-485.628 2411.06,-488.641 2405,-479.952 2400.9,-485.628"/>
</g>
<!-- Region -->
<g id="node13" class="node"><title>Region</title>
<ellipse fill="none" stroke="black" cx="1909.64" cy="-720" rx="36.2938" ry="18"/>
<text text-anchor="middle" x="1909.64" y="-716.3" font-family="Times,serif" font-size="14.00">Region</text>
</g>
<!-- Region&#45;&gt;ChoiceAttribute -->
<g id="edge12" class="edge"><title>Region&#45;&gt;ChoiceAttribute</title>
<path fill="none" stroke="black" d="M1946.1,-720.323C1997.12,-719.901 2093.73,-715.775 2172.22,-693 2197.91,-685.545 2224.83,-672.17 2245.43,-660.597"/>
<polygon fill="black" stroke="black" points="2247.2,-663.615 2254.14,-655.602 2243.72,-657.544 2247.2,-663.615"/>
</g>
<!-- NorthAmerica -->
<g id="node14" class="node"><title>NorthAmerica</title>
<ellipse fill="none" stroke="black" cx="1909.64" cy="-558" rx="61.99" ry="18"/>
<text text-anchor="middle" x="1909.64" y="-554.3" font-family="Times,serif" font-size="14.00">NorthAmerica</text>
</g>
<!-- NorthAmerica&#45;&gt;NameAttribute -->
<g id="edge13" class="edge"><title>NorthAmerica&#45;&gt;NameAttribute</title>
<path fill="none" stroke="black" d="M1966.23,-565.312C2022.32,-569.856 2109.38,-568.909 2172.22,-531 2196.91,-516.1 2190.56,-499.807 2208.22,-477 2223.36,-457.437 2242,-436.661 2256.58,-421.049"/>
<polygon fill="black" stroke="black" points="2259.49,-423.068 2263.79,-413.389 2254.39,-418.269 2259.49,-423.068"/>
</g>
<!-- Australia -->
<g id="node15" class="node"><title>Australia</title>
<ellipse fill="none" stroke="black" cx="1909.64" cy="-504" rx="42.7926" ry="18"/>
<text text-anchor="middle" x="1909.64" y="-500.3" font-family="Times,serif" font-size="14.00">Australia</text>
</g>
<!-- Australia&#45;&gt;NameAttribute -->
<g id="edge14" class="edge"><title>Australia&#45;&gt;NameAttribute</title>
<path fill="none" stroke="black" d="M1952.56,-506.397C2005.59,-507.942 2098.86,-505.639 2172.22,-477 2204.63,-464.345 2235.83,-439.228 2256.38,-420.301"/>
<polygon fill="black" stroke="black" points="2258.83,-422.795 2263.71,-413.388 2254.03,-417.701 2258.83,-422.795"/>
</g>
<!-- Africa -->
<g id="node16" class="node"><title>Africa</title>
<ellipse fill="none" stroke="black" cx="1909.64" cy="-450" rx="33.2948" ry="18"/>
<text text-anchor="middle" x="1909.64" y="-446.3" font-family="Times,serif" font-size="14.00">Africa</text>
</g>
<!-- Africa&#45;&gt;NameAttribute -->
<g id="edge15" class="edge"><title>Africa&#45;&gt;NameAttribute</title>
<path fill="none" stroke="black" d="M1942.65,-448.157C1992.15,-444.978 2090.15,-437.378 2172.22,-423 2189.95,-419.893 2209.07,-415.492 2226.25,-411.142"/>
<polygon fill="black" stroke="black" points="2227.31,-414.484 2236.12,-408.597 2225.56,-407.706 2227.31,-414.484"/>
</g>
<!-- EastAsia -->
<g id="node17" class="node"><title>EastAsia</title>
<ellipse fill="none" stroke="black" cx="1909.64" cy="-396" rx="42.4939" ry="18"/>
<text text-anchor="middle" x="1909.64" y="-392.3" font-family="Times,serif" font-size="14.00">EastAsia</text>
</g>
<!-- EastAsia&#45;&gt;NameAttribute -->
<g id="edge16" class="edge"><title>EastAsia&#45;&gt;NameAttribute</title>
<path fill="none" stroke="black" d="M1952.01,-396C2013.82,-396 2131.19,-396 2207.65,-396"/>
<polygon fill="black" stroke="black" points="2207.69,-399.5 2217.69,-396 2207.69,-392.5 2207.69,-399.5"/>
</g>
<!-- SouthAmerica -->
<g id="node18" class="node"><title>SouthAmerica</title>
<ellipse fill="none" stroke="black" cx="1909.64" cy="-342" rx="61.99" ry="18"/>
<text text-anchor="middle" x="1909.64" y="-338.3" font-family="Times,serif" font-size="14.00">SouthAmerica</text>
</g>
<!-- SouthAmerica&#45;&gt;NameAttribute -->
<g id="edge17" class="edge"><title>SouthAmerica&#45;&gt;NameAttribute</title>
<path fill="none" stroke="black" d="M1970.19,-345.741C2023.42,-349.656 2103.41,-356.946 2172.22,-369 2189.95,-372.107 2209.07,-376.508 2226.25,-380.858"/>
<polygon fill="black" stroke="black" points="2225.56,-384.294 2236.12,-383.403 2227.31,-377.516 2225.56,-384.294"/>
</g>
<!-- Europe -->
<g id="node19" class="node"><title>Europe</title>
<ellipse fill="none" stroke="black" cx="1909.64" cy="-288" rx="36.2938" ry="18"/>
<text text-anchor="middle" x="1909.64" y="-284.3" font-family="Times,serif" font-size="14.00">Europe</text>
</g>
<!-- Europe&#45;&gt;NameAttribute -->
<g id="edge18" class="edge"><title>Europe&#45;&gt;NameAttribute</title>
<path fill="none" stroke="black" d="M1945.87,-285.824C1997.45,-283.908 2095.67,-285.115 2172.22,-315 2204.63,-327.655 2235.83,-352.772 2256.38,-371.699"/>
<polygon fill="black" stroke="black" points="2254.03,-374.299 2263.71,-378.612 2258.83,-369.205 2254.03,-374.299"/>
</g>
<!-- Antarctica -->
<g id="node20" class="node"><title>Antarctica</title>
<ellipse fill="none" stroke="black" cx="1909.64" cy="-234" rx="47.3916" ry="18"/>
<text text-anchor="middle" x="1909.64" y="-230.3" font-family="Times,serif" font-size="14.00">Antarctica</text>
</g>
<!-- Antarctica&#45;&gt;NameAttribute -->
<g id="edge19" class="edge"><title>Antarctica&#45;&gt;NameAttribute</title>
<path fill="none" stroke="black" d="M1955.32,-228.609C2009.97,-224.169 2103.65,-223.678 2172.22,-261 2216.96,-285.356 2249.99,-336.626 2267.2,-368.503"/>
<polygon fill="black" stroke="black" points="2264.29,-370.488 2272.03,-377.722 2270.49,-367.24 2264.29,-370.488"/>
</g>
<!-- Currency -->
<g id="node21" class="node"><title>Currency</title>
<ellipse fill="none" stroke="black" cx="1909.64" cy="-666" rx="43.5923" ry="18"/>
<text text-anchor="middle" x="1909.64" y="-662.3" font-family="Times,serif" font-size="14.00">Currency</text>
</g>
<!-- Currency&#45;&gt;ChoiceAttribute -->
<g id="edge20" class="edge"><title>Currency&#45;&gt;ChoiceAttribute</title>
<path fill="none" stroke="black" d="M1952.73,-662.929C2014.36,-658.432 2130.11,-649.986 2206.29,-644.427"/>
<polygon fill="black" stroke="black" points="2206.58,-647.915 2216.3,-643.696 2206.08,-640.933 2206.58,-647.915"/>
</g>
<!-- Storage -->
<g id="node22" class="node"><title>Storage</title>
<ellipse fill="none" stroke="black" cx="1909.64" cy="-1422" rx="37.8943" ry="18"/>
<text text-anchor="middle" x="1909.64" y="-1418.3" font-family="Times,serif" font-size="14.00">Storage</text>
</g>
<!-- Storage&#45;&gt;NumericAttribute -->
<g id="edge21" class="edge"><title>Storage&#45;&gt;NumericAttribute</title>
<path fill="none" stroke="black" d="M1944.63,-1429.11C1999.05,-1438.39 2106.3,-1447.8 2172.22,-1395 2265.22,-1320.51 2279.04,-1163.43 2280.68,-1099.23"/>
<polygon fill="black" stroke="black" points="2284.18,-1099.12 2280.85,-1089.06 2277.18,-1099 2284.18,-1099.12"/>
</g>
<!-- StorageWriteSpeed -->
<g id="node23" class="node"><title>StorageWriteSpeed</title>
<ellipse fill="none" stroke="black" cx="1909.64" cy="-1368" rx="79.0865" ry="18"/>
<text text-anchor="middle" x="1909.64" y="-1364.3" font-family="Times,serif" font-size="14.00">StorageWriteSpeed</text>
</g>
<!-- StorageWriteSpeed&#45;&gt;NumericAttribute -->
<g id="edge22" class="edge"><title>StorageWriteSpeed&#45;&gt;NumericAttribute</title>
<path fill="none" stroke="black" d="M1973.99,-1378.57C2031.46,-1384.51 2115.62,-1383.66 2172.22,-1341 2251.04,-1281.59 2272.72,-1155.56 2278.56,-1099.23"/>
<polygon fill="black" stroke="black" points="2282.05,-1099.53 2279.5,-1089.25 2275.08,-1098.87 2282.05,-1099.53"/>
</g>
<!-- StorageReadSpeed -->
<g id="node24" class="node"><title>StorageReadSpeed</title>
<ellipse fill="none" stroke="black" cx="1909.64" cy="-1314" rx="77.1866" ry="18"/>
<text text-anchor="middle" x="1909.64" y="-1310.3" font-family="Times,serif" font-size="14.00">StorageReadSpeed</text>
</g>
<!-- StorageReadSpeed&#45;&gt;NumericAttribute -->
<g id="edge23" class="edge"><title>StorageReadSpeed&#45;&gt;NumericAttribute</title>
<path fill="none" stroke="black" d="M1975.13,-1323.63C2031.99,-1328.59 2114.54,-1326.81 2172.22,-1287 2237.23,-1242.12 2265.27,-1146.44 2275.56,-1098.94"/>
<polygon fill="black" stroke="black" points="2279.01,-1099.53 2277.59,-1089.03 2272.15,-1098.12 2279.01,-1099.53"/>
</g>
<!-- OperatingSystem -->
<g id="node25" class="node"><title>OperatingSystem</title>
<ellipse fill="none" stroke="black" cx="1909.64" cy="-612" rx="72.2875" ry="18"/>
<text text-anchor="middle" x="1909.64" y="-608.3" font-family="Times,serif" font-size="14.00">OperatingSystem</text>
</g>
<!-- OperatingSystem&#45;&gt;ChoiceAttribute -->
<g id="edge24" class="edge"><title>OperatingSystem&#45;&gt;ChoiceAttribute</title>
<path fill="none" stroke="black" d="M1979.37,-617.015C2043.75,-621.713 2139.71,-628.715 2205.96,-633.549"/>
<polygon fill="black" stroke="black" points="2206.09,-637.068 2216.32,-634.305 2206.6,-630.087 2206.09,-637.068"/>
</g>
<!-- CpuCores -->
<g id="node26" class="node"><title>CpuCores</title>
<ellipse fill="none" stroke="black" cx="1909.64" cy="-1260" rx="46.2923" ry="18"/>
<text text-anchor="middle" x="1909.64" y="-1256.3" font-family="Times,serif" font-size="14.00">CpuCores</text>
</g>
<!-- CpuCores&#45;&gt;NumericAttribute -->
<g id="edge25" class="edge"><title>CpuCores&#45;&gt;NumericAttribute</title>
<path fill="none" stroke="black" d="M1953.49,-1266.12C2008.33,-1271.73 2104.35,-1273.85 2172.22,-1233 2223.64,-1202.05 2255.85,-1136.25 2270.8,-1098.73"/>
<polygon fill="black" stroke="black" points="2274.24,-1099.53 2274.56,-1088.94 2267.7,-1097.02 2274.24,-1099.53"/>
</g>
<!-- CpuClockSpeed -->
<g id="node27" class="node"><title>CpuClockSpeed</title>
<ellipse fill="none" stroke="black" cx="1909.64" cy="-1206" rx="67.6881" ry="18"/>
<text text-anchor="middle" x="1909.64" y="-1202.3" font-family="Times,serif" font-size="14.00">CpuClockSpeed</text>
</g>
<!-- CpuClockSpeed&#45;&gt;NumericAttribute -->
<g id="edge26" class="edge"><title>CpuClockSpeed&#45;&gt;NumericAttribute</title>
<path fill="none" stroke="black" d="M1974.58,-1211C2029.59,-1212.67 2109.73,-1208.65 2172.22,-1179 2210.82,-1160.68 2243.72,-1122.76 2262.85,-1097.09"/>
<polygon fill="black" stroke="black" points="2265.75,-1099.05 2268.79,-1088.9 2260.08,-1094.93 2265.75,-1099.05"/>
</g>
<!-- Ram -->
<g id="node28" class="node"><title>Ram</title>
<ellipse fill="none" stroke="black" cx="1909.64" cy="-1152" rx="27.8951" ry="18"/>
<text text-anchor="middle" x="1909.64" y="-1148.3" font-family="Times,serif" font-size="14.00">Ram</text>
</g>
<!-- Ram&#45;&gt;NumericAttribute -->
<g id="edge27" class="edge"><title>Ram&#45;&gt;NumericAttribute</title>
<path fill="none" stroke="black" d="M1937.6,-1152.36C1985.72,-1152.32 2089.13,-1149.11 2172.22,-1125 2197.73,-1117.6 2224.47,-1104.35 2245.01,-1092.83"/>
<polygon fill="black" stroke="black" points="2246.76,-1095.87 2253.7,-1087.86 2243.28,-1089.79 2246.76,-1095.87"/>
</g>
<!-- RamClockSpeed -->
<g id="node29" class="node"><title>RamClockSpeed</title>
<ellipse fill="none" stroke="black" cx="1909.64" cy="-1098" rx="70.3881" ry="18"/>
<text text-anchor="middle" x="1909.64" y="-1094.3" font-family="Times,serif" font-size="14.00">RamClockSpeed</text>
</g>
<!-- RamClockSpeed&#45;&gt;NumericAttribute -->
<g id="edge28" class="edge"><title>RamClockSpeed&#45;&gt;NumericAttribute</title>
<path fill="none" stroke="black" d="M1977.65,-1093.11C2040.44,-1088.53 2134.37,-1081.67 2200.98,-1076.81"/>
<polygon fill="black" stroke="black" points="2201.29,-1080.3 2211.01,-1076.08 2200.78,-1073.32 2201.29,-1080.3"/>
</g>
<!-- RamWriteSpeed -->
<g id="node30" class="node"><title>RamWriteSpeed</title>
<ellipse fill="none" stroke="black" cx="1909.64" cy="-1044" rx="69.5877" ry="18"/>
<text text-anchor="middle" x="1909.64" y="-1040.3" font-family="Times,serif" font-size="14.00">RamWriteSpeed</text>
</g>
<!-- RamWriteSpeed&#45;&gt;NumericAttribute -->
<g id="edge29" class="edge"><title>RamWriteSpeed&#45;&gt;NumericAttribute</title>
<path fill="none" stroke="black" d="M1976.79,-1048.83C2039.57,-1053.41 2134.01,-1060.3 2200.92,-1065.18"/>
<polygon fill="black" stroke="black" points="2200.77,-1068.68 2211,-1065.92 2201.28,-1061.7 2200.77,-1068.68"/>
</g>
<!-- RamReadSpeed -->
<g id="node31" class="node"><title>RamReadSpeed</title>
<ellipse fill="none" stroke="black" cx="1909.64" cy="-990" rx="67.6881" ry="18"/>
<text text-anchor="middle" x="1909.64" y="-986.3" font-family="Times,serif" font-size="14.00">RamReadSpeed</text>
</g>
<!-- RamReadSpeed&#45;&gt;NumericAttribute -->
<g id="edge30" class="edge"><title>RamReadSpeed&#45;&gt;NumericAttribute</title>
<path fill="none" stroke="black" d="M1977.47,-990.344C2031.08,-992.17 2107.76,-998.297 2172.22,-1017 2197.73,-1024.4 2224.47,-1037.65 2245.01,-1049.17"/>
<polygon fill="black" stroke="black" points="2243.28,-1052.21 2253.7,-1054.14 2246.76,-1046.13 2243.28,-1052.21"/>
</g>
<!-- NetworkCapacity -->
<g id="node32" class="node"><title>NetworkCapacity</title>
<ellipse fill="none" stroke="black" cx="1909.64" cy="-936" rx="72.5877" ry="18"/>
<text text-anchor="middle" x="1909.64" y="-932.3" font-family="Times,serif" font-size="14.00">NetworkCapacity</text>
</g>
<!-- NetworkCapacity&#45;&gt;NumericAttribute -->
<g id="edge31" class="edge"><title>NetworkCapacity&#45;&gt;NumericAttribute</title>
<path fill="none" stroke="black" d="M1979.55,-930.867C2034.34,-929.595 2111.59,-934.226 2172.22,-963 2210.82,-981.321 2243.72,-1019.24 2262.85,-1044.91"/>
<polygon fill="black" stroke="black" points="2260.08,-1047.07 2268.79,-1053.1 2265.75,-1042.95 2260.08,-1047.07"/>
</g>
<!-- NetworkUploadSpeed -->
<g id="node33" class="node"><title>NetworkUploadSpeed</title>
<ellipse fill="none" stroke="black" cx="1909.64" cy="-882" rx="89.0842" ry="18"/>
<text text-anchor="middle" x="1909.64" y="-878.3" font-family="Times,serif" font-size="14.00">NetworkUploadSpeed</text>
</g>
<!-- NetworkUploadSpeed&#45;&gt;NumericAttribute -->
<g id="edge32" class="edge"><title>NetworkUploadSpeed&#45;&gt;NumericAttribute</title>
<path fill="none" stroke="black" d="M1987.89,-873.364C2043.05,-870.965 2116.97,-875.742 2172.22,-909 2223.64,-939.953 2255.85,-1005.75 2270.8,-1043.27"/>
<polygon fill="black" stroke="black" points="2267.7,-1044.98 2274.56,-1053.06 2274.24,-1042.47 2267.7,-1044.98"/>
</g>
<!-- NetworkDownloadSpeed -->
<g id="node34" class="node"><title>NetworkDownloadSpeed</title>
<ellipse fill="none" stroke="black" cx="1909.64" cy="-828" rx="99.3824" ry="18"/>
<text text-anchor="middle" x="1909.64" y="-824.3" font-family="Times,serif" font-size="14.00">NetworkDownloadSpeed</text>
</g>
<!-- NetworkDownloadSpeed&#45;&gt;NumericAttribute -->
<g id="edge33" class="edge"><title>NetworkDownloadSpeed&#45;&gt;NumericAttribute</title>
<path fill="none" stroke="black" d="M1989.8,-817.294C2045.53,-813.97 2119.33,-818.496 2172.22,-855 2237.23,-899.877 2265.27,-995.564 2275.56,-1043.06"/>
<polygon fill="black" stroke="black" points="2272.15,-1043.88 2277.59,-1052.97 2279.01,-1042.47 2272.15,-1043.88"/>
</g>
<!-- github.com/supermuesli/csdl@examples/Requirement1.py@latest -->
<g id="node35" class="node"><title>github.com/supermuesli/csdl@examples/Requirement1.py@latest</title>
<ellipse fill="none" stroke="black" cx="245.678" cy="-72" rx="245.857" ry="18"/>
<text text-anchor="middle" x="245.678" y="-68.3" font-family="Times,serif" font-size="14.00">github.com/supermuesli/csdl@examples/Requirement1.py@latest</text>
</g>
<!-- github.com/supermuesli/csdl@examples/Requirement1.py@latest&#45;&gt;VMAsAService -->
<g id="edge34" class="edge"><title>github.com/supermuesli/csdl@examples/Requirement1.py@latest&#45;&gt;VMAsAService</title>
<path fill="none" stroke="black" d="M447.782,-61.7154C535.605,-57.2241 633.286,-52.2286 698.791,-48.8787"/>
<polygon fill="black" stroke="black" points="699.214,-52.3617 709.022,-48.3555 698.856,-45.3709 699.214,-52.3617"/>
</g>
<!-- github.com/supermuesli/csdl@misc/StaticIp.py@latest -->
<g id="node36" class="node"><title>github.com/supermuesli/csdl@misc/StaticIp.py@latest</title>
<ellipse fill="none" stroke="black" cx="1909.64" cy="-774" rx="206.063" ry="18"/>
<text text-anchor="middle" x="1909.64" y="-770.3" font-family="Times,serif" font-size="14.00">github.com/supermuesli/csdl@misc/StaticIp.py@latest</text>
</g>
<!-- github.com/supermuesli/csdl@misc/StaticIp.py@latest&#45;&gt;NumericAttribute -->
<g id="edge35" class="edge"><title>github.com/supermuesli/csdl@misc/StaticIp.py@latest&#45;&gt;NumericAttribute</title>
<path fill="none" stroke="black" d="M2115.4,-772.979C2135.84,-779.196 2155.26,-788.222 2172.22,-801 2251.04,-860.412 2272.72,-986.436 2278.56,-1042.77"/>
<polygon fill="black" stroke="black" points="2275.08,-1043.13 2279.5,-1052.75 2282.05,-1042.47 2275.08,-1043.13"/>
</g>
<!-- github.com/supermuesli/csdl@aws/ec2/A1Large.py@latest -->
<g id="node37" class="node"><title>github.com/supermuesli/csdl@aws/ec2/A1Large.py@latest</title>
<ellipse fill="none" stroke="black" cx="245.678" cy="-18" rx="221.761" ry="18"/>
<text text-anchor="middle" x="245.678" y="-14.3" font-family="Times,serif" font-size="14.00">github.com/supermuesli/csdl@aws/ec2/A1Large.py@latest</text>
</g>
<!-- github.com/supermuesli/csdl@aws/ec2/A1Large.py@latest&#45;&gt;VMAsAService -->
<g id="edge36" class="edge"><title>github.com/supermuesli/csdl@aws/ec2/A1Large.py@latest&#45;&gt;VMAsAService</title>
<path fill="none" stroke="black" d="M433.559,-27.5572C524.834,-32.2251 629.59,-37.5823 698.656,-41.1144"/>
<polygon fill="black" stroke="black" points="698.838,-44.6282 709.004,-41.6436 699.195,-37.6373 698.838,-44.6282"/>
</g>
<!-- github.com/supermuesli/csdl@aws/regions/Region.py@latest -->
<g id="node38" class="node"><title>github.com/supermuesli/csdl@aws/regions/Region.py@latest</title>
<ellipse fill="none" stroke="black" cx="1335.49" cy="-720" rx="229.359" ry="18"/>
<text text-anchor="middle" x="1335.49" y="-716.3" font-family="Times,serif" font-size="14.00">github.com/supermuesli/csdl@aws/regions/Region.py@latest</text>
</g>
<!-- github.com/supermuesli/csdl@aws/regions/Region.py@latest&#45;&gt;Region -->
<g id="edge37" class="edge"><title>github.com/supermuesli/csdl@aws/regions/Region.py@latest&#45;&gt;Region</title>
<path fill="none" stroke="black" d="M1565.08,-720C1675.65,-720 1798.17,-720 1862.83,-720"/>
<polygon fill="black" stroke="black" points="1863.08,-723.5 1873.08,-720 1863.08,-716.5 1863.08,-723.5"/>
</g>
<!-- github.com/supermuesli/csdl@misc/countries/USA.py@latest -->
<g id="node39" class="node"><title>github.com/supermuesli/csdl@misc/countries/USA.py@latest</title>
<ellipse fill="none" stroke="black" cx="1335.49" cy="-558" rx="231.259" ry="18"/>
<text text-anchor="middle" x="1335.49" y="-554.3" font-family="Times,serif" font-size="14.00">github.com/supermuesli/csdl@misc/countries/USA.py@latest</text>
</g>
<!-- github.com/supermuesli/csdl@misc/countries/USA.py@latest&#45;&gt;NorthAmerica -->
<g id="edge38" class="edge"><title>github.com/supermuesli/csdl@misc/countries/USA.py@latest&#45;&gt;NorthAmerica</title>
<path fill="none" stroke="black" d="M1567.14,-558C1664.11,-558 1769.91,-558 1837.65,-558"/>
<polygon fill="black" stroke="black" points="1837.77,-561.5 1847.77,-558 1837.77,-554.5 1837.77,-561.5"/>
</g>
<!-- github.com/supermuesli/csdl@aws/regions/California.py@latest -->
<g id="node40" class="node"><title>github.com/supermuesli/csdl@aws/regions/California.py@latest</title>
<ellipse fill="none" stroke="black" cx="775.634" cy="-612" rx="239.358" ry="18"/>
<text text-anchor="middle" x="775.634" y="-608.3" font-family="Times,serif" font-size="14.00">github.com/supermuesli/csdl@aws/regions/California.py@latest</text>
</g>
<!-- github.com/supermuesli/csdl@aws/regions/California.py@latest&#45;&gt;github.com/supermuesli/csdl@misc/countries/USA.py@latest -->
<g id="edge39" class="edge"><title>github.com/supermuesli/csdl@aws/regions/California.py@latest&#45;&gt;github.com/supermuesli/csdl@misc/countries/USA.py@latest</title>
<path fill="none" stroke="black" d="M923.204,-597.812C1002.15,-590.171 1099.5,-580.747 1179.67,-572.986"/>
<polygon fill="black" stroke="black" points="1180.25,-576.447 1189.86,-572 1179.57,-569.479 1180.25,-576.447"/>
</g>
<!-- github.com/supermuesli/csdl@aws/regions/EastVirginia.py@latest -->
<g id="node41" class="node"><title>github.com/supermuesli/csdl@aws/regions/EastVirginia.py@latest</title>
<ellipse fill="none" stroke="black" cx="775.634" cy="-558" rx="248.056" ry="18"/>
<text text-anchor="middle" x="775.634" y="-554.3" font-family="Times,serif" font-size="14.00">github.com/supermuesli/csdl@aws/regions/EastVirginia.py@latest</text>
</g>
<!-- github.com/supermuesli/csdl@aws/regions/EastVirginia.py@latest&#45;&gt;github.com/supermuesli/csdl@misc/countries/USA.py@latest -->
<g id="edge40" class="edge"><title>github.com/supermuesli/csdl@aws/regions/EastVirginia.py@latest&#45;&gt;github.com/supermuesli/csdl@misc/countries/USA.py@latest</title>
<path fill="none" stroke="black" d="M1024.16,-558C1047.24,-558 1070.62,-558 1093.64,-558"/>
<polygon fill="black" stroke="black" points="1093.84,-561.5 1103.84,-558 1093.84,-554.5 1093.84,-561.5"/>
</g>
<!-- github.com/supermuesli/csdl@aws/regions/NewYork.py@latest -->
<g id="node42" class="node"><title>github.com/supermuesli/csdl@aws/regions/NewYork.py@latest</title>
<ellipse fill="none" stroke="black" cx="775.634" cy="-504" rx="238.558" ry="18"/>
<text text-anchor="middle" x="775.634" y="-500.3" font-family="Times,serif" font-size="14.00">github.com/supermuesli/csdl@aws/regions/NewYork.py@latest</text>
</g>
<!-- github.com/supermuesli/csdl@aws/regions/NewYork.py@latest&#45;&gt;github.com/supermuesli/csdl@misc/countries/USA.py@latest -->
<g id="edge41" class="edge"><title>github.com/supermuesli/csdl@aws/regions/NewYork.py@latest&#45;&gt;github.com/supermuesli/csdl@misc/countries/USA.py@latest</title>
<path fill="none" stroke="black" d="M923.204,-518.188C1002.15,-525.829 1099.5,-535.253 1179.67,-543.014"/>
<polygon fill="black" stroke="black" points="1179.57,-546.521 1189.86,-544 1180.25,-539.553 1179.57,-546.521"/>
</g>
<!-- github.com/supermuesli/csdl@aws/EBS.py@latest -->
<g id="node43" class="node"><title>github.com/supermuesli/csdl@aws/EBS.py@latest</title>
<ellipse fill="none" stroke="black" cx="775.634" cy="-99" rx="191.966" ry="18"/>
<text text-anchor="middle" x="775.634" y="-95.3" font-family="Times,serif" font-size="14.00">github.com/supermuesli/csdl@aws/EBS.py@latest</text>
</g>
<!-- github.com/supermuesli/csdl@aws/EBS.py@latest&#45;&gt;StorageAsAService -->
<g id="edge42" class="edge"><title>github.com/supermuesli/csdl@aws/EBS.py@latest&#45;&gt;StorageAsAService</title>
<path fill="none" stroke="black" d="M967.445,-99C1061.47,-99 1170.37,-99 1244.99,-99"/>
<polygon fill="black" stroke="black" points="1245.29,-102.5 1255.29,-99 1245.29,-95.5001 1245.29,-102.5"/>
</g>
<!-- github.com/supermuesli/csdl@aws/ec2/ElasticIpAmount.py@latest -->
<g id="node44" class="node"><title>github.com/supermuesli/csdl@aws/ec2/ElasticIpAmount.py@latest</title>
<ellipse fill="none" stroke="black" cx="1335.49" cy="-774" rx="250.756" ry="18"/>
<text text-anchor="middle" x="1335.49" y="-770.3" font-family="Times,serif" font-size="14.00">github.com/supermuesli/csdl@aws/ec2/ElasticIpAmount.py@latest</text>
</g>
<!-- github.com/supermuesli/csdl@aws/ec2/ElasticIpAmount.py@latest&#45;&gt;github.com/supermuesli/csdl@misc/StaticIp.py@latest -->
<g id="edge43" class="edge"><title>github.com/supermuesli/csdl@aws/ec2/ElasticIpAmount.py@latest&#45;&gt;github.com/supermuesli/csdl@misc/StaticIp.py@latest</title>
<path fill="none" stroke="black" d="M1586.61,-774C1622.05,-774 1658.24,-774 1692.96,-774"/>
<polygon fill="black" stroke="black" points="1693.19,-777.5 1703.19,-774 1693.19,-770.5 1693.19,-777.5"/>
</g>
<!-- github.com/supermuesli/csdl@misc/currencies/FeritsCurrencies.py@latest -->
<g id="node45" class="node"><title>github.com/supermuesli/csdl@misc/currencies/FeritsCurrencies.py@latest</title>
<ellipse fill="none" stroke="black" cx="1335.49" cy="-666" rx="275.651" ry="18"/>
<text text-anchor="middle" x="1335.49" y="-662.3" font-family="Times,serif" font-size="14.00">github.com/supermuesli/csdl@misc/currencies/FeritsCurrencies.py@latest</text>
</g>
<!-- github.com/supermuesli/csdl@misc/currencies/FeritsCurrencies.py@latest&#45;&gt;Currency -->
<g id="edge44" class="edge"><title>github.com/supermuesli/csdl@misc/currencies/FeritsCurrencies.py@latest&#45;&gt;Currency</title>
<path fill="none" stroke="black" d="M1611.25,-666C1704.32,-666 1798.98,-666 1855.76,-666"/>
<polygon fill="black" stroke="black" points="1855.91,-669.5 1865.91,-666 1855.91,-662.5 1855.91,-669.5"/>
</g>
<!-- github.com/supermuesli/csdl@misc/currencies/IndianRupee.py@latest -->
<g id="node46" class="node"><title>github.com/supermuesli/csdl@misc/currencies/IndianRupee.py@latest</title>
<ellipse fill="none" stroke="black" cx="1909.64" cy="-180" rx="262.653" ry="18"/>
<text text-anchor="middle" x="1909.64" y="-176.3" font-family="Times,serif" font-size="14.00">github.com/supermuesli/csdl@misc/currencies/IndianRupee.py@latest</text>
</g>
<!-- github.com/supermuesli/csdl@misc/currencies/IndianRupee.py@latest&#45;&gt;NameAttribute -->
<g id="edge45" class="edge"><title>github.com/supermuesli/csdl@misc/currencies/IndianRupee.py@latest&#45;&gt;NameAttribute</title>
<path fill="none" stroke="black" d="M2137.04,-189.145C2149.38,-193.96 2161.21,-199.847 2172.22,-207 2230.38,-244.807 2260.86,-325.43 2273.47,-368.129"/>
<polygon fill="black" stroke="black" points="2270.14,-369.205 2276.23,-377.872 2276.88,-367.297 2270.14,-369.205"/>
</g>
</g>
</svg>
