<?xml version="1.0" encoding="UTF-8" standalone="no"?>
<!DOCTYPE svg PUBLIC "-//W3C//DTD SVG 1.1//EN"
 "http://www.w3.org/Graphics/SVG/1.1/DTD/svg11.dtd">
<!-- Generated by graphviz version 2.38.0 (20140413.2041)
 -->
<!-- Title: %3 Pages: 1 -->
<svg width="2514pt" height="2339pt"
 viewBox="0.00 0.00 2514.40 2339.40" xmlns="http://www.w3.org/2000/svg" xmlns:xlink="http://www.w3.org/1999/xlink">
<g id="graph0" class="graph" transform="scale(1 1) rotate(0) translate(4 2335.4)">
<title>%3</title>
<polygon fill="white" stroke="none" points="-4,4 -4,-2335.4 2510.4,-2335.4 2510.4,4 -4,4"/>
<!-- VMAsAService -->
<g id="node1" class="node"><title>VMAsAService</title>
<ellipse fill="none" stroke="black" cx="716.49" cy="-18" rx="67.6881" ry="18"/>
<text text-anchor="middle" x="716.49" y="-14.3" font-family="Times,serif" font-size="14.00">VMAsAService</text>
</g>
<!-- ServerAsAService -->
<g id="node2" class="node"><title>ServerAsAService</title>
<ellipse fill="none" stroke="black" cx="1271.79" cy="-45" rx="76.0865" ry="18"/>
<text text-anchor="middle" x="1271.79" y="-41.3" font-family="Times,serif" font-size="14.00">ServerAsAService</text>
</g>
<!-- VMAsAService&#45;&gt;ServerAsAService -->
<g id="edge1" class="edge"><title>VMAsAService&#45;&gt;ServerAsAService</title>
<path fill="none" stroke="black" d="M783.134,-21.2033C883.761,-26.1137 1076.09,-35.4988 1186.76,-40.8994"/>
<polygon fill="black" stroke="black" points="1186.72,-44.4017 1196.88,-41.3933 1187.07,-37.41 1186.72,-44.4017"/>
</g>
<!-- IaaS -->
<g id="node3" class="node"><title>IaaS</title>
<ellipse fill="none" stroke="black" cx="1830.35" cy="-126" rx="27" ry="18"/>
<text text-anchor="middle" x="1830.35" y="-122.3" font-family="Times,serif" font-size="14.00">IaaS</text>
</g>
<!-- ServerAsAService&#45;&gt;IaaS -->
<g id="edge2" class="edge"><title>ServerAsAService&#45;&gt;IaaS</title>
<path fill="none" stroke="black" d="M1336.91,-54.3313C1454.71,-71.4751 1701.92,-107.454 1793.89,-120.839"/>
<polygon fill="black" stroke="black" points="1793.41,-124.307 1803.81,-122.283 1794.42,-117.38 1793.41,-124.307"/>
</g>
<!-- CCS -->
<g id="node5" class="node"><title>CCS</title>
<ellipse fill="none" stroke="black" cx="2211.47" cy="-207" rx="27.0966" ry="18"/>
<text text-anchor="middle" x="2211.47" y="-203.3" font-family="Times,serif" font-size="14.00">CCS</text>
</g>
<!-- IaaS&#45;&gt;CCS -->
<g id="edge4" class="edge"><title>IaaS&#45;&gt;CCS</title>
<path fill="none" stroke="black" d="M1856.81,-130.665C1904.88,-139.565 2012.25,-159.88 2102.02,-180 2126.75,-185.542 2154.48,-192.458 2175.71,-197.903"/>
<polygon fill="black" stroke="black" points="2175.01,-201.337 2185.56,-200.445 2176.75,-194.559 2175.01,-201.337"/>
</g>
<!-- SaaS -->
<g id="node4" class="node"><title>SaaS</title>
<ellipse fill="none" stroke="black" cx="1830.35" cy="-207" rx="28.6953" ry="18"/>
<text text-anchor="middle" x="1830.35" y="-203.3" font-family="Times,serif" font-size="14.00">SaaS</text>
</g>
<!-- SaaS&#45;&gt;CCS -->
<g id="edge3" class="edge"><title>SaaS&#45;&gt;CCS</title>
<path fill="none" stroke="black" d="M1859.22,-207C1926.54,-207 2097.96,-207 2173.63,-207"/>
<polygon fill="black" stroke="black" points="2174.07,-210.5 2184.07,-207 2174.07,-203.5 2174.07,-210.5"/>
</g>
<!-- Attribute -->
<g id="node8" class="node"><title>Attribute</title>
<ellipse fill="none" stroke="black" cx="2363.16" cy="-639" rx="42.4939" ry="18"/>
<text text-anchor="middle" x="2363.16" y="-635.3" font-family="Times,serif" font-size="14.00">Attribute</text>
</g>
<!-- CCS&#45;&gt;Attribute -->
<g id="edge10" class="edge"><title>CCS&#45;&gt;Attribute</title>
<path fill="none" stroke="black" d="M2218.52,-224.47C2241.6,-291.076 2324.19,-529.441 2352.53,-611.225"/>
<polygon fill="black" stroke="black" points="2349.28,-612.531 2355.86,-620.834 2355.89,-610.239 2349.28,-612.531"/>
</g>
<!-- StorageAsAService -->
<g id="node6" class="node"><title>StorageAsAService</title>
<ellipse fill="none" stroke="black" cx="1271.79" cy="-126" rx="79.8859" ry="18"/>
<text text-anchor="middle" x="1271.79" y="-122.3" font-family="Times,serif" font-size="14.00">StorageAsAService</text>
</g>
<!-- StorageAsAService&#45;&gt;IaaS -->
<g id="edge5" class="edge"><title>StorageAsAService&#45;&gt;IaaS</title>
<path fill="none" stroke="black" d="M1351.94,-126C1474.22,-126 1704.21,-126 1793.05,-126"/>
<polygon fill="black" stroke="black" points="1793.16,-129.5 1803.16,-126 1793.16,-122.5 1793.16,-129.5"/>
</g>
<!-- NumericAttribute -->
<g id="node7" class="node"><title>NumericAttribute</title>
<ellipse fill="none" stroke="black" cx="2211.47" cy="-1746" rx="73.387" ry="18"/>
<text text-anchor="middle" x="2211.47" y="-1742.3" font-family="Times,serif" font-size="14.00">NumericAttribute</text>
</g>
<!-- NumericAttribute&#45;&gt;Attribute -->
<g id="edge6" class="edge"><title>NumericAttribute&#45;&gt;Attribute</title>
<path fill="none" stroke="black" d="M2214.94,-1727.71C2232.39,-1598.68 2336.86,-826.07 2358.31,-667.451"/>
<polygon fill="black" stroke="black" points="2361.84,-667.488 2359.71,-657.109 2354.9,-666.55 2361.84,-667.488"/>
</g>
<!-- object -->
<g id="node12" class="node"><title>object</title>
<ellipse fill="none" stroke="black" cx="2473.9" cy="-639" rx="32.4942" ry="18"/>
<text text-anchor="middle" x="2473.9" y="-635.3" font-family="Times,serif" font-size="14.00">object</text>
</g>
<!-- Attribute&#45;&gt;object -->
<g id="edge11" class="edge"><title>Attribute&#45;&gt;object</title>
<path fill="none" stroke="black" d="M2405.58,-639C2413.85,-639 2422.55,-639 2430.84,-639"/>
<polygon fill="black" stroke="black" points="2431.07,-642.5 2441.07,-639 2431.07,-635.5 2431.07,-642.5"/>
</g>
<!-- ChoiceAttribute -->
<g id="node9" class="node"><title>ChoiceAttribute</title>
<ellipse fill="none" stroke="black" cx="2211.47" cy="-1044" rx="67.6881" ry="18"/>
<text text-anchor="middle" x="2211.47" y="-1040.3" font-family="Times,serif" font-size="14.00">ChoiceAttribute</text>
</g>
<!-- ChoiceAttribute&#45;&gt;Attribute -->
<g id="edge7" class="edge"><title>ChoiceAttribute&#45;&gt;Attribute</title>
<path fill="none" stroke="black" d="M2219.09,-1026.08C2242.81,-961.905 2323.59,-743.357 2352.09,-666.225"/>
<polygon fill="black" stroke="black" points="2355.42,-667.311 2355.61,-656.718 2348.86,-664.884 2355.42,-667.311"/>
</g>
<!-- BoolAttribute -->
<g id="node10" class="node"><title>BoolAttribute</title>
<ellipse fill="none" stroke="black" cx="2211.47" cy="-666" rx="59.5901" ry="18"/>
<text text-anchor="middle" x="2211.47" y="-662.3" font-family="Times,serif" font-size="14.00">BoolAttribute</text>
</g>
<!-- BoolAttribute&#45;&gt;Attribute -->
<g id="edge8" class="edge"><title>BoolAttribute&#45;&gt;Attribute</title>
<path fill="none" stroke="black" d="M2263.14,-656.859C2279.43,-653.922 2297.42,-650.678 2313.54,-647.768"/>
<polygon fill="black" stroke="black" points="2314.62,-651.131 2323.84,-645.912 2313.38,-644.242 2314.62,-651.131"/>
</g>
<!-- OptionAttribute -->
<g id="node11" class="node"><title>OptionAttribute</title>
<ellipse fill="none" stroke="black" cx="2211.47" cy="-612" rx="66.8882" ry="18"/>
<text text-anchor="middle" x="2211.47" y="-608.3" font-family="Times,serif" font-size="14.00">OptionAttribute</text>
</g>
<!-- OptionAttribute&#45;&gt;Attribute -->
<g id="edge9" class="edge"><title>OptionAttribute&#45;&gt;Attribute</title>
<path fill="none" stroke="black" d="M2267.78,-621.977C2282.94,-624.711 2299.24,-627.652 2313.97,-630.308"/>
<polygon fill="black" stroke="black" points="2313.41,-633.764 2323.87,-632.095 2314.65,-626.875 2313.41,-633.764"/>
</g>
<!-- Region -->
<g id="node13" class="node"><title>Region</title>
<ellipse fill="none" stroke="black" cx="1830.35" cy="-1179" rx="36.2938" ry="18"/>
<text text-anchor="middle" x="1830.35" y="-1175.3" font-family="Times,serif" font-size="14.00">Region</text>
</g>
<!-- Region&#45;&gt;ChoiceAttribute -->
<g id="edge12" class="edge"><title>Region&#45;&gt;ChoiceAttribute</title>
<path fill="none" stroke="black" d="M1866.2,-1182.71C1919.72,-1186.86 2024.1,-1188.82 2102.02,-1152 2140.66,-1133.75 2173.55,-1095.8 2192.66,-1070.12"/>
<polygon fill="black" stroke="black" points="2195.57,-1072.07 2198.61,-1061.92 2189.9,-1067.96 2195.57,-1072.07"/>
</g>
<!-- NorthAmerica -->
<g id="node14" class="node"><title>NorthAmerica</title>
<ellipse fill="none" stroke="black" cx="1830.35" cy="-909" rx="61.99" ry="18"/>
<text text-anchor="middle" x="1830.35" y="-905.3" font-family="Times,serif" font-size="14.00">NorthAmerica</text>
</g>
<!-- NorthAmerica&#45;&gt;OptionAttribute -->
<g id="edge13" class="edge"><title>NorthAmerica&#45;&gt;OptionAttribute</title>
<path fill="none" stroke="black" d="M1879.35,-920.058C1939.77,-930.866 2042.81,-938.459 2102.02,-882 2181.04,-806.66 2069.32,-723.856 2138.02,-639 2141.37,-634.868 2145.41,-631.368 2149.86,-628.404"/>
<polygon fill="black" stroke="black" points="2151.84,-631.303 2158.83,-623.338 2148.4,-625.208 2151.84,-631.303"/>
</g>
<!-- Australia -->
<g id="node15" class="node"><title>Australia</title>
<ellipse fill="none" stroke="black" cx="1830.35" cy="-855" rx="42.7926" ry="18"/>
<text text-anchor="middle" x="1830.35" y="-851.3" font-family="Times,serif" font-size="14.00">Australia</text>
</g>
<!-- Australia&#45;&gt;OptionAttribute -->
<g id="edge14" class="edge"><title>Australia&#45;&gt;OptionAttribute</title>
<path fill="none" stroke="black" d="M1868.32,-863.714C1926.13,-874.942 2037.91,-886.656 2102.02,-828 2165.11,-770.278 2082.86,-704.34 2138.02,-639 2141.59,-634.769 2145.9,-631.201 2150.6,-628.192"/>
<polygon fill="black" stroke="black" points="2152.34,-631.229 2159.43,-623.356 2148.98,-625.09 2152.34,-631.229"/>
</g>
<!-- Africa -->
<g id="node16" class="node"><title>Africa</title>
<ellipse fill="none" stroke="black" cx="1830.35" cy="-801" rx="33.2948" ry="18"/>
<text text-anchor="middle" x="1830.35" y="-797.3" font-family="Times,serif" font-size="14.00">Africa</text>
</g>
<!-- Africa&#45;&gt;OptionAttribute -->
<g id="edge15" class="edge"><title>Africa&#45;&gt;OptionAttribute</title>
<path fill="none" stroke="black" d="M1861.12,-807.88C1915.85,-818.634 2033.13,-832.593 2102.02,-774 2149.32,-733.768 2096.28,-684.968 2138.02,-639 2141.75,-634.901 2146.15,-631.423 2150.92,-628.47"/>
<polygon fill="black" stroke="black" points="2152.66,-631.507 2159.83,-623.705 2149.36,-625.335 2152.66,-631.507"/>
</g>
<!-- EastAsia -->
<g id="node17" class="node"><title>EastAsia</title>
<ellipse fill="none" stroke="black" cx="1830.35" cy="-747" rx="42.4939" ry="18"/>
<text text-anchor="middle" x="1830.35" y="-743.3" font-family="Times,serif" font-size="14.00">EastAsia</text>
</g>
<!-- EastAsia&#45;&gt;OptionAttribute -->
<g id="edge16" class="edge"><title>EastAsia&#45;&gt;OptionAttribute</title>
<path fill="none" stroke="black" d="M1869.13,-754.231C1925.54,-762.802 2032.56,-770.221 2102.02,-720 2133.95,-696.918 2109.32,-665.988 2138.02,-639 2142.28,-634.995 2147.19,-631.57 2152.4,-628.646"/>
<polygon fill="black" stroke="black" points="2154,-631.761 2161.4,-624.181 2150.89,-625.491 2154,-631.761"/>
</g>
<!-- SouthAmerica -->
<g id="node18" class="node"><title>SouthAmerica</title>
<ellipse fill="none" stroke="black" cx="1830.35" cy="-693" rx="61.99" ry="18"/>
<text text-anchor="middle" x="1830.35" y="-689.3" font-family="Times,serif" font-size="14.00">SouthAmerica</text>
</g>
<!-- SouthAmerica&#45;&gt;OptionAttribute -->
<g id="edge17" class="edge"><title>SouthAmerica&#45;&gt;OptionAttribute</title>
<path fill="none" stroke="black" d="M1891.29,-696.096C1947.61,-696.931 2033.27,-692.784 2102.02,-666 2120.66,-658.74 2120.47,-648.591 2138.02,-639 2144.34,-635.548 2151.19,-632.358 2158.07,-629.471"/>
<polygon fill="black" stroke="black" points="2159.44,-632.692 2167.43,-625.726 2156.84,-626.193 2159.44,-632.692"/>
</g>
<!-- Europe -->
<g id="node19" class="node"><title>Europe</title>
<ellipse fill="none" stroke="black" cx="1830.35" cy="-639" rx="36.2938" ry="18"/>
<text text-anchor="middle" x="1830.35" y="-635.3" font-family="Times,serif" font-size="14.00">Europe</text>
</g>
<!-- Europe&#45;&gt;OptionAttribute -->
<g id="edge18" class="edge"><title>Europe&#45;&gt;OptionAttribute</title>
<path fill="none" stroke="black" d="M1866.67,-636.484C1927.93,-632.122 2055.09,-623.066 2136.41,-617.274"/>
<polygon fill="black" stroke="black" points="2136.86,-620.751 2146.59,-616.549 2136.36,-613.769 2136.86,-620.751"/>
</g>
<!-- Antarctica -->
<g id="node20" class="node"><title>Antarctica</title>
<ellipse fill="none" stroke="black" cx="1830.35" cy="-585" rx="47.3916" ry="18"/>
<text text-anchor="middle" x="1830.35" y="-581.3" font-family="Times,serif" font-size="14.00">Antarctica</text>
</g>
<!-- Antarctica&#45;&gt;OptionAttribute -->
<g id="edge19" class="edge"><title>Antarctica&#45;&gt;OptionAttribute</title>
<path fill="none" stroke="black" d="M1877.08,-588.257C1941.44,-592.841 2059.48,-601.247 2136.44,-606.728"/>
<polygon fill="black" stroke="black" points="2136.33,-610.229 2146.55,-607.448 2136.83,-603.247 2136.33,-610.229"/>
</g>
<!-- Storage -->
<g id="node21" class="node"><title>Storage</title>
<ellipse fill="none" stroke="black" cx="1830.35" cy="-2313" rx="37.8943" ry="18"/>
<text text-anchor="middle" x="1830.35" y="-2309.3" font-family="Times,serif" font-size="14.00">Storage</text>
</g>
<!-- Storage&#45;&gt;NumericAttribute -->
<g id="edge20" class="edge"><title>Storage&#45;&gt;NumericAttribute</title>
<path fill="none" stroke="black" d="M1864.57,-2320.91C1921.09,-2332.23 2036.22,-2345.6 2102.02,-2286 2179.12,-2216.16 2203.5,-1874.98 2209.08,-1774.13"/>
<polygon fill="black" stroke="black" points="2212.58,-1774.26 2209.62,-1764.09 2205.59,-1773.89 2212.58,-1774.26"/>
</g>
<!-- StorageWriteSpeed -->
<g id="node22" class="node"><title>StorageWriteSpeed</title>
<ellipse fill="none" stroke="black" cx="1830.35" cy="-2259" rx="79.0865" ry="18"/>
<text text-anchor="middle" x="1830.35" y="-2255.3" font-family="Times,serif" font-size="14.00">StorageWriteSpeed</text>
</g>
<!-- StorageWriteSpeed&#45;&gt;NumericAttribute -->
<g id="edge21" class="edge"><title>StorageWriteSpeed&#45;&gt;NumericAttribute</title>
<path fill="none" stroke="black" d="M1889.47,-2271.08C1950.15,-2280.04 2044.33,-2283.14 2102.02,-2232 2171.64,-2170.28 2200.85,-1868.82 2208.39,-1774.36"/>
<polygon fill="black" stroke="black" points="2211.9,-1774.38 2209.18,-1764.14 2204.92,-1773.84 2211.9,-1774.38"/>
</g>
<!-- StorageReadSpeed -->
<g id="node23" class="node"><title>StorageReadSpeed</title>
<ellipse fill="none" stroke="black" cx="1830.35" cy="-2205" rx="77.1866" ry="18"/>
<text text-anchor="middle" x="1830.35" y="-2201.3" font-family="Times,serif" font-size="14.00">StorageReadSpeed</text>
</g>
<!-- StorageReadSpeed&#45;&gt;NumericAttribute -->
<g id="edge22" class="edge"><title>StorageReadSpeed&#45;&gt;NumericAttribute</title>
<path fill="none" stroke="black" d="M1889.21,-2216.77C1949.66,-2225.48 2043.66,-2228.38 2102.02,-2178 2164.32,-2124.22 2198,-1861.18 2207.57,-1774.07"/>
<polygon fill="black" stroke="black" points="2211.06,-1774.44 2208.65,-1764.12 2204.1,-1773.69 2211.06,-1774.44"/>
</g>
<!-- OperatingSystem -->
<g id="node24" class="node"><title>OperatingSystem</title>
<ellipse fill="none" stroke="black" cx="1830.35" cy="-1125" rx="72.2875" ry="18"/>
<text text-anchor="middle" x="1830.35" y="-1121.3" font-family="Times,serif" font-size="14.00">OperatingSystem</text>
</g>
<!-- OperatingSystem&#45;&gt;ChoiceAttribute -->
<g id="edge23" class="edge"><title>OperatingSystem&#45;&gt;ChoiceAttribute</title>
<path fill="none" stroke="black" d="M1902.77,-1124.87C1958.13,-1123.11 2036.23,-1116.97 2102.02,-1098 2127.72,-1090.59 2154.65,-1077.21 2175.25,-1065.63"/>
<polygon fill="black" stroke="black" points="2177.02,-1068.65 2183.95,-1060.63 2173.54,-1062.58 2177.02,-1068.65"/>
</g>
<!-- CpuCores -->
<g id="node25" class="node"><title>CpuCores</title>
<ellipse fill="none" stroke="black" cx="1830.35" cy="-2151" rx="46.2923" ry="18"/>
<text text-anchor="middle" x="1830.35" y="-2147.3" font-family="Times,serif" font-size="14.00">CpuCores</text>
</g>
<!-- CpuCores&#45;&gt;NumericAttribute -->
<g id="edge24" class="edge"><title>CpuCores&#45;&gt;NumericAttribute</title>
<path fill="none" stroke="black" d="M1871.01,-2159.59C1928.86,-2169.64 2036.58,-2178.62 2102.02,-2124 2156.84,-2078.25 2194.47,-1854.93 2206.41,-1774.74"/>
<polygon fill="black" stroke="black" points="2209.94,-1774.81 2207.92,-1764.4 2203.01,-1773.79 2209.94,-1774.81"/>
</g>
<!-- CpuClockSpeed -->
<g id="node26" class="node"><title>CpuClockSpeed</title>
<ellipse fill="none" stroke="black" cx="1830.35" cy="-2097" rx="67.6881" ry="18"/>
<text text-anchor="middle" x="1830.35" y="-2093.3" font-family="Times,serif" font-size="14.00">CpuClockSpeed</text>
</g>
<!-- CpuClockSpeed&#45;&gt;NumericAttribute -->
<g id="edge25" class="edge"><title>CpuClockSpeed&#45;&gt;NumericAttribute</title>
<path fill="none" stroke="black" d="M1885.47,-2107.47C1945.13,-2115.74 2040.75,-2118.9 2102.02,-2070 2195.15,-1995.67 2208.9,-1838.49 2210.5,-1774.26"/>
<polygon fill="black" stroke="black" points="2214,-1774.13 2210.67,-1764.07 2207,-1774.02 2214,-1774.13"/>
</g>
<!-- Ram -->
<g id="node27" class="node"><title>Ram</title>
<ellipse fill="none" stroke="black" cx="1830.35" cy="-2043" rx="27.8951" ry="18"/>
<text text-anchor="middle" x="1830.35" y="-2039.3" font-family="Times,serif" font-size="14.00">Ram</text>
</g>
<!-- Ram&#45;&gt;NumericAttribute -->
<g id="edge26" class="edge"><title>Ram&#45;&gt;NumericAttribute</title>
<path fill="none" stroke="black" d="M1857.18,-2048.48C1909.27,-2057.95 2028.2,-2071.44 2102.02,-2016 2180.95,-1956.72 2202.57,-1830.63 2208.38,-1774.26"/>
<polygon fill="black" stroke="black" points="2211.87,-1774.55 2209.32,-1764.26 2204.9,-1773.89 2211.87,-1774.55"/>
</g>
<!-- RamClockSpeed -->
<g id="node28" class="node"><title>RamClockSpeed</title>
<ellipse fill="none" stroke="black" cx="1830.35" cy="-1989" rx="70.3881" ry="18"/>
<text text-anchor="middle" x="1830.35" y="-1985.3" font-family="Times,serif" font-size="14.00">RamClockSpeed</text>
</g>
<!-- RamClockSpeed&#45;&gt;NumericAttribute -->
<g id="edge27" class="edge"><title>RamClockSpeed&#45;&gt;NumericAttribute</title>
<path fill="none" stroke="black" d="M1890.17,-1998.46C1949.03,-2004.66 2039.57,-2004.95 2102.02,-1962 2167.11,-1917.23 2195.12,-1821.5 2205.38,-1773.96"/>
<polygon fill="black" stroke="black" points="2208.83,-1774.55 2207.41,-1764.05 2201.97,-1773.14 2208.83,-1774.55"/>
</g>
<!-- RamWriteSpeed -->
<g id="node29" class="node"><title>RamWriteSpeed</title>
<ellipse fill="none" stroke="black" cx="1830.35" cy="-1935" rx="69.5877" ry="18"/>
<text text-anchor="middle" x="1830.35" y="-1931.3" font-family="Times,serif" font-size="14.00">RamWriteSpeed</text>
</g>
<!-- RamWriteSpeed&#45;&gt;NumericAttribute -->
<g id="edge28" class="edge"><title>RamWriteSpeed&#45;&gt;NumericAttribute</title>
<path fill="none" stroke="black" d="M1892.67,-1943.1C1950.76,-1947.65 2038.33,-1946.19 2102.02,-1908 2153.49,-1877.14 2185.69,-1811.3 2200.62,-1773.75"/>
<polygon fill="black" stroke="black" points="2204.06,-1774.55 2204.37,-1763.96 2197.52,-1772.05 2204.06,-1774.55"/>
</g>
<!-- RamReadSpeed -->
<g id="node30" class="node"><title>RamReadSpeed</title>
<ellipse fill="none" stroke="black" cx="1830.35" cy="-1881" rx="67.6881" ry="18"/>
<text text-anchor="middle" x="1830.35" y="-1877.3" font-family="Times,serif" font-size="14.00">RamReadSpeed</text>
</g>
<!-- RamReadSpeed&#45;&gt;NumericAttribute -->
<g id="edge29" class="edge"><title>RamReadSpeed&#45;&gt;NumericAttribute</title>
<path fill="none" stroke="black" d="M1894.98,-1886.36C1951.95,-1888.52 2036.37,-1885.02 2102.02,-1854 2140.66,-1835.75 2173.55,-1797.8 2192.66,-1772.12"/>
<polygon fill="black" stroke="black" points="2195.57,-1774.07 2198.61,-1763.92 2189.9,-1769.96 2195.57,-1774.07"/>
</g>
<!-- NetworkCapacity -->
<g id="node31" class="node"><title>NetworkCapacity</title>
<ellipse fill="none" stroke="black" cx="1830.35" cy="-1827" rx="72.5877" ry="18"/>
<text text-anchor="middle" x="1830.35" y="-1823.3" font-family="Times,serif" font-size="14.00">NetworkCapacity</text>
</g>
<!-- NetworkCapacity&#45;&gt;NumericAttribute -->
<g id="edge30" class="edge"><title>NetworkCapacity&#45;&gt;NumericAttribute</title>
<path fill="none" stroke="black" d="M1903.35,-1826.86C1958.67,-1825.07 2036.45,-1818.91 2102.02,-1800 2127.55,-1792.64 2154.28,-1779.4 2174.82,-1767.87"/>
<polygon fill="black" stroke="black" points="2176.58,-1770.9 2183.51,-1762.89 2173.09,-1764.83 2176.58,-1770.9"/>
</g>
<!-- NetworkUploadSpeed -->
<g id="node32" class="node"><title>NetworkUploadSpeed</title>
<ellipse fill="none" stroke="black" cx="1830.35" cy="-1773" rx="89.0842" ry="18"/>
<text text-anchor="middle" x="1830.35" y="-1769.3" font-family="Times,serif" font-size="14.00">NetworkUploadSpeed</text>
</g>
<!-- NetworkUploadSpeed&#45;&gt;NumericAttribute -->
<g id="edge31" class="edge"><title>NetworkUploadSpeed&#45;&gt;NumericAttribute</title>
<path fill="none" stroke="black" d="M1914.55,-1767.07C1978.76,-1762.5 2067.05,-1756.21 2130.45,-1751.7"/>
<polygon fill="black" stroke="black" points="2131.07,-1755.16 2140.8,-1750.96 2130.57,-1748.18 2131.07,-1755.16"/>
</g>
<!-- NetworkDownloadSpeed -->
<g id="node33" class="node"><title>NetworkDownloadSpeed</title>
<ellipse fill="none" stroke="black" cx="1830.35" cy="-1719" rx="99.3824" ry="18"/>
<text text-anchor="middle" x="1830.35" y="-1715.3" font-family="Times,serif" font-size="14.00">NetworkDownloadSpeed</text>
</g>
<!-- NetworkDownloadSpeed&#45;&gt;NumericAttribute -->
<g id="edge32" class="edge"><title>NetworkDownloadSpeed&#45;&gt;NumericAttribute</title>
<path fill="none" stroke="black" d="M1923.12,-1725.54C1986.41,-1730.04 2069.72,-1735.98 2130.33,-1740.29"/>
<polygon fill="black" stroke="black" points="2130.39,-1743.81 2140.62,-1741.03 2130.89,-1736.82 2130.39,-1743.81"/>
</g>
<!-- PricingModel -->
<g id="node34" class="node"><title>PricingModel</title>
<ellipse fill="none" stroke="black" cx="1830.35" cy="-1071" rx="59.5901" ry="18"/>
<text text-anchor="middle" x="1830.35" y="-1067.3" font-family="Times,serif" font-size="14.00">PricingModel</text>
</g>
<!-- PricingModel&#45;&gt;ChoiceAttribute -->
<g id="edge33" class="edge"><title>PricingModel&#45;&gt;ChoiceAttribute</title>
<path fill="none" stroke="black" d="M1888.93,-1066.9C1955.01,-1062.19 2063.56,-1054.46 2136.01,-1049.3"/>
<polygon fill="black" stroke="black" points="2136.26,-1052.79 2145.99,-1048.59 2135.76,-1045.81 2136.26,-1052.79"/>
</g>
<!-- PayAndGo -->
<g id="node35" class="node"><title>PayAndGo</title>
<ellipse fill="none" stroke="black" cx="1830.35" cy="-531" rx="50.0912" ry="18"/>
<text text-anchor="middle" x="1830.35" y="-527.3" font-family="Times,serif" font-size="14.00">PayAndGo</text>
</g>
<!-- PayAndGo&#45;&gt;OptionAttribute -->
<g id="edge34" class="edge"><title>PayAndGo&#45;&gt;OptionAttribute</title>
<path fill="none" stroke="black" d="M1880.1,-528.141C1935.74,-526.605 2028.54,-529.373 2102.02,-558 2120.66,-565.26 2120.47,-575.409 2138.02,-585 2144.34,-588.452 2151.19,-591.642 2158.07,-594.529"/>
<polygon fill="black" stroke="black" points="2156.84,-597.807 2167.43,-598.274 2159.44,-591.308 2156.84,-597.807"/>
</g>
<!-- PayPerResource -->
<g id="node36" class="node"><title>PayPerResource</title>
<ellipse fill="none" stroke="black" cx="1830.35" cy="-477" rx="68.4888" ry="18"/>
<text text-anchor="middle" x="1830.35" y="-473.3" font-family="Times,serif" font-size="14.00">PayPerResource</text>
</g>
<!-- PayPerResource&#45;&gt;OptionAttribute -->
<g id="edge35" class="edge"><title>PayPerResource&#45;&gt;OptionAttribute</title>
<path fill="none" stroke="black" d="M1887.86,-467.244C1946.96,-460.285 2039.64,-458.898 2102.02,-504 2133.95,-527.082 2109.32,-558.012 2138.02,-585 2142.28,-589.005 2147.19,-592.43 2152.4,-595.354"/>
<polygon fill="black" stroke="black" points="2150.89,-598.509 2161.4,-599.819 2154,-592.239 2150.89,-598.509"/>
</g>
<!-- Subscription -->
<g id="node37" class="node"><title>Subscription</title>
<ellipse fill="none" stroke="black" cx="1830.35" cy="-423" rx="55.4913" ry="18"/>
<text text-anchor="middle" x="1830.35" y="-419.3" font-family="Times,serif" font-size="14.00">Subscription</text>
</g>
<!-- Subscription&#45;&gt;OptionAttribute -->
<g id="edge36" class="edge"><title>Subscription&#45;&gt;OptionAttribute</title>
<path fill="none" stroke="black" d="M1876.84,-413.275C1935.99,-403.479 2039.16,-396.532 2102.02,-450 2149.32,-490.232 2096.28,-539.032 2138.02,-585 2141.75,-589.099 2146.15,-592.577 2150.92,-595.53"/>
<polygon fill="black" stroke="black" points="2149.36,-598.665 2159.83,-600.295 2152.66,-592.493 2149.36,-598.665"/>
</g>
<!-- Price -->
<g id="node38" class="node"><title>Price</title>
<ellipse fill="none" stroke="black" cx="2211.47" cy="-558" rx="28.6953" ry="18"/>
<text text-anchor="middle" x="2211.47" y="-554.3" font-family="Times,serif" font-size="14.00">Price</text>
</g>
<!-- Price&#45;&gt;Attribute -->
<g id="edge37" class="edge"><title>Price&#45;&gt;Attribute</title>
<path fill="none" stroke="black" d="M2237.62,-565.623C2251.87,-570.37 2269.82,-577.077 2284.91,-585 2302.07,-594.007 2319.88,-606.236 2334.07,-616.779"/>
<polygon fill="black" stroke="black" points="2332.31,-619.839 2342.4,-623.082 2336.54,-614.257 2332.31,-619.839"/>
</g>
<!-- DatabaseAsAService -->
<g id="node39" class="node"><title>DatabaseAsAService</title>
<ellipse fill="none" stroke="black" cx="1271.79" cy="-234" rx="85.2851" ry="18"/>
<text text-anchor="middle" x="1271.79" y="-230.3" font-family="Times,serif" font-size="14.00">DatabaseAsAService</text>
</g>
<!-- DatabaseAsAService&#45;&gt;SaaS -->
<g id="edge38" class="edge"><title>DatabaseAsAService&#45;&gt;SaaS</title>
<path fill="none" stroke="black" d="M1354.91,-230.016C1477.24,-224.082 1702.46,-213.156 1791.6,-208.831"/>
<polygon fill="black" stroke="black" points="1791.96,-212.318 1801.78,-208.337 1791.62,-205.326 1791.96,-212.318"/>
</g>
<!-- SQLDatabaseAsAService -->
<g id="node40" class="node"><title>SQLDatabaseAsAService</title>
<ellipse fill="none" stroke="black" cx="716.49" cy="-288" rx="102.082" ry="18"/>
<text text-anchor="middle" x="716.49" y="-284.3" font-family="Times,serif" font-size="14.00">SQLDatabaseAsAService</text>
</g>
<!-- SQLDatabaseAsAService&#45;&gt;DatabaseAsAService -->
<g id="edge39" class="edge"><title>SQLDatabaseAsAService&#45;&gt;DatabaseAsAService</title>
<path fill="none" stroke="black" d="M806.081,-279.354C909.933,-269.218 1080.92,-252.531 1183.99,-242.471"/>
<polygon fill="black" stroke="black" points="1184.45,-245.944 1194.06,-241.489 1183.77,-238.977 1184.45,-245.944"/>
</g>
<!-- NoSQLDatabaseAsAService -->
<g id="node41" class="node"><title>NoSQLDatabaseAsAService</title>
<ellipse fill="none" stroke="black" cx="716.49" cy="-234" rx="112.38" ry="18"/>
<text text-anchor="middle" x="716.49" y="-230.3" font-family="Times,serif" font-size="14.00">NoSQLDatabaseAsAService</text>
</g>
<!-- NoSQLDatabaseAsAService&#45;&gt;DatabaseAsAService -->
<g id="edge40" class="edge"><title>NoSQLDatabaseAsAService&#45;&gt;DatabaseAsAService</title>
<path fill="none" stroke="black" d="M829.126,-234C931.11,-234 1080.24,-234 1176.42,-234"/>
<polygon fill="black" stroke="black" points="1176.42,-237.5 1186.42,-234 1176.42,-230.5 1176.42,-237.5"/>
</g>
<!-- github.com/supermuesli/csdl@examples/StorageRequirement.py@latest -->
<g id="node42" class="node"><title>github.com/supermuesli/csdl@examples/StorageRequirement.py@latest</title>
<ellipse fill="none" stroke="black" cx="716.49" cy="-180" rx="268.352" ry="18"/>
<text text-anchor="middle" x="716.49" y="-176.3" font-family="Times,serif" font-size="14.00">github.com/supermuesli/csdl@examples/StorageRequirement.py@latest</text>
</g>
<!-- github.com/supermuesli/csdl@examples/StorageRequirement.py@latest&#45;&gt;StorageAsAService -->
<g id="edge41" class="edge"><title>github.com/supermuesli/csdl@examples/StorageRequirement.py@latest&#45;&gt;StorageAsAService</title>
<path fill="none" stroke="black" d="M869.414,-165.173C972.248,-155.137 1104.16,-142.263 1188.11,-134.07"/>
<polygon fill="black" stroke="black" points="1188.49,-137.549 1198.1,-133.094 1187.81,-130.582 1188.49,-137.549"/>
</g>
<!-- github.com/supermuesli/csdl@aws/regions/Region.py@latest -->
<g id="node43" class="node"><title>github.com/supermuesli/csdl@aws/regions/Region.py@latest</title>
<ellipse fill="none" stroke="black" cx="1271.79" cy="-1179" rx="229.359" ry="18"/>
<text text-anchor="middle" x="1271.79" y="-1175.3" font-family="Times,serif" font-size="14.00">github.com/supermuesli/csdl@aws/regions/Region.py@latest</text>
</g>
<!-- github.com/supermuesli/csdl@aws/regions/Region.py@latest&#45;&gt;Region -->
<g id="edge42" class="edge"><title>github.com/supermuesli/csdl@aws/regions/Region.py@latest&#45;&gt;Region</title>
<path fill="none" stroke="black" d="M1501.57,-1179C1606.72,-1179 1721.61,-1179 1783.56,-1179"/>
<polygon fill="black" stroke="black" points="1783.77,-1182.5 1793.77,-1179 1783.77,-1175.5 1783.77,-1182.5"/>
</g>
<!-- github.com/supermuesli/csdl@misc/countries/USA.py@latest -->
<g id="node44" class="node"><title>github.com/supermuesli/csdl@misc/countries/USA.py@latest</title>
<ellipse fill="none" stroke="black" cx="1271.79" cy="-909" rx="231.259" ry="18"/>
<text text-anchor="middle" x="1271.79" y="-905.3" font-family="Times,serif" font-size="14.00">github.com/supermuesli/csdl@misc/countries/USA.py@latest</text>
</g>
<!-- github.com/supermuesli/csdl@misc/countries/USA.py@latest&#45;&gt;NorthAmerica -->
<g id="edge43" class="edge"><title>github.com/supermuesli/csdl@misc/countries/USA.py@latest&#45;&gt;NorthAmerica</title>
<path fill="none" stroke="black" d="M1503.18,-909C1594.87,-909 1693.71,-909 1758.25,-909"/>
<polygon fill="black" stroke="black" points="1758.31,-912.5 1768.31,-909 1758.31,-905.5 1758.31,-912.5"/>
</g>
<!-- github.com/supermuesli/csdl@aws/regions/California.py@latest -->
<g id="node45" class="node"><title>github.com/supermuesli/csdl@aws/regions/California.py@latest</title>
<ellipse fill="none" stroke="black" cx="716.49" cy="-963" rx="239.358" ry="18"/>
<text text-anchor="middle" x="716.49" y="-959.3" font-family="Times,serif" font-size="14.00">github.com/supermuesli/csdl@aws/regions/California.py@latest</text>
</g>
<!-- github.com/supermuesli/csdl@aws/regions/California.py@latest&#45;&gt;github.com/supermuesli/csdl@misc/countries/USA.py@latest -->
<g id="edge44" class="edge"><title>github.com/supermuesli/csdl@aws/regions/California.py@latest&#45;&gt;github.com/supermuesli/csdl@misc/countries/USA.py@latest</title>
<path fill="none" stroke="black" d="M863.225,-948.777C941.215,-941.165 1037.24,-931.793 1116.5,-924.059"/>
<polygon fill="black" stroke="black" points="1116.96,-927.53 1126.57,-923.075 1116.28,-920.563 1116.96,-927.53"/>
</g>
<!-- github.com/supermuesli/csdl@aws/regions/NorthernVirginia.py@latest -->
<g id="node46" class="node"><title>github.com/supermuesli/csdl@aws/regions/NorthernVirginia.py@latest</title>
<ellipse fill="none" stroke="black" cx="716.49" cy="-909" rx="264.553" ry="18"/>
<text text-anchor="middle" x="716.49" y="-905.3" font-family="Times,serif" font-size="14.00">github.com/supermuesli/csdl@aws/regions/NorthernVirginia.py@latest</text>
</g>
<!-- github.com/supermuesli/csdl@aws/regions/NorthernVirginia.py@latest&#45;&gt;github.com/supermuesli/csdl@misc/countries/USA.py@latest -->
<g id="edge45" class="edge"><title>github.com/supermuesli/csdl@aws/regions/NorthernVirginia.py@latest&#45;&gt;github.com/supermuesli/csdl@misc/countries/USA.py@latest</title>
<path fill="none" stroke="black" d="M981.178,-909C997.543,-909 1013.97,-909 1030.23,-909"/>
<polygon fill="black" stroke="black" points="1030.32,-912.5 1040.32,-909 1030.32,-905.5 1030.32,-912.5"/>
</g>
<!-- github.com/supermuesli/csdl@aws/regions/NewYork.py@latest -->
<g id="node47" class="node"><title>github.com/supermuesli/csdl@aws/regions/NewYork.py@latest</title>
<ellipse fill="none" stroke="black" cx="716.49" cy="-855" rx="238.558" ry="18"/>
<text text-anchor="middle" x="716.49" y="-851.3" font-family="Times,serif" font-size="14.00">github.com/supermuesli/csdl@aws/regions/NewYork.py@latest</text>
</g>
<!-- github.com/supermuesli/csdl@aws/regions/NewYork.py@latest&#45;&gt;github.com/supermuesli/csdl@misc/countries/USA.py@latest -->
<g id="edge46" class="edge"><title>github.com/supermuesli/csdl@aws/regions/NewYork.py@latest&#45;&gt;github.com/supermuesli/csdl@misc/countries/USA.py@latest</title>
<path fill="none" stroke="black" d="M863.225,-869.223C941.215,-876.835 1037.24,-886.207 1116.5,-893.941"/>
<polygon fill="black" stroke="black" points="1116.28,-897.437 1126.57,-894.925 1116.96,-890.47 1116.28,-897.437"/>
</g>
<!-- github.com/supermuesli/csdl@misc/dataTransfer/In.py@latest -->
<g id="node48" class="node"><title>github.com/supermuesli/csdl@misc/dataTransfer/In.py@latest</title>
<ellipse fill="none" stroke="black" cx="1830.35" cy="-1665" rx="233.159" ry="18"/>
<text text-anchor="middle" x="1830.35" y="-1661.3" font-family="Times,serif" font-size="14.00">github.com/supermuesli/csdl@misc/dataTransfer/In.py@latest</text>
</g>
<!-- github.com/supermuesli/csdl@misc/dataTransfer/In.py@latest&#45;&gt;NumericAttribute -->
<g id="edge47" class="edge"><title>github.com/supermuesli/csdl@misc/dataTransfer/In.py@latest&#45;&gt;NumericAttribute</title>
<path fill="none" stroke="black" d="M2022.3,-1675.27C2049.37,-1679.26 2076.61,-1684.67 2102.02,-1692 2127.55,-1699.36 2154.28,-1712.6 2174.82,-1724.13"/>
<polygon fill="black" stroke="black" points="2173.09,-1727.17 2183.51,-1729.11 2176.58,-1721.1 2173.09,-1727.17"/>
</g>
<!-- github.com/supermuesli/csdl@misc/dataTransfer/Out.py@latest -->
<g id="node49" class="node"><title>github.com/supermuesli/csdl@misc/dataTransfer/Out.py@latest</title>
<ellipse fill="none" stroke="black" cx="1830.35" cy="-1611" rx="239.358" ry="18"/>
<text text-anchor="middle" x="1830.35" y="-1607.3" font-family="Times,serif" font-size="14.00">github.com/supermuesli/csdl@misc/dataTransfer/Out.py@latest</text>
</g>
<!-- github.com/supermuesli/csdl@misc/dataTransfer/Out.py@latest&#45;&gt;NumericAttribute -->
<g id="edge48" class="edge"><title>github.com/supermuesli/csdl@misc/dataTransfer/Out.py@latest&#45;&gt;NumericAttribute</title>
<path fill="none" stroke="black" d="M2046.73,-1618.73C2065.9,-1623.49 2084.62,-1629.78 2102.02,-1638 2140.66,-1656.25 2173.55,-1694.2 2192.66,-1719.88"/>
<polygon fill="black" stroke="black" points="2189.9,-1722.04 2198.61,-1728.08 2195.57,-1717.93 2189.9,-1722.04"/>
</g>
<!-- github.com/supermuesli/csdl@aws/s3/S3Type.py@latest -->
<g id="node50" class="node"><title>github.com/supermuesli/csdl@aws/s3/S3Type.py@latest</title>
<ellipse fill="none" stroke="black" cx="1830.35" cy="-1017" rx="213.362" ry="18"/>
<text text-anchor="middle" x="1830.35" y="-1013.3" font-family="Times,serif" font-size="14.00">github.com/supermuesli/csdl@aws/s3/S3Type.py@latest</text>
</g>
<!-- github.com/supermuesli/csdl@aws/s3/S3Type.py@latest&#45;&gt;ChoiceAttribute -->
<g id="edge49" class="edge"><title>github.com/supermuesli/csdl@aws/s3/S3Type.py@latest&#45;&gt;ChoiceAttribute</title>
<path fill="none" stroke="black" d="M1993.78,-1028.57C2043.25,-1032.09 2095.23,-1035.79 2135.88,-1038.69"/>
<polygon fill="black" stroke="black" points="2135.74,-1042.19 2145.96,-1039.41 2136.24,-1035.2 2135.74,-1042.19"/>
</g>
<!-- github.com/supermuesli/csdl@aws/s3/Standard.py@latest -->
<g id="node51" class="node"><title>github.com/supermuesli/csdl@aws/s3/Standard.py@latest</title>
<ellipse fill="none" stroke="black" cx="1830.35" cy="-369" rx="217.162" ry="18"/>
<text text-anchor="middle" x="1830.35" y="-365.3" font-family="Times,serif" font-size="14.00">github.com/supermuesli/csdl@aws/s3/Standard.py@latest</text>
</g>
<!-- github.com/supermuesli/csdl@aws/s3/Standard.py@latest&#45;&gt;OptionAttribute -->
<g id="edge50" class="edge"><title>github.com/supermuesli/csdl@aws/s3/Standard.py@latest&#45;&gt;OptionAttribute</title>
<path fill="none" stroke="black" d="M1922.46,-352.685C1980.94,-347.717 2054.55,-352.566 2102.02,-396 2165.11,-453.722 2082.86,-519.66 2138.02,-585 2141.59,-589.231 2145.9,-592.799 2150.6,-595.808"/>
<polygon fill="black" stroke="black" points="2148.98,-598.91 2159.43,-600.644 2152.34,-592.771 2148.98,-598.91"/>
</g>
<!-- github.com/supermuesli/csdl@aws/s3/StandardInfreqAccess.py@latest -->
<g id="node52" class="node"><title>github.com/supermuesli/csdl@aws/s3/StandardInfreqAccess.py@latest</title>
<ellipse fill="none" stroke="black" cx="1830.35" cy="-315" rx="263.453" ry="18"/>
<text text-anchor="middle" x="1830.35" y="-311.3" font-family="Times,serif" font-size="14.00">github.com/supermuesli/csdl@aws/s3/StandardInfreqAccess.py@latest</text>
</g>
<!-- github.com/supermuesli/csdl@aws/s3/StandardInfreqAccess.py@latest&#45;&gt;OptionAttribute -->
<g id="edge51" class="edge"><title>github.com/supermuesli/csdl@aws/s3/StandardInfreqAccess.py@latest&#45;&gt;OptionAttribute</title>
<path fill="none" stroke="black" d="M1922.4,-298.108C1981.24,-292.777 2055.28,-297.435 2102.02,-342 2181.04,-417.34 2069.32,-500.144 2138.02,-585 2141.37,-589.132 2145.41,-592.632 2149.86,-595.596"/>
<polygon fill="black" stroke="black" points="2148.4,-598.792 2158.83,-600.662 2151.84,-592.697 2148.4,-598.792"/>
</g>
<!-- github.com/supermuesli/csdl@misc/requests/PUTAmount.py@latest -->
<g id="node53" class="node"><title>github.com/supermuesli/csdl@misc/requests/PUTAmount.py@latest</title>
<ellipse fill="none" stroke="black" cx="1830.35" cy="-1557" rx="256.155" ry="18"/>
<text text-anchor="middle" x="1830.35" y="-1553.3" font-family="Times,serif" font-size="14.00">github.com/supermuesli/csdl@misc/requests/PUTAmount.py@latest</text>
</g>
<!-- github.com/supermuesli/csdl@misc/requests/PUTAmount.py@latest&#45;&gt;NumericAttribute -->
<g id="edge52" class="edge"><title>github.com/supermuesli/csdl@misc/requests/PUTAmount.py@latest&#45;&gt;NumericAttribute</title>
<path fill="none" stroke="black" d="M2060.62,-1564.99C2075.11,-1569.98 2089.06,-1576.23 2102.02,-1584 2153.49,-1614.86 2185.69,-1680.7 2200.62,-1718.25"/>
<polygon fill="black" stroke="black" points="2197.52,-1719.95 2204.37,-1728.04 2204.06,-1717.45 2197.52,-1719.95"/>
</g>
<!-- github.com/supermuesli/csdl@misc/requests/COPYAmount.py@latest -->
<g id="node54" class="node"><title>github.com/supermuesli/csdl@misc/requests/COPYAmount.py@latest</title>
<ellipse fill="none" stroke="black" cx="1830.35" cy="-1503" rx="262.653" ry="18"/>
<text text-anchor="middle" x="1830.35" y="-1499.3" font-family="Times,serif" font-size="14.00">github.com/supermuesli/csdl@misc/requests/COPYAmount.py@latest</text>
</g>
<!-- github.com/supermuesli/csdl@misc/requests/COPYAmount.py@latest&#45;&gt;NumericAttribute -->
<g id="edge53" class="edge"><title>github.com/supermuesli/csdl@misc/requests/COPYAmount.py@latest&#45;&gt;NumericAttribute</title>
<path fill="none" stroke="black" d="M2066.43,-1511C2078.96,-1516.11 2090.93,-1522.37 2102.02,-1530 2167.11,-1574.77 2195.12,-1670.5 2205.38,-1718.04"/>
<polygon fill="black" stroke="black" points="2201.97,-1718.86 2207.41,-1727.95 2208.83,-1717.45 2201.97,-1718.86"/>
</g>
<!-- github.com/supermuesli/csdl@misc/requests/LISTAmount.py@latest -->
<g id="node55" class="node"><title>github.com/supermuesli/csdl@misc/requests/LISTAmount.py@latest</title>
<ellipse fill="none" stroke="black" cx="1830.35" cy="-1449" rx="258.054" ry="18"/>
<text text-anchor="middle" x="1830.35" y="-1445.3" font-family="Times,serif" font-size="14.00">github.com/supermuesli/csdl@misc/requests/LISTAmount.py@latest</text>
</g>
<!-- github.com/supermuesli/csdl@misc/requests/LISTAmount.py@latest&#45;&gt;NumericAttribute -->
<g id="edge54" class="edge"><title>github.com/supermuesli/csdl@misc/requests/LISTAmount.py@latest&#45;&gt;NumericAttribute</title>
<path fill="none" stroke="black" d="M2067.86,-1456.21C2079.95,-1461.53 2091.45,-1468.06 2102.02,-1476 2180.95,-1535.28 2202.57,-1661.37 2208.38,-1717.74"/>
<polygon fill="black" stroke="black" points="2204.9,-1718.11 2209.32,-1727.74 2211.87,-1717.45 2204.9,-1718.11"/>
</g>
<!-- github.com/supermuesli/csdl@misc/requests/GETAmount.py@latest -->
<g id="node56" class="node"><title>github.com/supermuesli/csdl@misc/requests/GETAmount.py@latest</title>
<ellipse fill="none" stroke="black" cx="1830.35" cy="-1395" rx="256.955" ry="18"/>
<text text-anchor="middle" x="1830.35" y="-1391.3" font-family="Times,serif" font-size="14.00">github.com/supermuesli/csdl@misc/requests/GETAmount.py@latest</text>
</g>
<!-- github.com/supermuesli/csdl@misc/requests/GETAmount.py@latest&#45;&gt;NumericAttribute -->
<g id="edge55" class="edge"><title>github.com/supermuesli/csdl@misc/requests/GETAmount.py@latest&#45;&gt;NumericAttribute</title>
<path fill="none" stroke="black" d="M2069.06,-1401.77C2080.78,-1407.23 2091.87,-1413.9 2102.02,-1422 2195.15,-1496.33 2208.9,-1653.51 2210.5,-1717.74"/>
<polygon fill="black" stroke="black" points="2207,-1717.98 2210.67,-1727.93 2214,-1717.87 2207,-1717.98"/>
</g>
<!-- github.com/supermuesli/csdl@misc/requests/SELECTAmount.py@latest -->
<g id="node57" class="node"><title>github.com/supermuesli/csdl@misc/requests/SELECTAmount.py@latest</title>
<ellipse fill="none" stroke="black" cx="1830.35" cy="-1341" rx="271.852" ry="18"/>
<text text-anchor="middle" x="1830.35" y="-1337.3" font-family="Times,serif" font-size="14.00">github.com/supermuesli/csdl@misc/requests/SELECTAmount.py@latest</text>
</g>
<!-- github.com/supermuesli/csdl@misc/requests/SELECTAmount.py@latest&#45;&gt;NumericAttribute -->
<g id="edge56" class="edge"><title>github.com/supermuesli/csdl@misc/requests/SELECTAmount.py@latest&#45;&gt;NumericAttribute</title>
<path fill="none" stroke="black" d="M2073.27,-1349.12C2083.48,-1354.35 2093.14,-1360.59 2102.02,-1368 2156.84,-1413.75 2194.47,-1637.07 2206.41,-1717.26"/>
<polygon fill="black" stroke="black" points="2203.01,-1718.21 2207.92,-1727.6 2209.94,-1717.19 2203.01,-1718.21"/>
</g>
<!-- github.com/supermuesli/csdl@misc/requests/POSTAmount.py@latest -->
<g id="node58" class="node"><title>github.com/supermuesli/csdl@misc/requests/POSTAmount.py@latest</title>
<ellipse fill="none" stroke="black" cx="1830.35" cy="-1287" rx="260.754" ry="18"/>
<text text-anchor="middle" x="1830.35" y="-1283.3" font-family="Times,serif" font-size="14.00">github.com/supermuesli/csdl@misc/requests/POSTAmount.py@latest</text>
</g>
<!-- github.com/supermuesli/csdl@misc/requests/POSTAmount.py@latest&#45;&gt;NumericAttribute -->
<g id="edge57" class="edge"><title>github.com/supermuesli/csdl@misc/requests/POSTAmount.py@latest&#45;&gt;NumericAttribute</title>
<path fill="none" stroke="black" d="M2072.02,-1293.95C2082.73,-1299.43 2092.82,-1306.05 2102.02,-1314 2164.32,-1367.78 2198,-1630.82 2207.57,-1717.93"/>
<polygon fill="black" stroke="black" points="2204.1,-1718.31 2208.65,-1727.88 2211.06,-1717.56 2204.1,-1718.31"/>
</g>
<!-- github.com/supermuesli/csdl@aws/ec2/EC2.py@latest -->
<g id="node59" class="node"><title>github.com/supermuesli/csdl@aws/ec2/EC2.py@latest</title>
<ellipse fill="none" stroke="black" cx="206.032" cy="-18" rx="206.063" ry="18"/>
<text text-anchor="middle" x="206.032" y="-14.3" font-family="Times,serif" font-size="14.00">github.com/supermuesli/csdl@aws/ec2/EC2.py@latest</text>
</g>
<!-- github.com/supermuesli/csdl@aws/ec2/EC2.py@latest&#45;&gt;VMAsAService -->
<g id="edge58" class="edge"><title>github.com/supermuesli/csdl@aws/ec2/EC2.py@latest&#45;&gt;VMAsAService</title>
<path fill="none" stroke="black" d="M412.375,-18C492.102,-18 578.494,-18 638.572,-18"/>
<polygon fill="black" stroke="black" points="638.728,-21.5001 648.728,-18 638.728,-14.5001 638.728,-21.5001"/>
</g>
<!-- github.com/supermuesli/csdl@aws/ec2/MachineType.py@latest -->
<g id="node60" class="node"><title>github.com/supermuesli/csdl@aws/ec2/MachineType.py@latest</title>
<ellipse fill="none" stroke="black" cx="1830.35" cy="-963" rx="239.358" ry="18"/>
<text text-anchor="middle" x="1830.35" y="-959.3" font-family="Times,serif" font-size="14.00">github.com/supermuesli/csdl@aws/ec2/MachineType.py@latest</text>
</g>
<!-- github.com/supermuesli/csdl@aws/ec2/MachineType.py@latest&#45;&gt;ChoiceAttribute -->
<g id="edge59" class="edge"><title>github.com/supermuesli/csdl@aws/ec2/MachineType.py@latest&#45;&gt;ChoiceAttribute</title>
<path fill="none" stroke="black" d="M2024.48,-973.597C2050.82,-977.551 2077.29,-982.869 2102.02,-990 2127.72,-997.41 2154.65,-1010.79 2175.25,-1022.37"/>
<polygon fill="black" stroke="black" points="2173.54,-1025.42 2183.95,-1027.37 2177.02,-1019.35 2173.54,-1025.42"/>
</g>
<!-- github.com/supermuesli/csdl@aws/ec2/A1Large.py@latest -->
<g id="node61" class="node"><title>github.com/supermuesli/csdl@aws/ec2/A1Large.py@latest</title>
<ellipse fill="none" stroke="black" cx="1830.35" cy="-261" rx="221.761" ry="18"/>
<text text-anchor="middle" x="1830.35" y="-257.3" font-family="Times,serif" font-size="14.00">github.com/supermuesli/csdl@aws/ec2/A1Large.py@latest</text>
</g>
<!-- github.com/supermuesli/csdl@aws/ec2/A1Large.py@latest&#45;&gt;OptionAttribute -->
<g id="edge60" class="edge"><title>github.com/supermuesli/csdl@aws/ec2/A1Large.py@latest&#45;&gt;OptionAttribute</title>
<path fill="none" stroke="black" d="M1916.06,-244.385C1976.06,-237.91 2054.1,-241.087 2102.02,-288 2197.04,-381.019 2055.73,-480.558 2138.02,-585 2141.31,-589.176 2145.32,-592.706 2149.74,-595.69"/>
<polygon fill="black" stroke="black" points="2148.26,-598.873 2158.68,-600.782 2151.72,-592.791 2148.26,-598.873"/>
</g>
<!-- github.com/supermuesli/csdl@aws/EBS.py@latest -->
<g id="node62" class="node"><title>github.com/supermuesli/csdl@aws/EBS.py@latest</title>
<ellipse fill="none" stroke="black" cx="716.49" cy="-126" rx="191.966" ry="18"/>
<text text-anchor="middle" x="716.49" y="-122.3" font-family="Times,serif" font-size="14.00">github.com/supermuesli/csdl@aws/EBS.py@latest</text>
</g>
<!-- github.com/supermuesli/csdl@aws/EBS.py@latest&#45;&gt;StorageAsAService -->
<g id="edge61" class="edge"><title>github.com/supermuesli/csdl@aws/EBS.py@latest&#45;&gt;StorageAsAService</title>
<path fill="none" stroke="black" d="M908.293,-126C1000.96,-126 1107.89,-126 1181.48,-126"/>
<polygon fill="black" stroke="black" points="1181.63,-129.5 1191.63,-126 1181.63,-122.5 1181.63,-129.5"/>
</g>
<!-- github.com/supermuesli/csdl@misc/StaticIp.py@latest -->
<g id="node63" class="node"><title>github.com/supermuesli/csdl@misc/StaticIp.py@latest</title>
<ellipse fill="none" stroke="black" cx="1830.35" cy="-1233" rx="206.063" ry="18"/>
<text text-anchor="middle" x="1830.35" y="-1229.3" font-family="Times,serif" font-size="14.00">github.com/supermuesli/csdl@misc/StaticIp.py@latest</text>
</g>
<!-- github.com/supermuesli/csdl@misc/StaticIp.py@latest&#45;&gt;NumericAttribute -->
<g id="edge62" class="edge"><title>github.com/supermuesli/csdl@misc/StaticIp.py@latest&#45;&gt;NumericAttribute</title>
<path fill="none" stroke="black" d="M1924.59,-1216.97C1982.46,-1212.57 2054.58,-1217.94 2102.02,-1260 2171.64,-1321.72 2200.85,-1623.18 2208.39,-1717.64"/>
<polygon fill="black" stroke="black" points="2204.92,-1718.16 2209.18,-1727.86 2211.9,-1717.62 2204.92,-1718.16"/>
</g>
<!-- github.com/supermuesli/csdl@aws/ec2/ElasticIpAmount.py@latest -->
<g id="node64" class="node"><title>github.com/supermuesli/csdl@aws/ec2/ElasticIpAmount.py@latest</title>
<ellipse fill="none" stroke="black" cx="1271.79" cy="-1233" rx="250.756" ry="18"/>
<text text-anchor="middle" x="1271.79" y="-1229.3" font-family="Times,serif" font-size="14.00">github.com/supermuesli/csdl@aws/ec2/ElasticIpAmount.py@latest</text>
</g>
<!-- github.com/supermuesli/csdl@aws/ec2/ElasticIpAmount.py@latest&#45;&gt;github.com/supermuesli/csdl@misc/StaticIp.py@latest -->
<g id="edge63" class="edge"><title>github.com/supermuesli/csdl@aws/ec2/ElasticIpAmount.py@latest&#45;&gt;github.com/supermuesli/csdl@misc/StaticIp.py@latest</title>
<path fill="none" stroke="black" d="M1522.99,-1233C1553.34,-1233 1584.14,-1233 1613.93,-1233"/>
<polygon fill="black" stroke="black" points="1613.99,-1236.5 1623.99,-1233 1613.99,-1229.5 1613.99,-1236.5"/>
</g>
<!-- github.com/supermuesli/csdl@aws/s3/S3.py@latest -->
<g id="node65" class="node"><title>github.com/supermuesli/csdl@aws/s3/S3.py@latest</title>
<ellipse fill="none" stroke="black" cx="716.49" cy="-72" rx="194.965" ry="18"/>
<text text-anchor="middle" x="716.49" y="-68.3" font-family="Times,serif" font-size="14.00">github.com/supermuesli/csdl@aws/s3/S3.py@latest</text>
</g>
<!-- github.com/supermuesli/csdl@aws/s3/S3.py@latest&#45;&gt;StorageAsAService -->
<g id="edge64" class="edge"><title>github.com/supermuesli/csdl@aws/s3/S3.py@latest&#45;&gt;StorageAsAService</title>
<path fill="none" stroke="black" d="M851.076,-85.0375C956.081,-95.2855 1099.02,-109.236 1188.06,-117.925"/>
<polygon fill="black" stroke="black" points="1187.81,-121.418 1198.11,-118.906 1188.49,-114.451 1187.81,-121.418"/>
</g>
</g>
</svg>
