<?xml version="1.0" encoding="UTF-8" standalone="no"?>
<!DOCTYPE svg PUBLIC "-//W3C//DTD SVG 1.1//EN"
 "http://www.w3.org/Graphics/SVG/1.1/DTD/svg11.dtd">
<!-- Generated by graphviz version 2.38.0 (20140413.2041)
 -->
<!-- Title: %3 Pages: 1 -->
<svg width="2497pt" height="1961pt"
 viewBox="0.00 0.00 2497.50 1961.00" xmlns="http://www.w3.org/2000/svg" xmlns:xlink="http://www.w3.org/1999/xlink">
<g id="graph0" class="graph" transform="scale(1 1) rotate(0) translate(4 1957)">
<title>%3</title>
<polygon fill="white" stroke="none" points="-4,4 -4,-1957 2493.5,-1957 2493.5,4 -4,4"/>
<!-- VMAsAService -->
<g id="node1" class="node"><title>VMAsAService</title>
<ellipse fill="none" stroke="black" cx="716.49" cy="-18" rx="67.6881" ry="18"/>
<text text-anchor="middle" x="716.49" y="-14.3" font-family="Times,serif" font-size="14.00">VMAsAService</text>
</g>
<!-- ServerAsAService -->
<g id="node2" class="node"><title>ServerAsAService</title>
<ellipse fill="none" stroke="black" cx="1271.79" cy="-45" rx="76.0865" ry="18"/>
<text text-anchor="middle" x="1271.79" y="-41.3" font-family="Times,serif" font-size="14.00">ServerAsAService</text>
</g>
<!-- VMAsAService&#45;&gt;ServerAsAService -->
<g id="edge1" class="edge"><title>VMAsAService&#45;&gt;ServerAsAService</title>
<path fill="none" stroke="black" d="M783.134,-21.2033C883.761,-26.1137 1076.09,-35.4988 1186.76,-40.8994"/>
<polygon fill="black" stroke="black" points="1186.72,-44.4017 1196.88,-41.3933 1187.07,-37.41 1186.72,-44.4017"/>
</g>
<!-- IaaS -->
<g id="node3" class="node"><title>IaaS</title>
<ellipse fill="none" stroke="black" cx="1821.9" cy="-126" rx="27" ry="18"/>
<text text-anchor="middle" x="1821.9" y="-122.3" font-family="Times,serif" font-size="14.00">IaaS</text>
</g>
<!-- ServerAsAService&#45;&gt;IaaS -->
<g id="edge2" class="edge"><title>ServerAsAService&#45;&gt;IaaS</title>
<path fill="none" stroke="black" d="M1336.74,-54.4503C1452.73,-71.5912 1694.2,-107.277 1785.18,-120.722"/>
<polygon fill="black" stroke="black" points="1784.86,-124.213 1795.27,-122.212 1785.89,-117.288 1784.86,-124.213"/>
</g>
<!-- CCS -->
<g id="node5" class="node"><title>CCS</title>
<ellipse fill="none" stroke="black" cx="2194.57" cy="-207" rx="27.0966" ry="18"/>
<text text-anchor="middle" x="2194.57" y="-203.3" font-family="Times,serif" font-size="14.00">CCS</text>
</g>
<!-- IaaS&#45;&gt;CCS -->
<g id="edge4" class="edge"><title>IaaS&#45;&gt;CCS</title>
<path fill="none" stroke="black" d="M1848.29,-130.869C1895.19,-139.946 1998.56,-160.318 2085.12,-180 2109.84,-185.619 2137.56,-192.533 2158.8,-197.958"/>
<polygon fill="black" stroke="black" points="2158.1,-201.393 2168.66,-200.489 2159.84,-194.612 2158.1,-201.393"/>
</g>
<!-- SaaS -->
<g id="node4" class="node"><title>SaaS</title>
<ellipse fill="none" stroke="black" cx="1821.9" cy="-207" rx="28.6953" ry="18"/>
<text text-anchor="middle" x="1821.9" y="-203.3" font-family="Times,serif" font-size="14.00">SaaS</text>
</g>
<!-- SaaS&#45;&gt;CCS -->
<g id="edge3" class="edge"><title>SaaS&#45;&gt;CCS</title>
<path fill="none" stroke="black" d="M1850.76,-207C1916.71,-207 2082.42,-207 2156.63,-207"/>
<polygon fill="black" stroke="black" points="2156.89,-210.5 2166.89,-207 2156.89,-203.5 2156.89,-210.5"/>
</g>
<!-- Attribute -->
<g id="node8" class="node"><title>Attribute</title>
<ellipse fill="none" stroke="black" cx="2346.26" cy="-612" rx="42.4939" ry="18"/>
<text text-anchor="middle" x="2346.26" y="-608.3" font-family="Times,serif" font-size="14.00">Attribute</text>
</g>
<!-- CCS&#45;&gt;Attribute -->
<g id="edge10" class="edge"><title>CCS&#45;&gt;Attribute</title>
<path fill="none" stroke="black" d="M2202,-224.402C2225.46,-287.868 2306.53,-507.215 2335.15,-584.66"/>
<polygon fill="black" stroke="black" points="2331.93,-586.04 2338.68,-594.206 2338.5,-583.613 2331.93,-586.04"/>
</g>
<!-- StorageAsAService -->
<g id="node6" class="node"><title>StorageAsAService</title>
<ellipse fill="none" stroke="black" cx="1271.79" cy="-126" rx="79.8859" ry="18"/>
<text text-anchor="middle" x="1271.79" y="-122.3" font-family="Times,serif" font-size="14.00">StorageAsAService</text>
</g>
<!-- StorageAsAService&#45;&gt;IaaS -->
<g id="edge5" class="edge"><title>StorageAsAService&#45;&gt;IaaS</title>
<path fill="none" stroke="black" d="M1351.91,-126C1472.29,-126 1696.72,-126 1784.43,-126"/>
<polygon fill="black" stroke="black" points="1784.68,-129.5 1794.68,-126 1784.68,-122.5 1784.68,-129.5"/>
</g>
<!-- NumericAttribute -->
<g id="node7" class="node"><title>NumericAttribute</title>
<ellipse fill="none" stroke="black" cx="2194.57" cy="-1530" rx="73.387" ry="18"/>
<text text-anchor="middle" x="2194.57" y="-1526.3" font-family="Times,serif" font-size="14.00">NumericAttribute</text>
</g>
<!-- NumericAttribute&#45;&gt;Attribute -->
<g id="edge6" class="edge"><title>NumericAttribute&#45;&gt;Attribute</title>
<path fill="none" stroke="black" d="M2198.56,-1511.66C2217.25,-1397.02 2318,-779.162 2340.71,-639.896"/>
<polygon fill="black" stroke="black" points="2344.17,-640.436 2342.32,-630.003 2337.26,-639.31 2344.17,-640.436"/>
</g>
<!-- object -->
<g id="node12" class="node"><title>object</title>
<ellipse fill="none" stroke="black" cx="2457" cy="-612" rx="32.4942" ry="18"/>
<text text-anchor="middle" x="2457" y="-608.3" font-family="Times,serif" font-size="14.00">object</text>
</g>
<!-- Attribute&#45;&gt;object -->
<g id="edge11" class="edge"><title>Attribute&#45;&gt;object</title>
<path fill="none" stroke="black" d="M2388.68,-612C2396.95,-612 2405.65,-612 2413.94,-612"/>
<polygon fill="black" stroke="black" points="2414.17,-615.5 2424.17,-612 2414.17,-608.5 2414.17,-615.5"/>
</g>
<!-- ChoiceAttribute -->
<g id="node9" class="node"><title>ChoiceAttribute</title>
<ellipse fill="none" stroke="black" cx="2194.57" cy="-990" rx="67.6881" ry="18"/>
<text text-anchor="middle" x="2194.57" y="-986.3" font-family="Times,serif" font-size="14.00">ChoiceAttribute</text>
</g>
<!-- ChoiceAttribute&#45;&gt;Attribute -->
<g id="edge7" class="edge"><title>ChoiceAttribute&#45;&gt;Attribute</title>
<path fill="none" stroke="black" d="M2202.69,-972.023C2226.77,-911.207 2305.3,-712.896 2334.34,-639.576"/>
<polygon fill="black" stroke="black" points="2337.67,-640.674 2338.1,-630.087 2331.16,-638.096 2337.67,-640.674"/>
</g>
<!-- BoolAttribute -->
<g id="node10" class="node"><title>BoolAttribute</title>
<ellipse fill="none" stroke="black" cx="2194.57" cy="-639" rx="59.5901" ry="18"/>
<text text-anchor="middle" x="2194.57" y="-635.3" font-family="Times,serif" font-size="14.00">BoolAttribute</text>
</g>
<!-- BoolAttribute&#45;&gt;Attribute -->
<g id="edge8" class="edge"><title>BoolAttribute&#45;&gt;Attribute</title>
<path fill="none" stroke="black" d="M2246.25,-629.859C2262.53,-626.922 2280.52,-623.678 2296.65,-620.768"/>
<polygon fill="black" stroke="black" points="2297.72,-624.131 2306.94,-618.912 2296.48,-617.242 2297.72,-624.131"/>
</g>
<!-- OptionAttribute -->
<g id="node11" class="node"><title>OptionAttribute</title>
<ellipse fill="none" stroke="black" cx="2194.57" cy="-585" rx="66.8882" ry="18"/>
<text text-anchor="middle" x="2194.57" y="-581.3" font-family="Times,serif" font-size="14.00">OptionAttribute</text>
</g>
<!-- OptionAttribute&#45;&gt;Attribute -->
<g id="edge9" class="edge"><title>OptionAttribute&#45;&gt;Attribute</title>
<path fill="none" stroke="black" d="M2250.88,-594.977C2266.04,-597.711 2282.35,-600.652 2297.07,-603.308"/>
<polygon fill="black" stroke="black" points="2296.51,-606.764 2306.98,-605.095 2297.76,-599.875 2296.51,-606.764"/>
</g>
<!-- Region -->
<g id="node13" class="node"><title>Region</title>
<ellipse fill="none" stroke="black" cx="1821.9" cy="-1125" rx="36.2938" ry="18"/>
<text text-anchor="middle" x="1821.9" y="-1121.3" font-family="Times,serif" font-size="14.00">Region</text>
</g>
<!-- Region&#45;&gt;ChoiceAttribute -->
<g id="edge12" class="edge"><title>Region&#45;&gt;ChoiceAttribute</title>
<path fill="none" stroke="black" d="M1857.96,-1128.55C1910.19,-1132.3 2010.28,-1133.51 2085.12,-1098 2123.73,-1079.68 2156.63,-1041.76 2175.75,-1016.09"/>
<polygon fill="black" stroke="black" points="2178.66,-1018.05 2181.7,-1007.9 2172.99,-1013.94 2178.66,-1018.05"/>
</g>
<!-- NorthAmerica -->
<g id="node14" class="node"><title>NorthAmerica</title>
<ellipse fill="none" stroke="black" cx="1821.9" cy="-855" rx="61.99" ry="18"/>
<text text-anchor="middle" x="1821.9" y="-851.3" font-family="Times,serif" font-size="14.00">NorthAmerica</text>
</g>
<!-- NorthAmerica&#45;&gt;OptionAttribute -->
<g id="edge13" class="edge"><title>NorthAmerica&#45;&gt;OptionAttribute</title>
<path fill="none" stroke="black" d="M1871.56,-865.768C1930.24,-875.628 2028.08,-881.581 2085.12,-828 2156.06,-761.367 2059.2,-687.086 2121.12,-612 2124.51,-607.898 2128.58,-604.42 2133.04,-601.469"/>
<polygon fill="black" stroke="black" points="2135.03,-604.368 2142.03,-596.422 2131.6,-598.264 2135.03,-604.368"/>
</g>
<!-- Australia -->
<g id="node15" class="node"><title>Australia</title>
<ellipse fill="none" stroke="black" cx="1821.9" cy="-801" rx="42.7926" ry="18"/>
<text text-anchor="middle" x="1821.9" y="-797.3" font-family="Times,serif" font-size="14.00">Australia</text>
</g>
<!-- Australia&#45;&gt;OptionAttribute -->
<g id="edge14" class="edge"><title>Australia&#45;&gt;OptionAttribute</title>
<path fill="none" stroke="black" d="M1860.37,-809.419C1916.62,-819.665 2022.91,-829.383 2085.12,-774 2140.22,-724.959 2072.69,-667.627 2121.12,-612 2124.76,-607.824 2129.1,-604.293 2133.84,-601.307"/>
<polygon fill="black" stroke="black" points="2135.58,-604.345 2142.7,-596.501 2132.24,-598.191 2135.58,-604.345"/>
</g>
<!-- Africa -->
<g id="node16" class="node"><title>Africa</title>
<ellipse fill="none" stroke="black" cx="1821.9" cy="-747" rx="33.2948" ry="18"/>
<text text-anchor="middle" x="1821.9" y="-743.3" font-family="Times,serif" font-size="14.00">Africa</text>
</g>
<!-- Africa&#45;&gt;OptionAttribute -->
<g id="edge15" class="edge"><title>Africa&#45;&gt;OptionAttribute</title>
<path fill="none" stroke="black" d="M1853.09,-753.463C1906.28,-762.98 2017.46,-774.251 2085.12,-720 2124.6,-688.35 2085.98,-648.398 2121.12,-612 2125.03,-607.957 2129.59,-604.514 2134.5,-601.583"/>
<polygon fill="black" stroke="black" points="2136.37,-604.557 2143.63,-596.842 2133.14,-598.345 2136.37,-604.557"/>
</g>
<!-- EastAsia -->
<g id="node17" class="node"><title>EastAsia</title>
<ellipse fill="none" stroke="black" cx="1821.9" cy="-693" rx="42.4939" ry="18"/>
<text text-anchor="middle" x="1821.9" y="-689.3" font-family="Times,serif" font-size="14.00">EastAsia</text>
</g>
<!-- EastAsia&#45;&gt;OptionAttribute -->
<g id="edge16" class="edge"><title>EastAsia&#45;&gt;OptionAttribute</title>
<path fill="none" stroke="black" d="M1862.12,-698.775C1916.4,-704.71 2015.56,-707.954 2085.12,-666 2109.82,-651.103 2098.51,-629.907 2121.12,-612 2126.03,-608.118 2131.55,-604.754 2137.29,-601.849"/>
<polygon fill="black" stroke="black" points="2138.82,-604.999 2146.46,-597.653 2135.91,-598.634 2138.82,-604.999"/>
</g>
<!-- SouthAmerica -->
<g id="node18" class="node"><title>SouthAmerica</title>
<ellipse fill="none" stroke="black" cx="1821.9" cy="-639" rx="61.99" ry="18"/>
<text text-anchor="middle" x="1821.9" y="-635.3" font-family="Times,serif" font-size="14.00">SouthAmerica</text>
</g>
<!-- SouthAmerica&#45;&gt;OptionAttribute -->
<g id="edge17" class="edge"><title>SouthAmerica&#45;&gt;OptionAttribute</title>
<path fill="none" stroke="black" d="M1882.33,-635.288C1935.7,-631.384 2016.04,-624.095 2085.12,-612 2102.46,-608.965 2121.12,-604.692 2138,-600.438"/>
<polygon fill="black" stroke="black" points="2138.89,-603.823 2147.7,-597.946 2137.15,-597.043 2138.89,-603.823"/>
</g>
<!-- Europe -->
<g id="node19" class="node"><title>Europe</title>
<ellipse fill="none" stroke="black" cx="1821.9" cy="-585" rx="36.2938" ry="18"/>
<text text-anchor="middle" x="1821.9" y="-581.3" font-family="Times,serif" font-size="14.00">Europe</text>
</g>
<!-- Europe&#45;&gt;OptionAttribute -->
<g id="edge18" class="edge"><title>Europe&#45;&gt;OptionAttribute</title>
<path fill="none" stroke="black" d="M1858.44,-585C1917.66,-585 2037.83,-585 2117.01,-585"/>
<polygon fill="black" stroke="black" points="2117.41,-588.5 2127.41,-585 2117.41,-581.5 2117.41,-588.5"/>
</g>
<!-- Antarctica -->
<g id="node20" class="node"><title>Antarctica</title>
<ellipse fill="none" stroke="black" cx="1821.9" cy="-531" rx="47.3916" ry="18"/>
<text text-anchor="middle" x="1821.9" y="-527.3" font-family="Times,serif" font-size="14.00">Antarctica</text>
</g>
<!-- Antarctica&#45;&gt;OptionAttribute -->
<g id="edge19" class="edge"><title>Antarctica&#45;&gt;OptionAttribute</title>
<path fill="none" stroke="black" d="M1869.12,-533.775C1921.72,-537.391 2010.07,-544.86 2085.12,-558 2102.46,-561.035 2121.12,-565.308 2138,-569.562"/>
<polygon fill="black" stroke="black" points="2137.15,-572.957 2147.7,-572.054 2138.89,-566.177 2137.15,-572.957"/>
</g>
<!-- Storage -->
<g id="node21" class="node"><title>Storage</title>
<ellipse fill="none" stroke="black" cx="1821.9" cy="-1935" rx="37.8943" ry="18"/>
<text text-anchor="middle" x="1821.9" y="-1931.3" font-family="Times,serif" font-size="14.00">Storage</text>
</g>
<!-- Storage&#45;&gt;NumericAttribute -->
<g id="edge20" class="edge"><title>Storage&#45;&gt;NumericAttribute</title>
<path fill="none" stroke="black" d="M1856.35,-1942.3C1911,-1952.14 2019.85,-1962.64 2085.12,-1908 2139.87,-1862.17 2177.55,-1638.89 2189.5,-1558.73"/>
<polygon fill="black" stroke="black" points="2193.03,-1558.8 2191.02,-1548.4 2186.1,-1557.78 2193.03,-1558.8"/>
</g>
<!-- StorageWriteSpeed -->
<g id="node22" class="node"><title>StorageWriteSpeed</title>
<ellipse fill="none" stroke="black" cx="1821.9" cy="-1881" rx="79.0865" ry="18"/>
<text text-anchor="middle" x="1821.9" y="-1877.3" font-family="Times,serif" font-size="14.00">StorageWriteSpeed</text>
</g>
<!-- StorageWriteSpeed&#45;&gt;NumericAttribute -->
<g id="edge21" class="edge"><title>StorageWriteSpeed&#45;&gt;NumericAttribute</title>
<path fill="none" stroke="black" d="M1884.5,-1892.09C1942.57,-1898.89 2028.86,-1899.06 2085.12,-1854 2178.13,-1779.52 2191.95,-1622.43 2193.59,-1558.24"/>
<polygon fill="black" stroke="black" points="2197.09,-1558.12 2193.76,-1548.06 2190.09,-1558 2197.09,-1558.12"/>
</g>
<!-- StorageReadSpeed -->
<g id="node23" class="node"><title>StorageReadSpeed</title>
<ellipse fill="none" stroke="black" cx="1821.9" cy="-1827" rx="77.1866" ry="18"/>
<text text-anchor="middle" x="1821.9" y="-1823.3" font-family="Times,serif" font-size="14.00">StorageReadSpeed</text>
</g>
<!-- StorageReadSpeed&#45;&gt;NumericAttribute -->
<g id="edge22" class="edge"><title>StorageReadSpeed&#45;&gt;NumericAttribute</title>
<path fill="none" stroke="black" d="M1885.02,-1837.47C1942.66,-1843.6 2027.92,-1843.1 2085.12,-1800 2163.96,-1740.6 2185.63,-1614.57 2191.47,-1558.24"/>
<polygon fill="black" stroke="black" points="2194.95,-1558.53 2192.41,-1548.25 2187.99,-1557.87 2194.95,-1558.53"/>
</g>
<!-- OperatingSystem -->
<g id="node24" class="node"><title>OperatingSystem</title>
<ellipse fill="none" stroke="black" cx="1821.9" cy="-1071" rx="72.2875" ry="18"/>
<text text-anchor="middle" x="1821.9" y="-1067.3" font-family="Times,serif" font-size="14.00">OperatingSystem</text>
</g>
<!-- OperatingSystem&#45;&gt;ChoiceAttribute -->
<g id="edge23" class="edge"><title>OperatingSystem&#45;&gt;ChoiceAttribute</title>
<path fill="none" stroke="black" d="M1894.05,-1070.53C1947.55,-1068.54 2022.16,-1062.26 2085.12,-1044 2110.81,-1036.55 2137.74,-1023.17 2158.34,-1011.6"/>
<polygon fill="black" stroke="black" points="2160.11,-1014.62 2167.04,-1006.6 2156.63,-1008.55 2160.11,-1014.62"/>
</g>
<!-- CpuCores -->
<g id="node25" class="node"><title>CpuCores</title>
<ellipse fill="none" stroke="black" cx="1821.9" cy="-1773" rx="46.2923" ry="18"/>
<text text-anchor="middle" x="1821.9" y="-1769.3" font-family="Times,serif" font-size="14.00">CpuCores</text>
</g>
<!-- CpuCores&#45;&gt;NumericAttribute -->
<g id="edge24" class="edge"><title>CpuCores&#45;&gt;NumericAttribute</title>
<path fill="none" stroke="black" d="M1864.29,-1780.14C1919.75,-1787.36 2018.83,-1791.75 2085.12,-1746 2150.14,-1701.13 2178.18,-1605.44 2188.46,-1557.94"/>
<polygon fill="black" stroke="black" points="2191.92,-1558.53 2190.5,-1548.03 2185.06,-1557.12 2191.92,-1558.53"/>
</g>
<!-- CpuClockSpeed -->
<g id="node26" class="node"><title>CpuClockSpeed</title>
<ellipse fill="none" stroke="black" cx="1821.9" cy="-1719" rx="67.6881" ry="18"/>
<text text-anchor="middle" x="1821.9" y="-1715.3" font-family="Times,serif" font-size="14.00">CpuClockSpeed</text>
</g>
<!-- CpuClockSpeed&#45;&gt;NumericAttribute -->
<g id="edge25" class="edge"><title>CpuClockSpeed&#45;&gt;NumericAttribute</title>
<path fill="none" stroke="black" d="M1883.13,-1726.67C1939.42,-1730.8 2023.76,-1728.93 2085.12,-1692 2136.55,-1661.05 2168.76,-1595.25 2183.71,-1557.73"/>
<polygon fill="black" stroke="black" points="2187.15,-1558.54 2187.47,-1547.95 2180.61,-1556.03 2187.15,-1558.54"/>
</g>
<!-- Ram -->
<g id="node27" class="node"><title>Ram</title>
<ellipse fill="none" stroke="black" cx="1821.9" cy="-1665" rx="27.8951" ry="18"/>
<text text-anchor="middle" x="1821.9" y="-1661.3" font-family="Times,serif" font-size="14.00">Ram</text>
</g>
<!-- Ram&#45;&gt;NumericAttribute -->
<g id="edge26" class="edge"><title>Ram&#45;&gt;NumericAttribute</title>
<path fill="none" stroke="black" d="M1849.75,-1667.91C1899.05,-1672.06 2006.15,-1675.47 2085.12,-1638 2123.73,-1619.68 2156.63,-1581.76 2175.75,-1556.09"/>
<polygon fill="black" stroke="black" points="2178.66,-1558.05 2181.7,-1547.9 2172.99,-1553.94 2178.66,-1558.05"/>
</g>
<!-- RamClockSpeed -->
<g id="node28" class="node"><title>RamClockSpeed</title>
<ellipse fill="none" stroke="black" cx="1821.9" cy="-1611" rx="70.3881" ry="18"/>
<text text-anchor="middle" x="1821.9" y="-1607.3" font-family="Times,serif" font-size="14.00">RamClockSpeed</text>
</g>
<!-- RamClockSpeed&#45;&gt;NumericAttribute -->
<g id="edge27" class="edge"><title>RamClockSpeed&#45;&gt;NumericAttribute</title>
<path fill="none" stroke="black" d="M1892.1,-1610.6C1945.73,-1608.69 2021.39,-1602.49 2085.12,-1584 2110.64,-1576.6 2137.37,-1563.36 2157.92,-1551.84"/>
<polygon fill="black" stroke="black" points="2159.67,-1554.87 2166.6,-1546.86 2156.19,-1548.79 2159.67,-1554.87"/>
</g>
<!-- RamWriteSpeed -->
<g id="node29" class="node"><title>RamWriteSpeed</title>
<ellipse fill="none" stroke="black" cx="1821.9" cy="-1557" rx="69.5877" ry="18"/>
<text text-anchor="middle" x="1821.9" y="-1553.3" font-family="Times,serif" font-size="14.00">RamWriteSpeed</text>
</g>
<!-- RamWriteSpeed&#45;&gt;NumericAttribute -->
<g id="edge28" class="edge"><title>RamWriteSpeed&#45;&gt;NumericAttribute</title>
<path fill="none" stroke="black" d="M1889.17,-1552.17C1952.05,-1547.59 2046.66,-1540.7 2113.69,-1535.82"/>
<polygon fill="black" stroke="black" points="2114.06,-1539.3 2123.78,-1535.08 2113.55,-1532.32 2114.06,-1539.3"/>
</g>
<!-- RamReadSpeed -->
<g id="node30" class="node"><title>RamReadSpeed</title>
<ellipse fill="none" stroke="black" cx="1821.9" cy="-1503" rx="67.6881" ry="18"/>
<text text-anchor="middle" x="1821.9" y="-1499.3" font-family="Times,serif" font-size="14.00">RamReadSpeed</text>
</g>
<!-- RamReadSpeed&#45;&gt;NumericAttribute -->
<g id="edge29" class="edge"><title>RamReadSpeed&#45;&gt;NumericAttribute</title>
<path fill="none" stroke="black" d="M1887.46,-1507.7C1950.4,-1512.29 2046.25,-1519.27 2113.89,-1524.2"/>
<polygon fill="black" stroke="black" points="2113.85,-1527.7 2124.08,-1524.94 2114.36,-1520.72 2113.85,-1527.7"/>
</g>
<!-- NetworkCapacity -->
<g id="node31" class="node"><title>NetworkCapacity</title>
<ellipse fill="none" stroke="black" cx="1821.9" cy="-1449" rx="72.5877" ry="18"/>
<text text-anchor="middle" x="1821.9" y="-1445.3" font-family="Times,serif" font-size="14.00">NetworkCapacity</text>
</g>
<!-- NetworkCapacity&#45;&gt;NumericAttribute -->
<g id="edge30" class="edge"><title>NetworkCapacity&#45;&gt;NumericAttribute</title>
<path fill="none" stroke="black" d="M1894.89,-1449.5C1948.33,-1451.52 2022.49,-1457.83 2085.12,-1476 2110.64,-1483.4 2137.37,-1496.64 2157.92,-1508.16"/>
<polygon fill="black" stroke="black" points="2156.19,-1511.21 2166.6,-1513.14 2159.67,-1505.13 2156.19,-1511.21"/>
</g>
<!-- NetworkUploadSpeed -->
<g id="node32" class="node"><title>NetworkUploadSpeed</title>
<ellipse fill="none" stroke="black" cx="1821.9" cy="-1395" rx="89.0842" ry="18"/>
<text text-anchor="middle" x="1821.9" y="-1391.3" font-family="Times,serif" font-size="14.00">NetworkUploadSpeed</text>
</g>
<!-- NetworkUploadSpeed&#45;&gt;NumericAttribute -->
<g id="edge31" class="edge"><title>NetworkUploadSpeed&#45;&gt;NumericAttribute</title>
<path fill="none" stroke="black" d="M1907.05,-1389.64C1960.47,-1389.55 2029.72,-1395.71 2085.12,-1422 2123.73,-1440.32 2156.63,-1478.24 2175.75,-1503.91"/>
<polygon fill="black" stroke="black" points="2172.99,-1506.06 2181.7,-1512.1 2178.66,-1501.95 2172.99,-1506.06"/>
</g>
<!-- NetworkDownloadSpeed -->
<g id="node33" class="node"><title>NetworkDownloadSpeed</title>
<ellipse fill="none" stroke="black" cx="1821.9" cy="-1341" rx="99.3824" ry="18"/>
<text text-anchor="middle" x="1821.9" y="-1337.3" font-family="Times,serif" font-size="14.00">NetworkDownloadSpeed</text>
</g>
<!-- NetworkDownloadSpeed&#45;&gt;NumericAttribute -->
<g id="edge32" class="edge"><title>NetworkDownloadSpeed&#45;&gt;NumericAttribute</title>
<path fill="none" stroke="black" d="M1908.39,-1332.02C1962.68,-1330.42 2032.38,-1336.26 2085.12,-1368 2136.55,-1398.95 2168.76,-1464.75 2183.71,-1502.27"/>
<polygon fill="black" stroke="black" points="2180.61,-1503.97 2187.47,-1512.05 2187.15,-1501.46 2180.61,-1503.97"/>
</g>
<!-- PricingModel -->
<g id="node34" class="node"><title>PricingModel</title>
<ellipse fill="none" stroke="black" cx="1821.9" cy="-1017" rx="59.5901" ry="18"/>
<text text-anchor="middle" x="1821.9" y="-1013.3" font-family="Times,serif" font-size="14.00">PricingModel</text>
</g>
<!-- PricingModel&#45;&gt;ChoiceAttribute -->
<g id="edge33" class="edge"><title>PricingModel&#45;&gt;ChoiceAttribute</title>
<path fill="none" stroke="black" d="M1880.41,-1012.81C1944.56,-1008.14 2048.55,-1000.56 2118.93,-995.436"/>
<polygon fill="black" stroke="black" points="2119.35,-998.916 2129.06,-994.699 2118.84,-991.934 2119.35,-998.916"/>
</g>
<!-- Static -->
<g id="node35" class="node"><title>Static</title>
<ellipse fill="none" stroke="black" cx="1821.9" cy="-477" rx="30.5947" ry="18"/>
<text text-anchor="middle" x="1821.9" y="-473.3" font-family="Times,serif" font-size="14.00">Static</text>
</g>
<!-- Static&#45;&gt;OptionAttribute -->
<g id="edge34" class="edge"><title>Static&#45;&gt;OptionAttribute</title>
<path fill="none" stroke="black" d="M1851.75,-472.452C1902.85,-465.936 2010.86,-459.21 2085.12,-504 2109.82,-518.897 2098.51,-540.093 2121.12,-558 2126.03,-561.882 2131.55,-565.246 2137.29,-568.151"/>
<polygon fill="black" stroke="black" points="2135.91,-571.366 2146.46,-572.347 2138.82,-565.001 2135.91,-571.366"/>
</g>
<!-- Dynamic -->
<g id="node36" class="node"><title>Dynamic</title>
<ellipse fill="none" stroke="black" cx="1821.9" cy="-423" rx="43.5923" ry="18"/>
<text text-anchor="middle" x="1821.9" y="-419.3" font-family="Times,serif" font-size="14.00">Dynamic</text>
</g>
<!-- Dynamic&#45;&gt;OptionAttribute -->
<g id="edge35" class="edge"><title>Dynamic&#45;&gt;OptionAttribute</title>
<path fill="none" stroke="black" d="M1861.52,-415.101C1917.32,-406.055 2020.85,-398.469 2085.12,-450 2124.6,-481.65 2085.98,-521.602 2121.12,-558 2125.03,-562.043 2129.59,-565.486 2134.5,-568.417"/>
<polygon fill="black" stroke="black" points="2133.14,-571.655 2143.63,-573.158 2136.37,-565.443 2133.14,-571.655"/>
</g>
<!-- PayAndGo -->
<g id="node37" class="node"><title>PayAndGo</title>
<ellipse fill="none" stroke="black" cx="1271.79" cy="-531" rx="50.0912" ry="18"/>
<text text-anchor="middle" x="1271.79" y="-527.3" font-family="Times,serif" font-size="14.00">PayAndGo</text>
</g>
<!-- PayAndGo&#45;&gt;Static -->
<g id="edge36" class="edge"><title>PayAndGo&#45;&gt;Static</title>
<path fill="none" stroke="black" d="M1320.48,-526.302C1427.15,-515.793 1683.39,-490.548 1781.64,-480.868"/>
<polygon fill="black" stroke="black" points="1782.13,-484.337 1791.73,-479.873 1781.44,-477.371 1782.13,-484.337"/>
</g>
<!-- PayPerResource -->
<g id="node38" class="node"><title>PayPerResource</title>
<ellipse fill="none" stroke="black" cx="1271.79" cy="-477" rx="68.4888" ry="18"/>
<text text-anchor="middle" x="1271.79" y="-473.3" font-family="Times,serif" font-size="14.00">PayPerResource</text>
</g>
<!-- PayPerResource&#45;&gt;Static -->
<g id="edge37" class="edge"><title>PayPerResource&#45;&gt;Static</title>
<path fill="none" stroke="black" d="M1340.28,-477C1455.86,-477 1688.21,-477 1781.15,-477"/>
<polygon fill="black" stroke="black" points="1781.26,-480.5 1791.26,-477 1781.26,-473.5 1781.26,-480.5"/>
</g>
<!-- Subscription -->
<g id="node39" class="node"><title>Subscription</title>
<ellipse fill="none" stroke="black" cx="1271.79" cy="-423" rx="55.4913" ry="18"/>
<text text-anchor="middle" x="1271.79" y="-419.3" font-family="Times,serif" font-size="14.00">Subscription</text>
</g>
<!-- Subscription&#45;&gt;Static -->
<g id="edge38" class="edge"><title>Subscription&#45;&gt;Static</title>
<path fill="none" stroke="black" d="M1324.85,-428.129C1434.04,-438.886 1684.89,-463.6 1781.74,-473.142"/>
<polygon fill="black" stroke="black" points="1781.41,-476.626 1791.7,-474.124 1782.09,-469.66 1781.41,-476.626"/>
</g>
<!-- Price -->
<g id="node40" class="node"><title>Price</title>
<ellipse fill="none" stroke="black" cx="2194.57" cy="-531" rx="28.6953" ry="18"/>
<text text-anchor="middle" x="2194.57" y="-527.3" font-family="Times,serif" font-size="14.00">Price</text>
</g>
<!-- Price&#45;&gt;Attribute -->
<g id="edge39" class="edge"><title>Price&#45;&gt;Attribute</title>
<path fill="none" stroke="black" d="M2220.72,-538.623C2234.97,-543.37 2252.92,-550.077 2268.01,-558 2285.17,-567.007 2302.98,-579.236 2317.17,-589.779"/>
<polygon fill="black" stroke="black" points="2315.42,-592.839 2325.5,-596.082 2319.64,-587.257 2315.42,-592.839"/>
</g>
<!-- DatabaseAsAService -->
<g id="node41" class="node"><title>DatabaseAsAService</title>
<ellipse fill="none" stroke="black" cx="1271.79" cy="-234" rx="85.2851" ry="18"/>
<text text-anchor="middle" x="1271.79" y="-230.3" font-family="Times,serif" font-size="14.00">DatabaseAsAService</text>
</g>
<!-- DatabaseAsAService&#45;&gt;SaaS -->
<g id="edge40" class="edge"><title>DatabaseAsAService&#45;&gt;SaaS</title>
<path fill="none" stroke="black" d="M1354.85,-229.958C1475.38,-224.021 1695.48,-213.178 1783.28,-208.853"/>
<polygon fill="black" stroke="black" points="1783.5,-212.347 1793.31,-208.359 1783.15,-205.355 1783.5,-212.347"/>
</g>
<!-- SQLDatabaseAsAService -->
<g id="node42" class="node"><title>SQLDatabaseAsAService</title>
<ellipse fill="none" stroke="black" cx="716.49" cy="-288" rx="102.082" ry="18"/>
<text text-anchor="middle" x="716.49" y="-284.3" font-family="Times,serif" font-size="14.00">SQLDatabaseAsAService</text>
</g>
<!-- SQLDatabaseAsAService&#45;&gt;DatabaseAsAService -->
<g id="edge41" class="edge"><title>SQLDatabaseAsAService&#45;&gt;DatabaseAsAService</title>
<path fill="none" stroke="black" d="M806.081,-279.354C909.933,-269.218 1080.92,-252.531 1183.99,-242.471"/>
<polygon fill="black" stroke="black" points="1184.45,-245.944 1194.06,-241.489 1183.77,-238.977 1184.45,-245.944"/>
</g>
<!-- NoSQLDatabaseAsAService -->
<g id="node43" class="node"><title>NoSQLDatabaseAsAService</title>
<ellipse fill="none" stroke="black" cx="716.49" cy="-234" rx="112.38" ry="18"/>
<text text-anchor="middle" x="716.49" y="-230.3" font-family="Times,serif" font-size="14.00">NoSQLDatabaseAsAService</text>
</g>
<!-- NoSQLDatabaseAsAService&#45;&gt;DatabaseAsAService -->
<g id="edge42" class="edge"><title>NoSQLDatabaseAsAService&#45;&gt;DatabaseAsAService</title>
<path fill="none" stroke="black" d="M829.126,-234C931.11,-234 1080.24,-234 1176.42,-234"/>
<polygon fill="black" stroke="black" points="1176.42,-237.5 1186.42,-234 1176.42,-230.5 1176.42,-237.5"/>
</g>
<!-- github.com/supermuesli/csdl@examples/StorageRequirement.py@latest -->
<g id="node44" class="node"><title>github.com/supermuesli/csdl@examples/StorageRequirement.py@latest</title>
<ellipse fill="none" stroke="black" cx="716.49" cy="-180" rx="268.352" ry="18"/>
<text text-anchor="middle" x="716.49" y="-176.3" font-family="Times,serif" font-size="14.00">github.com/supermuesli/csdl@examples/StorageRequirement.py@latest</text>
</g>
<!-- github.com/supermuesli/csdl@examples/StorageRequirement.py@latest&#45;&gt;StorageAsAService -->
<g id="edge43" class="edge"><title>github.com/supermuesli/csdl@examples/StorageRequirement.py@latest&#45;&gt;StorageAsAService</title>
<path fill="none" stroke="black" d="M869.414,-165.173C972.248,-155.137 1104.16,-142.263 1188.11,-134.07"/>
<polygon fill="black" stroke="black" points="1188.49,-137.549 1198.1,-133.094 1187.81,-130.582 1188.49,-137.549"/>
</g>
<!-- github.com/supermuesli/csdl@aws/regions/Region.py@latest -->
<g id="node45" class="node"><title>github.com/supermuesli/csdl@aws/regions/Region.py@latest</title>
<ellipse fill="none" stroke="black" cx="1271.79" cy="-1125" rx="229.359" ry="18"/>
<text text-anchor="middle" x="1271.79" y="-1121.3" font-family="Times,serif" font-size="14.00">github.com/supermuesli/csdl@aws/regions/Region.py@latest</text>
</g>
<!-- github.com/supermuesli/csdl@aws/regions/Region.py@latest&#45;&gt;Region -->
<g id="edge44" class="edge"><title>github.com/supermuesli/csdl@aws/regions/Region.py@latest&#45;&gt;Region</title>
<path fill="none" stroke="black" d="M1501.27,-1125C1603.52,-1125 1714.48,-1125 1775.04,-1125"/>
<polygon fill="black" stroke="black" points="1775.39,-1128.5 1785.39,-1125 1775.39,-1121.5 1775.39,-1128.5"/>
</g>
<!-- github.com/supermuesli/csdl@misc/countries/USA.py@latest -->
<g id="node46" class="node"><title>github.com/supermuesli/csdl@misc/countries/USA.py@latest</title>
<ellipse fill="none" stroke="black" cx="1271.79" cy="-855" rx="231.259" ry="18"/>
<text text-anchor="middle" x="1271.79" y="-851.3" font-family="Times,serif" font-size="14.00">github.com/supermuesli/csdl@misc/countries/USA.py@latest</text>
</g>
<!-- github.com/supermuesli/csdl@misc/countries/USA.py@latest&#45;&gt;NorthAmerica -->
<g id="edge45" class="edge"><title>github.com/supermuesli/csdl@misc/countries/USA.py@latest&#45;&gt;NorthAmerica</title>
<path fill="none" stroke="black" d="M1503.25,-855C1592,-855 1687,-855 1749.74,-855"/>
<polygon fill="black" stroke="black" points="1749.92,-858.5 1759.92,-855 1749.92,-851.5 1749.92,-858.5"/>
</g>
<!-- github.com/supermuesli/csdl@aws/regions/California.py@latest -->
<g id="node47" class="node"><title>github.com/supermuesli/csdl@aws/regions/California.py@latest</title>
<ellipse fill="none" stroke="black" cx="716.49" cy="-909" rx="239.358" ry="18"/>
<text text-anchor="middle" x="716.49" y="-905.3" font-family="Times,serif" font-size="14.00">github.com/supermuesli/csdl@aws/regions/California.py@latest</text>
</g>
<!-- github.com/supermuesli/csdl@aws/regions/California.py@latest&#45;&gt;github.com/supermuesli/csdl@misc/countries/USA.py@latest -->
<g id="edge46" class="edge"><title>github.com/supermuesli/csdl@aws/regions/California.py@latest&#45;&gt;github.com/supermuesli/csdl@misc/countries/USA.py@latest</title>
<path fill="none" stroke="black" d="M863.225,-894.777C941.215,-887.165 1037.24,-877.793 1116.5,-870.059"/>
<polygon fill="black" stroke="black" points="1116.96,-873.53 1126.57,-869.075 1116.28,-866.563 1116.96,-873.53"/>
</g>
<!-- github.com/supermuesli/csdl@aws/regions/NorthernVirginia.py@latest -->
<g id="node48" class="node"><title>github.com/supermuesli/csdl@aws/regions/NorthernVirginia.py@latest</title>
<ellipse fill="none" stroke="black" cx="716.49" cy="-855" rx="264.553" ry="18"/>
<text text-anchor="middle" x="716.49" y="-851.3" font-family="Times,serif" font-size="14.00">github.com/supermuesli/csdl@aws/regions/NorthernVirginia.py@latest</text>
</g>
<!-- github.com/supermuesli/csdl@aws/regions/NorthernVirginia.py@latest&#45;&gt;github.com/supermuesli/csdl@misc/countries/USA.py@latest -->
<g id="edge47" class="edge"><title>github.com/supermuesli/csdl@aws/regions/NorthernVirginia.py@latest&#45;&gt;github.com/supermuesli/csdl@misc/countries/USA.py@latest</title>
<path fill="none" stroke="black" d="M981.178,-855C997.543,-855 1013.97,-855 1030.23,-855"/>
<polygon fill="black" stroke="black" points="1030.32,-858.5 1040.32,-855 1030.32,-851.5 1030.32,-858.5"/>
</g>
<!-- github.com/supermuesli/csdl@aws/regions/NewYork.py@latest -->
<g id="node49" class="node"><title>github.com/supermuesli/csdl@aws/regions/NewYork.py@latest</title>
<ellipse fill="none" stroke="black" cx="716.49" cy="-801" rx="238.558" ry="18"/>
<text text-anchor="middle" x="716.49" y="-797.3" font-family="Times,serif" font-size="14.00">github.com/supermuesli/csdl@aws/regions/NewYork.py@latest</text>
</g>
<!-- github.com/supermuesli/csdl@aws/regions/NewYork.py@latest&#45;&gt;github.com/supermuesli/csdl@misc/countries/USA.py@latest -->
<g id="edge48" class="edge"><title>github.com/supermuesli/csdl@aws/regions/NewYork.py@latest&#45;&gt;github.com/supermuesli/csdl@misc/countries/USA.py@latest</title>
<path fill="none" stroke="black" d="M863.225,-815.223C941.215,-822.835 1037.24,-832.207 1116.5,-839.941"/>
<polygon fill="black" stroke="black" points="1116.28,-843.437 1126.57,-840.925 1116.96,-836.47 1116.28,-843.437"/>
</g>
<!-- github.com/supermuesli/csdl@misc/dataTransfer/In.py@latest -->
<g id="node50" class="node"><title>github.com/supermuesli/csdl@misc/dataTransfer/In.py@latest</title>
<ellipse fill="none" stroke="black" cx="1821.9" cy="-1287" rx="233.159" ry="18"/>
<text text-anchor="middle" x="1821.9" y="-1283.3" font-family="Times,serif" font-size="14.00">github.com/supermuesli/csdl@misc/dataTransfer/In.py@latest</text>
</g>
<!-- github.com/supermuesli/csdl@misc/dataTransfer/In.py@latest&#45;&gt;NumericAttribute -->
<g id="edge49" class="edge"><title>github.com/supermuesli/csdl@misc/dataTransfer/In.py@latest&#45;&gt;NumericAttribute</title>
<path fill="none" stroke="black" d="M2043.58,-1292.76C2058.29,-1298.2 2072.32,-1305.16 2085.12,-1314 2150.14,-1358.87 2178.18,-1454.56 2188.46,-1502.06"/>
<polygon fill="black" stroke="black" points="2185.06,-1502.88 2190.5,-1511.97 2191.92,-1501.47 2185.06,-1502.88"/>
</g>
<!-- github.com/supermuesli/csdl@misc/dataTransfer/Out.py@latest -->
<g id="node51" class="node"><title>github.com/supermuesli/csdl@misc/dataTransfer/Out.py@latest</title>
<ellipse fill="none" stroke="black" cx="1821.9" cy="-1233" rx="239.358" ry="18"/>
<text text-anchor="middle" x="1821.9" y="-1229.3" font-family="Times,serif" font-size="14.00">github.com/supermuesli/csdl@misc/dataTransfer/Out.py@latest</text>
</g>
<!-- github.com/supermuesli/csdl@misc/dataTransfer/Out.py@latest&#45;&gt;NumericAttribute -->
<g id="edge50" class="edge"><title>github.com/supermuesli/csdl@misc/dataTransfer/Out.py@latest&#45;&gt;NumericAttribute</title>
<path fill="none" stroke="black" d="M2047.94,-1238.99C2061.16,-1244.49 2073.7,-1251.39 2085.12,-1260 2163.96,-1319.4 2185.63,-1445.43 2191.47,-1501.76"/>
<polygon fill="black" stroke="black" points="2187.99,-1502.13 2192.41,-1511.75 2194.95,-1501.47 2187.99,-1502.13"/>
</g>
<!-- github.com/supermuesli/csdl@aws/s3/S3Type.py@latest -->
<g id="node52" class="node"><title>github.com/supermuesli/csdl@aws/s3/S3Type.py@latest</title>
<ellipse fill="none" stroke="black" cx="1821.9" cy="-963" rx="213.362" ry="18"/>
<text text-anchor="middle" x="1821.9" y="-959.3" font-family="Times,serif" font-size="14.00">github.com/supermuesli/csdl@aws/s3/S3Type.py@latest</text>
</g>
<!-- github.com/supermuesli/csdl@aws/s3/S3Type.py@latest&#45;&gt;ChoiceAttribute -->
<g id="edge51" class="edge"><title>github.com/supermuesli/csdl@aws/s3/S3Type.py@latest&#45;&gt;ChoiceAttribute</title>
<path fill="none" stroke="black" d="M1983.86,-974.725C2030.85,-978.148 2079.97,-981.725 2118.85,-984.557"/>
<polygon fill="black" stroke="black" points="2118.79,-988.062 2129.01,-985.298 2119.29,-981.08 2118.79,-988.062"/>
</g>
<!-- github.com/supermuesli/csdl@aws/s3/Standard.py@latest -->
<g id="node53" class="node"><title>github.com/supermuesli/csdl@aws/s3/Standard.py@latest</title>
<ellipse fill="none" stroke="black" cx="1821.9" cy="-369" rx="217.162" ry="18"/>
<text text-anchor="middle" x="1821.9" y="-365.3" font-family="Times,serif" font-size="14.00">github.com/supermuesli/csdl@aws/s3/Standard.py@latest</text>
</g>
<!-- github.com/supermuesli/csdl@aws/s3/Standard.py@latest&#45;&gt;OptionAttribute -->
<g id="edge52" class="edge"><title>github.com/supermuesli/csdl@aws/s3/Standard.py@latest&#45;&gt;OptionAttribute</title>
<path fill="none" stroke="black" d="M1924.41,-353.123C1978.36,-350.575 2042.22,-357.81 2085.12,-396 2140.22,-445.041 2072.69,-502.373 2121.12,-558 2124.76,-562.176 2129.1,-565.707 2133.84,-568.693"/>
<polygon fill="black" stroke="black" points="2132.24,-571.809 2142.7,-573.499 2135.58,-565.655 2132.24,-571.809"/>
</g>
<!-- github.com/supermuesli/csdl@aws/s3/StandardInfreqAccess.py@latest -->
<g id="node54" class="node"><title>github.com/supermuesli/csdl@aws/s3/StandardInfreqAccess.py@latest</title>
<ellipse fill="none" stroke="black" cx="1821.9" cy="-315" rx="263.453" ry="18"/>
<text text-anchor="middle" x="1821.9" y="-311.3" font-family="Times,serif" font-size="14.00">github.com/supermuesli/csdl@aws/s3/StandardInfreqAccess.py@latest</text>
</g>
<!-- github.com/supermuesli/csdl@aws/s3/StandardInfreqAccess.py@latest&#45;&gt;OptionAttribute -->
<g id="edge53" class="edge"><title>github.com/supermuesli/csdl@aws/s3/StandardInfreqAccess.py@latest&#45;&gt;OptionAttribute</title>
<path fill="none" stroke="black" d="M2059.21,-322.971C2068.49,-328.265 2077.2,-334.558 2085.12,-342 2156.06,-408.633 2059.2,-482.914 2121.12,-558 2124.51,-562.102 2128.58,-565.58 2133.04,-568.531"/>
<polygon fill="black" stroke="black" points="2131.6,-571.736 2142.03,-573.578 2135.03,-565.632 2131.6,-571.736"/>
</g>
<!-- github.com/supermuesli/csdl@aws/ec2/EC2.py@latest -->
<g id="node55" class="node"><title>github.com/supermuesli/csdl@aws/ec2/EC2.py@latest</title>
<ellipse fill="none" stroke="black" cx="206.032" cy="-18" rx="206.063" ry="18"/>
<text text-anchor="middle" x="206.032" y="-14.3" font-family="Times,serif" font-size="14.00">github.com/supermuesli/csdl@aws/ec2/EC2.py@latest</text>
</g>
<!-- github.com/supermuesli/csdl@aws/ec2/EC2.py@latest&#45;&gt;VMAsAService -->
<g id="edge54" class="edge"><title>github.com/supermuesli/csdl@aws/ec2/EC2.py@latest&#45;&gt;VMAsAService</title>
<path fill="none" stroke="black" d="M412.375,-18C492.102,-18 578.494,-18 638.572,-18"/>
<polygon fill="black" stroke="black" points="638.728,-21.5001 648.728,-18 638.728,-14.5001 638.728,-21.5001"/>
</g>
<!-- github.com/supermuesli/csdl@aws/ec2/MachineType.py@latest -->
<g id="node56" class="node"><title>github.com/supermuesli/csdl@aws/ec2/MachineType.py@latest</title>
<ellipse fill="none" stroke="black" cx="1821.9" cy="-909" rx="239.358" ry="18"/>
<text text-anchor="middle" x="1821.9" y="-905.3" font-family="Times,serif" font-size="14.00">github.com/supermuesli/csdl@aws/ec2/MachineType.py@latest</text>
</g>
<!-- github.com/supermuesli/csdl@aws/ec2/MachineType.py@latest&#45;&gt;ChoiceAttribute -->
<g id="edge55" class="edge"><title>github.com/supermuesli/csdl@aws/ec2/MachineType.py@latest&#45;&gt;ChoiceAttribute</title>
<path fill="none" stroke="black" d="M2011.06,-920.098C2036.23,-923.982 2061.5,-929.147 2085.12,-936 2110.81,-943.451 2137.74,-956.827 2158.34,-968.401"/>
<polygon fill="black" stroke="black" points="2156.63,-971.454 2167.04,-973.396 2160.11,-965.383 2156.63,-971.454"/>
</g>
<!-- github.com/supermuesli/csdl@aws/ec2/A1Large.py@latest -->
<g id="node57" class="node"><title>github.com/supermuesli/csdl@aws/ec2/A1Large.py@latest</title>
<ellipse fill="none" stroke="black" cx="1821.9" cy="-261" rx="221.761" ry="18"/>
<text text-anchor="middle" x="1821.9" y="-257.3" font-family="Times,serif" font-size="14.00">github.com/supermuesli/csdl@aws/ec2/A1Large.py@latest</text>
</g>
<!-- github.com/supermuesli/csdl@aws/ec2/A1Large.py@latest&#45;&gt;OptionAttribute -->
<g id="edge56" class="edge"><title>github.com/supermuesli/csdl@aws/ec2/A1Large.py@latest&#45;&gt;OptionAttribute</title>
<path fill="none" stroke="black" d="M1913.24,-244.582C1970.03,-239.797 2040.71,-244.891 2085.12,-288 2172,-372.312 2045.63,-463.357 2121.12,-558 2124.44,-562.156 2128.46,-565.673 2132.9,-568.648"/>
<polygon fill="black" stroke="black" points="2131.42,-571.837 2141.85,-573.728 2134.88,-565.748 2131.42,-571.837"/>
</g>
<!-- github.com/supermuesli/csdl@aws/EBS.py@latest -->
<g id="node58" class="node"><title>github.com/supermuesli/csdl@aws/EBS.py@latest</title>
<ellipse fill="none" stroke="black" cx="716.49" cy="-126" rx="191.966" ry="18"/>
<text text-anchor="middle" x="716.49" y="-122.3" font-family="Times,serif" font-size="14.00">github.com/supermuesli/csdl@aws/EBS.py@latest</text>
</g>
<!-- github.com/supermuesli/csdl@aws/EBS.py@latest&#45;&gt;StorageAsAService -->
<g id="edge57" class="edge"><title>github.com/supermuesli/csdl@aws/EBS.py@latest&#45;&gt;StorageAsAService</title>
<path fill="none" stroke="black" d="M908.293,-126C1000.96,-126 1107.89,-126 1181.48,-126"/>
<polygon fill="black" stroke="black" points="1181.63,-129.5 1191.63,-126 1181.63,-122.5 1181.63,-129.5"/>
</g>
<!-- github.com/supermuesli/csdl@misc/StaticIp.py@latest -->
<g id="node59" class="node"><title>github.com/supermuesli/csdl@misc/StaticIp.py@latest</title>
<ellipse fill="none" stroke="black" cx="1821.9" cy="-1179" rx="206.063" ry="18"/>
<text text-anchor="middle" x="1821.9" y="-1175.3" font-family="Times,serif" font-size="14.00">github.com/supermuesli/csdl@misc/StaticIp.py@latest</text>
</g>
<!-- github.com/supermuesli/csdl@misc/StaticIp.py@latest&#45;&gt;NumericAttribute -->
<g id="edge58" class="edge"><title>github.com/supermuesli/csdl@misc/StaticIp.py@latest&#45;&gt;NumericAttribute</title>
<path fill="none" stroke="black" d="M2023.66,-1175.34C2045.96,-1181.76 2067.08,-1191.55 2085.12,-1206 2178.13,-1280.48 2191.95,-1437.57 2193.59,-1501.76"/>
<polygon fill="black" stroke="black" points="2190.09,-1502 2193.76,-1511.94 2197.09,-1501.88 2190.09,-1502"/>
</g>
<!-- github.com/supermuesli/csdl@aws/ec2/ElasticIpAmount.py@latest -->
<g id="node60" class="node"><title>github.com/supermuesli/csdl@aws/ec2/ElasticIpAmount.py@latest</title>
<ellipse fill="none" stroke="black" cx="1271.79" cy="-1179" rx="250.756" ry="18"/>
<text text-anchor="middle" x="1271.79" y="-1175.3" font-family="Times,serif" font-size="14.00">github.com/supermuesli/csdl@aws/ec2/ElasticIpAmount.py@latest</text>
</g>
<!-- github.com/supermuesli/csdl@aws/ec2/ElasticIpAmount.py@latest&#45;&gt;github.com/supermuesli/csdl@misc/StaticIp.py@latest -->
<g id="edge59" class="edge"><title>github.com/supermuesli/csdl@aws/ec2/ElasticIpAmount.py@latest&#45;&gt;github.com/supermuesli/csdl@misc/StaticIp.py@latest</title>
<path fill="none" stroke="black" d="M1522.79,-1179C1550.33,-1179 1578.19,-1179 1605.26,-1179"/>
<polygon fill="black" stroke="black" points="1605.59,-1182.5 1615.59,-1179 1605.59,-1175.5 1605.59,-1182.5"/>
</g>
<!-- github.com/supermuesli/csdl@aws/s3/S3.py@latest -->
<g id="node61" class="node"><title>github.com/supermuesli/csdl@aws/s3/S3.py@latest</title>
<ellipse fill="none" stroke="black" cx="716.49" cy="-72" rx="194.965" ry="18"/>
<text text-anchor="middle" x="716.49" y="-68.3" font-family="Times,serif" font-size="14.00">github.com/supermuesli/csdl@aws/s3/S3.py@latest</text>
</g>
<!-- github.com/supermuesli/csdl@aws/s3/S3.py@latest&#45;&gt;StorageAsAService -->
<g id="edge60" class="edge"><title>github.com/supermuesli/csdl@aws/s3/S3.py@latest&#45;&gt;StorageAsAService</title>
<path fill="none" stroke="black" d="M851.076,-85.0375C956.081,-95.2855 1099.02,-109.236 1188.06,-117.925"/>
<polygon fill="black" stroke="black" points="1187.81,-121.418 1198.11,-118.906 1188.49,-114.451 1187.81,-121.418"/>
</g>
</g>
</svg>
