<?xml version="1.0" encoding="UTF-8" standalone="no"?>
<!DOCTYPE svg PUBLIC "-//W3C//DTD SVG 1.1//EN"
 "http://www.w3.org/Graphics/SVG/1.1/DTD/svg11.dtd">
<!-- Generated by graphviz version 2.38.0 (20140413.2041)
 -->
<!-- Title: %3 Pages: 1 -->
<svg width="2585pt" height="1745pt"
 viewBox="0.00 0.00 2584.59 1745.00" xmlns="http://www.w3.org/2000/svg" xmlns:xlink="http://www.w3.org/1999/xlink">
<g id="graph0" class="graph" transform="scale(1 1) rotate(0) translate(4 1741)">
<title>%3</title>
<polygon fill="white" stroke="none" points="-4,4 -4,-1741 2580.59,-1741 2580.59,4 -4,4"/>
<!-- VMAsAService -->
<g id="node1" class="node"><title>VMAsAService</title>
<ellipse fill="none" stroke="black" cx="775.634" cy="-45" rx="67.6881" ry="18"/>
<text text-anchor="middle" x="775.634" y="-41.3" font-family="Times,serif" font-size="14.00">VMAsAService</text>
</g>
<!-- ServerAsAService -->
<g id="node2" class="node"><title>ServerAsAService</title>
<ellipse fill="none" stroke="black" cx="1335.49" cy="-45" rx="76.0865" ry="18"/>
<text text-anchor="middle" x="1335.49" y="-41.3" font-family="Times,serif" font-size="14.00">ServerAsAService</text>
</g>
<!-- VMAsAService&#45;&gt;ServerAsAService -->
<g id="edge1" class="edge"><title>VMAsAService&#45;&gt;ServerAsAService</title>
<path fill="none" stroke="black" d="M843.37,-45C944.753,-45 1137.54,-45 1249.03,-45"/>
<polygon fill="black" stroke="black" points="1249.23,-48.5001 1259.23,-45 1249.23,-41.5001 1249.23,-48.5001"/>
</g>
<!-- IaaS -->
<g id="node3" class="node"><title>IaaS</title>
<ellipse fill="none" stroke="black" cx="1909.64" cy="-99" rx="27" ry="18"/>
<text text-anchor="middle" x="1909.64" y="-95.3" font-family="Times,serif" font-size="14.00">IaaS</text>
</g>
<!-- ServerAsAService&#45;&gt;IaaS -->
<g id="edge2" class="edge"><title>ServerAsAService&#45;&gt;IaaS</title>
<path fill="none" stroke="black" d="M1406.36,-51.5944C1529.21,-63.1896 1779.72,-86.8321 1872.78,-95.6153"/>
<polygon fill="black" stroke="black" points="1872.54,-99.1079 1882.82,-96.5631 1873.19,-92.1389 1872.54,-99.1079"/>
</g>
<!-- CCS -->
<g id="node5" class="node"><title>CCS</title>
<ellipse fill="none" stroke="black" cx="2281.66" cy="-153" rx="27.0966" ry="18"/>
<text text-anchor="middle" x="2281.66" y="-149.3" font-family="Times,serif" font-size="14.00">CCS</text>
</g>
<!-- IaaS&#45;&gt;CCS -->
<g id="edge4" class="edge"><title>IaaS&#45;&gt;CCS</title>
<path fill="none" stroke="black" d="M1936.8,-100.474C1984.07,-103.409 2086.78,-111.031 2172.22,-126 2197.34,-130.402 2225.27,-137.405 2246.49,-143.175"/>
<polygon fill="black" stroke="black" points="2245.75,-146.603 2256.32,-145.893 2247.61,-139.856 2245.75,-146.603"/>
</g>
<!-- SaaS -->
<g id="node4" class="node"><title>SaaS</title>
<ellipse fill="none" stroke="black" cx="1909.64" cy="-153" rx="28.6953" ry="18"/>
<text text-anchor="middle" x="1909.64" y="-149.3" font-family="Times,serif" font-size="14.00">SaaS</text>
</g>
<!-- SaaS&#45;&gt;CCS -->
<g id="edge3" class="edge"><title>SaaS&#45;&gt;CCS</title>
<path fill="none" stroke="black" d="M1938.45,-153C2004.29,-153 2169.71,-153 2243.78,-153"/>
<polygon fill="black" stroke="black" points="2244.03,-156.5 2254.03,-153 2244.03,-149.5 2244.03,-156.5"/>
</g>
<!-- Attribute -->
<g id="node8" class="node"><title>Attribute</title>
<ellipse fill="none" stroke="black" cx="2433.35" cy="-558" rx="42.4939" ry="18"/>
<text text-anchor="middle" x="2433.35" y="-554.3" font-family="Times,serif" font-size="14.00">Attribute</text>
</g>
<!-- CCS&#45;&gt;Attribute -->
<g id="edge10" class="edge"><title>CCS&#45;&gt;Attribute</title>
<path fill="none" stroke="black" d="M2292.05,-170.032C2306.84,-197.301 2335.83,-252.711 2355.1,-302 2386.78,-382.993 2413.46,-482.533 2425.5,-530.106"/>
<polygon fill="black" stroke="black" points="2422.14,-531.129 2427.97,-539.978 2428.93,-529.427 2422.14,-531.129"/>
</g>
<!-- StorageAsAService -->
<g id="node6" class="node"><title>StorageAsAService</title>
<ellipse fill="none" stroke="black" cx="1335.49" cy="-99" rx="79.8859" ry="18"/>
<text text-anchor="middle" x="1335.49" y="-95.3" font-family="Times,serif" font-size="14.00">StorageAsAService</text>
</g>
<!-- StorageAsAService&#45;&gt;IaaS -->
<g id="edge5" class="edge"><title>StorageAsAService&#45;&gt;IaaS</title>
<path fill="none" stroke="black" d="M1415.44,-99C1541.06,-99 1781.52,-99 1872.53,-99"/>
<polygon fill="black" stroke="black" points="1872.62,-102.5 1882.62,-99 1872.62,-95.5001 1872.62,-102.5"/>
</g>
<!-- NumericAttribute -->
<g id="node7" class="node"><title>NumericAttribute</title>
<ellipse fill="none" stroke="black" cx="2281.66" cy="-1368" rx="73.387" ry="18"/>
<text text-anchor="middle" x="2281.66" y="-1364.3" font-family="Times,serif" font-size="14.00">NumericAttribute</text>
</g>
<!-- NumericAttribute&#45;&gt;Attribute -->
<g id="edge6" class="edge"><title>NumericAttribute&#45;&gt;Attribute</title>
<path fill="none" stroke="black" d="M2286,-1349.95C2305.38,-1245.05 2403.48,-714.243 2427.19,-585.945"/>
<polygon fill="black" stroke="black" points="2430.63,-586.567 2429.01,-576.097 2423.75,-585.295 2430.63,-586.567"/>
</g>
<!-- object -->
<g id="node12" class="node"><title>object</title>
<ellipse fill="none" stroke="black" cx="2544.09" cy="-558" rx="32.4942" ry="18"/>
<text text-anchor="middle" x="2544.09" y="-554.3" font-family="Times,serif" font-size="14.00">object</text>
</g>
<!-- Attribute&#45;&gt;object -->
<g id="edge11" class="edge"><title>Attribute&#45;&gt;object</title>
<path fill="none" stroke="black" d="M2475.77,-558C2484.04,-558 2492.74,-558 2501.03,-558"/>
<polygon fill="black" stroke="black" points="2501.26,-561.5 2511.26,-558 2501.26,-554.5 2501.26,-561.5"/>
</g>
<!-- ChoiceAttribute -->
<g id="node9" class="node"><title>ChoiceAttribute</title>
<ellipse fill="none" stroke="black" cx="2281.66" cy="-936" rx="67.6881" ry="18"/>
<text text-anchor="middle" x="2281.66" y="-932.3" font-family="Times,serif" font-size="14.00">ChoiceAttribute</text>
</g>
<!-- ChoiceAttribute&#45;&gt;Attribute -->
<g id="edge7" class="edge"><title>ChoiceAttribute&#45;&gt;Attribute</title>
<path fill="none" stroke="black" d="M2289.78,-918.023C2313.86,-857.207 2392.39,-658.896 2421.43,-585.576"/>
<polygon fill="black" stroke="black" points="2424.76,-586.674 2425.19,-576.087 2418.25,-584.096 2424.76,-586.674"/>
</g>
<!-- BoolAttribute -->
<g id="node10" class="node"><title>BoolAttribute</title>
<ellipse fill="none" stroke="black" cx="2281.66" cy="-612" rx="59.5901" ry="18"/>
<text text-anchor="middle" x="2281.66" y="-608.3" font-family="Times,serif" font-size="14.00">BoolAttribute</text>
</g>
<!-- BoolAttribute&#45;&gt;Attribute -->
<g id="edge8" class="edge"><title>BoolAttribute&#45;&gt;Attribute</title>
<path fill="none" stroke="black" d="M2320.82,-598.234C2342.15,-590.538 2368.77,-580.937 2390.65,-573.044"/>
<polygon fill="black" stroke="black" points="2392.11,-576.236 2400.33,-569.55 2389.74,-569.651 2392.11,-576.236"/>
</g>
<!-- NameAttribute -->
<g id="node11" class="node"><title>NameAttribute</title>
<ellipse fill="none" stroke="black" cx="2281.66" cy="-558" rx="63.8893" ry="18"/>
<text text-anchor="middle" x="2281.66" y="-554.3" font-family="Times,serif" font-size="14.00">NameAttribute</text>
</g>
<!-- NameAttribute&#45;&gt;Attribute -->
<g id="edge9" class="edge"><title>NameAttribute&#45;&gt;Attribute</title>
<path fill="none" stroke="black" d="M2345.71,-558C2357.45,-558 2369.6,-558 2380.94,-558"/>
<polygon fill="black" stroke="black" points="2381.1,-561.5 2391.1,-558 2381.1,-554.5 2381.1,-561.5"/>
</g>
<!-- Region -->
<g id="node13" class="node"><title>Region</title>
<ellipse fill="none" stroke="black" cx="1909.64" cy="-1017" rx="36.2938" ry="18"/>
<text text-anchor="middle" x="1909.64" y="-1013.3" font-family="Times,serif" font-size="14.00">Region</text>
</g>
<!-- Region&#45;&gt;ChoiceAttribute -->
<g id="edge12" class="edge"><title>Region&#45;&gt;ChoiceAttribute</title>
<path fill="none" stroke="black" d="M1946.1,-1017.32C1997.12,-1016.9 2093.73,-1012.77 2172.22,-990 2197.91,-982.545 2224.83,-969.17 2245.43,-957.597"/>
<polygon fill="black" stroke="black" points="2247.2,-960.615 2254.14,-952.602 2243.72,-954.544 2247.2,-960.615"/>
</g>
<!-- NorthAmerica -->
<g id="node14" class="node"><title>NorthAmerica</title>
<ellipse fill="none" stroke="black" cx="1909.64" cy="-855" rx="61.99" ry="18"/>
<text text-anchor="middle" x="1909.64" y="-851.3" font-family="Times,serif" font-size="14.00">NorthAmerica</text>
</g>
<!-- NorthAmerica&#45;&gt;NameAttribute -->
<g id="edge13" class="edge"><title>NorthAmerica&#45;&gt;NameAttribute</title>
<path fill="none" stroke="black" d="M1959.09,-865.852C2017.76,-875.867 2115.72,-882.047 2172.22,-828 2251.11,-752.525 2139.52,-669.856 2208.22,-585 2211.81,-580.566 2216.2,-576.861 2221.03,-573.764"/>
<polygon fill="black" stroke="black" points="2223.01,-576.671 2230.13,-568.82 2219.67,-570.521 2223.01,-576.671"/>
</g>
<!-- Australia -->
<g id="node15" class="node"><title>Australia</title>
<ellipse fill="none" stroke="black" cx="1909.64" cy="-801" rx="42.7926" ry="18"/>
<text text-anchor="middle" x="1909.64" y="-797.3" font-family="Times,serif" font-size="14.00">Australia</text>
</g>
<!-- Australia&#45;&gt;NameAttribute -->
<g id="edge14" class="edge"><title>Australia&#45;&gt;NameAttribute</title>
<path fill="none" stroke="black" d="M1947.77,-809.536C2004.04,-820.078 2110.84,-830.347 2172.22,-774 2235.21,-716.17 2153.06,-650.34 2208.22,-585 2212.04,-580.467 2216.71,-576.694 2221.81,-573.554"/>
<polygon fill="black" stroke="black" points="2223.52,-576.608 2230.73,-568.845 2220.25,-570.417 2223.52,-576.608"/>
</g>
<!-- Africa -->
<g id="node16" class="node"><title>Africa</title>
<ellipse fill="none" stroke="black" cx="1909.64" cy="-747" rx="33.2948" ry="18"/>
<text text-anchor="middle" x="1909.64" y="-743.3" font-family="Times,serif" font-size="14.00">Africa</text>
</g>
<!-- Africa&#45;&gt;NameAttribute -->
<g id="edge15" class="edge"><title>Africa&#45;&gt;NameAttribute</title>
<path fill="none" stroke="black" d="M1940.68,-753.77C1994.11,-763.909 2106.24,-776.313 2172.22,-720 2219.45,-679.687 2166.47,-630.968 2208.22,-585 2212.21,-580.608 2216.98,-576.928 2222.14,-573.844"/>
<polygon fill="black" stroke="black" points="2223.86,-576.898 2231.14,-569.198 2220.64,-570.678 2223.86,-576.898"/>
</g>
<!-- EastAsia -->
<g id="node17" class="node"><title>EastAsia</title>
<ellipse fill="none" stroke="black" cx="1909.64" cy="-693" rx="42.4939" ry="18"/>
<text text-anchor="middle" x="1909.64" y="-689.3" font-family="Times,serif" font-size="14.00">EastAsia</text>
</g>
<!-- EastAsia&#45;&gt;NameAttribute -->
<g id="edge16" class="edge"><title>EastAsia&#45;&gt;NameAttribute</title>
<path fill="none" stroke="black" d="M1948.53,-700.035C2003.41,-708.004 2105.71,-714.262 2172.22,-666 2204.1,-642.863 2179.52,-611.988 2208.22,-585 2212.77,-580.716 2218.07,-577.097 2223.69,-574.043"/>
<polygon fill="black" stroke="black" points="2225.23,-577.186 2232.72,-569.694 2222.19,-570.879 2225.23,-577.186"/>
</g>
<!-- SouthAmerica -->
<g id="node18" class="node"><title>SouthAmerica</title>
<ellipse fill="none" stroke="black" cx="1909.64" cy="-639" rx="61.99" ry="18"/>
<text text-anchor="middle" x="1909.64" y="-635.3" font-family="Times,serif" font-size="14.00">SouthAmerica</text>
</g>
<!-- SouthAmerica&#45;&gt;NameAttribute -->
<g id="edge17" class="edge"><title>SouthAmerica&#45;&gt;NameAttribute</title>
<path fill="none" stroke="black" d="M1970.68,-641.762C2025.12,-642.211 2106.64,-637.674 2172.22,-612 2190.84,-604.708 2190.67,-594.591 2208.22,-585 2214.69,-581.46 2221.73,-578.195 2228.79,-575.25"/>
<polygon fill="black" stroke="black" points="2230.38,-578.384 2238.38,-571.436 2227.79,-571.88 2230.38,-578.384"/>
</g>
<!-- Europe -->
<g id="node19" class="node"><title>Europe</title>
<ellipse fill="none" stroke="black" cx="1909.64" cy="-585" rx="36.2938" ry="18"/>
<text text-anchor="middle" x="1909.64" y="-581.3" font-family="Times,serif" font-size="14.00">Europe</text>
</g>
<!-- Europe&#45;&gt;NameAttribute -->
<g id="edge18" class="edge"><title>Europe&#45;&gt;NameAttribute</title>
<path fill="none" stroke="black" d="M1945.78,-582.436C2006.04,-578.039 2130.19,-568.98 2209.23,-563.212"/>
<polygon fill="black" stroke="black" points="2209.87,-566.675 2219.59,-562.456 2209.36,-559.693 2209.87,-566.675"/>
</g>
<!-- Antarctica -->
<g id="node20" class="node"><title>Antarctica</title>
<ellipse fill="none" stroke="black" cx="1909.64" cy="-531" rx="47.3916" ry="18"/>
<text text-anchor="middle" x="1909.64" y="-527.3" font-family="Times,serif" font-size="14.00">Antarctica</text>
</g>
<!-- Antarctica&#45;&gt;NameAttribute -->
<g id="edge19" class="edge"><title>Antarctica&#45;&gt;NameAttribute</title>
<path fill="none" stroke="black" d="M1956.38,-534.338C2019.73,-538.96 2134.76,-547.354 2209.41,-552.801"/>
<polygon fill="black" stroke="black" points="2209.44,-556.312 2219.67,-553.55 2209.95,-549.331 2209.44,-556.312"/>
</g>
<!-- Currency -->
<g id="node21" class="node"><title>Currency</title>
<ellipse fill="none" stroke="black" cx="1909.64" cy="-963" rx="43.5923" ry="18"/>
<text text-anchor="middle" x="1909.64" y="-959.3" font-family="Times,serif" font-size="14.00">Currency</text>
</g>
<!-- Currency&#45;&gt;ChoiceAttribute -->
<g id="edge20" class="edge"><title>Currency&#45;&gt;ChoiceAttribute</title>
<path fill="none" stroke="black" d="M1952.73,-959.929C2014.36,-955.432 2130.11,-946.986 2206.29,-941.427"/>
<polygon fill="black" stroke="black" points="2206.58,-944.915 2216.3,-940.696 2206.08,-937.933 2206.58,-944.915"/>
</g>
<!-- Storage -->
<g id="node22" class="node"><title>Storage</title>
<ellipse fill="none" stroke="black" cx="1909.64" cy="-1719" rx="37.8943" ry="18"/>
<text text-anchor="middle" x="1909.64" y="-1715.3" font-family="Times,serif" font-size="14.00">Storage</text>
</g>
<!-- Storage&#45;&gt;NumericAttribute -->
<g id="edge21" class="edge"><title>Storage&#45;&gt;NumericAttribute</title>
<path fill="none" stroke="black" d="M1944.63,-1726.11C1999.05,-1735.39 2106.3,-1744.8 2172.22,-1692 2265.22,-1617.51 2279.04,-1460.43 2280.68,-1396.23"/>
<polygon fill="black" stroke="black" points="2284.18,-1396.12 2280.85,-1386.06 2277.18,-1396 2284.18,-1396.12"/>
</g>
<!-- StorageWriteSpeed -->
<g id="node23" class="node"><title>StorageWriteSpeed</title>
<ellipse fill="none" stroke="black" cx="1909.64" cy="-1665" rx="79.0865" ry="18"/>
<text text-anchor="middle" x="1909.64" y="-1661.3" font-family="Times,serif" font-size="14.00">StorageWriteSpeed</text>
</g>
<!-- StorageWriteSpeed&#45;&gt;NumericAttribute -->
<g id="edge22" class="edge"><title>StorageWriteSpeed&#45;&gt;NumericAttribute</title>
<path fill="none" stroke="black" d="M1973.99,-1675.57C2031.46,-1681.51 2115.62,-1680.66 2172.22,-1638 2251.04,-1578.59 2272.72,-1452.56 2278.56,-1396.23"/>
<polygon fill="black" stroke="black" points="2282.05,-1396.53 2279.5,-1386.25 2275.08,-1395.87 2282.05,-1396.53"/>
</g>
<!-- StorageReadSpeed -->
<g id="node24" class="node"><title>StorageReadSpeed</title>
<ellipse fill="none" stroke="black" cx="1909.64" cy="-1611" rx="77.1866" ry="18"/>
<text text-anchor="middle" x="1909.64" y="-1607.3" font-family="Times,serif" font-size="14.00">StorageReadSpeed</text>
</g>
<!-- StorageReadSpeed&#45;&gt;NumericAttribute -->
<g id="edge23" class="edge"><title>StorageReadSpeed&#45;&gt;NumericAttribute</title>
<path fill="none" stroke="black" d="M1975.13,-1620.63C2031.99,-1625.59 2114.54,-1623.81 2172.22,-1584 2237.23,-1539.12 2265.27,-1443.44 2275.56,-1395.94"/>
<polygon fill="black" stroke="black" points="2279.01,-1396.53 2277.59,-1386.03 2272.15,-1395.12 2279.01,-1396.53"/>
</g>
<!-- OperatingSystem -->
<g id="node25" class="node"><title>OperatingSystem</title>
<ellipse fill="none" stroke="black" cx="1909.64" cy="-909" rx="72.2875" ry="18"/>
<text text-anchor="middle" x="1909.64" y="-905.3" font-family="Times,serif" font-size="14.00">OperatingSystem</text>
</g>
<!-- OperatingSystem&#45;&gt;ChoiceAttribute -->
<g id="edge24" class="edge"><title>OperatingSystem&#45;&gt;ChoiceAttribute</title>
<path fill="none" stroke="black" d="M1979.37,-914.015C2043.75,-918.713 2139.71,-925.715 2205.96,-930.549"/>
<polygon fill="black" stroke="black" points="2206.09,-934.068 2216.32,-931.305 2206.6,-927.087 2206.09,-934.068"/>
</g>
<!-- CpuCores -->
<g id="node26" class="node"><title>CpuCores</title>
<ellipse fill="none" stroke="black" cx="1909.64" cy="-1557" rx="46.2923" ry="18"/>
<text text-anchor="middle" x="1909.64" y="-1553.3" font-family="Times,serif" font-size="14.00">CpuCores</text>
</g>
<!-- CpuCores&#45;&gt;NumericAttribute -->
<g id="edge25" class="edge"><title>CpuCores&#45;&gt;NumericAttribute</title>
<path fill="none" stroke="black" d="M1953.49,-1563.12C2008.33,-1568.73 2104.35,-1570.85 2172.22,-1530 2223.64,-1499.05 2255.85,-1433.25 2270.8,-1395.73"/>
<polygon fill="black" stroke="black" points="2274.24,-1396.53 2274.56,-1385.94 2267.7,-1394.02 2274.24,-1396.53"/>
</g>
<!-- CpuClockSpeed -->
<g id="node27" class="node"><title>CpuClockSpeed</title>
<ellipse fill="none" stroke="black" cx="1909.64" cy="-1503" rx="67.6881" ry="18"/>
<text text-anchor="middle" x="1909.64" y="-1499.3" font-family="Times,serif" font-size="14.00">CpuClockSpeed</text>
</g>
<!-- CpuClockSpeed&#45;&gt;NumericAttribute -->
<g id="edge26" class="edge"><title>CpuClockSpeed&#45;&gt;NumericAttribute</title>
<path fill="none" stroke="black" d="M1974.58,-1508C2029.59,-1509.67 2109.73,-1505.65 2172.22,-1476 2210.82,-1457.68 2243.72,-1419.76 2262.85,-1394.09"/>
<polygon fill="black" stroke="black" points="2265.75,-1396.05 2268.79,-1385.9 2260.08,-1391.93 2265.75,-1396.05"/>
</g>
<!-- Ram -->
<g id="node28" class="node"><title>Ram</title>
<ellipse fill="none" stroke="black" cx="1909.64" cy="-1449" rx="27.8951" ry="18"/>
<text text-anchor="middle" x="1909.64" y="-1445.3" font-family="Times,serif" font-size="14.00">Ram</text>
</g>
<!-- Ram&#45;&gt;NumericAttribute -->
<g id="edge27" class="edge"><title>Ram&#45;&gt;NumericAttribute</title>
<path fill="none" stroke="black" d="M1937.6,-1449.36C1985.72,-1449.32 2089.13,-1446.11 2172.22,-1422 2197.73,-1414.6 2224.47,-1401.35 2245.01,-1389.83"/>
<polygon fill="black" stroke="black" points="2246.76,-1392.87 2253.7,-1384.86 2243.28,-1386.79 2246.76,-1392.87"/>
</g>
<!-- RamClockSpeed -->
<g id="node29" class="node"><title>RamClockSpeed</title>
<ellipse fill="none" stroke="black" cx="1909.64" cy="-1395" rx="70.3881" ry="18"/>
<text text-anchor="middle" x="1909.64" y="-1391.3" font-family="Times,serif" font-size="14.00">RamClockSpeed</text>
</g>
<!-- RamClockSpeed&#45;&gt;NumericAttribute -->
<g id="edge28" class="edge"><title>RamClockSpeed&#45;&gt;NumericAttribute</title>
<path fill="none" stroke="black" d="M1977.65,-1390.11C2040.44,-1385.53 2134.37,-1378.67 2200.98,-1373.81"/>
<polygon fill="black" stroke="black" points="2201.29,-1377.3 2211.01,-1373.08 2200.78,-1370.32 2201.29,-1377.3"/>
</g>
<!-- RamWriteSpeed -->
<g id="node30" class="node"><title>RamWriteSpeed</title>
<ellipse fill="none" stroke="black" cx="1909.64" cy="-1341" rx="69.5877" ry="18"/>
<text text-anchor="middle" x="1909.64" y="-1337.3" font-family="Times,serif" font-size="14.00">RamWriteSpeed</text>
</g>
<!-- RamWriteSpeed&#45;&gt;NumericAttribute -->
<g id="edge29" class="edge"><title>RamWriteSpeed&#45;&gt;NumericAttribute</title>
<path fill="none" stroke="black" d="M1976.79,-1345.83C2039.57,-1350.41 2134.01,-1357.3 2200.92,-1362.18"/>
<polygon fill="black" stroke="black" points="2200.77,-1365.68 2211,-1362.92 2201.28,-1358.7 2200.77,-1365.68"/>
</g>
<!-- RamReadSpeed -->
<g id="node31" class="node"><title>RamReadSpeed</title>
<ellipse fill="none" stroke="black" cx="1909.64" cy="-1287" rx="67.6881" ry="18"/>
<text text-anchor="middle" x="1909.64" y="-1283.3" font-family="Times,serif" font-size="14.00">RamReadSpeed</text>
</g>
<!-- RamReadSpeed&#45;&gt;NumericAttribute -->
<g id="edge30" class="edge"><title>RamReadSpeed&#45;&gt;NumericAttribute</title>
<path fill="none" stroke="black" d="M1977.47,-1287.34C2031.08,-1289.17 2107.76,-1295.3 2172.22,-1314 2197.73,-1321.4 2224.47,-1334.65 2245.01,-1346.17"/>
<polygon fill="black" stroke="black" points="2243.28,-1349.21 2253.7,-1351.14 2246.76,-1343.13 2243.28,-1349.21"/>
</g>
<!-- NetworkCapacity -->
<g id="node32" class="node"><title>NetworkCapacity</title>
<ellipse fill="none" stroke="black" cx="1909.64" cy="-1233" rx="72.5877" ry="18"/>
<text text-anchor="middle" x="1909.64" y="-1229.3" font-family="Times,serif" font-size="14.00">NetworkCapacity</text>
</g>
<!-- NetworkCapacity&#45;&gt;NumericAttribute -->
<g id="edge31" class="edge"><title>NetworkCapacity&#45;&gt;NumericAttribute</title>
<path fill="none" stroke="black" d="M1979.55,-1227.87C2034.34,-1226.59 2111.59,-1231.23 2172.22,-1260 2210.82,-1278.32 2243.72,-1316.24 2262.85,-1341.91"/>
<polygon fill="black" stroke="black" points="2260.08,-1344.07 2268.79,-1350.1 2265.75,-1339.95 2260.08,-1344.07"/>
</g>
<!-- NetworkUploadSpeed -->
<g id="node33" class="node"><title>NetworkUploadSpeed</title>
<ellipse fill="none" stroke="black" cx="1909.64" cy="-1179" rx="89.0842" ry="18"/>
<text text-anchor="middle" x="1909.64" y="-1175.3" font-family="Times,serif" font-size="14.00">NetworkUploadSpeed</text>
</g>
<!-- NetworkUploadSpeed&#45;&gt;NumericAttribute -->
<g id="edge32" class="edge"><title>NetworkUploadSpeed&#45;&gt;NumericAttribute</title>
<path fill="none" stroke="black" d="M1987.89,-1170.36C2043.05,-1167.96 2116.97,-1172.74 2172.22,-1206 2223.64,-1236.95 2255.85,-1302.75 2270.8,-1340.27"/>
<polygon fill="black" stroke="black" points="2267.7,-1341.98 2274.56,-1350.06 2274.24,-1339.47 2267.7,-1341.98"/>
</g>
<!-- NetworkDownloadSpeed -->
<g id="node34" class="node"><title>NetworkDownloadSpeed</title>
<ellipse fill="none" stroke="black" cx="1909.64" cy="-1125" rx="99.3824" ry="18"/>
<text text-anchor="middle" x="1909.64" y="-1121.3" font-family="Times,serif" font-size="14.00">NetworkDownloadSpeed</text>
</g>
<!-- NetworkDownloadSpeed&#45;&gt;NumericAttribute -->
<g id="edge33" class="edge"><title>NetworkDownloadSpeed&#45;&gt;NumericAttribute</title>
<path fill="none" stroke="black" d="M1989.8,-1114.29C2045.53,-1110.97 2119.33,-1115.5 2172.22,-1152 2237.23,-1196.88 2265.27,-1292.56 2275.56,-1340.06"/>
<polygon fill="black" stroke="black" points="2272.15,-1340.88 2277.59,-1349.97 2279.01,-1339.47 2272.15,-1340.88"/>
</g>
<!-- PricingModel -->
<g id="node35" class="node"><title>PricingModel</title>
<ellipse fill="none" stroke="black" cx="2281.66" cy="-383" rx="59.5901" ry="18"/>
<text text-anchor="middle" x="2281.66" y="-379.3" font-family="Times,serif" font-size="14.00">PricingModel</text>
</g>
<!-- PricingModel&#45;&gt;Attribute -->
<g id="edge34" class="edge"><title>PricingModel&#45;&gt;Attribute</title>
<path fill="none" stroke="black" d="M2297.56,-400.419C2324.26,-431.634 2380.33,-497.187 2411.07,-533.126"/>
<polygon fill="black" stroke="black" points="2408.79,-535.841 2417.95,-541.166 2414.11,-531.291 2408.79,-535.841"/>
</g>
<!-- Static -->
<g id="node36" class="node"><title>Static</title>
<ellipse fill="none" stroke="black" cx="1909.64" cy="-261" rx="30.5947" ry="18"/>
<text text-anchor="middle" x="1909.64" y="-257.3" font-family="Times,serif" font-size="14.00">Static</text>
</g>
<!-- Static&#45;&gt;PricingModel -->
<g id="edge35" class="edge"><title>Static&#45;&gt;PricingModel</title>
<path fill="none" stroke="black" d="M1939.09,-255.847C1990.47,-248.164 2100.11,-239.369 2172.22,-288 2200.57,-307.121 2182.52,-333.443 2208.22,-356 2213.37,-360.521 2219.35,-364.312 2225.62,-367.486"/>
<polygon fill="black" stroke="black" points="2224.4,-370.775 2234.95,-371.706 2227.28,-364.397 2224.4,-370.775"/>
</g>
<!-- Dynamic -->
<g id="node37" class="node"><title>Dynamic</title>
<ellipse fill="none" stroke="black" cx="1909.64" cy="-207" rx="43.5923" ry="18"/>
<text text-anchor="middle" x="1909.64" y="-203.3" font-family="Times,serif" font-size="14.00">Dynamic</text>
</g>
<!-- Dynamic&#45;&gt;PricingModel -->
<g id="edge36" class="edge"><title>Dynamic&#45;&gt;PricingModel</title>
<path fill="none" stroke="black" d="M1948.94,-198.917C2004.79,-189.512 2108.84,-181.333 2172.22,-234 2215.7,-270.132 2169.66,-314.654 2208.22,-356 2212.6,-360.703 2217.88,-364.591 2223.57,-367.804"/>
<polygon fill="black" stroke="black" points="2222.25,-371.057 2232.77,-372.32 2225.34,-364.773 2222.25,-371.057"/>
</g>
<!-- PayAndGo -->
<g id="node38" class="node"><title>PayAndGo</title>
<ellipse fill="none" stroke="black" cx="1335.49" cy="-369" rx="50.0912" ry="18"/>
<text text-anchor="middle" x="1335.49" y="-365.3" font-family="Times,serif" font-size="14.00">PayAndGo</text>
</g>
<!-- PayAndGo&#45;&gt;Static -->
<g id="edge37" class="edge"><title>PayAndGo&#45;&gt;Static</title>
<path fill="none" stroke="black" d="M1381.95,-375.77C1439.59,-381.975 1540.01,-384.633 1611.06,-342 1635.8,-327.16 1622.37,-302.9 1647.06,-288 1716.51,-246.104 1815.54,-249.354 1869.65,-255.267"/>
<polygon fill="black" stroke="black" points="1869.51,-258.775 1879.85,-256.473 1870.33,-251.823 1869.51,-258.775"/>
</g>
<!-- PayPerResource -->
<g id="node39" class="node"><title>PayPerResource</title>
<ellipse fill="none" stroke="black" cx="1335.49" cy="-315" rx="68.4888" ry="18"/>
<text text-anchor="middle" x="1335.49" y="-311.3" font-family="Times,serif" font-size="14.00">PayPerResource</text>
</g>
<!-- PayPerResource&#45;&gt;Static -->
<g id="edge38" class="edge"><title>PayPerResource&#45;&gt;Static</title>
<path fill="none" stroke="black" d="M1399.9,-309.015C1518.79,-297.794 1771.94,-273.902 1869.33,-264.71"/>
<polygon fill="black" stroke="black" points="1869.71,-268.19 1879.34,-263.765 1869.05,-261.221 1869.71,-268.19"/>
</g>
<!-- Subscription -->
<g id="node40" class="node"><title>Subscription</title>
<ellipse fill="none" stroke="black" cx="1335.49" cy="-261" rx="55.4913" ry="18"/>
<text text-anchor="middle" x="1335.49" y="-257.3" font-family="Times,serif" font-size="14.00">Subscription</text>
</g>
<!-- Subscription&#45;&gt;Static -->
<g id="edge39" class="edge"><title>Subscription&#45;&gt;Static</title>
<path fill="none" stroke="black" d="M1390.83,-261C1505.19,-261 1768.43,-261 1868.79,-261"/>
<polygon fill="black" stroke="black" points="1868.81,-264.5 1878.81,-261 1868.81,-257.5 1868.81,-264.5"/>
</g>
<!-- Hybrid -->
<g id="node41" class="node"><title>Hybrid</title>
<ellipse fill="none" stroke="black" cx="1335.49" cy="-207" rx="35.9954" ry="18"/>
<text text-anchor="middle" x="1335.49" y="-203.3" font-family="Times,serif" font-size="14.00">Hybrid</text>
</g>
<!-- Hybrid&#45;&gt;Static -->
<g id="edge40" class="edge"><title>Hybrid&#45;&gt;Static</title>
<path fill="none" stroke="black" d="M1370.99,-210.256C1471.41,-219.734 1763.13,-247.267 1869.36,-257.293"/>
<polygon fill="black" stroke="black" points="1869.06,-260.78 1879.34,-258.235 1869.72,-253.811 1869.06,-260.78"/>
</g>
<!-- Price -->
<g id="node42" class="node"><title>Price</title>
<ellipse fill="none" stroke="black" cx="2281.66" cy="-329" rx="28.6953" ry="18"/>
<text text-anchor="middle" x="2281.66" y="-325.3" font-family="Times,serif" font-size="14.00">Price</text>
</g>
<!-- Price&#45;&gt;Attribute -->
<g id="edge41" class="edge"><title>Price&#45;&gt;Attribute</title>
<path fill="none" stroke="black" d="M2309.73,-333.428C2324.79,-337.153 2342.9,-343.903 2355.1,-356 2403.89,-404.376 2422.4,-486.806 2428.99,-529.887"/>
<polygon fill="black" stroke="black" points="2425.55,-530.54 2430.42,-539.948 2432.48,-529.555 2425.55,-530.54"/>
</g>
<!-- Euro -->
<g id="node43" class="node"><title>Euro</title>
<ellipse fill="none" stroke="black" cx="1909.64" cy="-477" rx="27.8951" ry="18"/>
<text text-anchor="middle" x="1909.64" y="-473.3" font-family="Times,serif" font-size="14.00">Euro</text>
</g>
<!-- Euro&#45;&gt;NameAttribute -->
<g id="edge42" class="edge"><title>Euro&#45;&gt;NameAttribute</title>
<path fill="none" stroke="black" d="M1937.6,-476.638C1985.72,-476.679 2089.13,-479.889 2172.22,-504 2198.08,-511.506 2225.2,-525.013 2245.85,-536.641"/>
<polygon fill="black" stroke="black" points="2244.16,-539.703 2254.57,-541.654 2247.65,-533.635 2244.16,-539.703"/>
</g>
<!-- UsDollar -->
<g id="node44" class="node"><title>UsDollar</title>
<ellipse fill="none" stroke="black" cx="1909.64" cy="-423" rx="42.7926" ry="18"/>
<text text-anchor="middle" x="1909.64" y="-419.3" font-family="Times,serif" font-size="14.00">UsDollar</text>
</g>
<!-- UsDollar&#45;&gt;NameAttribute -->
<g id="edge43" class="edge"><title>UsDollar&#45;&gt;NameAttribute</title>
<path fill="none" stroke="black" d="M1951.87,-419.053C2005.4,-415.708 2100.45,-415.941 2172.22,-450 2210.82,-468.321 2243.72,-506.244 2262.85,-531.912"/>
<polygon fill="black" stroke="black" points="2260.08,-534.065 2268.79,-540.1 2265.75,-529.952 2260.08,-534.065"/>
</g>
<!-- JapaneseYen -->
<g id="node45" class="node"><title>JapaneseYen</title>
<ellipse fill="none" stroke="black" cx="1909.64" cy="-369" rx="56.59" ry="18"/>
<text text-anchor="middle" x="1909.64" y="-365.3" font-family="Times,serif" font-size="14.00">JapaneseYen</text>
</g>
<!-- JapaneseYen&#45;&gt;NameAttribute -->
<g id="edge44" class="edge"><title>JapaneseYen&#45;&gt;NameAttribute</title>
<path fill="none" stroke="black" d="M1962.09,-362.06C2017.94,-357.163 2107.78,-357.208 2172.22,-396 2223.64,-426.953 2255.85,-492.755 2270.8,-530.275"/>
<polygon fill="black" stroke="black" points="2267.7,-531.977 2274.56,-540.055 2274.24,-529.465 2267.7,-531.977"/>
</g>
<!-- DatabaseAsAService -->
<g id="node46" class="node"><title>DatabaseAsAService</title>
<ellipse fill="none" stroke="black" cx="1335.49" cy="-153" rx="85.2851" ry="18"/>
<text text-anchor="middle" x="1335.49" y="-149.3" font-family="Times,serif" font-size="14.00">DatabaseAsAService</text>
</g>
<!-- DatabaseAsAService&#45;&gt;SaaS -->
<g id="edge45" class="edge"><title>DatabaseAsAService&#45;&gt;SaaS</title>
<path fill="none" stroke="black" d="M1420.91,-153C1547.09,-153 1779.77,-153 1870.76,-153"/>
<polygon fill="black" stroke="black" points="1870.89,-156.5 1880.89,-153 1870.89,-149.5 1870.89,-156.5"/>
</g>
<!-- SQLDatabaseAsAService -->
<g id="node47" class="node"><title>SQLDatabaseAsAService</title>
<ellipse fill="none" stroke="black" cx="775.634" cy="-207" rx="102.082" ry="18"/>
<text text-anchor="middle" x="775.634" y="-203.3" font-family="Times,serif" font-size="14.00">SQLDatabaseAsAService</text>
</g>
<!-- SQLDatabaseAsAService&#45;&gt;DatabaseAsAService -->
<g id="edge46" class="edge"><title>SQLDatabaseAsAService&#45;&gt;DatabaseAsAService</title>
<path fill="none" stroke="black" d="M865.336,-198.414C970.209,-188.262 1143.61,-171.477 1247.66,-161.405"/>
<polygon fill="black" stroke="black" points="1248.2,-164.869 1257.82,-160.422 1247.52,-157.902 1248.2,-164.869"/>
</g>
<!-- NoSQLDatabaseAsAService -->
<g id="node48" class="node"><title>NoSQLDatabaseAsAService</title>
<ellipse fill="none" stroke="black" cx="775.634" cy="-153" rx="112.38" ry="18"/>
<text text-anchor="middle" x="775.634" y="-149.3" font-family="Times,serif" font-size="14.00">NoSQLDatabaseAsAService</text>
</g>
<!-- NoSQLDatabaseAsAService&#45;&gt;DatabaseAsAService -->
<g id="edge47" class="edge"><title>NoSQLDatabaseAsAService&#45;&gt;DatabaseAsAService</title>
<path fill="none" stroke="black" d="M888.184,-153C991.213,-153 1142.59,-153 1239.86,-153"/>
<polygon fill="black" stroke="black" points="1239.97,-156.5 1249.97,-153 1239.97,-149.5 1239.97,-156.5"/>
</g>
<!-- github.com/supermuesli/csdl@examples/Requirement1.py@latest -->
<g id="node49" class="node"><title>github.com/supermuesli/csdl@examples/Requirement1.py@latest</title>
<ellipse fill="none" stroke="black" cx="245.678" cy="-72" rx="245.857" ry="18"/>
<text text-anchor="middle" x="245.678" y="-68.3" font-family="Times,serif" font-size="14.00">github.com/supermuesli/csdl@examples/Requirement1.py@latest</text>
</g>
<!-- github.com/supermuesli/csdl@examples/Requirement1.py@latest&#45;&gt;VMAsAService -->
<g id="edge48" class="edge"><title>github.com/supermuesli/csdl@examples/Requirement1.py@latest&#45;&gt;VMAsAService</title>
<path fill="none" stroke="black" d="M447.782,-61.7154C535.605,-57.2241 633.286,-52.2286 698.791,-48.8787"/>
<polygon fill="black" stroke="black" points="699.214,-52.3617 709.022,-48.3555 698.856,-45.3709 699.214,-52.3617"/>
</g>
<!-- github.com/supermuesli/csdl@misc/StaticIp.py@latest -->
<g id="node50" class="node"><title>github.com/supermuesli/csdl@misc/StaticIp.py@latest</title>
<ellipse fill="none" stroke="black" cx="1909.64" cy="-1071" rx="206.063" ry="18"/>
<text text-anchor="middle" x="1909.64" y="-1067.3" font-family="Times,serif" font-size="14.00">github.com/supermuesli/csdl@misc/StaticIp.py@latest</text>
</g>
<!-- github.com/supermuesli/csdl@misc/StaticIp.py@latest&#45;&gt;NumericAttribute -->
<g id="edge49" class="edge"><title>github.com/supermuesli/csdl@misc/StaticIp.py@latest&#45;&gt;NumericAttribute</title>
<path fill="none" stroke="black" d="M2115.4,-1069.98C2135.84,-1076.2 2155.26,-1085.22 2172.22,-1098 2251.04,-1157.41 2272.72,-1283.44 2278.56,-1339.77"/>
<polygon fill="black" stroke="black" points="2275.08,-1340.13 2279.5,-1349.75 2282.05,-1339.47 2275.08,-1340.13"/>
</g>
<!-- github.com/supermuesli/csdl@aws/ec2/A1Large.py@latest -->
<g id="node51" class="node"><title>github.com/supermuesli/csdl@aws/ec2/A1Large.py@latest</title>
<ellipse fill="none" stroke="black" cx="245.678" cy="-18" rx="221.761" ry="18"/>
<text text-anchor="middle" x="245.678" y="-14.3" font-family="Times,serif" font-size="14.00">github.com/supermuesli/csdl@aws/ec2/A1Large.py@latest</text>
</g>
<!-- github.com/supermuesli/csdl@aws/ec2/A1Large.py@latest&#45;&gt;VMAsAService -->
<g id="edge50" class="edge"><title>github.com/supermuesli/csdl@aws/ec2/A1Large.py@latest&#45;&gt;VMAsAService</title>
<path fill="none" stroke="black" d="M433.559,-27.5572C524.834,-32.2251 629.59,-37.5823 698.656,-41.1144"/>
<polygon fill="black" stroke="black" points="698.838,-44.6282 709.004,-41.6436 699.195,-37.6373 698.838,-44.6282"/>
</g>
<!-- github.com/supermuesli/csdl@aws/regions/Region.py@latest -->
<g id="node52" class="node"><title>github.com/supermuesli/csdl@aws/regions/Region.py@latest</title>
<ellipse fill="none" stroke="black" cx="1335.49" cy="-1017" rx="229.359" ry="18"/>
<text text-anchor="middle" x="1335.49" y="-1013.3" font-family="Times,serif" font-size="14.00">github.com/supermuesli/csdl@aws/regions/Region.py@latest</text>
</g>
<!-- github.com/supermuesli/csdl@aws/regions/Region.py@latest&#45;&gt;Region -->
<g id="edge51" class="edge"><title>github.com/supermuesli/csdl@aws/regions/Region.py@latest&#45;&gt;Region</title>
<path fill="none" stroke="black" d="M1565.08,-1017C1675.65,-1017 1798.17,-1017 1862.83,-1017"/>
<polygon fill="black" stroke="black" points="1863.08,-1020.5 1873.08,-1017 1863.08,-1013.5 1863.08,-1020.5"/>
</g>
<!-- github.com/supermuesli/csdl@misc/countries/USA.py@latest -->
<g id="node53" class="node"><title>github.com/supermuesli/csdl@misc/countries/USA.py@latest</title>
<ellipse fill="none" stroke="black" cx="1335.49" cy="-855" rx="231.259" ry="18"/>
<text text-anchor="middle" x="1335.49" y="-851.3" font-family="Times,serif" font-size="14.00">github.com/supermuesli/csdl@misc/countries/USA.py@latest</text>
</g>
<!-- github.com/supermuesli/csdl@misc/countries/USA.py@latest&#45;&gt;NorthAmerica -->
<g id="edge52" class="edge"><title>github.com/supermuesli/csdl@misc/countries/USA.py@latest&#45;&gt;NorthAmerica</title>
<path fill="none" stroke="black" d="M1567.14,-855C1664.11,-855 1769.91,-855 1837.65,-855"/>
<polygon fill="black" stroke="black" points="1837.77,-858.5 1847.77,-855 1837.77,-851.5 1837.77,-858.5"/>
</g>
<!-- github.com/supermuesli/csdl@aws/regions/California.py@latest -->
<g id="node54" class="node"><title>github.com/supermuesli/csdl@aws/regions/California.py@latest</title>
<ellipse fill="none" stroke="black" cx="775.634" cy="-909" rx="239.358" ry="18"/>
<text text-anchor="middle" x="775.634" y="-905.3" font-family="Times,serif" font-size="14.00">github.com/supermuesli/csdl@aws/regions/California.py@latest</text>
</g>
<!-- github.com/supermuesli/csdl@aws/regions/California.py@latest&#45;&gt;github.com/supermuesli/csdl@misc/countries/USA.py@latest -->
<g id="edge53" class="edge"><title>github.com/supermuesli/csdl@aws/regions/California.py@latest&#45;&gt;github.com/supermuesli/csdl@misc/countries/USA.py@latest</title>
<path fill="none" stroke="black" d="M923.204,-894.812C1002.15,-887.171 1099.5,-877.747 1179.67,-869.986"/>
<polygon fill="black" stroke="black" points="1180.25,-873.447 1189.86,-869 1179.57,-866.479 1180.25,-873.447"/>
</g>
<!-- github.com/supermuesli/csdl@aws/regions/EastVirginia.py@latest -->
<g id="node55" class="node"><title>github.com/supermuesli/csdl@aws/regions/EastVirginia.py@latest</title>
<ellipse fill="none" stroke="black" cx="775.634" cy="-855" rx="248.056" ry="18"/>
<text text-anchor="middle" x="775.634" y="-851.3" font-family="Times,serif" font-size="14.00">github.com/supermuesli/csdl@aws/regions/EastVirginia.py@latest</text>
</g>
<!-- github.com/supermuesli/csdl@aws/regions/EastVirginia.py@latest&#45;&gt;github.com/supermuesli/csdl@misc/countries/USA.py@latest -->
<g id="edge54" class="edge"><title>github.com/supermuesli/csdl@aws/regions/EastVirginia.py@latest&#45;&gt;github.com/supermuesli/csdl@misc/countries/USA.py@latest</title>
<path fill="none" stroke="black" d="M1024.16,-855C1047.24,-855 1070.62,-855 1093.64,-855"/>
<polygon fill="black" stroke="black" points="1093.84,-858.5 1103.84,-855 1093.84,-851.5 1093.84,-858.5"/>
</g>
<!-- github.com/supermuesli/csdl@aws/regions/NewYork.py@latest -->
<g id="node56" class="node"><title>github.com/supermuesli/csdl@aws/regions/NewYork.py@latest</title>
<ellipse fill="none" stroke="black" cx="775.634" cy="-801" rx="238.558" ry="18"/>
<text text-anchor="middle" x="775.634" y="-797.3" font-family="Times,serif" font-size="14.00">github.com/supermuesli/csdl@aws/regions/NewYork.py@latest</text>
</g>
<!-- github.com/supermuesli/csdl@aws/regions/NewYork.py@latest&#45;&gt;github.com/supermuesli/csdl@misc/countries/USA.py@latest -->
<g id="edge55" class="edge"><title>github.com/supermuesli/csdl@aws/regions/NewYork.py@latest&#45;&gt;github.com/supermuesli/csdl@misc/countries/USA.py@latest</title>
<path fill="none" stroke="black" d="M923.204,-815.188C1002.15,-822.829 1099.5,-832.253 1179.67,-840.014"/>
<polygon fill="black" stroke="black" points="1179.57,-843.521 1189.86,-841 1180.25,-836.553 1179.57,-843.521"/>
</g>
<!-- github.com/supermuesli/csdl@aws/EBS.py@latest -->
<g id="node57" class="node"><title>github.com/supermuesli/csdl@aws/EBS.py@latest</title>
<ellipse fill="none" stroke="black" cx="775.634" cy="-99" rx="191.966" ry="18"/>
<text text-anchor="middle" x="775.634" y="-95.3" font-family="Times,serif" font-size="14.00">github.com/supermuesli/csdl@aws/EBS.py@latest</text>
</g>
<!-- github.com/supermuesli/csdl@aws/EBS.py@latest&#45;&gt;StorageAsAService -->
<g id="edge56" class="edge"><title>github.com/supermuesli/csdl@aws/EBS.py@latest&#45;&gt;StorageAsAService</title>
<path fill="none" stroke="black" d="M967.445,-99C1061.47,-99 1170.37,-99 1244.99,-99"/>
<polygon fill="black" stroke="black" points="1245.29,-102.5 1255.29,-99 1245.29,-95.5001 1245.29,-102.5"/>
</g>
<!-- github.com/supermuesli/csdl@aws/ec2/ElasticIpAmount.py@latest -->
<g id="node58" class="node"><title>github.com/supermuesli/csdl@aws/ec2/ElasticIpAmount.py@latest</title>
<ellipse fill="none" stroke="black" cx="1335.49" cy="-1071" rx="250.756" ry="18"/>
<text text-anchor="middle" x="1335.49" y="-1067.3" font-family="Times,serif" font-size="14.00">github.com/supermuesli/csdl@aws/ec2/ElasticIpAmount.py@latest</text>
</g>
<!-- github.com/supermuesli/csdl@aws/ec2/ElasticIpAmount.py@latest&#45;&gt;github.com/supermuesli/csdl@misc/StaticIp.py@latest -->
<g id="edge57" class="edge"><title>github.com/supermuesli/csdl@aws/ec2/ElasticIpAmount.py@latest&#45;&gt;github.com/supermuesli/csdl@misc/StaticIp.py@latest</title>
<path fill="none" stroke="black" d="M1586.61,-1071C1622.05,-1071 1658.24,-1071 1692.96,-1071"/>
<polygon fill="black" stroke="black" points="1693.19,-1074.5 1703.19,-1071 1693.19,-1067.5 1693.19,-1074.5"/>
</g>
<!-- github.com/supermuesli/csdl@misc/currencies/FeritsCurrencies.py@latest -->
<g id="node59" class="node"><title>github.com/supermuesli/csdl@misc/currencies/FeritsCurrencies.py@latest</title>
<ellipse fill="none" stroke="black" cx="1335.49" cy="-963" rx="275.651" ry="18"/>
<text text-anchor="middle" x="1335.49" y="-959.3" font-family="Times,serif" font-size="14.00">github.com/supermuesli/csdl@misc/currencies/FeritsCurrencies.py@latest</text>
</g>
<!-- github.com/supermuesli/csdl@misc/currencies/FeritsCurrencies.py@latest&#45;&gt;Currency -->
<g id="edge58" class="edge"><title>github.com/supermuesli/csdl@misc/currencies/FeritsCurrencies.py@latest&#45;&gt;Currency</title>
<path fill="none" stroke="black" d="M1611.25,-963C1704.32,-963 1798.98,-963 1855.76,-963"/>
<polygon fill="black" stroke="black" points="1855.91,-966.5 1865.91,-963 1855.91,-959.5 1855.91,-966.5"/>
</g>
<!-- github.com/supermuesli/csdl@misc/currencies/IndianRupee.py@latest -->
<g id="node60" class="node"><title>github.com/supermuesli/csdl@misc/currencies/IndianRupee.py@latest</title>
<ellipse fill="none" stroke="black" cx="1909.64" cy="-315" rx="262.653" ry="18"/>
<text text-anchor="middle" x="1909.64" y="-311.3" font-family="Times,serif" font-size="14.00">github.com/supermuesli/csdl@misc/currencies/IndianRupee.py@latest</text>
</g>
<!-- github.com/supermuesli/csdl@misc/currencies/IndianRupee.py@latest&#45;&gt;NameAttribute -->
<g id="edge59" class="edge"><title>github.com/supermuesli/csdl@misc/currencies/IndianRupee.py@latest&#45;&gt;NameAttribute</title>
<path fill="none" stroke="black" d="M2138.8,-323.953C2150.55,-328.849 2161.79,-334.803 2172.22,-342 2176.5,-344.958 2239.35,-473.214 2267.36,-530.665"/>
<polygon fill="black" stroke="black" points="2264.33,-532.43 2271.85,-539.887 2270.62,-529.364 2264.33,-532.43"/>
</g>
</g>
</svg>
