<?xml version="1.0" encoding="UTF-8" standalone="no"?>
<!DOCTYPE svg PUBLIC "-//W3C//DTD SVG 1.1//EN"
 "http://www.w3.org/Graphics/SVG/1.1/DTD/svg11.dtd">
<!-- Generated by graphviz version 2.38.0 (20140413.2041)
 -->
<!-- Title: %3 Pages: 1 -->
<svg width="2309pt" height="1394pt"
 viewBox="0.00 0.00 2309.01 1394.00" xmlns="http://www.w3.org/2000/svg" xmlns:xlink="http://www.w3.org/1999/xlink">
<g id="graph0" class="graph" transform="scale(1 1) rotate(0) translate(4 1390)">
<title>%3</title>
<polygon fill="white" stroke="none" points="-4,4 -4,-1390 2305.01,-1390 2305.01,4 -4,4"/>
<!-- VMAsAService -->
<g id="node1" class="node"><title>VMAsAService</title>
<ellipse fill="none" stroke="black" cx="719.089" cy="-45" rx="67.6881" ry="18"/>
<text text-anchor="middle" x="719.089" y="-41.3" font-family="Times,serif" font-size="14.00">VMAsAService</text>
</g>
<!-- ServerAsAService -->
<g id="node2" class="node"><title>ServerAsAService</title>
<ellipse fill="none" stroke="black" cx="1197.7" cy="-45" rx="76.0865" ry="18"/>
<text text-anchor="middle" x="1197.7" y="-41.3" font-family="Times,serif" font-size="14.00">ServerAsAService</text>
</g>
<!-- VMAsAService&#45;&gt;ServerAsAService -->
<g id="edge1" class="edge"><title>VMAsAService&#45;&gt;ServerAsAService</title>
<path fill="none" stroke="black" d="M786.862,-45C871.684,-45 1018.18,-45 1111.12,-45"/>
<polygon fill="black" stroke="black" points="1111.34,-48.5001 1121.34,-45 1111.34,-41.5001 1111.34,-48.5001"/>
</g>
<!-- IaaS -->
<g id="node3" class="node"><title>IaaS</title>
<ellipse fill="none" stroke="black" cx="1690.61" cy="-72" rx="27" ry="18"/>
<text text-anchor="middle" x="1690.61" y="-68.3" font-family="Times,serif" font-size="14.00">IaaS</text>
</g>
<!-- ServerAsAService&#45;&gt;IaaS -->
<g id="edge2" class="edge"><title>ServerAsAService&#45;&gt;IaaS</title>
<path fill="none" stroke="black" d="M1271.93,-49.0276C1378.73,-54.9014 1573.21,-65.5979 1653.48,-70.0127"/>
<polygon fill="black" stroke="black" points="1653.4,-73.5138 1663.58,-70.5684 1653.79,-66.5244 1653.4,-73.5138"/>
</g>
<!-- CCS -->
<g id="node5" class="node"><title>CCS</title>
<ellipse fill="none" stroke="black" cx="2006.08" cy="-126" rx="27.0966" ry="18"/>
<text text-anchor="middle" x="2006.08" y="-122.3" font-family="Times,serif" font-size="14.00">CCS</text>
</g>
<!-- IaaS&#45;&gt;CCS -->
<g id="edge4" class="edge"><title>IaaS&#45;&gt;CCS</title>
<path fill="none" stroke="black" d="M1717.65,-74.4757C1756.74,-78.4062 1832.8,-86.8883 1896.64,-99 1921.7,-103.755 1949.63,-110.748 1970.86,-116.426"/>
<polygon fill="black" stroke="black" points="1970.14,-119.856 1980.71,-119.092 1971.97,-113.099 1970.14,-119.856"/>
</g>
<!-- SaaS -->
<g id="node4" class="node"><title>SaaS</title>
<ellipse fill="none" stroke="black" cx="1690.61" cy="-126" rx="28.6953" ry="18"/>
<text text-anchor="middle" x="1690.61" y="-122.3" font-family="Times,serif" font-size="14.00">SaaS</text>
</g>
<!-- SaaS&#45;&gt;CCS -->
<g id="edge3" class="edge"><title>SaaS&#45;&gt;CCS</title>
<path fill="none" stroke="black" d="M1719.43,-126C1776.09,-126 1904.86,-126 1968.33,-126"/>
<polygon fill="black" stroke="black" points="1968.66,-129.5 1978.66,-126 1968.66,-122.5 1968.66,-129.5"/>
</g>
<!-- Attribute -->
<g id="node8" class="node"><title>Attribute</title>
<ellipse fill="none" stroke="black" cx="2157.77" cy="-477" rx="42.4939" ry="18"/>
<text text-anchor="middle" x="2157.77" y="-473.3" font-family="Times,serif" font-size="14.00">Attribute</text>
</g>
<!-- CCS&#45;&gt;Attribute -->
<g id="edge10" class="edge"><title>CCS&#45;&gt;Attribute</title>
<path fill="none" stroke="black" d="M2014.51,-143.406C2038.74,-200.231 2115.67,-380.62 2145.14,-449.712"/>
<polygon fill="black" stroke="black" points="2141.99,-451.245 2149.13,-459.071 2148.42,-448.499 2141.99,-451.245"/>
</g>
<!-- StorageAsAService -->
<g id="node6" class="node"><title>StorageAsAService</title>
<ellipse fill="none" stroke="black" cx="1197.7" cy="-99" rx="79.8859" ry="18"/>
<text text-anchor="middle" x="1197.7" y="-95.3" font-family="Times,serif" font-size="14.00">StorageAsAService</text>
</g>
<!-- StorageAsAService&#45;&gt;IaaS -->
<g id="edge5" class="edge"><title>StorageAsAService&#45;&gt;IaaS</title>
<path fill="none" stroke="black" d="M1275.67,-94.7664C1383.23,-88.8507 1574.2,-78.3473 1653.52,-73.985"/>
<polygon fill="black" stroke="black" points="1653.72,-77.4795 1663.51,-73.4356 1653.33,-70.4901 1653.72,-77.4795"/>
</g>
<!-- NumericAttribute -->
<g id="node7" class="node"><title>NumericAttribute</title>
<ellipse fill="none" stroke="black" cx="2006.08" cy="-1017" rx="73.387" ry="18"/>
<text text-anchor="middle" x="2006.08" y="-1013.3" font-family="Times,serif" font-size="14.00">NumericAttribute</text>
</g>
<!-- NumericAttribute&#45;&gt;Attribute -->
<g id="edge6" class="edge"><title>NumericAttribute&#45;&gt;Attribute</title>
<path fill="none" stroke="black" d="M2012.07,-999.033C2034.02,-919.833 2122.25,-601.544 2149.03,-504.94"/>
<polygon fill="black" stroke="black" points="2152.48,-505.606 2151.78,-495.034 2145.73,-503.736 2152.48,-505.606"/>
</g>
<!-- object -->
<g id="node12" class="node"><title>object</title>
<ellipse fill="none" stroke="black" cx="2268.52" cy="-477" rx="32.4942" ry="18"/>
<text text-anchor="middle" x="2268.52" y="-473.3" font-family="Times,serif" font-size="14.00">object</text>
</g>
<!-- Attribute&#45;&gt;object -->
<g id="edge11" class="edge"><title>Attribute&#45;&gt;object</title>
<path fill="none" stroke="black" d="M2200.2,-477C2208.47,-477 2217.16,-477 2225.46,-477"/>
<polygon fill="black" stroke="black" points="2225.68,-480.5 2235.68,-477 2225.68,-473.5 2225.68,-480.5"/>
</g>
<!-- ChoiceAttribute -->
<g id="node9" class="node"><title>ChoiceAttribute</title>
<ellipse fill="none" stroke="black" cx="2006.08" cy="-585" rx="67.6881" ry="18"/>
<text text-anchor="middle" x="2006.08" y="-581.3" font-family="Times,serif" font-size="14.00">ChoiceAttribute</text>
</g>
<!-- ChoiceAttribute&#45;&gt;Attribute -->
<g id="edge7" class="edge"><title>ChoiceAttribute&#45;&gt;Attribute</title>
<path fill="none" stroke="black" d="M2030.47,-568.125C2056.56,-549.307 2098.79,-518.832 2127.16,-498.366"/>
<polygon fill="black" stroke="black" points="2129.42,-501.048 2135.49,-492.359 2125.33,-495.372 2129.42,-501.048"/>
</g>
<!-- BoolAttribute -->
<g id="node10" class="node"><title>BoolAttribute</title>
<ellipse fill="none" stroke="black" cx="2006.08" cy="-477" rx="59.5901" ry="18"/>
<text text-anchor="middle" x="2006.08" y="-473.3" font-family="Times,serif" font-size="14.00">BoolAttribute</text>
</g>
<!-- BoolAttribute&#45;&gt;Attribute -->
<g id="edge8" class="edge"><title>BoolAttribute&#45;&gt;Attribute</title>
<path fill="none" stroke="black" d="M2066.25,-477C2079.01,-477 2092.42,-477 2104.89,-477"/>
<polygon fill="black" stroke="black" points="2105.1,-480.5 2115.1,-477 2105.1,-473.5 2105.1,-480.5"/>
</g>
<!-- NameAttribute -->
<g id="node11" class="node"><title>NameAttribute</title>
<ellipse fill="none" stroke="black" cx="2006.08" cy="-369" rx="63.8893" ry="18"/>
<text text-anchor="middle" x="2006.08" y="-365.3" font-family="Times,serif" font-size="14.00">NameAttribute</text>
</g>
<!-- NameAttribute&#45;&gt;Attribute -->
<g id="edge9" class="edge"><title>NameAttribute&#45;&gt;Attribute</title>
<path fill="none" stroke="black" d="M2030.47,-385.875C2056.56,-404.693 2098.79,-435.168 2127.16,-455.634"/>
<polygon fill="black" stroke="black" points="2125.33,-458.628 2135.49,-461.641 2129.42,-452.952 2125.33,-458.628"/>
</g>
<!-- Region -->
<g id="node13" class="node"><title>Region</title>
<ellipse fill="none" stroke="black" cx="1690.61" cy="-666" rx="36.2938" ry="18"/>
<text text-anchor="middle" x="1690.61" y="-662.3" font-family="Times,serif" font-size="14.00">Region</text>
</g>
<!-- Region&#45;&gt;ChoiceAttribute -->
<g id="edge12" class="edge"><title>Region&#45;&gt;ChoiceAttribute</title>
<path fill="none" stroke="black" d="M1727.19,-664.869C1768.68,-662.743 1838.96,-656.622 1896.64,-639 1922.05,-631.239 1948.78,-617.991 1969.35,-606.56"/>
<polygon fill="black" stroke="black" points="1971.08,-609.604 1978.05,-601.628 1967.63,-603.514 1971.08,-609.604"/>
</g>
<!-- NorthAmerica -->
<g id="node14" class="node"><title>NorthAmerica</title>
<ellipse fill="none" stroke="black" cx="1690.61" cy="-504" rx="61.99" ry="18"/>
<text text-anchor="middle" x="1690.61" y="-500.3" font-family="Times,serif" font-size="14.00">NorthAmerica</text>
</g>
<!-- NorthAmerica&#45;&gt;NameAttribute -->
<g id="edge13" class="edge"><title>NorthAmerica&#45;&gt;NameAttribute</title>
<path fill="none" stroke="black" d="M1751.97,-506.059C1794.45,-505.181 1851.54,-499.186 1896.64,-477 1916.8,-467.084 1957.64,-423.144 1983.05,-394.457"/>
<polygon fill="black" stroke="black" points="1985.8,-396.631 1989.78,-386.811 1980.54,-392.007 1985.8,-396.631"/>
</g>
<!-- Australia -->
<g id="node15" class="node"><title>Australia</title>
<ellipse fill="none" stroke="black" cx="1690.61" cy="-450" rx="42.7926" ry="18"/>
<text text-anchor="middle" x="1690.61" y="-446.3" font-family="Times,serif" font-size="14.00">Australia</text>
</g>
<!-- Australia&#45;&gt;NameAttribute -->
<g id="edge14" class="edge"><title>Australia&#45;&gt;NameAttribute</title>
<path fill="none" stroke="black" d="M1733.7,-448.514C1775.76,-446.094 1841.87,-439.73 1896.64,-423 1922.22,-415.185 1949.15,-401.808 1969.77,-390.323"/>
<polygon fill="black" stroke="black" points="1971.52,-393.355 1978.49,-385.373 1968.07,-387.268 1971.52,-393.355"/>
</g>
<!-- Africa -->
<g id="node16" class="node"><title>Africa</title>
<ellipse fill="none" stroke="black" cx="1690.61" cy="-396" rx="33.2948" ry="18"/>
<text text-anchor="middle" x="1690.61" y="-392.3" font-family="Times,serif" font-size="14.00">Africa</text>
</g>
<!-- Africa&#45;&gt;NameAttribute -->
<g id="edge15" class="edge"><title>Africa&#45;&gt;NameAttribute</title>
<path fill="none" stroke="black" d="M1723.39,-393.263C1772.59,-389.025 1868.41,-380.772 1934.53,-375.077"/>
<polygon fill="black" stroke="black" points="1935.21,-378.531 1944.87,-374.186 1934.61,-371.557 1935.21,-378.531"/>
</g>
<!-- EastAsia -->
<g id="node17" class="node"><title>EastAsia</title>
<ellipse fill="none" stroke="black" cx="1690.61" cy="-342" rx="42.4939" ry="18"/>
<text text-anchor="middle" x="1690.61" y="-338.3" font-family="Times,serif" font-size="14.00">EastAsia</text>
</g>
<!-- EastAsia&#45;&gt;NameAttribute -->
<g id="edge16" class="edge"><title>EastAsia&#45;&gt;NameAttribute</title>
<path fill="none" stroke="black" d="M1732.27,-345.502C1783.51,-349.915 1872.39,-357.571 1934.74,-362.942"/>
<polygon fill="black" stroke="black" points="1934.64,-366.445 1944.9,-363.816 1935.24,-359.471 1934.64,-366.445"/>
</g>
<!-- SouthAmerica -->
<g id="node18" class="node"><title>SouthAmerica</title>
<ellipse fill="none" stroke="black" cx="1690.61" cy="-288" rx="61.99" ry="18"/>
<text text-anchor="middle" x="1690.61" y="-284.3" font-family="Times,serif" font-size="14.00">SouthAmerica</text>
</g>
<!-- SouthAmerica&#45;&gt;NameAttribute -->
<g id="edge17" class="edge"><title>SouthAmerica&#45;&gt;NameAttribute</title>
<path fill="none" stroke="black" d="M1751.93,-290.695C1793.38,-293.81 1849.26,-300.525 1896.64,-315 1922.22,-322.815 1949.15,-336.192 1969.77,-347.677"/>
<polygon fill="black" stroke="black" points="1968.07,-350.732 1978.49,-352.627 1971.52,-344.645 1968.07,-350.732"/>
</g>
<!-- Europe -->
<g id="node19" class="node"><title>Europe</title>
<ellipse fill="none" stroke="black" cx="1690.61" cy="-234" rx="36.2938" ry="18"/>
<text text-anchor="middle" x="1690.61" y="-230.3" font-family="Times,serif" font-size="14.00">Europe</text>
</g>
<!-- Europe&#45;&gt;NameAttribute -->
<g id="edge18" class="edge"><title>Europe&#45;&gt;NameAttribute</title>
<path fill="none" stroke="black" d="M1726.94,-231.973C1769.43,-230.993 1841.87,-234.06 1896.64,-261 1934.99,-279.861 1967.95,-317.646 1987.16,-343.136"/>
<polygon fill="black" stroke="black" points="1984.39,-345.28 1993.14,-351.263 1990.03,-341.133 1984.39,-345.28"/>
</g>
<!-- Antarctica -->
<g id="node20" class="node"><title>Antarctica</title>
<ellipse fill="none" stroke="black" cx="1690.61" cy="-180" rx="47.3916" ry="18"/>
<text text-anchor="middle" x="1690.61" y="-176.3" font-family="Times,serif" font-size="14.00">Antarctica</text>
</g>
<!-- Antarctica&#45;&gt;NameAttribute -->
<g id="edge19" class="edge"><title>Antarctica&#45;&gt;NameAttribute</title>
<path fill="none" stroke="black" d="M1736.73,-175.716C1780.8,-173.755 1848.15,-176.874 1896.64,-207 1947.49,-238.59 1979.84,-303.859 1994.98,-341.19"/>
<polygon fill="black" stroke="black" points="1991.89,-342.893 1998.8,-350.927 1998.41,-340.339 1991.89,-342.893"/>
</g>
<!-- Currency -->
<g id="node21" class="node"><title>Currency</title>
<ellipse fill="none" stroke="black" cx="1690.61" cy="-612" rx="43.5923" ry="18"/>
<text text-anchor="middle" x="1690.61" y="-608.3" font-family="Times,serif" font-size="14.00">Currency</text>
</g>
<!-- Currency&#45;&gt;ChoiceAttribute -->
<g id="edge20" class="edge"><title>Currency&#45;&gt;ChoiceAttribute</title>
<path fill="none" stroke="black" d="M1733.56,-608.387C1784.05,-604.038 1869.73,-596.658 1931.35,-591.351"/>
<polygon fill="black" stroke="black" points="1931.74,-594.83 1941.4,-590.485 1931.14,-587.856 1931.74,-594.83"/>
</g>
<!-- Storage -->
<g id="node22" class="node"><title>Storage</title>
<ellipse fill="none" stroke="black" cx="1690.61" cy="-1368" rx="37.8943" ry="18"/>
<text text-anchor="middle" x="1690.61" y="-1364.3" font-family="Times,serif" font-size="14.00">Storage</text>
</g>
<!-- Storage&#45;&gt;NumericAttribute -->
<g id="edge21" class="edge"><title>Storage&#45;&gt;NumericAttribute</title>
<path fill="none" stroke="black" d="M1726.4,-1373.69C1771.04,-1378.93 1848.44,-1380.74 1896.64,-1341 1988.37,-1265.39 2002.94,-1109.6 2004.94,-1045.51"/>
<polygon fill="black" stroke="black" points="2008.44,-1045.41 2005.18,-1035.34 2001.45,-1045.25 2008.44,-1045.41"/>
</g>
<!-- StorageWriteSpeed -->
<g id="node23" class="node"><title>StorageWriteSpeed</title>
<ellipse fill="none" stroke="black" cx="1690.61" cy="-1314" rx="79.0865" ry="18"/>
<text text-anchor="middle" x="1690.61" y="-1310.3" font-family="Times,serif" font-size="14.00">StorageWriteSpeed</text>
</g>
<!-- StorageWriteSpeed&#45;&gt;NumericAttribute -->
<g id="edge22" class="edge"><title>StorageWriteSpeed&#45;&gt;NumericAttribute</title>
<path fill="none" stroke="black" d="M1762.97,-1321.58C1805.86,-1322.32 1859.2,-1316.05 1896.64,-1287 1974.46,-1226.61 1996.65,-1101.56 2002.8,-1045.4"/>
<polygon fill="black" stroke="black" points="2006.32,-1045.42 2003.83,-1035.12 1999.35,-1044.73 2006.32,-1045.42"/>
</g>
<!-- StorageReadSpeed -->
<g id="node24" class="node"><title>StorageReadSpeed</title>
<ellipse fill="none" stroke="black" cx="1690.61" cy="-1260" rx="77.1866" ry="18"/>
<text text-anchor="middle" x="1690.61" y="-1256.3" font-family="Times,serif" font-size="14.00">StorageReadSpeed</text>
</g>
<!-- StorageReadSpeed&#45;&gt;NumericAttribute -->
<g id="edge23" class="edge"><title>StorageReadSpeed&#45;&gt;NumericAttribute</title>
<path fill="none" stroke="black" d="M1763.11,-1266.47C1805.52,-1266.69 1858.31,-1260.26 1896.64,-1233 1960.86,-1187.33 1989.22,-1092.43 1999.77,-1045.1"/>
<polygon fill="black" stroke="black" points="2003.21,-1045.73 2001.86,-1035.22 1996.37,-1044.28 2003.21,-1045.73"/>
</g>
<!-- OperatingSystem -->
<g id="node25" class="node"><title>OperatingSystem</title>
<ellipse fill="none" stroke="black" cx="1690.61" cy="-558" rx="72.2875" ry="18"/>
<text text-anchor="middle" x="1690.61" y="-554.3" font-family="Times,serif" font-size="14.00">OperatingSystem</text>
</g>
<!-- OperatingSystem&#45;&gt;ChoiceAttribute -->
<g id="edge24" class="edge"><title>OperatingSystem&#45;&gt;ChoiceAttribute</title>
<path fill="none" stroke="black" d="M1759.24,-563.825C1809.95,-568.193 1879.28,-574.165 1931.4,-578.653"/>
<polygon fill="black" stroke="black" points="1931.32,-582.159 1941.58,-579.53 1931.92,-575.185 1931.32,-582.159"/>
</g>
<!-- CpuCores -->
<g id="node26" class="node"><title>CpuCores</title>
<ellipse fill="none" stroke="black" cx="1690.61" cy="-1206" rx="46.2923" ry="18"/>
<text text-anchor="middle" x="1690.61" y="-1202.3" font-family="Times,serif" font-size="14.00">CpuCores</text>
</g>
<!-- CpuCores&#45;&gt;NumericAttribute -->
<g id="edge25" class="edge"><title>CpuCores&#45;&gt;NumericAttribute</title>
<path fill="none" stroke="black" d="M1735.49,-1210.23C1779.53,-1212.3 1847.69,-1209.41 1896.64,-1179 1947.49,-1147.41 1979.84,-1082.14 1994.98,-1044.81"/>
<polygon fill="black" stroke="black" points="1998.41,-1045.66 1998.8,-1035.07 1991.89,-1043.11 1998.41,-1045.66"/>
</g>
<!-- CpuClockSpeed -->
<g id="node27" class="node"><title>CpuClockSpeed</title>
<ellipse fill="none" stroke="black" cx="1690.61" cy="-1152" rx="67.6881" ry="18"/>
<text text-anchor="middle" x="1690.61" y="-1148.3" font-family="Times,serif" font-size="14.00">CpuClockSpeed</text>
</g>
<!-- CpuClockSpeed&#45;&gt;NumericAttribute -->
<g id="edge26" class="edge"><title>CpuClockSpeed&#45;&gt;NumericAttribute</title>
<path fill="none" stroke="black" d="M1757.98,-1153.9C1799.72,-1152.59 1853.63,-1146.16 1896.64,-1125 1934.99,-1106.14 1967.95,-1068.35 1987.16,-1042.86"/>
<polygon fill="black" stroke="black" points="1990.03,-1044.87 1993.14,-1034.74 1984.39,-1040.72 1990.03,-1044.87"/>
</g>
<!-- Ram -->
<g id="node28" class="node"><title>Ram</title>
<ellipse fill="none" stroke="black" cx="1690.61" cy="-1098" rx="27.8951" ry="18"/>
<text text-anchor="middle" x="1690.61" y="-1094.3" font-family="Times,serif" font-size="14.00">Ram</text>
</g>
<!-- Ram&#45;&gt;NumericAttribute -->
<g id="edge27" class="edge"><title>Ram&#45;&gt;NumericAttribute</title>
<path fill="none" stroke="black" d="M1718.75,-1097.27C1758.58,-1095.56 1834.84,-1089.88 1896.64,-1071 1921.76,-1063.33 1948.18,-1050.29 1968.65,-1038.95"/>
<polygon fill="black" stroke="black" points="1970.63,-1041.85 1977.61,-1033.88 1967.18,-1035.76 1970.63,-1041.85"/>
</g>
<!-- RamClockSpeed -->
<g id="node29" class="node"><title>RamClockSpeed</title>
<ellipse fill="none" stroke="black" cx="1690.61" cy="-1044" rx="70.3881" ry="18"/>
<text text-anchor="middle" x="1690.61" y="-1040.3" font-family="Times,serif" font-size="14.00">RamClockSpeed</text>
</g>
<!-- RamClockSpeed&#45;&gt;NumericAttribute -->
<g id="edge28" class="edge"><title>RamClockSpeed&#45;&gt;NumericAttribute</title>
<path fill="none" stroke="black" d="M1757.32,-1038.34C1806.56,-1034.1 1874.12,-1028.28 1926.26,-1023.79"/>
<polygon fill="black" stroke="black" points="1926.81,-1027.25 1936.47,-1022.91 1926.21,-1020.28 1926.81,-1027.25"/>
</g>
<!-- RamWriteSpeed -->
<g id="node30" class="node"><title>RamWriteSpeed</title>
<ellipse fill="none" stroke="black" cx="1690.61" cy="-990" rx="69.5877" ry="18"/>
<text text-anchor="middle" x="1690.61" y="-986.3" font-family="Times,serif" font-size="14.00">RamWriteSpeed</text>
</g>
<!-- RamWriteSpeed&#45;&gt;NumericAttribute -->
<g id="edge29" class="edge"><title>RamWriteSpeed&#45;&gt;NumericAttribute</title>
<path fill="none" stroke="black" d="M1756.94,-995.627C1806.23,-999.872 1874.06,-1005.71 1926.34,-1010.22"/>
<polygon fill="black" stroke="black" points="1926.32,-1013.73 1936.58,-1011.1 1926.92,-1006.75 1926.32,-1013.73"/>
</g>
<!-- RamReadSpeed -->
<g id="node31" class="node"><title>RamReadSpeed</title>
<ellipse fill="none" stroke="black" cx="1690.61" cy="-936" rx="67.6881" ry="18"/>
<text text-anchor="middle" x="1690.61" y="-932.3" font-family="Times,serif" font-size="14.00">RamReadSpeed</text>
</g>
<!-- RamReadSpeed&#45;&gt;NumericAttribute -->
<g id="edge30" class="edge"><title>RamReadSpeed&#45;&gt;NumericAttribute</title>
<path fill="none" stroke="black" d="M1757.42,-939.122C1798.22,-942.409 1851.32,-949.154 1896.64,-963 1921.76,-970.673 1948.18,-983.709 1968.65,-995.051"/>
<polygon fill="black" stroke="black" points="1967.18,-998.242 1977.61,-1000.12 1970.63,-992.149 1967.18,-998.242"/>
</g>
<!-- NetworkCapacity -->
<g id="node32" class="node"><title>NetworkCapacity</title>
<ellipse fill="none" stroke="black" cx="1690.61" cy="-882" rx="72.5877" ry="18"/>
<text text-anchor="middle" x="1690.61" y="-878.3" font-family="Times,serif" font-size="14.00">NetworkCapacity</text>
</g>
<!-- NetworkCapacity&#45;&gt;NumericAttribute -->
<g id="edge31" class="edge"><title>NetworkCapacity&#45;&gt;NumericAttribute</title>
<path fill="none" stroke="black" d="M1763.2,-880.287C1804.15,-881.966 1855.4,-888.716 1896.64,-909 1934.99,-927.861 1967.95,-965.646 1987.16,-991.136"/>
<polygon fill="black" stroke="black" points="1984.39,-993.28 1993.14,-999.263 1990.03,-989.133 1984.39,-993.28"/>
</g>
<!-- NetworkUploadSpeed -->
<g id="node33" class="node"><title>NetworkUploadSpeed</title>
<ellipse fill="none" stroke="black" cx="1690.61" cy="-828" rx="89.0842" ry="18"/>
<text text-anchor="middle" x="1690.61" y="-824.3" font-family="Times,serif" font-size="14.00">NetworkUploadSpeed</text>
</g>
<!-- NetworkUploadSpeed&#45;&gt;NumericAttribute -->
<g id="edge32" class="edge"><title>NetworkUploadSpeed&#45;&gt;NumericAttribute</title>
<path fill="none" stroke="black" d="M1777.27,-823.696C1816.24,-825.483 1861.42,-833.116 1896.64,-855 1947.49,-886.59 1979.84,-951.859 1994.98,-989.19"/>
<polygon fill="black" stroke="black" points="1991.89,-990.893 1998.8,-998.927 1998.41,-988.339 1991.89,-990.893"/>
</g>
<!-- NetworkDownloadSpeed -->
<g id="node34" class="node"><title>NetworkDownloadSpeed</title>
<ellipse fill="none" stroke="black" cx="1690.61" cy="-774" rx="99.3824" ry="18"/>
<text text-anchor="middle" x="1690.61" y="-770.3" font-family="Times,serif" font-size="14.00">NetworkDownloadSpeed</text>
</g>
<!-- NetworkDownloadSpeed&#45;&gt;NumericAttribute -->
<g id="edge33" class="edge"><title>NetworkDownloadSpeed&#45;&gt;NumericAttribute</title>
<path fill="none" stroke="black" d="M1784.46,-768.007C1822.27,-769.944 1864.53,-778.162 1896.64,-801 1960.86,-846.672 1989.22,-941.574 1999.77,-988.9"/>
<polygon fill="black" stroke="black" points="1996.37,-989.724 2001.86,-998.78 2003.21,-988.271 1996.37,-989.724"/>
</g>
<!-- github.com/supermuesli/csdl@examples/Requirement1.py@latest -->
<g id="node35" class="node"><title>github.com/supermuesli/csdl@examples/Requirement1.py@latest</title>
<ellipse fill="none" stroke="black" cx="245.678" cy="-72" rx="245.857" ry="18"/>
<text text-anchor="middle" x="245.678" y="-68.3" font-family="Times,serif" font-size="14.00">github.com/supermuesli/csdl@examples/Requirement1.py@latest</text>
</g>
<!-- github.com/supermuesli/csdl@examples/Requirement1.py@latest&#45;&gt;VMAsAService -->
<g id="edge34" class="edge"><title>github.com/supermuesli/csdl@examples/Requirement1.py@latest&#45;&gt;VMAsAService</title>
<path fill="none" stroke="black" d="M439.779,-60.9402C511.084,-56.8562 587.769,-52.4641 642.55,-49.3265"/>
<polygon fill="black" stroke="black" points="643.078,-52.8021 652.862,-48.7359 642.678,-45.8135 643.078,-52.8021"/>
</g>
<!-- github.com/supermuesli/csdl@misc/StaticIp.py@latest -->
<g id="node36" class="node"><title>github.com/supermuesli/csdl@misc/StaticIp.py@latest</title>
<ellipse fill="none" stroke="black" cx="1690.61" cy="-720" rx="206.063" ry="18"/>
<text text-anchor="middle" x="1690.61" y="-716.3" font-family="Times,serif" font-size="14.00">github.com/supermuesli/csdl@misc/StaticIp.py@latest</text>
</g>
<!-- github.com/supermuesli/csdl@misc/StaticIp.py@latest&#45;&gt;NumericAttribute -->
<g id="edge35" class="edge"><title>github.com/supermuesli/csdl@misc/StaticIp.py@latest&#45;&gt;NumericAttribute</title>
<path fill="none" stroke="black" d="M1866.49,-729.448C1877.24,-734.075 1887.42,-739.847 1896.64,-747 1974.46,-807.387 1996.65,-932.436 2002.8,-988.601"/>
<polygon fill="black" stroke="black" points="1999.35,-989.275 2003.83,-998.877 2006.32,-988.578 1999.35,-989.275"/>
</g>
<!-- github.com/supermuesli/csdl@aws/ec2/A1Large.py@latest -->
<g id="node37" class="node"><title>github.com/supermuesli/csdl@aws/ec2/A1Large.py@latest</title>
<ellipse fill="none" stroke="black" cx="245.678" cy="-18" rx="221.761" ry="18"/>
<text text-anchor="middle" x="245.678" y="-14.3" font-family="Times,serif" font-size="14.00">github.com/supermuesli/csdl@aws/ec2/A1Large.py@latest</text>
</g>
<!-- github.com/supermuesli/csdl@aws/ec2/A1Large.py@latest&#45;&gt;VMAsAService -->
<g id="edge36" class="edge"><title>github.com/supermuesli/csdl@aws/ec2/A1Large.py@latest&#45;&gt;VMAsAService</title>
<path fill="none" stroke="black" d="M427.253,-28.3424C502,-32.6235 584.584,-37.3535 642.591,-40.6758"/>
<polygon fill="black" stroke="black" points="642.583,-44.181 652.767,-41.2586 642.983,-37.1925 642.583,-44.181"/>
</g>
<!-- github.com/supermuesli/csdl@aws/EBS.py@latest -->
<g id="node38" class="node"><title>github.com/supermuesli/csdl@aws/EBS.py@latest</title>
<ellipse fill="none" stroke="black" cx="719.089" cy="-99" rx="191.966" ry="18"/>
<text text-anchor="middle" x="719.089" y="-95.3" font-family="Times,serif" font-size="14.00">github.com/supermuesli/csdl@aws/EBS.py@latest</text>
</g>
<!-- github.com/supermuesli/csdl@aws/EBS.py@latest&#45;&gt;StorageAsAService -->
<g id="edge37" class="edge"><title>github.com/supermuesli/csdl@aws/EBS.py@latest&#45;&gt;StorageAsAService</title>
<path fill="none" stroke="black" d="M910.856,-99C978.796,-99 1052.11,-99 1107.48,-99"/>
<polygon fill="black" stroke="black" points="1107.6,-102.5 1117.6,-99 1107.6,-95.5001 1107.6,-102.5"/>
</g>
<!-- github.com/supermuesli/csdl@aws/ec2/ElasticIpAmount.py@latest -->
<g id="node39" class="node"><title>github.com/supermuesli/csdl@aws/ec2/ElasticIpAmount.py@latest</title>
<ellipse fill="none" stroke="black" cx="1197.7" cy="-720" rx="250.756" ry="18"/>
<text text-anchor="middle" x="1197.7" y="-716.3" font-family="Times,serif" font-size="14.00">github.com/supermuesli/csdl@aws/ec2/ElasticIpAmount.py@latest</text>
</g>
<!-- github.com/supermuesli/csdl@aws/ec2/ElasticIpAmount.py@latest&#45;&gt;github.com/supermuesli/csdl@misc/StaticIp.py@latest -->
<g id="edge38" class="edge"><title>github.com/supermuesli/csdl@aws/ec2/ElasticIpAmount.py@latest&#45;&gt;github.com/supermuesli/csdl@misc/StaticIp.py@latest</title>
<path fill="none" stroke="black" d="M1448.83,-720C1457.32,-720 1465.81,-720 1474.25,-720"/>
<polygon fill="black" stroke="black" points="1474.52,-723.5 1484.52,-720 1474.52,-716.5 1474.52,-723.5"/>
</g>
</g>
</svg>
