<?xml version="1.0" encoding="UTF-8" standalone="no"?>
<!DOCTYPE svg PUBLIC "-//W3C//DTD SVG 1.1//EN"
 "http://www.w3.org/Graphics/SVG/1.1/DTD/svg11.dtd">
<!-- Generated by graphviz version 2.38.0 (20140413.2041)
 -->
<!-- Title: %3 Pages: 1 -->
<svg width="2453pt" height="1583pt"
 viewBox="0.00 0.00 2453.30 1583.00" xmlns="http://www.w3.org/2000/svg" xmlns:xlink="http://www.w3.org/1999/xlink">
<g id="graph0" class="graph" transform="scale(1 1) rotate(0) translate(4 1579)">
<title>%3</title>
<polygon fill="white" stroke="none" points="-4,4 -4,-1579 2449.3,-1579 2449.3,4 -4,4"/>
<!-- VMAsAService -->
<g id="node1" class="node"><title>VMAsAService</title>
<ellipse fill="none" stroke="black" cx="775.634" cy="-45" rx="67.6881" ry="18"/>
<text text-anchor="middle" x="775.634" y="-41.3" font-family="Times,serif" font-size="14.00">VMAsAService</text>
</g>
<!-- ServerAsAService -->
<g id="node2" class="node"><title>ServerAsAService</title>
<ellipse fill="none" stroke="black" cx="1310.79" cy="-45" rx="76.0865" ry="18"/>
<text text-anchor="middle" x="1310.79" y="-41.3" font-family="Times,serif" font-size="14.00">ServerAsAService</text>
</g>
<!-- VMAsAService&#45;&gt;ServerAsAService -->
<g id="edge1" class="edge"><title>VMAsAService&#45;&gt;ServerAsAService</title>
<path fill="none" stroke="black" d="M843.35,-45C939.847,-45 1118.39,-45 1224.39,-45"/>
<polygon fill="black" stroke="black" points="1224.41,-48.5001 1234.41,-45 1224.41,-41.5001 1224.41,-48.5001"/>
</g>
<!-- IaaS -->
<g id="node3" class="node"><title>IaaS</title>
<ellipse fill="none" stroke="black" cx="1819.3" cy="-99" rx="27" ry="18"/>
<text text-anchor="middle" x="1819.3" y="-95.3" font-family="Times,serif" font-size="14.00">IaaS</text>
</g>
<!-- ServerAsAService&#45;&gt;IaaS -->
<g id="edge2" class="edge"><title>ServerAsAService&#45;&gt;IaaS</title>
<path fill="none" stroke="black" d="M1380.36,-52.3108C1489.48,-63.9434 1698.81,-86.2616 1782.47,-95.1802"/>
<polygon fill="black" stroke="black" points="1782.18,-98.6692 1792.5,-96.2492 1782.92,-91.7087 1782.18,-98.6692"/>
</g>
<!-- CCS -->
<g id="node5" class="node"><title>CCS</title>
<ellipse fill="none" stroke="black" cx="2150.37" cy="-153" rx="27.0966" ry="18"/>
<text text-anchor="middle" x="2150.37" y="-149.3" font-family="Times,serif" font-size="14.00">CCS</text>
</g>
<!-- IaaS&#45;&gt;CCS -->
<g id="edge4" class="edge"><title>IaaS&#45;&gt;CCS</title>
<path fill="none" stroke="black" d="M1846.27,-101.141C1887.68,-104.788 1971.11,-113.086 2040.93,-126 2066.01,-130.64 2093.94,-137.636 2115.17,-143.344"/>
<polygon fill="black" stroke="black" points="2114.44,-146.774 2125.01,-146.027 2116.28,-140.02 2114.44,-146.774"/>
</g>
<!-- SaaS -->
<g id="node4" class="node"><title>SaaS</title>
<ellipse fill="none" stroke="black" cx="1819.3" cy="-153" rx="28.6953" ry="18"/>
<text text-anchor="middle" x="1819.3" y="-149.3" font-family="Times,serif" font-size="14.00">SaaS</text>
</g>
<!-- SaaS&#45;&gt;CCS -->
<g id="edge3" class="edge"><title>SaaS&#45;&gt;CCS</title>
<path fill="none" stroke="black" d="M1848.07,-153C1907.35,-153 2046.24,-153 2112.69,-153"/>
<polygon fill="black" stroke="black" points="2112.71,-156.5 2122.71,-153 2112.71,-149.5 2112.71,-156.5"/>
</g>
<!-- Attribute -->
<g id="node8" class="node"><title>Attribute</title>
<ellipse fill="none" stroke="black" cx="2302.06" cy="-504" rx="42.4939" ry="18"/>
<text text-anchor="middle" x="2302.06" y="-500.3" font-family="Times,serif" font-size="14.00">Attribute</text>
</g>
<!-- CCS&#45;&gt;Attribute -->
<g id="edge10" class="edge"><title>CCS&#45;&gt;Attribute</title>
<path fill="none" stroke="black" d="M2158.8,-170.406C2183.03,-227.231 2259.96,-407.62 2289.42,-476.712"/>
<polygon fill="black" stroke="black" points="2286.27,-478.245 2293.42,-486.071 2292.71,-475.499 2286.27,-478.245"/>
</g>
<!-- StorageAsAService -->
<g id="node6" class="node"><title>StorageAsAService</title>
<ellipse fill="none" stroke="black" cx="1310.79" cy="-99" rx="79.8859" ry="18"/>
<text text-anchor="middle" x="1310.79" y="-95.3" font-family="Times,serif" font-size="14.00">StorageAsAService</text>
</g>
<!-- StorageAsAService&#45;&gt;IaaS -->
<g id="edge5" class="edge"><title>StorageAsAService&#45;&gt;IaaS</title>
<path fill="none" stroke="black" d="M1390.93,-99C1502.24,-99 1700.51,-99 1781.9,-99"/>
<polygon fill="black" stroke="black" points="1782.13,-102.5 1792.13,-99 1782.13,-95.5001 1782.13,-102.5"/>
</g>
<!-- NumericAttribute -->
<g id="node7" class="node"><title>NumericAttribute</title>
<ellipse fill="none" stroke="black" cx="2150.37" cy="-1206" rx="73.387" ry="18"/>
<text text-anchor="middle" x="2150.37" y="-1202.3" font-family="Times,serif" font-size="14.00">NumericAttribute</text>
</g>
<!-- NumericAttribute&#45;&gt;Attribute -->
<g id="edge6" class="edge"><title>NumericAttribute&#45;&gt;Attribute</title>
<path fill="none" stroke="black" d="M2155.22,-1187.94C2175.55,-1092.63 2270.35,-648.028 2295.13,-531.84"/>
<polygon fill="black" stroke="black" points="2298.57,-532.449 2297.24,-521.939 2291.73,-530.989 2298.57,-532.449"/>
</g>
<!-- object -->
<g id="node12" class="node"><title>object</title>
<ellipse fill="none" stroke="black" cx="2412.81" cy="-504" rx="32.4942" ry="18"/>
<text text-anchor="middle" x="2412.81" y="-500.3" font-family="Times,serif" font-size="14.00">object</text>
</g>
<!-- Attribute&#45;&gt;object -->
<g id="edge11" class="edge"><title>Attribute&#45;&gt;object</title>
<path fill="none" stroke="black" d="M2344.48,-504C2352.75,-504 2361.45,-504 2369.74,-504"/>
<polygon fill="black" stroke="black" points="2369.97,-507.5 2379.97,-504 2369.97,-500.5 2369.97,-507.5"/>
</g>
<!-- ChoiceAttribute -->
<g id="node9" class="node"><title>ChoiceAttribute</title>
<ellipse fill="none" stroke="black" cx="2150.37" cy="-774" rx="67.6881" ry="18"/>
<text text-anchor="middle" x="2150.37" y="-770.3" font-family="Times,serif" font-size="14.00">ChoiceAttribute</text>
</g>
<!-- ChoiceAttribute&#45;&gt;Attribute -->
<g id="edge7" class="edge"><title>ChoiceAttribute&#45;&gt;Attribute</title>
<path fill="none" stroke="black" d="M2161.43,-755.865C2187.27,-709.257 2256.09,-585.12 2286.39,-530.463"/>
<polygon fill="black" stroke="black" points="2289.46,-532.146 2291.25,-521.703 2283.34,-528.752 2289.46,-532.146"/>
</g>
<!-- BoolAttribute -->
<g id="node10" class="node"><title>BoolAttribute</title>
<ellipse fill="none" stroke="black" cx="2150.37" cy="-531" rx="59.5901" ry="18"/>
<text text-anchor="middle" x="2150.37" y="-527.3" font-family="Times,serif" font-size="14.00">BoolAttribute</text>
</g>
<!-- BoolAttribute&#45;&gt;Attribute -->
<g id="edge8" class="edge"><title>BoolAttribute&#45;&gt;Attribute</title>
<path fill="none" stroke="black" d="M2202.05,-521.859C2218.33,-518.922 2236.32,-515.678 2252.45,-512.768"/>
<polygon fill="black" stroke="black" points="2253.52,-516.131 2262.74,-510.912 2252.28,-509.242 2253.52,-516.131"/>
</g>
<!-- OptionAttribute -->
<g id="node11" class="node"><title>OptionAttribute</title>
<ellipse fill="none" stroke="black" cx="2150.37" cy="-477" rx="66.8882" ry="18"/>
<text text-anchor="middle" x="2150.37" y="-473.3" font-family="Times,serif" font-size="14.00">OptionAttribute</text>
</g>
<!-- OptionAttribute&#45;&gt;Attribute -->
<g id="edge9" class="edge"><title>OptionAttribute&#45;&gt;Attribute</title>
<path fill="none" stroke="black" d="M2206.69,-486.977C2221.84,-489.711 2238.15,-492.652 2252.87,-495.308"/>
<polygon fill="black" stroke="black" points="2252.32,-498.764 2262.78,-497.095 2253.56,-491.875 2252.32,-498.764"/>
</g>
<!-- Region -->
<g id="node13" class="node"><title>Region</title>
<ellipse fill="none" stroke="black" cx="1819.3" cy="-855" rx="36.2938" ry="18"/>
<text text-anchor="middle" x="1819.3" y="-851.3" font-family="Times,serif" font-size="14.00">Region</text>
</g>
<!-- Region&#45;&gt;ChoiceAttribute -->
<g id="edge12" class="edge"><title>Region&#45;&gt;ChoiceAttribute</title>
<path fill="none" stroke="black" d="M1855.83,-854.342C1900.07,-852.69 1977.55,-847.045 2040.93,-828 2066.55,-820.303 2093.47,-806.926 2114.09,-795.412"/>
<polygon fill="black" stroke="black" points="2115.85,-798.44 2122.8,-790.448 2112.38,-792.358 2115.85,-798.44"/>
</g>
<!-- NorthAmerica -->
<g id="node14" class="node"><title>NorthAmerica</title>
<ellipse fill="none" stroke="black" cx="1819.3" cy="-693" rx="61.99" ry="18"/>
<text text-anchor="middle" x="1819.3" y="-689.3" font-family="Times,serif" font-size="14.00">NorthAmerica</text>
</g>
<!-- NorthAmerica&#45;&gt;OptionAttribute -->
<g id="edge13" class="edge"><title>NorthAmerica&#45;&gt;OptionAttribute</title>
<path fill="none" stroke="black" d="M1872.69,-702.173C1922.32,-707.656 1995.78,-706.975 2040.93,-666 2095.55,-616.433 2028.5,-559.627 2076.93,-504 2080.56,-499.824 2084.91,-496.293 2089.64,-493.307"/>
<polygon fill="black" stroke="black" points="2091.38,-496.345 2098.5,-488.501 2088.04,-490.191 2091.38,-496.345"/>
</g>
<!-- Australia -->
<g id="node15" class="node"><title>Australia</title>
<ellipse fill="none" stroke="black" cx="1819.3" cy="-639" rx="42.7926" ry="18"/>
<text text-anchor="middle" x="1819.3" y="-635.3" font-family="Times,serif" font-size="14.00">Australia</text>
</g>
<!-- Australia&#45;&gt;OptionAttribute -->
<g id="edge14" class="edge"><title>Australia&#45;&gt;OptionAttribute</title>
<path fill="none" stroke="black" d="M1859.38,-645.757C1907.61,-651.76 1989.54,-654.014 2040.93,-612 2080.1,-579.973 2041.78,-540.398 2076.93,-504 2080.83,-499.957 2085.4,-496.514 2090.3,-493.583"/>
<polygon fill="black" stroke="black" points="2092.17,-496.557 2099.43,-488.842 2088.94,-490.345 2092.17,-496.557"/>
</g>
<!-- Africa -->
<g id="node16" class="node"><title>Africa</title>
<ellipse fill="none" stroke="black" cx="1819.3" cy="-585" rx="33.2948" ry="18"/>
<text text-anchor="middle" x="1819.3" y="-581.3" font-family="Times,serif" font-size="14.00">Africa</text>
</g>
<!-- Africa&#45;&gt;OptionAttribute -->
<g id="edge15" class="edge"><title>Africa&#45;&gt;OptionAttribute</title>
<path fill="none" stroke="black" d="M1851.83,-588.943C1897.21,-592.993 1981.96,-594.34 2040.93,-558 2065.48,-542.867 2054.32,-521.907 2076.93,-504 2081.83,-500.118 2087.35,-496.754 2093.1,-493.849"/>
<polygon fill="black" stroke="black" points="2094.62,-496.999 2102.26,-489.653 2091.71,-490.634 2094.62,-496.999"/>
</g>
<!-- EastAsia -->
<g id="node17" class="node"><title>EastAsia</title>
<ellipse fill="none" stroke="black" cx="1819.3" cy="-531" rx="42.4939" ry="18"/>
<text text-anchor="middle" x="1819.3" y="-527.3" font-family="Times,serif" font-size="14.00">EastAsia</text>
</g>
<!-- EastAsia&#45;&gt;OptionAttribute -->
<g id="edge16" class="edge"><title>EastAsia&#45;&gt;OptionAttribute</title>
<path fill="none" stroke="black" d="M1860.78,-527.543C1905.21,-523.402 1978.51,-515.545 2040.93,-504 2057.99,-500.844 2076.37,-496.598 2093.06,-492.408"/>
<polygon fill="black" stroke="black" points="2094.38,-495.682 2103.21,-489.817 2092.65,-488.9 2094.38,-495.682"/>
</g>
<!-- SouthAmerica -->
<g id="node18" class="node"><title>SouthAmerica</title>
<ellipse fill="none" stroke="black" cx="1819.3" cy="-477" rx="61.99" ry="18"/>
<text text-anchor="middle" x="1819.3" y="-473.3" font-family="Times,serif" font-size="14.00">SouthAmerica</text>
</g>
<!-- SouthAmerica&#45;&gt;OptionAttribute -->
<g id="edge17" class="edge"><title>SouthAmerica&#45;&gt;OptionAttribute</title>
<path fill="none" stroke="black" d="M1881.42,-477C1935.52,-477 2014.69,-477 2072.95,-477"/>
<polygon fill="black" stroke="black" points="2073.21,-480.5 2083.21,-477 2073.21,-473.5 2073.21,-480.5"/>
</g>
<!-- Europe -->
<g id="node19" class="node"><title>Europe</title>
<ellipse fill="none" stroke="black" cx="1819.3" cy="-423" rx="36.2938" ry="18"/>
<text text-anchor="middle" x="1819.3" y="-419.3" font-family="Times,serif" font-size="14.00">Europe</text>
</g>
<!-- Europe&#45;&gt;OptionAttribute -->
<g id="edge18" class="edge"><title>Europe&#45;&gt;OptionAttribute</title>
<path fill="none" stroke="black" d="M1855.27,-425.949C1898.95,-429.936 1975.85,-437.963 2040.93,-450 2057.99,-453.156 2076.37,-457.402 2093.06,-461.592"/>
<polygon fill="black" stroke="black" points="2092.65,-465.1 2103.21,-464.183 2094.38,-458.318 2092.65,-465.1"/>
</g>
<!-- Antarctica -->
<g id="node20" class="node"><title>Antarctica</title>
<ellipse fill="none" stroke="black" cx="1819.3" cy="-369" rx="47.3916" ry="18"/>
<text text-anchor="middle" x="1819.3" y="-365.3" font-family="Times,serif" font-size="14.00">Antarctica</text>
</g>
<!-- Antarctica&#45;&gt;OptionAttribute -->
<g id="edge19" class="edge"><title>Antarctica&#45;&gt;OptionAttribute</title>
<path fill="none" stroke="black" d="M1865.29,-364.036C1912.58,-361.077 1987.38,-363 2040.93,-396 2065.48,-411.133 2054.32,-432.093 2076.93,-450 2081.83,-453.882 2087.35,-457.246 2093.1,-460.151"/>
<polygon fill="black" stroke="black" points="2091.71,-463.366 2102.26,-464.347 2094.62,-457.001 2091.71,-463.366"/>
</g>
<!-- Storage -->
<g id="node21" class="node"><title>Storage</title>
<ellipse fill="none" stroke="black" cx="1819.3" cy="-1557" rx="37.8943" ry="18"/>
<text text-anchor="middle" x="1819.3" y="-1553.3" font-family="Times,serif" font-size="14.00">Storage</text>
</g>
<!-- Storage&#45;&gt;NumericAttribute -->
<g id="edge20" class="edge"><title>Storage&#45;&gt;NumericAttribute</title>
<path fill="none" stroke="black" d="M1854.85,-1563.16C1902.32,-1569.55 1987.87,-1573.32 2040.93,-1530 2133,-1454.81 2147.38,-1298.78 2149.28,-1234.57"/>
<polygon fill="black" stroke="black" points="2152.78,-1234.45 2149.49,-1224.37 2145.78,-1234.3 2152.78,-1234.45"/>
</g>
<!-- StorageWriteSpeed -->
<g id="node22" class="node"><title>StorageWriteSpeed</title>
<ellipse fill="none" stroke="black" cx="1819.3" cy="-1503" rx="79.0865" ry="18"/>
<text text-anchor="middle" x="1819.3" y="-1499.3" font-family="Times,serif" font-size="14.00">StorageWriteSpeed</text>
</g>
<!-- StorageWriteSpeed&#45;&gt;NumericAttribute -->
<g id="edge21" class="edge"><title>StorageWriteSpeed&#45;&gt;NumericAttribute</title>
<path fill="none" stroke="black" d="M1889.02,-1511.68C1936.35,-1513.89 1998.17,-1508.87 2040.93,-1476 2119.03,-1415.97 2141.07,-1290.73 2147.14,-1234.46"/>
<polygon fill="black" stroke="black" points="2150.65,-1234.46 2148.15,-1224.16 2143.69,-1233.77 2150.65,-1234.46"/>
</g>
<!-- StorageReadSpeed -->
<g id="node23" class="node"><title>StorageReadSpeed</title>
<ellipse fill="none" stroke="black" cx="1819.3" cy="-1449" rx="77.1866" ry="18"/>
<text text-anchor="middle" x="1819.3" y="-1445.3" font-family="Times,serif" font-size="14.00">StorageReadSpeed</text>
</g>
<!-- StorageReadSpeed&#45;&gt;NumericAttribute -->
<g id="edge22" class="edge"><title>StorageReadSpeed&#45;&gt;NumericAttribute</title>
<path fill="none" stroke="black" d="M1889.45,-1456.61C1936.24,-1458.16 1997.23,-1452.78 2040.93,-1422 2105.35,-1376.62 2133.61,-1281.58 2144.1,-1234.16"/>
<polygon fill="black" stroke="black" points="2147.55,-1234.77 2146.18,-1224.26 2140.7,-1233.33 2147.55,-1234.77"/>
</g>
<!-- OperatingSystem -->
<g id="node24" class="node"><title>OperatingSystem</title>
<ellipse fill="none" stroke="black" cx="1819.3" cy="-801" rx="72.2875" ry="18"/>
<text text-anchor="middle" x="1819.3" y="-797.3" font-family="Times,serif" font-size="14.00">OperatingSystem</text>
</g>
<!-- OperatingSystem&#45;&gt;ChoiceAttribute -->
<g id="edge23" class="edge"><title>OperatingSystem&#45;&gt;ChoiceAttribute</title>
<path fill="none" stroke="black" d="M1888.08,-795.438C1942.64,-790.962 2019.2,-784.68 2075.35,-780.074"/>
<polygon fill="black" stroke="black" points="2075.9,-783.54 2085.58,-779.234 2075.33,-776.563 2075.9,-783.54"/>
</g>
<!-- CpuCores -->
<g id="node25" class="node"><title>CpuCores</title>
<ellipse fill="none" stroke="black" cx="1819.3" cy="-1395" rx="46.2923" ry="18"/>
<text text-anchor="middle" x="1819.3" y="-1391.3" font-family="Times,serif" font-size="14.00">CpuCores</text>
</g>
<!-- CpuCores&#45;&gt;NumericAttribute -->
<g id="edge24" class="edge"><title>CpuCores&#45;&gt;NumericAttribute</title>
<path fill="none" stroke="black" d="M1863.98,-1399.86C1911.17,-1402.92 1986.85,-1401.25 2040.93,-1368 2091.92,-1336.64 2124.22,-1271.29 2139.31,-1233.88"/>
<polygon fill="black" stroke="black" points="2142.74,-1234.71 2143.11,-1224.12 2136.22,-1232.17 2142.74,-1234.71"/>
</g>
<!-- CpuClockSpeed -->
<g id="node26" class="node"><title>CpuClockSpeed</title>
<ellipse fill="none" stroke="black" cx="1819.3" cy="-1341" rx="67.6881" ry="18"/>
<text text-anchor="middle" x="1819.3" y="-1337.3" font-family="Times,serif" font-size="14.00">CpuClockSpeed</text>
</g>
<!-- CpuClockSpeed&#45;&gt;NumericAttribute -->
<g id="edge25" class="edge"><title>CpuClockSpeed&#45;&gt;NumericAttribute</title>
<path fill="none" stroke="black" d="M1886.2,-1343.93C1931.79,-1343.4 1992.69,-1337.45 2040.93,-1314 2079.36,-1295.31 2112.3,-1257.48 2131.48,-1231.94"/>
<polygon fill="black" stroke="black" points="2134.37,-1233.93 2137.45,-1223.79 2128.72,-1229.79 2134.37,-1233.93"/>
</g>
<!-- Ram -->
<g id="node27" class="node"><title>Ram</title>
<ellipse fill="none" stroke="black" cx="1819.3" cy="-1287" rx="27.8951" ry="18"/>
<text text-anchor="middle" x="1819.3" y="-1283.3" font-family="Times,serif" font-size="14.00">Ram</text>
</g>
<!-- Ram&#45;&gt;NumericAttribute -->
<g id="edge26" class="edge"><title>Ram&#45;&gt;NumericAttribute</title>
<path fill="none" stroke="black" d="M1847.39,-1286.62C1889.61,-1285.39 1973.3,-1280.32 2040.93,-1260 2066.37,-1252.36 2093.11,-1239.11 2113.66,-1227.65"/>
<polygon fill="black" stroke="black" points="2115.4,-1230.69 2122.36,-1222.7 2111.94,-1224.6 2115.4,-1230.69"/>
</g>
<!-- RamClockSpeed -->
<g id="node28" class="node"><title>RamClockSpeed</title>
<ellipse fill="none" stroke="black" cx="1819.3" cy="-1233" rx="70.3881" ry="18"/>
<text text-anchor="middle" x="1819.3" y="-1229.3" font-family="Times,serif" font-size="14.00">RamClockSpeed</text>
</g>
<!-- RamClockSpeed&#45;&gt;NumericAttribute -->
<g id="edge27" class="edge"><title>RamClockSpeed&#45;&gt;NumericAttribute</title>
<path fill="none" stroke="black" d="M1886.5,-1227.57C1939.5,-1223.22 2014.02,-1217.11 2070.18,-1212.5"/>
<polygon fill="black" stroke="black" points="2070.77,-1215.96 2080.45,-1211.66 2070.19,-1208.98 2070.77,-1215.96"/>
</g>
<!-- RamWriteSpeed -->
<g id="node29" class="node"><title>RamWriteSpeed</title>
<ellipse fill="none" stroke="black" cx="1819.3" cy="-1179" rx="69.5877" ry="18"/>
<text text-anchor="middle" x="1819.3" y="-1175.3" font-family="Times,serif" font-size="14.00">RamWriteSpeed</text>
</g>
<!-- RamWriteSpeed&#45;&gt;NumericAttribute -->
<g id="edge28" class="edge"><title>RamWriteSpeed&#45;&gt;NumericAttribute</title>
<path fill="none" stroke="black" d="M1885.71,-1184.37C1938.73,-1188.72 2013.65,-1194.86 2070.09,-1199.49"/>
<polygon fill="black" stroke="black" points="2070.15,-1203.01 2080.4,-1200.34 2070.72,-1196.03 2070.15,-1203.01"/>
</g>
<!-- RamReadSpeed -->
<g id="node30" class="node"><title>RamReadSpeed</title>
<ellipse fill="none" stroke="black" cx="1819.3" cy="-1125" rx="67.6881" ry="18"/>
<text text-anchor="middle" x="1819.3" y="-1121.3" font-family="Times,serif" font-size="14.00">RamReadSpeed</text>
</g>
<!-- RamReadSpeed&#45;&gt;NumericAttribute -->
<g id="edge29" class="edge"><title>RamReadSpeed&#45;&gt;NumericAttribute</title>
<path fill="none" stroke="black" d="M1886.66,-1127.25C1931.11,-1130.17 1990.48,-1136.84 2040.93,-1152 2066.37,-1159.64 2093.11,-1172.89 2113.66,-1184.35"/>
<polygon fill="black" stroke="black" points="2111.94,-1187.4 2122.36,-1189.3 2115.4,-1181.31 2111.94,-1187.4"/>
</g>
<!-- NetworkCapacity -->
<g id="node31" class="node"><title>NetworkCapacity</title>
<ellipse fill="none" stroke="black" cx="1819.3" cy="-1071" rx="72.5877" ry="18"/>
<text text-anchor="middle" x="1819.3" y="-1067.3" font-family="Times,serif" font-size="14.00">NetworkCapacity</text>
</g>
<!-- NetworkCapacity&#45;&gt;NumericAttribute -->
<g id="edge30" class="edge"><title>NetworkCapacity&#45;&gt;NumericAttribute</title>
<path fill="none" stroke="black" d="M1891.18,-1068.15C1936.15,-1069.05 1994.42,-1075.39 2040.93,-1098 2079.36,-1116.69 2112.3,-1154.52 2131.48,-1180.06"/>
<polygon fill="black" stroke="black" points="2128.72,-1182.21 2137.45,-1188.21 2134.37,-1178.07 2128.72,-1182.21"/>
</g>
<!-- NetworkUploadSpeed -->
<g id="node32" class="node"><title>NetworkUploadSpeed</title>
<ellipse fill="none" stroke="black" cx="1819.3" cy="-1017" rx="89.0842" ry="18"/>
<text text-anchor="middle" x="1819.3" y="-1013.3" font-family="Times,serif" font-size="14.00">NetworkUploadSpeed</text>
</g>
<!-- NetworkUploadSpeed&#45;&gt;NumericAttribute -->
<g id="edge31" class="edge"><title>NetworkUploadSpeed&#45;&gt;NumericAttribute</title>
<path fill="none" stroke="black" d="M1903.54,-1011.14C1947.34,-1011.85 2000.25,-1018.98 2040.93,-1044 2091.92,-1075.36 2124.22,-1140.71 2139.31,-1178.12"/>
<polygon fill="black" stroke="black" points="2136.22,-1179.83 2143.11,-1187.88 2142.74,-1177.29 2136.22,-1179.83"/>
</g>
<!-- NetworkDownloadSpeed -->
<g id="node33" class="node"><title>NetworkDownloadSpeed</title>
<ellipse fill="none" stroke="black" cx="1819.3" cy="-963" rx="99.3824" ry="18"/>
<text text-anchor="middle" x="1819.3" y="-959.3" font-family="Times,serif" font-size="14.00">NetworkDownloadSpeed</text>
</g>
<!-- NetworkDownloadSpeed&#45;&gt;NumericAttribute -->
<g id="edge32" class="edge"><title>NetworkDownloadSpeed&#45;&gt;NumericAttribute</title>
<path fill="none" stroke="black" d="M1908.89,-955.186C1952.22,-955.735 2003.07,-963.334 2040.93,-990 2105.35,-1035.38 2133.61,-1130.42 2144.1,-1177.84"/>
<polygon fill="black" stroke="black" points="2140.7,-1178.67 2146.18,-1187.74 2147.55,-1177.23 2140.7,-1178.67"/>
</g>
<!-- PricingModel -->
<g id="node34" class="node"><title>PricingModel</title>
<ellipse fill="none" stroke="black" cx="1819.3" cy="-747" rx="59.5901" ry="18"/>
<text text-anchor="middle" x="1819.3" y="-743.3" font-family="Times,serif" font-size="14.00">PricingModel</text>
</g>
<!-- PricingModel&#45;&gt;ChoiceAttribute -->
<g id="edge33" class="edge"><title>PricingModel&#45;&gt;ChoiceAttribute</title>
<path fill="none" stroke="black" d="M1877.24,-751.672C1932.11,-756.174 2015.39,-763.007 2075.37,-767.928"/>
<polygon fill="black" stroke="black" points="2075.28,-771.433 2085.54,-768.762 2075.86,-764.456 2075.28,-771.433"/>
</g>
<!-- Static -->
<g id="node35" class="node"><title>Static</title>
<ellipse fill="none" stroke="black" cx="1819.3" cy="-315" rx="30.5947" ry="18"/>
<text text-anchor="middle" x="1819.3" y="-311.3" font-family="Times,serif" font-size="14.00">Static</text>
</g>
<!-- Static&#45;&gt;OptionAttribute -->
<g id="edge34" class="edge"><title>Static&#45;&gt;OptionAttribute</title>
<path fill="none" stroke="black" d="M1848.67,-309.706C1894.56,-302.867 1985.51,-296.688 2040.93,-342 2080.1,-374.027 2041.78,-413.602 2076.93,-450 2080.83,-454.043 2085.4,-457.486 2090.3,-460.417"/>
<polygon fill="black" stroke="black" points="2088.94,-463.655 2099.43,-465.158 2092.17,-457.443 2088.94,-463.655"/>
</g>
<!-- Dynamic -->
<g id="node36" class="node"><title>Dynamic</title>
<ellipse fill="none" stroke="black" cx="1819.3" cy="-261" rx="43.5923" ry="18"/>
<text text-anchor="middle" x="1819.3" y="-257.3" font-family="Times,serif" font-size="14.00">Dynamic</text>
</g>
<!-- Dynamic&#45;&gt;OptionAttribute -->
<g id="edge35" class="edge"><title>Dynamic&#45;&gt;OptionAttribute</title>
<path fill="none" stroke="black" d="M1859.25,-253.526C1908.11,-246.578 1991.49,-243.135 2040.93,-288 2095.55,-337.567 2028.5,-394.373 2076.93,-450 2080.56,-454.176 2084.91,-457.707 2089.64,-460.693"/>
<polygon fill="black" stroke="black" points="2088.04,-463.809 2098.5,-465.499 2091.38,-457.655 2088.04,-463.809"/>
</g>
<!-- PayAndGo -->
<g id="node37" class="node"><title>PayAndGo</title>
<ellipse fill="none" stroke="black" cx="1310.79" cy="-369" rx="50.0912" ry="18"/>
<text text-anchor="middle" x="1310.79" y="-365.3" font-family="Times,serif" font-size="14.00">PayAndGo</text>
</g>
<!-- PayAndGo&#45;&gt;Static -->
<g id="edge36" class="edge"><title>PayAndGo&#45;&gt;Static</title>
<path fill="none" stroke="black" d="M1358.99,-363.968C1458.31,-353.38 1687.29,-328.967 1779.14,-319.175"/>
<polygon fill="black" stroke="black" points="1779.56,-322.65 1789.13,-318.11 1778.81,-315.69 1779.56,-322.65"/>
</g>
<!-- PayPerResource -->
<g id="node38" class="node"><title>PayPerResource</title>
<ellipse fill="none" stroke="black" cx="1310.79" cy="-315" rx="68.4888" ry="18"/>
<text text-anchor="middle" x="1310.79" y="-311.3" font-family="Times,serif" font-size="14.00">PayPerResource</text>
</g>
<!-- PayPerResource&#45;&gt;Static -->
<g id="edge37" class="edge"><title>PayPerResource&#45;&gt;Static</title>
<path fill="none" stroke="black" d="M1379.05,-315C1486.13,-315 1692.07,-315 1778.53,-315"/>
<polygon fill="black" stroke="black" points="1778.71,-318.5 1788.71,-315 1778.71,-311.5 1778.71,-318.5"/>
</g>
<!-- Subscription -->
<g id="node39" class="node"><title>Subscription</title>
<ellipse fill="none" stroke="black" cx="1310.79" cy="-261" rx="55.4913" ry="18"/>
<text text-anchor="middle" x="1310.79" y="-257.3" font-family="Times,serif" font-size="14.00">Subscription</text>
</g>
<!-- Subscription&#45;&gt;Static -->
<g id="edge38" class="edge"><title>Subscription&#45;&gt;Static</title>
<path fill="none" stroke="black" d="M1363.62,-266.525C1465.24,-277.359 1688.62,-301.175 1779.09,-310.82"/>
<polygon fill="black" stroke="black" points="1778.89,-314.318 1789.2,-311.898 1779.63,-307.357 1778.89,-314.318"/>
</g>
<!-- Price -->
<g id="node40" class="node"><title>Price</title>
<ellipse fill="none" stroke="black" cx="2150.37" cy="-423" rx="28.6953" ry="18"/>
<text text-anchor="middle" x="2150.37" y="-419.3" font-family="Times,serif" font-size="14.00">Price</text>
</g>
<!-- Price&#45;&gt;Attribute -->
<g id="edge39" class="edge"><title>Price&#45;&gt;Attribute</title>
<path fill="none" stroke="black" d="M2176.52,-430.623C2190.78,-435.37 2208.72,-442.077 2223.82,-450 2240.97,-459.007 2258.79,-471.236 2272.98,-481.779"/>
<polygon fill="black" stroke="black" points="2271.22,-484.839 2281.31,-488.082 2275.44,-479.257 2271.22,-484.839"/>
</g>
<!-- DatabaseAsAService -->
<g id="node41" class="node"><title>DatabaseAsAService</title>
<ellipse fill="none" stroke="black" cx="1310.79" cy="-153" rx="85.2851" ry="18"/>
<text text-anchor="middle" x="1310.79" y="-149.3" font-family="Times,serif" font-size="14.00">DatabaseAsAService</text>
</g>
<!-- DatabaseAsAService&#45;&gt;SaaS -->
<g id="edge40" class="edge"><title>DatabaseAsAService&#45;&gt;SaaS</title>
<path fill="none" stroke="black" d="M1396,-153C1507.45,-153 1699.3,-153 1780.37,-153"/>
<polygon fill="black" stroke="black" points="1780.61,-156.5 1790.61,-153 1780.61,-149.5 1780.61,-156.5"/>
</g>
<!-- SQLDatabaseAsAService -->
<g id="node42" class="node"><title>SQLDatabaseAsAService</title>
<ellipse fill="none" stroke="black" cx="775.634" cy="-207" rx="102.082" ry="18"/>
<text text-anchor="middle" x="775.634" y="-203.3" font-family="Times,serif" font-size="14.00">SQLDatabaseAsAService</text>
</g>
<!-- SQLDatabaseAsAService&#45;&gt;DatabaseAsAService -->
<g id="edge41" class="edge"><title>SQLDatabaseAsAService&#45;&gt;DatabaseAsAService</title>
<path fill="none" stroke="black" d="M864.376,-198.113C963.826,-188.041 1124.91,-171.726 1223.68,-161.722"/>
<polygon fill="black" stroke="black" points="1224.03,-165.204 1233.63,-160.714 1223.33,-158.239 1224.03,-165.204"/>
</g>
<!-- NoSQLDatabaseAsAService -->
<g id="node43" class="node"><title>NoSQLDatabaseAsAService</title>
<ellipse fill="none" stroke="black" cx="775.634" cy="-153" rx="112.38" ry="18"/>
<text text-anchor="middle" x="775.634" y="-149.3" font-family="Times,serif" font-size="14.00">NoSQLDatabaseAsAService</text>
</g>
<!-- NoSQLDatabaseAsAService&#45;&gt;DatabaseAsAService -->
<g id="edge42" class="edge"><title>NoSQLDatabaseAsAService&#45;&gt;DatabaseAsAService</title>
<path fill="none" stroke="black" d="M888.077,-153C985.027,-153 1123.96,-153 1215.5,-153"/>
<polygon fill="black" stroke="black" points="1215.59,-156.5 1225.59,-153 1215.59,-149.5 1215.59,-156.5"/>
</g>
<!-- github.com/supermuesli/csdl@examples/Requirement1.py@latest -->
<g id="node44" class="node"><title>github.com/supermuesli/csdl@examples/Requirement1.py@latest</title>
<ellipse fill="none" stroke="black" cx="245.678" cy="-72" rx="245.857" ry="18"/>
<text text-anchor="middle" x="245.678" y="-68.3" font-family="Times,serif" font-size="14.00">github.com/supermuesli/csdl@examples/Requirement1.py@latest</text>
</g>
<!-- github.com/supermuesli/csdl@examples/Requirement1.py@latest&#45;&gt;VMAsAService -->
<g id="edge43" class="edge"><title>github.com/supermuesli/csdl@examples/Requirement1.py@latest&#45;&gt;VMAsAService</title>
<path fill="none" stroke="black" d="M447.782,-61.7154C535.605,-57.2241 633.286,-52.2286 698.791,-48.8787"/>
<polygon fill="black" stroke="black" points="699.214,-52.3617 709.022,-48.3555 698.856,-45.3709 699.214,-52.3617"/>
</g>
<!-- github.com/supermuesli/csdl@misc/StaticIp.py@latest -->
<g id="node45" class="node"><title>github.com/supermuesli/csdl@misc/StaticIp.py@latest</title>
<ellipse fill="none" stroke="black" cx="1819.3" cy="-909" rx="206.063" ry="18"/>
<text text-anchor="middle" x="1819.3" y="-905.3" font-family="Times,serif" font-size="14.00">github.com/supermuesli/csdl@misc/StaticIp.py@latest</text>
</g>
<!-- github.com/supermuesli/csdl@misc/StaticIp.py@latest&#45;&gt;NumericAttribute -->
<g id="edge44" class="edge"><title>github.com/supermuesli/csdl@misc/StaticIp.py@latest&#45;&gt;NumericAttribute</title>
<path fill="none" stroke="black" d="M2006.55,-916.549C2018.83,-921.563 2030.45,-927.945 2040.93,-936 2119.03,-996.029 2141.07,-1121.27 2147.14,-1177.54"/>
<polygon fill="black" stroke="black" points="2143.69,-1178.23 2148.15,-1187.84 2150.65,-1177.54 2143.69,-1178.23"/>
</g>
<!-- github.com/supermuesli/csdl@misc/countries/USA.py@latest -->
<g id="node46" class="node"><title>github.com/supermuesli/csdl@misc/countries/USA.py@latest</title>
<ellipse fill="none" stroke="black" cx="1310.79" cy="-693" rx="231.259" ry="18"/>
<text text-anchor="middle" x="1310.79" y="-689.3" font-family="Times,serif" font-size="14.00">github.com/supermuesli/csdl@misc/countries/USA.py@latest</text>
</g>
<!-- github.com/supermuesli/csdl@misc/countries/USA.py@latest&#45;&gt;NorthAmerica -->
<g id="edge45" class="edge"><title>github.com/supermuesli/csdl@misc/countries/USA.py@latest&#45;&gt;NorthAmerica</title>
<path fill="none" stroke="black" d="M1542.44,-693C1616.77,-693 1693.72,-693 1747.4,-693"/>
<polygon fill="black" stroke="black" points="1747.48,-696.5 1757.48,-693 1747.48,-689.5 1747.48,-696.5"/>
</g>
<!-- github.com/supermuesli/csdl@aws/ec2/EC2.py@latest -->
<g id="node47" class="node"><title>github.com/supermuesli/csdl@aws/ec2/EC2.py@latest</title>
<ellipse fill="none" stroke="black" cx="245.678" cy="-18" rx="206.063" ry="18"/>
<text text-anchor="middle" x="245.678" y="-14.3" font-family="Times,serif" font-size="14.00">github.com/supermuesli/csdl@aws/ec2/EC2.py@latest</text>
</g>
<!-- github.com/supermuesli/csdl@aws/ec2/EC2.py@latest&#45;&gt;VMAsAService -->
<g id="edge46" class="edge"><title>github.com/supermuesli/csdl@aws/ec2/EC2.py@latest&#45;&gt;VMAsAService</title>
<path fill="none" stroke="black" d="M423.949,-27.0657C517.457,-31.8478 627.295,-37.465 698.795,-41.1215"/>
<polygon fill="black" stroke="black" points="698.893,-44.631 709.059,-41.6464 699.251,-37.6402 698.893,-44.631"/>
</g>
<!-- github.com/supermuesli/csdl@aws/regions/Region.py@latest -->
<g id="node48" class="node"><title>github.com/supermuesli/csdl@aws/regions/Region.py@latest</title>
<ellipse fill="none" stroke="black" cx="1310.79" cy="-855" rx="229.359" ry="18"/>
<text text-anchor="middle" x="1310.79" y="-851.3" font-family="Times,serif" font-size="14.00">github.com/supermuesli/csdl@aws/regions/Region.py@latest</text>
</g>
<!-- github.com/supermuesli/csdl@aws/regions/Region.py@latest&#45;&gt;Region -->
<g id="edge47" class="edge"><title>github.com/supermuesli/csdl@aws/regions/Region.py@latest&#45;&gt;Region</title>
<path fill="none" stroke="black" d="M1540.22,-855C1627.79,-855 1719.35,-855 1772.49,-855"/>
<polygon fill="black" stroke="black" points="1772.6,-858.5 1782.6,-855 1772.6,-851.5 1772.6,-858.5"/>
</g>
<!-- github.com/supermuesli/csdl@aws/regions/California.py@latest -->
<g id="node49" class="node"><title>github.com/supermuesli/csdl@aws/regions/California.py@latest</title>
<ellipse fill="none" stroke="black" cx="775.634" cy="-747" rx="239.358" ry="18"/>
<text text-anchor="middle" x="775.634" y="-743.3" font-family="Times,serif" font-size="14.00">github.com/supermuesli/csdl@aws/regions/California.py@latest</text>
</g>
<!-- github.com/supermuesli/csdl@aws/regions/California.py@latest&#45;&gt;github.com/supermuesli/csdl@misc/countries/USA.py@latest -->
<g id="edge48" class="edge"><title>github.com/supermuesli/csdl@aws/regions/California.py@latest&#45;&gt;github.com/supermuesli/csdl@misc/countries/USA.py@latest</title>
<path fill="none" stroke="black" d="M919.16,-732.564C993.258,-725.06 1083.81,-715.888 1159.07,-708.265"/>
<polygon fill="black" stroke="black" points="1159.52,-711.738 1169.11,-707.248 1158.81,-704.774 1159.52,-711.738"/>
</g>
<!-- github.com/supermuesli/csdl@aws/regions/EastVirginia.py@latest -->
<g id="node50" class="node"><title>github.com/supermuesli/csdl@aws/regions/EastVirginia.py@latest</title>
<ellipse fill="none" stroke="black" cx="775.634" cy="-693" rx="248.056" ry="18"/>
<text text-anchor="middle" x="775.634" y="-689.3" font-family="Times,serif" font-size="14.00">github.com/supermuesli/csdl@aws/regions/EastVirginia.py@latest</text>
</g>
<!-- github.com/supermuesli/csdl@aws/regions/EastVirginia.py@latest&#45;&gt;github.com/supermuesli/csdl@misc/countries/USA.py@latest -->
<g id="edge49" class="edge"><title>github.com/supermuesli/csdl@aws/regions/EastVirginia.py@latest&#45;&gt;github.com/supermuesli/csdl@misc/countries/USA.py@latest</title>
<path fill="none" stroke="black" d="M1024.09,-693C1039.02,-693 1054.03,-693 1068.92,-693"/>
<polygon fill="black" stroke="black" points="1069.22,-696.5 1079.22,-693 1069.22,-689.5 1069.22,-696.5"/>
</g>
<!-- github.com/supermuesli/csdl@aws/regions/NewYork.py@latest -->
<g id="node51" class="node"><title>github.com/supermuesli/csdl@aws/regions/NewYork.py@latest</title>
<ellipse fill="none" stroke="black" cx="775.634" cy="-639" rx="238.558" ry="18"/>
<text text-anchor="middle" x="775.634" y="-635.3" font-family="Times,serif" font-size="14.00">github.com/supermuesli/csdl@aws/regions/NewYork.py@latest</text>
</g>
<!-- github.com/supermuesli/csdl@aws/regions/NewYork.py@latest&#45;&gt;github.com/supermuesli/csdl@misc/countries/USA.py@latest -->
<g id="edge50" class="edge"><title>github.com/supermuesli/csdl@aws/regions/NewYork.py@latest&#45;&gt;github.com/supermuesli/csdl@misc/countries/USA.py@latest</title>
<path fill="none" stroke="black" d="M918.81,-653.4C992.91,-660.905 1083.54,-670.085 1158.88,-677.715"/>
<polygon fill="black" stroke="black" points="1158.63,-681.208 1168.93,-678.734 1159.34,-674.244 1158.63,-681.208"/>
</g>
<!-- github.com/supermuesli/csdl@aws/ec2/A1Large.py@latest -->
<g id="node52" class="node"><title>github.com/supermuesli/csdl@aws/ec2/A1Large.py@latest</title>
<ellipse fill="none" stroke="black" cx="1819.3" cy="-207" rx="221.761" ry="18"/>
<text text-anchor="middle" x="1819.3" y="-203.3" font-family="Times,serif" font-size="14.00">github.com/supermuesli/csdl@aws/ec2/A1Large.py@latest</text>
</g>
<!-- github.com/supermuesli/csdl@aws/ec2/A1Large.py@latest&#45;&gt;OptionAttribute -->
<g id="edge51" class="edge"><title>github.com/supermuesli/csdl@aws/ec2/A1Large.py@latest&#45;&gt;OptionAttribute</title>
<path fill="none" stroke="black" d="M2015.27,-215.454C2024.54,-220.476 2033.19,-226.594 2040.93,-234 2111.22,-301.31 2015.01,-374.914 2076.93,-450 2080.31,-454.102 2084.38,-457.58 2088.84,-460.531"/>
<polygon fill="black" stroke="black" points="2087.4,-463.736 2097.84,-465.578 2090.83,-457.632 2087.4,-463.736"/>
</g>
<!-- github.com/supermuesli/csdl@aws/EBS.py@latest -->
<g id="node53" class="node"><title>github.com/supermuesli/csdl@aws/EBS.py@latest</title>
<ellipse fill="none" stroke="black" cx="775.634" cy="-99" rx="191.966" ry="18"/>
<text text-anchor="middle" x="775.634" y="-95.3" font-family="Times,serif" font-size="14.00">github.com/supermuesli/csdl@aws/EBS.py@latest</text>
</g>
<!-- github.com/supermuesli/csdl@aws/EBS.py@latest&#45;&gt;StorageAsAService -->
<g id="edge52" class="edge"><title>github.com/supermuesli/csdl@aws/EBS.py@latest&#45;&gt;StorageAsAService</title>
<path fill="none" stroke="black" d="M967.61,-99C1053.72,-99 1151.31,-99 1220.17,-99"/>
<polygon fill="black" stroke="black" points="1220.54,-102.5 1230.54,-99 1220.54,-95.5001 1220.54,-102.5"/>
</g>
<!-- github.com/supermuesli/csdl@aws/ec2/ElasticIpAmount.py@latest -->
<g id="node54" class="node"><title>github.com/supermuesli/csdl@aws/ec2/ElasticIpAmount.py@latest</title>
<ellipse fill="none" stroke="black" cx="1310.79" cy="-909" rx="250.756" ry="18"/>
<text text-anchor="middle" x="1310.79" y="-905.3" font-family="Times,serif" font-size="14.00">github.com/supermuesli/csdl@aws/ec2/ElasticIpAmount.py@latest</text>
</g>
<!-- github.com/supermuesli/csdl@aws/ec2/ElasticIpAmount.py@latest&#45;&gt;github.com/supermuesli/csdl@misc/StaticIp.py@latest -->
<g id="edge53" class="edge"><title>github.com/supermuesli/csdl@aws/ec2/ElasticIpAmount.py@latest&#45;&gt;github.com/supermuesli/csdl@misc/StaticIp.py@latest</title>
<path fill="none" stroke="black" d="M1561.71,-909C1575.42,-909 1589.15,-909 1602.73,-909"/>
<polygon fill="black" stroke="black" points="1603.09,-912.5 1613.09,-909 1603.09,-905.5 1603.09,-912.5"/>
</g>
</g>
</svg>
