<?xml version="1.0" encoding="UTF-8" standalone="no"?>
<!DOCTYPE svg PUBLIC "-//W3C//DTD SVG 1.1//EN"
 "http://www.w3.org/Graphics/SVG/1.1/DTD/svg11.dtd">
<!-- Generated by graphviz version 2.38.0 (20140413.2041)
 -->
<!-- Title: %3 Pages: 1 -->
<svg width="2514pt" height="2285pt"
 viewBox="0.00 0.00 2514.40 2285.40" xmlns="http://www.w3.org/2000/svg" xmlns:xlink="http://www.w3.org/1999/xlink">
<g id="graph0" class="graph" transform="scale(1 1) rotate(0) translate(4 2281.4)">
<title>%3</title>
<polygon fill="white" stroke="none" points="-4,4 -4,-2281.4 2510.4,-2281.4 2510.4,4 -4,4"/>
<!-- VMAsAService -->
<g id="node1" class="node"><title>VMAsAService</title>
<ellipse fill="none" stroke="black" cx="716.49" cy="-18" rx="67.6881" ry="18"/>
<text text-anchor="middle" x="716.49" y="-14.3" font-family="Times,serif" font-size="14.00">VMAsAService</text>
</g>
<!-- ServerAsAService -->
<g id="node2" class="node"><title>ServerAsAService</title>
<ellipse fill="none" stroke="black" cx="1271.79" cy="-45" rx="76.0865" ry="18"/>
<text text-anchor="middle" x="1271.79" y="-41.3" font-family="Times,serif" font-size="14.00">ServerAsAService</text>
</g>
<!-- VMAsAService&#45;&gt;ServerAsAService -->
<g id="edge1" class="edge"><title>VMAsAService&#45;&gt;ServerAsAService</title>
<path fill="none" stroke="black" d="M783.134,-21.2033C883.761,-26.1137 1076.09,-35.4988 1186.76,-40.8994"/>
<polygon fill="black" stroke="black" points="1186.72,-44.4017 1196.88,-41.3933 1187.07,-37.41 1186.72,-44.4017"/>
</g>
<!-- IaaS -->
<g id="node3" class="node"><title>IaaS</title>
<ellipse fill="none" stroke="black" cx="1830.35" cy="-126" rx="27" ry="18"/>
<text text-anchor="middle" x="1830.35" y="-122.3" font-family="Times,serif" font-size="14.00">IaaS</text>
</g>
<!-- ServerAsAService&#45;&gt;IaaS -->
<g id="edge2" class="edge"><title>ServerAsAService&#45;&gt;IaaS</title>
<path fill="none" stroke="black" d="M1336.91,-54.3313C1454.71,-71.4751 1701.92,-107.454 1793.89,-120.839"/>
<polygon fill="black" stroke="black" points="1793.41,-124.307 1803.81,-122.283 1794.42,-117.38 1793.41,-124.307"/>
</g>
<!-- CCS -->
<g id="node5" class="node"><title>CCS</title>
<ellipse fill="none" stroke="black" cx="2211.47" cy="-207" rx="27.0966" ry="18"/>
<text text-anchor="middle" x="2211.47" y="-203.3" font-family="Times,serif" font-size="14.00">CCS</text>
</g>
<!-- IaaS&#45;&gt;CCS -->
<g id="edge4" class="edge"><title>IaaS&#45;&gt;CCS</title>
<path fill="none" stroke="black" d="M1856.81,-130.665C1904.88,-139.565 2012.25,-159.88 2102.02,-180 2126.75,-185.542 2154.48,-192.458 2175.71,-197.903"/>
<polygon fill="black" stroke="black" points="2175.01,-201.337 2185.56,-200.445 2176.75,-194.559 2175.01,-201.337"/>
</g>
<!-- SaaS -->
<g id="node4" class="node"><title>SaaS</title>
<ellipse fill="none" stroke="black" cx="1830.35" cy="-207" rx="28.6953" ry="18"/>
<text text-anchor="middle" x="1830.35" y="-203.3" font-family="Times,serif" font-size="14.00">SaaS</text>
</g>
<!-- SaaS&#45;&gt;CCS -->
<g id="edge3" class="edge"><title>SaaS&#45;&gt;CCS</title>
<path fill="none" stroke="black" d="M1859.22,-207C1926.54,-207 2097.96,-207 2173.63,-207"/>
<polygon fill="black" stroke="black" points="2174.07,-210.5 2184.07,-207 2174.07,-203.5 2174.07,-210.5"/>
</g>
<!-- Attribute -->
<g id="node8" class="node"><title>Attribute</title>
<ellipse fill="none" stroke="black" cx="2363.16" cy="-612" rx="42.4939" ry="18"/>
<text text-anchor="middle" x="2363.16" y="-608.3" font-family="Times,serif" font-size="14.00">Attribute</text>
</g>
<!-- CCS&#45;&gt;Attribute -->
<g id="edge10" class="edge"><title>CCS&#45;&gt;Attribute</title>
<path fill="none" stroke="black" d="M2218.9,-224.402C2242.36,-287.868 2323.43,-507.215 2352.05,-584.66"/>
<polygon fill="black" stroke="black" points="2348.83,-586.04 2355.58,-594.206 2355.4,-583.613 2348.83,-586.04"/>
</g>
<!-- StorageAsAService -->
<g id="node6" class="node"><title>StorageAsAService</title>
<ellipse fill="none" stroke="black" cx="1271.79" cy="-126" rx="79.8859" ry="18"/>
<text text-anchor="middle" x="1271.79" y="-122.3" font-family="Times,serif" font-size="14.00">StorageAsAService</text>
</g>
<!-- StorageAsAService&#45;&gt;IaaS -->
<g id="edge5" class="edge"><title>StorageAsAService&#45;&gt;IaaS</title>
<path fill="none" stroke="black" d="M1351.94,-126C1474.22,-126 1704.21,-126 1793.05,-126"/>
<polygon fill="black" stroke="black" points="1793.16,-129.5 1803.16,-126 1793.16,-122.5 1793.16,-129.5"/>
</g>
<!-- NumericAttribute -->
<g id="node7" class="node"><title>NumericAttribute</title>
<ellipse fill="none" stroke="black" cx="2211.47" cy="-1692" rx="73.387" ry="18"/>
<text text-anchor="middle" x="2211.47" y="-1688.3" font-family="Times,serif" font-size="14.00">NumericAttribute</text>
</g>
<!-- NumericAttribute&#45;&gt;Attribute -->
<g id="edge6" class="edge"><title>NumericAttribute&#45;&gt;Attribute</title>
<path fill="none" stroke="black" d="M2215,-1673.71C2232.62,-1546.62 2336.69,-795.741 2358.25,-640.196"/>
<polygon fill="black" stroke="black" points="2361.75,-640.428 2359.66,-630.042 2354.82,-639.467 2361.75,-640.428"/>
</g>
<!-- object -->
<g id="node12" class="node"><title>object</title>
<ellipse fill="none" stroke="black" cx="2473.9" cy="-612" rx="32.4942" ry="18"/>
<text text-anchor="middle" x="2473.9" y="-608.3" font-family="Times,serif" font-size="14.00">object</text>
</g>
<!-- Attribute&#45;&gt;object -->
<g id="edge11" class="edge"><title>Attribute&#45;&gt;object</title>
<path fill="none" stroke="black" d="M2405.58,-612C2413.85,-612 2422.55,-612 2430.84,-612"/>
<polygon fill="black" stroke="black" points="2431.07,-615.5 2441.07,-612 2431.07,-608.5 2431.07,-615.5"/>
</g>
<!-- ChoiceAttribute -->
<g id="node9" class="node"><title>ChoiceAttribute</title>
<ellipse fill="none" stroke="black" cx="2211.47" cy="-990" rx="67.6881" ry="18"/>
<text text-anchor="middle" x="2211.47" y="-986.3" font-family="Times,serif" font-size="14.00">ChoiceAttribute</text>
</g>
<!-- ChoiceAttribute&#45;&gt;Attribute -->
<g id="edge7" class="edge"><title>ChoiceAttribute&#45;&gt;Attribute</title>
<path fill="none" stroke="black" d="M2219.59,-972.023C2243.67,-911.207 2322.2,-712.896 2351.24,-639.576"/>
<polygon fill="black" stroke="black" points="2354.57,-640.674 2354.99,-630.087 2348.06,-638.096 2354.57,-640.674"/>
</g>
<!-- BoolAttribute -->
<g id="node10" class="node"><title>BoolAttribute</title>
<ellipse fill="none" stroke="black" cx="2211.47" cy="-639" rx="59.5901" ry="18"/>
<text text-anchor="middle" x="2211.47" y="-635.3" font-family="Times,serif" font-size="14.00">BoolAttribute</text>
</g>
<!-- BoolAttribute&#45;&gt;Attribute -->
<g id="edge8" class="edge"><title>BoolAttribute&#45;&gt;Attribute</title>
<path fill="none" stroke="black" d="M2263.14,-629.859C2279.43,-626.922 2297.42,-623.678 2313.54,-620.768"/>
<polygon fill="black" stroke="black" points="2314.62,-624.131 2323.84,-618.912 2313.38,-617.242 2314.62,-624.131"/>
</g>
<!-- OptionAttribute -->
<g id="node11" class="node"><title>OptionAttribute</title>
<ellipse fill="none" stroke="black" cx="2211.47" cy="-585" rx="66.8882" ry="18"/>
<text text-anchor="middle" x="2211.47" y="-581.3" font-family="Times,serif" font-size="14.00">OptionAttribute</text>
</g>
<!-- OptionAttribute&#45;&gt;Attribute -->
<g id="edge9" class="edge"><title>OptionAttribute&#45;&gt;Attribute</title>
<path fill="none" stroke="black" d="M2267.78,-594.977C2282.94,-597.711 2299.24,-600.652 2313.97,-603.308"/>
<polygon fill="black" stroke="black" points="2313.41,-606.764 2323.87,-605.095 2314.65,-599.875 2313.41,-606.764"/>
</g>
<!-- Region -->
<g id="node13" class="node"><title>Region</title>
<ellipse fill="none" stroke="black" cx="1830.35" cy="-1125" rx="36.2938" ry="18"/>
<text text-anchor="middle" x="1830.35" y="-1121.3" font-family="Times,serif" font-size="14.00">Region</text>
</g>
<!-- Region&#45;&gt;ChoiceAttribute -->
<g id="edge12" class="edge"><title>Region&#45;&gt;ChoiceAttribute</title>
<path fill="none" stroke="black" d="M1866.2,-1128.71C1919.72,-1132.86 2024.1,-1134.82 2102.02,-1098 2140.66,-1079.75 2173.55,-1041.8 2192.66,-1016.12"/>
<polygon fill="black" stroke="black" points="2195.57,-1018.07 2198.61,-1007.92 2189.9,-1013.96 2195.57,-1018.07"/>
</g>
<!-- NorthAmerica -->
<g id="node14" class="node"><title>NorthAmerica</title>
<ellipse fill="none" stroke="black" cx="1830.35" cy="-855" rx="61.99" ry="18"/>
<text text-anchor="middle" x="1830.35" y="-851.3" font-family="Times,serif" font-size="14.00">NorthAmerica</text>
</g>
<!-- NorthAmerica&#45;&gt;OptionAttribute -->
<g id="edge13" class="edge"><title>NorthAmerica&#45;&gt;OptionAttribute</title>
<path fill="none" stroke="black" d="M1879.45,-865.936C1939.74,-876.54 2042.39,-883.841 2102.02,-828 2173.07,-761.48 2076.1,-687.086 2138.02,-612 2141.41,-607.898 2145.48,-604.42 2149.94,-601.469"/>
<polygon fill="black" stroke="black" points="2151.92,-604.368 2158.93,-596.422 2148.5,-598.264 2151.92,-604.368"/>
</g>
<!-- Australia -->
<g id="node15" class="node"><title>Australia</title>
<ellipse fill="none" stroke="black" cx="1830.35" cy="-801" rx="42.7926" ry="18"/>
<text text-anchor="middle" x="1830.35" y="-797.3" font-family="Times,serif" font-size="14.00">Australia</text>
</g>
<!-- Australia&#45;&gt;OptionAttribute -->
<g id="edge14" class="edge"><title>Australia&#45;&gt;OptionAttribute</title>
<path fill="none" stroke="black" d="M1868.58,-809.569C1926.24,-820.45 2037.2,-831.517 2102.02,-774 2157.19,-725.047 2089.59,-667.627 2138.02,-612 2141.66,-607.824 2146,-604.293 2150.73,-601.307"/>
<polygon fill="black" stroke="black" points="2152.48,-604.345 2159.6,-596.501 2149.14,-598.191 2152.48,-604.345"/>
</g>
<!-- Africa -->
<g id="node16" class="node"><title>Africa</title>
<ellipse fill="none" stroke="black" cx="1830.35" cy="-747" rx="33.2948" ry="18"/>
<text text-anchor="middle" x="1830.35" y="-743.3" font-family="Times,serif" font-size="14.00">Africa</text>
</g>
<!-- Africa&#45;&gt;OptionAttribute -->
<g id="edge15" class="edge"><title>Africa&#45;&gt;OptionAttribute</title>
<path fill="none" stroke="black" d="M1861.64,-753.632C1916.17,-763.692 2031.74,-776.165 2102.02,-720 2141.55,-688.413 2102.88,-648.398 2138.02,-612 2141.93,-607.957 2146.49,-604.514 2151.4,-601.583"/>
<polygon fill="black" stroke="black" points="2153.27,-604.557 2160.53,-596.842 2150.04,-598.345 2153.27,-604.557"/>
</g>
<!-- EastAsia -->
<g id="node17" class="node"><title>EastAsia</title>
<ellipse fill="none" stroke="black" cx="1830.35" cy="-693" rx="42.4939" ry="18"/>
<text text-anchor="middle" x="1830.35" y="-689.3" font-family="Times,serif" font-size="14.00">EastAsia</text>
</g>
<!-- EastAsia&#45;&gt;OptionAttribute -->
<g id="edge16" class="edge"><title>EastAsia&#45;&gt;OptionAttribute</title>
<path fill="none" stroke="black" d="M1870.41,-698.959C1926.1,-705.394 2029.57,-709.542 2102.02,-666 2126.75,-651.143 2115.41,-629.907 2138.02,-612 2142.93,-608.118 2148.44,-604.754 2154.19,-601.849"/>
<polygon fill="black" stroke="black" points="2155.72,-604.999 2163.35,-597.653 2152.8,-598.634 2155.72,-604.999"/>
</g>
<!-- SouthAmerica -->
<g id="node18" class="node"><title>SouthAmerica</title>
<ellipse fill="none" stroke="black" cx="1830.35" cy="-639" rx="61.99" ry="18"/>
<text text-anchor="middle" x="1830.35" y="-635.3" font-family="Times,serif" font-size="14.00">SouthAmerica</text>
</g>
<!-- SouthAmerica&#45;&gt;OptionAttribute -->
<g id="edge17" class="edge"><title>SouthAmerica&#45;&gt;OptionAttribute</title>
<path fill="none" stroke="black" d="M1891.09,-635.531C1946.16,-631.744 2030.02,-624.488 2102.02,-612 2119.36,-608.993 2138.03,-604.728 2154.9,-600.473"/>
<polygon fill="black" stroke="black" points="2155.79,-603.858 2164.61,-597.979 2154.05,-597.078 2155.79,-603.858"/>
</g>
<!-- Europe -->
<g id="node19" class="node"><title>Europe</title>
<ellipse fill="none" stroke="black" cx="1830.35" cy="-585" rx="36.2938" ry="18"/>
<text text-anchor="middle" x="1830.35" y="-581.3" font-family="Times,serif" font-size="14.00">Europe</text>
</g>
<!-- Europe&#45;&gt;OptionAttribute -->
<g id="edge18" class="edge"><title>Europe&#45;&gt;OptionAttribute</title>
<path fill="none" stroke="black" d="M1867.01,-585C1927.82,-585 2052.85,-585 2134.1,-585"/>
<polygon fill="black" stroke="black" points="2134.28,-588.5 2144.28,-585 2134.28,-581.5 2134.28,-588.5"/>
</g>
<!-- Antarctica -->
<g id="node20" class="node"><title>Antarctica</title>
<ellipse fill="none" stroke="black" cx="1830.35" cy="-531" rx="47.3916" ry="18"/>
<text text-anchor="middle" x="1830.35" y="-527.3" font-family="Times,serif" font-size="14.00">Antarctica</text>
</g>
<!-- Antarctica&#45;&gt;OptionAttribute -->
<g id="edge19" class="edge"><title>Antarctica&#45;&gt;OptionAttribute</title>
<path fill="none" stroke="black" d="M1877.6,-533.572C1931.71,-537.052 2023.85,-544.443 2102.02,-558 2119.36,-561.007 2138.03,-565.272 2154.9,-569.527"/>
<polygon fill="black" stroke="black" points="2154.05,-572.922 2164.61,-572.021 2155.79,-566.142 2154.05,-572.922"/>
</g>
<!-- Storage -->
<g id="node21" class="node"><title>Storage</title>
<ellipse fill="none" stroke="black" cx="1830.35" cy="-2259" rx="37.8943" ry="18"/>
<text text-anchor="middle" x="1830.35" y="-2255.3" font-family="Times,serif" font-size="14.00">Storage</text>
</g>
<!-- Storage&#45;&gt;NumericAttribute -->
<g id="edge20" class="edge"><title>Storage&#45;&gt;NumericAttribute</title>
<path fill="none" stroke="black" d="M1864.57,-2266.91C1921.09,-2278.23 2036.22,-2291.6 2102.02,-2232 2179.12,-2162.16 2203.5,-1820.98 2209.08,-1720.13"/>
<polygon fill="black" stroke="black" points="2212.58,-1720.26 2209.62,-1710.09 2205.59,-1719.89 2212.58,-1720.26"/>
</g>
<!-- StorageWriteSpeed -->
<g id="node22" class="node"><title>StorageWriteSpeed</title>
<ellipse fill="none" stroke="black" cx="1830.35" cy="-2205" rx="79.0865" ry="18"/>
<text text-anchor="middle" x="1830.35" y="-2201.3" font-family="Times,serif" font-size="14.00">StorageWriteSpeed</text>
</g>
<!-- StorageWriteSpeed&#45;&gt;NumericAttribute -->
<g id="edge21" class="edge"><title>StorageWriteSpeed&#45;&gt;NumericAttribute</title>
<path fill="none" stroke="black" d="M1889.47,-2217.08C1950.15,-2226.04 2044.33,-2229.14 2102.02,-2178 2171.64,-2116.28 2200.85,-1814.82 2208.39,-1720.36"/>
<polygon fill="black" stroke="black" points="2211.9,-1720.38 2209.18,-1710.14 2204.92,-1719.84 2211.9,-1720.38"/>
</g>
<!-- StorageReadSpeed -->
<g id="node23" class="node"><title>StorageReadSpeed</title>
<ellipse fill="none" stroke="black" cx="1830.35" cy="-2151" rx="77.1866" ry="18"/>
<text text-anchor="middle" x="1830.35" y="-2147.3" font-family="Times,serif" font-size="14.00">StorageReadSpeed</text>
</g>
<!-- StorageReadSpeed&#45;&gt;NumericAttribute -->
<g id="edge22" class="edge"><title>StorageReadSpeed&#45;&gt;NumericAttribute</title>
<path fill="none" stroke="black" d="M1889.21,-2162.77C1949.66,-2171.48 2043.66,-2174.38 2102.02,-2124 2164.32,-2070.22 2198,-1807.18 2207.57,-1720.07"/>
<polygon fill="black" stroke="black" points="2211.06,-1720.44 2208.65,-1710.12 2204.1,-1719.69 2211.06,-1720.44"/>
</g>
<!-- OperatingSystem -->
<g id="node24" class="node"><title>OperatingSystem</title>
<ellipse fill="none" stroke="black" cx="1830.35" cy="-1071" rx="72.2875" ry="18"/>
<text text-anchor="middle" x="1830.35" y="-1067.3" font-family="Times,serif" font-size="14.00">OperatingSystem</text>
</g>
<!-- OperatingSystem&#45;&gt;ChoiceAttribute -->
<g id="edge23" class="edge"><title>OperatingSystem&#45;&gt;ChoiceAttribute</title>
<path fill="none" stroke="black" d="M1902.77,-1070.87C1958.13,-1069.11 2036.23,-1062.97 2102.02,-1044 2127.72,-1036.59 2154.65,-1023.21 2175.25,-1011.63"/>
<polygon fill="black" stroke="black" points="2177.02,-1014.65 2183.95,-1006.63 2173.54,-1008.58 2177.02,-1014.65"/>
</g>
<!-- CpuCores -->
<g id="node25" class="node"><title>CpuCores</title>
<ellipse fill="none" stroke="black" cx="1830.35" cy="-2097" rx="46.2923" ry="18"/>
<text text-anchor="middle" x="1830.35" y="-2093.3" font-family="Times,serif" font-size="14.00">CpuCores</text>
</g>
<!-- CpuCores&#45;&gt;NumericAttribute -->
<g id="edge24" class="edge"><title>CpuCores&#45;&gt;NumericAttribute</title>
<path fill="none" stroke="black" d="M1871.01,-2105.59C1928.86,-2115.64 2036.58,-2124.62 2102.02,-2070 2156.84,-2024.25 2194.47,-1800.93 2206.41,-1720.74"/>
<polygon fill="black" stroke="black" points="2209.94,-1720.81 2207.92,-1710.4 2203.01,-1719.79 2209.94,-1720.81"/>
</g>
<!-- CpuClockSpeed -->
<g id="node26" class="node"><title>CpuClockSpeed</title>
<ellipse fill="none" stroke="black" cx="1830.35" cy="-2043" rx="67.6881" ry="18"/>
<text text-anchor="middle" x="1830.35" y="-2039.3" font-family="Times,serif" font-size="14.00">CpuClockSpeed</text>
</g>
<!-- CpuClockSpeed&#45;&gt;NumericAttribute -->
<g id="edge25" class="edge"><title>CpuClockSpeed&#45;&gt;NumericAttribute</title>
<path fill="none" stroke="black" d="M1885.47,-2053.47C1945.13,-2061.74 2040.75,-2064.9 2102.02,-2016 2195.15,-1941.67 2208.9,-1784.49 2210.5,-1720.26"/>
<polygon fill="black" stroke="black" points="2214,-1720.13 2210.67,-1710.07 2207,-1720.02 2214,-1720.13"/>
</g>
<!-- Ram -->
<g id="node27" class="node"><title>Ram</title>
<ellipse fill="none" stroke="black" cx="1830.35" cy="-1989" rx="27.8951" ry="18"/>
<text text-anchor="middle" x="1830.35" y="-1985.3" font-family="Times,serif" font-size="14.00">Ram</text>
</g>
<!-- Ram&#45;&gt;NumericAttribute -->
<g id="edge26" class="edge"><title>Ram&#45;&gt;NumericAttribute</title>
<path fill="none" stroke="black" d="M1857.18,-1994.48C1909.27,-2003.95 2028.2,-2017.44 2102.02,-1962 2180.95,-1902.72 2202.57,-1776.63 2208.38,-1720.26"/>
<polygon fill="black" stroke="black" points="2211.87,-1720.55 2209.32,-1710.26 2204.9,-1719.89 2211.87,-1720.55"/>
</g>
<!-- RamClockSpeed -->
<g id="node28" class="node"><title>RamClockSpeed</title>
<ellipse fill="none" stroke="black" cx="1830.35" cy="-1935" rx="70.3881" ry="18"/>
<text text-anchor="middle" x="1830.35" y="-1931.3" font-family="Times,serif" font-size="14.00">RamClockSpeed</text>
</g>
<!-- RamClockSpeed&#45;&gt;NumericAttribute -->
<g id="edge27" class="edge"><title>RamClockSpeed&#45;&gt;NumericAttribute</title>
<path fill="none" stroke="black" d="M1890.17,-1944.46C1949.03,-1950.66 2039.57,-1950.95 2102.02,-1908 2167.11,-1863.23 2195.12,-1767.5 2205.38,-1719.96"/>
<polygon fill="black" stroke="black" points="2208.83,-1720.55 2207.41,-1710.05 2201.97,-1719.14 2208.83,-1720.55"/>
</g>
<!-- RamWriteSpeed -->
<g id="node29" class="node"><title>RamWriteSpeed</title>
<ellipse fill="none" stroke="black" cx="1830.35" cy="-1881" rx="69.5877" ry="18"/>
<text text-anchor="middle" x="1830.35" y="-1877.3" font-family="Times,serif" font-size="14.00">RamWriteSpeed</text>
</g>
<!-- RamWriteSpeed&#45;&gt;NumericAttribute -->
<g id="edge28" class="edge"><title>RamWriteSpeed&#45;&gt;NumericAttribute</title>
<path fill="none" stroke="black" d="M1892.67,-1889.1C1950.76,-1893.65 2038.33,-1892.19 2102.02,-1854 2153.49,-1823.14 2185.69,-1757.3 2200.62,-1719.75"/>
<polygon fill="black" stroke="black" points="2204.06,-1720.55 2204.37,-1709.96 2197.52,-1718.05 2204.06,-1720.55"/>
</g>
<!-- RamReadSpeed -->
<g id="node30" class="node"><title>RamReadSpeed</title>
<ellipse fill="none" stroke="black" cx="1830.35" cy="-1827" rx="67.6881" ry="18"/>
<text text-anchor="middle" x="1830.35" y="-1823.3" font-family="Times,serif" font-size="14.00">RamReadSpeed</text>
</g>
<!-- RamReadSpeed&#45;&gt;NumericAttribute -->
<g id="edge29" class="edge"><title>RamReadSpeed&#45;&gt;NumericAttribute</title>
<path fill="none" stroke="black" d="M1894.98,-1832.36C1951.95,-1834.52 2036.37,-1831.02 2102.02,-1800 2140.66,-1781.75 2173.55,-1743.8 2192.66,-1718.12"/>
<polygon fill="black" stroke="black" points="2195.57,-1720.07 2198.61,-1709.92 2189.9,-1715.96 2195.57,-1720.07"/>
</g>
<!-- NetworkCapacity -->
<g id="node31" class="node"><title>NetworkCapacity</title>
<ellipse fill="none" stroke="black" cx="1830.35" cy="-1773" rx="72.5877" ry="18"/>
<text text-anchor="middle" x="1830.35" y="-1769.3" font-family="Times,serif" font-size="14.00">NetworkCapacity</text>
</g>
<!-- NetworkCapacity&#45;&gt;NumericAttribute -->
<g id="edge30" class="edge"><title>NetworkCapacity&#45;&gt;NumericAttribute</title>
<path fill="none" stroke="black" d="M1903.35,-1772.86C1958.67,-1771.07 2036.45,-1764.91 2102.02,-1746 2127.55,-1738.64 2154.28,-1725.4 2174.82,-1713.87"/>
<polygon fill="black" stroke="black" points="2176.58,-1716.9 2183.51,-1708.89 2173.09,-1710.83 2176.58,-1716.9"/>
</g>
<!-- NetworkUploadSpeed -->
<g id="node32" class="node"><title>NetworkUploadSpeed</title>
<ellipse fill="none" stroke="black" cx="1830.35" cy="-1719" rx="89.0842" ry="18"/>
<text text-anchor="middle" x="1830.35" y="-1715.3" font-family="Times,serif" font-size="14.00">NetworkUploadSpeed</text>
</g>
<!-- NetworkUploadSpeed&#45;&gt;NumericAttribute -->
<g id="edge31" class="edge"><title>NetworkUploadSpeed&#45;&gt;NumericAttribute</title>
<path fill="none" stroke="black" d="M1914.55,-1713.07C1978.76,-1708.5 2067.05,-1702.21 2130.45,-1697.7"/>
<polygon fill="black" stroke="black" points="2131.07,-1701.16 2140.8,-1696.96 2130.57,-1694.18 2131.07,-1701.16"/>
</g>
<!-- NetworkDownloadSpeed -->
<g id="node33" class="node"><title>NetworkDownloadSpeed</title>
<ellipse fill="none" stroke="black" cx="1830.35" cy="-1665" rx="99.3824" ry="18"/>
<text text-anchor="middle" x="1830.35" y="-1661.3" font-family="Times,serif" font-size="14.00">NetworkDownloadSpeed</text>
</g>
<!-- NetworkDownloadSpeed&#45;&gt;NumericAttribute -->
<g id="edge32" class="edge"><title>NetworkDownloadSpeed&#45;&gt;NumericAttribute</title>
<path fill="none" stroke="black" d="M1923.12,-1671.54C1986.41,-1676.04 2069.72,-1681.98 2130.33,-1686.29"/>
<polygon fill="black" stroke="black" points="2130.39,-1689.81 2140.62,-1687.03 2130.89,-1682.82 2130.39,-1689.81"/>
</g>
<!-- PricingModel -->
<g id="node34" class="node"><title>PricingModel</title>
<ellipse fill="none" stroke="black" cx="1830.35" cy="-1017" rx="59.5901" ry="18"/>
<text text-anchor="middle" x="1830.35" y="-1013.3" font-family="Times,serif" font-size="14.00">PricingModel</text>
</g>
<!-- PricingModel&#45;&gt;ChoiceAttribute -->
<g id="edge33" class="edge"><title>PricingModel&#45;&gt;ChoiceAttribute</title>
<path fill="none" stroke="black" d="M1888.93,-1012.9C1955.01,-1008.19 2063.56,-1000.46 2136.01,-995.303"/>
<polygon fill="black" stroke="black" points="2136.26,-998.794 2145.99,-994.592 2135.76,-991.811 2136.26,-998.794"/>
</g>
<!-- Static -->
<g id="node35" class="node"><title>Static</title>
<ellipse fill="none" stroke="black" cx="1830.35" cy="-477" rx="30.5947" ry="18"/>
<text text-anchor="middle" x="1830.35" y="-473.3" font-family="Times,serif" font-size="14.00">Static</text>
</g>
<!-- Static&#45;&gt;OptionAttribute -->
<g id="edge34" class="edge"><title>Static&#45;&gt;OptionAttribute</title>
<path fill="none" stroke="black" d="M1859.88,-472.352C1912.09,-465.377 2024.71,-457.539 2102.02,-504 2126.75,-518.857 2115.41,-540.093 2138.02,-558 2142.93,-561.882 2148.44,-565.246 2154.19,-568.151"/>
<polygon fill="black" stroke="black" points="2152.8,-571.366 2163.35,-572.347 2155.72,-565.001 2152.8,-571.366"/>
</g>
<!-- Dynamic -->
<g id="node36" class="node"><title>Dynamic</title>
<ellipse fill="none" stroke="black" cx="1830.35" cy="-423" rx="43.5923" ry="18"/>
<text text-anchor="middle" x="1830.35" y="-419.3" font-family="Times,serif" font-size="14.00">Dynamic</text>
</g>
<!-- Dynamic&#45;&gt;OptionAttribute -->
<g id="edge35" class="edge"><title>Dynamic&#45;&gt;OptionAttribute</title>
<path fill="none" stroke="black" d="M1869.76,-414.933C1926.99,-405.283 2035.06,-396.489 2102.02,-450 2141.55,-481.587 2102.88,-521.602 2138.02,-558 2141.93,-562.043 2146.49,-565.486 2151.4,-568.417"/>
<polygon fill="black" stroke="black" points="2150.04,-571.655 2160.53,-573.158 2153.27,-565.443 2150.04,-571.655"/>
</g>
<!-- PayAndGo -->
<g id="node37" class="node"><title>PayAndGo</title>
<ellipse fill="none" stroke="black" cx="1271.79" cy="-531" rx="50.0912" ry="18"/>
<text text-anchor="middle" x="1271.79" y="-527.3" font-family="Times,serif" font-size="14.00">PayAndGo</text>
</g>
<!-- PayAndGo&#45;&gt;Static -->
<g id="edge36" class="edge"><title>PayAndGo&#45;&gt;Static</title>
<path fill="none" stroke="black" d="M1320.24,-526.396C1428.15,-515.927 1690.25,-490.496 1789.96,-480.822"/>
<polygon fill="black" stroke="black" points="1790.31,-484.305 1799.92,-479.855 1789.63,-477.337 1790.31,-484.305"/>
</g>
<!-- PayPerResource -->
<g id="node38" class="node"><title>PayPerResource</title>
<ellipse fill="none" stroke="black" cx="1271.79" cy="-477" rx="68.4888" ry="18"/>
<text text-anchor="middle" x="1271.79" y="-473.3" font-family="Times,serif" font-size="14.00">PayPerResource</text>
</g>
<!-- PayPerResource&#45;&gt;Static -->
<g id="edge37" class="edge"><title>PayPerResource&#45;&gt;Static</title>
<path fill="none" stroke="black" d="M1340.2,-477C1457.38,-477 1695.13,-477 1789.47,-477"/>
<polygon fill="black" stroke="black" points="1789.72,-480.5 1799.72,-477 1789.72,-473.5 1789.72,-480.5"/>
</g>
<!-- Subscription -->
<g id="node39" class="node"><title>Subscription</title>
<ellipse fill="none" stroke="black" cx="1271.79" cy="-423" rx="55.4913" ry="18"/>
<text text-anchor="middle" x="1271.79" y="-419.3" font-family="Times,serif" font-size="14.00">Subscription</text>
</g>
<!-- Subscription&#45;&gt;Static -->
<g id="edge38" class="edge"><title>Subscription&#45;&gt;Static</title>
<path fill="none" stroke="black" d="M1325.15,-428.08C1435.85,-438.821 1691.54,-463.629 1789.85,-473.167"/>
<polygon fill="black" stroke="black" points="1789.66,-476.666 1799.95,-474.148 1790.34,-469.698 1789.66,-476.666"/>
</g>
<!-- Price -->
<g id="node40" class="node"><title>Price</title>
<ellipse fill="none" stroke="black" cx="2211.47" cy="-531" rx="28.6953" ry="18"/>
<text text-anchor="middle" x="2211.47" y="-527.3" font-family="Times,serif" font-size="14.00">Price</text>
</g>
<!-- Price&#45;&gt;Attribute -->
<g id="edge39" class="edge"><title>Price&#45;&gt;Attribute</title>
<path fill="none" stroke="black" d="M2237.62,-538.623C2251.87,-543.37 2269.82,-550.077 2284.91,-558 2302.07,-567.007 2319.88,-579.236 2334.07,-589.779"/>
<polygon fill="black" stroke="black" points="2332.31,-592.839 2342.4,-596.082 2336.54,-587.257 2332.31,-592.839"/>
</g>
<!-- DatabaseAsAService -->
<g id="node41" class="node"><title>DatabaseAsAService</title>
<ellipse fill="none" stroke="black" cx="1271.79" cy="-234" rx="85.2851" ry="18"/>
<text text-anchor="middle" x="1271.79" y="-230.3" font-family="Times,serif" font-size="14.00">DatabaseAsAService</text>
</g>
<!-- DatabaseAsAService&#45;&gt;SaaS -->
<g id="edge40" class="edge"><title>DatabaseAsAService&#45;&gt;SaaS</title>
<path fill="none" stroke="black" d="M1354.91,-230.016C1477.24,-224.082 1702.46,-213.156 1791.6,-208.831"/>
<polygon fill="black" stroke="black" points="1791.96,-212.318 1801.78,-208.337 1791.62,-205.326 1791.96,-212.318"/>
</g>
<!-- SQLDatabaseAsAService -->
<g id="node42" class="node"><title>SQLDatabaseAsAService</title>
<ellipse fill="none" stroke="black" cx="716.49" cy="-288" rx="102.082" ry="18"/>
<text text-anchor="middle" x="716.49" y="-284.3" font-family="Times,serif" font-size="14.00">SQLDatabaseAsAService</text>
</g>
<!-- SQLDatabaseAsAService&#45;&gt;DatabaseAsAService -->
<g id="edge41" class="edge"><title>SQLDatabaseAsAService&#45;&gt;DatabaseAsAService</title>
<path fill="none" stroke="black" d="M806.081,-279.354C909.933,-269.218 1080.92,-252.531 1183.99,-242.471"/>
<polygon fill="black" stroke="black" points="1184.45,-245.944 1194.06,-241.489 1183.77,-238.977 1184.45,-245.944"/>
</g>
<!-- NoSQLDatabaseAsAService -->
<g id="node43" class="node"><title>NoSQLDatabaseAsAService</title>
<ellipse fill="none" stroke="black" cx="716.49" cy="-234" rx="112.38" ry="18"/>
<text text-anchor="middle" x="716.49" y="-230.3" font-family="Times,serif" font-size="14.00">NoSQLDatabaseAsAService</text>
</g>
<!-- NoSQLDatabaseAsAService&#45;&gt;DatabaseAsAService -->
<g id="edge42" class="edge"><title>NoSQLDatabaseAsAService&#45;&gt;DatabaseAsAService</title>
<path fill="none" stroke="black" d="M829.126,-234C931.11,-234 1080.24,-234 1176.42,-234"/>
<polygon fill="black" stroke="black" points="1176.42,-237.5 1186.42,-234 1176.42,-230.5 1176.42,-237.5"/>
</g>
<!-- github.com/supermuesli/csdl@examples/StorageRequirement.py@latest -->
<g id="node44" class="node"><title>github.com/supermuesli/csdl@examples/StorageRequirement.py@latest</title>
<ellipse fill="none" stroke="black" cx="716.49" cy="-180" rx="268.352" ry="18"/>
<text text-anchor="middle" x="716.49" y="-176.3" font-family="Times,serif" font-size="14.00">github.com/supermuesli/csdl@examples/StorageRequirement.py@latest</text>
</g>
<!-- github.com/supermuesli/csdl@examples/StorageRequirement.py@latest&#45;&gt;StorageAsAService -->
<g id="edge43" class="edge"><title>github.com/supermuesli/csdl@examples/StorageRequirement.py@latest&#45;&gt;StorageAsAService</title>
<path fill="none" stroke="black" d="M869.414,-165.173C972.248,-155.137 1104.16,-142.263 1188.11,-134.07"/>
<polygon fill="black" stroke="black" points="1188.49,-137.549 1198.1,-133.094 1187.81,-130.582 1188.49,-137.549"/>
</g>
<!-- github.com/supermuesli/csdl@aws/regions/Region.py@latest -->
<g id="node45" class="node"><title>github.com/supermuesli/csdl@aws/regions/Region.py@latest</title>
<ellipse fill="none" stroke="black" cx="1271.79" cy="-1125" rx="229.359" ry="18"/>
<text text-anchor="middle" x="1271.79" y="-1121.3" font-family="Times,serif" font-size="14.00">github.com/supermuesli/csdl@aws/regions/Region.py@latest</text>
</g>
<!-- github.com/supermuesli/csdl@aws/regions/Region.py@latest&#45;&gt;Region -->
<g id="edge44" class="edge"><title>github.com/supermuesli/csdl@aws/regions/Region.py@latest&#45;&gt;Region</title>
<path fill="none" stroke="black" d="M1501.57,-1125C1606.72,-1125 1721.61,-1125 1783.56,-1125"/>
<polygon fill="black" stroke="black" points="1783.77,-1128.5 1793.77,-1125 1783.77,-1121.5 1783.77,-1128.5"/>
</g>
<!-- github.com/supermuesli/csdl@misc/countries/USA.py@latest -->
<g id="node46" class="node"><title>github.com/supermuesli/csdl@misc/countries/USA.py@latest</title>
<ellipse fill="none" stroke="black" cx="1271.79" cy="-855" rx="231.259" ry="18"/>
<text text-anchor="middle" x="1271.79" y="-851.3" font-family="Times,serif" font-size="14.00">github.com/supermuesli/csdl@misc/countries/USA.py@latest</text>
</g>
<!-- github.com/supermuesli/csdl@misc/countries/USA.py@latest&#45;&gt;NorthAmerica -->
<g id="edge45" class="edge"><title>github.com/supermuesli/csdl@misc/countries/USA.py@latest&#45;&gt;NorthAmerica</title>
<path fill="none" stroke="black" d="M1503.18,-855C1594.87,-855 1693.71,-855 1758.25,-855"/>
<polygon fill="black" stroke="black" points="1758.31,-858.5 1768.31,-855 1758.31,-851.5 1758.31,-858.5"/>
</g>
<!-- github.com/supermuesli/csdl@aws/regions/California.py@latest -->
<g id="node47" class="node"><title>github.com/supermuesli/csdl@aws/regions/California.py@latest</title>
<ellipse fill="none" stroke="black" cx="716.49" cy="-909" rx="239.358" ry="18"/>
<text text-anchor="middle" x="716.49" y="-905.3" font-family="Times,serif" font-size="14.00">github.com/supermuesli/csdl@aws/regions/California.py@latest</text>
</g>
<!-- github.com/supermuesli/csdl@aws/regions/California.py@latest&#45;&gt;github.com/supermuesli/csdl@misc/countries/USA.py@latest -->
<g id="edge46" class="edge"><title>github.com/supermuesli/csdl@aws/regions/California.py@latest&#45;&gt;github.com/supermuesli/csdl@misc/countries/USA.py@latest</title>
<path fill="none" stroke="black" d="M863.225,-894.777C941.215,-887.165 1037.24,-877.793 1116.5,-870.059"/>
<polygon fill="black" stroke="black" points="1116.96,-873.53 1126.57,-869.075 1116.28,-866.563 1116.96,-873.53"/>
</g>
<!-- github.com/supermuesli/csdl@aws/regions/NorthernVirginia.py@latest -->
<g id="node48" class="node"><title>github.com/supermuesli/csdl@aws/regions/NorthernVirginia.py@latest</title>
<ellipse fill="none" stroke="black" cx="716.49" cy="-855" rx="264.553" ry="18"/>
<text text-anchor="middle" x="716.49" y="-851.3" font-family="Times,serif" font-size="14.00">github.com/supermuesli/csdl@aws/regions/NorthernVirginia.py@latest</text>
</g>
<!-- github.com/supermuesli/csdl@aws/regions/NorthernVirginia.py@latest&#45;&gt;github.com/supermuesli/csdl@misc/countries/USA.py@latest -->
<g id="edge47" class="edge"><title>github.com/supermuesli/csdl@aws/regions/NorthernVirginia.py@latest&#45;&gt;github.com/supermuesli/csdl@misc/countries/USA.py@latest</title>
<path fill="none" stroke="black" d="M981.178,-855C997.543,-855 1013.97,-855 1030.23,-855"/>
<polygon fill="black" stroke="black" points="1030.32,-858.5 1040.32,-855 1030.32,-851.5 1030.32,-858.5"/>
</g>
<!-- github.com/supermuesli/csdl@aws/regions/NewYork.py@latest -->
<g id="node49" class="node"><title>github.com/supermuesli/csdl@aws/regions/NewYork.py@latest</title>
<ellipse fill="none" stroke="black" cx="716.49" cy="-801" rx="238.558" ry="18"/>
<text text-anchor="middle" x="716.49" y="-797.3" font-family="Times,serif" font-size="14.00">github.com/supermuesli/csdl@aws/regions/NewYork.py@latest</text>
</g>
<!-- github.com/supermuesli/csdl@aws/regions/NewYork.py@latest&#45;&gt;github.com/supermuesli/csdl@misc/countries/USA.py@latest -->
<g id="edge48" class="edge"><title>github.com/supermuesli/csdl@aws/regions/NewYork.py@latest&#45;&gt;github.com/supermuesli/csdl@misc/countries/USA.py@latest</title>
<path fill="none" stroke="black" d="M863.225,-815.223C941.215,-822.835 1037.24,-832.207 1116.5,-839.941"/>
<polygon fill="black" stroke="black" points="1116.28,-843.437 1126.57,-840.925 1116.96,-836.47 1116.28,-843.437"/>
</g>
<!-- github.com/supermuesli/csdl@misc/dataTransfer/In.py@latest -->
<g id="node50" class="node"><title>github.com/supermuesli/csdl@misc/dataTransfer/In.py@latest</title>
<ellipse fill="none" stroke="black" cx="1830.35" cy="-1611" rx="233.159" ry="18"/>
<text text-anchor="middle" x="1830.35" y="-1607.3" font-family="Times,serif" font-size="14.00">github.com/supermuesli/csdl@misc/dataTransfer/In.py@latest</text>
</g>
<!-- github.com/supermuesli/csdl@misc/dataTransfer/In.py@latest&#45;&gt;NumericAttribute -->
<g id="edge49" class="edge"><title>github.com/supermuesli/csdl@misc/dataTransfer/In.py@latest&#45;&gt;NumericAttribute</title>
<path fill="none" stroke="black" d="M2022.3,-1621.27C2049.37,-1625.26 2076.61,-1630.67 2102.02,-1638 2127.55,-1645.36 2154.28,-1658.6 2174.82,-1670.13"/>
<polygon fill="black" stroke="black" points="2173.09,-1673.17 2183.51,-1675.11 2176.58,-1667.1 2173.09,-1673.17"/>
</g>
<!-- github.com/supermuesli/csdl@misc/dataTransfer/Out.py@latest -->
<g id="node51" class="node"><title>github.com/supermuesli/csdl@misc/dataTransfer/Out.py@latest</title>
<ellipse fill="none" stroke="black" cx="1830.35" cy="-1557" rx="239.358" ry="18"/>
<text text-anchor="middle" x="1830.35" y="-1553.3" font-family="Times,serif" font-size="14.00">github.com/supermuesli/csdl@misc/dataTransfer/Out.py@latest</text>
</g>
<!-- github.com/supermuesli/csdl@misc/dataTransfer/Out.py@latest&#45;&gt;NumericAttribute -->
<g id="edge50" class="edge"><title>github.com/supermuesli/csdl@misc/dataTransfer/Out.py@latest&#45;&gt;NumericAttribute</title>
<path fill="none" stroke="black" d="M2046.73,-1564.73C2065.9,-1569.49 2084.62,-1575.78 2102.02,-1584 2140.66,-1602.25 2173.55,-1640.2 2192.66,-1665.88"/>
<polygon fill="black" stroke="black" points="2189.9,-1668.04 2198.61,-1674.08 2195.57,-1663.93 2189.9,-1668.04"/>
</g>
<!-- github.com/supermuesli/csdl@aws/s3/S3Type.py@latest -->
<g id="node52" class="node"><title>github.com/supermuesli/csdl@aws/s3/S3Type.py@latest</title>
<ellipse fill="none" stroke="black" cx="1830.35" cy="-963" rx="213.362" ry="18"/>
<text text-anchor="middle" x="1830.35" y="-959.3" font-family="Times,serif" font-size="14.00">github.com/supermuesli/csdl@aws/s3/S3Type.py@latest</text>
</g>
<!-- github.com/supermuesli/csdl@aws/s3/S3Type.py@latest&#45;&gt;ChoiceAttribute -->
<g id="edge51" class="edge"><title>github.com/supermuesli/csdl@aws/s3/S3Type.py@latest&#45;&gt;ChoiceAttribute</title>
<path fill="none" stroke="black" d="M1993.78,-974.568C2043.25,-978.091 2095.23,-981.793 2135.88,-984.688"/>
<polygon fill="black" stroke="black" points="2135.74,-988.187 2145.96,-985.406 2136.24,-981.205 2135.74,-988.187"/>
</g>
<!-- github.com/supermuesli/csdl@aws/s3/Standard.py@latest -->
<g id="node53" class="node"><title>github.com/supermuesli/csdl@aws/s3/Standard.py@latest</title>
<ellipse fill="none" stroke="black" cx="1830.35" cy="-369" rx="217.162" ry="18"/>
<text text-anchor="middle" x="1830.35" y="-365.3" font-family="Times,serif" font-size="14.00">github.com/supermuesli/csdl@aws/s3/Standard.py@latest</text>
</g>
<!-- github.com/supermuesli/csdl@aws/s3/Standard.py@latest&#45;&gt;OptionAttribute -->
<g id="edge52" class="edge"><title>github.com/supermuesli/csdl@aws/s3/Standard.py@latest&#45;&gt;OptionAttribute</title>
<path fill="none" stroke="black" d="M1926.22,-352.838C1983.82,-348.653 2055.04,-354.312 2102.02,-396 2157.19,-444.953 2089.59,-502.373 2138.02,-558 2141.66,-562.176 2146,-565.707 2150.73,-568.693"/>
<polygon fill="black" stroke="black" points="2149.14,-571.809 2159.6,-573.499 2152.48,-565.655 2149.14,-571.809"/>
</g>
<!-- github.com/supermuesli/csdl@aws/s3/StandardInfreqAccess.py@latest -->
<g id="node54" class="node"><title>github.com/supermuesli/csdl@aws/s3/StandardInfreqAccess.py@latest</title>
<ellipse fill="none" stroke="black" cx="1830.35" cy="-315" rx="263.453" ry="18"/>
<text text-anchor="middle" x="1830.35" y="-311.3" font-family="Times,serif" font-size="14.00">github.com/supermuesli/csdl@aws/s3/StandardInfreqAccess.py@latest</text>
</g>
<!-- github.com/supermuesli/csdl@aws/s3/StandardInfreqAccess.py@latest&#45;&gt;OptionAttribute -->
<g id="edge53" class="edge"><title>github.com/supermuesli/csdl@aws/s3/StandardInfreqAccess.py@latest&#45;&gt;OptionAttribute</title>
<path fill="none" stroke="black" d="M1924.73,-298.162C1983.03,-293.318 2055.57,-298.505 2102.02,-342 2173.07,-408.52 2076.1,-482.914 2138.02,-558 2141.41,-562.102 2145.48,-565.58 2149.94,-568.531"/>
<polygon fill="black" stroke="black" points="2148.5,-571.736 2158.93,-573.578 2151.92,-565.632 2148.5,-571.736"/>
</g>
<!-- github.com/supermuesli/csdl@misc/requests/PUTAmount.py@latest -->
<g id="node55" class="node"><title>github.com/supermuesli/csdl@misc/requests/PUTAmount.py@latest</title>
<ellipse fill="none" stroke="black" cx="1830.35" cy="-1503" rx="256.155" ry="18"/>
<text text-anchor="middle" x="1830.35" y="-1499.3" font-family="Times,serif" font-size="14.00">github.com/supermuesli/csdl@misc/requests/PUTAmount.py@latest</text>
</g>
<!-- github.com/supermuesli/csdl@misc/requests/PUTAmount.py@latest&#45;&gt;NumericAttribute -->
<g id="edge54" class="edge"><title>github.com/supermuesli/csdl@misc/requests/PUTAmount.py@latest&#45;&gt;NumericAttribute</title>
<path fill="none" stroke="black" d="M2060.62,-1510.99C2075.11,-1515.98 2089.06,-1522.23 2102.02,-1530 2153.49,-1560.86 2185.69,-1626.7 2200.62,-1664.25"/>
<polygon fill="black" stroke="black" points="2197.52,-1665.95 2204.37,-1674.04 2204.06,-1663.45 2197.52,-1665.95"/>
</g>
<!-- github.com/supermuesli/csdl@misc/requests/COPYAmount.py@latest -->
<g id="node56" class="node"><title>github.com/supermuesli/csdl@misc/requests/COPYAmount.py@latest</title>
<ellipse fill="none" stroke="black" cx="1830.35" cy="-1449" rx="262.653" ry="18"/>
<text text-anchor="middle" x="1830.35" y="-1445.3" font-family="Times,serif" font-size="14.00">github.com/supermuesli/csdl@misc/requests/COPYAmount.py@latest</text>
</g>
<!-- github.com/supermuesli/csdl@misc/requests/COPYAmount.py@latest&#45;&gt;NumericAttribute -->
<g id="edge55" class="edge"><title>github.com/supermuesli/csdl@misc/requests/COPYAmount.py@latest&#45;&gt;NumericAttribute</title>
<path fill="none" stroke="black" d="M2066.43,-1457C2078.96,-1462.11 2090.93,-1468.37 2102.02,-1476 2167.11,-1520.77 2195.12,-1616.5 2205.38,-1664.04"/>
<polygon fill="black" stroke="black" points="2201.97,-1664.86 2207.41,-1673.95 2208.83,-1663.45 2201.97,-1664.86"/>
</g>
<!-- github.com/supermuesli/csdl@misc/requests/LISTAmount.py@latest -->
<g id="node57" class="node"><title>github.com/supermuesli/csdl@misc/requests/LISTAmount.py@latest</title>
<ellipse fill="none" stroke="black" cx="1830.35" cy="-1395" rx="258.054" ry="18"/>
<text text-anchor="middle" x="1830.35" y="-1391.3" font-family="Times,serif" font-size="14.00">github.com/supermuesli/csdl@misc/requests/LISTAmount.py@latest</text>
</g>
<!-- github.com/supermuesli/csdl@misc/requests/LISTAmount.py@latest&#45;&gt;NumericAttribute -->
<g id="edge56" class="edge"><title>github.com/supermuesli/csdl@misc/requests/LISTAmount.py@latest&#45;&gt;NumericAttribute</title>
<path fill="none" stroke="black" d="M2067.86,-1402.21C2079.95,-1407.53 2091.45,-1414.06 2102.02,-1422 2180.95,-1481.28 2202.57,-1607.37 2208.38,-1663.74"/>
<polygon fill="black" stroke="black" points="2204.9,-1664.11 2209.32,-1673.74 2211.87,-1663.45 2204.9,-1664.11"/>
</g>
<!-- github.com/supermuesli/csdl@misc/requests/GETAmount.py@latest -->
<g id="node58" class="node"><title>github.com/supermuesli/csdl@misc/requests/GETAmount.py@latest</title>
<ellipse fill="none" stroke="black" cx="1830.35" cy="-1341" rx="256.955" ry="18"/>
<text text-anchor="middle" x="1830.35" y="-1337.3" font-family="Times,serif" font-size="14.00">github.com/supermuesli/csdl@misc/requests/GETAmount.py@latest</text>
</g>
<!-- github.com/supermuesli/csdl@misc/requests/GETAmount.py@latest&#45;&gt;NumericAttribute -->
<g id="edge57" class="edge"><title>github.com/supermuesli/csdl@misc/requests/GETAmount.py@latest&#45;&gt;NumericAttribute</title>
<path fill="none" stroke="black" d="M2069.06,-1347.77C2080.78,-1353.23 2091.87,-1359.9 2102.02,-1368 2195.15,-1442.33 2208.9,-1599.51 2210.5,-1663.74"/>
<polygon fill="black" stroke="black" points="2207,-1663.98 2210.67,-1673.93 2214,-1663.87 2207,-1663.98"/>
</g>
<!-- github.com/supermuesli/csdl@misc/requests/SELECTAmount.py@latest -->
<g id="node59" class="node"><title>github.com/supermuesli/csdl@misc/requests/SELECTAmount.py@latest</title>
<ellipse fill="none" stroke="black" cx="1830.35" cy="-1287" rx="271.852" ry="18"/>
<text text-anchor="middle" x="1830.35" y="-1283.3" font-family="Times,serif" font-size="14.00">github.com/supermuesli/csdl@misc/requests/SELECTAmount.py@latest</text>
</g>
<!-- github.com/supermuesli/csdl@misc/requests/SELECTAmount.py@latest&#45;&gt;NumericAttribute -->
<g id="edge58" class="edge"><title>github.com/supermuesli/csdl@misc/requests/SELECTAmount.py@latest&#45;&gt;NumericAttribute</title>
<path fill="none" stroke="black" d="M2073.27,-1295.12C2083.48,-1300.35 2093.14,-1306.59 2102.02,-1314 2156.84,-1359.75 2194.47,-1583.07 2206.41,-1663.26"/>
<polygon fill="black" stroke="black" points="2203.01,-1664.21 2207.92,-1673.6 2209.94,-1663.19 2203.01,-1664.21"/>
</g>
<!-- github.com/supermuesli/csdl@misc/requests/POSTAmount.py@latest -->
<g id="node60" class="node"><title>github.com/supermuesli/csdl@misc/requests/POSTAmount.py@latest</title>
<ellipse fill="none" stroke="black" cx="1830.35" cy="-1233" rx="260.754" ry="18"/>
<text text-anchor="middle" x="1830.35" y="-1229.3" font-family="Times,serif" font-size="14.00">github.com/supermuesli/csdl@misc/requests/POSTAmount.py@latest</text>
</g>
<!-- github.com/supermuesli/csdl@misc/requests/POSTAmount.py@latest&#45;&gt;NumericAttribute -->
<g id="edge59" class="edge"><title>github.com/supermuesli/csdl@misc/requests/POSTAmount.py@latest&#45;&gt;NumericAttribute</title>
<path fill="none" stroke="black" d="M2072.02,-1239.95C2082.73,-1245.43 2092.82,-1252.05 2102.02,-1260 2164.32,-1313.78 2198,-1576.82 2207.57,-1663.93"/>
<polygon fill="black" stroke="black" points="2204.1,-1664.31 2208.65,-1673.88 2211.06,-1663.56 2204.1,-1664.31"/>
</g>
<!-- github.com/supermuesli/csdl@aws/ec2/EC2.py@latest -->
<g id="node61" class="node"><title>github.com/supermuesli/csdl@aws/ec2/EC2.py@latest</title>
<ellipse fill="none" stroke="black" cx="206.032" cy="-18" rx="206.063" ry="18"/>
<text text-anchor="middle" x="206.032" y="-14.3" font-family="Times,serif" font-size="14.00">github.com/supermuesli/csdl@aws/ec2/EC2.py@latest</text>
</g>
<!-- github.com/supermuesli/csdl@aws/ec2/EC2.py@latest&#45;&gt;VMAsAService -->
<g id="edge60" class="edge"><title>github.com/supermuesli/csdl@aws/ec2/EC2.py@latest&#45;&gt;VMAsAService</title>
<path fill="none" stroke="black" d="M412.375,-18C492.102,-18 578.494,-18 638.572,-18"/>
<polygon fill="black" stroke="black" points="638.728,-21.5001 648.728,-18 638.728,-14.5001 638.728,-21.5001"/>
</g>
<!-- github.com/supermuesli/csdl@aws/ec2/MachineType.py@latest -->
<g id="node62" class="node"><title>github.com/supermuesli/csdl@aws/ec2/MachineType.py@latest</title>
<ellipse fill="none" stroke="black" cx="1830.35" cy="-909" rx="239.358" ry="18"/>
<text text-anchor="middle" x="1830.35" y="-905.3" font-family="Times,serif" font-size="14.00">github.com/supermuesli/csdl@aws/ec2/MachineType.py@latest</text>
</g>
<!-- github.com/supermuesli/csdl@aws/ec2/MachineType.py@latest&#45;&gt;ChoiceAttribute -->
<g id="edge61" class="edge"><title>github.com/supermuesli/csdl@aws/ec2/MachineType.py@latest&#45;&gt;ChoiceAttribute</title>
<path fill="none" stroke="black" d="M2024.48,-919.597C2050.82,-923.551 2077.29,-928.869 2102.02,-936 2127.72,-943.41 2154.65,-956.786 2175.25,-968.37"/>
<polygon fill="black" stroke="black" points="2173.54,-971.422 2183.95,-973.37 2177.02,-965.353 2173.54,-971.422"/>
</g>
<!-- github.com/supermuesli/csdl@aws/ec2/A1Large.py@latest -->
<g id="node63" class="node"><title>github.com/supermuesli/csdl@aws/ec2/A1Large.py@latest</title>
<ellipse fill="none" stroke="black" cx="1830.35" cy="-261" rx="221.761" ry="18"/>
<text text-anchor="middle" x="1830.35" y="-257.3" font-family="Times,serif" font-size="14.00">github.com/supermuesli/csdl@aws/ec2/A1Large.py@latest</text>
</g>
<!-- github.com/supermuesli/csdl@aws/ec2/A1Large.py@latest&#45;&gt;OptionAttribute -->
<g id="edge62" class="edge"><title>github.com/supermuesli/csdl@aws/ec2/A1Large.py@latest&#45;&gt;OptionAttribute</title>
<path fill="none" stroke="black" d="M1917.17,-244.422C1976.91,-238.213 2054.16,-241.702 2102.02,-288 2189.03,-372.174 2062.53,-463.357 2138.02,-558 2141.34,-562.156 2145.36,-565.673 2149.8,-568.648"/>
<polygon fill="black" stroke="black" points="2148.32,-571.837 2158.75,-573.728 2151.78,-565.748 2148.32,-571.837"/>
</g>
<!-- github.com/supermuesli/csdl@aws/EBS.py@latest -->
<g id="node64" class="node"><title>github.com/supermuesli/csdl@aws/EBS.py@latest</title>
<ellipse fill="none" stroke="black" cx="716.49" cy="-126" rx="191.966" ry="18"/>
<text text-anchor="middle" x="716.49" y="-122.3" font-family="Times,serif" font-size="14.00">github.com/supermuesli/csdl@aws/EBS.py@latest</text>
</g>
<!-- github.com/supermuesli/csdl@aws/EBS.py@latest&#45;&gt;StorageAsAService -->
<g id="edge63" class="edge"><title>github.com/supermuesli/csdl@aws/EBS.py@latest&#45;&gt;StorageAsAService</title>
<path fill="none" stroke="black" d="M908.293,-126C1000.96,-126 1107.89,-126 1181.48,-126"/>
<polygon fill="black" stroke="black" points="1181.63,-129.5 1191.63,-126 1181.63,-122.5 1181.63,-129.5"/>
</g>
<!-- github.com/supermuesli/csdl@misc/StaticIp.py@latest -->
<g id="node65" class="node"><title>github.com/supermuesli/csdl@misc/StaticIp.py@latest</title>
<ellipse fill="none" stroke="black" cx="1830.35" cy="-1179" rx="206.063" ry="18"/>
<text text-anchor="middle" x="1830.35" y="-1175.3" font-family="Times,serif" font-size="14.00">github.com/supermuesli/csdl@misc/StaticIp.py@latest</text>
</g>
<!-- github.com/supermuesli/csdl@misc/StaticIp.py@latest&#45;&gt;NumericAttribute -->
<g id="edge64" class="edge"><title>github.com/supermuesli/csdl@misc/StaticIp.py@latest&#45;&gt;NumericAttribute</title>
<path fill="none" stroke="black" d="M1924.59,-1162.97C1982.46,-1158.57 2054.58,-1163.94 2102.02,-1206 2171.64,-1267.72 2200.85,-1569.18 2208.39,-1663.64"/>
<polygon fill="black" stroke="black" points="2204.92,-1664.16 2209.18,-1673.86 2211.9,-1663.62 2204.92,-1664.16"/>
</g>
<!-- github.com/supermuesli/csdl@aws/ec2/ElasticIpAmount.py@latest -->
<g id="node66" class="node"><title>github.com/supermuesli/csdl@aws/ec2/ElasticIpAmount.py@latest</title>
<ellipse fill="none" stroke="black" cx="1271.79" cy="-1179" rx="250.756" ry="18"/>
<text text-anchor="middle" x="1271.79" y="-1175.3" font-family="Times,serif" font-size="14.00">github.com/supermuesli/csdl@aws/ec2/ElasticIpAmount.py@latest</text>
</g>
<!-- github.com/supermuesli/csdl@aws/ec2/ElasticIpAmount.py@latest&#45;&gt;github.com/supermuesli/csdl@misc/StaticIp.py@latest -->
<g id="edge65" class="edge"><title>github.com/supermuesli/csdl@aws/ec2/ElasticIpAmount.py@latest&#45;&gt;github.com/supermuesli/csdl@misc/StaticIp.py@latest</title>
<path fill="none" stroke="black" d="M1522.99,-1179C1553.34,-1179 1584.14,-1179 1613.93,-1179"/>
<polygon fill="black" stroke="black" points="1613.99,-1182.5 1623.99,-1179 1613.99,-1175.5 1613.99,-1182.5"/>
</g>
<!-- github.com/supermuesli/csdl@aws/s3/S3.py@latest -->
<g id="node67" class="node"><title>github.com/supermuesli/csdl@aws/s3/S3.py@latest</title>
<ellipse fill="none" stroke="black" cx="716.49" cy="-72" rx="194.965" ry="18"/>
<text text-anchor="middle" x="716.49" y="-68.3" font-family="Times,serif" font-size="14.00">github.com/supermuesli/csdl@aws/s3/S3.py@latest</text>
</g>
<!-- github.com/supermuesli/csdl@aws/s3/S3.py@latest&#45;&gt;StorageAsAService -->
<g id="edge66" class="edge"><title>github.com/supermuesli/csdl@aws/s3/S3.py@latest&#45;&gt;StorageAsAService</title>
<path fill="none" stroke="black" d="M851.076,-85.0375C956.081,-95.2855 1099.02,-109.236 1188.06,-117.925"/>
<polygon fill="black" stroke="black" points="1187.81,-121.418 1198.11,-118.906 1188.49,-114.451 1187.81,-121.418"/>
</g>
</g>
</svg>
