<?xml version="1.0" encoding="UTF-8" standalone="no"?>
<!DOCTYPE svg PUBLIC "-//W3C//DTD SVG 1.1//EN"
 "http://www.w3.org/Graphics/SVG/1.1/DTD/svg11.dtd">
<!-- Generated by graphviz version 2.38.0 (20140413.2041)
 -->
<!-- Title: %3 Pages: 1 -->
<svg width="2469pt" height="1637pt"
 viewBox="0.00 0.00 2468.90 1637.00" xmlns="http://www.w3.org/2000/svg" xmlns:xlink="http://www.w3.org/1999/xlink">
<g id="graph0" class="graph" transform="scale(1 1) rotate(0) translate(4 1633)">
<title>%3</title>
<polygon fill="white" stroke="none" points="-4,4 -4,-1633 2464.9,-1633 2464.9,4 -4,4"/>
<!-- VMAsAService -->
<g id="node1" class="node"><title>VMAsAService</title>
<ellipse fill="none" stroke="black" cx="775.634" cy="-45" rx="67.6881" ry="18"/>
<text text-anchor="middle" x="775.634" y="-41.3" font-family="Times,serif" font-size="14.00">VMAsAService</text>
</g>
<!-- ServerAsAService -->
<g id="node2" class="node"><title>ServerAsAService</title>
<ellipse fill="none" stroke="black" cx="1310.79" cy="-45" rx="76.0865" ry="18"/>
<text text-anchor="middle" x="1310.79" y="-41.3" font-family="Times,serif" font-size="14.00">ServerAsAService</text>
</g>
<!-- VMAsAService&#45;&gt;ServerAsAService -->
<g id="edge1" class="edge"><title>VMAsAService&#45;&gt;ServerAsAService</title>
<path fill="none" stroke="black" d="M843.35,-45C939.847,-45 1118.39,-45 1224.39,-45"/>
<polygon fill="black" stroke="black" points="1224.41,-48.5001 1234.41,-45 1224.41,-41.5001 1224.41,-48.5001"/>
</g>
<!-- IaaS -->
<g id="node3" class="node"><title>IaaS</title>
<ellipse fill="none" stroke="black" cx="1827.1" cy="-99" rx="27" ry="18"/>
<text text-anchor="middle" x="1827.1" y="-95.3" font-family="Times,serif" font-size="14.00">IaaS</text>
</g>
<!-- ServerAsAService&#45;&gt;IaaS -->
<g id="edge2" class="edge"><title>ServerAsAService&#45;&gt;IaaS</title>
<path fill="none" stroke="black" d="M1380.62,-52.2266C1491.39,-63.8572 1705.37,-86.3236 1790.19,-95.2301"/>
<polygon fill="black" stroke="black" points="1790.04,-98.7331 1800.35,-96.2966 1790.77,-91.7714 1790.04,-98.7331"/>
</g>
<!-- CCS -->
<g id="node5" class="node"><title>CCS</title>
<ellipse fill="none" stroke="black" cx="2165.97" cy="-153" rx="27.0966" ry="18"/>
<text text-anchor="middle" x="2165.97" y="-149.3" font-family="Times,serif" font-size="14.00">CCS</text>
</g>
<!-- IaaS&#45;&gt;CCS -->
<g id="edge4" class="edge"><title>IaaS&#45;&gt;CCS</title>
<path fill="none" stroke="black" d="M1853.95,-100.984C1896.45,-104.485 1983.66,-112.677 2056.53,-126 2081.62,-130.588 2109.55,-137.586 2130.77,-143.307"/>
<polygon fill="black" stroke="black" points="2130.04,-146.737 2140.61,-145.998 2131.89,-139.984 2130.04,-146.737"/>
</g>
<!-- SaaS -->
<g id="node4" class="node"><title>SaaS</title>
<ellipse fill="none" stroke="black" cx="1827.1" cy="-153" rx="28.6953" ry="18"/>
<text text-anchor="middle" x="1827.1" y="-149.3" font-family="Times,serif" font-size="14.00">SaaS</text>
</g>
<!-- SaaS&#45;&gt;CCS -->
<g id="edge3" class="edge"><title>SaaS&#45;&gt;CCS</title>
<path fill="none" stroke="black" d="M1855.95,-153C1916.55,-153 2060.37,-153 2128.27,-153"/>
<polygon fill="black" stroke="black" points="2128.49,-156.5 2138.49,-153 2128.49,-149.5 2128.49,-156.5"/>
</g>
<!-- Attribute -->
<g id="node8" class="node"><title>Attribute</title>
<ellipse fill="none" stroke="black" cx="2317.66" cy="-504" rx="42.4939" ry="18"/>
<text text-anchor="middle" x="2317.66" y="-500.3" font-family="Times,serif" font-size="14.00">Attribute</text>
</g>
<!-- CCS&#45;&gt;Attribute -->
<g id="edge10" class="edge"><title>CCS&#45;&gt;Attribute</title>
<path fill="none" stroke="black" d="M2174.39,-170.406C2198.63,-227.231 2275.56,-407.62 2305.02,-476.712"/>
<polygon fill="black" stroke="black" points="2301.87,-478.245 2309.01,-486.071 2308.31,-475.499 2301.87,-478.245"/>
</g>
<!-- StorageAsAService -->
<g id="node6" class="node"><title>StorageAsAService</title>
<ellipse fill="none" stroke="black" cx="1310.79" cy="-99" rx="79.8859" ry="18"/>
<text text-anchor="middle" x="1310.79" y="-95.3" font-family="Times,serif" font-size="14.00">StorageAsAService</text>
</g>
<!-- StorageAsAService&#45;&gt;IaaS -->
<g id="edge5" class="edge"><title>StorageAsAService&#45;&gt;IaaS</title>
<path fill="none" stroke="black" d="M1390.74,-99C1503.77,-99 1707.16,-99 1789.76,-99"/>
<polygon fill="black" stroke="black" points="1789.9,-102.5 1799.9,-99 1789.9,-95.5001 1789.9,-102.5"/>
</g>
<!-- NumericAttribute -->
<g id="node7" class="node"><title>NumericAttribute</title>
<ellipse fill="none" stroke="black" cx="2165.97" cy="-1260" rx="73.387" ry="18"/>
<text text-anchor="middle" x="2165.97" y="-1256.3" font-family="Times,serif" font-size="14.00">NumericAttribute</text>
</g>
<!-- NumericAttribute&#45;&gt;Attribute -->
<g id="edge6" class="edge"><title>NumericAttribute&#45;&gt;Attribute</title>
<path fill="none" stroke="black" d="M2170.6,-1241.69C2190.53,-1141 2286.79,-654.859 2311.08,-532.167"/>
<polygon fill="black" stroke="black" points="2314.57,-532.562 2313.08,-522.072 2307.71,-531.202 2314.57,-532.562"/>
</g>
<!-- object -->
<g id="node12" class="node"><title>object</title>
<ellipse fill="none" stroke="black" cx="2428.4" cy="-504" rx="32.4942" ry="18"/>
<text text-anchor="middle" x="2428.4" y="-500.3" font-family="Times,serif" font-size="14.00">object</text>
</g>
<!-- Attribute&#45;&gt;object -->
<g id="edge11" class="edge"><title>Attribute&#45;&gt;object</title>
<path fill="none" stroke="black" d="M2360.08,-504C2368.35,-504 2377.05,-504 2385.34,-504"/>
<polygon fill="black" stroke="black" points="2385.57,-507.5 2395.57,-504 2385.57,-500.5 2385.57,-507.5"/>
</g>
<!-- ChoiceAttribute -->
<g id="node9" class="node"><title>ChoiceAttribute</title>
<ellipse fill="none" stroke="black" cx="2165.97" cy="-801" rx="67.6881" ry="18"/>
<text text-anchor="middle" x="2165.97" y="-797.3" font-family="Times,serif" font-size="14.00">ChoiceAttribute</text>
</g>
<!-- ChoiceAttribute&#45;&gt;Attribute -->
<g id="edge7" class="edge"><title>ChoiceAttribute&#45;&gt;Attribute</title>
<path fill="none" stroke="black" d="M2176.11,-782.868C2201.54,-732.404 2273.25,-590.128 2303.23,-530.653"/>
<polygon fill="black" stroke="black" points="2306.45,-532.026 2307.83,-521.52 2300.2,-528.875 2306.45,-532.026"/>
</g>
<!-- BoolAttribute -->
<g id="node10" class="node"><title>BoolAttribute</title>
<ellipse fill="none" stroke="black" cx="2165.97" cy="-531" rx="59.5901" ry="18"/>
<text text-anchor="middle" x="2165.97" y="-527.3" font-family="Times,serif" font-size="14.00">BoolAttribute</text>
</g>
<!-- BoolAttribute&#45;&gt;Attribute -->
<g id="edge8" class="edge"><title>BoolAttribute&#45;&gt;Attribute</title>
<path fill="none" stroke="black" d="M2217.65,-521.859C2233.93,-518.922 2251.92,-515.678 2268.05,-512.768"/>
<polygon fill="black" stroke="black" points="2269.12,-516.131 2278.34,-510.912 2267.88,-509.242 2269.12,-516.131"/>
</g>
<!-- OptionAttribute -->
<g id="node11" class="node"><title>OptionAttribute</title>
<ellipse fill="none" stroke="black" cx="2165.97" cy="-477" rx="66.8882" ry="18"/>
<text text-anchor="middle" x="2165.97" y="-473.3" font-family="Times,serif" font-size="14.00">OptionAttribute</text>
</g>
<!-- OptionAttribute&#45;&gt;Attribute -->
<g id="edge9" class="edge"><title>OptionAttribute&#45;&gt;Attribute</title>
<path fill="none" stroke="black" d="M2222.28,-486.977C2237.44,-489.711 2253.75,-492.652 2268.47,-495.308"/>
<polygon fill="black" stroke="black" points="2267.92,-498.764 2278.38,-497.095 2269.16,-491.875 2267.92,-498.764"/>
</g>
<!-- Region -->
<g id="node13" class="node"><title>Region</title>
<ellipse fill="none" stroke="black" cx="1827.1" cy="-909" rx="36.2938" ry="18"/>
<text text-anchor="middle" x="1827.1" y="-905.3" font-family="Times,serif" font-size="14.00">Region</text>
</g>
<!-- Region&#45;&gt;ChoiceAttribute -->
<g id="edge12" class="edge"><title>Region&#45;&gt;ChoiceAttribute</title>
<path fill="none" stroke="black" d="M1863.53,-910.389C1909.65,-910.968 1991.99,-907.747 2056.53,-882 2088.65,-869.183 2119.69,-844.326 2140.26,-825.512"/>
<polygon fill="black" stroke="black" points="2142.71,-828.022 2147.62,-818.635 2137.92,-822.909 2142.71,-828.022"/>
</g>
<!-- NorthAmerica -->
<g id="node14" class="node"><title>NorthAmerica</title>
<ellipse fill="none" stroke="black" cx="1827.1" cy="-693" rx="61.99" ry="18"/>
<text text-anchor="middle" x="1827.1" y="-689.3" font-family="Times,serif" font-size="14.00">NorthAmerica</text>
</g>
<!-- NorthAmerica&#45;&gt;OptionAttribute -->
<g id="edge13" class="edge"><title>NorthAmerica&#45;&gt;OptionAttribute</title>
<path fill="none" stroke="black" d="M1879.89,-702.473C1931.26,-708.677 2008.98,-708.975 2056.53,-666 2111.25,-616.546 2044.1,-559.627 2092.53,-504 2096.16,-499.824 2100.51,-496.293 2105.24,-493.307"/>
<polygon fill="black" stroke="black" points="2106.98,-496.345 2114.1,-488.501 2103.64,-490.191 2106.98,-496.345"/>
</g>
<!-- Australia -->
<g id="node15" class="node"><title>Australia</title>
<ellipse fill="none" stroke="black" cx="1827.1" cy="-639" rx="42.7926" ry="18"/>
<text text-anchor="middle" x="1827.1" y="-635.3" font-family="Times,serif" font-size="14.00">Australia</text>
</g>
<!-- Australia&#45;&gt;OptionAttribute -->
<g id="edge14" class="edge"><title>Australia&#45;&gt;OptionAttribute</title>
<path fill="none" stroke="black" d="M1866.81,-645.968C1916.48,-652.579 2002.64,-655.872 2056.53,-612 2095.76,-580.054 2057.38,-540.398 2092.53,-504 2096.43,-499.957 2101,-496.514 2105.9,-493.583"/>
<polygon fill="black" stroke="black" points="2107.77,-496.557 2115.03,-488.842 2104.54,-490.345 2107.77,-496.557"/>
</g>
<!-- Africa -->
<g id="node16" class="node"><title>Africa</title>
<ellipse fill="none" stroke="black" cx="1827.1" cy="-585" rx="33.2948" ry="18"/>
<text text-anchor="middle" x="1827.1" y="-581.3" font-family="Times,serif" font-size="14.00">Africa</text>
</g>
<!-- Africa&#45;&gt;OptionAttribute -->
<g id="edge15" class="edge"><title>Africa&#45;&gt;OptionAttribute</title>
<path fill="none" stroke="black" d="M1859.56,-589.137C1906.24,-593.642 1994.91,-595.794 2056.53,-558 2081.11,-542.918 2069.91,-521.907 2092.53,-504 2097.43,-500.118 2102.95,-496.754 2108.69,-493.849"/>
<polygon fill="black" stroke="black" points="2110.22,-496.999 2117.86,-489.653 2107.31,-490.634 2110.22,-496.999"/>
</g>
<!-- EastAsia -->
<g id="node17" class="node"><title>EastAsia</title>
<ellipse fill="none" stroke="black" cx="1827.1" cy="-531" rx="42.4939" ry="18"/>
<text text-anchor="middle" x="1827.1" y="-527.3" font-family="Times,serif" font-size="14.00">EastAsia</text>
</g>
<!-- EastAsia&#45;&gt;OptionAttribute -->
<g id="edge16" class="edge"><title>EastAsia&#45;&gt;OptionAttribute</title>
<path fill="none" stroke="black" d="M1868.77,-527.756C1914.63,-523.736 1991.32,-515.922 2056.53,-504 2073.6,-500.879 2091.98,-496.643 2108.67,-492.453"/>
<polygon fill="black" stroke="black" points="2109.99,-495.727 2118.81,-489.86 2108.26,-488.945 2109.99,-495.727"/>
</g>
<!-- SouthAmerica -->
<g id="node18" class="node"><title>SouthAmerica</title>
<ellipse fill="none" stroke="black" cx="1827.1" cy="-477" rx="61.99" ry="18"/>
<text text-anchor="middle" x="1827.1" y="-473.3" font-family="Times,serif" font-size="14.00">SouthAmerica</text>
</g>
<!-- SouthAmerica&#45;&gt;OptionAttribute -->
<g id="edge17" class="edge"><title>SouthAmerica&#45;&gt;OptionAttribute</title>
<path fill="none" stroke="black" d="M1889.1,-477C1945.11,-477 2028.33,-477 2088.71,-477"/>
<polygon fill="black" stroke="black" points="2088.95,-480.5 2098.95,-477 2088.95,-473.5 2088.95,-480.5"/>
</g>
<!-- Europe -->
<g id="node19" class="node"><title>Europe</title>
<ellipse fill="none" stroke="black" cx="1827.1" cy="-423" rx="36.2938" ry="18"/>
<text text-anchor="middle" x="1827.1" y="-419.3" font-family="Times,serif" font-size="14.00">Europe</text>
</g>
<!-- Europe&#45;&gt;OptionAttribute -->
<g id="edge18" class="edge"><title>Europe&#45;&gt;OptionAttribute</title>
<path fill="none" stroke="black" d="M1863.13,-425.756C1908.14,-429.613 1988.57,-437.575 2056.53,-450 2073.6,-453.121 2091.98,-457.357 2108.67,-461.547"/>
<polygon fill="black" stroke="black" points="2108.26,-465.055 2118.81,-464.14 2109.99,-458.273 2108.26,-465.055"/>
</g>
<!-- Antarctica -->
<g id="node20" class="node"><title>Antarctica</title>
<ellipse fill="none" stroke="black" cx="1827.1" cy="-369" rx="47.3916" ry="18"/>
<text text-anchor="middle" x="1827.1" y="-365.3" font-family="Times,serif" font-size="14.00">Antarctica</text>
</g>
<!-- Antarctica&#45;&gt;OptionAttribute -->
<g id="edge19" class="edge"><title>Antarctica&#45;&gt;OptionAttribute</title>
<path fill="none" stroke="black" d="M1872.88,-363.749C1921.7,-360.29 2000.36,-361.547 2056.53,-396 2081.11,-411.082 2069.91,-432.093 2092.53,-450 2097.43,-453.882 2102.95,-457.246 2108.69,-460.151"/>
<polygon fill="black" stroke="black" points="2107.31,-463.366 2117.86,-464.347 2110.22,-457.001 2107.31,-463.366"/>
</g>
<!-- Storage -->
<g id="node21" class="node"><title>Storage</title>
<ellipse fill="none" stroke="black" cx="1827.1" cy="-1611" rx="37.8943" ry="18"/>
<text text-anchor="middle" x="1827.1" y="-1607.3" font-family="Times,serif" font-size="14.00">Storage</text>
</g>
<!-- Storage&#45;&gt;NumericAttribute -->
<g id="edge20" class="edge"><title>Storage&#45;&gt;NumericAttribute</title>
<path fill="none" stroke="black" d="M1862.61,-1617.38C1911.48,-1624.33 2001.07,-1629.1 2056.53,-1584 2148.76,-1509 2163.04,-1352.87 2164.9,-1288.59"/>
<polygon fill="black" stroke="black" points="2168.4,-1288.46 2165.11,-1278.39 2161.4,-1288.32 2168.4,-1288.46"/>
</g>
<!-- StorageWriteSpeed -->
<g id="node22" class="node"><title>StorageWriteSpeed</title>
<ellipse fill="none" stroke="black" cx="1827.1" cy="-1557" rx="79.0865" ry="18"/>
<text text-anchor="middle" x="1827.1" y="-1553.3" font-family="Times,serif" font-size="14.00">StorageWriteSpeed</text>
</g>
<!-- StorageWriteSpeed&#45;&gt;NumericAttribute -->
<g id="edge21" class="edge"><title>StorageWriteSpeed&#45;&gt;NumericAttribute</title>
<path fill="none" stroke="black" d="M1895.56,-1566.13C1944.99,-1569.08 2011.1,-1564.77 2056.53,-1530 2134.91,-1470.01 2156.82,-1344.29 2162.79,-1288.14"/>
<polygon fill="black" stroke="black" points="2166.28,-1288.47 2163.76,-1278.18 2159.31,-1287.8 2166.28,-1288.47"/>
</g>
<!-- StorageReadSpeed -->
<g id="node23" class="node"><title>StorageReadSpeed</title>
<ellipse fill="none" stroke="black" cx="1827.1" cy="-1503" rx="77.1866" ry="18"/>
<text text-anchor="middle" x="1827.1" y="-1499.3" font-family="Times,serif" font-size="14.00">StorageReadSpeed</text>
</g>
<!-- StorageReadSpeed&#45;&gt;NumericAttribute -->
<g id="edge22" class="edge"><title>StorageReadSpeed&#45;&gt;NumericAttribute</title>
<path fill="none" stroke="black" d="M1896.29,-1511.09C1945.12,-1513.29 2010.18,-1508.5 2056.53,-1476 2121.04,-1430.76 2149.26,-1335.65 2159.72,-1288.19"/>
<polygon fill="black" stroke="black" points="2163.17,-1288.79 2161.79,-1278.28 2156.32,-1287.35 2163.17,-1288.79"/>
</g>
<!-- OperatingSystem -->
<g id="node24" class="node"><title>OperatingSystem</title>
<ellipse fill="none" stroke="black" cx="1827.1" cy="-855" rx="72.2875" ry="18"/>
<text text-anchor="middle" x="1827.1" y="-851.3" font-family="Times,serif" font-size="14.00">OperatingSystem</text>
</g>
<!-- OperatingSystem&#45;&gt;ChoiceAttribute -->
<g id="edge23" class="edge"><title>OperatingSystem&#45;&gt;ChoiceAttribute</title>
<path fill="none" stroke="black" d="M1895.65,-849.276C1941.3,-844.855 2002.81,-837.822 2056.53,-828 2073.52,-824.894 2091.81,-820.683 2108.43,-816.511"/>
<polygon fill="black" stroke="black" points="2109.72,-819.794 2118.55,-813.929 2107.99,-813.012 2109.72,-819.794"/>
</g>
<!-- CpuCores -->
<g id="node25" class="node"><title>CpuCores</title>
<ellipse fill="none" stroke="black" cx="1827.1" cy="-1449" rx="46.2923" ry="18"/>
<text text-anchor="middle" x="1827.1" y="-1445.3" font-family="Times,serif" font-size="14.00">CpuCores</text>
</g>
<!-- CpuCores&#45;&gt;NumericAttribute -->
<g id="edge24" class="edge"><title>CpuCores&#45;&gt;NumericAttribute</title>
<path fill="none" stroke="black" d="M1871.54,-1454.14C1920.25,-1457.69 1999.82,-1456.71 2056.53,-1422 2107.58,-1390.75 2139.85,-1325.35 2154.93,-1287.91"/>
<polygon fill="black" stroke="black" points="2158.36,-1288.73 2158.72,-1278.14 2151.84,-1286.19 2158.36,-1288.73"/>
</g>
<!-- CpuClockSpeed -->
<g id="node26" class="node"><title>CpuClockSpeed</title>
<ellipse fill="none" stroke="black" cx="1827.1" cy="-1395" rx="67.6881" ry="18"/>
<text text-anchor="middle" x="1827.1" y="-1391.3" font-family="Times,serif" font-size="14.00">CpuClockSpeed</text>
</g>
<!-- CpuClockSpeed&#45;&gt;NumericAttribute -->
<g id="edge25" class="edge"><title>CpuClockSpeed&#45;&gt;NumericAttribute</title>
<path fill="none" stroke="black" d="M1893.53,-1398.39C1941.01,-1398.28 2005.57,-1392.65 2056.53,-1368 2095,-1349.39 2127.93,-1311.54 2147.1,-1285.97"/>
<polygon fill="black" stroke="black" points="2149.99,-1287.95 2153.06,-1277.81 2144.33,-1283.82 2149.99,-1287.95"/>
</g>
<!-- Ram -->
<g id="node27" class="node"><title>Ram</title>
<ellipse fill="none" stroke="black" cx="1827.1" cy="-1341" rx="27.8951" ry="18"/>
<text text-anchor="middle" x="1827.1" y="-1337.3" font-family="Times,serif" font-size="14.00">Ram</text>
</g>
<!-- Ram&#45;&gt;NumericAttribute -->
<g id="edge26" class="edge"><title>Ram&#45;&gt;NumericAttribute</title>
<path fill="none" stroke="black" d="M1855.08,-1340.79C1898.44,-1339.79 1985.92,-1335.06 2056.53,-1314 2081.98,-1306.41 2108.72,-1293.16 2129.28,-1281.69"/>
<polygon fill="black" stroke="black" points="2131.01,-1284.73 2137.97,-1276.74 2127.55,-1278.65 2131.01,-1284.73"/>
</g>
<!-- RamClockSpeed -->
<g id="node28" class="node"><title>RamClockSpeed</title>
<ellipse fill="none" stroke="black" cx="1827.1" cy="-1287" rx="70.3881" ry="18"/>
<text text-anchor="middle" x="1827.1" y="-1283.3" font-family="Times,serif" font-size="14.00">RamClockSpeed</text>
</g>
<!-- RamClockSpeed&#45;&gt;NumericAttribute -->
<g id="edge27" class="edge"><title>RamClockSpeed&#45;&gt;NumericAttribute</title>
<path fill="none" stroke="black" d="M1894.25,-1281.7C1949.11,-1277.3 2027.27,-1271.04 2085.52,-1266.37"/>
<polygon fill="black" stroke="black" points="2086.1,-1269.83 2095.78,-1265.55 2085.54,-1262.86 2086.1,-1269.83"/>
</g>
<!-- RamWriteSpeed -->
<g id="node29" class="node"><title>RamWriteSpeed</title>
<ellipse fill="none" stroke="black" cx="1827.1" cy="-1233" rx="69.5877" ry="18"/>
<text text-anchor="middle" x="1827.1" y="-1229.3" font-family="Times,serif" font-size="14.00">RamWriteSpeed</text>
</g>
<!-- RamWriteSpeed&#45;&gt;NumericAttribute -->
<g id="edge28" class="edge"><title>RamWriteSpeed&#45;&gt;NumericAttribute</title>
<path fill="none" stroke="black" d="M1893.85,-1238.27C1948.76,-1242.67 2027.22,-1248.96 2085.62,-1253.64"/>
<polygon fill="black" stroke="black" points="2085.66,-1257.15 2095.91,-1254.46 2086.22,-1250.18 2085.66,-1257.15"/>
</g>
<!-- RamReadSpeed -->
<g id="node30" class="node"><title>RamReadSpeed</title>
<ellipse fill="none" stroke="black" cx="1827.1" cy="-1179" rx="67.6881" ry="18"/>
<text text-anchor="middle" x="1827.1" y="-1175.3" font-family="Times,serif" font-size="14.00">RamReadSpeed</text>
</g>
<!-- RamReadSpeed&#45;&gt;NumericAttribute -->
<g id="edge29" class="edge"><title>RamReadSpeed&#45;&gt;NumericAttribute</title>
<path fill="none" stroke="black" d="M1894.79,-1180.85C1941.01,-1183.59 2003.53,-1190.19 2056.53,-1206 2081.98,-1213.59 2108.72,-1226.84 2129.28,-1238.31"/>
<polygon fill="black" stroke="black" points="2127.55,-1241.35 2137.97,-1243.26 2131.01,-1235.27 2127.55,-1241.35"/>
</g>
<!-- NetworkCapacity -->
<g id="node31" class="node"><title>NetworkCapacity</title>
<ellipse fill="none" stroke="black" cx="1827.1" cy="-1125" rx="72.5877" ry="18"/>
<text text-anchor="middle" x="1827.1" y="-1121.3" font-family="Times,serif" font-size="14.00">NetworkCapacity</text>
</g>
<!-- NetworkCapacity&#45;&gt;NumericAttribute -->
<g id="edge30" class="edge"><title>NetworkCapacity&#45;&gt;NumericAttribute</title>
<path fill="none" stroke="black" d="M1898.62,-1121.64C1945.54,-1122.14 2007.37,-1128.22 2056.53,-1152 2095,-1170.61 2127.93,-1208.46 2147.1,-1234.03"/>
<polygon fill="black" stroke="black" points="2144.33,-1236.18 2153.06,-1242.19 2149.99,-1232.05 2144.33,-1236.18"/>
</g>
<!-- NetworkUploadSpeed -->
<g id="node32" class="node"><title>NetworkUploadSpeed</title>
<ellipse fill="none" stroke="black" cx="1827.1" cy="-1071" rx="89.0842" ry="18"/>
<text text-anchor="middle" x="1827.1" y="-1067.3" font-family="Times,serif" font-size="14.00">NetworkUploadSpeed</text>
</g>
<!-- NetworkUploadSpeed&#45;&gt;NumericAttribute -->
<g id="edge31" class="edge"><title>NetworkUploadSpeed&#45;&gt;NumericAttribute</title>
<path fill="none" stroke="black" d="M1910.16,-1064.49C1956.27,-1064.62 2013.1,-1071.42 2056.53,-1098 2107.58,-1129.25 2139.85,-1194.65 2154.93,-1232.09"/>
<polygon fill="black" stroke="black" points="2151.84,-1233.81 2158.72,-1241.86 2158.36,-1231.27 2151.84,-1233.81"/>
</g>
<!-- NetworkDownloadSpeed -->
<g id="node33" class="node"><title>NetworkDownloadSpeed</title>
<ellipse fill="none" stroke="black" cx="1827.1" cy="-1017" rx="99.3824" ry="18"/>
<text text-anchor="middle" x="1827.1" y="-1013.3" font-family="Times,serif" font-size="14.00">NetworkDownloadSpeed</text>
</g>
<!-- NetworkDownloadSpeed&#45;&gt;NumericAttribute -->
<g id="edge32" class="edge"><title>NetworkDownloadSpeed&#45;&gt;NumericAttribute</title>
<path fill="none" stroke="black" d="M1914.77,-1008.46C1960.68,-1008.29 2015.82,-1015.45 2056.53,-1044 2121.04,-1089.24 2149.26,-1184.35 2159.72,-1231.81"/>
<polygon fill="black" stroke="black" points="2156.32,-1232.65 2161.79,-1241.72 2163.17,-1231.21 2156.32,-1232.65"/>
</g>
<!-- PricingModel -->
<g id="node34" class="node"><title>PricingModel</title>
<ellipse fill="none" stroke="black" cx="1827.1" cy="-801" rx="59.5901" ry="18"/>
<text text-anchor="middle" x="1827.1" y="-797.3" font-family="Times,serif" font-size="14.00">PricingModel</text>
</g>
<!-- PricingModel&#45;&gt;ChoiceAttribute -->
<g id="edge33" class="edge"><title>PricingModel&#45;&gt;ChoiceAttribute</title>
<path fill="none" stroke="black" d="M1887.16,-801C1942.91,-801 2026.81,-801 2087.81,-801"/>
<polygon fill="black" stroke="black" points="2088.16,-804.5 2098.16,-801 2088.16,-797.5 2088.16,-804.5"/>
</g>
<!-- Static -->
<g id="node35" class="node"><title>Static</title>
<ellipse fill="none" stroke="black" cx="1827.1" cy="-315" rx="30.5947" ry="18"/>
<text text-anchor="middle" x="1827.1" y="-311.3" font-family="Times,serif" font-size="14.00">Static</text>
</g>
<!-- Static&#45;&gt;OptionAttribute -->
<g id="edge34" class="edge"><title>Static&#45;&gt;OptionAttribute</title>
<path fill="none" stroke="black" d="M1856.32,-309.551C1903.42,-302.176 1998.62,-294.85 2056.53,-342 2095.76,-373.946 2057.38,-413.602 2092.53,-450 2096.43,-454.043 2101,-457.486 2105.9,-460.417"/>
<polygon fill="black" stroke="black" points="2104.54,-463.655 2115.03,-465.158 2107.77,-457.443 2104.54,-463.655"/>
</g>
<!-- Dynamic -->
<g id="node36" class="node"><title>Dynamic</title>
<ellipse fill="none" stroke="black" cx="1827.1" cy="-261" rx="43.5923" ry="18"/>
<text text-anchor="middle" x="1827.1" y="-257.3" font-family="Times,serif" font-size="14.00">Dynamic</text>
</g>
<!-- Dynamic&#45;&gt;OptionAttribute -->
<g id="edge35" class="edge"><title>Dynamic&#45;&gt;OptionAttribute</title>
<path fill="none" stroke="black" d="M1866.66,-253.325C1916.97,-245.731 2004.68,-241.142 2056.53,-288 2111.25,-337.454 2044.1,-394.373 2092.53,-450 2096.16,-454.176 2100.51,-457.707 2105.24,-460.693"/>
<polygon fill="black" stroke="black" points="2103.64,-463.809 2114.1,-465.499 2106.98,-457.655 2103.64,-463.809"/>
</g>
<!-- PayAndGo -->
<g id="node37" class="node"><title>PayAndGo</title>
<ellipse fill="none" stroke="black" cx="1310.79" cy="-369" rx="50.0912" ry="18"/>
<text text-anchor="middle" x="1310.79" y="-365.3" font-family="Times,serif" font-size="14.00">PayAndGo</text>
</g>
<!-- PayAndGo&#45;&gt;Static -->
<g id="edge36" class="edge"><title>PayAndGo&#45;&gt;Static</title>
<path fill="none" stroke="black" d="M1359.25,-364.017C1459.94,-353.445 1693.33,-328.94 1786.58,-319.15"/>
<polygon fill="black" stroke="black" points="1787.14,-322.61 1796.72,-318.085 1786.4,-315.648 1787.14,-322.61"/>
</g>
<!-- PayPerResource -->
<g id="node38" class="node"><title>PayPerResource</title>
<ellipse fill="none" stroke="black" cx="1310.79" cy="-315" rx="68.4888" ry="18"/>
<text text-anchor="middle" x="1310.79" y="-311.3" font-family="Times,serif" font-size="14.00">PayPerResource</text>
</g>
<!-- PayPerResource&#45;&gt;Static -->
<g id="edge37" class="edge"><title>PayPerResource&#45;&gt;Static</title>
<path fill="none" stroke="black" d="M1379.29,-315C1488.1,-315 1698.92,-315 1786.48,-315"/>
<polygon fill="black" stroke="black" points="1786.53,-318.5 1796.53,-315 1786.53,-311.5 1786.53,-318.5"/>
</g>
<!-- Subscription -->
<g id="node39" class="node"><title>Subscription</title>
<ellipse fill="none" stroke="black" cx="1310.79" cy="-261" rx="55.4913" ry="18"/>
<text text-anchor="middle" x="1310.79" y="-257.3" font-family="Times,serif" font-size="14.00">Subscription</text>
</g>
<!-- Subscription&#45;&gt;Static -->
<g id="edge38" class="edge"><title>Subscription&#45;&gt;Static</title>
<path fill="none" stroke="black" d="M1363.93,-266.475C1467.09,-277.306 1695.14,-301.25 1786.81,-310.875"/>
<polygon fill="black" stroke="black" points="1786.47,-314.359 1796.78,-311.922 1787.2,-307.397 1786.47,-314.359"/>
</g>
<!-- Price -->
<g id="node40" class="node"><title>Price</title>
<ellipse fill="none" stroke="black" cx="2165.97" cy="-423" rx="28.6953" ry="18"/>
<text text-anchor="middle" x="2165.97" y="-419.3" font-family="Times,serif" font-size="14.00">Price</text>
</g>
<!-- Price&#45;&gt;Attribute -->
<g id="edge39" class="edge"><title>Price&#45;&gt;Attribute</title>
<path fill="none" stroke="black" d="M2192.12,-430.623C2206.37,-435.37 2224.32,-442.077 2239.41,-450 2256.57,-459.007 2274.38,-471.236 2288.58,-481.779"/>
<polygon fill="black" stroke="black" points="2286.82,-484.839 2296.91,-488.082 2291.04,-479.257 2286.82,-484.839"/>
</g>
<!-- DatabaseAsAService -->
<g id="node41" class="node"><title>DatabaseAsAService</title>
<ellipse fill="none" stroke="black" cx="1310.79" cy="-153" rx="85.2851" ry="18"/>
<text text-anchor="middle" x="1310.79" y="-149.3" font-family="Times,serif" font-size="14.00">DatabaseAsAService</text>
</g>
<!-- DatabaseAsAService&#45;&gt;SaaS -->
<g id="edge40" class="edge"><title>DatabaseAsAService&#45;&gt;SaaS</title>
<path fill="none" stroke="black" d="M1396.14,-153C1509.44,-153 1706.03,-153 1788.25,-153"/>
<polygon fill="black" stroke="black" points="1788.38,-156.5 1798.38,-153 1788.38,-149.5 1788.38,-156.5"/>
</g>
<!-- SQLDatabaseAsAService -->
<g id="node42" class="node"><title>SQLDatabaseAsAService</title>
<ellipse fill="none" stroke="black" cx="775.634" cy="-207" rx="102.082" ry="18"/>
<text text-anchor="middle" x="775.634" y="-203.3" font-family="Times,serif" font-size="14.00">SQLDatabaseAsAService</text>
</g>
<!-- SQLDatabaseAsAService&#45;&gt;DatabaseAsAService -->
<g id="edge41" class="edge"><title>SQLDatabaseAsAService&#45;&gt;DatabaseAsAService</title>
<path fill="none" stroke="black" d="M864.376,-198.113C963.826,-188.041 1124.91,-171.726 1223.68,-161.722"/>
<polygon fill="black" stroke="black" points="1224.03,-165.204 1233.63,-160.714 1223.33,-158.239 1224.03,-165.204"/>
</g>
<!-- NoSQLDatabaseAsAService -->
<g id="node43" class="node"><title>NoSQLDatabaseAsAService</title>
<ellipse fill="none" stroke="black" cx="775.634" cy="-153" rx="112.38" ry="18"/>
<text text-anchor="middle" x="775.634" y="-149.3" font-family="Times,serif" font-size="14.00">NoSQLDatabaseAsAService</text>
</g>
<!-- NoSQLDatabaseAsAService&#45;&gt;DatabaseAsAService -->
<g id="edge42" class="edge"><title>NoSQLDatabaseAsAService&#45;&gt;DatabaseAsAService</title>
<path fill="none" stroke="black" d="M888.077,-153C985.027,-153 1123.96,-153 1215.5,-153"/>
<polygon fill="black" stroke="black" points="1215.59,-156.5 1225.59,-153 1215.59,-149.5 1215.59,-156.5"/>
</g>
<!-- github.com/supermuesli/csdl@examples/Requirement1.py@latest -->
<g id="node44" class="node"><title>github.com/supermuesli/csdl@examples/Requirement1.py@latest</title>
<ellipse fill="none" stroke="black" cx="245.678" cy="-72" rx="245.857" ry="18"/>
<text text-anchor="middle" x="245.678" y="-68.3" font-family="Times,serif" font-size="14.00">github.com/supermuesli/csdl@examples/Requirement1.py@latest</text>
</g>
<!-- github.com/supermuesli/csdl@examples/Requirement1.py@latest&#45;&gt;VMAsAService -->
<g id="edge43" class="edge"><title>github.com/supermuesli/csdl@examples/Requirement1.py@latest&#45;&gt;VMAsAService</title>
<path fill="none" stroke="black" d="M447.782,-61.7154C535.605,-57.2241 633.286,-52.2286 698.791,-48.8787"/>
<polygon fill="black" stroke="black" points="699.214,-52.3617 709.022,-48.3555 698.856,-45.3709 699.214,-52.3617"/>
</g>
<!-- github.com/supermuesli/csdl@misc/countries/USA.py@latest -->
<g id="node45" class="node"><title>github.com/supermuesli/csdl@misc/countries/USA.py@latest</title>
<ellipse fill="none" stroke="black" cx="1310.79" cy="-693" rx="231.259" ry="18"/>
<text text-anchor="middle" x="1310.79" y="-689.3" font-family="Times,serif" font-size="14.00">github.com/supermuesli/csdl@misc/countries/USA.py@latest</text>
</g>
<!-- github.com/supermuesli/csdl@misc/countries/USA.py@latest&#45;&gt;NorthAmerica -->
<g id="edge44" class="edge"><title>github.com/supermuesli/csdl@misc/countries/USA.py@latest&#45;&gt;NorthAmerica</title>
<path fill="none" stroke="black" d="M1542.24,-693C1619.35,-693 1699.7,-693 1755.15,-693"/>
<polygon fill="black" stroke="black" points="1755.21,-696.5 1765.21,-693 1755.21,-689.5 1755.21,-696.5"/>
</g>
<!-- github.com/supermuesli/csdl@aws/ec2/EC2.py@latest -->
<g id="node46" class="node"><title>github.com/supermuesli/csdl@aws/ec2/EC2.py@latest</title>
<ellipse fill="none" stroke="black" cx="245.678" cy="-18" rx="206.063" ry="18"/>
<text text-anchor="middle" x="245.678" y="-14.3" font-family="Times,serif" font-size="14.00">github.com/supermuesli/csdl@aws/ec2/EC2.py@latest</text>
</g>
<!-- github.com/supermuesli/csdl@aws/ec2/EC2.py@latest&#45;&gt;VMAsAService -->
<g id="edge45" class="edge"><title>github.com/supermuesli/csdl@aws/ec2/EC2.py@latest&#45;&gt;VMAsAService</title>
<path fill="none" stroke="black" d="M423.949,-27.0657C517.457,-31.8478 627.295,-37.465 698.795,-41.1215"/>
<polygon fill="black" stroke="black" points="698.893,-44.631 709.059,-41.6464 699.251,-37.6402 698.893,-44.631"/>
</g>
<!-- github.com/supermuesli/csdl@aws/regions/Region.py@latest -->
<g id="node47" class="node"><title>github.com/supermuesli/csdl@aws/regions/Region.py@latest</title>
<ellipse fill="none" stroke="black" cx="1827.1" cy="-747" rx="229.359" ry="18"/>
<text text-anchor="middle" x="1827.1" y="-743.3" font-family="Times,serif" font-size="14.00">github.com/supermuesli/csdl@aws/regions/Region.py@latest</text>
</g>
<!-- github.com/supermuesli/csdl@aws/regions/Region.py@latest&#45;&gt;ChoiceAttribute -->
<g id="edge46" class="edge"><title>github.com/supermuesli/csdl@aws/regions/Region.py@latest&#45;&gt;ChoiceAttribute</title>
<path fill="none" stroke="black" d="M1970.78,-761.047C1999.28,-764.645 2028.93,-768.955 2056.53,-774 2073.52,-777.106 2091.81,-781.317 2108.43,-785.489"/>
<polygon fill="black" stroke="black" points="2107.99,-788.988 2118.55,-788.071 2109.72,-782.206 2107.99,-788.988"/>
</g>
<!-- github.com/supermuesli/csdl@aws/regions/California.py@latest -->
<g id="node48" class="node"><title>github.com/supermuesli/csdl@aws/regions/California.py@latest</title>
<ellipse fill="none" stroke="black" cx="775.634" cy="-747" rx="239.358" ry="18"/>
<text text-anchor="middle" x="775.634" y="-743.3" font-family="Times,serif" font-size="14.00">github.com/supermuesli/csdl@aws/regions/California.py@latest</text>
</g>
<!-- github.com/supermuesli/csdl@aws/regions/California.py@latest&#45;&gt;github.com/supermuesli/csdl@misc/countries/USA.py@latest -->
<g id="edge47" class="edge"><title>github.com/supermuesli/csdl@aws/regions/California.py@latest&#45;&gt;github.com/supermuesli/csdl@misc/countries/USA.py@latest</title>
<path fill="none" stroke="black" d="M919.16,-732.564C993.258,-725.06 1083.81,-715.888 1159.07,-708.265"/>
<polygon fill="black" stroke="black" points="1159.52,-711.738 1169.11,-707.248 1158.81,-704.774 1159.52,-711.738"/>
</g>
<!-- github.com/supermuesli/csdl@aws/regions/EastVirginia.py@latest -->
<g id="node49" class="node"><title>github.com/supermuesli/csdl@aws/regions/EastVirginia.py@latest</title>
<ellipse fill="none" stroke="black" cx="775.634" cy="-693" rx="248.056" ry="18"/>
<text text-anchor="middle" x="775.634" y="-689.3" font-family="Times,serif" font-size="14.00">github.com/supermuesli/csdl@aws/regions/EastVirginia.py@latest</text>
</g>
<!-- github.com/supermuesli/csdl@aws/regions/EastVirginia.py@latest&#45;&gt;github.com/supermuesli/csdl@misc/countries/USA.py@latest -->
<g id="edge48" class="edge"><title>github.com/supermuesli/csdl@aws/regions/EastVirginia.py@latest&#45;&gt;github.com/supermuesli/csdl@misc/countries/USA.py@latest</title>
<path fill="none" stroke="black" d="M1024.09,-693C1039.02,-693 1054.03,-693 1068.92,-693"/>
<polygon fill="black" stroke="black" points="1069.22,-696.5 1079.22,-693 1069.22,-689.5 1069.22,-696.5"/>
</g>
<!-- github.com/supermuesli/csdl@aws/regions/NewYork.py@latest -->
<g id="node50" class="node"><title>github.com/supermuesli/csdl@aws/regions/NewYork.py@latest</title>
<ellipse fill="none" stroke="black" cx="775.634" cy="-639" rx="238.558" ry="18"/>
<text text-anchor="middle" x="775.634" y="-635.3" font-family="Times,serif" font-size="14.00">github.com/supermuesli/csdl@aws/regions/NewYork.py@latest</text>
</g>
<!-- github.com/supermuesli/csdl@aws/regions/NewYork.py@latest&#45;&gt;github.com/supermuesli/csdl@misc/countries/USA.py@latest -->
<g id="edge49" class="edge"><title>github.com/supermuesli/csdl@aws/regions/NewYork.py@latest&#45;&gt;github.com/supermuesli/csdl@misc/countries/USA.py@latest</title>
<path fill="none" stroke="black" d="M918.81,-653.4C992.91,-660.905 1083.54,-670.085 1158.88,-677.715"/>
<polygon fill="black" stroke="black" points="1158.63,-681.208 1168.93,-678.734 1159.34,-674.244 1158.63,-681.208"/>
</g>
<!-- github.com/supermuesli/csdl@aws/ec2/A1Large.py@latest -->
<g id="node51" class="node"><title>github.com/supermuesli/csdl@aws/ec2/A1Large.py@latest</title>
<ellipse fill="none" stroke="black" cx="1827.1" cy="-207" rx="221.761" ry="18"/>
<text text-anchor="middle" x="1827.1" y="-203.3" font-family="Times,serif" font-size="14.00">github.com/supermuesli/csdl@aws/ec2/A1Large.py@latest</text>
</g>
<!-- github.com/supermuesli/csdl@aws/ec2/A1Large.py@latest&#45;&gt;OptionAttribute -->
<g id="edge50" class="edge"><title>github.com/supermuesli/csdl@aws/ec2/A1Large.py@latest&#45;&gt;OptionAttribute</title>
<path fill="none" stroke="black" d="M2029.15,-214.462C2039.06,-219.705 2048.29,-226.146 2056.53,-234 2126.96,-301.165 2030.61,-374.914 2092.53,-450 2095.91,-454.102 2099.98,-457.58 2104.44,-460.531"/>
<polygon fill="black" stroke="black" points="2103,-463.736 2113.44,-465.578 2106.43,-457.632 2103,-463.736"/>
</g>
<!-- github.com/supermuesli/csdl@aws/EBS.py@latest -->
<g id="node52" class="node"><title>github.com/supermuesli/csdl@aws/EBS.py@latest</title>
<ellipse fill="none" stroke="black" cx="775.634" cy="-99" rx="191.966" ry="18"/>
<text text-anchor="middle" x="775.634" y="-95.3" font-family="Times,serif" font-size="14.00">github.com/supermuesli/csdl@aws/EBS.py@latest</text>
</g>
<!-- github.com/supermuesli/csdl@aws/EBS.py@latest&#45;&gt;StorageAsAService -->
<g id="edge51" class="edge"><title>github.com/supermuesli/csdl@aws/EBS.py@latest&#45;&gt;StorageAsAService</title>
<path fill="none" stroke="black" d="M967.61,-99C1053.72,-99 1151.31,-99 1220.17,-99"/>
<polygon fill="black" stroke="black" points="1220.54,-102.5 1230.54,-99 1220.54,-95.5001 1220.54,-102.5"/>
</g>
<!-- github.com/supermuesli/csdl@misc/StaticIp.py@latest -->
<g id="node53" class="node"><title>github.com/supermuesli/csdl@misc/StaticIp.py@latest</title>
<ellipse fill="none" stroke="black" cx="1827.1" cy="-963" rx="206.063" ry="18"/>
<text text-anchor="middle" x="1827.1" y="-959.3" font-family="Times,serif" font-size="14.00">github.com/supermuesli/csdl@misc/StaticIp.py@latest</text>
</g>
<!-- github.com/supermuesli/csdl@misc/StaticIp.py@latest&#45;&gt;NumericAttribute -->
<g id="edge52" class="edge"><title>github.com/supermuesli/csdl@misc/StaticIp.py@latest&#45;&gt;NumericAttribute</title>
<path fill="none" stroke="black" d="M2019.79,-969.52C2032.92,-974.733 2045.35,-981.444 2056.53,-990 2134.91,-1049.99 2156.82,-1175.71 2162.79,-1231.86"/>
<polygon fill="black" stroke="black" points="2159.31,-1232.2 2163.76,-1241.82 2166.28,-1231.53 2159.31,-1232.2"/>
</g>
<!-- github.com/supermuesli/csdl@aws/ec2/ElasticIpAmount.py@latest -->
<g id="node54" class="node"><title>github.com/supermuesli/csdl@aws/ec2/ElasticIpAmount.py@latest</title>
<ellipse fill="none" stroke="black" cx="1310.79" cy="-963" rx="250.756" ry="18"/>
<text text-anchor="middle" x="1310.79" y="-959.3" font-family="Times,serif" font-size="14.00">github.com/supermuesli/csdl@aws/ec2/ElasticIpAmount.py@latest</text>
</g>
<!-- github.com/supermuesli/csdl@aws/ec2/ElasticIpAmount.py@latest&#45;&gt;github.com/supermuesli/csdl@misc/StaticIp.py@latest -->
<g id="edge53" class="edge"><title>github.com/supermuesli/csdl@aws/ec2/ElasticIpAmount.py@latest&#45;&gt;github.com/supermuesli/csdl@misc/StaticIp.py@latest</title>
<path fill="none" stroke="black" d="M1561.79,-963C1578.2,-963 1594.65,-963 1610.87,-963"/>
<polygon fill="black" stroke="black" points="1610.94,-966.5 1620.94,-963 1610.94,-959.5 1610.94,-966.5"/>
</g>
</g>
</svg>
