<?xml version="1.0" encoding="UTF-8" standalone="no"?>
<!DOCTYPE svg PUBLIC "-//W3C//DTD SVG 1.1//EN"
 "http://www.w3.org/Graphics/SVG/1.1/DTD/svg11.dtd">
<!-- Generated by graphviz version 2.38.0 (20140413.2041)
 -->
<!-- Title: %3 Pages: 1 -->
<svg width="2585pt" height="1637pt"
 viewBox="0.00 0.00 2584.59 1637.00" xmlns="http://www.w3.org/2000/svg" xmlns:xlink="http://www.w3.org/1999/xlink">
<g id="graph0" class="graph" transform="scale(1 1) rotate(0) translate(4 1633)">
<title>%3</title>
<polygon fill="white" stroke="none" points="-4,4 -4,-1633 2580.59,-1633 2580.59,4 -4,4"/>
<!-- VMAsAService -->
<g id="node1" class="node"><title>VMAsAService</title>
<ellipse fill="none" stroke="black" cx="775.634" cy="-45" rx="67.6881" ry="18"/>
<text text-anchor="middle" x="775.634" y="-41.3" font-family="Times,serif" font-size="14.00">VMAsAService</text>
</g>
<!-- ServerAsAService -->
<g id="node2" class="node"><title>ServerAsAService</title>
<ellipse fill="none" stroke="black" cx="1335.49" cy="-45" rx="76.0865" ry="18"/>
<text text-anchor="middle" x="1335.49" y="-41.3" font-family="Times,serif" font-size="14.00">ServerAsAService</text>
</g>
<!-- VMAsAService&#45;&gt;ServerAsAService -->
<g id="edge1" class="edge"><title>VMAsAService&#45;&gt;ServerAsAService</title>
<path fill="none" stroke="black" d="M843.37,-45C944.753,-45 1137.54,-45 1249.03,-45"/>
<polygon fill="black" stroke="black" points="1249.23,-48.5001 1259.23,-45 1249.23,-41.5001 1249.23,-48.5001"/>
</g>
<!-- IaaS -->
<g id="node3" class="node"><title>IaaS</title>
<ellipse fill="none" stroke="black" cx="1909.64" cy="-99" rx="27" ry="18"/>
<text text-anchor="middle" x="1909.64" y="-95.3" font-family="Times,serif" font-size="14.00">IaaS</text>
</g>
<!-- ServerAsAService&#45;&gt;IaaS -->
<g id="edge2" class="edge"><title>ServerAsAService&#45;&gt;IaaS</title>
<path fill="none" stroke="black" d="M1406.36,-51.5944C1529.21,-63.1896 1779.72,-86.8321 1872.78,-95.6153"/>
<polygon fill="black" stroke="black" points="1872.54,-99.1079 1882.82,-96.5631 1873.19,-92.1389 1872.54,-99.1079"/>
</g>
<!-- CCS -->
<g id="node5" class="node"><title>CCS</title>
<ellipse fill="none" stroke="black" cx="2281.66" cy="-153" rx="27.0966" ry="18"/>
<text text-anchor="middle" x="2281.66" y="-149.3" font-family="Times,serif" font-size="14.00">CCS</text>
</g>
<!-- IaaS&#45;&gt;CCS -->
<g id="edge4" class="edge"><title>IaaS&#45;&gt;CCS</title>
<path fill="none" stroke="black" d="M1936.8,-100.474C1984.07,-103.409 2086.78,-111.031 2172.22,-126 2197.34,-130.402 2225.27,-137.405 2246.49,-143.175"/>
<polygon fill="black" stroke="black" points="2245.75,-146.603 2256.32,-145.893 2247.61,-139.856 2245.75,-146.603"/>
</g>
<!-- SaaS -->
<g id="node4" class="node"><title>SaaS</title>
<ellipse fill="none" stroke="black" cx="1909.64" cy="-153" rx="28.6953" ry="18"/>
<text text-anchor="middle" x="1909.64" y="-149.3" font-family="Times,serif" font-size="14.00">SaaS</text>
</g>
<!-- SaaS&#45;&gt;CCS -->
<g id="edge3" class="edge"><title>SaaS&#45;&gt;CCS</title>
<path fill="none" stroke="black" d="M1938.45,-153C2004.29,-153 2169.71,-153 2243.78,-153"/>
<polygon fill="black" stroke="black" points="2244.03,-156.5 2254.03,-153 2244.03,-149.5 2244.03,-156.5"/>
</g>
<!-- Attribute -->
<g id="node8" class="node"><title>Attribute</title>
<ellipse fill="none" stroke="black" cx="2433.35" cy="-531" rx="42.4939" ry="18"/>
<text text-anchor="middle" x="2433.35" y="-527.3" font-family="Times,serif" font-size="14.00">Attribute</text>
</g>
<!-- CCS&#45;&gt;Attribute -->
<g id="edge10" class="edge"><title>CCS&#45;&gt;Attribute</title>
<path fill="none" stroke="black" d="M2289.58,-170.474C2313.47,-230.797 2392.59,-430.608 2421.58,-503.814"/>
<polygon fill="black" stroke="black" points="2418.4,-505.267 2425.33,-513.276 2424.9,-502.69 2418.4,-505.267"/>
</g>
<!-- StorageAsAService -->
<g id="node6" class="node"><title>StorageAsAService</title>
<ellipse fill="none" stroke="black" cx="1335.49" cy="-99" rx="79.8859" ry="18"/>
<text text-anchor="middle" x="1335.49" y="-95.3" font-family="Times,serif" font-size="14.00">StorageAsAService</text>
</g>
<!-- StorageAsAService&#45;&gt;IaaS -->
<g id="edge5" class="edge"><title>StorageAsAService&#45;&gt;IaaS</title>
<path fill="none" stroke="black" d="M1415.44,-99C1541.06,-99 1781.52,-99 1872.53,-99"/>
<polygon fill="black" stroke="black" points="1872.62,-102.5 1882.62,-99 1872.62,-95.5001 1872.62,-102.5"/>
</g>
<!-- NumericAttribute -->
<g id="node7" class="node"><title>NumericAttribute</title>
<ellipse fill="none" stroke="black" cx="2281.66" cy="-1260" rx="73.387" ry="18"/>
<text text-anchor="middle" x="2281.66" y="-1256.3" font-family="Times,serif" font-size="14.00">NumericAttribute</text>
</g>
<!-- NumericAttribute&#45;&gt;Attribute -->
<g id="edge6" class="edge"><title>NumericAttribute&#45;&gt;Attribute</title>
<path fill="none" stroke="black" d="M2286.36,-1241.98C2306.42,-1144.29 2402.12,-678.21 2426.63,-558.88"/>
<polygon fill="black" stroke="black" points="2430.06,-559.543 2428.65,-549.043 2423.21,-558.135 2430.06,-559.543"/>
</g>
<!-- object -->
<g id="node12" class="node"><title>object</title>
<ellipse fill="none" stroke="black" cx="2544.09" cy="-531" rx="32.4942" ry="18"/>
<text text-anchor="middle" x="2544.09" y="-527.3" font-family="Times,serif" font-size="14.00">object</text>
</g>
<!-- Attribute&#45;&gt;object -->
<g id="edge11" class="edge"><title>Attribute&#45;&gt;object</title>
<path fill="none" stroke="black" d="M2475.77,-531C2484.04,-531 2492.74,-531 2501.03,-531"/>
<polygon fill="black" stroke="black" points="2501.26,-534.5 2511.26,-531 2501.26,-527.5 2501.26,-534.5"/>
</g>
<!-- ChoiceAttribute -->
<g id="node9" class="node"><title>ChoiceAttribute</title>
<ellipse fill="none" stroke="black" cx="2281.66" cy="-828" rx="67.6881" ry="18"/>
<text text-anchor="middle" x="2281.66" y="-824.3" font-family="Times,serif" font-size="14.00">ChoiceAttribute</text>
</g>
<!-- ChoiceAttribute&#45;&gt;Attribute -->
<g id="edge7" class="edge"><title>ChoiceAttribute&#45;&gt;Attribute</title>
<path fill="none" stroke="black" d="M2291.8,-809.868C2317.23,-759.404 2388.94,-617.128 2418.92,-557.653"/>
<polygon fill="black" stroke="black" points="2422.14,-559.026 2423.52,-548.52 2415.89,-555.875 2422.14,-559.026"/>
</g>
<!-- BoolAttribute -->
<g id="node10" class="node"><title>BoolAttribute</title>
<ellipse fill="none" stroke="black" cx="2281.66" cy="-558" rx="59.5901" ry="18"/>
<text text-anchor="middle" x="2281.66" y="-554.3" font-family="Times,serif" font-size="14.00">BoolAttribute</text>
</g>
<!-- BoolAttribute&#45;&gt;Attribute -->
<g id="edge8" class="edge"><title>BoolAttribute&#45;&gt;Attribute</title>
<path fill="none" stroke="black" d="M2333.34,-548.859C2349.62,-545.922 2367.61,-542.678 2383.74,-539.768"/>
<polygon fill="black" stroke="black" points="2384.81,-543.131 2394.03,-537.912 2383.57,-536.242 2384.81,-543.131"/>
</g>
<!-- NameAttribute -->
<g id="node11" class="node"><title>NameAttribute</title>
<ellipse fill="none" stroke="black" cx="2281.66" cy="-504" rx="63.8893" ry="18"/>
<text text-anchor="middle" x="2281.66" y="-500.3" font-family="Times,serif" font-size="14.00">NameAttribute</text>
</g>
<!-- NameAttribute&#45;&gt;Attribute -->
<g id="edge9" class="edge"><title>NameAttribute&#45;&gt;Attribute</title>
<path fill="none" stroke="black" d="M2335.86,-513.595C2351.42,-516.403 2368.36,-519.458 2383.63,-522.213"/>
<polygon fill="black" stroke="black" points="2383.44,-525.735 2393.9,-524.065 2384.68,-518.846 2383.44,-525.735"/>
</g>
<!-- Region -->
<g id="node13" class="node"><title>Region</title>
<ellipse fill="none" stroke="black" cx="1909.64" cy="-909" rx="36.2938" ry="18"/>
<text text-anchor="middle" x="1909.64" y="-905.3" font-family="Times,serif" font-size="14.00">Region</text>
</g>
<!-- Region&#45;&gt;ChoiceAttribute -->
<g id="edge12" class="edge"><title>Region&#45;&gt;ChoiceAttribute</title>
<path fill="none" stroke="black" d="M1946.1,-909.323C1997.12,-908.901 2093.73,-904.775 2172.22,-882 2197.91,-874.545 2224.83,-861.17 2245.43,-849.597"/>
<polygon fill="black" stroke="black" points="2247.2,-852.615 2254.14,-844.602 2243.72,-846.544 2247.2,-852.615"/>
</g>
<!-- NorthAmerica -->
<g id="node14" class="node"><title>NorthAmerica</title>
<ellipse fill="none" stroke="black" cx="1909.64" cy="-747" rx="61.99" ry="18"/>
<text text-anchor="middle" x="1909.64" y="-743.3" font-family="Times,serif" font-size="14.00">NorthAmerica</text>
</g>
<!-- NorthAmerica&#45;&gt;NameAttribute -->
<g id="edge13" class="edge"><title>NorthAmerica&#45;&gt;NameAttribute</title>
<path fill="none" stroke="black" d="M1959.75,-757.635C2018.17,-767.156 2114.96,-772.565 2172.22,-720 2235.21,-662.17 2153.06,-596.34 2208.22,-531 2212.04,-526.467 2216.71,-522.694 2221.81,-519.554"/>
<polygon fill="black" stroke="black" points="2223.52,-522.608 2230.73,-514.845 2220.25,-516.417 2223.52,-522.608"/>
</g>
<!-- Australia -->
<g id="node15" class="node"><title>Australia</title>
<ellipse fill="none" stroke="black" cx="1909.64" cy="-693" rx="42.7926" ry="18"/>
<text text-anchor="middle" x="1909.64" y="-689.3" font-family="Times,serif" font-size="14.00">Australia</text>
</g>
<!-- Australia&#45;&gt;NameAttribute -->
<g id="edge14" class="edge"><title>Australia&#45;&gt;NameAttribute</title>
<path fill="none" stroke="black" d="M1948.19,-701.138C2004.05,-710.881 2109.19,-719.793 2172.22,-666 2219.45,-625.687 2166.47,-576.968 2208.22,-531 2212.21,-526.608 2216.98,-522.928 2222.14,-519.844"/>
<polygon fill="black" stroke="black" points="2223.86,-522.898 2231.14,-515.198 2220.64,-516.678 2223.86,-522.898"/>
</g>
<!-- Africa -->
<g id="node16" class="node"><title>Africa</title>
<ellipse fill="none" stroke="black" cx="1909.64" cy="-639" rx="33.2948" ry="18"/>
<text text-anchor="middle" x="1909.64" y="-635.3" font-family="Times,serif" font-size="14.00">Africa</text>
</g>
<!-- Africa&#45;&gt;NameAttribute -->
<g id="edge15" class="edge"><title>Africa&#45;&gt;NameAttribute</title>
<path fill="none" stroke="black" d="M1941.08,-644.9C1993.66,-653.291 2102.56,-662.541 2172.22,-612 2204.1,-588.863 2179.52,-557.988 2208.22,-531 2212.77,-526.716 2218.07,-523.097 2223.69,-520.043"/>
<polygon fill="black" stroke="black" points="2225.23,-523.186 2232.72,-515.694 2222.19,-516.879 2225.23,-523.186"/>
</g>
<!-- EastAsia -->
<g id="node17" class="node"><title>EastAsia</title>
<ellipse fill="none" stroke="black" cx="1909.64" cy="-585" rx="42.4939" ry="18"/>
<text text-anchor="middle" x="1909.64" y="-581.3" font-family="Times,serif" font-size="14.00">EastAsia</text>
</g>
<!-- EastAsia&#45;&gt;NameAttribute -->
<g id="edge16" class="edge"><title>EastAsia&#45;&gt;NameAttribute</title>
<path fill="none" stroke="black" d="M1951.65,-587.392C2004.53,-589.015 2098.46,-586.878 2172.22,-558 2190.84,-550.708 2190.67,-540.591 2208.22,-531 2214.69,-527.46 2221.73,-524.195 2228.79,-521.25"/>
<polygon fill="black" stroke="black" points="2230.38,-524.384 2238.38,-517.436 2227.79,-517.88 2230.38,-524.384"/>
</g>
<!-- SouthAmerica -->
<g id="node18" class="node"><title>SouthAmerica</title>
<ellipse fill="none" stroke="black" cx="1909.64" cy="-531" rx="61.99" ry="18"/>
<text text-anchor="middle" x="1909.64" y="-527.3" font-family="Times,serif" font-size="14.00">SouthAmerica</text>
</g>
<!-- SouthAmerica&#45;&gt;NameAttribute -->
<g id="edge17" class="edge"><title>SouthAmerica&#45;&gt;NameAttribute</title>
<path fill="none" stroke="black" d="M1969.68,-526.692C2034.93,-521.931 2139.98,-514.266 2209.66,-509.181"/>
<polygon fill="black" stroke="black" points="2209.96,-512.668 2219.68,-508.45 2209.45,-505.687 2209.96,-512.668"/>
</g>
<!-- Europe -->
<g id="node19" class="node"><title>Europe</title>
<ellipse fill="none" stroke="black" cx="1909.64" cy="-477" rx="36.2938" ry="18"/>
<text text-anchor="middle" x="1909.64" y="-473.3" font-family="Times,serif" font-size="14.00">Europe</text>
</g>
<!-- Europe&#45;&gt;NameAttribute -->
<g id="edge18" class="edge"><title>Europe&#45;&gt;NameAttribute</title>
<path fill="none" stroke="black" d="M1945.78,-479.564C2006.04,-483.961 2130.19,-493.02 2209.23,-498.788"/>
<polygon fill="black" stroke="black" points="2209.36,-502.307 2219.59,-499.544 2209.87,-495.325 2209.36,-502.307"/>
</g>
<!-- Antarctica -->
<g id="node20" class="node"><title>Antarctica</title>
<ellipse fill="none" stroke="black" cx="1909.64" cy="-423" rx="47.3916" ry="18"/>
<text text-anchor="middle" x="1909.64" y="-419.3" font-family="Times,serif" font-size="14.00">Antarctica</text>
</g>
<!-- Antarctica&#45;&gt;NameAttribute -->
<g id="edge19" class="edge"><title>Antarctica&#45;&gt;NameAttribute</title>
<path fill="none" stroke="black" d="M1956.8,-420.465C2010.46,-419.148 2100.8,-422.037 2172.22,-450 2190.84,-457.292 2190.67,-467.409 2208.22,-477 2214.69,-480.54 2221.73,-483.805 2228.79,-486.75"/>
<polygon fill="black" stroke="black" points="2227.79,-490.12 2238.38,-490.564 2230.38,-483.616 2227.79,-490.12"/>
</g>
<!-- Currency -->
<g id="node21" class="node"><title>Currency</title>
<ellipse fill="none" stroke="black" cx="1909.64" cy="-855" rx="43.5923" ry="18"/>
<text text-anchor="middle" x="1909.64" y="-851.3" font-family="Times,serif" font-size="14.00">Currency</text>
</g>
<!-- Currency&#45;&gt;ChoiceAttribute -->
<g id="edge20" class="edge"><title>Currency&#45;&gt;ChoiceAttribute</title>
<path fill="none" stroke="black" d="M1952.73,-851.929C2014.36,-847.432 2130.11,-838.986 2206.29,-833.427"/>
<polygon fill="black" stroke="black" points="2206.58,-836.915 2216.3,-832.696 2206.08,-829.933 2206.58,-836.915"/>
</g>
<!-- Storage -->
<g id="node22" class="node"><title>Storage</title>
<ellipse fill="none" stroke="black" cx="1909.64" cy="-1611" rx="37.8943" ry="18"/>
<text text-anchor="middle" x="1909.64" y="-1607.3" font-family="Times,serif" font-size="14.00">Storage</text>
</g>
<!-- Storage&#45;&gt;NumericAttribute -->
<g id="edge21" class="edge"><title>Storage&#45;&gt;NumericAttribute</title>
<path fill="none" stroke="black" d="M1944.63,-1618.11C1999.05,-1627.39 2106.3,-1636.8 2172.22,-1584 2265.22,-1509.51 2279.04,-1352.43 2280.68,-1288.23"/>
<polygon fill="black" stroke="black" points="2284.18,-1288.12 2280.85,-1278.06 2277.18,-1288 2284.18,-1288.12"/>
</g>
<!-- StorageWriteSpeed -->
<g id="node23" class="node"><title>StorageWriteSpeed</title>
<ellipse fill="none" stroke="black" cx="1909.64" cy="-1557" rx="79.0865" ry="18"/>
<text text-anchor="middle" x="1909.64" y="-1553.3" font-family="Times,serif" font-size="14.00">StorageWriteSpeed</text>
</g>
<!-- StorageWriteSpeed&#45;&gt;NumericAttribute -->
<g id="edge22" class="edge"><title>StorageWriteSpeed&#45;&gt;NumericAttribute</title>
<path fill="none" stroke="black" d="M1973.99,-1567.57C2031.46,-1573.51 2115.62,-1572.66 2172.22,-1530 2251.04,-1470.59 2272.72,-1344.56 2278.56,-1288.23"/>
<polygon fill="black" stroke="black" points="2282.05,-1288.53 2279.5,-1278.25 2275.08,-1287.87 2282.05,-1288.53"/>
</g>
<!-- StorageReadSpeed -->
<g id="node24" class="node"><title>StorageReadSpeed</title>
<ellipse fill="none" stroke="black" cx="1909.64" cy="-1503" rx="77.1866" ry="18"/>
<text text-anchor="middle" x="1909.64" y="-1499.3" font-family="Times,serif" font-size="14.00">StorageReadSpeed</text>
</g>
<!-- StorageReadSpeed&#45;&gt;NumericAttribute -->
<g id="edge23" class="edge"><title>StorageReadSpeed&#45;&gt;NumericAttribute</title>
<path fill="none" stroke="black" d="M1975.13,-1512.63C2031.99,-1517.59 2114.54,-1515.81 2172.22,-1476 2237.23,-1431.12 2265.27,-1335.44 2275.56,-1287.94"/>
<polygon fill="black" stroke="black" points="2279.01,-1288.53 2277.59,-1278.03 2272.15,-1287.12 2279.01,-1288.53"/>
</g>
<!-- OperatingSystem -->
<g id="node25" class="node"><title>OperatingSystem</title>
<ellipse fill="none" stroke="black" cx="1909.64" cy="-801" rx="72.2875" ry="18"/>
<text text-anchor="middle" x="1909.64" y="-797.3" font-family="Times,serif" font-size="14.00">OperatingSystem</text>
</g>
<!-- OperatingSystem&#45;&gt;ChoiceAttribute -->
<g id="edge24" class="edge"><title>OperatingSystem&#45;&gt;ChoiceAttribute</title>
<path fill="none" stroke="black" d="M1979.37,-806.015C2043.75,-810.713 2139.71,-817.715 2205.96,-822.549"/>
<polygon fill="black" stroke="black" points="2206.09,-826.068 2216.32,-823.305 2206.6,-819.087 2206.09,-826.068"/>
</g>
<!-- CpuCores -->
<g id="node26" class="node"><title>CpuCores</title>
<ellipse fill="none" stroke="black" cx="1909.64" cy="-1449" rx="46.2923" ry="18"/>
<text text-anchor="middle" x="1909.64" y="-1445.3" font-family="Times,serif" font-size="14.00">CpuCores</text>
</g>
<!-- CpuCores&#45;&gt;NumericAttribute -->
<g id="edge25" class="edge"><title>CpuCores&#45;&gt;NumericAttribute</title>
<path fill="none" stroke="black" d="M1953.49,-1455.12C2008.33,-1460.73 2104.35,-1462.85 2172.22,-1422 2223.64,-1391.05 2255.85,-1325.25 2270.8,-1287.73"/>
<polygon fill="black" stroke="black" points="2274.24,-1288.53 2274.56,-1277.94 2267.7,-1286.02 2274.24,-1288.53"/>
</g>
<!-- CpuClockSpeed -->
<g id="node27" class="node"><title>CpuClockSpeed</title>
<ellipse fill="none" stroke="black" cx="1909.64" cy="-1395" rx="67.6881" ry="18"/>
<text text-anchor="middle" x="1909.64" y="-1391.3" font-family="Times,serif" font-size="14.00">CpuClockSpeed</text>
</g>
<!-- CpuClockSpeed&#45;&gt;NumericAttribute -->
<g id="edge26" class="edge"><title>CpuClockSpeed&#45;&gt;NumericAttribute</title>
<path fill="none" stroke="black" d="M1974.58,-1400C2029.59,-1401.67 2109.73,-1397.65 2172.22,-1368 2210.82,-1349.68 2243.72,-1311.76 2262.85,-1286.09"/>
<polygon fill="black" stroke="black" points="2265.75,-1288.05 2268.79,-1277.9 2260.08,-1283.93 2265.75,-1288.05"/>
</g>
<!-- Ram -->
<g id="node28" class="node"><title>Ram</title>
<ellipse fill="none" stroke="black" cx="1909.64" cy="-1341" rx="27.8951" ry="18"/>
<text text-anchor="middle" x="1909.64" y="-1337.3" font-family="Times,serif" font-size="14.00">Ram</text>
</g>
<!-- Ram&#45;&gt;NumericAttribute -->
<g id="edge27" class="edge"><title>Ram&#45;&gt;NumericAttribute</title>
<path fill="none" stroke="black" d="M1937.6,-1341.36C1985.72,-1341.32 2089.13,-1338.11 2172.22,-1314 2197.73,-1306.6 2224.47,-1293.35 2245.01,-1281.83"/>
<polygon fill="black" stroke="black" points="2246.76,-1284.87 2253.7,-1276.86 2243.28,-1278.79 2246.76,-1284.87"/>
</g>
<!-- RamClockSpeed -->
<g id="node29" class="node"><title>RamClockSpeed</title>
<ellipse fill="none" stroke="black" cx="1909.64" cy="-1287" rx="70.3881" ry="18"/>
<text text-anchor="middle" x="1909.64" y="-1283.3" font-family="Times,serif" font-size="14.00">RamClockSpeed</text>
</g>
<!-- RamClockSpeed&#45;&gt;NumericAttribute -->
<g id="edge28" class="edge"><title>RamClockSpeed&#45;&gt;NumericAttribute</title>
<path fill="none" stroke="black" d="M1977.65,-1282.11C2040.44,-1277.53 2134.37,-1270.67 2200.98,-1265.81"/>
<polygon fill="black" stroke="black" points="2201.29,-1269.3 2211.01,-1265.08 2200.78,-1262.32 2201.29,-1269.3"/>
</g>
<!-- RamWriteSpeed -->
<g id="node30" class="node"><title>RamWriteSpeed</title>
<ellipse fill="none" stroke="black" cx="1909.64" cy="-1233" rx="69.5877" ry="18"/>
<text text-anchor="middle" x="1909.64" y="-1229.3" font-family="Times,serif" font-size="14.00">RamWriteSpeed</text>
</g>
<!-- RamWriteSpeed&#45;&gt;NumericAttribute -->
<g id="edge29" class="edge"><title>RamWriteSpeed&#45;&gt;NumericAttribute</title>
<path fill="none" stroke="black" d="M1976.79,-1237.83C2039.57,-1242.41 2134.01,-1249.3 2200.92,-1254.18"/>
<polygon fill="black" stroke="black" points="2200.77,-1257.68 2211,-1254.92 2201.28,-1250.7 2200.77,-1257.68"/>
</g>
<!-- RamReadSpeed -->
<g id="node31" class="node"><title>RamReadSpeed</title>
<ellipse fill="none" stroke="black" cx="1909.64" cy="-1179" rx="67.6881" ry="18"/>
<text text-anchor="middle" x="1909.64" y="-1175.3" font-family="Times,serif" font-size="14.00">RamReadSpeed</text>
</g>
<!-- RamReadSpeed&#45;&gt;NumericAttribute -->
<g id="edge30" class="edge"><title>RamReadSpeed&#45;&gt;NumericAttribute</title>
<path fill="none" stroke="black" d="M1977.47,-1179.34C2031.08,-1181.17 2107.76,-1187.3 2172.22,-1206 2197.73,-1213.4 2224.47,-1226.65 2245.01,-1238.17"/>
<polygon fill="black" stroke="black" points="2243.28,-1241.21 2253.7,-1243.14 2246.76,-1235.13 2243.28,-1241.21"/>
</g>
<!-- NetworkCapacity -->
<g id="node32" class="node"><title>NetworkCapacity</title>
<ellipse fill="none" stroke="black" cx="1909.64" cy="-1125" rx="72.5877" ry="18"/>
<text text-anchor="middle" x="1909.64" y="-1121.3" font-family="Times,serif" font-size="14.00">NetworkCapacity</text>
</g>
<!-- NetworkCapacity&#45;&gt;NumericAttribute -->
<g id="edge31" class="edge"><title>NetworkCapacity&#45;&gt;NumericAttribute</title>
<path fill="none" stroke="black" d="M1979.55,-1119.87C2034.34,-1118.59 2111.59,-1123.23 2172.22,-1152 2210.82,-1170.32 2243.72,-1208.24 2262.85,-1233.91"/>
<polygon fill="black" stroke="black" points="2260.08,-1236.07 2268.79,-1242.1 2265.75,-1231.95 2260.08,-1236.07"/>
</g>
<!-- NetworkUploadSpeed -->
<g id="node33" class="node"><title>NetworkUploadSpeed</title>
<ellipse fill="none" stroke="black" cx="1909.64" cy="-1071" rx="89.0842" ry="18"/>
<text text-anchor="middle" x="1909.64" y="-1067.3" font-family="Times,serif" font-size="14.00">NetworkUploadSpeed</text>
</g>
<!-- NetworkUploadSpeed&#45;&gt;NumericAttribute -->
<g id="edge32" class="edge"><title>NetworkUploadSpeed&#45;&gt;NumericAttribute</title>
<path fill="none" stroke="black" d="M1987.89,-1062.36C2043.05,-1059.96 2116.97,-1064.74 2172.22,-1098 2223.64,-1128.95 2255.85,-1194.75 2270.8,-1232.27"/>
<polygon fill="black" stroke="black" points="2267.7,-1233.98 2274.56,-1242.06 2274.24,-1231.47 2267.7,-1233.98"/>
</g>
<!-- NetworkDownloadSpeed -->
<g id="node34" class="node"><title>NetworkDownloadSpeed</title>
<ellipse fill="none" stroke="black" cx="1909.64" cy="-1017" rx="99.3824" ry="18"/>
<text text-anchor="middle" x="1909.64" y="-1013.3" font-family="Times,serif" font-size="14.00">NetworkDownloadSpeed</text>
</g>
<!-- NetworkDownloadSpeed&#45;&gt;NumericAttribute -->
<g id="edge33" class="edge"><title>NetworkDownloadSpeed&#45;&gt;NumericAttribute</title>
<path fill="none" stroke="black" d="M1989.8,-1006.29C2045.53,-1002.97 2119.33,-1007.5 2172.22,-1044 2237.23,-1088.88 2265.27,-1184.56 2275.56,-1232.06"/>
<polygon fill="black" stroke="black" points="2272.15,-1232.88 2277.59,-1241.97 2279.01,-1231.47 2272.15,-1232.88"/>
</g>
<!-- Price -->
<g id="node35" class="node"><title>Price</title>
<ellipse fill="none" stroke="black" cx="2281.66" cy="-450" rx="28.6953" ry="18"/>
<text text-anchor="middle" x="2281.66" y="-446.3" font-family="Times,serif" font-size="14.00">Price</text>
</g>
<!-- Price&#45;&gt;Attribute -->
<g id="edge34" class="edge"><title>Price&#45;&gt;Attribute</title>
<path fill="none" stroke="black" d="M2307.81,-457.623C2322.06,-462.37 2340.01,-469.077 2355.1,-477 2372.26,-486.007 2390.07,-498.236 2404.27,-508.779"/>
<polygon fill="black" stroke="black" points="2402.51,-511.839 2412.59,-515.082 2406.73,-506.257 2402.51,-511.839"/>
</g>
<!-- Euro -->
<g id="node36" class="node"><title>Euro</title>
<ellipse fill="none" stroke="black" cx="1909.64" cy="-369" rx="27.8951" ry="18"/>
<text text-anchor="middle" x="1909.64" y="-365.3" font-family="Times,serif" font-size="14.00">Euro</text>
</g>
<!-- Euro&#45;&gt;NameAttribute -->
<g id="edge35" class="edge"><title>Euro&#45;&gt;NameAttribute</title>
<path fill="none" stroke="black" d="M1936.62,-363.831C1987.28,-355.299 2100.53,-343.984 2172.22,-396 2204.1,-419.137 2179.52,-450.012 2208.22,-477 2212.77,-481.284 2218.07,-484.903 2223.69,-487.957"/>
<polygon fill="black" stroke="black" points="2222.19,-491.121 2232.72,-492.306 2225.23,-484.814 2222.19,-491.121"/>
</g>
<!-- UsDollar -->
<g id="node37" class="node"><title>UsDollar</title>
<ellipse fill="none" stroke="black" cx="1909.64" cy="-315" rx="42.7926" ry="18"/>
<text text-anchor="middle" x="1909.64" y="-311.3" font-family="Times,serif" font-size="14.00">UsDollar</text>
</g>
<!-- UsDollar&#45;&gt;NameAttribute -->
<g id="edge36" class="edge"><title>UsDollar&#45;&gt;NameAttribute</title>
<path fill="none" stroke="black" d="M1948.19,-306.862C2004.05,-297.119 2109.19,-288.207 2172.22,-342 2219.45,-382.313 2166.47,-431.032 2208.22,-477 2212.21,-481.392 2216.98,-485.072 2222.14,-488.156"/>
<polygon fill="black" stroke="black" points="2220.64,-491.322 2231.14,-492.802 2223.86,-485.102 2220.64,-491.322"/>
</g>
<!-- JapaneseYen -->
<g id="node38" class="node"><title>JapaneseYen</title>
<ellipse fill="none" stroke="black" cx="1909.64" cy="-261" rx="56.59" ry="18"/>
<text text-anchor="middle" x="1909.64" y="-257.3" font-family="Times,serif" font-size="14.00">JapaneseYen</text>
</g>
<!-- JapaneseYen&#45;&gt;NameAttribute -->
<g id="edge37" class="edge"><title>JapaneseYen&#45;&gt;NameAttribute</title>
<path fill="none" stroke="black" d="M1956.7,-250.872C2014.75,-241.053 2113.95,-234.509 2172.22,-288 2235.21,-345.83 2153.06,-411.66 2208.22,-477 2212.04,-481.533 2216.71,-485.306 2221.81,-488.446"/>
<polygon fill="black" stroke="black" points="2220.25,-491.583 2230.73,-493.155 2223.52,-485.392 2220.25,-491.583"/>
</g>
<!-- DatabaseAsAService -->
<g id="node39" class="node"><title>DatabaseAsAService</title>
<ellipse fill="none" stroke="black" cx="1335.49" cy="-153" rx="85.2851" ry="18"/>
<text text-anchor="middle" x="1335.49" y="-149.3" font-family="Times,serif" font-size="14.00">DatabaseAsAService</text>
</g>
<!-- DatabaseAsAService&#45;&gt;SaaS -->
<g id="edge38" class="edge"><title>DatabaseAsAService&#45;&gt;SaaS</title>
<path fill="none" stroke="black" d="M1420.91,-153C1547.09,-153 1779.77,-153 1870.76,-153"/>
<polygon fill="black" stroke="black" points="1870.89,-156.5 1880.89,-153 1870.89,-149.5 1870.89,-156.5"/>
</g>
<!-- SQLDatabaseAsAService -->
<g id="node40" class="node"><title>SQLDatabaseAsAService</title>
<ellipse fill="none" stroke="black" cx="775.634" cy="-207" rx="102.082" ry="18"/>
<text text-anchor="middle" x="775.634" y="-203.3" font-family="Times,serif" font-size="14.00">SQLDatabaseAsAService</text>
</g>
<!-- SQLDatabaseAsAService&#45;&gt;DatabaseAsAService -->
<g id="edge39" class="edge"><title>SQLDatabaseAsAService&#45;&gt;DatabaseAsAService</title>
<path fill="none" stroke="black" d="M865.336,-198.414C970.209,-188.262 1143.61,-171.477 1247.66,-161.405"/>
<polygon fill="black" stroke="black" points="1248.2,-164.869 1257.82,-160.422 1247.52,-157.902 1248.2,-164.869"/>
</g>
<!-- NoSQLDatabaseAsAService -->
<g id="node41" class="node"><title>NoSQLDatabaseAsAService</title>
<ellipse fill="none" stroke="black" cx="775.634" cy="-153" rx="112.38" ry="18"/>
<text text-anchor="middle" x="775.634" y="-149.3" font-family="Times,serif" font-size="14.00">NoSQLDatabaseAsAService</text>
</g>
<!-- NoSQLDatabaseAsAService&#45;&gt;DatabaseAsAService -->
<g id="edge40" class="edge"><title>NoSQLDatabaseAsAService&#45;&gt;DatabaseAsAService</title>
<path fill="none" stroke="black" d="M888.184,-153C991.213,-153 1142.59,-153 1239.86,-153"/>
<polygon fill="black" stroke="black" points="1239.97,-156.5 1249.97,-153 1239.97,-149.5 1239.97,-156.5"/>
</g>
<!-- github.com/supermuesli/csdl@examples/Requirement1.py@latest -->
<g id="node42" class="node"><title>github.com/supermuesli/csdl@examples/Requirement1.py@latest</title>
<ellipse fill="none" stroke="black" cx="245.678" cy="-72" rx="245.857" ry="18"/>
<text text-anchor="middle" x="245.678" y="-68.3" font-family="Times,serif" font-size="14.00">github.com/supermuesli/csdl@examples/Requirement1.py@latest</text>
</g>
<!-- github.com/supermuesli/csdl@examples/Requirement1.py@latest&#45;&gt;VMAsAService -->
<g id="edge41" class="edge"><title>github.com/supermuesli/csdl@examples/Requirement1.py@latest&#45;&gt;VMAsAService</title>
<path fill="none" stroke="black" d="M447.782,-61.7154C535.605,-57.2241 633.286,-52.2286 698.791,-48.8787"/>
<polygon fill="black" stroke="black" points="699.214,-52.3617 709.022,-48.3555 698.856,-45.3709 699.214,-52.3617"/>
</g>
<!-- github.com/supermuesli/csdl@misc/StaticIp.py@latest -->
<g id="node43" class="node"><title>github.com/supermuesli/csdl@misc/StaticIp.py@latest</title>
<ellipse fill="none" stroke="black" cx="1909.64" cy="-963" rx="206.063" ry="18"/>
<text text-anchor="middle" x="1909.64" y="-959.3" font-family="Times,serif" font-size="14.00">github.com/supermuesli/csdl@misc/StaticIp.py@latest</text>
</g>
<!-- github.com/supermuesli/csdl@misc/StaticIp.py@latest&#45;&gt;NumericAttribute -->
<g id="edge42" class="edge"><title>github.com/supermuesli/csdl@misc/StaticIp.py@latest&#45;&gt;NumericAttribute</title>
<path fill="none" stroke="black" d="M2115.4,-961.979C2135.84,-968.196 2155.26,-977.222 2172.22,-990 2251.04,-1049.41 2272.72,-1175.44 2278.56,-1231.77"/>
<polygon fill="black" stroke="black" points="2275.08,-1232.13 2279.5,-1241.75 2282.05,-1231.47 2275.08,-1232.13"/>
</g>
<!-- github.com/supermuesli/csdl@aws/ec2/A1Large.py@latest -->
<g id="node44" class="node"><title>github.com/supermuesli/csdl@aws/ec2/A1Large.py@latest</title>
<ellipse fill="none" stroke="black" cx="245.678" cy="-18" rx="221.761" ry="18"/>
<text text-anchor="middle" x="245.678" y="-14.3" font-family="Times,serif" font-size="14.00">github.com/supermuesli/csdl@aws/ec2/A1Large.py@latest</text>
</g>
<!-- github.com/supermuesli/csdl@aws/ec2/A1Large.py@latest&#45;&gt;VMAsAService -->
<g id="edge43" class="edge"><title>github.com/supermuesli/csdl@aws/ec2/A1Large.py@latest&#45;&gt;VMAsAService</title>
<path fill="none" stroke="black" d="M433.559,-27.5572C524.834,-32.2251 629.59,-37.5823 698.656,-41.1144"/>
<polygon fill="black" stroke="black" points="698.838,-44.6282 709.004,-41.6436 699.195,-37.6373 698.838,-44.6282"/>
</g>
<!-- github.com/supermuesli/csdl@aws/regions/Region.py@latest -->
<g id="node45" class="node"><title>github.com/supermuesli/csdl@aws/regions/Region.py@latest</title>
<ellipse fill="none" stroke="black" cx="1335.49" cy="-909" rx="229.359" ry="18"/>
<text text-anchor="middle" x="1335.49" y="-905.3" font-family="Times,serif" font-size="14.00">github.com/supermuesli/csdl@aws/regions/Region.py@latest</text>
</g>
<!-- github.com/supermuesli/csdl@aws/regions/Region.py@latest&#45;&gt;Region -->
<g id="edge44" class="edge"><title>github.com/supermuesli/csdl@aws/regions/Region.py@latest&#45;&gt;Region</title>
<path fill="none" stroke="black" d="M1565.08,-909C1675.65,-909 1798.17,-909 1862.83,-909"/>
<polygon fill="black" stroke="black" points="1863.08,-912.5 1873.08,-909 1863.08,-905.5 1863.08,-912.5"/>
</g>
<!-- github.com/supermuesli/csdl@misc/countries/USA.py@latest -->
<g id="node46" class="node"><title>github.com/supermuesli/csdl@misc/countries/USA.py@latest</title>
<ellipse fill="none" stroke="black" cx="1335.49" cy="-747" rx="231.259" ry="18"/>
<text text-anchor="middle" x="1335.49" y="-743.3" font-family="Times,serif" font-size="14.00">github.com/supermuesli/csdl@misc/countries/USA.py@latest</text>
</g>
<!-- github.com/supermuesli/csdl@misc/countries/USA.py@latest&#45;&gt;NorthAmerica -->
<g id="edge45" class="edge"><title>github.com/supermuesli/csdl@misc/countries/USA.py@latest&#45;&gt;NorthAmerica</title>
<path fill="none" stroke="black" d="M1567.14,-747C1664.11,-747 1769.91,-747 1837.65,-747"/>
<polygon fill="black" stroke="black" points="1837.77,-750.5 1847.77,-747 1837.77,-743.5 1837.77,-750.5"/>
</g>
<!-- github.com/supermuesli/csdl@aws/regions/California.py@latest -->
<g id="node47" class="node"><title>github.com/supermuesli/csdl@aws/regions/California.py@latest</title>
<ellipse fill="none" stroke="black" cx="775.634" cy="-801" rx="239.358" ry="18"/>
<text text-anchor="middle" x="775.634" y="-797.3" font-family="Times,serif" font-size="14.00">github.com/supermuesli/csdl@aws/regions/California.py@latest</text>
</g>
<!-- github.com/supermuesli/csdl@aws/regions/California.py@latest&#45;&gt;github.com/supermuesli/csdl@misc/countries/USA.py@latest -->
<g id="edge46" class="edge"><title>github.com/supermuesli/csdl@aws/regions/California.py@latest&#45;&gt;github.com/supermuesli/csdl@misc/countries/USA.py@latest</title>
<path fill="none" stroke="black" d="M923.204,-786.812C1002.15,-779.171 1099.5,-769.747 1179.67,-761.986"/>
<polygon fill="black" stroke="black" points="1180.25,-765.447 1189.86,-761 1179.57,-758.479 1180.25,-765.447"/>
</g>
<!-- github.com/supermuesli/csdl@aws/regions/EastVirginia.py@latest -->
<g id="node48" class="node"><title>github.com/supermuesli/csdl@aws/regions/EastVirginia.py@latest</title>
<ellipse fill="none" stroke="black" cx="775.634" cy="-747" rx="248.056" ry="18"/>
<text text-anchor="middle" x="775.634" y="-743.3" font-family="Times,serif" font-size="14.00">github.com/supermuesli/csdl@aws/regions/EastVirginia.py@latest</text>
</g>
<!-- github.com/supermuesli/csdl@aws/regions/EastVirginia.py@latest&#45;&gt;github.com/supermuesli/csdl@misc/countries/USA.py@latest -->
<g id="edge47" class="edge"><title>github.com/supermuesli/csdl@aws/regions/EastVirginia.py@latest&#45;&gt;github.com/supermuesli/csdl@misc/countries/USA.py@latest</title>
<path fill="none" stroke="black" d="M1024.16,-747C1047.24,-747 1070.62,-747 1093.64,-747"/>
<polygon fill="black" stroke="black" points="1093.84,-750.5 1103.84,-747 1093.84,-743.5 1093.84,-750.5"/>
</g>
<!-- github.com/supermuesli/csdl@aws/regions/NewYork.py@latest -->
<g id="node49" class="node"><title>github.com/supermuesli/csdl@aws/regions/NewYork.py@latest</title>
<ellipse fill="none" stroke="black" cx="775.634" cy="-693" rx="238.558" ry="18"/>
<text text-anchor="middle" x="775.634" y="-689.3" font-family="Times,serif" font-size="14.00">github.com/supermuesli/csdl@aws/regions/NewYork.py@latest</text>
</g>
<!-- github.com/supermuesli/csdl@aws/regions/NewYork.py@latest&#45;&gt;github.com/supermuesli/csdl@misc/countries/USA.py@latest -->
<g id="edge48" class="edge"><title>github.com/supermuesli/csdl@aws/regions/NewYork.py@latest&#45;&gt;github.com/supermuesli/csdl@misc/countries/USA.py@latest</title>
<path fill="none" stroke="black" d="M923.204,-707.188C1002.15,-714.829 1099.5,-724.253 1179.67,-732.014"/>
<polygon fill="black" stroke="black" points="1179.57,-735.521 1189.86,-733 1180.25,-728.553 1179.57,-735.521"/>
</g>
<!-- github.com/supermuesli/csdl@aws/EBS.py@latest -->
<g id="node50" class="node"><title>github.com/supermuesli/csdl@aws/EBS.py@latest</title>
<ellipse fill="none" stroke="black" cx="775.634" cy="-99" rx="191.966" ry="18"/>
<text text-anchor="middle" x="775.634" y="-95.3" font-family="Times,serif" font-size="14.00">github.com/supermuesli/csdl@aws/EBS.py@latest</text>
</g>
<!-- github.com/supermuesli/csdl@aws/EBS.py@latest&#45;&gt;StorageAsAService -->
<g id="edge49" class="edge"><title>github.com/supermuesli/csdl@aws/EBS.py@latest&#45;&gt;StorageAsAService</title>
<path fill="none" stroke="black" d="M967.445,-99C1061.47,-99 1170.37,-99 1244.99,-99"/>
<polygon fill="black" stroke="black" points="1245.29,-102.5 1255.29,-99 1245.29,-95.5001 1245.29,-102.5"/>
</g>
<!-- github.com/supermuesli/csdl@aws/ec2/ElasticIpAmount.py@latest -->
<g id="node51" class="node"><title>github.com/supermuesli/csdl@aws/ec2/ElasticIpAmount.py@latest</title>
<ellipse fill="none" stroke="black" cx="1335.49" cy="-963" rx="250.756" ry="18"/>
<text text-anchor="middle" x="1335.49" y="-959.3" font-family="Times,serif" font-size="14.00">github.com/supermuesli/csdl@aws/ec2/ElasticIpAmount.py@latest</text>
</g>
<!-- github.com/supermuesli/csdl@aws/ec2/ElasticIpAmount.py@latest&#45;&gt;github.com/supermuesli/csdl@misc/StaticIp.py@latest -->
<g id="edge50" class="edge"><title>github.com/supermuesli/csdl@aws/ec2/ElasticIpAmount.py@latest&#45;&gt;github.com/supermuesli/csdl@misc/StaticIp.py@latest</title>
<path fill="none" stroke="black" d="M1586.61,-963C1622.05,-963 1658.24,-963 1692.96,-963"/>
<polygon fill="black" stroke="black" points="1693.19,-966.5 1703.19,-963 1693.19,-959.5 1693.19,-966.5"/>
</g>
<!-- github.com/supermuesli/csdl@misc/currencies/FeritsCurrencies.py@latest -->
<g id="node52" class="node"><title>github.com/supermuesli/csdl@misc/currencies/FeritsCurrencies.py@latest</title>
<ellipse fill="none" stroke="black" cx="1335.49" cy="-855" rx="275.651" ry="18"/>
<text text-anchor="middle" x="1335.49" y="-851.3" font-family="Times,serif" font-size="14.00">github.com/supermuesli/csdl@misc/currencies/FeritsCurrencies.py@latest</text>
</g>
<!-- github.com/supermuesli/csdl@misc/currencies/FeritsCurrencies.py@latest&#45;&gt;Currency -->
<g id="edge51" class="edge"><title>github.com/supermuesli/csdl@misc/currencies/FeritsCurrencies.py@latest&#45;&gt;Currency</title>
<path fill="none" stroke="black" d="M1611.25,-855C1704.32,-855 1798.98,-855 1855.76,-855"/>
<polygon fill="black" stroke="black" points="1855.91,-858.5 1865.91,-855 1855.91,-851.5 1855.91,-858.5"/>
</g>
<!-- github.com/supermuesli/csdl@misc/currencies/IndianRupee.py@latest -->
<g id="node53" class="node"><title>github.com/supermuesli/csdl@misc/currencies/IndianRupee.py@latest</title>
<ellipse fill="none" stroke="black" cx="1909.64" cy="-207" rx="262.653" ry="18"/>
<text text-anchor="middle" x="1909.64" y="-203.3" font-family="Times,serif" font-size="14.00">github.com/supermuesli/csdl@misc/currencies/IndianRupee.py@latest</text>
</g>
<!-- github.com/supermuesli/csdl@misc/currencies/IndianRupee.py@latest&#45;&gt;NameAttribute -->
<g id="edge52" class="edge"><title>github.com/supermuesli/csdl@misc/currencies/IndianRupee.py@latest&#45;&gt;NameAttribute</title>
<path fill="none" stroke="black" d="M2008.16,-190.303C2063.32,-186.724 2129.58,-193.208 2172.22,-234 2251.11,-309.475 2139.52,-392.144 2208.22,-477 2211.81,-481.434 2216.2,-485.139 2221.03,-488.236"/>
<polygon fill="black" stroke="black" points="2219.67,-491.479 2230.13,-493.18 2223.01,-485.329 2219.67,-491.479"/>
</g>
</g>
</svg>
