<?xml version="1.0" encoding="UTF-8" standalone="no"?>
<!DOCTYPE svg PUBLIC "-//W3C//DTD SVG 1.1//EN"
 "http://www.w3.org/Graphics/SVG/1.1/DTD/svg11.dtd">
<!-- Generated by graphviz version 2.38.0 (20140413.2041)
 -->
<!-- Title: %3 Pages: 1 -->
<svg width="2617pt" height="2008pt"
 viewBox="0.00 0.00 2617.09 2008.00" xmlns="http://www.w3.org/2000/svg" xmlns:xlink="http://www.w3.org/1999/xlink">
<g id="graph0" class="graph" transform="scale(1 1) rotate(0) translate(4 2004)">
<title>%3</title>
<polygon fill="white" stroke="none" points="-4,4 -4,-2004 2613.09,-2004 2613.09,4 -4,4"/>
<!-- VMAsAService -->
<g id="node1" class="node"><title>VMAsAService</title>
<ellipse fill="none" stroke="black" cx="810.081" cy="-45" rx="67.6881" ry="18"/>
<text text-anchor="middle" x="810.081" y="-41.3" font-family="Times,serif" font-size="14.00">VMAsAService</text>
</g>
<!-- ServerAsAService -->
<g id="node2" class="node"><title>ServerAsAService</title>
<ellipse fill="none" stroke="black" cx="1361.49" cy="-58" rx="76.0865" ry="18"/>
<text text-anchor="middle" x="1361.49" y="-54.3" font-family="Times,serif" font-size="14.00">ServerAsAService</text>
</g>
<!-- VMAsAService&#45;&gt;ServerAsAService -->
<g id="edge1" class="edge"><title>VMAsAService&#45;&gt;ServerAsAService</title>
<path fill="none" stroke="black" d="M877.626,-46.5746C977.498,-48.9377 1166.1,-53.4003 1275.7,-55.9937"/>
<polygon fill="black" stroke="black" points="1275.65,-59.4934 1285.73,-56.231 1275.81,-52.4954 1275.65,-59.4934"/>
</g>
<!-- IaaS -->
<g id="node3" class="node"><title>IaaS</title>
<ellipse fill="none" stroke="black" cx="1926.54" cy="-139" rx="27" ry="18"/>
<text text-anchor="middle" x="1926.54" y="-135.3" font-family="Times,serif" font-size="14.00">IaaS</text>
</g>
<!-- ServerAsAService&#45;&gt;IaaS -->
<g id="edge2" class="edge"><title>ServerAsAService&#45;&gt;IaaS</title>
<path fill="none" stroke="black" d="M1426.8,-67.2523C1545.85,-84.3792 1796.91,-120.496 1889.91,-133.874"/>
<polygon fill="black" stroke="black" points="1889.54,-137.357 1899.94,-135.317 1890.54,-130.428 1889.54,-137.357"/>
</g>
<!-- CCS -->
<g id="node5" class="node"><title>CCS</title>
<ellipse fill="none" stroke="black" cx="2314.16" cy="-200" rx="27.0966" ry="18"/>
<text text-anchor="middle" x="2314.16" y="-196.3" font-family="Times,serif" font-size="14.00">CCS</text>
</g>
<!-- IaaS&#45;&gt;CCS -->
<g id="edge4" class="edge"><title>IaaS&#45;&gt;CCS</title>
<path fill="none" stroke="black" d="M1953.69,-141.136C2003.04,-145.404 2113.18,-156.057 2204.71,-173 2229.8,-177.643 2257.72,-184.639 2278.95,-190.347"/>
<polygon fill="black" stroke="black" points="2278.23,-193.776 2288.79,-193.029 2280.07,-187.023 2278.23,-193.776"/>
</g>
<!-- SaaS -->
<g id="node4" class="node"><title>SaaS</title>
<ellipse fill="none" stroke="black" cx="1926.54" cy="-200" rx="28.6953" ry="18"/>
<text text-anchor="middle" x="1926.54" y="-196.3" font-family="Times,serif" font-size="14.00">SaaS</text>
</g>
<!-- SaaS&#45;&gt;CCS -->
<g id="edge3" class="edge"><title>SaaS&#45;&gt;CCS</title>
<path fill="none" stroke="black" d="M1955.27,-200C2023.55,-200 2199.82,-200 2276.55,-200"/>
<polygon fill="black" stroke="black" points="2276.7,-203.5 2286.7,-200 2276.7,-196.5 2276.7,-203.5"/>
</g>
<!-- Attribute -->
<g id="node8" class="node"><title>Attribute</title>
<ellipse fill="none" stroke="black" cx="2465.85" cy="-659" rx="42.4939" ry="18"/>
<text text-anchor="middle" x="2465.85" y="-655.3" font-family="Times,serif" font-size="14.00">Attribute</text>
</g>
<!-- CCS&#45;&gt;Attribute -->
<g id="edge10" class="edge"><title>CCS&#45;&gt;Attribute</title>
<path fill="none" stroke="black" d="M2320.93,-217.712C2343.78,-287.775 2427.96,-545.887 2455.82,-631.329"/>
<polygon fill="black" stroke="black" points="2452.58,-632.671 2459.01,-641.093 2459.23,-630.501 2452.58,-632.671"/>
</g>
<!-- StorageAsAService -->
<g id="node6" class="node"><title>StorageAsAService</title>
<ellipse fill="none" stroke="black" cx="1361.49" cy="-139" rx="79.8859" ry="18"/>
<text text-anchor="middle" x="1361.49" y="-135.3" font-family="Times,serif" font-size="14.00">StorageAsAService</text>
</g>
<!-- StorageAsAService&#45;&gt;IaaS -->
<g id="edge5" class="edge"><title>StorageAsAService&#45;&gt;IaaS</title>
<path fill="none" stroke="black" d="M1441.67,-139C1565.37,-139 1799.59,-139 1889.32,-139"/>
<polygon fill="black" stroke="black" points="1889.52,-142.5 1899.52,-139 1889.52,-135.5 1889.52,-142.5"/>
</g>
<!-- NumericAttribute -->
<g id="node7" class="node"><title>NumericAttribute</title>
<ellipse fill="none" stroke="black" cx="2314.16" cy="-1631" rx="73.387" ry="18"/>
<text text-anchor="middle" x="2314.16" y="-1627.3" font-family="Times,serif" font-size="14.00">NumericAttribute</text>
</g>
<!-- NumericAttribute&#45;&gt;Attribute -->
<g id="edge6" class="edge"><title>NumericAttribute&#45;&gt;Attribute</title>
<path fill="none" stroke="black" d="M2317.95,-1612.88C2336.16,-1494.59 2438.08,-832.821 2460.49,-687.301"/>
<polygon fill="black" stroke="black" points="2464.01,-687.414 2462.08,-676.998 2457.09,-686.348 2464.01,-687.414"/>
</g>
<!-- object -->
<g id="node12" class="node"><title>object</title>
<ellipse fill="none" stroke="black" cx="2576.59" cy="-659" rx="32.4942" ry="18"/>
<text text-anchor="middle" x="2576.59" y="-655.3" font-family="Times,serif" font-size="14.00">object</text>
</g>
<!-- Attribute&#45;&gt;object -->
<g id="edge11" class="edge"><title>Attribute&#45;&gt;object</title>
<path fill="none" stroke="black" d="M2508.27,-659C2516.54,-659 2525.24,-659 2533.53,-659"/>
<polygon fill="black" stroke="black" points="2533.76,-662.5 2543.76,-659 2533.76,-655.5 2533.76,-662.5"/>
</g>
<!-- ChoiceAttribute -->
<g id="node9" class="node"><title>ChoiceAttribute</title>
<ellipse fill="none" stroke="black" cx="2314.16" cy="-1118" rx="67.6881" ry="18"/>
<text text-anchor="middle" x="2314.16" y="-1114.3" font-family="Times,serif" font-size="14.00">ChoiceAttribute</text>
</g>
<!-- ChoiceAttribute&#45;&gt;Attribute -->
<g id="edge7" class="edge"><title>ChoiceAttribute&#45;&gt;Attribute</title>
<path fill="none" stroke="black" d="M2321.03,-1100.01C2344.01,-1029.52 2428.03,-771.882 2455.84,-686.613"/>
<polygon fill="black" stroke="black" points="2459.25,-687.461 2459.02,-676.869 2452.59,-685.291 2459.25,-687.461"/>
</g>
<!-- BoolAttribute -->
<g id="node10" class="node"><title>BoolAttribute</title>
<ellipse fill="none" stroke="black" cx="2314.16" cy="-686" rx="59.5901" ry="18"/>
<text text-anchor="middle" x="2314.16" y="-682.3" font-family="Times,serif" font-size="14.00">BoolAttribute</text>
</g>
<!-- BoolAttribute&#45;&gt;Attribute -->
<g id="edge8" class="edge"><title>BoolAttribute&#45;&gt;Attribute</title>
<path fill="none" stroke="black" d="M2365.84,-676.859C2382.12,-673.922 2400.11,-670.678 2416.24,-667.768"/>
<polygon fill="black" stroke="black" points="2417.31,-671.131 2426.53,-665.912 2416.07,-664.242 2417.31,-671.131"/>
</g>
<!-- OptionAttribute -->
<g id="node11" class="node"><title>OptionAttribute</title>
<ellipse fill="none" stroke="black" cx="2314.16" cy="-632" rx="66.8882" ry="18"/>
<text text-anchor="middle" x="2314.16" y="-628.3" font-family="Times,serif" font-size="14.00">OptionAttribute</text>
</g>
<!-- OptionAttribute&#45;&gt;Attribute -->
<g id="edge9" class="edge"><title>OptionAttribute&#45;&gt;Attribute</title>
<path fill="none" stroke="black" d="M2370.47,-641.977C2385.63,-644.711 2401.94,-647.652 2416.66,-650.308"/>
<polygon fill="black" stroke="black" points="2416.1,-653.764 2426.57,-652.095 2417.35,-646.875 2416.1,-653.764"/>
</g>
<!-- Region -->
<g id="node13" class="node"><title>Region</title>
<ellipse fill="none" stroke="black" cx="1926.54" cy="-1280" rx="36.2938" ry="18"/>
<text text-anchor="middle" x="1926.54" y="-1276.3" font-family="Times,serif" font-size="14.00">Region</text>
</g>
<!-- Region&#45;&gt;ChoiceAttribute -->
<g id="edge12" class="edge"><title>Region&#45;&gt;ChoiceAttribute</title>
<path fill="none" stroke="black" d="M1961.96,-1284.79C2016.91,-1290.72 2126.24,-1295.42 2204.71,-1253 2249.53,-1228.77 2282.53,-1177.46 2299.73,-1145.54"/>
<polygon fill="black" stroke="black" points="2303.02,-1146.79 2304.55,-1136.31 2296.82,-1143.55 2303.02,-1146.79"/>
</g>
<!-- NorthAmerica -->
<g id="node14" class="node"><title>NorthAmerica</title>
<ellipse fill="none" stroke="black" cx="1926.54" cy="-956" rx="61.99" ry="18"/>
<text text-anchor="middle" x="1926.54" y="-952.3" font-family="Times,serif" font-size="14.00">NorthAmerica</text>
</g>
<!-- NorthAmerica&#45;&gt;OptionAttribute -->
<g id="edge13" class="edge"><title>NorthAmerica&#45;&gt;OptionAttribute</title>
<path fill="none" stroke="black" d="M1974.94,-967.249C2036.66,-978.8 2143.83,-987.759 2204.71,-929 2291.82,-844.927 2165.22,-753.643 2240.71,-659 2244.03,-654.844 2248.05,-651.327 2252.49,-648.352"/>
<polygon fill="black" stroke="black" points="2254.47,-651.252 2261.44,-643.272 2251.01,-645.163 2254.47,-651.252"/>
</g>
<!-- Australia -->
<g id="node15" class="node"><title>Australia</title>
<ellipse fill="none" stroke="black" cx="1926.54" cy="-902" rx="42.7926" ry="18"/>
<text text-anchor="middle" x="1926.54" y="-898.3" font-family="Times,serif" font-size="14.00">Australia</text>
</g>
<!-- Australia&#45;&gt;OptionAttribute -->
<g id="edge14" class="edge"><title>Australia&#45;&gt;OptionAttribute</title>
<path fill="none" stroke="black" d="M1964.11,-910.914C2023.08,-922.898 2139.18,-936.224 2204.71,-875 2275.83,-808.562 2178.79,-734.086 2240.71,-659 2244.1,-654.898 2248.17,-651.42 2252.63,-648.469"/>
<polygon fill="black" stroke="black" points="2254.62,-651.368 2261.62,-643.422 2251.19,-645.264 2254.62,-651.368"/>
</g>
<!-- Africa -->
<g id="node16" class="node"><title>Africa</title>
<ellipse fill="none" stroke="black" cx="1926.54" cy="-848" rx="33.2948" ry="18"/>
<text text-anchor="middle" x="1926.54" y="-844.3" font-family="Times,serif" font-size="14.00">Africa</text>
</g>
<!-- Africa&#45;&gt;OptionAttribute -->
<g id="edge15" class="edge"><title>Africa&#45;&gt;OptionAttribute</title>
<path fill="none" stroke="black" d="M1957.38,-855.228C2013.42,-866.872 2135.03,-882.692 2204.71,-821 2259.94,-772.111 2192.28,-714.627 2240.71,-659 2244.35,-654.824 2248.69,-651.293 2253.43,-648.307"/>
<polygon fill="black" stroke="black" points="2255.17,-651.345 2262.29,-643.501 2251.83,-645.191 2255.17,-651.345"/>
</g>
<!-- EastAsia -->
<g id="node17" class="node"><title>EastAsia</title>
<ellipse fill="none" stroke="black" cx="1926.54" cy="-794" rx="42.4939" ry="18"/>
<text text-anchor="middle" x="1926.54" y="-790.3" font-family="Times,serif" font-size="14.00">EastAsia</text>
</g>
<!-- EastAsia&#45;&gt;OptionAttribute -->
<g id="edge16" class="edge"><title>EastAsia&#45;&gt;OptionAttribute</title>
<path fill="none" stroke="black" d="M1964.47,-801.955C2022.4,-812.143 2135.15,-822.458 2204.71,-767 2244.28,-735.459 2205.57,-695.398 2240.71,-659 2244.62,-654.957 2249.18,-651.514 2254.09,-648.583"/>
<polygon fill="black" stroke="black" points="2255.96,-651.557 2263.22,-643.842 2252.73,-645.345 2255.96,-651.557"/>
</g>
<!-- SouthAmerica -->
<g id="node18" class="node"><title>SouthAmerica</title>
<ellipse fill="none" stroke="black" cx="1926.54" cy="-740" rx="61.99" ry="18"/>
<text text-anchor="middle" x="1926.54" y="-736.3" font-family="Times,serif" font-size="14.00">SouthAmerica</text>
</g>
<!-- SouthAmerica&#45;&gt;OptionAttribute -->
<g id="edge17" class="edge"><title>SouthAmerica&#45;&gt;OptionAttribute</title>
<path fill="none" stroke="black" d="M1982.31,-747.788C2041.5,-753.377 2136.5,-753.887 2204.71,-713 2229.45,-698.171 2218.1,-676.907 2240.71,-659 2245.62,-655.118 2251.13,-651.754 2256.88,-648.849"/>
<polygon fill="black" stroke="black" points="2258.41,-651.999 2266.04,-644.653 2255.5,-645.634 2258.41,-651.999"/>
</g>
<!-- Europe -->
<g id="node19" class="node"><title>Europe</title>
<ellipse fill="none" stroke="black" cx="1926.54" cy="-686" rx="36.2938" ry="18"/>
<text text-anchor="middle" x="1926.54" y="-682.3" font-family="Times,serif" font-size="14.00">Europe</text>
</g>
<!-- Europe&#45;&gt;OptionAttribute -->
<g id="edge18" class="edge"><title>Europe&#45;&gt;OptionAttribute</title>
<path fill="none" stroke="black" d="M1962.76,-684.23C2015.62,-681.2 2118.47,-673.854 2204.71,-659 2222.14,-655.999 2240.89,-651.714 2257.83,-647.439"/>
<polygon fill="black" stroke="black" points="2258.76,-650.815 2267.57,-644.933 2257.01,-644.036 2258.76,-650.815"/>
</g>
<!-- Antarctica -->
<g id="node20" class="node"><title>Antarctica</title>
<ellipse fill="none" stroke="black" cx="1926.54" cy="-632" rx="47.3916" ry="18"/>
<text text-anchor="middle" x="1926.54" y="-628.3" font-family="Times,serif" font-size="14.00">Antarctica</text>
</g>
<!-- Antarctica&#45;&gt;OptionAttribute -->
<g id="edge19" class="edge"><title>Antarctica&#45;&gt;OptionAttribute</title>
<path fill="none" stroke="black" d="M1974.05,-632C2039.23,-632 2158.53,-632 2236.83,-632"/>
<polygon fill="black" stroke="black" points="2237.12,-635.5 2247.12,-632 2237.12,-628.5 2237.12,-635.5"/>
</g>
<!-- Storage -->
<g id="node21" class="node"><title>Storage</title>
<ellipse fill="none" stroke="black" cx="1926.54" cy="-1982" rx="37.8943" ry="18"/>
<text text-anchor="middle" x="1926.54" y="-1978.3" font-family="Times,serif" font-size="14.00">Storage</text>
</g>
<!-- Storage&#45;&gt;NumericAttribute -->
<g id="edge20" class="edge"><title>Storage&#45;&gt;NumericAttribute</title>
<path fill="none" stroke="black" d="M1961.22,-1989.36C2018.07,-1999.7 2133.8,-2011.47 2204.71,-1955 2297.93,-1880.78 2311.63,-1723.54 2313.2,-1659.27"/>
<polygon fill="black" stroke="black" points="2316.71,-1659.14 2313.37,-1649.08 2309.71,-1659.03 2316.71,-1659.14"/>
</g>
<!-- StorageWriteSpeed -->
<g id="node22" class="node"><title>StorageWriteSpeed</title>
<ellipse fill="none" stroke="black" cx="1926.54" cy="-1928" rx="79.0865" ry="18"/>
<text text-anchor="middle" x="1926.54" y="-1924.3" font-family="Times,serif" font-size="14.00">StorageWriteSpeed</text>
</g>
<!-- StorageWriteSpeed&#45;&gt;NumericAttribute -->
<g id="edge21" class="edge"><title>StorageWriteSpeed&#45;&gt;NumericAttribute</title>
<path fill="none" stroke="black" d="M1989.41,-1939.06C2050.3,-1946.34 2142.9,-1947.31 2204.71,-1901 2283.71,-1841.82 2305.29,-1715.67 2311.08,-1659.27"/>
<polygon fill="black" stroke="black" points="2314.57,-1659.55 2312.02,-1649.27 2307.6,-1658.9 2314.57,-1659.55"/>
</g>
<!-- StorageReadSpeed -->
<g id="node23" class="node"><title>StorageReadSpeed</title>
<ellipse fill="none" stroke="black" cx="1926.54" cy="-1874" rx="77.1866" ry="18"/>
<text text-anchor="middle" x="1926.54" y="-1870.3" font-family="Times,serif" font-size="14.00">StorageReadSpeed</text>
</g>
<!-- StorageReadSpeed&#45;&gt;NumericAttribute -->
<g id="edge22" class="edge"><title>StorageReadSpeed&#45;&gt;NumericAttribute</title>
<path fill="none" stroke="black" d="M1990.6,-1884.16C2050.9,-1890.37 2141.72,-1890.22 2204.71,-1847 2269.85,-1802.31 2297.83,-1706.54 2308.08,-1658.98"/>
<polygon fill="black" stroke="black" points="2311.53,-1659.56 2310.11,-1649.06 2304.68,-1658.16 2311.53,-1659.56"/>
</g>
<!-- OperatingSystem -->
<g id="node24" class="node"><title>OperatingSystem</title>
<ellipse fill="none" stroke="black" cx="1926.54" cy="-1226" rx="72.2875" ry="18"/>
<text text-anchor="middle" x="1926.54" y="-1222.3" font-family="Times,serif" font-size="14.00">OperatingSystem</text>
</g>
<!-- OperatingSystem&#45;&gt;ChoiceAttribute -->
<g id="edge23" class="edge"><title>OperatingSystem&#45;&gt;ChoiceAttribute</title>
<path fill="none" stroke="black" d="M1997.41,-1229.42C2054.94,-1229.87 2137.64,-1224.96 2204.71,-1199 2237.17,-1186.44 2268.36,-1161.31 2288.89,-1142.35"/>
<polygon fill="black" stroke="black" points="2291.36,-1144.84 2296.22,-1135.43 2286.55,-1139.75 2291.36,-1144.84"/>
</g>
<!-- CpuCores -->
<g id="node25" class="node"><title>CpuCores</title>
<ellipse fill="none" stroke="black" cx="1926.54" cy="-1820" rx="46.2923" ry="18"/>
<text text-anchor="middle" x="1926.54" y="-1816.3" font-family="Times,serif" font-size="14.00">CpuCores</text>
</g>
<!-- CpuCores&#45;&gt;NumericAttribute -->
<g id="edge24" class="edge"><title>CpuCores&#45;&gt;NumericAttribute</title>
<path fill="none" stroke="black" d="M1969.94,-1826.48C2027.47,-1833.04 2131.48,-1836.8 2204.71,-1793 2256.22,-1762.19 2288.4,-1696.34 2303.32,-1658.77"/>
<polygon fill="black" stroke="black" points="2306.76,-1659.56 2307.07,-1648.97 2300.23,-1657.06 2306.76,-1659.56"/>
</g>
<!-- CpuClockSpeed -->
<g id="node26" class="node"><title>CpuClockSpeed</title>
<ellipse fill="none" stroke="black" cx="1926.54" cy="-1766" rx="67.6881" ry="18"/>
<text text-anchor="middle" x="1926.54" y="-1762.3" font-family="Times,serif" font-size="14.00">CpuClockSpeed</text>
</g>
<!-- CpuClockSpeed&#45;&gt;NumericAttribute -->
<g id="edge25" class="edge"><title>CpuClockSpeed&#45;&gt;NumericAttribute</title>
<path fill="none" stroke="black" d="M1990.99,-1771.61C2049.33,-1774.11 2136.81,-1770.99 2204.71,-1739 2243.37,-1720.79 2276.26,-1682.84 2295.36,-1657.13"/>
<polygon fill="black" stroke="black" points="2298.27,-1659.09 2301.3,-1648.93 2292.6,-1654.98 2298.27,-1659.09"/>
</g>
<!-- Ram -->
<g id="node27" class="node"><title>Ram</title>
<ellipse fill="none" stroke="black" cx="1926.54" cy="-1712" rx="27.8951" ry="18"/>
<text text-anchor="middle" x="1926.54" y="-1708.3" font-family="Times,serif" font-size="14.00">Ram</text>
</g>
<!-- Ram&#45;&gt;NumericAttribute -->
<g id="edge26" class="edge"><title>Ram&#45;&gt;NumericAttribute</title>
<path fill="none" stroke="black" d="M1954.51,-1712.59C2004.77,-1712.98 2115.72,-1710.55 2204.71,-1685 2230.25,-1677.67 2256.98,-1664.43 2277.52,-1652.89"/>
<polygon fill="black" stroke="black" points="2279.28,-1655.92 2286.21,-1647.91 2275.79,-1649.85 2279.28,-1655.92"/>
</g>
<!-- RamClockSpeed -->
<g id="node28" class="node"><title>RamClockSpeed</title>
<ellipse fill="none" stroke="black" cx="1926.54" cy="-1658" rx="70.3881" ry="18"/>
<text text-anchor="middle" x="1926.54" y="-1654.3" font-family="Times,serif" font-size="14.00">RamClockSpeed</text>
</g>
<!-- RamClockSpeed&#45;&gt;NumericAttribute -->
<g id="edge27" class="edge"><title>RamClockSpeed&#45;&gt;NumericAttribute</title>
<path fill="none" stroke="black" d="M1994.71,-1653.3C2061.04,-1648.65 2162.5,-1641.55 2233.01,-1636.61"/>
<polygon fill="black" stroke="black" points="2233.45,-1640.09 2243.18,-1635.9 2232.96,-1633.11 2233.45,-1640.09"/>
</g>
<!-- RamWriteSpeed -->
<g id="node29" class="node"><title>RamWriteSpeed</title>
<ellipse fill="none" stroke="black" cx="1926.54" cy="-1604" rx="69.5877" ry="18"/>
<text text-anchor="middle" x="1926.54" y="-1600.3" font-family="Times,serif" font-size="14.00">RamWriteSpeed</text>
</g>
<!-- RamWriteSpeed&#45;&gt;NumericAttribute -->
<g id="edge28" class="edge"><title>RamWriteSpeed&#45;&gt;NumericAttribute</title>
<path fill="none" stroke="black" d="M1993.83,-1608.64C2060.12,-1613.28 2162.15,-1620.43 2232.96,-1625.38"/>
<polygon fill="black" stroke="black" points="2232.96,-1628.89 2243.18,-1626.1 2233.45,-1621.91 2232.96,-1628.89"/>
</g>
<!-- RamReadSpeed -->
<g id="node30" class="node"><title>RamReadSpeed</title>
<ellipse fill="none" stroke="black" cx="1926.54" cy="-1550" rx="67.6881" ry="18"/>
<text text-anchor="middle" x="1926.54" y="-1546.3" font-family="Times,serif" font-size="14.00">RamReadSpeed</text>
</g>
<!-- RamReadSpeed&#45;&gt;NumericAttribute -->
<g id="edge29" class="edge"><title>RamReadSpeed&#45;&gt;NumericAttribute</title>
<path fill="none" stroke="black" d="M1994.33,-1549.75C2051.27,-1551.12 2134.77,-1556.92 2204.71,-1577 2230.25,-1584.33 2256.98,-1597.57 2277.52,-1609.11"/>
<polygon fill="black" stroke="black" points="2275.79,-1612.15 2286.21,-1614.09 2279.28,-1606.08 2275.79,-1612.15"/>
</g>
<!-- NetworkCapacity -->
<g id="node31" class="node"><title>NetworkCapacity</title>
<ellipse fill="none" stroke="black" cx="1926.54" cy="-1496" rx="72.5877" ry="18"/>
<text text-anchor="middle" x="1926.54" y="-1492.3" font-family="Times,serif" font-size="14.00">NetworkCapacity</text>
</g>
<!-- NetworkCapacity&#45;&gt;NumericAttribute -->
<g id="edge30" class="edge"><title>NetworkCapacity&#45;&gt;NumericAttribute</title>
<path fill="none" stroke="black" d="M1995.55,-1490.21C2053.82,-1488.07 2138.56,-1491.84 2204.71,-1523 2243.37,-1541.21 2276.26,-1579.16 2295.36,-1604.87"/>
<polygon fill="black" stroke="black" points="2292.6,-1607.02 2301.3,-1613.07 2298.27,-1602.91 2292.6,-1607.02"/>
</g>
<!-- NetworkUploadSpeed -->
<g id="node32" class="node"><title>NetworkUploadSpeed</title>
<ellipse fill="none" stroke="black" cx="1926.54" cy="-1442" rx="89.0842" ry="18"/>
<text text-anchor="middle" x="1926.54" y="-1438.3" font-family="Times,serif" font-size="14.00">NetworkUploadSpeed</text>
</g>
<!-- NetworkUploadSpeed&#45;&gt;NumericAttribute -->
<g id="edge31" class="edge"><title>NetworkUploadSpeed&#45;&gt;NumericAttribute</title>
<path fill="none" stroke="black" d="M2002.93,-1432.64C2061.94,-1429.06 2143.93,-1432.64 2204.71,-1469 2256.22,-1499.81 2288.4,-1565.66 2303.32,-1603.23"/>
<polygon fill="black" stroke="black" points="2300.23,-1604.94 2307.07,-1613.03 2306.76,-1602.44 2300.23,-1604.94"/>
</g>
<!-- NetworkDownloadSpeed -->
<g id="node33" class="node"><title>NetworkDownloadSpeed</title>
<ellipse fill="none" stroke="black" cx="1926.54" cy="-1388" rx="99.3824" ry="18"/>
<text text-anchor="middle" x="1926.54" y="-1384.3" font-family="Times,serif" font-size="14.00">NetworkDownloadSpeed</text>
</g>
<!-- NetworkDownloadSpeed&#45;&gt;NumericAttribute -->
<g id="edge32" class="edge"><title>NetworkDownloadSpeed&#45;&gt;NumericAttribute</title>
<path fill="none" stroke="black" d="M2003.93,-1376.62C2063.7,-1371.87 2146.21,-1374.86 2204.71,-1415 2269.85,-1459.69 2297.83,-1555.46 2308.08,-1603.02"/>
<polygon fill="black" stroke="black" points="2304.68,-1603.84 2310.11,-1612.94 2311.53,-1602.44 2304.68,-1603.84"/>
</g>
<!-- PricingModel -->
<g id="node34" class="node"><title>PricingModel</title>
<ellipse fill="none" stroke="black" cx="1926.54" cy="-1172" rx="59.5901" ry="18"/>
<text text-anchor="middle" x="1926.54" y="-1168.3" font-family="Times,serif" font-size="14.00">PricingModel</text>
</g>
<!-- PricingModel&#45;&gt;ChoiceAttribute -->
<g id="edge33" class="edge"><title>PricingModel&#45;&gt;ChoiceAttribute</title>
<path fill="none" stroke="black" d="M1985.47,-1168.84C2041.77,-1165.19 2129.55,-1157.95 2204.71,-1145 2222.06,-1142.01 2240.72,-1137.75 2257.6,-1133.5"/>
<polygon fill="black" stroke="black" points="2258.49,-1136.88 2267.3,-1131 2256.75,-1130.1 2258.49,-1136.88"/>
</g>
<!-- PayAndGo -->
<g id="node35" class="node"><title>PayAndGo</title>
<ellipse fill="none" stroke="black" cx="1926.54" cy="-578" rx="50.0912" ry="18"/>
<text text-anchor="middle" x="1926.54" y="-574.3" font-family="Times,serif" font-size="14.00">PayAndGo</text>
</g>
<!-- PayAndGo&#45;&gt;OptionAttribute -->
<g id="edge34" class="edge"><title>PayAndGo&#45;&gt;OptionAttribute</title>
<path fill="none" stroke="black" d="M1976.4,-580.583C2032,-584.025 2125.38,-591.336 2204.71,-605 2222.14,-608.001 2240.89,-612.286 2257.83,-616.561"/>
<polygon fill="black" stroke="black" points="2257.01,-619.964 2267.57,-619.067 2258.76,-613.185 2257.01,-619.964"/>
</g>
<!-- Subscription -->
<g id="node36" class="node"><title>Subscription</title>
<ellipse fill="none" stroke="black" cx="1926.54" cy="-524" rx="55.4913" ry="18"/>
<text text-anchor="middle" x="1926.54" y="-520.3" font-family="Times,serif" font-size="14.00">Subscription</text>
</g>
<!-- Subscription&#45;&gt;OptionAttribute -->
<g id="edge35" class="edge"><title>Subscription&#45;&gt;OptionAttribute</title>
<path fill="none" stroke="black" d="M1977.27,-516.708C2035.99,-510.687 2134.53,-508.932 2204.71,-551 2229.45,-565.829 2218.1,-587.093 2240.71,-605 2245.62,-608.882 2251.13,-612.246 2256.88,-615.151"/>
<polygon fill="black" stroke="black" points="2255.5,-618.366 2266.04,-619.347 2258.41,-612.001 2255.5,-618.366"/>
</g>
<!-- Price -->
<g id="node37" class="node"><title>Price</title>
<ellipse fill="none" stroke="black" cx="2314.16" cy="-578" rx="28.6953" ry="18"/>
<text text-anchor="middle" x="2314.16" y="-574.3" font-family="Times,serif" font-size="14.00">Price</text>
</g>
<!-- Price&#45;&gt;Attribute -->
<g id="edge36" class="edge"><title>Price&#45;&gt;Attribute</title>
<path fill="none" stroke="black" d="M2340.31,-585.623C2354.56,-590.37 2372.51,-597.077 2387.6,-605 2404.76,-614.007 2422.57,-626.236 2436.76,-636.779"/>
<polygon fill="black" stroke="black" points="2435.01,-639.839 2445.09,-643.082 2439.23,-634.257 2435.01,-639.839"/>
</g>
<!-- DatabaseAsAService -->
<g id="node38" class="node"><title>DatabaseAsAService</title>
<ellipse fill="none" stroke="black" cx="1361.49" cy="-207" rx="85.2851" ry="18"/>
<text text-anchor="middle" x="1361.49" y="-203.3" font-family="Times,serif" font-size="14.00">DatabaseAsAService</text>
</g>
<!-- DatabaseAsAService&#45;&gt;SaaS -->
<g id="edge37" class="edge"><title>DatabaseAsAService&#45;&gt;SaaS</title>
<path fill="none" stroke="black" d="M1446.78,-205.952C1570.89,-204.409 1797.77,-201.588 1887.53,-200.472"/>
<polygon fill="black" stroke="black" points="1887.83,-203.969 1897.78,-200.345 1887.74,-196.97 1887.83,-203.969"/>
</g>
<!-- SQLDatabaseAsAService -->
<g id="node39" class="node"><title>SQLDatabaseAsAService</title>
<ellipse fill="none" stroke="black" cx="810.081" cy="-261" rx="102.082" ry="18"/>
<text text-anchor="middle" x="810.081" y="-257.3" font-family="Times,serif" font-size="14.00">SQLDatabaseAsAService</text>
</g>
<!-- SQLDatabaseAsAService&#45;&gt;DatabaseAsAService -->
<g id="edge38" class="edge"><title>SQLDatabaseAsAService&#45;&gt;DatabaseAsAService</title>
<path fill="none" stroke="black" d="M899.658,-252.294C1002.76,-242.16 1171.9,-225.536 1274.07,-215.494"/>
<polygon fill="black" stroke="black" points="1274.43,-218.975 1284.04,-214.513 1273.75,-212.008 1274.43,-218.975"/>
</g>
<!-- NoSQLDatabaseAsAService -->
<g id="node40" class="node"><title>NoSQLDatabaseAsAService</title>
<ellipse fill="none" stroke="black" cx="810.081" cy="-207" rx="112.38" ry="18"/>
<text text-anchor="middle" x="810.081" y="-203.3" font-family="Times,serif" font-size="14.00">NoSQLDatabaseAsAService</text>
</g>
<!-- NoSQLDatabaseAsAService&#45;&gt;DatabaseAsAService -->
<g id="edge39" class="edge"><title>NoSQLDatabaseAsAService&#45;&gt;DatabaseAsAService</title>
<path fill="none" stroke="black" d="M922.592,-207C1023.52,-207 1170.54,-207 1265.86,-207"/>
<polygon fill="black" stroke="black" points="1266.07,-210.5 1276.07,-207 1266.07,-203.5 1266.07,-210.5"/>
</g>
<!-- github.com/supermuesli/csdl@examples/Requirement1.py@latest -->
<g id="node41" class="node"><title>github.com/supermuesli/csdl@examples/Requirement1.py@latest</title>
<ellipse fill="none" stroke="black" cx="254.777" cy="-72" rx="245.857" ry="18"/>
<text text-anchor="middle" x="254.777" y="-68.3" font-family="Times,serif" font-size="14.00">github.com/supermuesli/csdl@examples/Requirement1.py@latest</text>
</g>
<!-- github.com/supermuesli/csdl@examples/Requirement1.py@latest&#45;&gt;VMAsAService -->
<g id="edge40" class="edge"><title>github.com/supermuesli/csdl@examples/Requirement1.py@latest&#45;&gt;VMAsAService</title>
<path fill="none" stroke="black" d="M459.843,-62.0421C555.247,-57.3865 663.045,-52.1263 733.318,-48.6971"/>
<polygon fill="black" stroke="black" points="733.59,-52.188 743.408,-48.2047 733.249,-45.1964 733.59,-52.188"/>
</g>
<!-- github.com/supermuesli/csdl@misc/StaticIp.py@latest -->
<g id="node42" class="node"><title>github.com/supermuesli/csdl@misc/StaticIp.py@latest</title>
<ellipse fill="none" stroke="black" cx="1926.54" cy="-1334" rx="206.063" ry="18"/>
<text text-anchor="middle" x="1926.54" y="-1330.3" font-family="Times,serif" font-size="14.00">github.com/supermuesli/csdl@misc/StaticIp.py@latest</text>
</g>
<!-- github.com/supermuesli/csdl@misc/StaticIp.py@latest&#45;&gt;NumericAttribute -->
<g id="edge41" class="edge"><title>github.com/supermuesli/csdl@misc/StaticIp.py@latest&#45;&gt;NumericAttribute</title>
<path fill="none" stroke="black" d="M2044.6,-1319.23C2098.18,-1318.6 2159.64,-1327.23 2204.71,-1361 2283.71,-1420.18 2305.29,-1546.33 2311.08,-1602.73"/>
<polygon fill="black" stroke="black" points="2307.6,-1603.1 2312.02,-1612.73 2314.57,-1602.45 2307.6,-1603.1"/>
</g>
<!-- github.com/supermuesli/csdl@misc/countries/USA.py@latest -->
<g id="node43" class="node"><title>github.com/supermuesli/csdl@misc/countries/USA.py@latest</title>
<ellipse fill="none" stroke="black" cx="1361.49" cy="-956" rx="231.259" ry="18"/>
<text text-anchor="middle" x="1361.49" y="-952.3" font-family="Times,serif" font-size="14.00">github.com/supermuesli/csdl@misc/countries/USA.py@latest</text>
</g>
<!-- github.com/supermuesli/csdl@misc/countries/USA.py@latest&#45;&gt;NorthAmerica -->
<g id="edge42" class="edge"><title>github.com/supermuesli/csdl@misc/countries/USA.py@latest&#45;&gt;NorthAmerica</title>
<path fill="none" stroke="black" d="M1593.13,-956C1686.96,-956 1788.6,-956 1854.45,-956"/>
<polygon fill="black" stroke="black" points="1854.7,-959.5 1864.7,-956 1854.7,-952.5 1854.7,-959.5"/>
</g>
<!-- github.com/supermuesli/csdl@aws/ec2/EC2.py@latest -->
<g id="node44" class="node"><title>github.com/supermuesli/csdl@aws/ec2/EC2.py@latest</title>
<ellipse fill="none" stroke="black" cx="254.777" cy="-18" rx="206.063" ry="18"/>
<text text-anchor="middle" x="254.777" y="-14.3" font-family="Times,serif" font-size="14.00">github.com/supermuesli/csdl@aws/ec2/EC2.py@latest</text>
</g>
<!-- github.com/supermuesli/csdl@aws/ec2/EC2.py@latest&#45;&gt;VMAsAService -->
<g id="edge43" class="edge"><title>github.com/supermuesli/csdl@aws/ec2/EC2.py@latest&#45;&gt;VMAsAService</title>
<path fill="none" stroke="black" d="M435.037,-26.7475C536.083,-31.6783 656.998,-37.5787 733.434,-41.3086"/>
<polygon fill="black" stroke="black" points="733.296,-44.8059 743.455,-41.7976 733.637,-37.8142 733.296,-44.8059"/>
</g>
<!-- github.com/supermuesli/csdl@aws/regions/Region.py@latest -->
<g id="node45" class="node"><title>github.com/supermuesli/csdl@aws/regions/Region.py@latest</title>
<ellipse fill="none" stroke="black" cx="1361.49" cy="-1280" rx="229.359" ry="18"/>
<text text-anchor="middle" x="1361.49" y="-1276.3" font-family="Times,serif" font-size="14.00">github.com/supermuesli/csdl@aws/regions/Region.py@latest</text>
</g>
<!-- github.com/supermuesli/csdl@aws/regions/Region.py@latest&#45;&gt;Region -->
<g id="edge44" class="edge"><title>github.com/supermuesli/csdl@aws/regions/Region.py@latest&#45;&gt;Region</title>
<path fill="none" stroke="black" d="M1591.09,-1280C1698.51,-1280 1816.6,-1280 1879.71,-1280"/>
<polygon fill="black" stroke="black" points="1880.1,-1283.5 1890.1,-1280 1880.1,-1276.5 1880.1,-1283.5"/>
</g>
<!-- github.com/supermuesli/csdl@aws/regions/California.py@latest -->
<g id="node46" class="node"><title>github.com/supermuesli/csdl@aws/regions/California.py@latest</title>
<ellipse fill="none" stroke="black" cx="810.081" cy="-1010" rx="239.358" ry="18"/>
<text text-anchor="middle" x="810.081" y="-1006.3" font-family="Times,serif" font-size="14.00">github.com/supermuesli/csdl@aws/regions/California.py@latest</text>
</g>
<!-- github.com/supermuesli/csdl@aws/regions/California.py@latest&#45;&gt;github.com/supermuesli/csdl@misc/countries/USA.py@latest -->
<g id="edge45" class="edge"><title>github.com/supermuesli/csdl@aws/regions/California.py@latest&#45;&gt;github.com/supermuesli/csdl@misc/countries/USA.py@latest</title>
<path fill="none" stroke="black" d="M956.149,-995.742C1033.44,-988.145 1128.48,-978.803 1207,-971.085"/>
<polygon fill="black" stroke="black" points="1207.38,-974.566 1216.99,-970.104 1206.69,-967.599 1207.38,-974.566"/>
</g>
<!-- github.com/supermuesli/csdl@aws/regions/NorthernVirginia.py@latest -->
<g id="node47" class="node"><title>github.com/supermuesli/csdl@aws/regions/NorthernVirginia.py@latest</title>
<ellipse fill="none" stroke="black" cx="810.081" cy="-956" rx="264.553" ry="18"/>
<text text-anchor="middle" x="810.081" y="-952.3" font-family="Times,serif" font-size="14.00">github.com/supermuesli/csdl@aws/regions/NorthernVirginia.py@latest</text>
</g>
<!-- github.com/supermuesli/csdl@aws/regions/NorthernVirginia.py@latest&#45;&gt;github.com/supermuesli/csdl@misc/countries/USA.py@latest -->
<g id="edge46" class="edge"><title>github.com/supermuesli/csdl@aws/regions/NorthernVirginia.py@latest&#45;&gt;github.com/supermuesli/csdl@misc/countries/USA.py@latest</title>
<path fill="none" stroke="black" d="M1074.92,-956C1089.9,-956 1104.92,-956 1119.81,-956"/>
<polygon fill="black" stroke="black" points="1120.09,-959.5 1130.09,-956 1120.09,-952.5 1120.09,-959.5"/>
</g>
<!-- github.com/supermuesli/csdl@aws/regions/NewYork.py@latest -->
<g id="node48" class="node"><title>github.com/supermuesli/csdl@aws/regions/NewYork.py@latest</title>
<ellipse fill="none" stroke="black" cx="810.081" cy="-902" rx="238.558" ry="18"/>
<text text-anchor="middle" x="810.081" y="-898.3" font-family="Times,serif" font-size="14.00">github.com/supermuesli/csdl@aws/regions/NewYork.py@latest</text>
</g>
<!-- github.com/supermuesli/csdl@aws/regions/NewYork.py@latest&#45;&gt;github.com/supermuesli/csdl@misc/countries/USA.py@latest -->
<g id="edge47" class="edge"><title>github.com/supermuesli/csdl@aws/regions/NewYork.py@latest&#45;&gt;github.com/supermuesli/csdl@misc/countries/USA.py@latest</title>
<path fill="none" stroke="black" d="M956.149,-916.258C1033.44,-923.855 1128.48,-933.197 1207,-940.915"/>
<polygon fill="black" stroke="black" points="1206.69,-944.401 1216.99,-941.896 1207.38,-937.434 1206.69,-944.401"/>
</g>
<!-- github.com/supermuesli/csdl@aws/ec2/MachineType.py@latest -->
<g id="node49" class="node"><title>github.com/supermuesli/csdl@aws/ec2/MachineType.py@latest</title>
<ellipse fill="none" stroke="black" cx="1926.54" cy="-1118" rx="239.358" ry="18"/>
<text text-anchor="middle" x="1926.54" y="-1114.3" font-family="Times,serif" font-size="14.00">github.com/supermuesli/csdl@aws/ec2/MachineType.py@latest</text>
</g>
<!-- github.com/supermuesli/csdl@aws/ec2/MachineType.py@latest&#45;&gt;ChoiceAttribute -->
<g id="edge48" class="edge"><title>github.com/supermuesli/csdl@aws/ec2/MachineType.py@latest&#45;&gt;ChoiceAttribute</title>
<path fill="none" stroke="black" d="M2165.72,-1118C2190.95,-1118 2215.09,-1118 2236.26,-1118"/>
<polygon fill="black" stroke="black" points="2236.4,-1121.5 2246.4,-1118 2236.4,-1114.5 2236.4,-1121.5"/>
</g>
<!-- github.com/supermuesli/csdl@aws/ec2/A1Large.py@latest -->
<g id="node50" class="node"><title>github.com/supermuesli/csdl@aws/ec2/A1Large.py@latest</title>
<ellipse fill="none" stroke="black" cx="1926.54" cy="-470" rx="221.761" ry="18"/>
<text text-anchor="middle" x="1926.54" y="-466.3" font-family="Times,serif" font-size="14.00">github.com/supermuesli/csdl@aws/ec2/A1Large.py@latest</text>
</g>
<!-- github.com/supermuesli/csdl@aws/ec2/A1Large.py@latest&#45;&gt;OptionAttribute -->
<g id="edge49" class="edge"><title>github.com/supermuesli/csdl@aws/ec2/A1Large.py@latest&#45;&gt;OptionAttribute</title>
<path fill="none" stroke="black" d="M2035.57,-454.31C2091.61,-452.154 2157.93,-459.702 2204.71,-497 2244.28,-528.541 2205.57,-568.602 2240.71,-605 2244.62,-609.043 2249.18,-612.486 2254.09,-615.417"/>
<polygon fill="black" stroke="black" points="2252.73,-618.655 2263.22,-620.158 2255.96,-612.443 2252.73,-618.655"/>
</g>
<!-- github.com/supermuesli/csdl@aws/EBS.py@latest -->
<g id="node51" class="node"><title>github.com/supermuesli/csdl@aws/EBS.py@latest</title>
<ellipse fill="none" stroke="black" cx="810.081" cy="-153" rx="191.966" ry="18"/>
<text text-anchor="middle" x="810.081" y="-149.3" font-family="Times,serif" font-size="14.00">github.com/supermuesli/csdl@aws/EBS.py@latest</text>
</g>
<!-- github.com/supermuesli/csdl@aws/EBS.py@latest&#45;&gt;StorageAsAService -->
<g id="edge50" class="edge"><title>github.com/supermuesli/csdl@aws/EBS.py@latest&#45;&gt;StorageAsAService</title>
<path fill="none" stroke="black" d="M995.553,-148.299C1088.59,-145.928 1197.17,-143.162 1271.55,-141.266"/>
<polygon fill="black" stroke="black" points="1271.91,-144.758 1281.82,-141.005 1271.73,-137.761 1271.91,-144.758"/>
</g>
<!-- github.com/supermuesli/csdl@aws/ec2/ElasticIpAmount.py@latest -->
<g id="node52" class="node"><title>github.com/supermuesli/csdl@aws/ec2/ElasticIpAmount.py@latest</title>
<ellipse fill="none" stroke="black" cx="1361.49" cy="-1334" rx="250.756" ry="18"/>
<text text-anchor="middle" x="1361.49" y="-1330.3" font-family="Times,serif" font-size="14.00">github.com/supermuesli/csdl@aws/ec2/ElasticIpAmount.py@latest</text>
</g>
<!-- github.com/supermuesli/csdl@aws/ec2/ElasticIpAmount.py@latest&#45;&gt;github.com/supermuesli/csdl@misc/StaticIp.py@latest -->
<g id="edge51" class="edge"><title>github.com/supermuesli/csdl@aws/ec2/ElasticIpAmount.py@latest&#45;&gt;github.com/supermuesli/csdl@misc/StaticIp.py@latest</title>
<path fill="none" stroke="black" d="M1612.73,-1334C1645.19,-1334 1678.22,-1334 1710.05,-1334"/>
<polygon fill="black" stroke="black" points="1710.35,-1337.5 1720.35,-1334 1710.35,-1330.5 1710.35,-1337.5"/>
</g>
<!-- github.com/supermuesli/csdl@aws/s3/S3.py@latest -->
<g id="node53" class="node"><title>github.com/supermuesli/csdl@aws/s3/S3.py@latest</title>
<ellipse fill="none" stroke="black" cx="810.081" cy="-99" rx="194.965" ry="18"/>
<text text-anchor="middle" x="810.081" y="-95.3" font-family="Times,serif" font-size="14.00">github.com/supermuesli/csdl@aws/s3/S3.py@latest</text>
</g>
<!-- github.com/supermuesli/csdl@aws/s3/S3.py@latest&#45;&gt;StorageAsAService -->
<g id="edge52" class="edge"><title>github.com/supermuesli/csdl@aws/s3/S3.py@latest&#45;&gt;StorageAsAService</title>
<path fill="none" stroke="black" d="M963.756,-110.116C1064.2,-117.428 1191.95,-126.73 1274.94,-132.772"/>
<polygon fill="black" stroke="black" points="1274.85,-136.275 1285.08,-133.51 1275.36,-129.293 1274.85,-136.275"/>
</g>
<!-- github.com/supermuesli/csdl@aws/s3/S3Type.py@latest -->
<g id="node54" class="node"><title>github.com/supermuesli/csdl@aws/s3/S3Type.py@latest</title>
<ellipse fill="none" stroke="black" cx="1926.54" cy="-1064" rx="213.362" ry="18"/>
<text text-anchor="middle" x="1926.54" y="-1060.3" font-family="Times,serif" font-size="14.00">github.com/supermuesli/csdl@aws/s3/S3Type.py@latest</text>
</g>
<!-- github.com/supermuesli/csdl@aws/s3/S3Type.py@latest&#45;&gt;ChoiceAttribute -->
<g id="edge53" class="edge"><title>github.com/supermuesli/csdl@aws/s3/S3Type.py@latest&#45;&gt;ChoiceAttribute</title>
<path fill="none" stroke="black" d="M2088.93,-1075.69C2127.04,-1079.56 2167.43,-1084.58 2204.71,-1091 2222.06,-1093.99 2240.72,-1098.25 2257.6,-1102.5"/>
<polygon fill="black" stroke="black" points="2256.75,-1105.9 2267.3,-1105 2258.49,-1099.12 2256.75,-1105.9"/>
</g>
<!-- github.com/supermuesli/csdl@aws/s3/Standard.py@latest -->
<g id="node55" class="node"><title>github.com/supermuesli/csdl@aws/s3/Standard.py@latest</title>
<ellipse fill="none" stroke="black" cx="1926.54" cy="-416" rx="217.162" ry="18"/>
<text text-anchor="middle" x="1926.54" y="-412.3" font-family="Times,serif" font-size="14.00">github.com/supermuesli/csdl@aws/s3/Standard.py@latest</text>
</g>
<!-- github.com/supermuesli/csdl@aws/s3/Standard.py@latest&#45;&gt;OptionAttribute -->
<g id="edge54" class="edge"><title>github.com/supermuesli/csdl@aws/s3/Standard.py@latest&#45;&gt;OptionAttribute</title>
<path fill="none" stroke="black" d="M2018.73,-399.674C2078.67,-394.416 2154.94,-398.934 2204.71,-443 2259.94,-491.889 2192.28,-549.373 2240.71,-605 2244.35,-609.176 2248.69,-612.707 2253.43,-615.693"/>
<polygon fill="black" stroke="black" points="2251.83,-618.809 2262.29,-620.499 2255.17,-612.655 2251.83,-618.809"/>
</g>
<!-- github.com/supermuesli/csdl@aws/s3/StandardInfreqAccess.py@latest -->
<g id="node56" class="node"><title>github.com/supermuesli/csdl@aws/s3/StandardInfreqAccess.py@latest</title>
<ellipse fill="none" stroke="black" cx="1926.54" cy="-362" rx="263.453" ry="18"/>
<text text-anchor="middle" x="1926.54" y="-358.3" font-family="Times,serif" font-size="14.00">github.com/supermuesli/csdl@aws/s3/StandardInfreqAccess.py@latest</text>
</g>
<!-- github.com/supermuesli/csdl@aws/s3/StandardInfreqAccess.py@latest&#45;&gt;OptionAttribute -->
<g id="edge55" class="edge"><title>github.com/supermuesli/csdl@aws/s3/StandardInfreqAccess.py@latest&#45;&gt;OptionAttribute</title>
<path fill="none" stroke="black" d="M2016.88,-345.08C2077.55,-339.077 2155.43,-342.958 2204.71,-389 2275.83,-455.438 2178.79,-529.914 2240.71,-605 2244.1,-609.102 2248.17,-612.58 2252.63,-615.531"/>
<polygon fill="black" stroke="black" points="2251.19,-618.736 2261.62,-620.578 2254.62,-612.632 2251.19,-618.736"/>
</g>
<!-- github.com/supermuesli/csdl@aws/rdsPostgres/Postgresql.py@latest -->
<g id="node57" class="node"><title>github.com/supermuesli/csdl@aws/rdsPostgres/Postgresql.py@latest</title>
<ellipse fill="none" stroke="black" cx="254.777" cy="-261" rx="254.555" ry="18"/>
<text text-anchor="middle" x="254.777" y="-257.3" font-family="Times,serif" font-size="14.00">github.com/supermuesli/csdl@aws/rdsPostgres/Postgresql.py@latest</text>
</g>
<!-- github.com/supermuesli/csdl@aws/rdsPostgres/Postgresql.py@latest&#45;&gt;SQLDatabaseAsAService -->
<g id="edge56" class="edge"><title>github.com/supermuesli/csdl@aws/rdsPostgres/Postgresql.py@latest&#45;&gt;SQLDatabaseAsAService</title>
<path fill="none" stroke="black" d="M509.758,-261C575.68,-261 643.33,-261 697.601,-261"/>
<polygon fill="black" stroke="black" points="697.924,-264.5 707.924,-261 697.924,-257.5 697.924,-264.5"/>
</g>
<!-- github.com/supermuesli/csdl@aws/rdsPostgres/AvailabilityZone.py@latest -->
<g id="node58" class="node"><title>github.com/supermuesli/csdl@aws/rdsPostgres/AvailabilityZone.py@latest</title>
<ellipse fill="none" stroke="black" cx="1926.54" cy="-1010" rx="278.351" ry="18"/>
<text text-anchor="middle" x="1926.54" y="-1006.3" font-family="Times,serif" font-size="14.00">github.com/supermuesli/csdl@aws/rdsPostgres/AvailabilityZone.py@latest</text>
</g>
<!-- github.com/supermuesli/csdl@aws/rdsPostgres/AvailabilityZone.py@latest&#45;&gt;ChoiceAttribute -->
<g id="edge57" class="edge"><title>github.com/supermuesli/csdl@aws/rdsPostgres/AvailabilityZone.py@latest&#45;&gt;ChoiceAttribute</title>
<path fill="none" stroke="black" d="M2150.2,-1020.8C2168.95,-1024.97 2187.35,-1030.28 2204.71,-1037 2237.17,-1049.56 2268.36,-1074.69 2288.89,-1093.65"/>
<polygon fill="black" stroke="black" points="2286.55,-1096.25 2296.22,-1100.57 2291.36,-1091.16 2286.55,-1096.25"/>
</g>
<!-- github.com/supermuesli/csdl@aws/rdsPostgres/SingleAZ.py@latest -->
<g id="node59" class="node"><title>github.com/supermuesli/csdl@aws/rdsPostgres/SingleAZ.py@latest</title>
<ellipse fill="none" stroke="black" cx="1926.54" cy="-308" rx="252.655" ry="18"/>
<text text-anchor="middle" x="1926.54" y="-304.3" font-family="Times,serif" font-size="14.00">github.com/supermuesli/csdl@aws/rdsPostgres/SingleAZ.py@latest</text>
</g>
<!-- github.com/supermuesli/csdl@aws/rdsPostgres/SingleAZ.py@latest&#45;&gt;OptionAttribute -->
<g id="edge58" class="edge"><title>github.com/supermuesli/csdl@aws/rdsPostgres/SingleAZ.py@latest&#45;&gt;OptionAttribute</title>
<path fill="none" stroke="black" d="M2012.8,-291.073C2074.31,-284.188 2154.97,-286.986 2204.71,-335 2291.82,-419.073 2165.22,-510.357 2240.71,-605 2244.03,-609.156 2248.05,-612.673 2252.49,-615.648"/>
<polygon fill="black" stroke="black" points="2251.01,-618.837 2261.44,-620.728 2254.47,-612.748 2251.01,-618.837"/>
</g>
<!-- github.com/supermuesli/csdl@aws/rdsPostgres/MultiAZ.py@latest -->
<g id="node60" class="node"><title>github.com/supermuesli/csdl@aws/rdsPostgres/MultiAZ.py@latest</title>
<ellipse fill="none" stroke="black" cx="1926.54" cy="-254" rx="250.456" ry="18"/>
<text text-anchor="middle" x="1926.54" y="-250.3" font-family="Times,serif" font-size="14.00">github.com/supermuesli/csdl@aws/rdsPostgres/MultiAZ.py@latest</text>
</g>
<!-- github.com/supermuesli/csdl@aws/rdsPostgres/MultiAZ.py@latest&#45;&gt;OptionAttribute -->
<g id="edge59" class="edge"><title>github.com/supermuesli/csdl@aws/rdsPostgres/MultiAZ.py@latest&#45;&gt;OptionAttribute</title>
<path fill="none" stroke="black" d="M2010.85,-237.019C2072.8,-229.65 2154.89,-231.85 2204.71,-281 2256.28,-331.877 2196.16,-547.875 2240.71,-605 2243.98,-609.192 2247.98,-612.734 2252.39,-615.725"/>
<polygon fill="black" stroke="black" points="2250.89,-618.903 2261.31,-620.827 2254.37,-612.825 2250.89,-618.903"/>
</g>
</g>
</svg>
