<?xml version="1.0" encoding="UTF-8" standalone="no"?>
<!DOCTYPE svg PUBLIC "-//W3C//DTD SVG 1.1//EN"
 "http://www.w3.org/Graphics/SVG/1.1/DTD/svg11.dtd">
<!-- Generated by graphviz version 2.38.0 (20140413.2041)
 -->
<!-- Title: %3 Pages: 1 -->
<svg width="2430pt" height="1610pt"
 viewBox="0.00 0.00 2429.90 1610.00" xmlns="http://www.w3.org/2000/svg" xmlns:xlink="http://www.w3.org/1999/xlink">
<g id="graph0" class="graph" transform="scale(1 1) rotate(0) translate(4 1606)">
<title>%3</title>
<polygon fill="white" stroke="none" points="-4,4 -4,-1606 2425.9,-1606 2425.9,4 -4,4"/>
<!-- VMAsAService -->
<g id="node1" class="node"><title>VMAsAService</title>
<ellipse fill="none" stroke="black" cx="775.634" cy="-18" rx="67.6881" ry="18"/>
<text text-anchor="middle" x="775.634" y="-14.3" font-family="Times,serif" font-size="14.00">VMAsAService</text>
</g>
<!-- ServerAsAService -->
<g id="node2" class="node"><title>ServerAsAService</title>
<ellipse fill="none" stroke="black" cx="1291.29" cy="-18" rx="76.0865" ry="18"/>
<text text-anchor="middle" x="1291.29" y="-14.3" font-family="Times,serif" font-size="14.00">ServerAsAService</text>
</g>
<!-- VMAsAService&#45;&gt;ServerAsAService -->
<g id="edge1" class="edge"><title>VMAsAService&#45;&gt;ServerAsAService</title>
<path fill="none" stroke="black" d="M843.26,-18C935.769,-18 1103.18,-18 1204.8,-18"/>
<polygon fill="black" stroke="black" points="1205.03,-21.5001 1215.03,-18 1205.03,-14.5001 1205.03,-21.5001"/>
</g>
<!-- IaaS -->
<g id="node3" class="node"><title>IaaS</title>
<ellipse fill="none" stroke="black" cx="1788.1" cy="-72" rx="27" ry="18"/>
<text text-anchor="middle" x="1788.1" y="-68.3" font-family="Times,serif" font-size="14.00">IaaS</text>
</g>
<!-- ServerAsAService&#45;&gt;IaaS -->
<g id="edge2" class="edge"><title>ServerAsAService&#45;&gt;IaaS</title>
<path fill="none" stroke="black" d="M1360.57,-25.4518C1467.12,-37.0794 1669.19,-59.1324 1751.18,-68.0804"/>
<polygon fill="black" stroke="black" points="1750.94,-71.5739 1761.26,-69.1795 1751.7,-64.6152 1750.94,-71.5739"/>
</g>
<!-- CCS -->
<g id="node5" class="node"><title>CCS</title>
<ellipse fill="none" stroke="black" cx="2126.97" cy="-126" rx="27.0966" ry="18"/>
<text text-anchor="middle" x="2126.97" y="-122.3" font-family="Times,serif" font-size="14.00">CCS</text>
</g>
<!-- IaaS&#45;&gt;CCS -->
<g id="edge4" class="edge"><title>IaaS&#45;&gt;CCS</title>
<path fill="none" stroke="black" d="M1814.95,-73.984C1857.46,-77.4854 1944.66,-85.6771 2017.53,-99 2042.62,-103.588 2070.55,-110.586 2091.78,-116.307"/>
<polygon fill="black" stroke="black" points="2091.05,-119.737 2101.62,-118.998 2092.89,-112.984 2091.05,-119.737"/>
</g>
<!-- SaaS -->
<g id="node4" class="node"><title>SaaS</title>
<ellipse fill="none" stroke="black" cx="1788.1" cy="-126" rx="28.6953" ry="18"/>
<text text-anchor="middle" x="1788.1" y="-122.3" font-family="Times,serif" font-size="14.00">SaaS</text>
</g>
<!-- SaaS&#45;&gt;CCS -->
<g id="edge3" class="edge"><title>SaaS&#45;&gt;CCS</title>
<path fill="none" stroke="black" d="M1816.96,-126C1877.56,-126 2021.37,-126 2089.27,-126"/>
<polygon fill="black" stroke="black" points="2089.49,-129.5 2099.49,-126 2089.49,-122.5 2089.49,-129.5"/>
</g>
<!-- Attribute -->
<g id="node8" class="node"><title>Attribute</title>
<ellipse fill="none" stroke="black" cx="2278.66" cy="-477" rx="42.4939" ry="18"/>
<text text-anchor="middle" x="2278.66" y="-473.3" font-family="Times,serif" font-size="14.00">Attribute</text>
</g>
<!-- CCS&#45;&gt;Attribute -->
<g id="edge10" class="edge"><title>CCS&#45;&gt;Attribute</title>
<path fill="none" stroke="black" d="M2135.4,-143.406C2159.63,-200.231 2236.56,-380.62 2266.03,-449.712"/>
<polygon fill="black" stroke="black" points="2262.88,-451.245 2270.02,-459.071 2269.31,-448.499 2262.88,-451.245"/>
</g>
<!-- StorageAsAService -->
<g id="node6" class="node"><title>StorageAsAService</title>
<ellipse fill="none" stroke="black" cx="1291.29" cy="-72" rx="79.8859" ry="18"/>
<text text-anchor="middle" x="1291.29" y="-68.3" font-family="Times,serif" font-size="14.00">StorageAsAService</text>
</g>
<!-- StorageAsAService&#45;&gt;IaaS -->
<g id="edge5" class="edge"><title>StorageAsAService&#45;&gt;IaaS</title>
<path fill="none" stroke="black" d="M1371.24,-72C1480,-72 1671.47,-72 1750.94,-72"/>
<polygon fill="black" stroke="black" points="1750.95,-75.5001 1760.95,-72 1750.95,-68.5001 1750.95,-75.5001"/>
</g>
<!-- NumericAttribute -->
<g id="node7" class="node"><title>NumericAttribute</title>
<ellipse fill="none" stroke="black" cx="2126.97" cy="-1233" rx="73.387" ry="18"/>
<text text-anchor="middle" x="2126.97" y="-1229.3" font-family="Times,serif" font-size="14.00">NumericAttribute</text>
</g>
<!-- NumericAttribute&#45;&gt;Attribute -->
<g id="edge6" class="edge"><title>NumericAttribute&#45;&gt;Attribute</title>
<path fill="none" stroke="black" d="M2131.6,-1214.69C2151.54,-1114 2247.79,-627.859 2272.09,-505.167"/>
<polygon fill="black" stroke="black" points="2275.58,-505.562 2274.09,-495.072 2268.71,-504.202 2275.58,-505.562"/>
</g>
<!-- object -->
<g id="node12" class="node"><title>object</title>
<ellipse fill="none" stroke="black" cx="2389.41" cy="-477" rx="32.4942" ry="18"/>
<text text-anchor="middle" x="2389.41" y="-473.3" font-family="Times,serif" font-size="14.00">object</text>
</g>
<!-- Attribute&#45;&gt;object -->
<g id="edge11" class="edge"><title>Attribute&#45;&gt;object</title>
<path fill="none" stroke="black" d="M2321.09,-477C2329.36,-477 2338.05,-477 2346.35,-477"/>
<polygon fill="black" stroke="black" points="2346.57,-480.5 2356.57,-477 2346.57,-473.5 2346.57,-480.5"/>
</g>
<!-- ChoiceAttribute -->
<g id="node9" class="node"><title>ChoiceAttribute</title>
<ellipse fill="none" stroke="black" cx="2126.97" cy="-774" rx="67.6881" ry="18"/>
<text text-anchor="middle" x="2126.97" y="-770.3" font-family="Times,serif" font-size="14.00">ChoiceAttribute</text>
</g>
<!-- ChoiceAttribute&#45;&gt;Attribute -->
<g id="edge7" class="edge"><title>ChoiceAttribute&#45;&gt;Attribute</title>
<path fill="none" stroke="black" d="M2137.11,-755.868C2162.55,-705.404 2234.25,-563.128 2264.23,-503.653"/>
<polygon fill="black" stroke="black" points="2267.46,-505.026 2268.83,-494.52 2261.21,-501.875 2267.46,-505.026"/>
</g>
<!-- BoolAttribute -->
<g id="node10" class="node"><title>BoolAttribute</title>
<ellipse fill="none" stroke="black" cx="2126.97" cy="-504" rx="59.5901" ry="18"/>
<text text-anchor="middle" x="2126.97" y="-500.3" font-family="Times,serif" font-size="14.00">BoolAttribute</text>
</g>
<!-- BoolAttribute&#45;&gt;Attribute -->
<g id="edge8" class="edge"><title>BoolAttribute&#45;&gt;Attribute</title>
<path fill="none" stroke="black" d="M2178.65,-494.859C2194.93,-491.922 2212.92,-488.678 2229.05,-485.768"/>
<polygon fill="black" stroke="black" points="2230.13,-489.131 2239.35,-483.912 2228.88,-482.242 2230.13,-489.131"/>
</g>
<!-- OptionAttribute -->
<g id="node11" class="node"><title>OptionAttribute</title>
<ellipse fill="none" stroke="black" cx="2126.97" cy="-450" rx="66.8882" ry="18"/>
<text text-anchor="middle" x="2126.97" y="-446.3" font-family="Times,serif" font-size="14.00">OptionAttribute</text>
</g>
<!-- OptionAttribute&#45;&gt;Attribute -->
<g id="edge9" class="edge"><title>OptionAttribute&#45;&gt;Attribute</title>
<path fill="none" stroke="black" d="M2183.29,-459.977C2198.45,-462.711 2214.75,-465.652 2229.48,-468.308"/>
<polygon fill="black" stroke="black" points="2228.92,-471.764 2239.38,-470.095 2230.16,-464.875 2228.92,-471.764"/>
</g>
<!-- Region -->
<g id="node13" class="node"><title>Region</title>
<ellipse fill="none" stroke="black" cx="1788.1" cy="-882" rx="36.2938" ry="18"/>
<text text-anchor="middle" x="1788.1" y="-878.3" font-family="Times,serif" font-size="14.00">Region</text>
</g>
<!-- Region&#45;&gt;ChoiceAttribute -->
<g id="edge12" class="edge"><title>Region&#45;&gt;ChoiceAttribute</title>
<path fill="none" stroke="black" d="M1824.53,-883.389C1870.66,-883.968 1952.99,-880.747 2017.53,-855 2049.66,-842.183 2080.69,-817.326 2101.27,-798.512"/>
<polygon fill="black" stroke="black" points="2103.71,-801.022 2108.62,-791.635 2098.93,-795.909 2103.71,-801.022"/>
</g>
<!-- NorthAmerica -->
<g id="node14" class="node"><title>NorthAmerica</title>
<ellipse fill="none" stroke="black" cx="1788.1" cy="-666" rx="61.99" ry="18"/>
<text text-anchor="middle" x="1788.1" y="-662.3" font-family="Times,serif" font-size="14.00">NorthAmerica</text>
</g>
<!-- NorthAmerica&#45;&gt;OptionAttribute -->
<g id="edge13" class="edge"><title>NorthAmerica&#45;&gt;OptionAttribute</title>
<path fill="none" stroke="black" d="M1840.9,-675.473C1892.26,-681.677 1969.98,-681.975 2017.53,-639 2072.25,-589.546 2005.1,-532.627 2053.53,-477 2057.17,-472.824 2061.51,-469.293 2066.24,-466.307"/>
<polygon fill="black" stroke="black" points="2067.98,-469.345 2075.11,-461.501 2064.65,-463.191 2067.98,-469.345"/>
</g>
<!-- Australia -->
<g id="node15" class="node"><title>Australia</title>
<ellipse fill="none" stroke="black" cx="1788.1" cy="-612" rx="42.7926" ry="18"/>
<text text-anchor="middle" x="1788.1" y="-608.3" font-family="Times,serif" font-size="14.00">Australia</text>
</g>
<!-- Australia&#45;&gt;OptionAttribute -->
<g id="edge14" class="edge"><title>Australia&#45;&gt;OptionAttribute</title>
<path fill="none" stroke="black" d="M1827.81,-618.968C1877.48,-625.579 1963.65,-628.872 2017.53,-585 2056.77,-553.054 2018.39,-513.398 2053.53,-477 2057.43,-472.957 2062,-469.514 2066.91,-466.583"/>
<polygon fill="black" stroke="black" points="2068.77,-469.557 2076.03,-461.842 2065.55,-463.345 2068.77,-469.557"/>
</g>
<!-- Africa -->
<g id="node16" class="node"><title>Africa</title>
<ellipse fill="none" stroke="black" cx="1788.1" cy="-558" rx="33.2948" ry="18"/>
<text text-anchor="middle" x="1788.1" y="-554.3" font-family="Times,serif" font-size="14.00">Africa</text>
</g>
<!-- Africa&#45;&gt;OptionAttribute -->
<g id="edge15" class="edge"><title>Africa&#45;&gt;OptionAttribute</title>
<path fill="none" stroke="black" d="M1820.57,-562.137C1867.24,-566.642 1955.92,-568.794 2017.53,-531 2042.12,-515.918 2030.92,-494.907 2053.53,-477 2058.43,-473.118 2063.95,-469.754 2069.7,-466.849"/>
<polygon fill="black" stroke="black" points="2071.23,-469.999 2078.86,-462.653 2068.31,-463.634 2071.23,-469.999"/>
</g>
<!-- EastAsia -->
<g id="node17" class="node"><title>EastAsia</title>
<ellipse fill="none" stroke="black" cx="1788.1" cy="-504" rx="42.4939" ry="18"/>
<text text-anchor="middle" x="1788.1" y="-500.3" font-family="Times,serif" font-size="14.00">EastAsia</text>
</g>
<!-- EastAsia&#45;&gt;OptionAttribute -->
<g id="edge16" class="edge"><title>EastAsia&#45;&gt;OptionAttribute</title>
<path fill="none" stroke="black" d="M1829.77,-500.756C1875.63,-496.736 1952.32,-488.922 2017.53,-477 2034.6,-473.879 2052.98,-469.643 2069.67,-465.453"/>
<polygon fill="black" stroke="black" points="2070.99,-468.727 2079.82,-462.86 2069.26,-461.945 2070.99,-468.727"/>
</g>
<!-- SouthAmerica -->
<g id="node18" class="node"><title>SouthAmerica</title>
<ellipse fill="none" stroke="black" cx="1788.1" cy="-450" rx="61.99" ry="18"/>
<text text-anchor="middle" x="1788.1" y="-446.3" font-family="Times,serif" font-size="14.00">SouthAmerica</text>
</g>
<!-- SouthAmerica&#45;&gt;OptionAttribute -->
<g id="edge17" class="edge"><title>SouthAmerica&#45;&gt;OptionAttribute</title>
<path fill="none" stroke="black" d="M1850.11,-450C1906.12,-450 1989.33,-450 2049.71,-450"/>
<polygon fill="black" stroke="black" points="2049.95,-453.5 2059.95,-450 2049.95,-446.5 2049.95,-453.5"/>
</g>
<!-- Europe -->
<g id="node19" class="node"><title>Europe</title>
<ellipse fill="none" stroke="black" cx="1788.1" cy="-396" rx="36.2938" ry="18"/>
<text text-anchor="middle" x="1788.1" y="-392.3" font-family="Times,serif" font-size="14.00">Europe</text>
</g>
<!-- Europe&#45;&gt;OptionAttribute -->
<g id="edge18" class="edge"><title>Europe&#45;&gt;OptionAttribute</title>
<path fill="none" stroke="black" d="M1824.14,-398.756C1869.14,-402.613 1949.57,-410.575 2017.53,-423 2034.6,-426.121 2052.98,-430.357 2069.67,-434.547"/>
<polygon fill="black" stroke="black" points="2069.26,-438.055 2079.82,-437.14 2070.99,-431.273 2069.26,-438.055"/>
</g>
<!-- Antarctica -->
<g id="node20" class="node"><title>Antarctica</title>
<ellipse fill="none" stroke="black" cx="1788.1" cy="-342" rx="47.3916" ry="18"/>
<text text-anchor="middle" x="1788.1" y="-338.3" font-family="Times,serif" font-size="14.00">Antarctica</text>
</g>
<!-- Antarctica&#45;&gt;OptionAttribute -->
<g id="edge19" class="edge"><title>Antarctica&#45;&gt;OptionAttribute</title>
<path fill="none" stroke="black" d="M1833.88,-336.749C1882.71,-333.29 1961.36,-334.547 2017.53,-369 2042.12,-384.082 2030.92,-405.093 2053.53,-423 2058.43,-426.882 2063.95,-430.246 2069.7,-433.151"/>
<polygon fill="black" stroke="black" points="2068.31,-436.366 2078.86,-437.347 2071.23,-430.001 2068.31,-436.366"/>
</g>
<!-- Storage -->
<g id="node21" class="node"><title>Storage</title>
<ellipse fill="none" stroke="black" cx="1788.1" cy="-1584" rx="37.8943" ry="18"/>
<text text-anchor="middle" x="1788.1" y="-1580.3" font-family="Times,serif" font-size="14.00">Storage</text>
</g>
<!-- Storage&#45;&gt;NumericAttribute -->
<g id="edge20" class="edge"><title>Storage&#45;&gt;NumericAttribute</title>
<path fill="none" stroke="black" d="M1823.61,-1590.38C1872.49,-1597.33 1962.07,-1602.1 2017.53,-1557 2109.76,-1482 2124.05,-1325.87 2125.9,-1261.59"/>
<polygon fill="black" stroke="black" points="2129.4,-1261.46 2126.11,-1251.39 2122.41,-1261.32 2129.4,-1261.46"/>
</g>
<!-- StorageWriteSpeed -->
<g id="node22" class="node"><title>StorageWriteSpeed</title>
<ellipse fill="none" stroke="black" cx="1788.1" cy="-1530" rx="79.0865" ry="18"/>
<text text-anchor="middle" x="1788.1" y="-1526.3" font-family="Times,serif" font-size="14.00">StorageWriteSpeed</text>
</g>
<!-- StorageWriteSpeed&#45;&gt;NumericAttribute -->
<g id="edge21" class="edge"><title>StorageWriteSpeed&#45;&gt;NumericAttribute</title>
<path fill="none" stroke="black" d="M1856.57,-1539.13C1905.99,-1542.08 1972.1,-1537.77 2017.53,-1503 2095.92,-1443.01 2117.82,-1317.29 2123.8,-1261.14"/>
<polygon fill="black" stroke="black" points="2127.28,-1261.47 2124.77,-1251.18 2120.31,-1260.8 2127.28,-1261.47"/>
</g>
<!-- StorageReadSpeed -->
<g id="node23" class="node"><title>StorageReadSpeed</title>
<ellipse fill="none" stroke="black" cx="1788.1" cy="-1476" rx="77.1866" ry="18"/>
<text text-anchor="middle" x="1788.1" y="-1472.3" font-family="Times,serif" font-size="14.00">StorageReadSpeed</text>
</g>
<!-- StorageReadSpeed&#45;&gt;NumericAttribute -->
<g id="edge22" class="edge"><title>StorageReadSpeed&#45;&gt;NumericAttribute</title>
<path fill="none" stroke="black" d="M1857.29,-1484.09C1906.13,-1486.29 1971.18,-1481.5 2017.53,-1449 2082.05,-1403.76 2110.27,-1308.65 2120.72,-1261.19"/>
<polygon fill="black" stroke="black" points="2124.17,-1261.79 2122.8,-1251.28 2117.32,-1260.35 2124.17,-1261.79"/>
</g>
<!-- OperatingSystem -->
<g id="node24" class="node"><title>OperatingSystem</title>
<ellipse fill="none" stroke="black" cx="1788.1" cy="-828" rx="72.2875" ry="18"/>
<text text-anchor="middle" x="1788.1" y="-824.3" font-family="Times,serif" font-size="14.00">OperatingSystem</text>
</g>
<!-- OperatingSystem&#45;&gt;ChoiceAttribute -->
<g id="edge23" class="edge"><title>OperatingSystem&#45;&gt;ChoiceAttribute</title>
<path fill="none" stroke="black" d="M1856.65,-822.276C1902.3,-817.855 1963.81,-810.822 2017.53,-801 2034.52,-797.894 2052.81,-793.683 2069.44,-789.511"/>
<polygon fill="black" stroke="black" points="2070.73,-792.794 2079.55,-786.929 2068.99,-786.012 2070.73,-792.794"/>
</g>
<!-- CpuCores -->
<g id="node25" class="node"><title>CpuCores</title>
<ellipse fill="none" stroke="black" cx="1788.1" cy="-1422" rx="46.2923" ry="18"/>
<text text-anchor="middle" x="1788.1" y="-1418.3" font-family="Times,serif" font-size="14.00">CpuCores</text>
</g>
<!-- CpuCores&#45;&gt;NumericAttribute -->
<g id="edge24" class="edge"><title>CpuCores&#45;&gt;NumericAttribute</title>
<path fill="none" stroke="black" d="M1832.54,-1427.14C1881.25,-1430.69 1960.82,-1429.71 2017.53,-1395 2068.59,-1363.75 2100.86,-1298.35 2115.93,-1260.91"/>
<polygon fill="black" stroke="black" points="2119.37,-1261.73 2119.73,-1251.14 2112.84,-1259.19 2119.37,-1261.73"/>
</g>
<!-- CpuClockSpeed -->
<g id="node26" class="node"><title>CpuClockSpeed</title>
<ellipse fill="none" stroke="black" cx="1788.1" cy="-1368" rx="67.6881" ry="18"/>
<text text-anchor="middle" x="1788.1" y="-1364.3" font-family="Times,serif" font-size="14.00">CpuClockSpeed</text>
</g>
<!-- CpuClockSpeed&#45;&gt;NumericAttribute -->
<g id="edge25" class="edge"><title>CpuClockSpeed&#45;&gt;NumericAttribute</title>
<path fill="none" stroke="black" d="M1854.53,-1371.39C1902.01,-1371.28 1966.57,-1365.65 2017.53,-1341 2056,-1322.39 2088.93,-1284.54 2108.1,-1258.97"/>
<polygon fill="black" stroke="black" points="2110.99,-1260.95 2114.06,-1250.81 2105.34,-1256.82 2110.99,-1260.95"/>
</g>
<!-- Ram -->
<g id="node27" class="node"><title>Ram</title>
<ellipse fill="none" stroke="black" cx="1788.1" cy="-1314" rx="27.8951" ry="18"/>
<text text-anchor="middle" x="1788.1" y="-1310.3" font-family="Times,serif" font-size="14.00">Ram</text>
</g>
<!-- Ram&#45;&gt;NumericAttribute -->
<g id="edge26" class="edge"><title>Ram&#45;&gt;NumericAttribute</title>
<path fill="none" stroke="black" d="M1816.08,-1313.79C1859.44,-1312.79 1946.93,-1308.06 2017.53,-1287 2042.99,-1279.41 2069.72,-1266.16 2090.28,-1254.69"/>
<polygon fill="black" stroke="black" points="2092.02,-1257.73 2098.97,-1249.74 2088.55,-1251.65 2092.02,-1257.73"/>
</g>
<!-- RamClockSpeed -->
<g id="node28" class="node"><title>RamClockSpeed</title>
<ellipse fill="none" stroke="black" cx="1788.1" cy="-1260" rx="70.3881" ry="18"/>
<text text-anchor="middle" x="1788.1" y="-1256.3" font-family="Times,serif" font-size="14.00">RamClockSpeed</text>
</g>
<!-- RamClockSpeed&#45;&gt;NumericAttribute -->
<g id="edge27" class="edge"><title>RamClockSpeed&#45;&gt;NumericAttribute</title>
<path fill="none" stroke="black" d="M1855.25,-1254.7C1910.12,-1250.3 1988.27,-1244.04 2046.52,-1239.37"/>
<polygon fill="black" stroke="black" points="2047.1,-1242.83 2056.79,-1238.55 2046.54,-1235.86 2047.1,-1242.83"/>
</g>
<!-- RamWriteSpeed -->
<g id="node29" class="node"><title>RamWriteSpeed</title>
<ellipse fill="none" stroke="black" cx="1788.1" cy="-1206" rx="69.5877" ry="18"/>
<text text-anchor="middle" x="1788.1" y="-1202.3" font-family="Times,serif" font-size="14.00">RamWriteSpeed</text>
</g>
<!-- RamWriteSpeed&#45;&gt;NumericAttribute -->
<g id="edge28" class="edge"><title>RamWriteSpeed&#45;&gt;NumericAttribute</title>
<path fill="none" stroke="black" d="M1854.85,-1211.27C1909.77,-1215.67 1988.22,-1221.96 2046.62,-1226.64"/>
<polygon fill="black" stroke="black" points="2046.67,-1230.15 2056.91,-1227.46 2047.23,-1223.18 2046.67,-1230.15"/>
</g>
<!-- RamReadSpeed -->
<g id="node30" class="node"><title>RamReadSpeed</title>
<ellipse fill="none" stroke="black" cx="1788.1" cy="-1152" rx="67.6881" ry="18"/>
<text text-anchor="middle" x="1788.1" y="-1148.3" font-family="Times,serif" font-size="14.00">RamReadSpeed</text>
</g>
<!-- RamReadSpeed&#45;&gt;NumericAttribute -->
<g id="edge29" class="edge"><title>RamReadSpeed&#45;&gt;NumericAttribute</title>
<path fill="none" stroke="black" d="M1855.8,-1153.85C1902.02,-1156.59 1964.53,-1163.19 2017.53,-1179 2042.99,-1186.59 2069.72,-1199.84 2090.28,-1211.31"/>
<polygon fill="black" stroke="black" points="2088.55,-1214.35 2098.97,-1216.26 2092.02,-1208.27 2088.55,-1214.35"/>
</g>
<!-- NetworkCapacity -->
<g id="node31" class="node"><title>NetworkCapacity</title>
<ellipse fill="none" stroke="black" cx="1788.1" cy="-1098" rx="72.5877" ry="18"/>
<text text-anchor="middle" x="1788.1" y="-1094.3" font-family="Times,serif" font-size="14.00">NetworkCapacity</text>
</g>
<!-- NetworkCapacity&#45;&gt;NumericAttribute -->
<g id="edge30" class="edge"><title>NetworkCapacity&#45;&gt;NumericAttribute</title>
<path fill="none" stroke="black" d="M1859.62,-1094.64C1906.55,-1095.14 1968.37,-1101.22 2017.53,-1125 2056,-1143.61 2088.93,-1181.46 2108.1,-1207.03"/>
<polygon fill="black" stroke="black" points="2105.34,-1209.18 2114.06,-1215.19 2110.99,-1205.05 2105.34,-1209.18"/>
</g>
<!-- NetworkUploadSpeed -->
<g id="node32" class="node"><title>NetworkUploadSpeed</title>
<ellipse fill="none" stroke="black" cx="1788.1" cy="-1044" rx="89.0842" ry="18"/>
<text text-anchor="middle" x="1788.1" y="-1040.3" font-family="Times,serif" font-size="14.00">NetworkUploadSpeed</text>
</g>
<!-- NetworkUploadSpeed&#45;&gt;NumericAttribute -->
<g id="edge31" class="edge"><title>NetworkUploadSpeed&#45;&gt;NumericAttribute</title>
<path fill="none" stroke="black" d="M1871.16,-1037.49C1917.27,-1037.62 1974.1,-1044.42 2017.53,-1071 2068.59,-1102.25 2100.86,-1167.65 2115.93,-1205.09"/>
<polygon fill="black" stroke="black" points="2112.84,-1206.81 2119.73,-1214.86 2119.37,-1204.27 2112.84,-1206.81"/>
</g>
<!-- NetworkDownloadSpeed -->
<g id="node33" class="node"><title>NetworkDownloadSpeed</title>
<ellipse fill="none" stroke="black" cx="1788.1" cy="-990" rx="99.3824" ry="18"/>
<text text-anchor="middle" x="1788.1" y="-986.3" font-family="Times,serif" font-size="14.00">NetworkDownloadSpeed</text>
</g>
<!-- NetworkDownloadSpeed&#45;&gt;NumericAttribute -->
<g id="edge32" class="edge"><title>NetworkDownloadSpeed&#45;&gt;NumericAttribute</title>
<path fill="none" stroke="black" d="M1875.78,-981.457C1921.68,-981.287 1976.82,-988.454 2017.53,-1017 2082.05,-1062.24 2110.27,-1157.35 2120.72,-1204.81"/>
<polygon fill="black" stroke="black" points="2117.32,-1205.65 2122.8,-1214.72 2124.17,-1204.21 2117.32,-1205.65"/>
</g>
<!-- PricingModel -->
<g id="node34" class="node"><title>PricingModel</title>
<ellipse fill="none" stroke="black" cx="1788.1" cy="-774" rx="59.5901" ry="18"/>
<text text-anchor="middle" x="1788.1" y="-770.3" font-family="Times,serif" font-size="14.00">PricingModel</text>
</g>
<!-- PricingModel&#45;&gt;ChoiceAttribute -->
<g id="edge33" class="edge"><title>PricingModel&#45;&gt;ChoiceAttribute</title>
<path fill="none" stroke="black" d="M1848.17,-774C1903.91,-774 1987.81,-774 2048.82,-774"/>
<polygon fill="black" stroke="black" points="2049.17,-777.5 2059.17,-774 2049.17,-770.5 2049.17,-777.5"/>
</g>
<!-- Static -->
<g id="node35" class="node"><title>Static</title>
<ellipse fill="none" stroke="black" cx="1788.1" cy="-288" rx="30.5947" ry="18"/>
<text text-anchor="middle" x="1788.1" y="-284.3" font-family="Times,serif" font-size="14.00">Static</text>
</g>
<!-- Static&#45;&gt;OptionAttribute -->
<g id="edge34" class="edge"><title>Static&#45;&gt;OptionAttribute</title>
<path fill="none" stroke="black" d="M1817.32,-282.551C1864.43,-275.176 1959.62,-267.85 2017.53,-315 2056.77,-346.946 2018.39,-386.602 2053.53,-423 2057.43,-427.043 2062,-430.486 2066.91,-433.417"/>
<polygon fill="black" stroke="black" points="2065.55,-436.655 2076.03,-438.158 2068.77,-430.443 2065.55,-436.655"/>
</g>
<!-- Dynamic -->
<g id="node36" class="node"><title>Dynamic</title>
<ellipse fill="none" stroke="black" cx="1788.1" cy="-234" rx="43.5923" ry="18"/>
<text text-anchor="middle" x="1788.1" y="-230.3" font-family="Times,serif" font-size="14.00">Dynamic</text>
</g>
<!-- Dynamic&#45;&gt;OptionAttribute -->
<g id="edge35" class="edge"><title>Dynamic&#45;&gt;OptionAttribute</title>
<path fill="none" stroke="black" d="M1827.66,-226.325C1877.98,-218.731 1965.68,-214.142 2017.53,-261 2072.25,-310.454 2005.1,-367.373 2053.53,-423 2057.17,-427.176 2061.51,-430.707 2066.24,-433.693"/>
<polygon fill="black" stroke="black" points="2064.65,-436.809 2075.11,-438.499 2067.98,-430.655 2064.65,-436.809"/>
</g>
<!-- PayAndGo -->
<g id="node37" class="node"><title>PayAndGo</title>
<ellipse fill="none" stroke="black" cx="1291.29" cy="-342" rx="50.0912" ry="18"/>
<text text-anchor="middle" x="1291.29" y="-338.3" font-family="Times,serif" font-size="14.00">PayAndGo</text>
</g>
<!-- PayAndGo&#45;&gt;Static -->
<g id="edge36" class="edge"><title>PayAndGo&#45;&gt;Static</title>
<path fill="none" stroke="black" d="M1339.29,-336.871C1436.4,-326.273 1657.64,-302.129 1747.78,-292.291"/>
<polygon fill="black" stroke="black" points="1748.29,-295.756 1757.85,-291.192 1747.53,-288.797 1748.29,-295.756"/>
</g>
<!-- PayPerResource -->
<g id="node38" class="node"><title>PayPerResource</title>
<ellipse fill="none" stroke="black" cx="1291.29" cy="-288" rx="68.4888" ry="18"/>
<text text-anchor="middle" x="1291.29" y="-284.3" font-family="Times,serif" font-size="14.00">PayPerResource</text>
</g>
<!-- PayPerResource&#45;&gt;Static -->
<g id="edge37" class="edge"><title>PayPerResource&#45;&gt;Static</title>
<path fill="none" stroke="black" d="M1359.54,-288C1464.07,-288 1662.3,-288 1747.05,-288"/>
<polygon fill="black" stroke="black" points="1747.28,-291.5 1757.28,-288 1747.28,-284.5 1747.28,-291.5"/>
</g>
<!-- Subscription -->
<g id="node39" class="node"><title>Subscription</title>
<ellipse fill="none" stroke="black" cx="1291.29" cy="-234" rx="55.4913" ry="18"/>
<text text-anchor="middle" x="1291.29" y="-230.3" font-family="Times,serif" font-size="14.00">Subscription</text>
</g>
<!-- Subscription&#45;&gt;Static -->
<g id="edge38" class="edge"><title>Subscription&#45;&gt;Static</title>
<path fill="none" stroke="black" d="M1343.84,-239.626C1443.15,-250.464 1658.98,-274.018 1747.76,-283.706"/>
<polygon fill="black" stroke="black" points="1747.62,-287.212 1757.94,-284.817 1748.37,-280.253 1747.62,-287.212"/>
</g>
<!-- Price -->
<g id="node40" class="node"><title>Price</title>
<ellipse fill="none" stroke="black" cx="2126.97" cy="-396" rx="28.6953" ry="18"/>
<text text-anchor="middle" x="2126.97" y="-392.3" font-family="Times,serif" font-size="14.00">Price</text>
</g>
<!-- Price&#45;&gt;Attribute -->
<g id="edge39" class="edge"><title>Price&#45;&gt;Attribute</title>
<path fill="none" stroke="black" d="M2153.12,-403.623C2167.38,-408.37 2185.32,-415.077 2200.42,-423 2217.57,-432.007 2235.39,-444.236 2249.58,-454.779"/>
<polygon fill="black" stroke="black" points="2247.82,-457.839 2257.91,-461.082 2252.05,-452.257 2247.82,-457.839"/>
</g>
<!-- DatabaseAsAService -->
<g id="node41" class="node"><title>DatabaseAsAService</title>
<ellipse fill="none" stroke="black" cx="1291.29" cy="-126" rx="85.2851" ry="18"/>
<text text-anchor="middle" x="1291.29" y="-122.3" font-family="Times,serif" font-size="14.00">DatabaseAsAService</text>
</g>
<!-- DatabaseAsAService&#45;&gt;SaaS -->
<g id="edge40" class="edge"><title>DatabaseAsAService&#45;&gt;SaaS</title>
<path fill="none" stroke="black" d="M1376.51,-126C1485.2,-126 1669.73,-126 1749.03,-126"/>
<polygon fill="black" stroke="black" points="1749.5,-129.5 1759.5,-126 1749.5,-122.5 1749.5,-129.5"/>
</g>
<!-- SQLDatabaseAsAService -->
<g id="node42" class="node"><title>SQLDatabaseAsAService</title>
<ellipse fill="none" stroke="black" cx="775.634" cy="-180" rx="102.082" ry="18"/>
<text text-anchor="middle" x="775.634" y="-176.3" font-family="Times,serif" font-size="14.00">SQLDatabaseAsAService</text>
</g>
<!-- SQLDatabaseAsAService&#45;&gt;DatabaseAsAService -->
<g id="edge41" class="edge"><title>SQLDatabaseAsAService&#45;&gt;DatabaseAsAService</title>
<path fill="none" stroke="black" d="M863.769,-170.84C958.77,-160.852 1109.84,-144.971 1204.36,-135.033"/>
<polygon fill="black" stroke="black" points="1204.89,-138.498 1214.47,-133.972 1204.15,-131.536 1204.89,-138.498"/>
</g>
<!-- NoSQLDatabaseAsAService -->
<g id="node43" class="node"><title>NoSQLDatabaseAsAService</title>
<ellipse fill="none" stroke="black" cx="775.634" cy="-126" rx="112.38" ry="18"/>
<text text-anchor="middle" x="775.634" y="-122.3" font-family="Times,serif" font-size="14.00">NoSQLDatabaseAsAService</text>
</g>
<!-- NoSQLDatabaseAsAService&#45;&gt;DatabaseAsAService -->
<g id="edge42" class="edge"><title>NoSQLDatabaseAsAService&#45;&gt;DatabaseAsAService</title>
<path fill="none" stroke="black" d="M888.09,-126C980.049,-126 1109.08,-126 1195.98,-126"/>
<polygon fill="black" stroke="black" points="1196.1,-129.5 1206.1,-126 1196.1,-122.5 1196.1,-129.5"/>
</g>
<!-- github.com/supermuesli/csdl@examples/Requirement1.py@latest -->
<g id="node44" class="node"><title>github.com/supermuesli/csdl@examples/Requirement1.py@latest</title>
<ellipse fill="none" stroke="black" cx="245.678" cy="-18" rx="245.857" ry="18"/>
<text text-anchor="middle" x="245.678" y="-14.3" font-family="Times,serif" font-size="14.00">github.com/supermuesli/csdl@examples/Requirement1.py@latest</text>
</g>
<!-- github.com/supermuesli/csdl@examples/Requirement1.py@latest&#45;&gt;VMAsAService -->
<g id="edge43" class="edge"><title>github.com/supermuesli/csdl@examples/Requirement1.py@latest&#45;&gt;VMAsAService</title>
<path fill="none" stroke="black" d="M491.723,-18C566.288,-18 642.877,-18 697.53,-18"/>
<polygon fill="black" stroke="black" points="697.818,-21.5001 707.818,-18 697.818,-14.5001 697.818,-21.5001"/>
</g>
<!-- github.com/supermuesli/csdl@misc/StaticIp.py@latest -->
<g id="node45" class="node"><title>github.com/supermuesli/csdl@misc/StaticIp.py@latest</title>
<ellipse fill="none" stroke="black" cx="1788.1" cy="-936" rx="206.063" ry="18"/>
<text text-anchor="middle" x="1788.1" y="-932.3" font-family="Times,serif" font-size="14.00">github.com/supermuesli/csdl@misc/StaticIp.py@latest</text>
</g>
<!-- github.com/supermuesli/csdl@misc/StaticIp.py@latest&#45;&gt;NumericAttribute -->
<g id="edge44" class="edge"><title>github.com/supermuesli/csdl@misc/StaticIp.py@latest&#45;&gt;NumericAttribute</title>
<path fill="none" stroke="black" d="M1980.79,-942.52C1993.92,-947.733 2006.35,-954.444 2017.53,-963 2095.92,-1022.99 2117.82,-1148.71 2123.8,-1204.86"/>
<polygon fill="black" stroke="black" points="2120.31,-1205.2 2124.77,-1214.82 2127.28,-1204.53 2120.31,-1205.2"/>
</g>
<!-- github.com/supermuesli/csdl@misc/countries/USA.py@latest -->
<g id="node46" class="node"><title>github.com/supermuesli/csdl@misc/countries/USA.py@latest</title>
<ellipse fill="none" stroke="black" cx="1291.29" cy="-666" rx="231.259" ry="18"/>
<text text-anchor="middle" x="1291.29" y="-662.3" font-family="Times,serif" font-size="14.00">github.com/supermuesli/csdl@misc/countries/USA.py@latest</text>
</g>
<!-- github.com/supermuesli/csdl@misc/countries/USA.py@latest&#45;&gt;NorthAmerica -->
<g id="edge45" class="edge"><title>github.com/supermuesli/csdl@misc/countries/USA.py@latest&#45;&gt;NorthAmerica</title>
<path fill="none" stroke="black" d="M1522.68,-666C1592.86,-666 1664.88,-666 1716,-666"/>
<polygon fill="black" stroke="black" points="1716.26,-669.5 1726.26,-666 1716.26,-662.5 1716.26,-669.5"/>
</g>
<!-- github.com/supermuesli/csdl@aws/ec2/A1Large.py@latest -->
<g id="node47" class="node"><title>github.com/supermuesli/csdl@aws/ec2/A1Large.py@latest</title>
<ellipse fill="none" stroke="black" cx="1788.1" cy="-180" rx="221.761" ry="18"/>
<text text-anchor="middle" x="1788.1" y="-176.3" font-family="Times,serif" font-size="14.00">github.com/supermuesli/csdl@aws/ec2/A1Large.py@latest</text>
</g>
<!-- github.com/supermuesli/csdl@aws/ec2/A1Large.py@latest&#45;&gt;OptionAttribute -->
<g id="edge46" class="edge"><title>github.com/supermuesli/csdl@aws/ec2/A1Large.py@latest&#45;&gt;OptionAttribute</title>
<path fill="none" stroke="black" d="M1990.15,-187.462C2000.06,-192.705 2009.29,-199.146 2017.53,-207 2087.96,-274.165 1991.61,-347.914 2053.53,-423 2056.91,-427.102 2060.98,-430.58 2065.45,-433.531"/>
<polygon fill="black" stroke="black" points="2064.01,-436.736 2074.44,-438.578 2067.43,-430.632 2064.01,-436.736"/>
</g>
<!-- github.com/supermuesli/csdl@aws/EBS.py@latest -->
<g id="node48" class="node"><title>github.com/supermuesli/csdl@aws/EBS.py@latest</title>
<ellipse fill="none" stroke="black" cx="775.634" cy="-72" rx="191.966" ry="18"/>
<text text-anchor="middle" x="775.634" y="-68.3" font-family="Times,serif" font-size="14.00">github.com/supermuesli/csdl@aws/EBS.py@latest</text>
</g>
<!-- github.com/supermuesli/csdl@aws/EBS.py@latest&#45;&gt;StorageAsAService -->
<g id="edge47" class="edge"><title>github.com/supermuesli/csdl@aws/EBS.py@latest&#45;&gt;StorageAsAService</title>
<path fill="none" stroke="black" d="M967.536,-72C1047.58,-72 1136.79,-72 1201.1,-72"/>
<polygon fill="black" stroke="black" points="1201.2,-75.5001 1211.2,-72 1201.2,-68.5001 1201.2,-75.5001"/>
</g>
<!-- github.com/supermuesli/csdl@aws/regions/Region.py@latest -->
<g id="node49" class="node"><title>github.com/supermuesli/csdl@aws/regions/Region.py@latest</title>
<ellipse fill="none" stroke="black" cx="1788.1" cy="-720" rx="229.359" ry="18"/>
<text text-anchor="middle" x="1788.1" y="-716.3" font-family="Times,serif" font-size="14.00">github.com/supermuesli/csdl@aws/regions/Region.py@latest</text>
</g>
<!-- github.com/supermuesli/csdl@aws/regions/Region.py@latest&#45;&gt;ChoiceAttribute -->
<g id="edge48" class="edge"><title>github.com/supermuesli/csdl@aws/regions/Region.py@latest&#45;&gt;ChoiceAttribute</title>
<path fill="none" stroke="black" d="M1931.78,-734.047C1960.28,-737.645 1989.93,-741.955 2017.53,-747 2034.52,-750.106 2052.81,-754.317 2069.44,-758.489"/>
<polygon fill="black" stroke="black" points="2068.99,-761.988 2079.55,-761.071 2070.73,-755.206 2068.99,-761.988"/>
</g>
<!-- github.com/supermuesli/csdl@aws/regions/California.py@latest -->
<g id="node50" class="node"><title>github.com/supermuesli/csdl@aws/regions/California.py@latest</title>
<ellipse fill="none" stroke="black" cx="775.634" cy="-720" rx="239.358" ry="18"/>
<text text-anchor="middle" x="775.634" y="-716.3" font-family="Times,serif" font-size="14.00">github.com/supermuesli/csdl@aws/regions/California.py@latest</text>
</g>
<!-- github.com/supermuesli/csdl@aws/regions/California.py@latest&#45;&gt;github.com/supermuesli/csdl@misc/countries/USA.py@latest -->
<g id="edge49" class="edge"><title>github.com/supermuesli/csdl@aws/regions/California.py@latest&#45;&gt;github.com/supermuesli/csdl@misc/countries/USA.py@latest</title>
<path fill="none" stroke="black" d="M915.637,-705.387C986.011,-697.989 1071.45,-689.006 1142.96,-681.488"/>
<polygon fill="black" stroke="black" points="1143.38,-684.964 1152.96,-680.438 1142.65,-678.003 1143.38,-684.964"/>
</g>
<!-- github.com/supermuesli/csdl@aws/regions/EastVirginia.py@latest -->
<g id="node51" class="node"><title>github.com/supermuesli/csdl@aws/regions/EastVirginia.py@latest</title>
<ellipse fill="none" stroke="black" cx="775.634" cy="-666" rx="248.056" ry="18"/>
<text text-anchor="middle" x="775.634" y="-662.3" font-family="Times,serif" font-size="14.00">github.com/supermuesli/csdl@aws/regions/EastVirginia.py@latest</text>
</g>
<!-- github.com/supermuesli/csdl@aws/regions/EastVirginia.py@latest&#45;&gt;github.com/supermuesli/csdl@misc/countries/USA.py@latest -->
<g id="edge50" class="edge"><title>github.com/supermuesli/csdl@aws/regions/EastVirginia.py@latest&#45;&gt;github.com/supermuesli/csdl@misc/countries/USA.py@latest</title>
<path fill="none" stroke="black" d="M1024.06,-666C1032.64,-666 1041.24,-666 1049.81,-666"/>
<polygon fill="black" stroke="black" points="1049.86,-669.5 1059.86,-666 1049.86,-662.5 1049.86,-669.5"/>
</g>
<!-- github.com/supermuesli/csdl@aws/regions/NewYork.py@latest -->
<g id="node52" class="node"><title>github.com/supermuesli/csdl@aws/regions/NewYork.py@latest</title>
<ellipse fill="none" stroke="black" cx="775.634" cy="-612" rx="238.558" ry="18"/>
<text text-anchor="middle" x="775.634" y="-608.3" font-family="Times,serif" font-size="14.00">github.com/supermuesli/csdl@aws/regions/NewYork.py@latest</text>
</g>
<!-- github.com/supermuesli/csdl@aws/regions/NewYork.py@latest&#45;&gt;github.com/supermuesli/csdl@misc/countries/USA.py@latest -->
<g id="edge51" class="edge"><title>github.com/supermuesli/csdl@aws/regions/NewYork.py@latest&#45;&gt;github.com/supermuesli/csdl@misc/countries/USA.py@latest</title>
<path fill="none" stroke="black" d="M915.637,-626.613C986.011,-634.011 1071.45,-642.994 1142.96,-650.512"/>
<polygon fill="black" stroke="black" points="1142.65,-653.997 1152.96,-651.562 1143.38,-647.036 1142.65,-653.997"/>
</g>
</g>
</svg>
