<?xml version="1.0" encoding="UTF-8" standalone="no"?>
<!DOCTYPE svg PUBLIC "-//W3C//DTD SVG 1.1//EN"
 "http://www.w3.org/Graphics/SVG/1.1/DTD/svg11.dtd">
<!-- Generated by graphviz version 2.38.0 (20140413.2041)
 -->
<!-- Title: %3 Pages: 1 -->
<svg width="2585pt" height="1785pt"
 viewBox="0.00 0.00 2584.59 1785.00" xmlns="http://www.w3.org/2000/svg" xmlns:xlink="http://www.w3.org/1999/xlink">
<g id="graph0" class="graph" transform="scale(1 1) rotate(0) translate(4 1781)">
<title>%3</title>
<polygon fill="white" stroke="none" points="-4,4 -4,-1781 2580.59,-1781 2580.59,4 -4,4"/>
<!-- VMAsAService -->
<g id="node1" class="node"><title>VMAsAService</title>
<ellipse fill="none" stroke="black" cx="775.634" cy="-45" rx="67.6881" ry="18"/>
<text text-anchor="middle" x="775.634" y="-41.3" font-family="Times,serif" font-size="14.00">VMAsAService</text>
</g>
<!-- ServerAsAService -->
<g id="node2" class="node"><title>ServerAsAService</title>
<ellipse fill="none" stroke="black" cx="1335.49" cy="-45" rx="76.0865" ry="18"/>
<text text-anchor="middle" x="1335.49" y="-41.3" font-family="Times,serif" font-size="14.00">ServerAsAService</text>
</g>
<!-- VMAsAService&#45;&gt;ServerAsAService -->
<g id="edge1" class="edge"><title>VMAsAService&#45;&gt;ServerAsAService</title>
<path fill="none" stroke="black" d="M843.37,-45C944.753,-45 1137.54,-45 1249.03,-45"/>
<polygon fill="black" stroke="black" points="1249.23,-48.5001 1259.23,-45 1249.23,-41.5001 1249.23,-48.5001"/>
</g>
<!-- IaaS -->
<g id="node3" class="node"><title>IaaS</title>
<ellipse fill="none" stroke="black" cx="1909.64" cy="-99" rx="27" ry="18"/>
<text text-anchor="middle" x="1909.64" y="-95.3" font-family="Times,serif" font-size="14.00">IaaS</text>
</g>
<!-- ServerAsAService&#45;&gt;IaaS -->
<g id="edge2" class="edge"><title>ServerAsAService&#45;&gt;IaaS</title>
<path fill="none" stroke="black" d="M1406.36,-51.5944C1529.21,-63.1896 1779.72,-86.8321 1872.78,-95.6153"/>
<polygon fill="black" stroke="black" points="1872.54,-99.1079 1882.82,-96.5631 1873.19,-92.1389 1872.54,-99.1079"/>
</g>
<!-- CCS -->
<g id="node5" class="node"><title>CCS</title>
<ellipse fill="none" stroke="black" cx="2281.66" cy="-153" rx="27.0966" ry="18"/>
<text text-anchor="middle" x="2281.66" y="-149.3" font-family="Times,serif" font-size="14.00">CCS</text>
</g>
<!-- IaaS&#45;&gt;CCS -->
<g id="edge4" class="edge"><title>IaaS&#45;&gt;CCS</title>
<path fill="none" stroke="black" d="M1936.8,-100.474C1984.07,-103.409 2086.78,-111.031 2172.22,-126 2197.34,-130.402 2225.27,-137.405 2246.49,-143.175"/>
<polygon fill="black" stroke="black" points="2245.75,-146.603 2256.32,-145.893 2247.61,-139.856 2245.75,-146.603"/>
</g>
<!-- SaaS -->
<g id="node4" class="node"><title>SaaS</title>
<ellipse fill="none" stroke="black" cx="1909.64" cy="-153" rx="28.6953" ry="18"/>
<text text-anchor="middle" x="1909.64" y="-149.3" font-family="Times,serif" font-size="14.00">SaaS</text>
</g>
<!-- SaaS&#45;&gt;CCS -->
<g id="edge3" class="edge"><title>SaaS&#45;&gt;CCS</title>
<path fill="none" stroke="black" d="M1938.45,-153C2004.29,-153 2169.71,-153 2243.78,-153"/>
<polygon fill="black" stroke="black" points="2244.03,-156.5 2254.03,-153 2244.03,-149.5 2244.03,-156.5"/>
</g>
<!-- Attribute -->
<g id="node8" class="node"><title>Attribute</title>
<ellipse fill="none" stroke="black" cx="2433.35" cy="-598" rx="42.4939" ry="18"/>
<text text-anchor="middle" x="2433.35" y="-594.3" font-family="Times,serif" font-size="14.00">Attribute</text>
</g>
<!-- CCS&#45;&gt;Attribute -->
<g id="edge10" class="edge"><title>CCS&#45;&gt;Attribute</title>
<path fill="none" stroke="black" d="M2289.78,-170.303C2303.28,-203.381 2333.21,-277.995 2355.1,-342 2383.25,-424.287 2411.57,-523.227 2424.73,-570.385"/>
<polygon fill="black" stroke="black" points="2421.4,-571.471 2427.45,-580.167 2428.15,-569.595 2421.4,-571.471"/>
</g>
<!-- StorageAsAService -->
<g id="node6" class="node"><title>StorageAsAService</title>
<ellipse fill="none" stroke="black" cx="1335.49" cy="-99" rx="79.8859" ry="18"/>
<text text-anchor="middle" x="1335.49" y="-95.3" font-family="Times,serif" font-size="14.00">StorageAsAService</text>
</g>
<!-- StorageAsAService&#45;&gt;IaaS -->
<g id="edge5" class="edge"><title>StorageAsAService&#45;&gt;IaaS</title>
<path fill="none" stroke="black" d="M1415.44,-99C1541.06,-99 1781.52,-99 1872.53,-99"/>
<polygon fill="black" stroke="black" points="1872.62,-102.5 1882.62,-99 1872.62,-95.5001 1872.62,-102.5"/>
</g>
<!-- NumericAttribute -->
<g id="node7" class="node"><title>NumericAttribute</title>
<ellipse fill="none" stroke="black" cx="2281.66" cy="-1408" rx="73.387" ry="18"/>
<text text-anchor="middle" x="2281.66" y="-1404.3" font-family="Times,serif" font-size="14.00">NumericAttribute</text>
</g>
<!-- NumericAttribute&#45;&gt;Attribute -->
<g id="edge6" class="edge"><title>NumericAttribute&#45;&gt;Attribute</title>
<path fill="none" stroke="black" d="M2286,-1389.95C2305.38,-1285.05 2403.48,-754.243 2427.19,-625.945"/>
<polygon fill="black" stroke="black" points="2430.63,-626.567 2429.01,-616.097 2423.75,-625.295 2430.63,-626.567"/>
</g>
<!-- object -->
<g id="node12" class="node"><title>object</title>
<ellipse fill="none" stroke="black" cx="2544.09" cy="-598" rx="32.4942" ry="18"/>
<text text-anchor="middle" x="2544.09" y="-594.3" font-family="Times,serif" font-size="14.00">object</text>
</g>
<!-- Attribute&#45;&gt;object -->
<g id="edge11" class="edge"><title>Attribute&#45;&gt;object</title>
<path fill="none" stroke="black" d="M2475.77,-598C2484.04,-598 2492.74,-598 2501.03,-598"/>
<polygon fill="black" stroke="black" points="2501.26,-601.5 2511.26,-598 2501.26,-594.5 2501.26,-601.5"/>
</g>
<!-- ChoiceAttribute -->
<g id="node9" class="node"><title>ChoiceAttribute</title>
<ellipse fill="none" stroke="black" cx="2281.66" cy="-976" rx="67.6881" ry="18"/>
<text text-anchor="middle" x="2281.66" y="-972.3" font-family="Times,serif" font-size="14.00">ChoiceAttribute</text>
</g>
<!-- ChoiceAttribute&#45;&gt;Attribute -->
<g id="edge7" class="edge"><title>ChoiceAttribute&#45;&gt;Attribute</title>
<path fill="none" stroke="black" d="M2289.78,-958.023C2313.86,-897.207 2392.39,-698.896 2421.43,-625.576"/>
<polygon fill="black" stroke="black" points="2424.76,-626.674 2425.19,-616.087 2418.25,-624.096 2424.76,-626.674"/>
</g>
<!-- BoolAttribute -->
<g id="node10" class="node"><title>BoolAttribute</title>
<ellipse fill="none" stroke="black" cx="2281.66" cy="-652" rx="59.5901" ry="18"/>
<text text-anchor="middle" x="2281.66" y="-648.3" font-family="Times,serif" font-size="14.00">BoolAttribute</text>
</g>
<!-- BoolAttribute&#45;&gt;Attribute -->
<g id="edge8" class="edge"><title>BoolAttribute&#45;&gt;Attribute</title>
<path fill="none" stroke="black" d="M2320.82,-638.234C2342.15,-630.538 2368.77,-620.937 2390.65,-613.044"/>
<polygon fill="black" stroke="black" points="2392.11,-616.236 2400.33,-609.55 2389.74,-609.651 2392.11,-616.236"/>
</g>
<!-- NameAttribute -->
<g id="node11" class="node"><title>NameAttribute</title>
<ellipse fill="none" stroke="black" cx="2281.66" cy="-598" rx="63.8893" ry="18"/>
<text text-anchor="middle" x="2281.66" y="-594.3" font-family="Times,serif" font-size="14.00">NameAttribute</text>
</g>
<!-- NameAttribute&#45;&gt;Attribute -->
<g id="edge9" class="edge"><title>NameAttribute&#45;&gt;Attribute</title>
<path fill="none" stroke="black" d="M2345.71,-598C2357.45,-598 2369.6,-598 2380.94,-598"/>
<polygon fill="black" stroke="black" points="2381.1,-601.5 2391.1,-598 2381.1,-594.5 2381.1,-601.5"/>
</g>
<!-- Region -->
<g id="node13" class="node"><title>Region</title>
<ellipse fill="none" stroke="black" cx="1909.64" cy="-1057" rx="36.2938" ry="18"/>
<text text-anchor="middle" x="1909.64" y="-1053.3" font-family="Times,serif" font-size="14.00">Region</text>
</g>
<!-- Region&#45;&gt;ChoiceAttribute -->
<g id="edge12" class="edge"><title>Region&#45;&gt;ChoiceAttribute</title>
<path fill="none" stroke="black" d="M1946.1,-1057.32C1997.12,-1056.9 2093.73,-1052.77 2172.22,-1030 2197.91,-1022.55 2224.83,-1009.17 2245.43,-997.597"/>
<polygon fill="black" stroke="black" points="2247.2,-1000.62 2254.14,-992.602 2243.72,-994.544 2247.2,-1000.62"/>
</g>
<!-- NorthAmerica -->
<g id="node14" class="node"><title>NorthAmerica</title>
<ellipse fill="none" stroke="black" cx="1909.64" cy="-895" rx="61.99" ry="18"/>
<text text-anchor="middle" x="1909.64" y="-891.3" font-family="Times,serif" font-size="14.00">NorthAmerica</text>
</g>
<!-- NorthAmerica&#45;&gt;NameAttribute -->
<g id="edge13" class="edge"><title>NorthAmerica&#45;&gt;NameAttribute</title>
<path fill="none" stroke="black" d="M1959.09,-905.852C2017.76,-915.867 2115.72,-922.047 2172.22,-868 2251.11,-792.525 2139.52,-709.856 2208.22,-625 2211.81,-620.566 2216.2,-616.861 2221.03,-613.764"/>
<polygon fill="black" stroke="black" points="2223.01,-616.671 2230.13,-608.82 2219.67,-610.521 2223.01,-616.671"/>
</g>
<!-- Australia -->
<g id="node15" class="node"><title>Australia</title>
<ellipse fill="none" stroke="black" cx="1909.64" cy="-841" rx="42.7926" ry="18"/>
<text text-anchor="middle" x="1909.64" y="-837.3" font-family="Times,serif" font-size="14.00">Australia</text>
</g>
<!-- Australia&#45;&gt;NameAttribute -->
<g id="edge14" class="edge"><title>Australia&#45;&gt;NameAttribute</title>
<path fill="none" stroke="black" d="M1947.77,-849.536C2004.04,-860.078 2110.84,-870.347 2172.22,-814 2235.21,-756.17 2153.06,-690.34 2208.22,-625 2212.04,-620.467 2216.71,-616.694 2221.81,-613.554"/>
<polygon fill="black" stroke="black" points="2223.52,-616.608 2230.73,-608.845 2220.25,-610.417 2223.52,-616.608"/>
</g>
<!-- Africa -->
<g id="node16" class="node"><title>Africa</title>
<ellipse fill="none" stroke="black" cx="1909.64" cy="-787" rx="33.2948" ry="18"/>
<text text-anchor="middle" x="1909.64" y="-783.3" font-family="Times,serif" font-size="14.00">Africa</text>
</g>
<!-- Africa&#45;&gt;NameAttribute -->
<g id="edge15" class="edge"><title>Africa&#45;&gt;NameAttribute</title>
<path fill="none" stroke="black" d="M1940.68,-793.77C1994.11,-803.909 2106.24,-816.313 2172.22,-760 2219.45,-719.687 2166.47,-670.968 2208.22,-625 2212.21,-620.608 2216.98,-616.928 2222.14,-613.844"/>
<polygon fill="black" stroke="black" points="2223.86,-616.898 2231.14,-609.198 2220.64,-610.678 2223.86,-616.898"/>
</g>
<!-- EastAsia -->
<g id="node17" class="node"><title>EastAsia</title>
<ellipse fill="none" stroke="black" cx="1909.64" cy="-733" rx="42.4939" ry="18"/>
<text text-anchor="middle" x="1909.64" y="-729.3" font-family="Times,serif" font-size="14.00">EastAsia</text>
</g>
<!-- EastAsia&#45;&gt;NameAttribute -->
<g id="edge16" class="edge"><title>EastAsia&#45;&gt;NameAttribute</title>
<path fill="none" stroke="black" d="M1948.53,-740.035C2003.41,-748.004 2105.71,-754.262 2172.22,-706 2204.1,-682.863 2179.52,-651.988 2208.22,-625 2212.77,-620.716 2218.07,-617.097 2223.69,-614.043"/>
<polygon fill="black" stroke="black" points="2225.23,-617.186 2232.72,-609.694 2222.19,-610.879 2225.23,-617.186"/>
</g>
<!-- SouthAmerica -->
<g id="node18" class="node"><title>SouthAmerica</title>
<ellipse fill="none" stroke="black" cx="1909.64" cy="-679" rx="61.99" ry="18"/>
<text text-anchor="middle" x="1909.64" y="-675.3" font-family="Times,serif" font-size="14.00">SouthAmerica</text>
</g>
<!-- SouthAmerica&#45;&gt;NameAttribute -->
<g id="edge17" class="edge"><title>SouthAmerica&#45;&gt;NameAttribute</title>
<path fill="none" stroke="black" d="M1970.68,-681.762C2025.12,-682.211 2106.64,-677.674 2172.22,-652 2190.84,-644.708 2190.67,-634.591 2208.22,-625 2214.69,-621.46 2221.73,-618.195 2228.79,-615.25"/>
<polygon fill="black" stroke="black" points="2230.38,-618.384 2238.38,-611.436 2227.79,-611.88 2230.38,-618.384"/>
</g>
<!-- Europe -->
<g id="node19" class="node"><title>Europe</title>
<ellipse fill="none" stroke="black" cx="1909.64" cy="-625" rx="36.2938" ry="18"/>
<text text-anchor="middle" x="1909.64" y="-621.3" font-family="Times,serif" font-size="14.00">Europe</text>
</g>
<!-- Europe&#45;&gt;NameAttribute -->
<g id="edge18" class="edge"><title>Europe&#45;&gt;NameAttribute</title>
<path fill="none" stroke="black" d="M1945.78,-622.436C2006.04,-618.039 2130.19,-608.98 2209.23,-603.212"/>
<polygon fill="black" stroke="black" points="2209.87,-606.675 2219.59,-602.456 2209.36,-599.693 2209.87,-606.675"/>
</g>
<!-- Antarctica -->
<g id="node20" class="node"><title>Antarctica</title>
<ellipse fill="none" stroke="black" cx="1909.64" cy="-571" rx="47.3916" ry="18"/>
<text text-anchor="middle" x="1909.64" y="-567.3" font-family="Times,serif" font-size="14.00">Antarctica</text>
</g>
<!-- Antarctica&#45;&gt;NameAttribute -->
<g id="edge19" class="edge"><title>Antarctica&#45;&gt;NameAttribute</title>
<path fill="none" stroke="black" d="M1956.38,-574.338C2019.73,-578.96 2134.76,-587.354 2209.41,-592.801"/>
<polygon fill="black" stroke="black" points="2209.44,-596.312 2219.67,-593.55 2209.95,-589.331 2209.44,-596.312"/>
</g>
<!-- Currency -->
<g id="node21" class="node"><title>Currency</title>
<ellipse fill="none" stroke="black" cx="1909.64" cy="-1003" rx="43.5923" ry="18"/>
<text text-anchor="middle" x="1909.64" y="-999.3" font-family="Times,serif" font-size="14.00">Currency</text>
</g>
<!-- Currency&#45;&gt;ChoiceAttribute -->
<g id="edge20" class="edge"><title>Currency&#45;&gt;ChoiceAttribute</title>
<path fill="none" stroke="black" d="M1952.73,-999.929C2014.36,-995.432 2130.11,-986.986 2206.29,-981.427"/>
<polygon fill="black" stroke="black" points="2206.58,-984.915 2216.3,-980.696 2206.08,-977.933 2206.58,-984.915"/>
</g>
<!-- Storage -->
<g id="node22" class="node"><title>Storage</title>
<ellipse fill="none" stroke="black" cx="1909.64" cy="-1759" rx="37.8943" ry="18"/>
<text text-anchor="middle" x="1909.64" y="-1755.3" font-family="Times,serif" font-size="14.00">Storage</text>
</g>
<!-- Storage&#45;&gt;NumericAttribute -->
<g id="edge21" class="edge"><title>Storage&#45;&gt;NumericAttribute</title>
<path fill="none" stroke="black" d="M1944.63,-1766.11C1999.05,-1775.39 2106.3,-1784.8 2172.22,-1732 2265.22,-1657.51 2279.04,-1500.43 2280.68,-1436.23"/>
<polygon fill="black" stroke="black" points="2284.18,-1436.12 2280.85,-1426.06 2277.18,-1436 2284.18,-1436.12"/>
</g>
<!-- StorageWriteSpeed -->
<g id="node23" class="node"><title>StorageWriteSpeed</title>
<ellipse fill="none" stroke="black" cx="1909.64" cy="-1705" rx="79.0865" ry="18"/>
<text text-anchor="middle" x="1909.64" y="-1701.3" font-family="Times,serif" font-size="14.00">StorageWriteSpeed</text>
</g>
<!-- StorageWriteSpeed&#45;&gt;NumericAttribute -->
<g id="edge22" class="edge"><title>StorageWriteSpeed&#45;&gt;NumericAttribute</title>
<path fill="none" stroke="black" d="M1973.99,-1715.57C2031.46,-1721.51 2115.62,-1720.66 2172.22,-1678 2251.04,-1618.59 2272.72,-1492.56 2278.56,-1436.23"/>
<polygon fill="black" stroke="black" points="2282.05,-1436.53 2279.5,-1426.25 2275.08,-1435.87 2282.05,-1436.53"/>
</g>
<!-- StorageReadSpeed -->
<g id="node24" class="node"><title>StorageReadSpeed</title>
<ellipse fill="none" stroke="black" cx="1909.64" cy="-1651" rx="77.1866" ry="18"/>
<text text-anchor="middle" x="1909.64" y="-1647.3" font-family="Times,serif" font-size="14.00">StorageReadSpeed</text>
</g>
<!-- StorageReadSpeed&#45;&gt;NumericAttribute -->
<g id="edge23" class="edge"><title>StorageReadSpeed&#45;&gt;NumericAttribute</title>
<path fill="none" stroke="black" d="M1975.13,-1660.63C2031.99,-1665.59 2114.54,-1663.81 2172.22,-1624 2237.23,-1579.12 2265.27,-1483.44 2275.56,-1435.94"/>
<polygon fill="black" stroke="black" points="2279.01,-1436.53 2277.59,-1426.03 2272.15,-1435.12 2279.01,-1436.53"/>
</g>
<!-- OperatingSystem -->
<g id="node25" class="node"><title>OperatingSystem</title>
<ellipse fill="none" stroke="black" cx="1909.64" cy="-949" rx="72.2875" ry="18"/>
<text text-anchor="middle" x="1909.64" y="-945.3" font-family="Times,serif" font-size="14.00">OperatingSystem</text>
</g>
<!-- OperatingSystem&#45;&gt;ChoiceAttribute -->
<g id="edge24" class="edge"><title>OperatingSystem&#45;&gt;ChoiceAttribute</title>
<path fill="none" stroke="black" d="M1979.37,-954.015C2043.75,-958.713 2139.71,-965.715 2205.96,-970.549"/>
<polygon fill="black" stroke="black" points="2206.09,-974.068 2216.32,-971.305 2206.6,-967.087 2206.09,-974.068"/>
</g>
<!-- CpuCores -->
<g id="node26" class="node"><title>CpuCores</title>
<ellipse fill="none" stroke="black" cx="1909.64" cy="-1597" rx="46.2923" ry="18"/>
<text text-anchor="middle" x="1909.64" y="-1593.3" font-family="Times,serif" font-size="14.00">CpuCores</text>
</g>
<!-- CpuCores&#45;&gt;NumericAttribute -->
<g id="edge25" class="edge"><title>CpuCores&#45;&gt;NumericAttribute</title>
<path fill="none" stroke="black" d="M1953.49,-1603.12C2008.33,-1608.73 2104.35,-1610.85 2172.22,-1570 2223.64,-1539.05 2255.85,-1473.25 2270.8,-1435.73"/>
<polygon fill="black" stroke="black" points="2274.24,-1436.53 2274.56,-1425.94 2267.7,-1434.02 2274.24,-1436.53"/>
</g>
<!-- CpuClockSpeed -->
<g id="node27" class="node"><title>CpuClockSpeed</title>
<ellipse fill="none" stroke="black" cx="1909.64" cy="-1543" rx="67.6881" ry="18"/>
<text text-anchor="middle" x="1909.64" y="-1539.3" font-family="Times,serif" font-size="14.00">CpuClockSpeed</text>
</g>
<!-- CpuClockSpeed&#45;&gt;NumericAttribute -->
<g id="edge26" class="edge"><title>CpuClockSpeed&#45;&gt;NumericAttribute</title>
<path fill="none" stroke="black" d="M1974.58,-1548C2029.59,-1549.67 2109.73,-1545.65 2172.22,-1516 2210.82,-1497.68 2243.72,-1459.76 2262.85,-1434.09"/>
<polygon fill="black" stroke="black" points="2265.75,-1436.05 2268.79,-1425.9 2260.08,-1431.93 2265.75,-1436.05"/>
</g>
<!-- Ram -->
<g id="node28" class="node"><title>Ram</title>
<ellipse fill="none" stroke="black" cx="1909.64" cy="-1489" rx="27.8951" ry="18"/>
<text text-anchor="middle" x="1909.64" y="-1485.3" font-family="Times,serif" font-size="14.00">Ram</text>
</g>
<!-- Ram&#45;&gt;NumericAttribute -->
<g id="edge27" class="edge"><title>Ram&#45;&gt;NumericAttribute</title>
<path fill="none" stroke="black" d="M1937.6,-1489.36C1985.72,-1489.32 2089.13,-1486.11 2172.22,-1462 2197.73,-1454.6 2224.47,-1441.35 2245.01,-1429.83"/>
<polygon fill="black" stroke="black" points="2246.76,-1432.87 2253.7,-1424.86 2243.28,-1426.79 2246.76,-1432.87"/>
</g>
<!-- RamClockSpeed -->
<g id="node29" class="node"><title>RamClockSpeed</title>
<ellipse fill="none" stroke="black" cx="1909.64" cy="-1435" rx="70.3881" ry="18"/>
<text text-anchor="middle" x="1909.64" y="-1431.3" font-family="Times,serif" font-size="14.00">RamClockSpeed</text>
</g>
<!-- RamClockSpeed&#45;&gt;NumericAttribute -->
<g id="edge28" class="edge"><title>RamClockSpeed&#45;&gt;NumericAttribute</title>
<path fill="none" stroke="black" d="M1977.65,-1430.11C2040.44,-1425.53 2134.37,-1418.67 2200.98,-1413.81"/>
<polygon fill="black" stroke="black" points="2201.29,-1417.3 2211.01,-1413.08 2200.78,-1410.32 2201.29,-1417.3"/>
</g>
<!-- RamWriteSpeed -->
<g id="node30" class="node"><title>RamWriteSpeed</title>
<ellipse fill="none" stroke="black" cx="1909.64" cy="-1381" rx="69.5877" ry="18"/>
<text text-anchor="middle" x="1909.64" y="-1377.3" font-family="Times,serif" font-size="14.00">RamWriteSpeed</text>
</g>
<!-- RamWriteSpeed&#45;&gt;NumericAttribute -->
<g id="edge29" class="edge"><title>RamWriteSpeed&#45;&gt;NumericAttribute</title>
<path fill="none" stroke="black" d="M1976.79,-1385.83C2039.57,-1390.41 2134.01,-1397.3 2200.92,-1402.18"/>
<polygon fill="black" stroke="black" points="2200.77,-1405.68 2211,-1402.92 2201.28,-1398.7 2200.77,-1405.68"/>
</g>
<!-- RamReadSpeed -->
<g id="node31" class="node"><title>RamReadSpeed</title>
<ellipse fill="none" stroke="black" cx="1909.64" cy="-1327" rx="67.6881" ry="18"/>
<text text-anchor="middle" x="1909.64" y="-1323.3" font-family="Times,serif" font-size="14.00">RamReadSpeed</text>
</g>
<!-- RamReadSpeed&#45;&gt;NumericAttribute -->
<g id="edge30" class="edge"><title>RamReadSpeed&#45;&gt;NumericAttribute</title>
<path fill="none" stroke="black" d="M1977.47,-1327.34C2031.08,-1329.17 2107.76,-1335.3 2172.22,-1354 2197.73,-1361.4 2224.47,-1374.65 2245.01,-1386.17"/>
<polygon fill="black" stroke="black" points="2243.28,-1389.21 2253.7,-1391.14 2246.76,-1383.13 2243.28,-1389.21"/>
</g>
<!-- NetworkCapacity -->
<g id="node32" class="node"><title>NetworkCapacity</title>
<ellipse fill="none" stroke="black" cx="1909.64" cy="-1273" rx="72.5877" ry="18"/>
<text text-anchor="middle" x="1909.64" y="-1269.3" font-family="Times,serif" font-size="14.00">NetworkCapacity</text>
</g>
<!-- NetworkCapacity&#45;&gt;NumericAttribute -->
<g id="edge31" class="edge"><title>NetworkCapacity&#45;&gt;NumericAttribute</title>
<path fill="none" stroke="black" d="M1979.55,-1267.87C2034.34,-1266.59 2111.59,-1271.23 2172.22,-1300 2210.82,-1318.32 2243.72,-1356.24 2262.85,-1381.91"/>
<polygon fill="black" stroke="black" points="2260.08,-1384.07 2268.79,-1390.1 2265.75,-1379.95 2260.08,-1384.07"/>
</g>
<!-- NetworkUploadSpeed -->
<g id="node33" class="node"><title>NetworkUploadSpeed</title>
<ellipse fill="none" stroke="black" cx="1909.64" cy="-1219" rx="89.0842" ry="18"/>
<text text-anchor="middle" x="1909.64" y="-1215.3" font-family="Times,serif" font-size="14.00">NetworkUploadSpeed</text>
</g>
<!-- NetworkUploadSpeed&#45;&gt;NumericAttribute -->
<g id="edge32" class="edge"><title>NetworkUploadSpeed&#45;&gt;NumericAttribute</title>
<path fill="none" stroke="black" d="M1987.89,-1210.36C2043.05,-1207.96 2116.97,-1212.74 2172.22,-1246 2223.64,-1276.95 2255.85,-1342.75 2270.8,-1380.27"/>
<polygon fill="black" stroke="black" points="2267.7,-1381.98 2274.56,-1390.06 2274.24,-1379.47 2267.7,-1381.98"/>
</g>
<!-- NetworkDownloadSpeed -->
<g id="node34" class="node"><title>NetworkDownloadSpeed</title>
<ellipse fill="none" stroke="black" cx="1909.64" cy="-1165" rx="99.3824" ry="18"/>
<text text-anchor="middle" x="1909.64" y="-1161.3" font-family="Times,serif" font-size="14.00">NetworkDownloadSpeed</text>
</g>
<!-- NetworkDownloadSpeed&#45;&gt;NumericAttribute -->
<g id="edge33" class="edge"><title>NetworkDownloadSpeed&#45;&gt;NumericAttribute</title>
<path fill="none" stroke="black" d="M1989.8,-1154.29C2045.53,-1150.97 2119.33,-1155.5 2172.22,-1192 2237.23,-1236.88 2265.27,-1332.56 2275.56,-1380.06"/>
<polygon fill="black" stroke="black" points="2272.15,-1380.88 2277.59,-1389.97 2279.01,-1379.47 2272.15,-1380.88"/>
</g>
<!-- PricingModel -->
<g id="node35" class="node"><title>PricingModel</title>
<ellipse fill="none" stroke="black" cx="2281.66" cy="-423" rx="59.5901" ry="18"/>
<text text-anchor="middle" x="2281.66" y="-419.3" font-family="Times,serif" font-size="14.00">PricingModel</text>
</g>
<!-- PricingModel&#45;&gt;Attribute -->
<g id="edge34" class="edge"><title>PricingModel&#45;&gt;Attribute</title>
<path fill="none" stroke="black" d="M2297.56,-440.419C2324.26,-471.634 2380.33,-537.187 2411.07,-573.126"/>
<polygon fill="black" stroke="black" points="2408.79,-575.841 2417.95,-581.166 2414.11,-571.291 2408.79,-575.841"/>
</g>
<!-- Static -->
<g id="node36" class="node"><title>Static</title>
<ellipse fill="none" stroke="black" cx="1909.64" cy="-301" rx="30.5947" ry="18"/>
<text text-anchor="middle" x="1909.64" y="-297.3" font-family="Times,serif" font-size="14.00">Static</text>
</g>
<!-- Static&#45;&gt;PricingModel -->
<g id="edge35" class="edge"><title>Static&#45;&gt;PricingModel</title>
<path fill="none" stroke="black" d="M1939.09,-295.847C1990.47,-288.164 2100.11,-279.369 2172.22,-328 2200.57,-347.121 2182.52,-373.443 2208.22,-396 2213.37,-400.521 2219.35,-404.312 2225.62,-407.486"/>
<polygon fill="black" stroke="black" points="2224.4,-410.775 2234.95,-411.706 2227.28,-404.397 2224.4,-410.775"/>
</g>
<!-- Dynamic -->
<g id="node37" class="node"><title>Dynamic</title>
<ellipse fill="none" stroke="black" cx="1909.64" cy="-234" rx="43.5923" ry="18"/>
<text text-anchor="middle" x="1909.64" y="-230.3" font-family="Times,serif" font-size="14.00">Dynamic</text>
</g>
<!-- Dynamic&#45;&gt;PricingModel -->
<g id="edge36" class="edge"><title>Dynamic&#45;&gt;PricingModel</title>
<path fill="none" stroke="black" d="M1951.06,-227.949C2007.64,-221.896 2110.45,-220.064 2172.22,-274 2214.8,-311.184 2169.66,-354.654 2208.22,-396 2212.6,-400.703 2217.88,-404.591 2223.57,-407.804"/>
<polygon fill="black" stroke="black" points="2222.25,-411.057 2232.77,-412.32 2225.34,-404.773 2222.25,-411.057"/>
</g>
<!-- PayAndGo -->
<g id="node38" class="node"><title>PayAndGo</title>
<ellipse fill="none" stroke="black" cx="1335.49" cy="-423" rx="50.0912" ry="18"/>
<text text-anchor="middle" x="1335.49" y="-419.3" font-family="Times,serif" font-size="14.00">PayAndGo</text>
</g>
<!-- PayAndGo&#45;&gt;Static -->
<g id="edge37" class="edge"><title>PayAndGo&#45;&gt;Static</title>
<path fill="none" stroke="black" d="M1381.15,-430.693C1439.29,-438.197 1541.65,-442.57 1611.06,-396 1639.46,-376.947 1618.71,-347.121 1647.06,-328 1714.8,-282.314 1815.67,-287.309 1870.24,-294.452"/>
<polygon fill="black" stroke="black" points="1869.8,-297.925 1880.19,-295.847 1870.77,-290.993 1869.8,-297.925"/>
</g>
<!-- PayPerResource -->
<g id="node39" class="node"><title>PayPerResource</title>
<ellipse fill="none" stroke="black" cx="1335.49" cy="-369" rx="68.4888" ry="18"/>
<text text-anchor="middle" x="1335.49" y="-365.3" font-family="Times,serif" font-size="14.00">PayPerResource</text>
</g>
<!-- PayPerResource&#45;&gt;Static -->
<g id="edge38" class="edge"><title>PayPerResource&#45;&gt;Static</title>
<path fill="none" stroke="black" d="M1403.63,-367.494C1459.75,-365.028 1541.53,-358.608 1611.06,-342 1627.76,-338.012 1630.38,-332.029 1647.06,-328 1724.08,-309.408 1816.89,-303.615 1868.68,-301.812"/>
<polygon fill="black" stroke="black" points="1868.9,-305.307 1878.78,-301.494 1868.68,-298.311 1868.9,-305.307"/>
</g>
<!-- Subscription -->
<g id="node40" class="node"><title>Subscription</title>
<ellipse fill="none" stroke="black" cx="1335.49" cy="-315" rx="55.4913" ry="18"/>
<text text-anchor="middle" x="1335.49" y="-311.3" font-family="Times,serif" font-size="14.00">Subscription</text>
</g>
<!-- Subscription&#45;&gt;Static -->
<g id="edge39" class="edge"><title>Subscription&#45;&gt;Static</title>
<path fill="none" stroke="black" d="M1390.83,-313.67C1505.19,-310.872 1768.43,-304.431 1868.79,-301.975"/>
<polygon fill="black" stroke="black" points="1868.9,-305.473 1878.81,-301.73 1868.73,-298.476 1868.9,-305.473"/>
</g>
<!-- Hybrid -->
<g id="node41" class="node"><title>Hybrid</title>
<ellipse fill="none" stroke="black" cx="1335.49" cy="-261" rx="35.9954" ry="18"/>
<text text-anchor="middle" x="1335.49" y="-257.3" font-family="Times,serif" font-size="14.00">Hybrid</text>
</g>
<!-- Hybrid&#45;&gt;Static -->
<g id="edge40" class="edge"><title>Hybrid&#45;&gt;Static</title>
<path fill="none" stroke="black" d="M1370.99,-263.412C1471.3,-270.425 1762.45,-290.78 1868.99,-298.228"/>
<polygon fill="black" stroke="black" points="1868.79,-301.722 1879,-298.928 1869.27,-294.739 1868.79,-301.722"/>
</g>
<!-- DataDriven -->
<g id="node42" class="node"><title>DataDriven</title>
<ellipse fill="none" stroke="black" cx="1335.49" cy="-207" rx="51.9908" ry="18"/>
<text text-anchor="middle" x="1335.49" y="-203.3" font-family="Times,serif" font-size="14.00">DataDriven</text>
</g>
<!-- DataDriven&#45;&gt;Dynamic -->
<g id="edge41" class="edge"><title>DataDriven&#45;&gt;Dynamic</title>
<path fill="none" stroke="black" d="M1387.26,-209.396C1495.23,-214.491 1746.65,-226.356 1856.13,-231.522"/>
<polygon fill="black" stroke="black" points="1856.12,-235.025 1866.28,-232.001 1856.45,-228.033 1856.12,-235.025"/>
</g>
<!-- Price -->
<g id="node43" class="node"><title>Price</title>
<ellipse fill="none" stroke="black" cx="2281.66" cy="-369" rx="28.6953" ry="18"/>
<text text-anchor="middle" x="2281.66" y="-365.3" font-family="Times,serif" font-size="14.00">Price</text>
</g>
<!-- Price&#45;&gt;Attribute -->
<g id="edge42" class="edge"><title>Price&#45;&gt;Attribute</title>
<path fill="none" stroke="black" d="M2309.73,-373.428C2324.79,-377.153 2342.9,-383.903 2355.1,-396 2403.89,-444.376 2422.4,-526.806 2428.99,-569.887"/>
<polygon fill="black" stroke="black" points="2425.55,-570.54 2430.42,-579.948 2432.48,-569.555 2425.55,-570.54"/>
</g>
<!-- Euro -->
<g id="node44" class="node"><title>Euro</title>
<ellipse fill="none" stroke="black" cx="1909.64" cy="-517" rx="27.8951" ry="18"/>
<text text-anchor="middle" x="1909.64" y="-513.3" font-family="Times,serif" font-size="14.00">Euro</text>
</g>
<!-- Euro&#45;&gt;NameAttribute -->
<g id="edge43" class="edge"><title>Euro&#45;&gt;NameAttribute</title>
<path fill="none" stroke="black" d="M1937.6,-516.638C1985.72,-516.679 2089.13,-519.889 2172.22,-544 2198.08,-551.506 2225.2,-565.013 2245.85,-576.641"/>
<polygon fill="black" stroke="black" points="2244.16,-579.703 2254.57,-581.654 2247.65,-573.635 2244.16,-579.703"/>
</g>
<!-- UsDollar -->
<g id="node45" class="node"><title>UsDollar</title>
<ellipse fill="none" stroke="black" cx="1909.64" cy="-463" rx="42.7926" ry="18"/>
<text text-anchor="middle" x="1909.64" y="-459.3" font-family="Times,serif" font-size="14.00">UsDollar</text>
</g>
<!-- UsDollar&#45;&gt;NameAttribute -->
<g id="edge44" class="edge"><title>UsDollar&#45;&gt;NameAttribute</title>
<path fill="none" stroke="black" d="M1951.87,-459.053C2005.4,-455.708 2100.45,-455.941 2172.22,-490 2210.82,-508.321 2243.72,-546.244 2262.85,-571.912"/>
<polygon fill="black" stroke="black" points="2260.08,-574.065 2268.79,-580.1 2265.75,-569.952 2260.08,-574.065"/>
</g>
<!-- JapaneseYen -->
<g id="node46" class="node"><title>JapaneseYen</title>
<ellipse fill="none" stroke="black" cx="1909.64" cy="-409" rx="56.59" ry="18"/>
<text text-anchor="middle" x="1909.64" y="-405.3" font-family="Times,serif" font-size="14.00">JapaneseYen</text>
</g>
<!-- JapaneseYen&#45;&gt;NameAttribute -->
<g id="edge45" class="edge"><title>JapaneseYen&#45;&gt;NameAttribute</title>
<path fill="none" stroke="black" d="M1962.09,-402.06C2017.94,-397.163 2107.78,-397.208 2172.22,-436 2223.64,-466.953 2255.85,-532.755 2270.8,-570.275"/>
<polygon fill="black" stroke="black" points="2267.7,-571.977 2274.56,-580.055 2274.24,-569.465 2267.7,-571.977"/>
</g>
<!-- DatabaseAsAService -->
<g id="node47" class="node"><title>DatabaseAsAService</title>
<ellipse fill="none" stroke="black" cx="1335.49" cy="-153" rx="85.2851" ry="18"/>
<text text-anchor="middle" x="1335.49" y="-149.3" font-family="Times,serif" font-size="14.00">DatabaseAsAService</text>
</g>
<!-- DatabaseAsAService&#45;&gt;SaaS -->
<g id="edge46" class="edge"><title>DatabaseAsAService&#45;&gt;SaaS</title>
<path fill="none" stroke="black" d="M1420.91,-153C1547.09,-153 1779.77,-153 1870.76,-153"/>
<polygon fill="black" stroke="black" points="1870.89,-156.5 1880.89,-153 1870.89,-149.5 1870.89,-156.5"/>
</g>
<!-- SQLDatabaseAsAService -->
<g id="node48" class="node"><title>SQLDatabaseAsAService</title>
<ellipse fill="none" stroke="black" cx="775.634" cy="-207" rx="102.082" ry="18"/>
<text text-anchor="middle" x="775.634" y="-203.3" font-family="Times,serif" font-size="14.00">SQLDatabaseAsAService</text>
</g>
<!-- SQLDatabaseAsAService&#45;&gt;DatabaseAsAService -->
<g id="edge47" class="edge"><title>SQLDatabaseAsAService&#45;&gt;DatabaseAsAService</title>
<path fill="none" stroke="black" d="M865.336,-198.414C970.209,-188.262 1143.61,-171.477 1247.66,-161.405"/>
<polygon fill="black" stroke="black" points="1248.2,-164.869 1257.82,-160.422 1247.52,-157.902 1248.2,-164.869"/>
</g>
<!-- NoSQLDatabaseAsAService -->
<g id="node49" class="node"><title>NoSQLDatabaseAsAService</title>
<ellipse fill="none" stroke="black" cx="775.634" cy="-153" rx="112.38" ry="18"/>
<text text-anchor="middle" x="775.634" y="-149.3" font-family="Times,serif" font-size="14.00">NoSQLDatabaseAsAService</text>
</g>
<!-- NoSQLDatabaseAsAService&#45;&gt;DatabaseAsAService -->
<g id="edge48" class="edge"><title>NoSQLDatabaseAsAService&#45;&gt;DatabaseAsAService</title>
<path fill="none" stroke="black" d="M888.184,-153C991.213,-153 1142.59,-153 1239.86,-153"/>
<polygon fill="black" stroke="black" points="1239.97,-156.5 1249.97,-153 1239.97,-149.5 1239.97,-156.5"/>
</g>
<!-- github.com/supermuesli/csdl@examples/Requirement1.py@latest -->
<g id="node50" class="node"><title>github.com/supermuesli/csdl@examples/Requirement1.py@latest</title>
<ellipse fill="none" stroke="black" cx="245.678" cy="-72" rx="245.857" ry="18"/>
<text text-anchor="middle" x="245.678" y="-68.3" font-family="Times,serif" font-size="14.00">github.com/supermuesli/csdl@examples/Requirement1.py@latest</text>
</g>
<!-- github.com/supermuesli/csdl@examples/Requirement1.py@latest&#45;&gt;VMAsAService -->
<g id="edge49" class="edge"><title>github.com/supermuesli/csdl@examples/Requirement1.py@latest&#45;&gt;VMAsAService</title>
<path fill="none" stroke="black" d="M447.782,-61.7154C535.605,-57.2241 633.286,-52.2286 698.791,-48.8787"/>
<polygon fill="black" stroke="black" points="699.214,-52.3617 709.022,-48.3555 698.856,-45.3709 699.214,-52.3617"/>
</g>
<!-- github.com/supermuesli/csdl@misc/StaticIp.py@latest -->
<g id="node51" class="node"><title>github.com/supermuesli/csdl@misc/StaticIp.py@latest</title>
<ellipse fill="none" stroke="black" cx="1909.64" cy="-1111" rx="206.063" ry="18"/>
<text text-anchor="middle" x="1909.64" y="-1107.3" font-family="Times,serif" font-size="14.00">github.com/supermuesli/csdl@misc/StaticIp.py@latest</text>
</g>
<!-- github.com/supermuesli/csdl@misc/StaticIp.py@latest&#45;&gt;NumericAttribute -->
<g id="edge50" class="edge"><title>github.com/supermuesli/csdl@misc/StaticIp.py@latest&#45;&gt;NumericAttribute</title>
<path fill="none" stroke="black" d="M2115.4,-1109.98C2135.84,-1116.2 2155.26,-1125.22 2172.22,-1138 2251.04,-1197.41 2272.72,-1323.44 2278.56,-1379.77"/>
<polygon fill="black" stroke="black" points="2275.08,-1380.13 2279.5,-1389.75 2282.05,-1379.47 2275.08,-1380.13"/>
</g>
<!-- github.com/supermuesli/csdl@aws/ec2/A1Large.py@latest -->
<g id="node52" class="node"><title>github.com/supermuesli/csdl@aws/ec2/A1Large.py@latest</title>
<ellipse fill="none" stroke="black" cx="245.678" cy="-18" rx="221.761" ry="18"/>
<text text-anchor="middle" x="245.678" y="-14.3" font-family="Times,serif" font-size="14.00">github.com/supermuesli/csdl@aws/ec2/A1Large.py@latest</text>
</g>
<!-- github.com/supermuesli/csdl@aws/ec2/A1Large.py@latest&#45;&gt;VMAsAService -->
<g id="edge51" class="edge"><title>github.com/supermuesli/csdl@aws/ec2/A1Large.py@latest&#45;&gt;VMAsAService</title>
<path fill="none" stroke="black" d="M433.559,-27.5572C524.834,-32.2251 629.59,-37.5823 698.656,-41.1144"/>
<polygon fill="black" stroke="black" points="698.838,-44.6282 709.004,-41.6436 699.195,-37.6373 698.838,-44.6282"/>
</g>
<!-- github.com/supermuesli/csdl@aws/regions/Region.py@latest -->
<g id="node53" class="node"><title>github.com/supermuesli/csdl@aws/regions/Region.py@latest</title>
<ellipse fill="none" stroke="black" cx="1335.49" cy="-1057" rx="229.359" ry="18"/>
<text text-anchor="middle" x="1335.49" y="-1053.3" font-family="Times,serif" font-size="14.00">github.com/supermuesli/csdl@aws/regions/Region.py@latest</text>
</g>
<!-- github.com/supermuesli/csdl@aws/regions/Region.py@latest&#45;&gt;Region -->
<g id="edge52" class="edge"><title>github.com/supermuesli/csdl@aws/regions/Region.py@latest&#45;&gt;Region</title>
<path fill="none" stroke="black" d="M1565.08,-1057C1675.65,-1057 1798.17,-1057 1862.83,-1057"/>
<polygon fill="black" stroke="black" points="1863.08,-1060.5 1873.08,-1057 1863.08,-1053.5 1863.08,-1060.5"/>
</g>
<!-- github.com/supermuesli/csdl@misc/countries/USA.py@latest -->
<g id="node54" class="node"><title>github.com/supermuesli/csdl@misc/countries/USA.py@latest</title>
<ellipse fill="none" stroke="black" cx="1335.49" cy="-895" rx="231.259" ry="18"/>
<text text-anchor="middle" x="1335.49" y="-891.3" font-family="Times,serif" font-size="14.00">github.com/supermuesli/csdl@misc/countries/USA.py@latest</text>
</g>
<!-- github.com/supermuesli/csdl@misc/countries/USA.py@latest&#45;&gt;NorthAmerica -->
<g id="edge53" class="edge"><title>github.com/supermuesli/csdl@misc/countries/USA.py@latest&#45;&gt;NorthAmerica</title>
<path fill="none" stroke="black" d="M1567.14,-895C1664.11,-895 1769.91,-895 1837.65,-895"/>
<polygon fill="black" stroke="black" points="1837.77,-898.5 1847.77,-895 1837.77,-891.5 1837.77,-898.5"/>
</g>
<!-- github.com/supermuesli/csdl@aws/regions/California.py@latest -->
<g id="node55" class="node"><title>github.com/supermuesli/csdl@aws/regions/California.py@latest</title>
<ellipse fill="none" stroke="black" cx="775.634" cy="-949" rx="239.358" ry="18"/>
<text text-anchor="middle" x="775.634" y="-945.3" font-family="Times,serif" font-size="14.00">github.com/supermuesli/csdl@aws/regions/California.py@latest</text>
</g>
<!-- github.com/supermuesli/csdl@aws/regions/California.py@latest&#45;&gt;github.com/supermuesli/csdl@misc/countries/USA.py@latest -->
<g id="edge54" class="edge"><title>github.com/supermuesli/csdl@aws/regions/California.py@latest&#45;&gt;github.com/supermuesli/csdl@misc/countries/USA.py@latest</title>
<path fill="none" stroke="black" d="M923.204,-934.812C1002.15,-927.171 1099.5,-917.747 1179.67,-909.986"/>
<polygon fill="black" stroke="black" points="1180.25,-913.447 1189.86,-909 1179.57,-906.479 1180.25,-913.447"/>
</g>
<!-- github.com/supermuesli/csdl@aws/regions/EastVirginia.py@latest -->
<g id="node56" class="node"><title>github.com/supermuesli/csdl@aws/regions/EastVirginia.py@latest</title>
<ellipse fill="none" stroke="black" cx="775.634" cy="-895" rx="248.056" ry="18"/>
<text text-anchor="middle" x="775.634" y="-891.3" font-family="Times,serif" font-size="14.00">github.com/supermuesli/csdl@aws/regions/EastVirginia.py@latest</text>
</g>
<!-- github.com/supermuesli/csdl@aws/regions/EastVirginia.py@latest&#45;&gt;github.com/supermuesli/csdl@misc/countries/USA.py@latest -->
<g id="edge55" class="edge"><title>github.com/supermuesli/csdl@aws/regions/EastVirginia.py@latest&#45;&gt;github.com/supermuesli/csdl@misc/countries/USA.py@latest</title>
<path fill="none" stroke="black" d="M1024.16,-895C1047.24,-895 1070.62,-895 1093.64,-895"/>
<polygon fill="black" stroke="black" points="1093.84,-898.5 1103.84,-895 1093.84,-891.5 1093.84,-898.5"/>
</g>
<!-- github.com/supermuesli/csdl@aws/regions/NewYork.py@latest -->
<g id="node57" class="node"><title>github.com/supermuesli/csdl@aws/regions/NewYork.py@latest</title>
<ellipse fill="none" stroke="black" cx="775.634" cy="-841" rx="238.558" ry="18"/>
<text text-anchor="middle" x="775.634" y="-837.3" font-family="Times,serif" font-size="14.00">github.com/supermuesli/csdl@aws/regions/NewYork.py@latest</text>
</g>
<!-- github.com/supermuesli/csdl@aws/regions/NewYork.py@latest&#45;&gt;github.com/supermuesli/csdl@misc/countries/USA.py@latest -->
<g id="edge56" class="edge"><title>github.com/supermuesli/csdl@aws/regions/NewYork.py@latest&#45;&gt;github.com/supermuesli/csdl@misc/countries/USA.py@latest</title>
<path fill="none" stroke="black" d="M923.204,-855.188C1002.15,-862.829 1099.5,-872.253 1179.67,-880.014"/>
<polygon fill="black" stroke="black" points="1179.57,-883.521 1189.86,-881 1180.25,-876.553 1179.57,-883.521"/>
</g>
<!-- github.com/supermuesli/csdl@aws/EBS.py@latest -->
<g id="node58" class="node"><title>github.com/supermuesli/csdl@aws/EBS.py@latest</title>
<ellipse fill="none" stroke="black" cx="775.634" cy="-99" rx="191.966" ry="18"/>
<text text-anchor="middle" x="775.634" y="-95.3" font-family="Times,serif" font-size="14.00">github.com/supermuesli/csdl@aws/EBS.py@latest</text>
</g>
<!-- github.com/supermuesli/csdl@aws/EBS.py@latest&#45;&gt;StorageAsAService -->
<g id="edge57" class="edge"><title>github.com/supermuesli/csdl@aws/EBS.py@latest&#45;&gt;StorageAsAService</title>
<path fill="none" stroke="black" d="M967.445,-99C1061.47,-99 1170.37,-99 1244.99,-99"/>
<polygon fill="black" stroke="black" points="1245.29,-102.5 1255.29,-99 1245.29,-95.5001 1245.29,-102.5"/>
</g>
<!-- github.com/supermuesli/csdl@aws/ec2/ElasticIpAmount.py@latest -->
<g id="node59" class="node"><title>github.com/supermuesli/csdl@aws/ec2/ElasticIpAmount.py@latest</title>
<ellipse fill="none" stroke="black" cx="1335.49" cy="-1111" rx="250.756" ry="18"/>
<text text-anchor="middle" x="1335.49" y="-1107.3" font-family="Times,serif" font-size="14.00">github.com/supermuesli/csdl@aws/ec2/ElasticIpAmount.py@latest</text>
</g>
<!-- github.com/supermuesli/csdl@aws/ec2/ElasticIpAmount.py@latest&#45;&gt;github.com/supermuesli/csdl@misc/StaticIp.py@latest -->
<g id="edge58" class="edge"><title>github.com/supermuesli/csdl@aws/ec2/ElasticIpAmount.py@latest&#45;&gt;github.com/supermuesli/csdl@misc/StaticIp.py@latest</title>
<path fill="none" stroke="black" d="M1586.61,-1111C1622.05,-1111 1658.24,-1111 1692.96,-1111"/>
<polygon fill="black" stroke="black" points="1693.19,-1114.5 1703.19,-1111 1693.19,-1107.5 1693.19,-1114.5"/>
</g>
<!-- github.com/supermuesli/csdl@misc/currencies/FeritsCurrencies.py@latest -->
<g id="node60" class="node"><title>github.com/supermuesli/csdl@misc/currencies/FeritsCurrencies.py@latest</title>
<ellipse fill="none" stroke="black" cx="1335.49" cy="-1003" rx="275.651" ry="18"/>
<text text-anchor="middle" x="1335.49" y="-999.3" font-family="Times,serif" font-size="14.00">github.com/supermuesli/csdl@misc/currencies/FeritsCurrencies.py@latest</text>
</g>
<!-- github.com/supermuesli/csdl@misc/currencies/FeritsCurrencies.py@latest&#45;&gt;Currency -->
<g id="edge59" class="edge"><title>github.com/supermuesli/csdl@misc/currencies/FeritsCurrencies.py@latest&#45;&gt;Currency</title>
<path fill="none" stroke="black" d="M1611.25,-1003C1704.32,-1003 1798.98,-1003 1855.76,-1003"/>
<polygon fill="black" stroke="black" points="1855.91,-1006.5 1865.91,-1003 1855.91,-999.5 1855.91,-1006.5"/>
</g>
<!-- github.com/supermuesli/csdl@misc/currencies/IndianRupee.py@latest -->
<g id="node61" class="node"><title>github.com/supermuesli/csdl@misc/currencies/IndianRupee.py@latest</title>
<ellipse fill="none" stroke="black" cx="1909.64" cy="-355" rx="262.653" ry="18"/>
<text text-anchor="middle" x="1909.64" y="-351.3" font-family="Times,serif" font-size="14.00">github.com/supermuesli/csdl@misc/currencies/IndianRupee.py@latest</text>
</g>
<!-- github.com/supermuesli/csdl@misc/currencies/IndianRupee.py@latest&#45;&gt;NameAttribute -->
<g id="edge60" class="edge"><title>github.com/supermuesli/csdl@misc/currencies/IndianRupee.py@latest&#45;&gt;NameAttribute</title>
<path fill="none" stroke="black" d="M2138.8,-363.953C2150.55,-368.849 2161.79,-374.803 2172.22,-382 2176.5,-384.958 2239.35,-513.214 2267.36,-570.665"/>
<polygon fill="black" stroke="black" points="2264.33,-572.43 2271.85,-579.887 2270.62,-569.364 2264.33,-572.43"/>
</g>
</g>
</svg>
