<?xml version="1.0" encoding="UTF-8" standalone="no"?>
<!DOCTYPE svg PUBLIC "-//W3C//DTD SVG 1.1//EN"
 "http://www.w3.org/Graphics/SVG/1.1/DTD/svg11.dtd">
<!-- Generated by graphviz version 2.38.0 (20140413.2041)
 -->
<!-- Title: %3 Pages: 1 -->
<svg width="2625pt" height="2123pt"
 viewBox="0.00 0.00 2624.89 2123.00" xmlns="http://www.w3.org/2000/svg" xmlns:xlink="http://www.w3.org/1999/xlink">
<g id="graph0" class="graph" transform="scale(1 1) rotate(0) translate(4 2119)">
<title>%3</title>
<polygon fill="white" stroke="none" points="-4,4 -4,-2119 2620.89,-2119 2620.89,4 -4,4"/>
<!-- VMAsAService -->
<g id="node1" class="node"><title>VMAsAService</title>
<ellipse fill="none" stroke="black" cx="813.981" cy="-18" rx="67.6881" ry="18"/>
<text text-anchor="middle" x="813.981" y="-14.3" font-family="Times,serif" font-size="14.00">VMAsAService</text>
</g>
<!-- ServerAsAService -->
<g id="node2" class="node"><title>ServerAsAService</title>
<ellipse fill="none" stroke="black" cx="1369.28" cy="-45" rx="76.0865" ry="18"/>
<text text-anchor="middle" x="1369.28" y="-41.3" font-family="Times,serif" font-size="14.00">ServerAsAService</text>
</g>
<!-- VMAsAService&#45;&gt;ServerAsAService -->
<g id="edge1" class="edge"><title>VMAsAService&#45;&gt;ServerAsAService</title>
<path fill="none" stroke="black" d="M880.625,-21.2033C981.252,-26.1137 1173.58,-35.4988 1284.25,-40.8994"/>
<polygon fill="black" stroke="black" points="1284.22,-44.4017 1294.37,-41.3933 1284.56,-37.41 1284.22,-44.4017"/>
</g>
<!-- IaaS -->
<g id="node3" class="node"><title>IaaS</title>
<ellipse fill="none" stroke="black" cx="1934.34" cy="-126" rx="27" ry="18"/>
<text text-anchor="middle" x="1934.34" y="-122.3" font-family="Times,serif" font-size="14.00">IaaS</text>
</g>
<!-- ServerAsAService&#45;&gt;IaaS -->
<g id="edge2" class="edge"><title>ServerAsAService&#45;&gt;IaaS</title>
<path fill="none" stroke="black" d="M1434.6,-54.2523C1553.65,-71.3792 1804.71,-107.496 1897.7,-120.874"/>
<polygon fill="black" stroke="black" points="1897.34,-124.357 1907.74,-122.317 1898.34,-117.428 1897.34,-124.357"/>
</g>
<!-- CCS -->
<g id="node5" class="node"><title>CCS</title>
<ellipse fill="none" stroke="black" cx="2321.96" cy="-207" rx="27.0966" ry="18"/>
<text text-anchor="middle" x="2321.96" y="-203.3" font-family="Times,serif" font-size="14.00">CCS</text>
</g>
<!-- IaaS&#45;&gt;CCS -->
<g id="edge4" class="edge"><title>IaaS&#45;&gt;CCS</title>
<path fill="none" stroke="black" d="M1960.65,-130.48C2009.51,-139.226 2120.14,-159.516 2212.51,-180 2237.26,-185.487 2264.98,-192.404 2286.21,-197.863"/>
<polygon fill="black" stroke="black" points="2285.5,-201.296 2296.06,-200.413 2287.26,-194.52 2285.5,-201.296"/>
</g>
<!-- SaaS -->
<g id="node4" class="node"><title>SaaS</title>
<ellipse fill="none" stroke="black" cx="1934.34" cy="-207" rx="28.6953" ry="18"/>
<text text-anchor="middle" x="1934.34" y="-203.3" font-family="Times,serif" font-size="14.00">SaaS</text>
</g>
<!-- SaaS&#45;&gt;CCS -->
<g id="edge3" class="edge"><title>SaaS&#45;&gt;CCS</title>
<path fill="none" stroke="black" d="M1963.07,-207C2031.35,-207 2207.61,-207 2284.35,-207"/>
<polygon fill="black" stroke="black" points="2284.5,-210.5 2294.5,-207 2284.5,-203.5 2284.5,-210.5"/>
</g>
<!-- Attribute -->
<g id="node8" class="node"><title>Attribute</title>
<ellipse fill="none" stroke="black" cx="2473.65" cy="-666" rx="42.4939" ry="18"/>
<text text-anchor="middle" x="2473.65" y="-662.3" font-family="Times,serif" font-size="14.00">Attribute</text>
</g>
<!-- CCS&#45;&gt;Attribute -->
<g id="edge10" class="edge"><title>CCS&#45;&gt;Attribute</title>
<path fill="none" stroke="black" d="M2328.73,-224.712C2351.58,-294.775 2435.76,-552.887 2463.62,-638.329"/>
<polygon fill="black" stroke="black" points="2460.38,-639.671 2466.81,-648.093 2467.03,-637.501 2460.38,-639.671"/>
</g>
<!-- StorageAsAService -->
<g id="node6" class="node"><title>StorageAsAService</title>
<ellipse fill="none" stroke="black" cx="1369.28" cy="-126" rx="79.8859" ry="18"/>
<text text-anchor="middle" x="1369.28" y="-122.3" font-family="Times,serif" font-size="14.00">StorageAsAService</text>
</g>
<!-- StorageAsAService&#45;&gt;IaaS -->
<g id="edge5" class="edge"><title>StorageAsAService&#45;&gt;IaaS</title>
<path fill="none" stroke="black" d="M1449.46,-126C1573.17,-126 1807.39,-126 1897.11,-126"/>
<polygon fill="black" stroke="black" points="1897.32,-129.5 1907.32,-126 1897.32,-122.5 1897.32,-129.5"/>
</g>
<!-- NumericAttribute -->
<g id="node7" class="node"><title>NumericAttribute</title>
<ellipse fill="none" stroke="black" cx="2321.96" cy="-1692" rx="73.387" ry="18"/>
<text text-anchor="middle" x="2321.96" y="-1688.3" font-family="Times,serif" font-size="14.00">NumericAttribute</text>
</g>
<!-- NumericAttribute&#45;&gt;Attribute -->
<g id="edge6" class="edge"><title>NumericAttribute&#45;&gt;Attribute</title>
<path fill="none" stroke="black" d="M2325.62,-1673.76C2343.53,-1551 2446.41,-845.8 2468.48,-694.557"/>
<polygon fill="black" stroke="black" points="2472,-694.661 2469.98,-684.261 2465.08,-693.651 2472,-694.661"/>
</g>
<!-- object -->
<g id="node12" class="node"><title>object</title>
<ellipse fill="none" stroke="black" cx="2584.39" cy="-666" rx="32.4942" ry="18"/>
<text text-anchor="middle" x="2584.39" y="-662.3" font-family="Times,serif" font-size="14.00">object</text>
</g>
<!-- Attribute&#45;&gt;object -->
<g id="edge11" class="edge"><title>Attribute&#45;&gt;object</title>
<path fill="none" stroke="black" d="M2516.07,-666C2524.34,-666 2533.04,-666 2541.33,-666"/>
<polygon fill="black" stroke="black" points="2541.56,-669.5 2551.56,-666 2541.56,-662.5 2541.56,-669.5"/>
</g>
<!-- ChoiceAttribute -->
<g id="node9" class="node"><title>ChoiceAttribute</title>
<ellipse fill="none" stroke="black" cx="2321.96" cy="-1125" rx="67.6881" ry="18"/>
<text text-anchor="middle" x="2321.96" y="-1121.3" font-family="Times,serif" font-size="14.00">ChoiceAttribute</text>
</g>
<!-- ChoiceAttribute&#45;&gt;Attribute -->
<g id="edge7" class="edge"><title>ChoiceAttribute&#45;&gt;Attribute</title>
<path fill="none" stroke="black" d="M2328.82,-1107.01C2351.81,-1036.52 2435.83,-778.882 2463.64,-693.613"/>
<polygon fill="black" stroke="black" points="2467.05,-694.461 2466.82,-683.869 2460.39,-692.291 2467.05,-694.461"/>
</g>
<!-- BoolAttribute -->
<g id="node10" class="node"><title>BoolAttribute</title>
<ellipse fill="none" stroke="black" cx="2321.96" cy="-693" rx="59.5901" ry="18"/>
<text text-anchor="middle" x="2321.96" y="-689.3" font-family="Times,serif" font-size="14.00">BoolAttribute</text>
</g>
<!-- BoolAttribute&#45;&gt;Attribute -->
<g id="edge8" class="edge"><title>BoolAttribute&#45;&gt;Attribute</title>
<path fill="none" stroke="black" d="M2373.63,-683.859C2389.92,-680.922 2407.91,-677.678 2424.03,-674.768"/>
<polygon fill="black" stroke="black" points="2425.11,-678.131 2434.33,-672.912 2423.87,-671.242 2425.11,-678.131"/>
</g>
<!-- OptionAttribute -->
<g id="node11" class="node"><title>OptionAttribute</title>
<ellipse fill="none" stroke="black" cx="2321.96" cy="-639" rx="66.8882" ry="18"/>
<text text-anchor="middle" x="2321.96" y="-635.3" font-family="Times,serif" font-size="14.00">OptionAttribute</text>
</g>
<!-- OptionAttribute&#45;&gt;Attribute -->
<g id="edge9" class="edge"><title>OptionAttribute&#45;&gt;Attribute</title>
<path fill="none" stroke="black" d="M2378.27,-648.977C2393.43,-651.711 2409.73,-654.652 2424.46,-657.308"/>
<polygon fill="black" stroke="black" points="2423.9,-660.764 2434.36,-659.095 2425.14,-653.875 2423.9,-660.764"/>
</g>
<!-- Region -->
<g id="node13" class="node"><title>Region</title>
<ellipse fill="none" stroke="black" cx="1934.34" cy="-1287" rx="36.2938" ry="18"/>
<text text-anchor="middle" x="1934.34" y="-1283.3" font-family="Times,serif" font-size="14.00">Region</text>
</g>
<!-- Region&#45;&gt;ChoiceAttribute -->
<g id="edge12" class="edge"><title>Region&#45;&gt;ChoiceAttribute</title>
<path fill="none" stroke="black" d="M1969.76,-1291.79C2024.71,-1297.72 2134.04,-1302.42 2212.51,-1260 2257.33,-1235.77 2290.33,-1184.46 2307.52,-1152.54"/>
<polygon fill="black" stroke="black" points="2310.82,-1153.79 2312.35,-1143.31 2304.61,-1150.55 2310.82,-1153.79"/>
</g>
<!-- NorthAmerica -->
<g id="node14" class="node"><title>NorthAmerica</title>
<ellipse fill="none" stroke="black" cx="1934.34" cy="-963" rx="61.99" ry="18"/>
<text text-anchor="middle" x="1934.34" y="-959.3" font-family="Times,serif" font-size="14.00">NorthAmerica</text>
</g>
<!-- NorthAmerica&#45;&gt;OptionAttribute -->
<g id="edge13" class="edge"><title>NorthAmerica&#45;&gt;OptionAttribute</title>
<path fill="none" stroke="black" d="M1982.74,-974.249C2044.46,-985.8 2151.63,-994.759 2212.51,-936 2299.62,-851.927 2173.02,-760.643 2248.51,-666 2251.83,-661.844 2255.85,-658.327 2260.29,-655.352"/>
<polygon fill="black" stroke="black" points="2262.27,-658.252 2269.24,-650.272 2258.81,-652.163 2262.27,-658.252"/>
</g>
<!-- Australia -->
<g id="node15" class="node"><title>Australia</title>
<ellipse fill="none" stroke="black" cx="1934.34" cy="-909" rx="42.7926" ry="18"/>
<text text-anchor="middle" x="1934.34" y="-905.3" font-family="Times,serif" font-size="14.00">Australia</text>
</g>
<!-- Australia&#45;&gt;OptionAttribute -->
<g id="edge14" class="edge"><title>Australia&#45;&gt;OptionAttribute</title>
<path fill="none" stroke="black" d="M1971.91,-917.914C2030.88,-929.898 2146.97,-943.224 2212.51,-882 2283.63,-815.562 2186.59,-741.086 2248.51,-666 2251.9,-661.898 2255.97,-658.42 2260.43,-655.469"/>
<polygon fill="black" stroke="black" points="2262.41,-658.368 2269.42,-650.422 2258.99,-652.264 2262.41,-658.368"/>
</g>
<!-- Africa -->
<g id="node16" class="node"><title>Africa</title>
<ellipse fill="none" stroke="black" cx="1934.34" cy="-855" rx="33.2948" ry="18"/>
<text text-anchor="middle" x="1934.34" y="-851.3" font-family="Times,serif" font-size="14.00">Africa</text>
</g>
<!-- Africa&#45;&gt;OptionAttribute -->
<g id="edge15" class="edge"><title>Africa&#45;&gt;OptionAttribute</title>
<path fill="none" stroke="black" d="M1965.18,-862.228C2021.22,-873.872 2142.83,-889.692 2212.51,-828 2267.74,-779.111 2200.08,-721.627 2248.51,-666 2252.15,-661.824 2256.49,-658.293 2261.22,-655.307"/>
<polygon fill="black" stroke="black" points="2262.97,-658.345 2270.09,-650.501 2259.63,-652.191 2262.97,-658.345"/>
</g>
<!-- EastAsia -->
<g id="node17" class="node"><title>EastAsia</title>
<ellipse fill="none" stroke="black" cx="1934.34" cy="-801" rx="42.4939" ry="18"/>
<text text-anchor="middle" x="1934.34" y="-797.3" font-family="Times,serif" font-size="14.00">EastAsia</text>
</g>
<!-- EastAsia&#45;&gt;OptionAttribute -->
<g id="edge16" class="edge"><title>EastAsia&#45;&gt;OptionAttribute</title>
<path fill="none" stroke="black" d="M1972.27,-808.955C2030.2,-819.143 2142.95,-829.458 2212.51,-774 2252.08,-742.459 2213.37,-702.398 2248.51,-666 2252.42,-661.957 2256.98,-658.514 2261.89,-655.583"/>
<polygon fill="black" stroke="black" points="2263.76,-658.557 2271.02,-650.842 2260.53,-652.345 2263.76,-658.557"/>
</g>
<!-- SouthAmerica -->
<g id="node18" class="node"><title>SouthAmerica</title>
<ellipse fill="none" stroke="black" cx="1934.34" cy="-747" rx="61.99" ry="18"/>
<text text-anchor="middle" x="1934.34" y="-743.3" font-family="Times,serif" font-size="14.00">SouthAmerica</text>
</g>
<!-- SouthAmerica&#45;&gt;OptionAttribute -->
<g id="edge17" class="edge"><title>SouthAmerica&#45;&gt;OptionAttribute</title>
<path fill="none" stroke="black" d="M1990.11,-754.788C2049.3,-760.377 2144.29,-760.887 2212.51,-720 2237.25,-705.171 2225.9,-683.907 2248.51,-666 2253.42,-662.118 2258.93,-658.754 2264.68,-655.849"/>
<polygon fill="black" stroke="black" points="2266.21,-658.999 2273.84,-651.653 2263.29,-652.634 2266.21,-658.999"/>
</g>
<!-- Europe -->
<g id="node19" class="node"><title>Europe</title>
<ellipse fill="none" stroke="black" cx="1934.34" cy="-693" rx="36.2938" ry="18"/>
<text text-anchor="middle" x="1934.34" y="-689.3" font-family="Times,serif" font-size="14.00">Europe</text>
</g>
<!-- Europe&#45;&gt;OptionAttribute -->
<g id="edge18" class="edge"><title>Europe&#45;&gt;OptionAttribute</title>
<path fill="none" stroke="black" d="M1970.56,-691.23C2023.42,-688.2 2126.27,-680.854 2212.51,-666 2229.94,-662.999 2248.69,-658.714 2265.63,-654.439"/>
<polygon fill="black" stroke="black" points="2266.55,-657.815 2275.37,-651.933 2264.81,-651.036 2266.55,-657.815"/>
</g>
<!-- Antarctica -->
<g id="node20" class="node"><title>Antarctica</title>
<ellipse fill="none" stroke="black" cx="1934.34" cy="-639" rx="47.3916" ry="18"/>
<text text-anchor="middle" x="1934.34" y="-635.3" font-family="Times,serif" font-size="14.00">Antarctica</text>
</g>
<!-- Antarctica&#45;&gt;OptionAttribute -->
<g id="edge19" class="edge"><title>Antarctica&#45;&gt;OptionAttribute</title>
<path fill="none" stroke="black" d="M1981.85,-639C2047.03,-639 2166.33,-639 2244.63,-639"/>
<polygon fill="black" stroke="black" points="2244.92,-642.5 2254.92,-639 2244.92,-635.5 2244.92,-642.5"/>
</g>
<!-- Storage -->
<g id="node21" class="node"><title>Storage</title>
<ellipse fill="none" stroke="black" cx="1934.34" cy="-2097" rx="37.8943" ry="18"/>
<text text-anchor="middle" x="1934.34" y="-2093.3" font-family="Times,serif" font-size="14.00">Storage</text>
</g>
<!-- Storage&#45;&gt;NumericAttribute -->
<g id="edge20" class="edge"><title>Storage&#45;&gt;NumericAttribute</title>
<path fill="none" stroke="black" d="M1968.83,-2104.61C2025.92,-2115.46 2142.66,-2128.16 2212.51,-2070 2267.39,-2024.32 2304.98,-1800.95 2316.91,-1720.74"/>
<polygon fill="black" stroke="black" points="2320.43,-1720.81 2318.42,-1710.41 2313.51,-1719.8 2320.43,-1720.81"/>
</g>
<!-- StorageWriteSpeed -->
<g id="node22" class="node"><title>StorageWriteSpeed</title>
<ellipse fill="none" stroke="black" cx="1934.34" cy="-2043" rx="79.0865" ry="18"/>
<text text-anchor="middle" x="1934.34" y="-2039.3" font-family="Times,serif" font-size="14.00">StorageWriteSpeed</text>
</g>
<!-- StorageWriteSpeed&#45;&gt;NumericAttribute -->
<g id="edge21" class="edge"><title>StorageWriteSpeed&#45;&gt;NumericAttribute</title>
<path fill="none" stroke="black" d="M1995.51,-2054.52C2056.81,-2062.65 2151.34,-2064.71 2212.51,-2016 2305.73,-1941.78 2319.43,-1784.54 2321,-1720.27"/>
<polygon fill="black" stroke="black" points="2324.51,-1720.14 2321.17,-1710.08 2317.51,-1720.03 2324.51,-1720.14"/>
</g>
<!-- StorageReadSpeed -->
<g id="node23" class="node"><title>StorageReadSpeed</title>
<ellipse fill="none" stroke="black" cx="1934.34" cy="-1989" rx="77.1866" ry="18"/>
<text text-anchor="middle" x="1934.34" y="-1985.3" font-family="Times,serif" font-size="14.00">StorageReadSpeed</text>
</g>
<!-- StorageReadSpeed&#45;&gt;NumericAttribute -->
<g id="edge22" class="edge"><title>StorageReadSpeed&#45;&gt;NumericAttribute</title>
<path fill="none" stroke="black" d="M1996.07,-1999.92C2056.94,-2007.32 2150.31,-2008.6 2212.51,-1962 2291.51,-1902.82 2313.09,-1776.67 2318.88,-1720.27"/>
<polygon fill="black" stroke="black" points="2322.37,-1720.55 2319.82,-1710.27 2315.4,-1719.9 2322.37,-1720.55"/>
</g>
<!-- OperatingSystem -->
<g id="node24" class="node"><title>OperatingSystem</title>
<ellipse fill="none" stroke="black" cx="1934.34" cy="-1233" rx="72.2875" ry="18"/>
<text text-anchor="middle" x="1934.34" y="-1229.3" font-family="Times,serif" font-size="14.00">OperatingSystem</text>
</g>
<!-- OperatingSystem&#45;&gt;ChoiceAttribute -->
<g id="edge23" class="edge"><title>OperatingSystem&#45;&gt;ChoiceAttribute</title>
<path fill="none" stroke="black" d="M2005.21,-1236.42C2062.74,-1236.87 2145.44,-1231.96 2212.51,-1206 2244.96,-1193.44 2276.16,-1168.31 2296.69,-1149.35"/>
<polygon fill="black" stroke="black" points="2299.15,-1151.84 2304.02,-1142.43 2294.35,-1146.75 2299.15,-1151.84"/>
</g>
<!-- CpuCores -->
<g id="node25" class="node"><title>CpuCores</title>
<ellipse fill="none" stroke="black" cx="1934.34" cy="-1935" rx="46.2923" ry="18"/>
<text text-anchor="middle" x="1934.34" y="-1931.3" font-family="Times,serif" font-size="14.00">CpuCores</text>
</g>
<!-- CpuCores&#45;&gt;NumericAttribute -->
<g id="edge24" class="edge"><title>CpuCores&#45;&gt;NumericAttribute</title>
<path fill="none" stroke="black" d="M1976.6,-1942.5C2034.67,-1950.69 2141.35,-1956.82 2212.51,-1908 2277.65,-1863.31 2305.63,-1767.54 2315.88,-1719.98"/>
<polygon fill="black" stroke="black" points="2319.33,-1720.56 2317.91,-1710.06 2312.48,-1719.16 2319.33,-1720.56"/>
</g>
<!-- CpuClockSpeed -->
<g id="node26" class="node"><title>CpuClockSpeed</title>
<ellipse fill="none" stroke="black" cx="1934.34" cy="-1881" rx="67.6881" ry="18"/>
<text text-anchor="middle" x="1934.34" y="-1877.3" font-family="Times,serif" font-size="14.00">CpuClockSpeed</text>
</g>
<!-- CpuClockSpeed&#45;&gt;NumericAttribute -->
<g id="edge25" class="edge"><title>CpuClockSpeed&#45;&gt;NumericAttribute</title>
<path fill="none" stroke="black" d="M1994.75,-1889.18C2054.16,-1894.33 2146.02,-1893.77 2212.51,-1854 2264.02,-1823.19 2296.2,-1757.34 2311.12,-1719.77"/>
<polygon fill="black" stroke="black" points="2314.56,-1720.56 2314.87,-1709.97 2308.03,-1718.06 2314.56,-1720.56"/>
</g>
<!-- Ram -->
<g id="node27" class="node"><title>Ram</title>
<ellipse fill="none" stroke="black" cx="1934.34" cy="-1827" rx="27.8951" ry="18"/>
<text text-anchor="middle" x="1934.34" y="-1823.3" font-family="Times,serif" font-size="14.00">Ram</text>
</g>
<!-- Ram&#45;&gt;NumericAttribute -->
<g id="edge26" class="edge"><title>Ram&#45;&gt;NumericAttribute</title>
<path fill="none" stroke="black" d="M1962.1,-1830.12C2013.43,-1834.92 2128.1,-1839.76 2212.51,-1800 2251.17,-1781.79 2284.05,-1743.84 2303.16,-1718.13"/>
<polygon fill="black" stroke="black" points="2306.07,-1720.09 2309.1,-1709.93 2300.4,-1715.98 2306.07,-1720.09"/>
</g>
<!-- RamClockSpeed -->
<g id="node28" class="node"><title>RamClockSpeed</title>
<ellipse fill="none" stroke="black" cx="1934.34" cy="-1773" rx="70.3881" ry="18"/>
<text text-anchor="middle" x="1934.34" y="-1769.3" font-family="Times,serif" font-size="14.00">RamClockSpeed</text>
</g>
<!-- RamClockSpeed&#45;&gt;NumericAttribute -->
<g id="edge27" class="edge"><title>RamClockSpeed&#45;&gt;NumericAttribute</title>
<path fill="none" stroke="black" d="M2004.7,-1773.19C2061.57,-1771.7 2143.62,-1765.78 2212.51,-1746 2238.05,-1738.67 2264.78,-1725.43 2285.32,-1713.89"/>
<polygon fill="black" stroke="black" points="2287.07,-1716.92 2294.01,-1708.91 2283.59,-1710.85 2287.07,-1716.92"/>
</g>
<!-- RamWriteSpeed -->
<g id="node29" class="node"><title>RamWriteSpeed</title>
<ellipse fill="none" stroke="black" cx="1934.34" cy="-1719" rx="69.5877" ry="18"/>
<text text-anchor="middle" x="1934.34" y="-1715.3" font-family="Times,serif" font-size="14.00">RamWriteSpeed</text>
</g>
<!-- RamWriteSpeed&#45;&gt;NumericAttribute -->
<g id="edge28" class="edge"><title>RamWriteSpeed&#45;&gt;NumericAttribute</title>
<path fill="none" stroke="black" d="M2001.63,-1714.36C2067.92,-1709.72 2169.95,-1702.57 2240.76,-1697.62"/>
<polygon fill="black" stroke="black" points="2241.24,-1701.09 2250.98,-1696.9 2240.76,-1694.11 2241.24,-1701.09"/>
</g>
<!-- RamReadSpeed -->
<g id="node30" class="node"><title>RamReadSpeed</title>
<ellipse fill="none" stroke="black" cx="1934.34" cy="-1665" rx="67.6881" ry="18"/>
<text text-anchor="middle" x="1934.34" y="-1661.3" font-family="Times,serif" font-size="14.00">RamReadSpeed</text>
</g>
<!-- RamReadSpeed&#45;&gt;NumericAttribute -->
<g id="edge29" class="edge"><title>RamReadSpeed&#45;&gt;NumericAttribute</title>
<path fill="none" stroke="black" d="M1999.88,-1669.52C2066.09,-1674.16 2169.24,-1681.38 2240.68,-1686.38"/>
<polygon fill="black" stroke="black" points="2240.76,-1689.89 2250.98,-1687.1 2241.25,-1682.91 2240.76,-1689.89"/>
</g>
<!-- NetworkCapacity -->
<g id="node31" class="node"><title>NetworkCapacity</title>
<ellipse fill="none" stroke="black" cx="1934.34" cy="-1611" rx="72.5877" ry="18"/>
<text text-anchor="middle" x="1934.34" y="-1607.3" font-family="Times,serif" font-size="14.00">NetworkCapacity</text>
</g>
<!-- NetworkCapacity&#45;&gt;NumericAttribute -->
<g id="edge30" class="edge"><title>NetworkCapacity&#45;&gt;NumericAttribute</title>
<path fill="none" stroke="black" d="M2007.3,-1610.88C2064.05,-1612.48 2144.66,-1618.52 2212.51,-1638 2238.05,-1645.33 2264.78,-1658.57 2285.32,-1670.11"/>
<polygon fill="black" stroke="black" points="2283.59,-1673.15 2294.01,-1675.09 2287.07,-1667.08 2283.59,-1673.15"/>
</g>
<!-- NetworkUploadSpeed -->
<g id="node32" class="node"><title>NetworkUploadSpeed</title>
<ellipse fill="none" stroke="black" cx="1934.34" cy="-1557" rx="89.0842" ry="18"/>
<text text-anchor="middle" x="1934.34" y="-1553.3" font-family="Times,serif" font-size="14.00">NetworkUploadSpeed</text>
</g>
<!-- NetworkUploadSpeed&#45;&gt;NumericAttribute -->
<g id="edge31" class="edge"><title>NetworkUploadSpeed&#45;&gt;NumericAttribute</title>
<path fill="none" stroke="black" d="M2018.01,-1550.82C2075.23,-1549.86 2151.72,-1555.36 2212.51,-1584 2251.17,-1602.21 2284.05,-1640.16 2303.16,-1665.87"/>
<polygon fill="black" stroke="black" points="2300.4,-1668.02 2309.1,-1674.07 2306.07,-1663.91 2300.4,-1668.02"/>
</g>
<!-- NetworkDownloadSpeed -->
<g id="node33" class="node"><title>NetworkDownloadSpeed</title>
<ellipse fill="none" stroke="black" cx="1934.34" cy="-1503" rx="99.3824" ry="18"/>
<text text-anchor="middle" x="1934.34" y="-1499.3" font-family="Times,serif" font-size="14.00">NetworkDownloadSpeed</text>
</g>
<!-- NetworkDownloadSpeed&#45;&gt;NumericAttribute -->
<g id="edge32" class="edge"><title>NetworkDownloadSpeed&#45;&gt;NumericAttribute</title>
<path fill="none" stroke="black" d="M2018.09,-1493.24C2076.42,-1490.41 2154.21,-1495.13 2212.51,-1530 2264.02,-1560.81 2296.2,-1626.66 2311.12,-1664.23"/>
<polygon fill="black" stroke="black" points="2308.03,-1665.94 2314.87,-1674.03 2314.56,-1663.44 2308.03,-1665.94"/>
</g>
<!-- PricingModel -->
<g id="node34" class="node"><title>PricingModel</title>
<ellipse fill="none" stroke="black" cx="1934.34" cy="-1179" rx="59.5901" ry="18"/>
<text text-anchor="middle" x="1934.34" y="-1175.3" font-family="Times,serif" font-size="14.00">PricingModel</text>
</g>
<!-- PricingModel&#45;&gt;ChoiceAttribute -->
<g id="edge33" class="edge"><title>PricingModel&#45;&gt;ChoiceAttribute</title>
<path fill="none" stroke="black" d="M1993.27,-1175.84C2049.57,-1172.19 2137.35,-1164.95 2212.51,-1152 2229.86,-1149.01 2248.52,-1144.75 2265.4,-1140.5"/>
<polygon fill="black" stroke="black" points="2266.29,-1143.88 2275.1,-1138 2264.54,-1137.1 2266.29,-1143.88"/>
</g>
<!-- PayAndGo -->
<g id="node35" class="node"><title>PayAndGo</title>
<ellipse fill="none" stroke="black" cx="1934.34" cy="-585" rx="50.0912" ry="18"/>
<text text-anchor="middle" x="1934.34" y="-581.3" font-family="Times,serif" font-size="14.00">PayAndGo</text>
</g>
<!-- PayAndGo&#45;&gt;OptionAttribute -->
<g id="edge34" class="edge"><title>PayAndGo&#45;&gt;OptionAttribute</title>
<path fill="none" stroke="black" d="M1984.19,-587.583C2039.8,-591.025 2133.18,-598.336 2212.51,-612 2229.94,-615.001 2248.69,-619.286 2265.63,-623.561"/>
<polygon fill="black" stroke="black" points="2264.81,-626.964 2275.37,-626.067 2266.55,-620.185 2264.81,-626.964"/>
</g>
<!-- Subscription -->
<g id="node36" class="node"><title>Subscription</title>
<ellipse fill="none" stroke="black" cx="1934.34" cy="-531" rx="55.4913" ry="18"/>
<text text-anchor="middle" x="1934.34" y="-527.3" font-family="Times,serif" font-size="14.00">Subscription</text>
</g>
<!-- Subscription&#45;&gt;OptionAttribute -->
<g id="edge35" class="edge"><title>Subscription&#45;&gt;OptionAttribute</title>
<path fill="none" stroke="black" d="M1985.07,-523.708C2043.79,-517.687 2142.32,-515.932 2212.51,-558 2237.25,-572.829 2225.9,-594.093 2248.51,-612 2253.42,-615.882 2258.93,-619.246 2264.68,-622.151"/>
<polygon fill="black" stroke="black" points="2263.29,-625.366 2273.84,-626.347 2266.21,-619.001 2263.29,-625.366"/>
</g>
<!-- Price -->
<g id="node37" class="node"><title>Price</title>
<ellipse fill="none" stroke="black" cx="2321.96" cy="-585" rx="28.6953" ry="18"/>
<text text-anchor="middle" x="2321.96" y="-581.3" font-family="Times,serif" font-size="14.00">Price</text>
</g>
<!-- Price&#45;&gt;Attribute -->
<g id="edge36" class="edge"><title>Price&#45;&gt;Attribute</title>
<path fill="none" stroke="black" d="M2348.11,-592.623C2362.36,-597.37 2380.31,-604.077 2395.4,-612 2412.56,-621.007 2430.37,-633.236 2444.56,-643.779"/>
<polygon fill="black" stroke="black" points="2442.8,-646.839 2452.89,-650.082 2447.03,-641.257 2442.8,-646.839"/>
</g>
<!-- DatabaseAsAService -->
<g id="node38" class="node"><title>DatabaseAsAService</title>
<ellipse fill="none" stroke="black" cx="1369.28" cy="-234" rx="85.2851" ry="18"/>
<text text-anchor="middle" x="1369.28" y="-230.3" font-family="Times,serif" font-size="14.00">DatabaseAsAService</text>
</g>
<!-- DatabaseAsAService&#45;&gt;SaaS -->
<g id="edge37" class="edge"><title>DatabaseAsAService&#45;&gt;SaaS</title>
<path fill="none" stroke="black" d="M1452.46,-230.06C1576.21,-224.125 1805.52,-213.129 1895.6,-208.809"/>
<polygon fill="black" stroke="black" points="1895.81,-212.303 1905.64,-208.328 1895.48,-205.312 1895.81,-212.303"/>
</g>
<!-- SQLDatabaseAsAService -->
<g id="node39" class="node"><title>SQLDatabaseAsAService</title>
<ellipse fill="none" stroke="black" cx="813.981" cy="-288" rx="102.082" ry="18"/>
<text text-anchor="middle" x="813.981" y="-284.3" font-family="Times,serif" font-size="14.00">SQLDatabaseAsAService</text>
</g>
<!-- SQLDatabaseAsAService&#45;&gt;DatabaseAsAService -->
<g id="edge38" class="edge"><title>SQLDatabaseAsAService&#45;&gt;DatabaseAsAService</title>
<path fill="none" stroke="black" d="M903.572,-279.354C1007.42,-269.218 1178.41,-252.531 1281.49,-242.471"/>
<polygon fill="black" stroke="black" points="1281.94,-245.944 1291.55,-241.489 1281.26,-238.977 1281.94,-245.944"/>
</g>
<!-- NoSQLDatabaseAsAService -->
<g id="node40" class="node"><title>NoSQLDatabaseAsAService</title>
<ellipse fill="none" stroke="black" cx="813.981" cy="-234" rx="112.38" ry="18"/>
<text text-anchor="middle" x="813.981" y="-230.3" font-family="Times,serif" font-size="14.00">NoSQLDatabaseAsAService</text>
</g>
<!-- NoSQLDatabaseAsAService&#45;&gt;DatabaseAsAService -->
<g id="edge39" class="edge"><title>NoSQLDatabaseAsAService&#45;&gt;DatabaseAsAService</title>
<path fill="none" stroke="black" d="M926.617,-234C1028.6,-234 1177.73,-234 1273.91,-234"/>
<polygon fill="black" stroke="black" points="1273.92,-237.5 1283.92,-234 1273.92,-230.5 1273.92,-237.5"/>
</g>
<!-- github.com/supermuesli/csdl@examples/StorageRequirement.py@latest -->
<g id="node41" class="node"><title>github.com/supermuesli/csdl@examples/StorageRequirement.py@latest</title>
<ellipse fill="none" stroke="black" cx="813.981" cy="-180" rx="268.352" ry="18"/>
<text text-anchor="middle" x="813.981" y="-176.3" font-family="Times,serif" font-size="14.00">github.com/supermuesli/csdl@examples/StorageRequirement.py@latest</text>
</g>
<!-- github.com/supermuesli/csdl@examples/StorageRequirement.py@latest&#45;&gt;StorageAsAService -->
<g id="edge40" class="edge"><title>github.com/supermuesli/csdl@examples/StorageRequirement.py@latest&#45;&gt;StorageAsAService</title>
<path fill="none" stroke="black" d="M966.906,-165.173C1069.74,-155.137 1201.65,-142.263 1285.6,-134.07"/>
<polygon fill="black" stroke="black" points="1285.98,-137.549 1295.6,-133.094 1285.3,-130.582 1285.98,-137.549"/>
</g>
<!-- github.com/supermuesli/csdl@misc/countries/USA.py@latest -->
<g id="node42" class="node"><title>github.com/supermuesli/csdl@misc/countries/USA.py@latest</title>
<ellipse fill="none" stroke="black" cx="1369.28" cy="-963" rx="231.259" ry="18"/>
<text text-anchor="middle" x="1369.28" y="-959.3" font-family="Times,serif" font-size="14.00">github.com/supermuesli/csdl@misc/countries/USA.py@latest</text>
</g>
<!-- github.com/supermuesli/csdl@misc/countries/USA.py@latest&#45;&gt;NorthAmerica -->
<g id="edge41" class="edge"><title>github.com/supermuesli/csdl@misc/countries/USA.py@latest&#45;&gt;NorthAmerica</title>
<path fill="none" stroke="black" d="M1600.92,-963C1694.76,-963 1796.4,-963 1862.25,-963"/>
<polygon fill="black" stroke="black" points="1862.5,-966.5 1872.5,-963 1862.5,-959.5 1862.5,-966.5"/>
</g>
<!-- github.com/supermuesli/csdl@misc/requests/GETAmount.py@latest -->
<g id="node43" class="node"><title>github.com/supermuesli/csdl@misc/requests/GETAmount.py@latest</title>
<ellipse fill="none" stroke="black" cx="1934.34" cy="-1449" rx="256.955" ry="18"/>
<text text-anchor="middle" x="1934.34" y="-1445.3" font-family="Times,serif" font-size="14.00">github.com/supermuesli/csdl@misc/requests/GETAmount.py@latest</text>
</g>
<!-- github.com/supermuesli/csdl@misc/requests/GETAmount.py@latest&#45;&gt;NumericAttribute -->
<g id="edge42" class="edge"><title>github.com/supermuesli/csdl@misc/requests/GETAmount.py@latest&#45;&gt;NumericAttribute</title>
<path fill="none" stroke="black" d="M2173.68,-1455.66C2187.37,-1461.03 2200.45,-1467.73 2212.51,-1476 2277.65,-1520.69 2305.63,-1616.46 2315.88,-1664.02"/>
<polygon fill="black" stroke="black" points="2312.48,-1664.84 2317.91,-1673.94 2319.33,-1663.44 2312.48,-1664.84"/>
</g>
<!-- github.com/supermuesli/csdl@misc/requests/POSTAmount.py@latest -->
<g id="node44" class="node"><title>github.com/supermuesli/csdl@misc/requests/POSTAmount.py@latest</title>
<ellipse fill="none" stroke="black" cx="1934.34" cy="-1395" rx="260.754" ry="18"/>
<text text-anchor="middle" x="1934.34" y="-1391.3" font-family="Times,serif" font-size="14.00">github.com/supermuesli/csdl@misc/requests/POSTAmount.py@latest</text>
</g>
<!-- github.com/supermuesli/csdl@misc/requests/POSTAmount.py@latest&#45;&gt;NumericAttribute -->
<g id="edge43" class="edge"><title>github.com/supermuesli/csdl@misc/requests/POSTAmount.py@latest&#45;&gt;NumericAttribute</title>
<path fill="none" stroke="black" d="M2177.18,-1401.64C2189.69,-1407.1 2201.58,-1413.81 2212.51,-1422 2291.51,-1481.18 2313.09,-1607.33 2318.88,-1663.73"/>
<polygon fill="black" stroke="black" points="2315.4,-1664.1 2319.82,-1673.73 2322.37,-1663.45 2315.4,-1664.1"/>
</g>
<!-- github.com/supermuesli/csdl@aws/ec2/EC2.py@latest -->
<g id="node45" class="node"><title>github.com/supermuesli/csdl@aws/ec2/EC2.py@latest</title>
<ellipse fill="none" stroke="black" cx="254.777" cy="-18" rx="206.063" ry="18"/>
<text text-anchor="middle" x="254.777" y="-14.3" font-family="Times,serif" font-size="14.00">github.com/supermuesli/csdl@aws/ec2/EC2.py@latest</text>
</g>
<!-- github.com/supermuesli/csdl@aws/ec2/EC2.py@latest&#45;&gt;VMAsAService -->
<g id="edge44" class="edge"><title>github.com/supermuesli/csdl@aws/ec2/EC2.py@latest&#45;&gt;VMAsAService</title>
<path fill="none" stroke="black" d="M460.886,-18C556.712,-18 665.032,-18 735.913,-18"/>
<polygon fill="black" stroke="black" points="736.094,-21.5001 746.094,-18 736.094,-14.5001 736.094,-21.5001"/>
</g>
<!-- github.com/supermuesli/csdl@aws/regions/Region.py@latest -->
<g id="node46" class="node"><title>github.com/supermuesli/csdl@aws/regions/Region.py@latest</title>
<ellipse fill="none" stroke="black" cx="1369.28" cy="-1287" rx="229.359" ry="18"/>
<text text-anchor="middle" x="1369.28" y="-1283.3" font-family="Times,serif" font-size="14.00">github.com/supermuesli/csdl@aws/regions/Region.py@latest</text>
</g>
<!-- github.com/supermuesli/csdl@aws/regions/Region.py@latest&#45;&gt;Region -->
<g id="edge45" class="edge"><title>github.com/supermuesli/csdl@aws/regions/Region.py@latest&#45;&gt;Region</title>
<path fill="none" stroke="black" d="M1598.89,-1287C1706.31,-1287 1824.4,-1287 1887.51,-1287"/>
<polygon fill="black" stroke="black" points="1887.9,-1290.5 1897.9,-1287 1887.9,-1283.5 1887.9,-1290.5"/>
</g>
<!-- github.com/supermuesli/csdl@aws/regions/California.py@latest -->
<g id="node47" class="node"><title>github.com/supermuesli/csdl@aws/regions/California.py@latest</title>
<ellipse fill="none" stroke="black" cx="813.981" cy="-1017" rx="239.358" ry="18"/>
<text text-anchor="middle" x="813.981" y="-1013.3" font-family="Times,serif" font-size="14.00">github.com/supermuesli/csdl@aws/regions/California.py@latest</text>
</g>
<!-- github.com/supermuesli/csdl@aws/regions/California.py@latest&#45;&gt;github.com/supermuesli/csdl@misc/countries/USA.py@latest -->
<g id="edge46" class="edge"><title>github.com/supermuesli/csdl@aws/regions/California.py@latest&#45;&gt;github.com/supermuesli/csdl@misc/countries/USA.py@latest</title>
<path fill="none" stroke="black" d="M960.717,-1002.78C1038.71,-995.165 1134.74,-985.793 1213.99,-978.059"/>
<polygon fill="black" stroke="black" points="1214.45,-981.53 1224.06,-977.075 1213.77,-974.563 1214.45,-981.53"/>
</g>
<!-- github.com/supermuesli/csdl@aws/regions/NorthernVirginia.py@latest -->
<g id="node48" class="node"><title>github.com/supermuesli/csdl@aws/regions/NorthernVirginia.py@latest</title>
<ellipse fill="none" stroke="black" cx="813.981" cy="-963" rx="264.553" ry="18"/>
<text text-anchor="middle" x="813.981" y="-959.3" font-family="Times,serif" font-size="14.00">github.com/supermuesli/csdl@aws/regions/NorthernVirginia.py@latest</text>
</g>
<!-- github.com/supermuesli/csdl@aws/regions/NorthernVirginia.py@latest&#45;&gt;github.com/supermuesli/csdl@misc/countries/USA.py@latest -->
<g id="edge47" class="edge"><title>github.com/supermuesli/csdl@aws/regions/NorthernVirginia.py@latest&#45;&gt;github.com/supermuesli/csdl@misc/countries/USA.py@latest</title>
<path fill="none" stroke="black" d="M1078.67,-963C1095.03,-963 1111.46,-963 1127.72,-963"/>
<polygon fill="black" stroke="black" points="1127.82,-966.5 1137.82,-963 1127.82,-959.5 1127.82,-966.5"/>
</g>
<!-- github.com/supermuesli/csdl@aws/regions/NewYork.py@latest -->
<g id="node49" class="node"><title>github.com/supermuesli/csdl@aws/regions/NewYork.py@latest</title>
<ellipse fill="none" stroke="black" cx="813.981" cy="-909" rx="238.558" ry="18"/>
<text text-anchor="middle" x="813.981" y="-905.3" font-family="Times,serif" font-size="14.00">github.com/supermuesli/csdl@aws/regions/NewYork.py@latest</text>
</g>
<!-- github.com/supermuesli/csdl@aws/regions/NewYork.py@latest&#45;&gt;github.com/supermuesli/csdl@misc/countries/USA.py@latest -->
<g id="edge48" class="edge"><title>github.com/supermuesli/csdl@aws/regions/NewYork.py@latest&#45;&gt;github.com/supermuesli/csdl@misc/countries/USA.py@latest</title>
<path fill="none" stroke="black" d="M960.717,-923.223C1038.71,-930.835 1134.74,-940.207 1213.99,-947.941"/>
<polygon fill="black" stroke="black" points="1213.77,-951.437 1224.06,-948.925 1214.45,-944.47 1213.77,-951.437"/>
</g>
<!-- github.com/supermuesli/csdl@aws/ec2/MachineType.py@latest -->
<g id="node50" class="node"><title>github.com/supermuesli/csdl@aws/ec2/MachineType.py@latest</title>
<ellipse fill="none" stroke="black" cx="1934.34" cy="-1125" rx="239.358" ry="18"/>
<text text-anchor="middle" x="1934.34" y="-1121.3" font-family="Times,serif" font-size="14.00">github.com/supermuesli/csdl@aws/ec2/MachineType.py@latest</text>
</g>
<!-- github.com/supermuesli/csdl@aws/ec2/MachineType.py@latest&#45;&gt;ChoiceAttribute -->
<g id="edge49" class="edge"><title>github.com/supermuesli/csdl@aws/ec2/MachineType.py@latest&#45;&gt;ChoiceAttribute</title>
<path fill="none" stroke="black" d="M2173.52,-1125C2198.75,-1125 2222.89,-1125 2244.06,-1125"/>
<polygon fill="black" stroke="black" points="2244.2,-1128.5 2254.2,-1125 2244.2,-1121.5 2244.2,-1128.5"/>
</g>
<!-- github.com/supermuesli/csdl@aws/ec2/A1Large.py@latest -->
<g id="node51" class="node"><title>github.com/supermuesli/csdl@aws/ec2/A1Large.py@latest</title>
<ellipse fill="none" stroke="black" cx="1934.34" cy="-477" rx="221.761" ry="18"/>
<text text-anchor="middle" x="1934.34" y="-473.3" font-family="Times,serif" font-size="14.00">github.com/supermuesli/csdl@aws/ec2/A1Large.py@latest</text>
</g>
<!-- github.com/supermuesli/csdl@aws/ec2/A1Large.py@latest&#45;&gt;OptionAttribute -->
<g id="edge50" class="edge"><title>github.com/supermuesli/csdl@aws/ec2/A1Large.py@latest&#45;&gt;OptionAttribute</title>
<path fill="none" stroke="black" d="M2043.37,-461.31C2099.41,-459.154 2165.73,-466.702 2212.51,-504 2252.08,-535.541 2213.37,-575.602 2248.51,-612 2252.42,-616.043 2256.98,-619.486 2261.89,-622.417"/>
<polygon fill="black" stroke="black" points="2260.53,-625.655 2271.02,-627.158 2263.76,-619.443 2260.53,-625.655"/>
</g>
<!-- github.com/supermuesli/csdl@aws/EBS.py@latest -->
<g id="node52" class="node"><title>github.com/supermuesli/csdl@aws/EBS.py@latest</title>
<ellipse fill="none" stroke="black" cx="813.981" cy="-126" rx="191.966" ry="18"/>
<text text-anchor="middle" x="813.981" y="-122.3" font-family="Times,serif" font-size="14.00">github.com/supermuesli/csdl@aws/EBS.py@latest</text>
</g>
<!-- github.com/supermuesli/csdl@aws/EBS.py@latest&#45;&gt;StorageAsAService -->
<g id="edge51" class="edge"><title>github.com/supermuesli/csdl@aws/EBS.py@latest&#45;&gt;StorageAsAService</title>
<path fill="none" stroke="black" d="M1005.78,-126C1098.45,-126 1205.38,-126 1278.97,-126"/>
<polygon fill="black" stroke="black" points="1279.12,-129.5 1289.12,-126 1279.12,-122.5 1279.12,-129.5"/>
</g>
<!-- github.com/supermuesli/csdl@misc/StaticIp.py@latest -->
<g id="node53" class="node"><title>github.com/supermuesli/csdl@misc/StaticIp.py@latest</title>
<ellipse fill="none" stroke="black" cx="1934.34" cy="-1341" rx="206.063" ry="18"/>
<text text-anchor="middle" x="1934.34" y="-1337.3" font-family="Times,serif" font-size="14.00">github.com/supermuesli/csdl@misc/StaticIp.py@latest</text>
</g>
<!-- github.com/supermuesli/csdl@misc/StaticIp.py@latest&#45;&gt;NumericAttribute -->
<g id="edge52" class="edge"><title>github.com/supermuesli/csdl@misc/StaticIp.py@latest&#45;&gt;NumericAttribute</title>
<path fill="none" stroke="black" d="M2039.29,-1325.51C2096.16,-1322.84 2164.57,-1329.83 2212.51,-1368 2305.73,-1442.22 2319.43,-1599.46 2321,-1663.73"/>
<polygon fill="black" stroke="black" points="2317.51,-1663.97 2321.17,-1673.92 2324.51,-1663.86 2317.51,-1663.97"/>
</g>
<!-- github.com/supermuesli/csdl@aws/ec2/ElasticIpAmount.py@latest -->
<g id="node54" class="node"><title>github.com/supermuesli/csdl@aws/ec2/ElasticIpAmount.py@latest</title>
<ellipse fill="none" stroke="black" cx="1369.28" cy="-1341" rx="250.756" ry="18"/>
<text text-anchor="middle" x="1369.28" y="-1337.3" font-family="Times,serif" font-size="14.00">github.com/supermuesli/csdl@aws/ec2/ElasticIpAmount.py@latest</text>
</g>
<!-- github.com/supermuesli/csdl@aws/ec2/ElasticIpAmount.py@latest&#45;&gt;github.com/supermuesli/csdl@misc/StaticIp.py@latest -->
<g id="edge53" class="edge"><title>github.com/supermuesli/csdl@aws/ec2/ElasticIpAmount.py@latest&#45;&gt;github.com/supermuesli/csdl@misc/StaticIp.py@latest</title>
<path fill="none" stroke="black" d="M1620.53,-1341C1652.99,-1341 1686.02,-1341 1717.85,-1341"/>
<polygon fill="black" stroke="black" points="1718.14,-1344.5 1728.14,-1341 1718.14,-1337.5 1718.14,-1344.5"/>
</g>
<!-- github.com/supermuesli/csdl@aws/s3/S3.py@latest -->
<g id="node55" class="node"><title>github.com/supermuesli/csdl@aws/s3/S3.py@latest</title>
<ellipse fill="none" stroke="black" cx="813.981" cy="-72" rx="194.965" ry="18"/>
<text text-anchor="middle" x="813.981" y="-68.3" font-family="Times,serif" font-size="14.00">github.com/supermuesli/csdl@aws/s3/S3.py@latest</text>
</g>
<!-- github.com/supermuesli/csdl@aws/s3/S3.py@latest&#45;&gt;StorageAsAService -->
<g id="edge54" class="edge"><title>github.com/supermuesli/csdl@aws/s3/S3.py@latest&#45;&gt;StorageAsAService</title>
<path fill="none" stroke="black" d="M948.568,-85.0375C1053.57,-95.2855 1196.51,-109.236 1285.55,-117.925"/>
<polygon fill="black" stroke="black" points="1285.3,-121.418 1295.6,-118.906 1285.98,-114.451 1285.3,-121.418"/>
</g>
<!-- github.com/supermuesli/csdl@aws/s3/S3Type.py@latest -->
<g id="node56" class="node"><title>github.com/supermuesli/csdl@aws/s3/S3Type.py@latest</title>
<ellipse fill="none" stroke="black" cx="1934.34" cy="-1071" rx="213.362" ry="18"/>
<text text-anchor="middle" x="1934.34" y="-1067.3" font-family="Times,serif" font-size="14.00">github.com/supermuesli/csdl@aws/s3/S3Type.py@latest</text>
</g>
<!-- github.com/supermuesli/csdl@aws/s3/S3Type.py@latest&#45;&gt;ChoiceAttribute -->
<g id="edge55" class="edge"><title>github.com/supermuesli/csdl@aws/s3/S3Type.py@latest&#45;&gt;ChoiceAttribute</title>
<path fill="none" stroke="black" d="M2096.73,-1082.69C2134.84,-1086.56 2175.23,-1091.58 2212.51,-1098 2229.86,-1100.99 2248.52,-1105.25 2265.4,-1109.5"/>
<polygon fill="black" stroke="black" points="2264.54,-1112.9 2275.1,-1112 2266.29,-1106.12 2264.54,-1112.9"/>
</g>
<!-- github.com/supermuesli/csdl@aws/s3/Standard.py@latest -->
<g id="node57" class="node"><title>github.com/supermuesli/csdl@aws/s3/Standard.py@latest</title>
<ellipse fill="none" stroke="black" cx="1934.34" cy="-423" rx="217.162" ry="18"/>
<text text-anchor="middle" x="1934.34" y="-419.3" font-family="Times,serif" font-size="14.00">github.com/supermuesli/csdl@aws/s3/Standard.py@latest</text>
</g>
<!-- github.com/supermuesli/csdl@aws/s3/Standard.py@latest&#45;&gt;OptionAttribute -->
<g id="edge56" class="edge"><title>github.com/supermuesli/csdl@aws/s3/Standard.py@latest&#45;&gt;OptionAttribute</title>
<path fill="none" stroke="black" d="M2026.53,-406.674C2086.47,-401.416 2162.74,-405.934 2212.51,-450 2267.74,-498.889 2200.08,-556.373 2248.51,-612 2252.15,-616.176 2256.49,-619.707 2261.22,-622.693"/>
<polygon fill="black" stroke="black" points="2259.63,-625.809 2270.09,-627.499 2262.97,-619.655 2259.63,-625.809"/>
</g>
<!-- github.com/supermuesli/csdl@aws/s3/StandardInfreqAccess.py@latest -->
<g id="node58" class="node"><title>github.com/supermuesli/csdl@aws/s3/StandardInfreqAccess.py@latest</title>
<ellipse fill="none" stroke="black" cx="1934.34" cy="-369" rx="263.453" ry="18"/>
<text text-anchor="middle" x="1934.34" y="-365.3" font-family="Times,serif" font-size="14.00">github.com/supermuesli/csdl@aws/s3/StandardInfreqAccess.py@latest</text>
</g>
<!-- github.com/supermuesli/csdl@aws/s3/StandardInfreqAccess.py@latest&#45;&gt;OptionAttribute -->
<g id="edge57" class="edge"><title>github.com/supermuesli/csdl@aws/s3/StandardInfreqAccess.py@latest&#45;&gt;OptionAttribute</title>
<path fill="none" stroke="black" d="M2024.68,-352.08C2085.35,-346.077 2163.23,-349.958 2212.51,-396 2283.63,-462.438 2186.59,-536.914 2248.51,-612 2251.9,-616.102 2255.97,-619.58 2260.43,-622.531"/>
<polygon fill="black" stroke="black" points="2258.99,-625.736 2269.42,-627.578 2262.41,-619.632 2258.99,-625.736"/>
</g>
<!-- github.com/supermuesli/csdl@aws/rdsPostgres/Postgresql.py@latest -->
<g id="node59" class="node"><title>github.com/supermuesli/csdl@aws/rdsPostgres/Postgresql.py@latest</title>
<ellipse fill="none" stroke="black" cx="254.777" cy="-288" rx="254.555" ry="18"/>
<text text-anchor="middle" x="254.777" y="-284.3" font-family="Times,serif" font-size="14.00">github.com/supermuesli/csdl@aws/rdsPostgres/Postgresql.py@latest</text>
</g>
<!-- github.com/supermuesli/csdl@aws/rdsPostgres/Postgresql.py@latest&#45;&gt;SQLDatabaseAsAService -->
<g id="edge58" class="edge"><title>github.com/supermuesli/csdl@aws/rdsPostgres/Postgresql.py@latest&#45;&gt;SQLDatabaseAsAService</title>
<path fill="none" stroke="black" d="M509.921,-288C577.202,-288 646.401,-288 701.659,-288"/>
<polygon fill="black" stroke="black" points="701.811,-291.5 711.811,-288 701.811,-284.5 701.811,-291.5"/>
</g>
<!-- github.com/supermuesli/csdl@aws/rdsPostgres/AvailabilityZone.py@latest -->
<g id="node60" class="node"><title>github.com/supermuesli/csdl@aws/rdsPostgres/AvailabilityZone.py@latest</title>
<ellipse fill="none" stroke="black" cx="1934.34" cy="-1017" rx="278.351" ry="18"/>
<text text-anchor="middle" x="1934.34" y="-1013.3" font-family="Times,serif" font-size="14.00">github.com/supermuesli/csdl@aws/rdsPostgres/AvailabilityZone.py@latest</text>
</g>
<!-- github.com/supermuesli/csdl@aws/rdsPostgres/AvailabilityZone.py@latest&#45;&gt;ChoiceAttribute -->
<g id="edge59" class="edge"><title>github.com/supermuesli/csdl@aws/rdsPostgres/AvailabilityZone.py@latest&#45;&gt;ChoiceAttribute</title>
<path fill="none" stroke="black" d="M2158,-1027.8C2176.75,-1031.97 2195.15,-1037.28 2212.51,-1044 2244.96,-1056.56 2276.16,-1081.69 2296.69,-1100.65"/>
<polygon fill="black" stroke="black" points="2294.35,-1103.25 2304.02,-1107.57 2299.15,-1098.16 2294.35,-1103.25"/>
</g>
<!-- github.com/supermuesli/csdl@aws/rdsPostgres/SingleAZ.py@latest -->
<g id="node61" class="node"><title>github.com/supermuesli/csdl@aws/rdsPostgres/SingleAZ.py@latest</title>
<ellipse fill="none" stroke="black" cx="1934.34" cy="-315" rx="252.655" ry="18"/>
<text text-anchor="middle" x="1934.34" y="-311.3" font-family="Times,serif" font-size="14.00">github.com/supermuesli/csdl@aws/rdsPostgres/SingleAZ.py@latest</text>
</g>
<!-- github.com/supermuesli/csdl@aws/rdsPostgres/SingleAZ.py@latest&#45;&gt;OptionAttribute -->
<g id="edge60" class="edge"><title>github.com/supermuesli/csdl@aws/rdsPostgres/SingleAZ.py@latest&#45;&gt;OptionAttribute</title>
<path fill="none" stroke="black" d="M2020.6,-298.073C2082.11,-291.188 2162.77,-293.986 2212.51,-342 2299.62,-426.073 2173.02,-517.357 2248.51,-612 2251.83,-616.156 2255.85,-619.673 2260.29,-622.648"/>
<polygon fill="black" stroke="black" points="2258.81,-625.837 2269.24,-627.728 2262.27,-619.748 2258.81,-625.837"/>
</g>
<!-- github.com/supermuesli/csdl@aws/rdsPostgres/MultiAZ.py@latest -->
<g id="node62" class="node"><title>github.com/supermuesli/csdl@aws/rdsPostgres/MultiAZ.py@latest</title>
<ellipse fill="none" stroke="black" cx="1934.34" cy="-261" rx="250.456" ry="18"/>
<text text-anchor="middle" x="1934.34" y="-257.3" font-family="Times,serif" font-size="14.00">github.com/supermuesli/csdl@aws/rdsPostgres/MultiAZ.py@latest</text>
</g>
<!-- github.com/supermuesli/csdl@aws/rdsPostgres/MultiAZ.py@latest&#45;&gt;OptionAttribute -->
<g id="edge61" class="edge"><title>github.com/supermuesli/csdl@aws/rdsPostgres/MultiAZ.py@latest&#45;&gt;OptionAttribute</title>
<path fill="none" stroke="black" d="M2018.65,-244.019C2080.6,-236.65 2162.69,-238.85 2212.51,-288 2264.08,-338.877 2203.96,-554.875 2248.51,-612 2251.78,-616.192 2255.77,-619.734 2260.19,-622.725"/>
<polygon fill="black" stroke="black" points="2258.69,-625.903 2269.11,-627.827 2262.17,-619.825 2258.69,-625.903"/>
</g>
</g>
</svg>
