<?xml version="1.0" encoding="UTF-8" standalone="no"?>
<!DOCTYPE svg PUBLIC "-//W3C//DTD SVG 1.1//EN"
 "http://www.w3.org/Graphics/SVG/1.1/DTD/svg11.dtd">
<!-- Generated by graphviz version 2.38.0 (20140413.2041)
 -->
<!-- Title: %3 Pages: 1 -->
<svg width="2469pt" height="1583pt"
 viewBox="0.00 0.00 2468.90 1583.00" xmlns="http://www.w3.org/2000/svg" xmlns:xlink="http://www.w3.org/1999/xlink">
<g id="graph0" class="graph" transform="scale(1 1) rotate(0) translate(4 1579)">
<title>%3</title>
<polygon fill="white" stroke="none" points="-4,4 -4,-1579 2464.9,-1579 2464.9,4 -4,4"/>
<!-- VMAsAService -->
<g id="node1" class="node"><title>VMAsAService</title>
<ellipse fill="none" stroke="black" cx="775.634" cy="-45" rx="67.6881" ry="18"/>
<text text-anchor="middle" x="775.634" y="-41.3" font-family="Times,serif" font-size="14.00">VMAsAService</text>
</g>
<!-- ServerAsAService -->
<g id="node2" class="node"><title>ServerAsAService</title>
<ellipse fill="none" stroke="black" cx="1310.79" cy="-45" rx="76.0865" ry="18"/>
<text text-anchor="middle" x="1310.79" y="-41.3" font-family="Times,serif" font-size="14.00">ServerAsAService</text>
</g>
<!-- VMAsAService&#45;&gt;ServerAsAService -->
<g id="edge1" class="edge"><title>VMAsAService&#45;&gt;ServerAsAService</title>
<path fill="none" stroke="black" d="M843.35,-45C939.847,-45 1118.39,-45 1224.39,-45"/>
<polygon fill="black" stroke="black" points="1224.41,-48.5001 1234.41,-45 1224.41,-41.5001 1224.41,-48.5001"/>
</g>
<!-- IaaS -->
<g id="node3" class="node"><title>IaaS</title>
<ellipse fill="none" stroke="black" cx="1827.1" cy="-99" rx="27" ry="18"/>
<text text-anchor="middle" x="1827.1" y="-95.3" font-family="Times,serif" font-size="14.00">IaaS</text>
</g>
<!-- ServerAsAService&#45;&gt;IaaS -->
<g id="edge2" class="edge"><title>ServerAsAService&#45;&gt;IaaS</title>
<path fill="none" stroke="black" d="M1380.62,-52.2266C1491.39,-63.8572 1705.37,-86.3236 1790.19,-95.2301"/>
<polygon fill="black" stroke="black" points="1790.04,-98.7331 1800.35,-96.2966 1790.77,-91.7714 1790.04,-98.7331"/>
</g>
<!-- CCS -->
<g id="node5" class="node"><title>CCS</title>
<ellipse fill="none" stroke="black" cx="2165.97" cy="-153" rx="27.0966" ry="18"/>
<text text-anchor="middle" x="2165.97" y="-149.3" font-family="Times,serif" font-size="14.00">CCS</text>
</g>
<!-- IaaS&#45;&gt;CCS -->
<g id="edge4" class="edge"><title>IaaS&#45;&gt;CCS</title>
<path fill="none" stroke="black" d="M1853.95,-100.984C1896.45,-104.485 1983.66,-112.677 2056.53,-126 2081.62,-130.588 2109.55,-137.586 2130.77,-143.307"/>
<polygon fill="black" stroke="black" points="2130.04,-146.737 2140.61,-145.998 2131.89,-139.984 2130.04,-146.737"/>
</g>
<!-- SaaS -->
<g id="node4" class="node"><title>SaaS</title>
<ellipse fill="none" stroke="black" cx="1827.1" cy="-153" rx="28.6953" ry="18"/>
<text text-anchor="middle" x="1827.1" y="-149.3" font-family="Times,serif" font-size="14.00">SaaS</text>
</g>
<!-- SaaS&#45;&gt;CCS -->
<g id="edge3" class="edge"><title>SaaS&#45;&gt;CCS</title>
<path fill="none" stroke="black" d="M1855.95,-153C1916.55,-153 2060.37,-153 2128.27,-153"/>
<polygon fill="black" stroke="black" points="2128.49,-156.5 2138.49,-153 2128.49,-149.5 2128.49,-156.5"/>
</g>
<!-- Attribute -->
<g id="node8" class="node"><title>Attribute</title>
<ellipse fill="none" stroke="black" cx="2317.66" cy="-477" rx="42.4939" ry="18"/>
<text text-anchor="middle" x="2317.66" y="-473.3" font-family="Times,serif" font-size="14.00">Attribute</text>
</g>
<!-- CCS&#45;&gt;Attribute -->
<g id="edge10" class="edge"><title>CCS&#45;&gt;Attribute</title>
<path fill="none" stroke="black" d="M2175.02,-170.42C2199.68,-223.805 2274.35,-385.413 2304.16,-449.953"/>
<polygon fill="black" stroke="black" points="2301.02,-451.487 2308.39,-459.097 2307.37,-448.551 2301.02,-451.487"/>
</g>
<!-- StorageAsAService -->
<g id="node6" class="node"><title>StorageAsAService</title>
<ellipse fill="none" stroke="black" cx="1310.79" cy="-99" rx="79.8859" ry="18"/>
<text text-anchor="middle" x="1310.79" y="-95.3" font-family="Times,serif" font-size="14.00">StorageAsAService</text>
</g>
<!-- StorageAsAService&#45;&gt;IaaS -->
<g id="edge5" class="edge"><title>StorageAsAService&#45;&gt;IaaS</title>
<path fill="none" stroke="black" d="M1390.74,-99C1503.77,-99 1707.16,-99 1789.76,-99"/>
<polygon fill="black" stroke="black" points="1789.9,-102.5 1799.9,-99 1789.9,-95.5001 1789.9,-102.5"/>
</g>
<!-- NumericAttribute -->
<g id="node7" class="node"><title>NumericAttribute</title>
<ellipse fill="none" stroke="black" cx="2165.97" cy="-1206" rx="73.387" ry="18"/>
<text text-anchor="middle" x="2165.97" y="-1202.3" font-family="Times,serif" font-size="14.00">NumericAttribute</text>
</g>
<!-- NumericAttribute&#45;&gt;Attribute -->
<g id="edge6" class="edge"><title>NumericAttribute&#45;&gt;Attribute</title>
<path fill="none" stroke="black" d="M2170.67,-1187.98C2190.73,-1090.29 2286.43,-624.21 2310.94,-504.88"/>
<polygon fill="black" stroke="black" points="2314.37,-505.543 2312.96,-495.043 2307.52,-504.135 2314.37,-505.543"/>
</g>
<!-- object -->
<g id="node12" class="node"><title>object</title>
<ellipse fill="none" stroke="black" cx="2428.4" cy="-477" rx="32.4942" ry="18"/>
<text text-anchor="middle" x="2428.4" y="-473.3" font-family="Times,serif" font-size="14.00">object</text>
</g>
<!-- Attribute&#45;&gt;object -->
<g id="edge11" class="edge"><title>Attribute&#45;&gt;object</title>
<path fill="none" stroke="black" d="M2360.08,-477C2368.35,-477 2377.05,-477 2385.34,-477"/>
<polygon fill="black" stroke="black" points="2385.57,-480.5 2395.57,-477 2385.57,-473.5 2385.57,-480.5"/>
</g>
<!-- ChoiceAttribute -->
<g id="node9" class="node"><title>ChoiceAttribute</title>
<ellipse fill="none" stroke="black" cx="2165.97" cy="-747" rx="67.6881" ry="18"/>
<text text-anchor="middle" x="2165.97" y="-743.3" font-family="Times,serif" font-size="14.00">ChoiceAttribute</text>
</g>
<!-- ChoiceAttribute&#45;&gt;Attribute -->
<g id="edge7" class="edge"><title>ChoiceAttribute&#45;&gt;Attribute</title>
<path fill="none" stroke="black" d="M2177.02,-728.865C2202.86,-682.257 2271.69,-558.12 2301.99,-503.463"/>
<polygon fill="black" stroke="black" points="2305.06,-505.146 2306.85,-494.703 2298.94,-501.752 2305.06,-505.146"/>
</g>
<!-- BoolAttribute -->
<g id="node10" class="node"><title>BoolAttribute</title>
<ellipse fill="none" stroke="black" cx="2165.97" cy="-504" rx="59.5901" ry="18"/>
<text text-anchor="middle" x="2165.97" y="-500.3" font-family="Times,serif" font-size="14.00">BoolAttribute</text>
</g>
<!-- BoolAttribute&#45;&gt;Attribute -->
<g id="edge8" class="edge"><title>BoolAttribute&#45;&gt;Attribute</title>
<path fill="none" stroke="black" d="M2217.65,-494.859C2233.93,-491.922 2251.92,-488.678 2268.05,-485.768"/>
<polygon fill="black" stroke="black" points="2269.12,-489.131 2278.34,-483.912 2267.88,-482.242 2269.12,-489.131"/>
</g>
<!-- NameAttribute -->
<g id="node11" class="node"><title>NameAttribute</title>
<ellipse fill="none" stroke="black" cx="2165.97" cy="-450" rx="63.8893" ry="18"/>
<text text-anchor="middle" x="2165.97" y="-446.3" font-family="Times,serif" font-size="14.00">NameAttribute</text>
</g>
<!-- NameAttribute&#45;&gt;Attribute -->
<g id="edge9" class="edge"><title>NameAttribute&#45;&gt;Attribute</title>
<path fill="none" stroke="black" d="M2220.17,-459.595C2235.73,-462.403 2252.67,-465.458 2267.94,-468.213"/>
<polygon fill="black" stroke="black" points="2267.75,-471.735 2278.21,-470.065 2268.99,-464.846 2267.75,-471.735"/>
</g>
<!-- Region -->
<g id="node13" class="node"><title>Region</title>
<ellipse fill="none" stroke="black" cx="1827.1" cy="-855" rx="36.2938" ry="18"/>
<text text-anchor="middle" x="1827.1" y="-851.3" font-family="Times,serif" font-size="14.00">Region</text>
</g>
<!-- Region&#45;&gt;ChoiceAttribute -->
<g id="edge12" class="edge"><title>Region&#45;&gt;ChoiceAttribute</title>
<path fill="none" stroke="black" d="M1863.53,-856.389C1909.65,-856.968 1991.99,-853.747 2056.53,-828 2088.65,-815.183 2119.69,-790.326 2140.26,-771.512"/>
<polygon fill="black" stroke="black" points="2142.71,-774.022 2147.62,-764.635 2137.92,-768.909 2142.71,-774.022"/>
</g>
<!-- NorthAmerica -->
<g id="node14" class="node"><title>NorthAmerica</title>
<ellipse fill="none" stroke="black" cx="1827.1" cy="-639" rx="61.99" ry="18"/>
<text text-anchor="middle" x="1827.1" y="-635.3" font-family="Times,serif" font-size="14.00">NorthAmerica</text>
</g>
<!-- NorthAmerica&#45;&gt;NameAttribute -->
<g id="edge13" class="edge"><title>NorthAmerica&#45;&gt;NameAttribute</title>
<path fill="none" stroke="black" d="M1880.48,-648.162C1931.56,-653.925 2008.39,-653.708 2056.53,-612 2103.46,-571.339 2050.78,-522.968 2092.53,-477 2096.52,-472.608 2101.29,-468.928 2106.45,-465.844"/>
<polygon fill="black" stroke="black" points="2108.17,-468.898 2115.45,-461.198 2104.95,-462.678 2108.17,-468.898"/>
</g>
<!-- Australia -->
<g id="node15" class="node"><title>Australia</title>
<ellipse fill="none" stroke="black" cx="1827.1" cy="-585" rx="42.7926" ry="18"/>
<text text-anchor="middle" x="1827.1" y="-581.3" font-family="Times,serif" font-size="14.00">Australia</text>
</g>
<!-- Australia&#45;&gt;NameAttribute -->
<g id="edge14" class="edge"><title>Australia&#45;&gt;NameAttribute</title>
<path fill="none" stroke="black" d="M1867.45,-591.3C1916.64,-596.919 2001.07,-598.868 2056.53,-558 2088.24,-534.628 2063.83,-503.988 2092.53,-477 2097.08,-472.716 2102.38,-469.097 2108,-466.043"/>
<polygon fill="black" stroke="black" points="2109.54,-469.186 2117.03,-461.694 2106.5,-462.879 2109.54,-469.186"/>
</g>
<!-- Africa -->
<g id="node16" class="node"><title>Africa</title>
<ellipse fill="none" stroke="black" cx="1827.1" cy="-531" rx="33.2948" ry="18"/>
<text text-anchor="middle" x="1827.1" y="-527.3" font-family="Times,serif" font-size="14.00">Africa</text>
</g>
<!-- Africa&#45;&gt;NameAttribute -->
<g id="edge15" class="edge"><title>Africa&#45;&gt;NameAttribute</title>
<path fill="none" stroke="black" d="M1860.41,-532.361C1905.87,-533.143 1990.53,-530.404 2056.53,-504 2075.1,-496.571 2074.98,-486.591 2092.53,-477 2099.01,-473.46 2106.04,-470.195 2113.1,-467.25"/>
<polygon fill="black" stroke="black" points="2114.69,-470.384 2122.69,-463.436 2112.1,-463.88 2114.69,-470.384"/>
</g>
<!-- EastAsia -->
<g id="node17" class="node"><title>EastAsia</title>
<ellipse fill="none" stroke="black" cx="1827.1" cy="-477" rx="42.4939" ry="18"/>
<text text-anchor="middle" x="1827.1" y="-473.3" font-family="Times,serif" font-size="14.00">EastAsia</text>
</g>
<!-- EastAsia&#45;&gt;NameAttribute -->
<g id="edge16" class="edge"><title>EastAsia&#45;&gt;NameAttribute</title>
<path fill="none" stroke="black" d="M1868.73,-473.743C1924.58,-469.267 2025.89,-461.147 2094.3,-455.664"/>
<polygon fill="black" stroke="black" points="2094.87,-459.13 2104.56,-454.842 2094.31,-452.152 2094.87,-459.13"/>
</g>
<!-- SouthAmerica -->
<g id="node18" class="node"><title>SouthAmerica</title>
<ellipse fill="none" stroke="black" cx="1827.1" cy="-423" rx="61.99" ry="18"/>
<text text-anchor="middle" x="1827.1" y="-419.3" font-family="Times,serif" font-size="14.00">SouthAmerica</text>
</g>
<!-- SouthAmerica&#45;&gt;NameAttribute -->
<g id="edge17" class="edge"><title>SouthAmerica&#45;&gt;NameAttribute</title>
<path fill="none" stroke="black" d="M1886.78,-427.703C1944.54,-432.333 2032.82,-439.408 2094.39,-444.343"/>
<polygon fill="black" stroke="black" points="2094.16,-447.836 2104.41,-445.146 2094.72,-440.858 2094.16,-447.836"/>
</g>
<!-- Europe -->
<g id="node19" class="node"><title>Europe</title>
<ellipse fill="none" stroke="black" cx="1827.1" cy="-369" rx="36.2938" ry="18"/>
<text text-anchor="middle" x="1827.1" y="-365.3" font-family="Times,serif" font-size="14.00">Europe</text>
</g>
<!-- Europe&#45;&gt;NameAttribute -->
<g id="edge18" class="edge"><title>Europe&#45;&gt;NameAttribute</title>
<path fill="none" stroke="black" d="M1863.54,-367.591C1909.67,-366.992 1992.01,-370.189 2056.53,-396 2075.1,-403.429 2074.98,-413.409 2092.53,-423 2099.01,-426.54 2106.04,-429.805 2113.1,-432.75"/>
<polygon fill="black" stroke="black" points="2112.1,-436.12 2122.69,-436.564 2114.69,-429.616 2112.1,-436.12"/>
</g>
<!-- Antarctica -->
<g id="node20" class="node"><title>Antarctica</title>
<ellipse fill="none" stroke="black" cx="1827.1" cy="-315" rx="47.3916" ry="18"/>
<text text-anchor="middle" x="1827.1" y="-311.3" font-family="Times,serif" font-size="14.00">Antarctica</text>
</g>
<!-- Antarctica&#45;&gt;NameAttribute -->
<g id="edge19" class="edge"><title>Antarctica&#45;&gt;NameAttribute</title>
<path fill="none" stroke="black" d="M1871.37,-308.268C1921.02,-303.008 2002.52,-302.198 2056.53,-342 2088.24,-365.372 2063.83,-396.012 2092.53,-423 2097.08,-427.284 2102.38,-430.903 2108,-433.957"/>
<polygon fill="black" stroke="black" points="2106.5,-437.121 2117.03,-438.306 2109.54,-430.814 2106.5,-437.121"/>
</g>
<!-- Storage -->
<g id="node21" class="node"><title>Storage</title>
<ellipse fill="none" stroke="black" cx="1827.1" cy="-1557" rx="37.8943" ry="18"/>
<text text-anchor="middle" x="1827.1" y="-1553.3" font-family="Times,serif" font-size="14.00">Storage</text>
</g>
<!-- Storage&#45;&gt;NumericAttribute -->
<g id="edge20" class="edge"><title>Storage&#45;&gt;NumericAttribute</title>
<path fill="none" stroke="black" d="M1862.61,-1563.38C1911.48,-1570.33 2001.07,-1575.1 2056.53,-1530 2148.76,-1455 2163.04,-1298.87 2164.9,-1234.59"/>
<polygon fill="black" stroke="black" points="2168.4,-1234.46 2165.11,-1224.39 2161.4,-1234.32 2168.4,-1234.46"/>
</g>
<!-- StorageWriteSpeed -->
<g id="node22" class="node"><title>StorageWriteSpeed</title>
<ellipse fill="none" stroke="black" cx="1827.1" cy="-1503" rx="79.0865" ry="18"/>
<text text-anchor="middle" x="1827.1" y="-1499.3" font-family="Times,serif" font-size="14.00">StorageWriteSpeed</text>
</g>
<!-- StorageWriteSpeed&#45;&gt;NumericAttribute -->
<g id="edge21" class="edge"><title>StorageWriteSpeed&#45;&gt;NumericAttribute</title>
<path fill="none" stroke="black" d="M1895.56,-1512.13C1944.99,-1515.08 2011.1,-1510.77 2056.53,-1476 2134.91,-1416.01 2156.82,-1290.29 2162.79,-1234.14"/>
<polygon fill="black" stroke="black" points="2166.28,-1234.47 2163.76,-1224.18 2159.31,-1233.8 2166.28,-1234.47"/>
</g>
<!-- StorageReadSpeed -->
<g id="node23" class="node"><title>StorageReadSpeed</title>
<ellipse fill="none" stroke="black" cx="1827.1" cy="-1449" rx="77.1866" ry="18"/>
<text text-anchor="middle" x="1827.1" y="-1445.3" font-family="Times,serif" font-size="14.00">StorageReadSpeed</text>
</g>
<!-- StorageReadSpeed&#45;&gt;NumericAttribute -->
<g id="edge22" class="edge"><title>StorageReadSpeed&#45;&gt;NumericAttribute</title>
<path fill="none" stroke="black" d="M1896.29,-1457.09C1945.12,-1459.29 2010.18,-1454.5 2056.53,-1422 2121.04,-1376.76 2149.26,-1281.65 2159.72,-1234.19"/>
<polygon fill="black" stroke="black" points="2163.17,-1234.79 2161.79,-1224.28 2156.32,-1233.35 2163.17,-1234.79"/>
</g>
<!-- OperatingSystem -->
<g id="node24" class="node"><title>OperatingSystem</title>
<ellipse fill="none" stroke="black" cx="1827.1" cy="-801" rx="72.2875" ry="18"/>
<text text-anchor="middle" x="1827.1" y="-797.3" font-family="Times,serif" font-size="14.00">OperatingSystem</text>
</g>
<!-- OperatingSystem&#45;&gt;ChoiceAttribute -->
<g id="edge23" class="edge"><title>OperatingSystem&#45;&gt;ChoiceAttribute</title>
<path fill="none" stroke="black" d="M1895.65,-795.276C1941.3,-790.855 2002.81,-783.822 2056.53,-774 2073.52,-770.894 2091.81,-766.683 2108.43,-762.511"/>
<polygon fill="black" stroke="black" points="2109.72,-765.794 2118.55,-759.929 2107.99,-759.012 2109.72,-765.794"/>
</g>
<!-- CpuCores -->
<g id="node25" class="node"><title>CpuCores</title>
<ellipse fill="none" stroke="black" cx="1827.1" cy="-1395" rx="46.2923" ry="18"/>
<text text-anchor="middle" x="1827.1" y="-1391.3" font-family="Times,serif" font-size="14.00">CpuCores</text>
</g>
<!-- CpuCores&#45;&gt;NumericAttribute -->
<g id="edge24" class="edge"><title>CpuCores&#45;&gt;NumericAttribute</title>
<path fill="none" stroke="black" d="M1871.54,-1400.14C1920.25,-1403.69 1999.82,-1402.71 2056.53,-1368 2107.58,-1336.75 2139.85,-1271.35 2154.93,-1233.91"/>
<polygon fill="black" stroke="black" points="2158.36,-1234.73 2158.72,-1224.14 2151.84,-1232.19 2158.36,-1234.73"/>
</g>
<!-- CpuClockSpeed -->
<g id="node26" class="node"><title>CpuClockSpeed</title>
<ellipse fill="none" stroke="black" cx="1827.1" cy="-1341" rx="67.6881" ry="18"/>
<text text-anchor="middle" x="1827.1" y="-1337.3" font-family="Times,serif" font-size="14.00">CpuClockSpeed</text>
</g>
<!-- CpuClockSpeed&#45;&gt;NumericAttribute -->
<g id="edge25" class="edge"><title>CpuClockSpeed&#45;&gt;NumericAttribute</title>
<path fill="none" stroke="black" d="M1893.53,-1344.39C1941.01,-1344.28 2005.57,-1338.65 2056.53,-1314 2095,-1295.39 2127.93,-1257.54 2147.1,-1231.97"/>
<polygon fill="black" stroke="black" points="2149.99,-1233.95 2153.06,-1223.81 2144.33,-1229.82 2149.99,-1233.95"/>
</g>
<!-- Ram -->
<g id="node27" class="node"><title>Ram</title>
<ellipse fill="none" stroke="black" cx="1827.1" cy="-1287" rx="27.8951" ry="18"/>
<text text-anchor="middle" x="1827.1" y="-1283.3" font-family="Times,serif" font-size="14.00">Ram</text>
</g>
<!-- Ram&#45;&gt;NumericAttribute -->
<g id="edge26" class="edge"><title>Ram&#45;&gt;NumericAttribute</title>
<path fill="none" stroke="black" d="M1855.08,-1286.79C1898.44,-1285.79 1985.92,-1281.06 2056.53,-1260 2081.98,-1252.41 2108.72,-1239.16 2129.28,-1227.69"/>
<polygon fill="black" stroke="black" points="2131.01,-1230.73 2137.97,-1222.74 2127.55,-1224.65 2131.01,-1230.73"/>
</g>
<!-- RamClockSpeed -->
<g id="node28" class="node"><title>RamClockSpeed</title>
<ellipse fill="none" stroke="black" cx="1827.1" cy="-1233" rx="70.3881" ry="18"/>
<text text-anchor="middle" x="1827.1" y="-1229.3" font-family="Times,serif" font-size="14.00">RamClockSpeed</text>
</g>
<!-- RamClockSpeed&#45;&gt;NumericAttribute -->
<g id="edge27" class="edge"><title>RamClockSpeed&#45;&gt;NumericAttribute</title>
<path fill="none" stroke="black" d="M1894.25,-1227.7C1949.11,-1223.3 2027.27,-1217.04 2085.52,-1212.37"/>
<polygon fill="black" stroke="black" points="2086.1,-1215.83 2095.78,-1211.55 2085.54,-1208.86 2086.1,-1215.83"/>
</g>
<!-- RamWriteSpeed -->
<g id="node29" class="node"><title>RamWriteSpeed</title>
<ellipse fill="none" stroke="black" cx="1827.1" cy="-1179" rx="69.5877" ry="18"/>
<text text-anchor="middle" x="1827.1" y="-1175.3" font-family="Times,serif" font-size="14.00">RamWriteSpeed</text>
</g>
<!-- RamWriteSpeed&#45;&gt;NumericAttribute -->
<g id="edge28" class="edge"><title>RamWriteSpeed&#45;&gt;NumericAttribute</title>
<path fill="none" stroke="black" d="M1893.85,-1184.27C1948.76,-1188.67 2027.22,-1194.96 2085.62,-1199.64"/>
<polygon fill="black" stroke="black" points="2085.66,-1203.15 2095.91,-1200.46 2086.22,-1196.18 2085.66,-1203.15"/>
</g>
<!-- RamReadSpeed -->
<g id="node30" class="node"><title>RamReadSpeed</title>
<ellipse fill="none" stroke="black" cx="1827.1" cy="-1125" rx="67.6881" ry="18"/>
<text text-anchor="middle" x="1827.1" y="-1121.3" font-family="Times,serif" font-size="14.00">RamReadSpeed</text>
</g>
<!-- RamReadSpeed&#45;&gt;NumericAttribute -->
<g id="edge29" class="edge"><title>RamReadSpeed&#45;&gt;NumericAttribute</title>
<path fill="none" stroke="black" d="M1894.79,-1126.85C1941.01,-1129.59 2003.53,-1136.19 2056.53,-1152 2081.98,-1159.59 2108.72,-1172.84 2129.28,-1184.31"/>
<polygon fill="black" stroke="black" points="2127.55,-1187.35 2137.97,-1189.26 2131.01,-1181.27 2127.55,-1187.35"/>
</g>
<!-- NetworkCapacity -->
<g id="node31" class="node"><title>NetworkCapacity</title>
<ellipse fill="none" stroke="black" cx="1827.1" cy="-1071" rx="72.5877" ry="18"/>
<text text-anchor="middle" x="1827.1" y="-1067.3" font-family="Times,serif" font-size="14.00">NetworkCapacity</text>
</g>
<!-- NetworkCapacity&#45;&gt;NumericAttribute -->
<g id="edge30" class="edge"><title>NetworkCapacity&#45;&gt;NumericAttribute</title>
<path fill="none" stroke="black" d="M1898.62,-1067.64C1945.54,-1068.14 2007.37,-1074.22 2056.53,-1098 2095,-1116.61 2127.93,-1154.46 2147.1,-1180.03"/>
<polygon fill="black" stroke="black" points="2144.33,-1182.18 2153.06,-1188.19 2149.99,-1178.05 2144.33,-1182.18"/>
</g>
<!-- NetworkUploadSpeed -->
<g id="node32" class="node"><title>NetworkUploadSpeed</title>
<ellipse fill="none" stroke="black" cx="1827.1" cy="-1017" rx="89.0842" ry="18"/>
<text text-anchor="middle" x="1827.1" y="-1013.3" font-family="Times,serif" font-size="14.00">NetworkUploadSpeed</text>
</g>
<!-- NetworkUploadSpeed&#45;&gt;NumericAttribute -->
<g id="edge31" class="edge"><title>NetworkUploadSpeed&#45;&gt;NumericAttribute</title>
<path fill="none" stroke="black" d="M1910.16,-1010.49C1956.27,-1010.62 2013.1,-1017.42 2056.53,-1044 2107.58,-1075.25 2139.85,-1140.65 2154.93,-1178.09"/>
<polygon fill="black" stroke="black" points="2151.84,-1179.81 2158.72,-1187.86 2158.36,-1177.27 2151.84,-1179.81"/>
</g>
<!-- NetworkDownloadSpeed -->
<g id="node33" class="node"><title>NetworkDownloadSpeed</title>
<ellipse fill="none" stroke="black" cx="1827.1" cy="-963" rx="99.3824" ry="18"/>
<text text-anchor="middle" x="1827.1" y="-959.3" font-family="Times,serif" font-size="14.00">NetworkDownloadSpeed</text>
</g>
<!-- NetworkDownloadSpeed&#45;&gt;NumericAttribute -->
<g id="edge32" class="edge"><title>NetworkDownloadSpeed&#45;&gt;NumericAttribute</title>
<path fill="none" stroke="black" d="M1914.77,-954.457C1960.68,-954.287 2015.82,-961.454 2056.53,-990 2121.04,-1035.24 2149.26,-1130.35 2159.72,-1177.81"/>
<polygon fill="black" stroke="black" points="2156.32,-1178.65 2161.79,-1187.72 2163.17,-1177.21 2156.32,-1178.65"/>
</g>
<!-- PricingModel -->
<g id="node34" class="node"><title>PricingModel</title>
<ellipse fill="none" stroke="black" cx="1827.1" cy="-747" rx="59.5901" ry="18"/>
<text text-anchor="middle" x="1827.1" y="-743.3" font-family="Times,serif" font-size="14.00">PricingModel</text>
</g>
<!-- PricingModel&#45;&gt;ChoiceAttribute -->
<g id="edge33" class="edge"><title>PricingModel&#45;&gt;ChoiceAttribute</title>
<path fill="none" stroke="black" d="M1887.16,-747C1942.91,-747 2026.81,-747 2087.81,-747"/>
<polygon fill="black" stroke="black" points="2088.16,-750.5 2098.16,-747 2088.16,-743.5 2088.16,-750.5"/>
</g>
<!-- Static -->
<g id="node35" class="node"><title>Static</title>
<ellipse fill="none" stroke="black" cx="1827.1" cy="-261" rx="30.5947" ry="18"/>
<text text-anchor="middle" x="1827.1" y="-257.3" font-family="Times,serif" font-size="14.00">Static</text>
</g>
<!-- Static&#45;&gt;NameAttribute -->
<g id="edge34" class="edge"><title>Static&#45;&gt;NameAttribute</title>
<path fill="none" stroke="black" d="M1856.25,-255.234C1903.7,-247.278 1999.94,-238.971 2056.53,-288 2103.46,-328.661 2050.78,-377.032 2092.53,-423 2096.52,-427.392 2101.29,-431.072 2106.45,-434.156"/>
<polygon fill="black" stroke="black" points="2104.95,-437.322 2115.45,-438.802 2108.17,-431.102 2104.95,-437.322"/>
</g>
<!-- Dynamic -->
<g id="node36" class="node"><title>Dynamic</title>
<ellipse fill="none" stroke="black" cx="1827.1" cy="-207" rx="43.5923" ry="18"/>
<text text-anchor="middle" x="1827.1" y="-203.3" font-family="Times,serif" font-size="14.00">Dynamic</text>
</g>
<!-- Dynamic&#45;&gt;NameAttribute -->
<g id="edge35" class="edge"><title>Dynamic&#45;&gt;NameAttribute</title>
<path fill="none" stroke="black" d="M1866.44,-199.157C1916.92,-191.263 2005.25,-186.222 2056.53,-234 2119.09,-292.294 2037.37,-357.66 2092.53,-423 2096.35,-427.533 2101.02,-431.306 2106.12,-434.446"/>
<polygon fill="black" stroke="black" points="2104.56,-437.583 2115.04,-439.155 2107.83,-431.392 2104.56,-437.583"/>
</g>
<!-- PayAndGo -->
<g id="node37" class="node"><title>PayAndGo</title>
<ellipse fill="none" stroke="black" cx="1310.79" cy="-315" rx="50.0912" ry="18"/>
<text text-anchor="middle" x="1310.79" y="-311.3" font-family="Times,serif" font-size="14.00">PayAndGo</text>
</g>
<!-- PayAndGo&#45;&gt;Static -->
<g id="edge36" class="edge"><title>PayAndGo&#45;&gt;Static</title>
<path fill="none" stroke="black" d="M1359.25,-310.017C1459.94,-299.445 1693.33,-274.94 1786.58,-265.15"/>
<polygon fill="black" stroke="black" points="1787.14,-268.61 1796.72,-264.085 1786.4,-261.648 1787.14,-268.61"/>
</g>
<!-- PayPerResource -->
<g id="node38" class="node"><title>PayPerResource</title>
<ellipse fill="none" stroke="black" cx="1310.79" cy="-261" rx="68.4888" ry="18"/>
<text text-anchor="middle" x="1310.79" y="-257.3" font-family="Times,serif" font-size="14.00">PayPerResource</text>
</g>
<!-- PayPerResource&#45;&gt;Static -->
<g id="edge37" class="edge"><title>PayPerResource&#45;&gt;Static</title>
<path fill="none" stroke="black" d="M1379.29,-261C1488.1,-261 1698.92,-261 1786.48,-261"/>
<polygon fill="black" stroke="black" points="1786.53,-264.5 1796.53,-261 1786.53,-257.5 1786.53,-264.5"/>
</g>
<!-- Subscription -->
<g id="node39" class="node"><title>Subscription</title>
<ellipse fill="none" stroke="black" cx="1310.79" cy="-207" rx="55.4913" ry="18"/>
<text text-anchor="middle" x="1310.79" y="-203.3" font-family="Times,serif" font-size="14.00">Subscription</text>
</g>
<!-- Subscription&#45;&gt;Static -->
<g id="edge38" class="edge"><title>Subscription&#45;&gt;Static</title>
<path fill="none" stroke="black" d="M1363.93,-212.475C1467.09,-223.306 1695.14,-247.25 1786.81,-256.875"/>
<polygon fill="black" stroke="black" points="1786.47,-260.359 1796.78,-257.922 1787.2,-253.397 1786.47,-260.359"/>
</g>
<!-- Price -->
<g id="node40" class="node"><title>Price</title>
<ellipse fill="none" stroke="black" cx="2165.97" cy="-396" rx="28.6953" ry="18"/>
<text text-anchor="middle" x="2165.97" y="-392.3" font-family="Times,serif" font-size="14.00">Price</text>
</g>
<!-- Price&#45;&gt;Attribute -->
<g id="edge39" class="edge"><title>Price&#45;&gt;Attribute</title>
<path fill="none" stroke="black" d="M2192.12,-403.623C2206.37,-408.37 2224.32,-415.077 2239.41,-423 2256.57,-432.007 2274.38,-444.236 2288.58,-454.779"/>
<polygon fill="black" stroke="black" points="2286.82,-457.839 2296.91,-461.082 2291.04,-452.257 2286.82,-457.839"/>
</g>
<!-- DatabaseAsAService -->
<g id="node41" class="node"><title>DatabaseAsAService</title>
<ellipse fill="none" stroke="black" cx="1310.79" cy="-153" rx="85.2851" ry="18"/>
<text text-anchor="middle" x="1310.79" y="-149.3" font-family="Times,serif" font-size="14.00">DatabaseAsAService</text>
</g>
<!-- DatabaseAsAService&#45;&gt;SaaS -->
<g id="edge40" class="edge"><title>DatabaseAsAService&#45;&gt;SaaS</title>
<path fill="none" stroke="black" d="M1396.14,-153C1509.44,-153 1706.03,-153 1788.25,-153"/>
<polygon fill="black" stroke="black" points="1788.38,-156.5 1798.38,-153 1788.38,-149.5 1788.38,-156.5"/>
</g>
<!-- SQLDatabaseAsAService -->
<g id="node42" class="node"><title>SQLDatabaseAsAService</title>
<ellipse fill="none" stroke="black" cx="775.634" cy="-207" rx="102.082" ry="18"/>
<text text-anchor="middle" x="775.634" y="-203.3" font-family="Times,serif" font-size="14.00">SQLDatabaseAsAService</text>
</g>
<!-- SQLDatabaseAsAService&#45;&gt;DatabaseAsAService -->
<g id="edge41" class="edge"><title>SQLDatabaseAsAService&#45;&gt;DatabaseAsAService</title>
<path fill="none" stroke="black" d="M864.376,-198.113C963.826,-188.041 1124.91,-171.726 1223.68,-161.722"/>
<polygon fill="black" stroke="black" points="1224.03,-165.204 1233.63,-160.714 1223.33,-158.239 1224.03,-165.204"/>
</g>
<!-- NoSQLDatabaseAsAService -->
<g id="node43" class="node"><title>NoSQLDatabaseAsAService</title>
<ellipse fill="none" stroke="black" cx="775.634" cy="-153" rx="112.38" ry="18"/>
<text text-anchor="middle" x="775.634" y="-149.3" font-family="Times,serif" font-size="14.00">NoSQLDatabaseAsAService</text>
</g>
<!-- NoSQLDatabaseAsAService&#45;&gt;DatabaseAsAService -->
<g id="edge42" class="edge"><title>NoSQLDatabaseAsAService&#45;&gt;DatabaseAsAService</title>
<path fill="none" stroke="black" d="M888.077,-153C985.027,-153 1123.96,-153 1215.5,-153"/>
<polygon fill="black" stroke="black" points="1215.59,-156.5 1225.59,-153 1215.59,-149.5 1215.59,-156.5"/>
</g>
<!-- github.com/supermuesli/csdl@examples/Requirement1.py@latest -->
<g id="node44" class="node"><title>github.com/supermuesli/csdl@examples/Requirement1.py@latest</title>
<ellipse fill="none" stroke="black" cx="245.678" cy="-72" rx="245.857" ry="18"/>
<text text-anchor="middle" x="245.678" y="-68.3" font-family="Times,serif" font-size="14.00">github.com/supermuesli/csdl@examples/Requirement1.py@latest</text>
</g>
<!-- github.com/supermuesli/csdl@examples/Requirement1.py@latest&#45;&gt;VMAsAService -->
<g id="edge43" class="edge"><title>github.com/supermuesli/csdl@examples/Requirement1.py@latest&#45;&gt;VMAsAService</title>
<path fill="none" stroke="black" d="M447.782,-61.7154C535.605,-57.2241 633.286,-52.2286 698.791,-48.8787"/>
<polygon fill="black" stroke="black" points="699.214,-52.3617 709.022,-48.3555 698.856,-45.3709 699.214,-52.3617"/>
</g>
<!-- github.com/supermuesli/csdl@misc/StaticIp.py@latest -->
<g id="node45" class="node"><title>github.com/supermuesli/csdl@misc/StaticIp.py@latest</title>
<ellipse fill="none" stroke="black" cx="1827.1" cy="-909" rx="206.063" ry="18"/>
<text text-anchor="middle" x="1827.1" y="-905.3" font-family="Times,serif" font-size="14.00">github.com/supermuesli/csdl@misc/StaticIp.py@latest</text>
</g>
<!-- github.com/supermuesli/csdl@misc/StaticIp.py@latest&#45;&gt;NumericAttribute -->
<g id="edge44" class="edge"><title>github.com/supermuesli/csdl@misc/StaticIp.py@latest&#45;&gt;NumericAttribute</title>
<path fill="none" stroke="black" d="M2019.79,-915.52C2032.92,-920.733 2045.35,-927.444 2056.53,-936 2134.91,-995.993 2156.82,-1121.71 2162.79,-1177.86"/>
<polygon fill="black" stroke="black" points="2159.31,-1178.2 2163.76,-1187.82 2166.28,-1177.53 2159.31,-1178.2"/>
</g>
<!-- github.com/supermuesli/csdl@misc/countries/USA.py@latest -->
<g id="node46" class="node"><title>github.com/supermuesli/csdl@misc/countries/USA.py@latest</title>
<ellipse fill="none" stroke="black" cx="1310.79" cy="-639" rx="231.259" ry="18"/>
<text text-anchor="middle" x="1310.79" y="-635.3" font-family="Times,serif" font-size="14.00">github.com/supermuesli/csdl@misc/countries/USA.py@latest</text>
</g>
<!-- github.com/supermuesli/csdl@misc/countries/USA.py@latest&#45;&gt;NorthAmerica -->
<g id="edge45" class="edge"><title>github.com/supermuesli/csdl@misc/countries/USA.py@latest&#45;&gt;NorthAmerica</title>
<path fill="none" stroke="black" d="M1542.24,-639C1619.35,-639 1699.7,-639 1755.15,-639"/>
<polygon fill="black" stroke="black" points="1755.21,-642.5 1765.21,-639 1755.21,-635.5 1755.21,-642.5"/>
</g>
<!-- github.com/supermuesli/csdl@aws/ec2/A1Large.py@latest -->
<g id="node47" class="node"><title>github.com/supermuesli/csdl@aws/ec2/A1Large.py@latest</title>
<ellipse fill="none" stroke="black" cx="245.678" cy="-18" rx="221.761" ry="18"/>
<text text-anchor="middle" x="245.678" y="-14.3" font-family="Times,serif" font-size="14.00">github.com/supermuesli/csdl@aws/ec2/A1Large.py@latest</text>
</g>
<!-- github.com/supermuesli/csdl@aws/ec2/A1Large.py@latest&#45;&gt;VMAsAService -->
<g id="edge46" class="edge"><title>github.com/supermuesli/csdl@aws/ec2/A1Large.py@latest&#45;&gt;VMAsAService</title>
<path fill="none" stroke="black" d="M433.559,-27.5572C524.834,-32.2251 629.59,-37.5823 698.656,-41.1144"/>
<polygon fill="black" stroke="black" points="698.838,-44.6282 709.004,-41.6436 699.195,-37.6373 698.838,-44.6282"/>
</g>
<!-- github.com/supermuesli/csdl@aws/regions/Region.py@latest -->
<g id="node48" class="node"><title>github.com/supermuesli/csdl@aws/regions/Region.py@latest</title>
<ellipse fill="none" stroke="black" cx="1827.1" cy="-693" rx="229.359" ry="18"/>
<text text-anchor="middle" x="1827.1" y="-689.3" font-family="Times,serif" font-size="14.00">github.com/supermuesli/csdl@aws/regions/Region.py@latest</text>
</g>
<!-- github.com/supermuesli/csdl@aws/regions/Region.py@latest&#45;&gt;ChoiceAttribute -->
<g id="edge47" class="edge"><title>github.com/supermuesli/csdl@aws/regions/Region.py@latest&#45;&gt;ChoiceAttribute</title>
<path fill="none" stroke="black" d="M1970.78,-707.047C1999.28,-710.645 2028.93,-714.955 2056.53,-720 2073.52,-723.106 2091.81,-727.317 2108.43,-731.489"/>
<polygon fill="black" stroke="black" points="2107.99,-734.988 2118.55,-734.071 2109.72,-728.206 2107.99,-734.988"/>
</g>
<!-- github.com/supermuesli/csdl@aws/regions/California.py@latest -->
<g id="node49" class="node"><title>github.com/supermuesli/csdl@aws/regions/California.py@latest</title>
<ellipse fill="none" stroke="black" cx="775.634" cy="-693" rx="239.358" ry="18"/>
<text text-anchor="middle" x="775.634" y="-689.3" font-family="Times,serif" font-size="14.00">github.com/supermuesli/csdl@aws/regions/California.py@latest</text>
</g>
<!-- github.com/supermuesli/csdl@aws/regions/California.py@latest&#45;&gt;github.com/supermuesli/csdl@misc/countries/USA.py@latest -->
<g id="edge48" class="edge"><title>github.com/supermuesli/csdl@aws/regions/California.py@latest&#45;&gt;github.com/supermuesli/csdl@misc/countries/USA.py@latest</title>
<path fill="none" stroke="black" d="M919.16,-678.564C993.258,-671.06 1083.81,-661.888 1159.07,-654.265"/>
<polygon fill="black" stroke="black" points="1159.52,-657.738 1169.11,-653.248 1158.81,-650.774 1159.52,-657.738"/>
</g>
<!-- github.com/supermuesli/csdl@aws/regions/EastVirginia.py@latest -->
<g id="node50" class="node"><title>github.com/supermuesli/csdl@aws/regions/EastVirginia.py@latest</title>
<ellipse fill="none" stroke="black" cx="775.634" cy="-639" rx="248.056" ry="18"/>
<text text-anchor="middle" x="775.634" y="-635.3" font-family="Times,serif" font-size="14.00">github.com/supermuesli/csdl@aws/regions/EastVirginia.py@latest</text>
</g>
<!-- github.com/supermuesli/csdl@aws/regions/EastVirginia.py@latest&#45;&gt;github.com/supermuesli/csdl@misc/countries/USA.py@latest -->
<g id="edge49" class="edge"><title>github.com/supermuesli/csdl@aws/regions/EastVirginia.py@latest&#45;&gt;github.com/supermuesli/csdl@misc/countries/USA.py@latest</title>
<path fill="none" stroke="black" d="M1024.09,-639C1039.02,-639 1054.03,-639 1068.92,-639"/>
<polygon fill="black" stroke="black" points="1069.22,-642.5 1079.22,-639 1069.22,-635.5 1069.22,-642.5"/>
</g>
<!-- github.com/supermuesli/csdl@aws/regions/NewYork.py@latest -->
<g id="node51" class="node"><title>github.com/supermuesli/csdl@aws/regions/NewYork.py@latest</title>
<ellipse fill="none" stroke="black" cx="775.634" cy="-585" rx="238.558" ry="18"/>
<text text-anchor="middle" x="775.634" y="-581.3" font-family="Times,serif" font-size="14.00">github.com/supermuesli/csdl@aws/regions/NewYork.py@latest</text>
</g>
<!-- github.com/supermuesli/csdl@aws/regions/NewYork.py@latest&#45;&gt;github.com/supermuesli/csdl@misc/countries/USA.py@latest -->
<g id="edge50" class="edge"><title>github.com/supermuesli/csdl@aws/regions/NewYork.py@latest&#45;&gt;github.com/supermuesli/csdl@misc/countries/USA.py@latest</title>
<path fill="none" stroke="black" d="M918.81,-599.4C992.91,-606.905 1083.54,-616.085 1158.88,-623.715"/>
<polygon fill="black" stroke="black" points="1158.63,-627.208 1168.93,-624.734 1159.34,-620.244 1158.63,-627.208"/>
</g>
<!-- github.com/supermuesli/csdl@aws/EBS.py@latest -->
<g id="node52" class="node"><title>github.com/supermuesli/csdl@aws/EBS.py@latest</title>
<ellipse fill="none" stroke="black" cx="775.634" cy="-99" rx="191.966" ry="18"/>
<text text-anchor="middle" x="775.634" y="-95.3" font-family="Times,serif" font-size="14.00">github.com/supermuesli/csdl@aws/EBS.py@latest</text>
</g>
<!-- github.com/supermuesli/csdl@aws/EBS.py@latest&#45;&gt;StorageAsAService -->
<g id="edge51" class="edge"><title>github.com/supermuesli/csdl@aws/EBS.py@latest&#45;&gt;StorageAsAService</title>
<path fill="none" stroke="black" d="M967.61,-99C1053.72,-99 1151.31,-99 1220.17,-99"/>
<polygon fill="black" stroke="black" points="1220.54,-102.5 1230.54,-99 1220.54,-95.5001 1220.54,-102.5"/>
</g>
<!-- github.com/supermuesli/csdl@aws/ec2/ElasticIpAmount.py@latest -->
<g id="node53" class="node"><title>github.com/supermuesli/csdl@aws/ec2/ElasticIpAmount.py@latest</title>
<ellipse fill="none" stroke="black" cx="1310.79" cy="-909" rx="250.756" ry="18"/>
<text text-anchor="middle" x="1310.79" y="-905.3" font-family="Times,serif" font-size="14.00">github.com/supermuesli/csdl@aws/ec2/ElasticIpAmount.py@latest</text>
</g>
<!-- github.com/supermuesli/csdl@aws/ec2/ElasticIpAmount.py@latest&#45;&gt;github.com/supermuesli/csdl@misc/StaticIp.py@latest -->
<g id="edge52" class="edge"><title>github.com/supermuesli/csdl@aws/ec2/ElasticIpAmount.py@latest&#45;&gt;github.com/supermuesli/csdl@misc/StaticIp.py@latest</title>
<path fill="none" stroke="black" d="M1561.79,-909C1578.2,-909 1594.65,-909 1610.87,-909"/>
<polygon fill="black" stroke="black" points="1610.94,-912.5 1620.94,-909 1610.94,-905.5 1610.94,-912.5"/>
</g>
</g>
</svg>
