<?xml version="1.0" encoding="UTF-8" standalone="no"?>
<!DOCTYPE svg PUBLIC "-//W3C//DTD SVG 1.1//EN"
 "http://www.w3.org/Graphics/SVG/1.1/DTD/svg11.dtd">
<!-- Generated by graphviz version 2.38.0 (20140413.2041)
 -->
<!-- Title: %3 Pages: 1 -->
<svg width="2309pt" height="1340pt"
 viewBox="0.00 0.00 2309.01 1340.00" xmlns="http://www.w3.org/2000/svg" xmlns:xlink="http://www.w3.org/1999/xlink">
<g id="graph0" class="graph" transform="scale(1 1) rotate(0) translate(4 1336)">
<title>%3</title>
<polygon fill="white" stroke="none" points="-4,4 -4,-1336 2305.01,-1336 2305.01,4 -4,4"/>
<!-- VMAsAService -->
<g id="node1" class="node"><title>VMAsAService</title>
<ellipse fill="none" stroke="black" cx="719.089" cy="-45" rx="67.6881" ry="18"/>
<text text-anchor="middle" x="719.089" y="-41.3" font-family="Times,serif" font-size="14.00">VMAsAService</text>
</g>
<!-- ServerAsAService -->
<g id="node2" class="node"><title>ServerAsAService</title>
<ellipse fill="none" stroke="black" cx="1197.7" cy="-45" rx="76.0865" ry="18"/>
<text text-anchor="middle" x="1197.7" y="-41.3" font-family="Times,serif" font-size="14.00">ServerAsAService</text>
</g>
<!-- VMAsAService&#45;&gt;ServerAsAService -->
<g id="edge1" class="edge"><title>VMAsAService&#45;&gt;ServerAsAService</title>
<path fill="none" stroke="black" d="M786.862,-45C871.684,-45 1018.18,-45 1111.12,-45"/>
<polygon fill="black" stroke="black" points="1111.34,-48.5001 1121.34,-45 1111.34,-41.5001 1111.34,-48.5001"/>
</g>
<!-- IaaS -->
<g id="node3" class="node"><title>IaaS</title>
<ellipse fill="none" stroke="black" cx="1690.61" cy="-72" rx="27" ry="18"/>
<text text-anchor="middle" x="1690.61" y="-68.3" font-family="Times,serif" font-size="14.00">IaaS</text>
</g>
<!-- ServerAsAService&#45;&gt;IaaS -->
<g id="edge2" class="edge"><title>ServerAsAService&#45;&gt;IaaS</title>
<path fill="none" stroke="black" d="M1271.93,-49.0276C1378.73,-54.9014 1573.21,-65.5979 1653.48,-70.0127"/>
<polygon fill="black" stroke="black" points="1653.4,-73.5138 1663.58,-70.5684 1653.79,-66.5244 1653.4,-73.5138"/>
</g>
<!-- CCS -->
<g id="node5" class="node"><title>CCS</title>
<ellipse fill="none" stroke="black" cx="2006.08" cy="-126" rx="27.0966" ry="18"/>
<text text-anchor="middle" x="2006.08" y="-122.3" font-family="Times,serif" font-size="14.00">CCS</text>
</g>
<!-- IaaS&#45;&gt;CCS -->
<g id="edge4" class="edge"><title>IaaS&#45;&gt;CCS</title>
<path fill="none" stroke="black" d="M1717.65,-74.4757C1756.74,-78.4062 1832.8,-86.8883 1896.64,-99 1921.7,-103.755 1949.63,-110.748 1970.86,-116.426"/>
<polygon fill="black" stroke="black" points="1970.14,-119.856 1980.71,-119.092 1971.97,-113.099 1970.14,-119.856"/>
</g>
<!-- SaaS -->
<g id="node4" class="node"><title>SaaS</title>
<ellipse fill="none" stroke="black" cx="1690.61" cy="-126" rx="28.6953" ry="18"/>
<text text-anchor="middle" x="1690.61" y="-122.3" font-family="Times,serif" font-size="14.00">SaaS</text>
</g>
<!-- SaaS&#45;&gt;CCS -->
<g id="edge3" class="edge"><title>SaaS&#45;&gt;CCS</title>
<path fill="none" stroke="black" d="M1719.43,-126C1776.09,-126 1904.86,-126 1968.33,-126"/>
<polygon fill="black" stroke="black" points="1968.66,-129.5 1978.66,-126 1968.66,-122.5 1968.66,-129.5"/>
</g>
<!-- Attribute -->
<g id="node8" class="node"><title>Attribute</title>
<ellipse fill="none" stroke="black" cx="2157.77" cy="-423" rx="42.4939" ry="18"/>
<text text-anchor="middle" x="2157.77" y="-419.3" font-family="Times,serif" font-size="14.00">Attribute</text>
</g>
<!-- CCS&#45;&gt;Attribute -->
<g id="edge10" class="edge"><title>CCS&#45;&gt;Attribute</title>
<path fill="none" stroke="black" d="M2015.78,-143.252C2040.78,-192.859 2113.01,-336.158 2143.23,-396.118"/>
<polygon fill="black" stroke="black" points="2140.24,-397.972 2147.87,-405.327 2146.49,-394.822 2140.24,-397.972"/>
</g>
<!-- StorageAsAService -->
<g id="node6" class="node"><title>StorageAsAService</title>
<ellipse fill="none" stroke="black" cx="1197.7" cy="-99" rx="79.8859" ry="18"/>
<text text-anchor="middle" x="1197.7" y="-95.3" font-family="Times,serif" font-size="14.00">StorageAsAService</text>
</g>
<!-- StorageAsAService&#45;&gt;IaaS -->
<g id="edge5" class="edge"><title>StorageAsAService&#45;&gt;IaaS</title>
<path fill="none" stroke="black" d="M1275.67,-94.7664C1383.23,-88.8507 1574.2,-78.3473 1653.52,-73.985"/>
<polygon fill="black" stroke="black" points="1653.72,-77.4795 1663.51,-73.4356 1653.33,-70.4901 1653.72,-77.4795"/>
</g>
<!-- NumericAttribute -->
<g id="node7" class="node"><title>NumericAttribute</title>
<ellipse fill="none" stroke="black" cx="2006.08" cy="-963" rx="73.387" ry="18"/>
<text text-anchor="middle" x="2006.08" y="-959.3" font-family="Times,serif" font-size="14.00">NumericAttribute</text>
</g>
<!-- NumericAttribute&#45;&gt;Attribute -->
<g id="edge6" class="edge"><title>NumericAttribute&#45;&gt;Attribute</title>
<path fill="none" stroke="black" d="M2012.07,-945.033C2034.02,-865.833 2122.25,-547.544 2149.03,-450.94"/>
<polygon fill="black" stroke="black" points="2152.48,-451.606 2151.78,-441.034 2145.73,-449.736 2152.48,-451.606"/>
</g>
<!-- object -->
<g id="node12" class="node"><title>object</title>
<ellipse fill="none" stroke="black" cx="2268.52" cy="-423" rx="32.4942" ry="18"/>
<text text-anchor="middle" x="2268.52" y="-419.3" font-family="Times,serif" font-size="14.00">object</text>
</g>
<!-- Attribute&#45;&gt;object -->
<g id="edge11" class="edge"><title>Attribute&#45;&gt;object</title>
<path fill="none" stroke="black" d="M2200.2,-423C2208.47,-423 2217.16,-423 2225.46,-423"/>
<polygon fill="black" stroke="black" points="2225.68,-426.5 2235.68,-423 2225.68,-419.5 2225.68,-426.5"/>
</g>
<!-- ChoiceAttribute -->
<g id="node9" class="node"><title>ChoiceAttribute</title>
<ellipse fill="none" stroke="black" cx="2006.08" cy="-531" rx="67.6881" ry="18"/>
<text text-anchor="middle" x="2006.08" y="-527.3" font-family="Times,serif" font-size="14.00">ChoiceAttribute</text>
</g>
<!-- ChoiceAttribute&#45;&gt;Attribute -->
<g id="edge7" class="edge"><title>ChoiceAttribute&#45;&gt;Attribute</title>
<path fill="none" stroke="black" d="M2030.47,-514.125C2056.56,-495.307 2098.79,-464.832 2127.16,-444.366"/>
<polygon fill="black" stroke="black" points="2129.42,-447.048 2135.49,-438.359 2125.33,-441.372 2129.42,-447.048"/>
</g>
<!-- BoolAttribute -->
<g id="node10" class="node"><title>BoolAttribute</title>
<ellipse fill="none" stroke="black" cx="2006.08" cy="-423" rx="59.5901" ry="18"/>
<text text-anchor="middle" x="2006.08" y="-419.3" font-family="Times,serif" font-size="14.00">BoolAttribute</text>
</g>
<!-- BoolAttribute&#45;&gt;Attribute -->
<g id="edge8" class="edge"><title>BoolAttribute&#45;&gt;Attribute</title>
<path fill="none" stroke="black" d="M2066.25,-423C2079.01,-423 2092.42,-423 2104.89,-423"/>
<polygon fill="black" stroke="black" points="2105.1,-426.5 2115.1,-423 2105.1,-419.5 2105.1,-426.5"/>
</g>
<!-- NameAttribute -->
<g id="node11" class="node"><title>NameAttribute</title>
<ellipse fill="none" stroke="black" cx="2006.08" cy="-342" rx="63.8893" ry="18"/>
<text text-anchor="middle" x="2006.08" y="-338.3" font-family="Times,serif" font-size="14.00">NameAttribute</text>
</g>
<!-- NameAttribute&#45;&gt;Attribute -->
<g id="edge9" class="edge"><title>NameAttribute&#45;&gt;Attribute</title>
<path fill="none" stroke="black" d="M2036.66,-358.003C2061.09,-371.225 2095.84,-390.027 2121.68,-404.01"/>
<polygon fill="black" stroke="black" points="2120.3,-407.243 2130.76,-408.924 2123.63,-401.087 2120.3,-407.243"/>
</g>
<!-- Region -->
<g id="node13" class="node"><title>Region</title>
<ellipse fill="none" stroke="black" cx="1690.61" cy="-612" rx="36.2938" ry="18"/>
<text text-anchor="middle" x="1690.61" y="-608.3" font-family="Times,serif" font-size="14.00">Region</text>
</g>
<!-- Region&#45;&gt;ChoiceAttribute -->
<g id="edge12" class="edge"><title>Region&#45;&gt;ChoiceAttribute</title>
<path fill="none" stroke="black" d="M1727.19,-610.869C1768.68,-608.743 1838.96,-602.622 1896.64,-585 1922.05,-577.239 1948.78,-563.991 1969.35,-552.56"/>
<polygon fill="black" stroke="black" points="1971.08,-555.604 1978.05,-547.628 1967.63,-549.514 1971.08,-555.604"/>
</g>
<!-- NorthAmerica -->
<g id="node14" class="node"><title>NorthAmerica</title>
<ellipse fill="none" stroke="black" cx="1690.61" cy="-450" rx="61.99" ry="18"/>
<text text-anchor="middle" x="1690.61" y="-446.3" font-family="Times,serif" font-size="14.00">NorthAmerica</text>
</g>
<!-- NorthAmerica&#45;&gt;NameAttribute -->
<g id="edge13" class="edge"><title>NorthAmerica&#45;&gt;NameAttribute</title>
<path fill="none" stroke="black" d="M1752.44,-450.025C1794.36,-448.14 1850.6,-441.777 1896.64,-423 1915.16,-415.448 1916.62,-407.976 1932.64,-396 1946.35,-385.752 1961.53,-374.431 1974.44,-364.813"/>
<polygon fill="black" stroke="black" points="1976.63,-367.547 1982.56,-358.766 1972.45,-361.933 1976.63,-367.547"/>
</g>
<!-- Australia -->
<g id="node15" class="node"><title>Australia</title>
<ellipse fill="none" stroke="black" cx="1690.61" cy="-396" rx="42.7926" ry="18"/>
<text text-anchor="middle" x="1690.61" y="-392.3" font-family="Times,serif" font-size="14.00">Australia</text>
</g>
<!-- Australia&#45;&gt;NameAttribute -->
<g id="edge14" class="edge"><title>Australia&#45;&gt;NameAttribute</title>
<path fill="none" stroke="black" d="M1732.67,-391.974C1774.22,-387.577 1840.2,-379.707 1896.64,-369 1914.17,-365.675 1933.1,-361.255 1950.16,-356.956"/>
<polygon fill="black" stroke="black" points="1951.14,-360.317 1959.96,-354.448 1949.41,-353.535 1951.14,-360.317"/>
</g>
<!-- EastAsia -->
<g id="node16" class="node"><title>EastAsia</title>
<ellipse fill="none" stroke="black" cx="1690.61" cy="-342" rx="42.4939" ry="18"/>
<text text-anchor="middle" x="1690.61" y="-338.3" font-family="Times,serif" font-size="14.00">EastAsia</text>
</g>
<!-- EastAsia&#45;&gt;NameAttribute -->
<g id="edge15" class="edge"><title>EastAsia&#45;&gt;NameAttribute</title>
<path fill="none" stroke="black" d="M1732.91,-342C1783.55,-342 1870.24,-342 1932.18,-342"/>
<polygon fill="black" stroke="black" points="1932.29,-345.5 1942.29,-342 1932.29,-338.5 1932.29,-345.5"/>
</g>
<!-- SouthAmerica -->
<g id="node17" class="node"><title>SouthAmerica</title>
<ellipse fill="none" stroke="black" cx="1690.61" cy="-288" rx="61.99" ry="18"/>
<text text-anchor="middle" x="1690.61" y="-284.3" font-family="Times,serif" font-size="14.00">SouthAmerica</text>
</g>
<!-- SouthAmerica&#45;&gt;NameAttribute -->
<g id="edge16" class="edge"><title>SouthAmerica&#45;&gt;NameAttribute</title>
<path fill="none" stroke="black" d="M1749.33,-293.837C1790.57,-298.435 1847.26,-305.632 1896.64,-315 1914.17,-318.325 1933.1,-322.745 1950.16,-327.044"/>
<polygon fill="black" stroke="black" points="1949.41,-330.465 1959.96,-329.552 1951.14,-323.683 1949.41,-330.465"/>
</g>
<!-- Europe -->
<g id="node18" class="node"><title>Europe</title>
<ellipse fill="none" stroke="black" cx="1690.61" cy="-234" rx="36.2938" ry="18"/>
<text text-anchor="middle" x="1690.61" y="-230.3" font-family="Times,serif" font-size="14.00">Europe</text>
</g>
<!-- Europe&#45;&gt;NameAttribute -->
<g id="edge17" class="edge"><title>Europe&#45;&gt;NameAttribute</title>
<path fill="none" stroke="black" d="M1727.08,-233.316C1769.08,-233.698 1840.43,-238.143 1896.64,-261 1928.68,-274.03 1959.73,-298.855 1980.33,-317.603"/>
<polygon fill="black" stroke="black" points="1977.99,-320.206 1987.7,-324.454 1982.76,-315.08 1977.99,-320.206"/>
</g>
<!-- Antarctica -->
<g id="node19" class="node"><title>Antarctica</title>
<ellipse fill="none" stroke="black" cx="1690.61" cy="-180" rx="47.3916" ry="18"/>
<text text-anchor="middle" x="1690.61" y="-176.3" font-family="Times,serif" font-size="14.00">Antarctica</text>
</g>
<!-- Antarctica&#45;&gt;NameAttribute -->
<g id="edge18" class="edge"><title>Antarctica&#45;&gt;NameAttribute</title>
<path fill="none" stroke="black" d="M1737.42,-176.601C1781.11,-175.442 1847.36,-179.272 1896.64,-207 1941.04,-231.982 1974.18,-283.049 1991.51,-314.718"/>
<polygon fill="black" stroke="black" points="1988.59,-316.685 1996.38,-323.873 1994.77,-313.4 1988.59,-316.685"/>
</g>
<!-- Currency -->
<g id="node20" class="node"><title>Currency</title>
<ellipse fill="none" stroke="black" cx="1690.61" cy="-558" rx="43.5923" ry="18"/>
<text text-anchor="middle" x="1690.61" y="-554.3" font-family="Times,serif" font-size="14.00">Currency</text>
</g>
<!-- Currency&#45;&gt;ChoiceAttribute -->
<g id="edge19" class="edge"><title>Currency&#45;&gt;ChoiceAttribute</title>
<path fill="none" stroke="black" d="M1733.56,-554.387C1784.05,-550.038 1869.73,-542.658 1931.35,-537.351"/>
<polygon fill="black" stroke="black" points="1931.74,-540.83 1941.4,-536.485 1931.14,-533.856 1931.74,-540.83"/>
</g>
<!-- Storage -->
<g id="node21" class="node"><title>Storage</title>
<ellipse fill="none" stroke="black" cx="1690.61" cy="-1314" rx="37.8943" ry="18"/>
<text text-anchor="middle" x="1690.61" y="-1310.3" font-family="Times,serif" font-size="14.00">Storage</text>
</g>
<!-- Storage&#45;&gt;NumericAttribute -->
<g id="edge20" class="edge"><title>Storage&#45;&gt;NumericAttribute</title>
<path fill="none" stroke="black" d="M1726.4,-1319.69C1771.04,-1324.93 1848.44,-1326.74 1896.64,-1287 1988.37,-1211.39 2002.94,-1055.6 2004.94,-991.506"/>
<polygon fill="black" stroke="black" points="2008.44,-991.413 2005.18,-981.335 2001.45,-991.252 2008.44,-991.413"/>
</g>
<!-- StorageWriteSpeed -->
<g id="node22" class="node"><title>StorageWriteSpeed</title>
<ellipse fill="none" stroke="black" cx="1690.61" cy="-1260" rx="79.0865" ry="18"/>
<text text-anchor="middle" x="1690.61" y="-1256.3" font-family="Times,serif" font-size="14.00">StorageWriteSpeed</text>
</g>
<!-- StorageWriteSpeed&#45;&gt;NumericAttribute -->
<g id="edge21" class="edge"><title>StorageWriteSpeed&#45;&gt;NumericAttribute</title>
<path fill="none" stroke="black" d="M1762.97,-1267.58C1805.86,-1268.32 1859.2,-1262.05 1896.64,-1233 1974.46,-1172.61 1996.65,-1047.56 2002.8,-991.399"/>
<polygon fill="black" stroke="black" points="2006.32,-991.422 2003.83,-981.123 1999.35,-990.725 2006.32,-991.422"/>
</g>
<!-- StorageReadSpeed -->
<g id="node23" class="node"><title>StorageReadSpeed</title>
<ellipse fill="none" stroke="black" cx="1690.61" cy="-1206" rx="77.1866" ry="18"/>
<text text-anchor="middle" x="1690.61" y="-1202.3" font-family="Times,serif" font-size="14.00">StorageReadSpeed</text>
</g>
<!-- StorageReadSpeed&#45;&gt;NumericAttribute -->
<g id="edge22" class="edge"><title>StorageReadSpeed&#45;&gt;NumericAttribute</title>
<path fill="none" stroke="black" d="M1763.11,-1212.47C1805.52,-1212.69 1858.31,-1206.26 1896.64,-1179 1960.86,-1133.33 1989.22,-1038.43 1999.77,-991.1"/>
<polygon fill="black" stroke="black" points="2003.21,-991.729 2001.86,-981.22 1996.37,-990.276 2003.21,-991.729"/>
</g>
<!-- OperatingSystem -->
<g id="node24" class="node"><title>OperatingSystem</title>
<ellipse fill="none" stroke="black" cx="1690.61" cy="-504" rx="72.2875" ry="18"/>
<text text-anchor="middle" x="1690.61" y="-500.3" font-family="Times,serif" font-size="14.00">OperatingSystem</text>
</g>
<!-- OperatingSystem&#45;&gt;ChoiceAttribute -->
<g id="edge23" class="edge"><title>OperatingSystem&#45;&gt;ChoiceAttribute</title>
<path fill="none" stroke="black" d="M1759.24,-509.825C1809.95,-514.193 1879.28,-520.165 1931.4,-524.653"/>
<polygon fill="black" stroke="black" points="1931.32,-528.159 1941.58,-525.53 1931.92,-521.185 1931.32,-528.159"/>
</g>
<!-- CpuCores -->
<g id="node25" class="node"><title>CpuCores</title>
<ellipse fill="none" stroke="black" cx="1690.61" cy="-1152" rx="46.2923" ry="18"/>
<text text-anchor="middle" x="1690.61" y="-1148.3" font-family="Times,serif" font-size="14.00">CpuCores</text>
</g>
<!-- CpuCores&#45;&gt;NumericAttribute -->
<g id="edge24" class="edge"><title>CpuCores&#45;&gt;NumericAttribute</title>
<path fill="none" stroke="black" d="M1735.49,-1156.23C1779.53,-1158.3 1847.69,-1155.41 1896.64,-1125 1947.49,-1093.41 1979.84,-1028.14 1994.98,-990.81"/>
<polygon fill="black" stroke="black" points="1998.41,-991.661 1998.8,-981.073 1991.89,-989.107 1998.41,-991.661"/>
</g>
<!-- CpuClockSpeed -->
<g id="node26" class="node"><title>CpuClockSpeed</title>
<ellipse fill="none" stroke="black" cx="1690.61" cy="-1098" rx="67.6881" ry="18"/>
<text text-anchor="middle" x="1690.61" y="-1094.3" font-family="Times,serif" font-size="14.00">CpuClockSpeed</text>
</g>
<!-- CpuClockSpeed&#45;&gt;NumericAttribute -->
<g id="edge25" class="edge"><title>CpuClockSpeed&#45;&gt;NumericAttribute</title>
<path fill="none" stroke="black" d="M1757.98,-1099.9C1799.72,-1098.59 1853.63,-1092.16 1896.64,-1071 1934.99,-1052.14 1967.95,-1014.35 1987.16,-988.864"/>
<polygon fill="black" stroke="black" points="1990.03,-990.867 1993.14,-980.737 1984.39,-986.72 1990.03,-990.867"/>
</g>
<!-- Ram -->
<g id="node27" class="node"><title>Ram</title>
<ellipse fill="none" stroke="black" cx="1690.61" cy="-1044" rx="27.8951" ry="18"/>
<text text-anchor="middle" x="1690.61" y="-1040.3" font-family="Times,serif" font-size="14.00">Ram</text>
</g>
<!-- Ram&#45;&gt;NumericAttribute -->
<g id="edge26" class="edge"><title>Ram&#45;&gt;NumericAttribute</title>
<path fill="none" stroke="black" d="M1718.75,-1043.27C1758.58,-1041.56 1834.84,-1035.88 1896.64,-1017 1921.76,-1009.33 1948.18,-996.291 1968.65,-984.949"/>
<polygon fill="black" stroke="black" points="1970.63,-987.851 1977.61,-979.883 1967.18,-981.758 1970.63,-987.851"/>
</g>
<!-- RamClockSpeed -->
<g id="node28" class="node"><title>RamClockSpeed</title>
<ellipse fill="none" stroke="black" cx="1690.61" cy="-990" rx="70.3881" ry="18"/>
<text text-anchor="middle" x="1690.61" y="-986.3" font-family="Times,serif" font-size="14.00">RamClockSpeed</text>
</g>
<!-- RamClockSpeed&#45;&gt;NumericAttribute -->
<g id="edge27" class="edge"><title>RamClockSpeed&#45;&gt;NumericAttribute</title>
<path fill="none" stroke="black" d="M1757.32,-984.34C1806.56,-980.1 1874.12,-974.28 1926.26,-969.789"/>
<polygon fill="black" stroke="black" points="1926.81,-973.255 1936.47,-968.91 1926.21,-966.281 1926.81,-973.255"/>
</g>
<!-- RamWriteSpeed -->
<g id="node29" class="node"><title>RamWriteSpeed</title>
<ellipse fill="none" stroke="black" cx="1690.61" cy="-936" rx="69.5877" ry="18"/>
<text text-anchor="middle" x="1690.61" y="-932.3" font-family="Times,serif" font-size="14.00">RamWriteSpeed</text>
</g>
<!-- RamWriteSpeed&#45;&gt;NumericAttribute -->
<g id="edge28" class="edge"><title>RamWriteSpeed&#45;&gt;NumericAttribute</title>
<path fill="none" stroke="black" d="M1756.94,-941.627C1806.23,-945.872 1874.06,-951.714 1926.34,-956.218"/>
<polygon fill="black" stroke="black" points="1926.32,-959.729 1936.58,-957.1 1926.92,-952.754 1926.32,-959.729"/>
</g>
<!-- RamReadSpeed -->
<g id="node30" class="node"><title>RamReadSpeed</title>
<ellipse fill="none" stroke="black" cx="1690.61" cy="-882" rx="67.6881" ry="18"/>
<text text-anchor="middle" x="1690.61" y="-878.3" font-family="Times,serif" font-size="14.00">RamReadSpeed</text>
</g>
<!-- RamReadSpeed&#45;&gt;NumericAttribute -->
<g id="edge29" class="edge"><title>RamReadSpeed&#45;&gt;NumericAttribute</title>
<path fill="none" stroke="black" d="M1757.42,-885.122C1798.22,-888.409 1851.32,-895.154 1896.64,-909 1921.76,-916.673 1948.18,-929.709 1968.65,-941.051"/>
<polygon fill="black" stroke="black" points="1967.18,-944.242 1977.61,-946.117 1970.63,-938.149 1967.18,-944.242"/>
</g>
<!-- NetworkCapacity -->
<g id="node31" class="node"><title>NetworkCapacity</title>
<ellipse fill="none" stroke="black" cx="1690.61" cy="-828" rx="72.5877" ry="18"/>
<text text-anchor="middle" x="1690.61" y="-824.3" font-family="Times,serif" font-size="14.00">NetworkCapacity</text>
</g>
<!-- NetworkCapacity&#45;&gt;NumericAttribute -->
<g id="edge30" class="edge"><title>NetworkCapacity&#45;&gt;NumericAttribute</title>
<path fill="none" stroke="black" d="M1763.2,-826.287C1804.15,-827.966 1855.4,-834.716 1896.64,-855 1934.99,-873.861 1967.95,-911.646 1987.16,-937.136"/>
<polygon fill="black" stroke="black" points="1984.39,-939.28 1993.14,-945.263 1990.03,-935.133 1984.39,-939.28"/>
</g>
<!-- NetworkUploadSpeed -->
<g id="node32" class="node"><title>NetworkUploadSpeed</title>
<ellipse fill="none" stroke="black" cx="1690.61" cy="-774" rx="89.0842" ry="18"/>
<text text-anchor="middle" x="1690.61" y="-770.3" font-family="Times,serif" font-size="14.00">NetworkUploadSpeed</text>
</g>
<!-- NetworkUploadSpeed&#45;&gt;NumericAttribute -->
<g id="edge31" class="edge"><title>NetworkUploadSpeed&#45;&gt;NumericAttribute</title>
<path fill="none" stroke="black" d="M1777.27,-769.696C1816.24,-771.483 1861.42,-779.116 1896.64,-801 1947.49,-832.59 1979.84,-897.859 1994.98,-935.19"/>
<polygon fill="black" stroke="black" points="1991.89,-936.893 1998.8,-944.927 1998.41,-934.339 1991.89,-936.893"/>
</g>
<!-- NetworkDownloadSpeed -->
<g id="node33" class="node"><title>NetworkDownloadSpeed</title>
<ellipse fill="none" stroke="black" cx="1690.61" cy="-720" rx="99.3824" ry="18"/>
<text text-anchor="middle" x="1690.61" y="-716.3" font-family="Times,serif" font-size="14.00">NetworkDownloadSpeed</text>
</g>
<!-- NetworkDownloadSpeed&#45;&gt;NumericAttribute -->
<g id="edge32" class="edge"><title>NetworkDownloadSpeed&#45;&gt;NumericAttribute</title>
<path fill="none" stroke="black" d="M1784.46,-714.007C1822.27,-715.944 1864.53,-724.162 1896.64,-747 1960.86,-792.672 1989.22,-887.574 1999.77,-934.9"/>
<polygon fill="black" stroke="black" points="1996.37,-935.724 2001.86,-944.78 2003.21,-934.271 1996.37,-935.724"/>
</g>
<!-- github.com/supermuesli/csdl@examples/Requirement1.py@latest -->
<g id="node34" class="node"><title>github.com/supermuesli/csdl@examples/Requirement1.py@latest</title>
<ellipse fill="none" stroke="black" cx="245.678" cy="-72" rx="245.857" ry="18"/>
<text text-anchor="middle" x="245.678" y="-68.3" font-family="Times,serif" font-size="14.00">github.com/supermuesli/csdl@examples/Requirement1.py@latest</text>
</g>
<!-- github.com/supermuesli/csdl@examples/Requirement1.py@latest&#45;&gt;VMAsAService -->
<g id="edge33" class="edge"><title>github.com/supermuesli/csdl@examples/Requirement1.py@latest&#45;&gt;VMAsAService</title>
<path fill="none" stroke="black" d="M439.779,-60.9402C511.084,-56.8562 587.769,-52.4641 642.55,-49.3265"/>
<polygon fill="black" stroke="black" points="643.078,-52.8021 652.862,-48.7359 642.678,-45.8135 643.078,-52.8021"/>
</g>
<!-- github.com/supermuesli/csdl@misc/StaticIp.py@latest -->
<g id="node35" class="node"><title>github.com/supermuesli/csdl@misc/StaticIp.py@latest</title>
<ellipse fill="none" stroke="black" cx="1690.61" cy="-666" rx="206.063" ry="18"/>
<text text-anchor="middle" x="1690.61" y="-662.3" font-family="Times,serif" font-size="14.00">github.com/supermuesli/csdl@misc/StaticIp.py@latest</text>
</g>
<!-- github.com/supermuesli/csdl@misc/StaticIp.py@latest&#45;&gt;NumericAttribute -->
<g id="edge34" class="edge"><title>github.com/supermuesli/csdl@misc/StaticIp.py@latest&#45;&gt;NumericAttribute</title>
<path fill="none" stroke="black" d="M1866.49,-675.448C1877.24,-680.075 1887.42,-685.847 1896.64,-693 1974.46,-753.387 1996.65,-878.436 2002.8,-934.601"/>
<polygon fill="black" stroke="black" points="1999.35,-935.275 2003.83,-944.877 2006.32,-934.578 1999.35,-935.275"/>
</g>
<!-- github.com/supermuesli/csdl@aws/ec2/A1Large.py@latest -->
<g id="node36" class="node"><title>github.com/supermuesli/csdl@aws/ec2/A1Large.py@latest</title>
<ellipse fill="none" stroke="black" cx="245.678" cy="-18" rx="221.761" ry="18"/>
<text text-anchor="middle" x="245.678" y="-14.3" font-family="Times,serif" font-size="14.00">github.com/supermuesli/csdl@aws/ec2/A1Large.py@latest</text>
</g>
<!-- github.com/supermuesli/csdl@aws/ec2/A1Large.py@latest&#45;&gt;VMAsAService -->
<g id="edge35" class="edge"><title>github.com/supermuesli/csdl@aws/ec2/A1Large.py@latest&#45;&gt;VMAsAService</title>
<path fill="none" stroke="black" d="M427.253,-28.3424C502,-32.6235 584.584,-37.3535 642.591,-40.6758"/>
<polygon fill="black" stroke="black" points="642.583,-44.181 652.767,-41.2586 642.983,-37.1925 642.583,-44.181"/>
</g>
<!-- github.com/supermuesli/csdl@aws/Region.py@latest -->
<g id="node37" class="node"><title>github.com/supermuesli/csdl@aws/Region.py@latest</title>
<ellipse fill="none" stroke="black" cx="1197.7" cy="-612" rx="200.665" ry="18"/>
<text text-anchor="middle" x="1197.7" y="-608.3" font-family="Times,serif" font-size="14.00">github.com/supermuesli/csdl@aws/Region.py@latest</text>
</g>
<!-- github.com/supermuesli/csdl@aws/Region.py@latest&#45;&gt;Region -->
<g id="edge36" class="edge"><title>github.com/supermuesli/csdl@aws/Region.py@latest&#45;&gt;Region</title>
<path fill="none" stroke="black" d="M1398.73,-612C1488.94,-612 1587.65,-612 1643.76,-612"/>
<polygon fill="black" stroke="black" points="1644.07,-615.5 1654.07,-612 1644.07,-608.5 1644.07,-615.5"/>
</g>
<!-- github.com/supermuesli/csdl@aws/EBS.py@latest -->
<g id="node38" class="node"><title>github.com/supermuesli/csdl@aws/EBS.py@latest</title>
<ellipse fill="none" stroke="black" cx="719.089" cy="-99" rx="191.966" ry="18"/>
<text text-anchor="middle" x="719.089" y="-95.3" font-family="Times,serif" font-size="14.00">github.com/supermuesli/csdl@aws/EBS.py@latest</text>
</g>
<!-- github.com/supermuesli/csdl@aws/EBS.py@latest&#45;&gt;StorageAsAService -->
<g id="edge37" class="edge"><title>github.com/supermuesli/csdl@aws/EBS.py@latest&#45;&gt;StorageAsAService</title>
<path fill="none" stroke="black" d="M910.856,-99C978.796,-99 1052.11,-99 1107.48,-99"/>
<polygon fill="black" stroke="black" points="1107.6,-102.5 1117.6,-99 1107.6,-95.5001 1107.6,-102.5"/>
</g>
<!-- github.com/supermuesli/csdl@aws/ec2/ElasticIpAmount.py@latest -->
<g id="node39" class="node"><title>github.com/supermuesli/csdl@aws/ec2/ElasticIpAmount.py@latest</title>
<ellipse fill="none" stroke="black" cx="1197.7" cy="-666" rx="250.756" ry="18"/>
<text text-anchor="middle" x="1197.7" y="-662.3" font-family="Times,serif" font-size="14.00">github.com/supermuesli/csdl@aws/ec2/ElasticIpAmount.py@latest</text>
</g>
<!-- github.com/supermuesli/csdl@aws/ec2/ElasticIpAmount.py@latest&#45;&gt;github.com/supermuesli/csdl@misc/StaticIp.py@latest -->
<g id="edge38" class="edge"><title>github.com/supermuesli/csdl@aws/ec2/ElasticIpAmount.py@latest&#45;&gt;github.com/supermuesli/csdl@misc/StaticIp.py@latest</title>
<path fill="none" stroke="black" d="M1448.83,-666C1457.32,-666 1465.81,-666 1474.25,-666"/>
<polygon fill="black" stroke="black" points="1474.52,-669.5 1484.52,-666 1474.52,-662.5 1474.52,-669.5"/>
</g>
</g>
</svg>
