<?xml version="1.0" encoding="UTF-8" standalone="no"?>
<!DOCTYPE svg PUBLIC "-//W3C//DTD SVG 1.1//EN"
 "http://www.w3.org/Graphics/SVG/1.1/DTD/svg11.dtd">
<!-- Generated by graphviz version 2.38.0 (20140413.2041)
 -->
<!-- Title: %3 Pages: 1 -->
<svg width="2421pt" height="1556pt"
 viewBox="0.00 0.00 2420.81 1556.00" xmlns="http://www.w3.org/2000/svg" xmlns:xlink="http://www.w3.org/1999/xlink">
<g id="graph0" class="graph" transform="scale(1 1) rotate(0) translate(4 1552)">
<title>%3</title>
<polygon fill="white" stroke="none" points="-4,4 -4,-1552 2416.81,-1552 2416.81,4 -4,4"/>
<!-- VMAsAService -->
<g id="node1" class="node"><title>VMAsAService</title>
<ellipse fill="none" stroke="black" cx="727.539" cy="-18" rx="67.6881" ry="18"/>
<text text-anchor="middle" x="727.539" y="-14.3" font-family="Times,serif" font-size="14.00">VMAsAService</text>
</g>
<!-- ServerAsAService -->
<g id="node2" class="node"><title>ServerAsAService</title>
<ellipse fill="none" stroke="black" cx="1262.69" cy="-18" rx="76.0865" ry="18"/>
<text text-anchor="middle" x="1262.69" y="-14.3" font-family="Times,serif" font-size="14.00">ServerAsAService</text>
</g>
<!-- VMAsAService&#45;&gt;ServerAsAService -->
<g id="edge1" class="edge"><title>VMAsAService&#45;&gt;ServerAsAService</title>
<path fill="none" stroke="black" d="M795.254,-18C891.751,-18 1070.29,-18 1176.29,-18"/>
<polygon fill="black" stroke="black" points="1176.32,-21.5001 1186.32,-18 1176.32,-14.5001 1176.32,-21.5001"/>
</g>
<!-- IaaS -->
<g id="node3" class="node"><title>IaaS</title>
<ellipse fill="none" stroke="black" cx="1779" cy="-72" rx="27" ry="18"/>
<text text-anchor="middle" x="1779" y="-68.3" font-family="Times,serif" font-size="14.00">IaaS</text>
</g>
<!-- ServerAsAService&#45;&gt;IaaS -->
<g id="edge2" class="edge"><title>ServerAsAService&#45;&gt;IaaS</title>
<path fill="none" stroke="black" d="M1332.52,-25.2266C1443.29,-36.8572 1657.27,-59.3236 1742.1,-68.2301"/>
<polygon fill="black" stroke="black" points="1741.94,-71.7331 1752.25,-69.2966 1742.67,-64.7714 1741.94,-71.7331"/>
</g>
<!-- CCS -->
<g id="node5" class="node"><title>CCS</title>
<ellipse fill="none" stroke="black" cx="2117.87" cy="-126" rx="27.0966" ry="18"/>
<text text-anchor="middle" x="2117.87" y="-122.3" font-family="Times,serif" font-size="14.00">CCS</text>
</g>
<!-- IaaS&#45;&gt;CCS -->
<g id="edge4" class="edge"><title>IaaS&#45;&gt;CCS</title>
<path fill="none" stroke="black" d="M1805.85,-73.984C1848.36,-77.4854 1935.56,-85.6771 2008.43,-99 2033.53,-103.588 2061.45,-110.586 2082.68,-116.307"/>
<polygon fill="black" stroke="black" points="2081.95,-119.737 2092.52,-118.998 2083.79,-112.984 2081.95,-119.737"/>
</g>
<!-- SaaS -->
<g id="node4" class="node"><title>SaaS</title>
<ellipse fill="none" stroke="black" cx="1779" cy="-126" rx="28.6953" ry="18"/>
<text text-anchor="middle" x="1779" y="-122.3" font-family="Times,serif" font-size="14.00">SaaS</text>
</g>
<!-- SaaS&#45;&gt;CCS -->
<g id="edge3" class="edge"><title>SaaS&#45;&gt;CCS</title>
<path fill="none" stroke="black" d="M1807.86,-126C1868.46,-126 2012.27,-126 2080.17,-126"/>
<polygon fill="black" stroke="black" points="2080.39,-129.5 2090.39,-126 2080.39,-122.5 2080.39,-129.5"/>
</g>
<!-- Attribute -->
<g id="node8" class="node"><title>Attribute</title>
<ellipse fill="none" stroke="black" cx="2269.56" cy="-450" rx="42.4939" ry="18"/>
<text text-anchor="middle" x="2269.56" y="-446.3" font-family="Times,serif" font-size="14.00">Attribute</text>
</g>
<!-- CCS&#45;&gt;Attribute -->
<g id="edge10" class="edge"><title>CCS&#45;&gt;Attribute</title>
<path fill="none" stroke="black" d="M2126.92,-143.42C2151.59,-196.805 2226.25,-358.413 2256.07,-422.953"/>
<polygon fill="black" stroke="black" points="2252.92,-424.487 2260.29,-432.097 2259.28,-421.551 2252.92,-424.487"/>
</g>
<!-- StorageAsAService -->
<g id="node6" class="node"><title>StorageAsAService</title>
<ellipse fill="none" stroke="black" cx="1262.69" cy="-72" rx="79.8859" ry="18"/>
<text text-anchor="middle" x="1262.69" y="-68.3" font-family="Times,serif" font-size="14.00">StorageAsAService</text>
</g>
<!-- StorageAsAService&#45;&gt;IaaS -->
<g id="edge5" class="edge"><title>StorageAsAService&#45;&gt;IaaS</title>
<path fill="none" stroke="black" d="M1342.65,-72C1455.68,-72 1659.07,-72 1741.66,-72"/>
<polygon fill="black" stroke="black" points="1741.81,-75.5001 1751.81,-72 1741.81,-68.5001 1741.81,-75.5001"/>
</g>
<!-- NumericAttribute -->
<g id="node7" class="node"><title>NumericAttribute</title>
<ellipse fill="none" stroke="black" cx="2117.87" cy="-1179" rx="73.387" ry="18"/>
<text text-anchor="middle" x="2117.87" y="-1175.3" font-family="Times,serif" font-size="14.00">NumericAttribute</text>
</g>
<!-- NumericAttribute&#45;&gt;Attribute -->
<g id="edge6" class="edge"><title>NumericAttribute&#45;&gt;Attribute</title>
<path fill="none" stroke="black" d="M2122.58,-1160.98C2142.63,-1063.29 2238.34,-597.21 2262.84,-477.88"/>
<polygon fill="black" stroke="black" points="2266.28,-478.543 2264.86,-468.043 2259.42,-477.135 2266.28,-478.543"/>
</g>
<!-- object -->
<g id="node12" class="node"><title>object</title>
<ellipse fill="none" stroke="black" cx="2380.31" cy="-450" rx="32.4942" ry="18"/>
<text text-anchor="middle" x="2380.31" y="-446.3" font-family="Times,serif" font-size="14.00">object</text>
</g>
<!-- Attribute&#45;&gt;object -->
<g id="edge11" class="edge"><title>Attribute&#45;&gt;object</title>
<path fill="none" stroke="black" d="M2311.99,-450C2320.26,-450 2328.95,-450 2337.25,-450"/>
<polygon fill="black" stroke="black" points="2337.47,-453.5 2347.47,-450 2337.47,-446.5 2337.47,-453.5"/>
</g>
<!-- ChoiceAttribute -->
<g id="node9" class="node"><title>ChoiceAttribute</title>
<ellipse fill="none" stroke="black" cx="2117.87" cy="-720" rx="67.6881" ry="18"/>
<text text-anchor="middle" x="2117.87" y="-716.3" font-family="Times,serif" font-size="14.00">ChoiceAttribute</text>
</g>
<!-- ChoiceAttribute&#45;&gt;Attribute -->
<g id="edge7" class="edge"><title>ChoiceAttribute&#45;&gt;Attribute</title>
<path fill="none" stroke="black" d="M2128.93,-701.865C2154.77,-655.257 2223.59,-531.12 2253.89,-476.463"/>
<polygon fill="black" stroke="black" points="2256.96,-478.146 2258.75,-467.703 2250.84,-474.752 2256.96,-478.146"/>
</g>
<!-- BoolAttribute -->
<g id="node10" class="node"><title>BoolAttribute</title>
<ellipse fill="none" stroke="black" cx="2117.87" cy="-477" rx="59.5901" ry="18"/>
<text text-anchor="middle" x="2117.87" y="-473.3" font-family="Times,serif" font-size="14.00">BoolAttribute</text>
</g>
<!-- BoolAttribute&#45;&gt;Attribute -->
<g id="edge8" class="edge"><title>BoolAttribute&#45;&gt;Attribute</title>
<path fill="none" stroke="black" d="M2169.55,-467.859C2185.83,-464.922 2203.82,-461.678 2219.95,-458.768"/>
<polygon fill="black" stroke="black" points="2221.03,-462.131 2230.25,-456.912 2219.78,-455.242 2221.03,-462.131"/>
</g>
<!-- NameAttribute -->
<g id="node11" class="node"><title>NameAttribute</title>
<ellipse fill="none" stroke="black" cx="2117.87" cy="-423" rx="63.8893" ry="18"/>
<text text-anchor="middle" x="2117.87" y="-419.3" font-family="Times,serif" font-size="14.00">NameAttribute</text>
</g>
<!-- NameAttribute&#45;&gt;Attribute -->
<g id="edge9" class="edge"><title>NameAttribute&#45;&gt;Attribute</title>
<path fill="none" stroke="black" d="M2172.07,-432.595C2187.64,-435.403 2204.57,-438.458 2219.85,-441.213"/>
<polygon fill="black" stroke="black" points="2219.66,-444.735 2230.12,-443.065 2220.9,-437.846 2219.66,-444.735"/>
</g>
<!-- Region -->
<g id="node13" class="node"><title>Region</title>
<ellipse fill="none" stroke="black" cx="1779" cy="-828" rx="36.2938" ry="18"/>
<text text-anchor="middle" x="1779" y="-824.3" font-family="Times,serif" font-size="14.00">Region</text>
</g>
<!-- Region&#45;&gt;ChoiceAttribute -->
<g id="edge12" class="edge"><title>Region&#45;&gt;ChoiceAttribute</title>
<path fill="none" stroke="black" d="M1815.43,-829.389C1861.56,-829.968 1943.89,-826.747 2008.43,-801 2040.56,-788.183 2071.59,-763.326 2092.17,-744.512"/>
<polygon fill="black" stroke="black" points="2094.61,-747.022 2099.52,-737.635 2089.83,-741.909 2094.61,-747.022"/>
</g>
<!-- NorthAmerica -->
<g id="node14" class="node"><title>NorthAmerica</title>
<ellipse fill="none" stroke="black" cx="1779" cy="-612" rx="61.99" ry="18"/>
<text text-anchor="middle" x="1779" y="-608.3" font-family="Times,serif" font-size="14.00">NorthAmerica</text>
</g>
<!-- NorthAmerica&#45;&gt;NameAttribute -->
<g id="edge13" class="edge"><title>NorthAmerica&#45;&gt;NameAttribute</title>
<path fill="none" stroke="black" d="M1832.39,-621.162C1883.46,-626.925 1960.29,-626.708 2008.43,-585 2055.36,-544.339 2002.68,-495.968 2044.43,-450 2048.42,-445.608 2053.19,-441.928 2058.36,-438.844"/>
<polygon fill="black" stroke="black" points="2060.07,-441.898 2067.35,-434.198 2056.86,-435.678 2060.07,-441.898"/>
</g>
<!-- Australia -->
<g id="node15" class="node"><title>Australia</title>
<ellipse fill="none" stroke="black" cx="1779" cy="-558" rx="42.7926" ry="18"/>
<text text-anchor="middle" x="1779" y="-554.3" font-family="Times,serif" font-size="14.00">Australia</text>
</g>
<!-- Australia&#45;&gt;NameAttribute -->
<g id="edge14" class="edge"><title>Australia&#45;&gt;NameAttribute</title>
<path fill="none" stroke="black" d="M1819.36,-564.3C1868.54,-569.919 1952.98,-571.868 2008.43,-531 2040.14,-507.628 2015.73,-476.988 2044.43,-450 2048.99,-445.716 2054.28,-442.097 2059.9,-439.043"/>
<polygon fill="black" stroke="black" points="2061.44,-442.186 2068.93,-434.694 2058.41,-435.879 2061.44,-442.186"/>
</g>
<!-- Africa -->
<g id="node16" class="node"><title>Africa</title>
<ellipse fill="none" stroke="black" cx="1779" cy="-504" rx="33.2948" ry="18"/>
<text text-anchor="middle" x="1779" y="-500.3" font-family="Times,serif" font-size="14.00">Africa</text>
</g>
<!-- Africa&#45;&gt;NameAttribute -->
<g id="edge15" class="edge"><title>Africa&#45;&gt;NameAttribute</title>
<path fill="none" stroke="black" d="M1812.32,-505.361C1857.78,-506.143 1942.43,-503.404 2008.43,-477 2027,-469.571 2026.88,-459.591 2044.43,-450 2050.91,-446.46 2057.95,-443.195 2065.01,-440.25"/>
<polygon fill="black" stroke="black" points="2066.6,-443.384 2074.59,-436.436 2064.01,-436.88 2066.6,-443.384"/>
</g>
<!-- EastAsia -->
<g id="node17" class="node"><title>EastAsia</title>
<ellipse fill="none" stroke="black" cx="1779" cy="-450" rx="42.4939" ry="18"/>
<text text-anchor="middle" x="1779" y="-446.3" font-family="Times,serif" font-size="14.00">EastAsia</text>
</g>
<!-- EastAsia&#45;&gt;NameAttribute -->
<g id="edge16" class="edge"><title>EastAsia&#45;&gt;NameAttribute</title>
<path fill="none" stroke="black" d="M1820.64,-446.743C1876.48,-442.267 1977.79,-434.147 2046.2,-428.664"/>
<polygon fill="black" stroke="black" points="2046.78,-432.13 2056.47,-427.842 2046.22,-425.152 2046.78,-432.13"/>
</g>
<!-- SouthAmerica -->
<g id="node18" class="node"><title>SouthAmerica</title>
<ellipse fill="none" stroke="black" cx="1779" cy="-396" rx="61.99" ry="18"/>
<text text-anchor="middle" x="1779" y="-392.3" font-family="Times,serif" font-size="14.00">SouthAmerica</text>
</g>
<!-- SouthAmerica&#45;&gt;NameAttribute -->
<g id="edge17" class="edge"><title>SouthAmerica&#45;&gt;NameAttribute</title>
<path fill="none" stroke="black" d="M1838.68,-400.703C1896.45,-405.333 1984.72,-412.408 2046.29,-417.343"/>
<polygon fill="black" stroke="black" points="2046.07,-420.836 2056.31,-418.146 2046.63,-413.858 2046.07,-420.836"/>
</g>
<!-- Europe -->
<g id="node19" class="node"><title>Europe</title>
<ellipse fill="none" stroke="black" cx="1779" cy="-342" rx="36.2938" ry="18"/>
<text text-anchor="middle" x="1779" y="-338.3" font-family="Times,serif" font-size="14.00">Europe</text>
</g>
<!-- Europe&#45;&gt;NameAttribute -->
<g id="edge18" class="edge"><title>Europe&#45;&gt;NameAttribute</title>
<path fill="none" stroke="black" d="M1815.44,-340.591C1861.57,-339.992 1943.92,-343.189 2008.43,-369 2027,-376.429 2026.88,-386.409 2044.43,-396 2050.91,-399.54 2057.95,-402.805 2065.01,-405.75"/>
<polygon fill="black" stroke="black" points="2064.01,-409.12 2074.59,-409.564 2066.6,-402.616 2064.01,-409.12"/>
</g>
<!-- Antarctica -->
<g id="node20" class="node"><title>Antarctica</title>
<ellipse fill="none" stroke="black" cx="1779" cy="-288" rx="47.3916" ry="18"/>
<text text-anchor="middle" x="1779" y="-284.3" font-family="Times,serif" font-size="14.00">Antarctica</text>
</g>
<!-- Antarctica&#45;&gt;NameAttribute -->
<g id="edge19" class="edge"><title>Antarctica&#45;&gt;NameAttribute</title>
<path fill="none" stroke="black" d="M1823.28,-281.268C1872.93,-276.008 1954.42,-275.198 2008.43,-315 2040.14,-338.372 2015.73,-369.012 2044.43,-396 2048.99,-400.284 2054.28,-403.903 2059.9,-406.957"/>
<polygon fill="black" stroke="black" points="2058.41,-410.121 2068.93,-411.306 2061.44,-403.814 2058.41,-410.121"/>
</g>
<!-- Storage -->
<g id="node21" class="node"><title>Storage</title>
<ellipse fill="none" stroke="black" cx="1779" cy="-1530" rx="37.8943" ry="18"/>
<text text-anchor="middle" x="1779" y="-1526.3" font-family="Times,serif" font-size="14.00">Storage</text>
</g>
<!-- Storage&#45;&gt;NumericAttribute -->
<g id="edge20" class="edge"><title>Storage&#45;&gt;NumericAttribute</title>
<path fill="none" stroke="black" d="M1814.52,-1536.38C1863.39,-1543.33 1952.97,-1548.1 2008.43,-1503 2100.66,-1428 2114.95,-1271.87 2116.8,-1207.59"/>
<polygon fill="black" stroke="black" points="2120.31,-1207.46 2117.01,-1197.39 2113.31,-1207.32 2120.31,-1207.46"/>
</g>
<!-- StorageWriteSpeed -->
<g id="node22" class="node"><title>StorageWriteSpeed</title>
<ellipse fill="none" stroke="black" cx="1779" cy="-1476" rx="79.0865" ry="18"/>
<text text-anchor="middle" x="1779" y="-1472.3" font-family="Times,serif" font-size="14.00">StorageWriteSpeed</text>
</g>
<!-- StorageWriteSpeed&#45;&gt;NumericAttribute -->
<g id="edge21" class="edge"><title>StorageWriteSpeed&#45;&gt;NumericAttribute</title>
<path fill="none" stroke="black" d="M1847.47,-1485.13C1896.89,-1488.08 1963,-1483.77 2008.43,-1449 2086.82,-1389.01 2108.72,-1263.29 2114.7,-1207.14"/>
<polygon fill="black" stroke="black" points="2118.18,-1207.47 2115.67,-1197.18 2111.22,-1206.8 2118.18,-1207.47"/>
</g>
<!-- StorageReadSpeed -->
<g id="node23" class="node"><title>StorageReadSpeed</title>
<ellipse fill="none" stroke="black" cx="1779" cy="-1422" rx="77.1866" ry="18"/>
<text text-anchor="middle" x="1779" y="-1418.3" font-family="Times,serif" font-size="14.00">StorageReadSpeed</text>
</g>
<!-- StorageReadSpeed&#45;&gt;NumericAttribute -->
<g id="edge22" class="edge"><title>StorageReadSpeed&#45;&gt;NumericAttribute</title>
<path fill="none" stroke="black" d="M1848.19,-1430.09C1897.03,-1432.29 1962.09,-1427.5 2008.43,-1395 2072.95,-1349.76 2101.17,-1254.65 2111.62,-1207.19"/>
<polygon fill="black" stroke="black" points="2115.07,-1207.79 2113.7,-1197.28 2108.22,-1206.35 2115.07,-1207.79"/>
</g>
<!-- OperatingSystem -->
<g id="node24" class="node"><title>OperatingSystem</title>
<ellipse fill="none" stroke="black" cx="1779" cy="-774" rx="72.2875" ry="18"/>
<text text-anchor="middle" x="1779" y="-770.3" font-family="Times,serif" font-size="14.00">OperatingSystem</text>
</g>
<!-- OperatingSystem&#45;&gt;ChoiceAttribute -->
<g id="edge23" class="edge"><title>OperatingSystem&#45;&gt;ChoiceAttribute</title>
<path fill="none" stroke="black" d="M1847.55,-768.276C1893.2,-763.855 1954.71,-756.822 2008.43,-747 2025.42,-743.894 2043.71,-739.683 2060.34,-735.511"/>
<polygon fill="black" stroke="black" points="2061.63,-738.794 2070.45,-732.929 2059.89,-732.012 2061.63,-738.794"/>
</g>
<!-- CpuCores -->
<g id="node25" class="node"><title>CpuCores</title>
<ellipse fill="none" stroke="black" cx="1779" cy="-1368" rx="46.2923" ry="18"/>
<text text-anchor="middle" x="1779" y="-1364.3" font-family="Times,serif" font-size="14.00">CpuCores</text>
</g>
<!-- CpuCores&#45;&gt;NumericAttribute -->
<g id="edge24" class="edge"><title>CpuCores&#45;&gt;NumericAttribute</title>
<path fill="none" stroke="black" d="M1823.45,-1373.14C1872.15,-1376.69 1951.72,-1375.71 2008.43,-1341 2059.49,-1309.75 2091.76,-1244.35 2106.83,-1206.91"/>
<polygon fill="black" stroke="black" points="2110.27,-1207.73 2110.63,-1197.14 2103.74,-1205.19 2110.27,-1207.73"/>
</g>
<!-- CpuClockSpeed -->
<g id="node26" class="node"><title>CpuClockSpeed</title>
<ellipse fill="none" stroke="black" cx="1779" cy="-1314" rx="67.6881" ry="18"/>
<text text-anchor="middle" x="1779" y="-1310.3" font-family="Times,serif" font-size="14.00">CpuClockSpeed</text>
</g>
<!-- CpuClockSpeed&#45;&gt;NumericAttribute -->
<g id="edge25" class="edge"><title>CpuClockSpeed&#45;&gt;NumericAttribute</title>
<path fill="none" stroke="black" d="M1845.43,-1317.39C1892.91,-1317.28 1957.47,-1311.65 2008.43,-1287 2046.9,-1268.39 2079.83,-1230.54 2099,-1204.97"/>
<polygon fill="black" stroke="black" points="2101.89,-1206.95 2104.97,-1196.81 2096.24,-1202.82 2101.89,-1206.95"/>
</g>
<!-- Ram -->
<g id="node27" class="node"><title>Ram</title>
<ellipse fill="none" stroke="black" cx="1779" cy="-1260" rx="27.8951" ry="18"/>
<text text-anchor="middle" x="1779" y="-1256.3" font-family="Times,serif" font-size="14.00">Ram</text>
</g>
<!-- Ram&#45;&gt;NumericAttribute -->
<g id="edge26" class="edge"><title>Ram&#45;&gt;NumericAttribute</title>
<path fill="none" stroke="black" d="M1806.98,-1259.79C1850.34,-1258.79 1937.83,-1254.06 2008.43,-1233 2033.89,-1225.41 2060.62,-1212.16 2081.18,-1200.69"/>
<polygon fill="black" stroke="black" points="2082.92,-1203.73 2089.87,-1195.74 2079.45,-1197.65 2082.92,-1203.73"/>
</g>
<!-- RamClockSpeed -->
<g id="node28" class="node"><title>RamClockSpeed</title>
<ellipse fill="none" stroke="black" cx="1779" cy="-1206" rx="70.3881" ry="18"/>
<text text-anchor="middle" x="1779" y="-1202.3" font-family="Times,serif" font-size="14.00">RamClockSpeed</text>
</g>
<!-- RamClockSpeed&#45;&gt;NumericAttribute -->
<g id="edge27" class="edge"><title>RamClockSpeed&#45;&gt;NumericAttribute</title>
<path fill="none" stroke="black" d="M1846.16,-1200.7C1901.02,-1196.3 1979.18,-1190.04 2037.42,-1185.37"/>
<polygon fill="black" stroke="black" points="2038,-1188.83 2047.69,-1184.55 2037.44,-1181.86 2038,-1188.83"/>
</g>
<!-- RamWriteSpeed -->
<g id="node29" class="node"><title>RamWriteSpeed</title>
<ellipse fill="none" stroke="black" cx="1779" cy="-1152" rx="69.5877" ry="18"/>
<text text-anchor="middle" x="1779" y="-1148.3" font-family="Times,serif" font-size="14.00">RamWriteSpeed</text>
</g>
<!-- RamWriteSpeed&#45;&gt;NumericAttribute -->
<g id="edge28" class="edge"><title>RamWriteSpeed&#45;&gt;NumericAttribute</title>
<path fill="none" stroke="black" d="M1845.75,-1157.27C1900.67,-1161.67 1979.12,-1167.96 2037.52,-1172.64"/>
<polygon fill="black" stroke="black" points="2037.57,-1176.15 2047.81,-1173.46 2038.13,-1169.18 2037.57,-1176.15"/>
</g>
<!-- RamReadSpeed -->
<g id="node30" class="node"><title>RamReadSpeed</title>
<ellipse fill="none" stroke="black" cx="1779" cy="-1098" rx="67.6881" ry="18"/>
<text text-anchor="middle" x="1779" y="-1094.3" font-family="Times,serif" font-size="14.00">RamReadSpeed</text>
</g>
<!-- RamReadSpeed&#45;&gt;NumericAttribute -->
<g id="edge29" class="edge"><title>RamReadSpeed&#45;&gt;NumericAttribute</title>
<path fill="none" stroke="black" d="M1846.7,-1099.85C1892.92,-1102.59 1955.43,-1109.19 2008.43,-1125 2033.89,-1132.59 2060.62,-1145.84 2081.18,-1157.31"/>
<polygon fill="black" stroke="black" points="2079.45,-1160.35 2089.87,-1162.26 2082.92,-1154.27 2079.45,-1160.35"/>
</g>
<!-- NetworkCapacity -->
<g id="node31" class="node"><title>NetworkCapacity</title>
<ellipse fill="none" stroke="black" cx="1779" cy="-1044" rx="72.5877" ry="18"/>
<text text-anchor="middle" x="1779" y="-1040.3" font-family="Times,serif" font-size="14.00">NetworkCapacity</text>
</g>
<!-- NetworkCapacity&#45;&gt;NumericAttribute -->
<g id="edge30" class="edge"><title>NetworkCapacity&#45;&gt;NumericAttribute</title>
<path fill="none" stroke="black" d="M1850.52,-1040.64C1897.45,-1041.14 1959.27,-1047.22 2008.43,-1071 2046.9,-1089.61 2079.83,-1127.46 2099,-1153.03"/>
<polygon fill="black" stroke="black" points="2096.24,-1155.18 2104.97,-1161.19 2101.89,-1151.05 2096.24,-1155.18"/>
</g>
<!-- NetworkUploadSpeed -->
<g id="node32" class="node"><title>NetworkUploadSpeed</title>
<ellipse fill="none" stroke="black" cx="1779" cy="-990" rx="89.0842" ry="18"/>
<text text-anchor="middle" x="1779" y="-986.3" font-family="Times,serif" font-size="14.00">NetworkUploadSpeed</text>
</g>
<!-- NetworkUploadSpeed&#45;&gt;NumericAttribute -->
<g id="edge31" class="edge"><title>NetworkUploadSpeed&#45;&gt;NumericAttribute</title>
<path fill="none" stroke="black" d="M1862.06,-983.487C1908.17,-983.617 1965.01,-990.418 2008.43,-1017 2059.49,-1048.25 2091.76,-1113.65 2106.83,-1151.09"/>
<polygon fill="black" stroke="black" points="2103.74,-1152.81 2110.63,-1160.86 2110.27,-1150.27 2103.74,-1152.81"/>
</g>
<!-- NetworkDownloadSpeed -->
<g id="node33" class="node"><title>NetworkDownloadSpeed</title>
<ellipse fill="none" stroke="black" cx="1779" cy="-936" rx="99.3824" ry="18"/>
<text text-anchor="middle" x="1779" y="-932.3" font-family="Times,serif" font-size="14.00">NetworkDownloadSpeed</text>
</g>
<!-- NetworkDownloadSpeed&#45;&gt;NumericAttribute -->
<g id="edge32" class="edge"><title>NetworkDownloadSpeed&#45;&gt;NumericAttribute</title>
<path fill="none" stroke="black" d="M1866.68,-927.457C1912.59,-927.287 1967.73,-934.454 2008.43,-963 2072.95,-1008.24 2101.17,-1103.35 2111.62,-1150.81"/>
<polygon fill="black" stroke="black" points="2108.22,-1151.65 2113.7,-1160.72 2115.07,-1150.21 2108.22,-1151.65"/>
</g>
<!-- PricingModel -->
<g id="node34" class="node"><title>PricingModel</title>
<ellipse fill="none" stroke="black" cx="1779" cy="-720" rx="59.5901" ry="18"/>
<text text-anchor="middle" x="1779" y="-716.3" font-family="Times,serif" font-size="14.00">PricingModel</text>
</g>
<!-- PricingModel&#45;&gt;ChoiceAttribute -->
<g id="edge33" class="edge"><title>PricingModel&#45;&gt;ChoiceAttribute</title>
<path fill="none" stroke="black" d="M1839.07,-720C1894.81,-720 1978.71,-720 2039.72,-720"/>
<polygon fill="black" stroke="black" points="2040.07,-723.5 2050.07,-720 2040.07,-716.5 2040.07,-723.5"/>
</g>
<!-- Static -->
<g id="node35" class="node"><title>Static</title>
<ellipse fill="none" stroke="black" cx="1779" cy="-234" rx="30.5947" ry="18"/>
<text text-anchor="middle" x="1779" y="-230.3" font-family="Times,serif" font-size="14.00">Static</text>
</g>
<!-- Static&#45;&gt;NameAttribute -->
<g id="edge34" class="edge"><title>Static&#45;&gt;NameAttribute</title>
<path fill="none" stroke="black" d="M1808.16,-228.234C1855.61,-220.278 1951.84,-211.971 2008.43,-261 2055.36,-301.661 2002.68,-350.032 2044.43,-396 2048.42,-400.392 2053.19,-404.072 2058.36,-407.156"/>
<polygon fill="black" stroke="black" points="2056.86,-410.322 2067.35,-411.802 2060.07,-404.102 2056.86,-410.322"/>
</g>
<!-- Dynamic -->
<g id="node36" class="node"><title>Dynamic</title>
<ellipse fill="none" stroke="black" cx="1779" cy="-180" rx="43.5923" ry="18"/>
<text text-anchor="middle" x="1779" y="-176.3" font-family="Times,serif" font-size="14.00">Dynamic</text>
</g>
<!-- Dynamic&#45;&gt;NameAttribute -->
<g id="edge35" class="edge"><title>Dynamic&#45;&gt;NameAttribute</title>
<path fill="none" stroke="black" d="M1818.35,-172.157C1868.83,-164.263 1957.16,-159.222 2008.43,-207 2070.99,-265.294 1989.27,-330.66 2044.43,-396 2048.26,-400.533 2052.92,-404.306 2058.02,-407.446"/>
<polygon fill="black" stroke="black" points="2056.47,-410.583 2066.95,-412.155 2059.74,-404.392 2056.47,-410.583"/>
</g>
<!-- PayAndGo -->
<g id="node37" class="node"><title>PayAndGo</title>
<ellipse fill="none" stroke="black" cx="1262.69" cy="-288" rx="50.0912" ry="18"/>
<text text-anchor="middle" x="1262.69" y="-284.3" font-family="Times,serif" font-size="14.00">PayAndGo</text>
</g>
<!-- PayAndGo&#45;&gt;Static -->
<g id="edge36" class="edge"><title>PayAndGo&#45;&gt;Static</title>
<path fill="none" stroke="black" d="M1311.16,-283.017C1411.84,-272.445 1645.24,-247.94 1738.48,-238.15"/>
<polygon fill="black" stroke="black" points="1739.04,-241.61 1748.62,-237.085 1738.31,-234.648 1739.04,-241.61"/>
</g>
<!-- PayPerResource -->
<g id="node38" class="node"><title>PayPerResource</title>
<ellipse fill="none" stroke="black" cx="1262.69" cy="-234" rx="68.4888" ry="18"/>
<text text-anchor="middle" x="1262.69" y="-230.3" font-family="Times,serif" font-size="14.00">PayPerResource</text>
</g>
<!-- PayPerResource&#45;&gt;Static -->
<g id="edge37" class="edge"><title>PayPerResource&#45;&gt;Static</title>
<path fill="none" stroke="black" d="M1331.2,-234C1440.01,-234 1650.82,-234 1738.38,-234"/>
<polygon fill="black" stroke="black" points="1738.44,-237.5 1748.44,-234 1738.44,-230.5 1738.44,-237.5"/>
</g>
<!-- Subscription -->
<g id="node39" class="node"><title>Subscription</title>
<ellipse fill="none" stroke="black" cx="1262.69" cy="-180" rx="55.4913" ry="18"/>
<text text-anchor="middle" x="1262.69" y="-176.3" font-family="Times,serif" font-size="14.00">Subscription</text>
</g>
<!-- Subscription&#45;&gt;Static -->
<g id="edge38" class="edge"><title>Subscription&#45;&gt;Static</title>
<path fill="none" stroke="black" d="M1315.84,-185.475C1418.99,-196.306 1647.04,-220.25 1738.71,-229.875"/>
<polygon fill="black" stroke="black" points="1738.38,-233.359 1748.69,-230.922 1739.11,-226.397 1738.38,-233.359"/>
</g>
<!-- Price -->
<g id="node40" class="node"><title>Price</title>
<ellipse fill="none" stroke="black" cx="2117.87" cy="-369" rx="28.6953" ry="18"/>
<text text-anchor="middle" x="2117.87" y="-365.3" font-family="Times,serif" font-size="14.00">Price</text>
</g>
<!-- Price&#45;&gt;Attribute -->
<g id="edge39" class="edge"><title>Price&#45;&gt;Attribute</title>
<path fill="none" stroke="black" d="M2144.02,-376.623C2158.28,-381.37 2176.23,-388.077 2191.32,-396 2208.47,-405.007 2226.29,-417.236 2240.48,-427.779"/>
<polygon fill="black" stroke="black" points="2238.72,-430.839 2248.81,-434.082 2242.95,-425.257 2238.72,-430.839"/>
</g>
<!-- DatabaseAsAService -->
<g id="node41" class="node"><title>DatabaseAsAService</title>
<ellipse fill="none" stroke="black" cx="1262.69" cy="-126" rx="85.2851" ry="18"/>
<text text-anchor="middle" x="1262.69" y="-122.3" font-family="Times,serif" font-size="14.00">DatabaseAsAService</text>
</g>
<!-- DatabaseAsAService&#45;&gt;SaaS -->
<g id="edge40" class="edge"><title>DatabaseAsAService&#45;&gt;SaaS</title>
<path fill="none" stroke="black" d="M1348.05,-126C1461.34,-126 1657.94,-126 1740.15,-126"/>
<polygon fill="black" stroke="black" points="1740.29,-129.5 1750.29,-126 1740.29,-122.5 1740.29,-129.5"/>
</g>
<!-- SQLDatabaseAsAService -->
<g id="node42" class="node"><title>SQLDatabaseAsAService</title>
<ellipse fill="none" stroke="black" cx="727.539" cy="-180" rx="102.082" ry="18"/>
<text text-anchor="middle" x="727.539" y="-176.3" font-family="Times,serif" font-size="14.00">SQLDatabaseAsAService</text>
</g>
<!-- SQLDatabaseAsAService&#45;&gt;DatabaseAsAService -->
<g id="edge41" class="edge"><title>SQLDatabaseAsAService&#45;&gt;DatabaseAsAService</title>
<path fill="none" stroke="black" d="M816.28,-171.113C915.73,-161.041 1076.81,-144.726 1175.58,-134.722"/>
<polygon fill="black" stroke="black" points="1175.94,-138.204 1185.53,-133.714 1175.23,-131.239 1175.94,-138.204"/>
</g>
<!-- NoSQLDatabaseAsAService -->
<g id="node43" class="node"><title>NoSQLDatabaseAsAService</title>
<ellipse fill="none" stroke="black" cx="727.539" cy="-126" rx="112.38" ry="18"/>
<text text-anchor="middle" x="727.539" y="-122.3" font-family="Times,serif" font-size="14.00">NoSQLDatabaseAsAService</text>
</g>
<!-- NoSQLDatabaseAsAService&#45;&gt;DatabaseAsAService -->
<g id="edge42" class="edge"><title>NoSQLDatabaseAsAService&#45;&gt;DatabaseAsAService</title>
<path fill="none" stroke="black" d="M839.981,-126C936.931,-126 1075.87,-126 1167.4,-126"/>
<polygon fill="black" stroke="black" points="1167.49,-129.5 1177.49,-126 1167.49,-122.5 1167.49,-129.5"/>
</g>
<!-- github.com/supermuesli/csdl@aws/ec2/A1Large.py@latest -->
<g id="node44" class="node"><title>github.com/supermuesli/csdl@aws/ec2/A1Large.py@latest</title>
<ellipse fill="none" stroke="black" cx="221.63" cy="-18" rx="221.761" ry="18"/>
<text text-anchor="middle" x="221.63" y="-14.3" font-family="Times,serif" font-size="14.00">github.com/supermuesli/csdl@aws/ec2/A1Large.py@latest</text>
</g>
<!-- github.com/supermuesli/csdl@aws/ec2/A1Large.py@latest&#45;&gt;VMAsAService -->
<g id="edge43" class="edge"><title>github.com/supermuesli/csdl@aws/ec2/A1Large.py@latest&#45;&gt;VMAsAService</title>
<path fill="none" stroke="black" d="M443.285,-18C517.153,-18 594.665,-18 649.894,-18"/>
<polygon fill="black" stroke="black" points="649.942,-21.5001 659.942,-18 649.942,-14.5001 649.942,-21.5001"/>
</g>
<!-- github.com/supermuesli/csdl@aws/regions/Region.py@latest -->
<g id="node45" class="node"><title>github.com/supermuesli/csdl@aws/regions/Region.py@latest</title>
<ellipse fill="none" stroke="black" cx="1779" cy="-666" rx="229.359" ry="18"/>
<text text-anchor="middle" x="1779" y="-662.3" font-family="Times,serif" font-size="14.00">github.com/supermuesli/csdl@aws/regions/Region.py@latest</text>
</g>
<!-- github.com/supermuesli/csdl@aws/regions/Region.py@latest&#45;&gt;ChoiceAttribute -->
<g id="edge44" class="edge"><title>github.com/supermuesli/csdl@aws/regions/Region.py@latest&#45;&gt;ChoiceAttribute</title>
<path fill="none" stroke="black" d="M1922.68,-680.047C1951.18,-683.645 1980.84,-687.955 2008.43,-693 2025.42,-696.106 2043.71,-700.317 2060.34,-704.489"/>
<polygon fill="black" stroke="black" points="2059.89,-707.988 2070.45,-707.071 2061.63,-701.206 2059.89,-707.988"/>
</g>
<!-- github.com/supermuesli/csdl@misc/countries/USA.py@latest -->
<g id="node46" class="node"><title>github.com/supermuesli/csdl@misc/countries/USA.py@latest</title>
<ellipse fill="none" stroke="black" cx="1262.69" cy="-612" rx="231.259" ry="18"/>
<text text-anchor="middle" x="1262.69" y="-608.3" font-family="Times,serif" font-size="14.00">github.com/supermuesli/csdl@misc/countries/USA.py@latest</text>
</g>
<!-- github.com/supermuesli/csdl@misc/countries/USA.py@latest&#45;&gt;NorthAmerica -->
<g id="edge45" class="edge"><title>github.com/supermuesli/csdl@misc/countries/USA.py@latest&#45;&gt;NorthAmerica</title>
<path fill="none" stroke="black" d="M1494.15,-612C1571.26,-612 1651.61,-612 1707.05,-612"/>
<polygon fill="black" stroke="black" points="1707.11,-615.5 1717.11,-612 1707.11,-608.5 1707.11,-615.5"/>
</g>
<!-- github.com/supermuesli/csdl@aws/regions/California.py@latest -->
<g id="node47" class="node"><title>github.com/supermuesli/csdl@aws/regions/California.py@latest</title>
<ellipse fill="none" stroke="black" cx="727.539" cy="-666" rx="239.358" ry="18"/>
<text text-anchor="middle" x="727.539" y="-662.3" font-family="Times,serif" font-size="14.00">github.com/supermuesli/csdl@aws/regions/California.py@latest</text>
</g>
<!-- github.com/supermuesli/csdl@aws/regions/California.py@latest&#45;&gt;github.com/supermuesli/csdl@misc/countries/USA.py@latest -->
<g id="edge46" class="edge"><title>github.com/supermuesli/csdl@aws/regions/California.py@latest&#45;&gt;github.com/supermuesli/csdl@misc/countries/USA.py@latest</title>
<path fill="none" stroke="black" d="M871.064,-651.564C945.162,-644.06 1035.72,-634.888 1110.98,-627.265"/>
<polygon fill="black" stroke="black" points="1111.42,-630.738 1121.02,-626.248 1110.71,-623.774 1111.42,-630.738"/>
</g>
<!-- github.com/supermuesli/csdl@aws/regions/EastVirginia.py@latest -->
<g id="node48" class="node"><title>github.com/supermuesli/csdl@aws/regions/EastVirginia.py@latest</title>
<ellipse fill="none" stroke="black" cx="727.539" cy="-612" rx="248.056" ry="18"/>
<text text-anchor="middle" x="727.539" y="-608.3" font-family="Times,serif" font-size="14.00">github.com/supermuesli/csdl@aws/regions/EastVirginia.py@latest</text>
</g>
<!-- github.com/supermuesli/csdl@aws/regions/EastVirginia.py@latest&#45;&gt;github.com/supermuesli/csdl@misc/countries/USA.py@latest -->
<g id="edge47" class="edge"><title>github.com/supermuesli/csdl@aws/regions/EastVirginia.py@latest&#45;&gt;github.com/supermuesli/csdl@misc/countries/USA.py@latest</title>
<path fill="none" stroke="black" d="M975.997,-612C990.923,-612 1005.93,-612 1020.83,-612"/>
<polygon fill="black" stroke="black" points="1021.12,-615.5 1031.12,-612 1021.12,-608.5 1021.12,-615.5"/>
</g>
<!-- github.com/supermuesli/csdl@aws/regions/NewYork.py@latest -->
<g id="node49" class="node"><title>github.com/supermuesli/csdl@aws/regions/NewYork.py@latest</title>
<ellipse fill="none" stroke="black" cx="727.539" cy="-558" rx="238.558" ry="18"/>
<text text-anchor="middle" x="727.539" y="-554.3" font-family="Times,serif" font-size="14.00">github.com/supermuesli/csdl@aws/regions/NewYork.py@latest</text>
</g>
<!-- github.com/supermuesli/csdl@aws/regions/NewYork.py@latest&#45;&gt;github.com/supermuesli/csdl@misc/countries/USA.py@latest -->
<g id="edge48" class="edge"><title>github.com/supermuesli/csdl@aws/regions/NewYork.py@latest&#45;&gt;github.com/supermuesli/csdl@misc/countries/USA.py@latest</title>
<path fill="none" stroke="black" d="M870.714,-572.4C944.815,-579.905 1035.45,-589.085 1110.79,-596.715"/>
<polygon fill="black" stroke="black" points="1110.54,-600.208 1120.84,-597.734 1111.24,-593.244 1110.54,-600.208"/>
</g>
<!-- github.com/supermuesli/csdl@aws/EBS.py@latest -->
<g id="node50" class="node"><title>github.com/supermuesli/csdl@aws/EBS.py@latest</title>
<ellipse fill="none" stroke="black" cx="727.539" cy="-72" rx="191.966" ry="18"/>
<text text-anchor="middle" x="727.539" y="-68.3" font-family="Times,serif" font-size="14.00">github.com/supermuesli/csdl@aws/EBS.py@latest</text>
</g>
<!-- github.com/supermuesli/csdl@aws/EBS.py@latest&#45;&gt;StorageAsAService -->
<g id="edge49" class="edge"><title>github.com/supermuesli/csdl@aws/EBS.py@latest&#45;&gt;StorageAsAService</title>
<path fill="none" stroke="black" d="M919.514,-72C1005.63,-72 1103.22,-72 1172.08,-72"/>
<polygon fill="black" stroke="black" points="1172.45,-75.5001 1182.45,-72 1172.45,-68.5001 1172.45,-75.5001"/>
</g>
<!-- github.com/supermuesli/csdl@misc/StaticIp.py@latest -->
<g id="node51" class="node"><title>github.com/supermuesli/csdl@misc/StaticIp.py@latest</title>
<ellipse fill="none" stroke="black" cx="1779" cy="-882" rx="206.063" ry="18"/>
<text text-anchor="middle" x="1779" y="-878.3" font-family="Times,serif" font-size="14.00">github.com/supermuesli/csdl@misc/StaticIp.py@latest</text>
</g>
<!-- github.com/supermuesli/csdl@misc/StaticIp.py@latest&#45;&gt;NumericAttribute -->
<g id="edge50" class="edge"><title>github.com/supermuesli/csdl@misc/StaticIp.py@latest&#45;&gt;NumericAttribute</title>
<path fill="none" stroke="black" d="M1971.7,-888.52C1984.82,-893.733 1997.25,-900.444 2008.43,-909 2086.82,-968.993 2108.72,-1094.71 2114.7,-1150.86"/>
<polygon fill="black" stroke="black" points="2111.22,-1151.2 2115.67,-1160.82 2118.18,-1150.53 2111.22,-1151.2"/>
</g>
<!-- github.com/supermuesli/csdl@aws/ec2/ElasticIpAmount.py@latest -->
<g id="node52" class="node"><title>github.com/supermuesli/csdl@aws/ec2/ElasticIpAmount.py@latest</title>
<ellipse fill="none" stroke="black" cx="1262.69" cy="-882" rx="250.756" ry="18"/>
<text text-anchor="middle" x="1262.69" y="-878.3" font-family="Times,serif" font-size="14.00">github.com/supermuesli/csdl@aws/ec2/ElasticIpAmount.py@latest</text>
</g>
<!-- github.com/supermuesli/csdl@aws/ec2/ElasticIpAmount.py@latest&#45;&gt;github.com/supermuesli/csdl@misc/StaticIp.py@latest -->
<g id="edge51" class="edge"><title>github.com/supermuesli/csdl@aws/ec2/ElasticIpAmount.py@latest&#45;&gt;github.com/supermuesli/csdl@misc/StaticIp.py@latest</title>
<path fill="none" stroke="black" d="M1513.69,-882C1530.1,-882 1546.55,-882 1562.77,-882"/>
<polygon fill="black" stroke="black" points="1562.84,-885.5 1572.84,-882 1562.84,-878.5 1562.84,-885.5"/>
</g>
</g>
</svg>
