<?xml version="1.0" encoding="UTF-8" standalone="no"?>
<!DOCTYPE svg PUBLIC "-//W3C//DTD SVG 1.1//EN"
 "http://www.w3.org/Graphics/SVG/1.1/DTD/svg11.dtd">
<!-- Generated by graphviz version 2.38.0 (20140413.2041)
 -->
<!-- Title: %3 Pages: 1 -->
<svg width="2521pt" height="1637pt"
 viewBox="0.00 0.00 2520.90 1637.00" xmlns="http://www.w3.org/2000/svg" xmlns:xlink="http://www.w3.org/1999/xlink">
<g id="graph0" class="graph" transform="scale(1 1) rotate(0) translate(4 1633)">
<title>%3</title>
<polygon fill="white" stroke="none" points="-4,4 -4,-1633 2516.9,-1633 2516.9,4 -4,4"/>
<!-- VMAsAService -->
<g id="node1" class="node"><title>VMAsAService</title>
<ellipse fill="none" stroke="black" cx="791.883" cy="-45" rx="67.6881" ry="18"/>
<text text-anchor="middle" x="791.883" y="-41.3" font-family="Times,serif" font-size="14.00">VMAsAService</text>
</g>
<!-- ServerAsAService -->
<g id="node2" class="node"><title>ServerAsAService</title>
<ellipse fill="none" stroke="black" cx="1343.29" cy="-45" rx="76.0865" ry="18"/>
<text text-anchor="middle" x="1343.29" y="-41.3" font-family="Times,serif" font-size="14.00">ServerAsAService</text>
</g>
<!-- VMAsAService&#45;&gt;ServerAsAService -->
<g id="edge1" class="edge"><title>VMAsAService&#45;&gt;ServerAsAService</title>
<path fill="none" stroke="black" d="M859.701,-45C959.534,-45 1147.58,-45 1257.14,-45"/>
<polygon fill="black" stroke="black" points="1257.16,-48.5001 1267.16,-45 1257.16,-41.5001 1257.16,-48.5001"/>
</g>
<!-- IaaS -->
<g id="node3" class="node"><title>IaaS</title>
<ellipse fill="none" stroke="black" cx="1869.34" cy="-99" rx="27" ry="18"/>
<text text-anchor="middle" x="1869.34" y="-95.3" font-family="Times,serif" font-size="14.00">IaaS</text>
</g>
<!-- ServerAsAService&#45;&gt;IaaS -->
<g id="edge2" class="edge"><title>ServerAsAService&#45;&gt;IaaS</title>
<path fill="none" stroke="black" d="M1413.34,-52.1151C1526.2,-63.7445 1746.24,-86.4179 1832.46,-95.3027"/>
<polygon fill="black" stroke="black" points="1832.23,-98.7971 1842.54,-96.3406 1832.95,-91.834 1832.23,-98.7971"/>
</g>
<!-- CCS -->
<g id="node5" class="node"><title>CCS</title>
<ellipse fill="none" stroke="black" cx="2217.97" cy="-153" rx="27.0966" ry="18"/>
<text text-anchor="middle" x="2217.97" y="-149.3" font-family="Times,serif" font-size="14.00">CCS</text>
</g>
<!-- IaaS&#45;&gt;CCS -->
<g id="edge4" class="edge"><title>IaaS&#45;&gt;CCS</title>
<path fill="none" stroke="black" d="M1896.23,-100.817C1940.15,-104.147 2031.94,-112.187 2108.52,-126 2133.63,-130.528 2161.55,-137.527 2182.78,-143.265"/>
<polygon fill="black" stroke="black" points="2182.05,-146.694 2192.61,-145.964 2183.9,-139.943 2182.05,-146.694"/>
</g>
<!-- SaaS -->
<g id="node4" class="node"><title>SaaS</title>
<ellipse fill="none" stroke="black" cx="1869.34" cy="-153" rx="28.6953" ry="18"/>
<text text-anchor="middle" x="1869.34" y="-149.3" font-family="Times,serif" font-size="14.00">SaaS</text>
</g>
<!-- SaaS&#45;&gt;CCS -->
<g id="edge3" class="edge"><title>SaaS&#45;&gt;CCS</title>
<path fill="none" stroke="black" d="M1898.12,-153C1960.31,-153 2110.74,-153 2180.42,-153"/>
<polygon fill="black" stroke="black" points="2180.49,-156.5 2190.49,-153 2180.49,-149.5 2180.49,-156.5"/>
</g>
<!-- Attribute -->
<g id="node8" class="node"><title>Attribute</title>
<ellipse fill="none" stroke="black" cx="2369.66" cy="-504" rx="42.4939" ry="18"/>
<text text-anchor="middle" x="2369.66" y="-500.3" font-family="Times,serif" font-size="14.00">Attribute</text>
</g>
<!-- CCS&#45;&gt;Attribute -->
<g id="edge10" class="edge"><title>CCS&#45;&gt;Attribute</title>
<path fill="none" stroke="black" d="M2226.39,-170.406C2250.62,-227.231 2327.55,-407.62 2357.02,-476.712"/>
<polygon fill="black" stroke="black" points="2353.87,-478.245 2361.01,-486.071 2360.31,-475.499 2353.87,-478.245"/>
</g>
<!-- StorageAsAService -->
<g id="node6" class="node"><title>StorageAsAService</title>
<ellipse fill="none" stroke="black" cx="1343.29" cy="-99" rx="79.8859" ry="18"/>
<text text-anchor="middle" x="1343.29" y="-95.3" font-family="Times,serif" font-size="14.00">StorageAsAService</text>
</g>
<!-- StorageAsAService&#45;&gt;IaaS -->
<g id="edge5" class="edge"><title>StorageAsAService&#45;&gt;IaaS</title>
<path fill="none" stroke="black" d="M1423.31,-99C1538.62,-99 1748.35,-99 1832.25,-99"/>
<polygon fill="black" stroke="black" points="1832.3,-102.5 1842.3,-99 1832.3,-95.5001 1832.3,-102.5"/>
</g>
<!-- NumericAttribute -->
<g id="node7" class="node"><title>NumericAttribute</title>
<ellipse fill="none" stroke="black" cx="2217.97" cy="-1260" rx="73.387" ry="18"/>
<text text-anchor="middle" x="2217.97" y="-1256.3" font-family="Times,serif" font-size="14.00">NumericAttribute</text>
</g>
<!-- NumericAttribute&#45;&gt;Attribute -->
<g id="edge6" class="edge"><title>NumericAttribute&#45;&gt;Attribute</title>
<path fill="none" stroke="black" d="M2222.59,-1241.69C2242.53,-1141 2338.79,-654.859 2363.08,-532.167"/>
<polygon fill="black" stroke="black" points="2366.57,-532.562 2365.08,-522.072 2359.7,-531.202 2366.57,-532.562"/>
</g>
<!-- object -->
<g id="node12" class="node"><title>object</title>
<ellipse fill="none" stroke="black" cx="2480.4" cy="-504" rx="32.4942" ry="18"/>
<text text-anchor="middle" x="2480.4" y="-500.3" font-family="Times,serif" font-size="14.00">object</text>
</g>
<!-- Attribute&#45;&gt;object -->
<g id="edge11" class="edge"><title>Attribute&#45;&gt;object</title>
<path fill="none" stroke="black" d="M2412.08,-504C2420.35,-504 2429.05,-504 2437.34,-504"/>
<polygon fill="black" stroke="black" points="2437.56,-507.5 2447.56,-504 2437.56,-500.5 2437.56,-507.5"/>
</g>
<!-- ChoiceAttribute -->
<g id="node9" class="node"><title>ChoiceAttribute</title>
<ellipse fill="none" stroke="black" cx="2217.97" cy="-801" rx="67.6881" ry="18"/>
<text text-anchor="middle" x="2217.97" y="-797.3" font-family="Times,serif" font-size="14.00">ChoiceAttribute</text>
</g>
<!-- ChoiceAttribute&#45;&gt;Attribute -->
<g id="edge7" class="edge"><title>ChoiceAttribute&#45;&gt;Attribute</title>
<path fill="none" stroke="black" d="M2228.1,-782.868C2253.54,-732.404 2325.25,-590.128 2355.22,-530.653"/>
<polygon fill="black" stroke="black" points="2358.45,-532.026 2359.83,-521.52 2352.2,-528.875 2358.45,-532.026"/>
</g>
<!-- BoolAttribute -->
<g id="node10" class="node"><title>BoolAttribute</title>
<ellipse fill="none" stroke="black" cx="2217.97" cy="-531" rx="59.5901" ry="18"/>
<text text-anchor="middle" x="2217.97" y="-527.3" font-family="Times,serif" font-size="14.00">BoolAttribute</text>
</g>
<!-- BoolAttribute&#45;&gt;Attribute -->
<g id="edge8" class="edge"><title>BoolAttribute&#45;&gt;Attribute</title>
<path fill="none" stroke="black" d="M2269.64,-521.859C2285.92,-518.922 2303.91,-515.678 2320.04,-512.768"/>
<polygon fill="black" stroke="black" points="2321.12,-516.131 2330.34,-510.912 2319.88,-509.242 2321.12,-516.131"/>
</g>
<!-- OptionAttribute -->
<g id="node11" class="node"><title>OptionAttribute</title>
<ellipse fill="none" stroke="black" cx="2217.97" cy="-477" rx="66.8882" ry="18"/>
<text text-anchor="middle" x="2217.97" y="-473.3" font-family="Times,serif" font-size="14.00">OptionAttribute</text>
</g>
<!-- OptionAttribute&#45;&gt;Attribute -->
<g id="edge9" class="edge"><title>OptionAttribute&#45;&gt;Attribute</title>
<path fill="none" stroke="black" d="M2274.28,-486.977C2289.44,-489.711 2305.74,-492.652 2320.47,-495.308"/>
<polygon fill="black" stroke="black" points="2319.91,-498.764 2330.37,-497.095 2321.15,-491.875 2319.91,-498.764"/>
</g>
<!-- Region -->
<g id="node13" class="node"><title>Region</title>
<ellipse fill="none" stroke="black" cx="1869.34" cy="-909" rx="36.2938" ry="18"/>
<text text-anchor="middle" x="1869.34" y="-905.3" font-family="Times,serif" font-size="14.00">Region</text>
</g>
<!-- Region&#45;&gt;ChoiceAttribute -->
<g id="edge12" class="edge"><title>Region&#45;&gt;ChoiceAttribute</title>
<path fill="none" stroke="black" d="M1905.64,-910.641C1953.39,-911.622 2040.43,-908.977 2108.52,-882 2140.68,-869.26 2171.71,-844.391 2192.28,-825.554"/>
<polygon fill="black" stroke="black" points="2194.72,-828.058 2199.63,-818.667 2189.94,-822.95 2194.72,-828.058"/>
</g>
<!-- NorthAmerica -->
<g id="node14" class="node"><title>NorthAmerica</title>
<ellipse fill="none" stroke="black" cx="1869.34" cy="-693" rx="61.99" ry="18"/>
<text text-anchor="middle" x="1869.34" y="-689.3" font-family="Times,serif" font-size="14.00">NorthAmerica</text>
</g>
<!-- NorthAmerica&#45;&gt;OptionAttribute -->
<g id="edge13" class="edge"><title>NorthAmerica&#45;&gt;OptionAttribute</title>
<path fill="none" stroke="black" d="M1921.35,-702.794C1974.81,-709.895 2057.93,-711.501 2108.52,-666 2163.36,-616.677 2096.09,-559.627 2144.52,-504 2148.16,-499.824 2152.5,-496.293 2157.23,-493.307"/>
<polygon fill="black" stroke="black" points="2158.98,-496.345 2166.1,-488.501 2155.64,-490.191 2158.98,-496.345"/>
</g>
<!-- Australia -->
<g id="node15" class="node"><title>Australia</title>
<ellipse fill="none" stroke="black" cx="1869.34" cy="-639" rx="42.7926" ry="18"/>
<text text-anchor="middle" x="1869.34" y="-635.3" font-family="Times,serif" font-size="14.00">Australia</text>
</g>
<!-- Australia&#45;&gt;OptionAttribute -->
<g id="edge14" class="edge"><title>Australia&#45;&gt;OptionAttribute</title>
<path fill="none" stroke="black" d="M1908.91,-646.246C1960.38,-653.58 2051.62,-658.109 2108.52,-612 2147.83,-580.147 2109.38,-540.398 2144.52,-504 2148.43,-499.957 2152.99,-496.514 2157.9,-493.583"/>
<polygon fill="black" stroke="black" points="2159.76,-496.557 2167.03,-488.842 2156.54,-490.345 2159.76,-496.557"/>
</g>
<!-- Africa -->
<g id="node16" class="node"><title>Africa</title>
<ellipse fill="none" stroke="black" cx="1869.34" cy="-585" rx="33.2948" ry="18"/>
<text text-anchor="middle" x="1869.34" y="-581.3" font-family="Times,serif" font-size="14.00">Africa</text>
</g>
<!-- Africa&#45;&gt;OptionAttribute -->
<g id="edge15" class="edge"><title>Africa&#45;&gt;OptionAttribute</title>
<path fill="none" stroke="black" d="M1901.54,-589.342C1949.74,-594.419 2043.51,-597.665 2108.52,-558 2133.15,-542.977 2121.91,-521.907 2144.52,-504 2149.43,-500.118 2154.94,-496.754 2160.69,-493.849"/>
<polygon fill="black" stroke="black" points="2162.22,-496.999 2169.85,-489.653 2159.3,-490.634 2162.22,-496.999"/>
</g>
<!-- EastAsia -->
<g id="node17" class="node"><title>EastAsia</title>
<ellipse fill="none" stroke="black" cx="1869.34" cy="-531" rx="42.4939" ry="18"/>
<text text-anchor="middle" x="1869.34" y="-527.3" font-family="Times,serif" font-size="14.00">EastAsia</text>
</g>
<!-- EastAsia&#45;&gt;OptionAttribute -->
<g id="edge16" class="edge"><title>EastAsia&#45;&gt;OptionAttribute</title>
<path fill="none" stroke="black" d="M1911.04,-528.021C1958.65,-524.16 2039.72,-516.41 2108.52,-504 2125.6,-500.92 2143.98,-496.696 2160.67,-492.504"/>
<polygon fill="black" stroke="black" points="2162,-495.778 2170.82,-489.909 2160.26,-488.997 2162,-495.778"/>
</g>
<!-- SouthAmerica -->
<g id="node18" class="node"><title>SouthAmerica</title>
<ellipse fill="none" stroke="black" cx="1869.34" cy="-477" rx="61.99" ry="18"/>
<text text-anchor="middle" x="1869.34" y="-473.3" font-family="Times,serif" font-size="14.00">SouthAmerica</text>
</g>
<!-- SouthAmerica&#45;&gt;OptionAttribute -->
<g id="edge17" class="edge"><title>SouthAmerica&#45;&gt;OptionAttribute</title>
<path fill="none" stroke="black" d="M1931.12,-477C1989.42,-477 2077.66,-477 2140.66,-477"/>
<polygon fill="black" stroke="black" points="2140.94,-480.5 2150.94,-477 2140.94,-473.5 2140.94,-480.5"/>
</g>
<!-- Europe -->
<g id="node19" class="node"><title>Europe</title>
<ellipse fill="none" stroke="black" cx="1869.34" cy="-423" rx="36.2938" ry="18"/>
<text text-anchor="middle" x="1869.34" y="-419.3" font-family="Times,serif" font-size="14.00">Europe</text>
</g>
<!-- Europe&#45;&gt;OptionAttribute -->
<g id="edge18" class="edge"><title>Europe&#45;&gt;OptionAttribute</title>
<path fill="none" stroke="black" d="M1905.66,-425.548C1952.35,-429.248 2037.06,-437.11 2108.52,-450 2125.6,-453.08 2143.98,-457.304 2160.67,-461.496"/>
<polygon fill="black" stroke="black" points="2160.26,-465.003 2170.82,-464.091 2162,-458.222 2160.26,-465.003"/>
</g>
<!-- Antarctica -->
<g id="node20" class="node"><title>Antarctica</title>
<ellipse fill="none" stroke="black" cx="1869.34" cy="-369" rx="47.3916" ry="18"/>
<text text-anchor="middle" x="1869.34" y="-365.3" font-family="Times,serif" font-size="14.00">Antarctica</text>
</g>
<!-- Antarctica&#45;&gt;OptionAttribute -->
<g id="edge19" class="edge"><title>Antarctica&#45;&gt;OptionAttribute</title>
<path fill="none" stroke="black" d="M1914.72,-363.433C1965.42,-359.339 2049.02,-359.694 2108.52,-396 2133.15,-411.023 2121.91,-432.093 2144.52,-450 2149.43,-453.882 2154.94,-457.246 2160.69,-460.151"/>
<polygon fill="black" stroke="black" points="2159.3,-463.366 2169.85,-464.347 2162.22,-457.001 2159.3,-463.366"/>
</g>
<!-- Storage -->
<g id="node21" class="node"><title>Storage</title>
<ellipse fill="none" stroke="black" cx="1869.34" cy="-1611" rx="37.8943" ry="18"/>
<text text-anchor="middle" x="1869.34" y="-1607.3" font-family="Times,serif" font-size="14.00">Storage</text>
</g>
<!-- Storage&#45;&gt;NumericAttribute -->
<g id="edge20" class="edge"><title>Storage&#45;&gt;NumericAttribute</title>
<path fill="none" stroke="black" d="M1904.62,-1617.61C1955.15,-1625.26 2049.97,-1631.38 2108.52,-1584 2201.15,-1509.04 2215.18,-1352.23 2216.93,-1288.17"/>
<polygon fill="black" stroke="black" points="2220.43,-1288.08 2217.12,-1278.02 2213.43,-1287.95 2220.43,-1288.08"/>
</g>
<!-- StorageWriteSpeed -->
<g id="node22" class="node"><title>StorageWriteSpeed</title>
<ellipse fill="none" stroke="black" cx="1869.34" cy="-1557" rx="79.0865" ry="18"/>
<text text-anchor="middle" x="1869.34" y="-1553.3" font-family="Times,serif" font-size="14.00">StorageWriteSpeed</text>
</g>
<!-- StorageWriteSpeed&#45;&gt;NumericAttribute -->
<g id="edge21" class="edge"><title>StorageWriteSpeed&#45;&gt;NumericAttribute</title>
<path fill="none" stroke="black" d="M1936.38,-1566.62C1988.3,-1570.48 2059.77,-1567.13 2108.52,-1530 2187.05,-1470.19 2208.88,-1344.38 2214.81,-1288.17"/>
<polygon fill="black" stroke="black" points="2218.3,-1288.49 2215.77,-1278.2 2211.33,-1287.82 2218.3,-1288.49"/>
</g>
<!-- StorageReadSpeed -->
<g id="node23" class="node"><title>StorageReadSpeed</title>
<ellipse fill="none" stroke="black" cx="1869.34" cy="-1503" rx="77.1866" ry="18"/>
<text text-anchor="middle" x="1869.34" y="-1499.3" font-family="Times,serif" font-size="14.00">StorageReadSpeed</text>
</g>
<!-- StorageReadSpeed&#45;&gt;NumericAttribute -->
<g id="edge22" class="edge"><title>StorageReadSpeed&#45;&gt;NumericAttribute</title>
<path fill="none" stroke="black" d="M1937.41,-1511.62C1988.71,-1514.63 2058.86,-1510.65 2108.52,-1476 2173.31,-1430.8 2201.45,-1335.26 2211.81,-1287.87"/>
<polygon fill="black" stroke="black" points="2215.26,-1288.49 2213.87,-1277.99 2208.41,-1287.07 2215.26,-1288.49"/>
</g>
<!-- OperatingSystem -->
<g id="node24" class="node"><title>OperatingSystem</title>
<ellipse fill="none" stroke="black" cx="1869.34" cy="-855" rx="72.2875" ry="18"/>
<text text-anchor="middle" x="1869.34" y="-851.3" font-family="Times,serif" font-size="14.00">OperatingSystem</text>
</g>
<!-- OperatingSystem&#45;&gt;ChoiceAttribute -->
<g id="edge23" class="edge"><title>OperatingSystem&#45;&gt;ChoiceAttribute</title>
<path fill="none" stroke="black" d="M1938.45,-849.67C1986.27,-845.345 2051.6,-838.268 2108.52,-828 2125.6,-824.92 2143.98,-820.696 2160.67,-816.504"/>
<polygon fill="black" stroke="black" points="2162,-819.778 2170.82,-813.909 2160.26,-812.997 2162,-819.778"/>
</g>
<!-- CpuCores -->
<g id="node25" class="node"><title>CpuCores</title>
<ellipse fill="none" stroke="black" cx="1869.34" cy="-1449" rx="46.2923" ry="18"/>
<text text-anchor="middle" x="1869.34" y="-1445.3" font-family="Times,serif" font-size="14.00">CpuCores</text>
</g>
<!-- CpuCores&#45;&gt;NumericAttribute -->
<g id="edge24" class="edge"><title>CpuCores&#45;&gt;NumericAttribute</title>
<path fill="none" stroke="black" d="M1913.36,-1454.44C1963.89,-1458.63 2048.45,-1458.57 2108.52,-1422 2159.65,-1390.87 2191.9,-1325.43 2206.94,-1287.94"/>
<polygon fill="black" stroke="black" points="2210.38,-1288.75 2210.73,-1278.16 2203.86,-1286.22 2210.38,-1288.75"/>
</g>
<!-- CpuClockSpeed -->
<g id="node26" class="node"><title>CpuClockSpeed</title>
<ellipse fill="none" stroke="black" cx="1869.34" cy="-1395" rx="67.6881" ry="18"/>
<text text-anchor="middle" x="1869.34" y="-1391.3" font-family="Times,serif" font-size="14.00">CpuClockSpeed</text>
</g>
<!-- CpuClockSpeed&#45;&gt;NumericAttribute -->
<g id="edge25" class="edge"><title>CpuClockSpeed&#45;&gt;NumericAttribute</title>
<path fill="none" stroke="black" d="M1935.43,-1398.92C1985.19,-1399.32 2054.23,-1394.1 2108.52,-1368 2147.04,-1349.49 2179.96,-1311.61 2199.11,-1286.01"/>
<polygon fill="black" stroke="black" points="2202,-1287.98 2205.07,-1277.84 2196.35,-1283.86 2202,-1287.98"/>
</g>
<!-- Ram -->
<g id="node27" class="node"><title>Ram</title>
<ellipse fill="none" stroke="black" cx="1869.34" cy="-1341" rx="27.8951" ry="18"/>
<text text-anchor="middle" x="1869.34" y="-1337.3" font-family="Times,serif" font-size="14.00">Ram</text>
</g>
<!-- Ram&#45;&gt;NumericAttribute -->
<g id="edge26" class="edge"><title>Ram&#45;&gt;NumericAttribute</title>
<path fill="none" stroke="black" d="M1897.38,-1340.97C1942.2,-1340.25 2034.29,-1335.94 2108.52,-1314 2134,-1306.47 2160.73,-1293.22 2181.28,-1281.74"/>
<polygon fill="black" stroke="black" points="2183.03,-1284.77 2189.98,-1276.78 2179.56,-1278.69 2183.03,-1284.77"/>
</g>
<!-- RamClockSpeed -->
<g id="node28" class="node"><title>RamClockSpeed</title>
<ellipse fill="none" stroke="black" cx="1869.34" cy="-1287" rx="70.3881" ry="18"/>
<text text-anchor="middle" x="1869.34" y="-1283.3" font-family="Times,serif" font-size="14.00">RamClockSpeed</text>
</g>
<!-- RamClockSpeed&#45;&gt;NumericAttribute -->
<g id="edge27" class="edge"><title>RamClockSpeed&#45;&gt;NumericAttribute</title>
<path fill="none" stroke="black" d="M1936.77,-1281.83C1994,-1277.37 2076.75,-1270.92 2137.49,-1266.19"/>
<polygon fill="black" stroke="black" points="2138.1,-1269.65 2147.8,-1265.39 2137.56,-1262.67 2138.1,-1269.65"/>
</g>
<!-- RamWriteSpeed -->
<g id="node29" class="node"><title>RamWriteSpeed</title>
<ellipse fill="none" stroke="black" cx="1869.34" cy="-1233" rx="69.5877" ry="18"/>
<text text-anchor="middle" x="1869.34" y="-1229.3" font-family="Times,serif" font-size="14.00">RamWriteSpeed</text>
</g>
<!-- RamWriteSpeed&#45;&gt;NumericAttribute -->
<g id="edge28" class="edge"><title>RamWriteSpeed&#45;&gt;NumericAttribute</title>
<path fill="none" stroke="black" d="M1936.36,-1238.14C1993.55,-1242.6 2076.44,-1249.05 2137.3,-1253.79"/>
<polygon fill="black" stroke="black" points="2137.39,-1257.31 2147.64,-1254.6 2137.94,-1250.33 2137.39,-1257.31"/>
</g>
<!-- RamReadSpeed -->
<g id="node30" class="node"><title>RamReadSpeed</title>
<ellipse fill="none" stroke="black" cx="1869.34" cy="-1179" rx="67.6881" ry="18"/>
<text text-anchor="middle" x="1869.34" y="-1175.3" font-family="Times,serif" font-size="14.00">RamReadSpeed</text>
</g>
<!-- RamReadSpeed&#45;&gt;NumericAttribute -->
<g id="edge29" class="edge"><title>RamReadSpeed&#45;&gt;NumericAttribute</title>
<path fill="none" stroke="black" d="M1936.77,-1180.35C1985.24,-1182.82 2052.05,-1189.31 2108.52,-1206 2134,-1213.53 2160.73,-1226.78 2181.28,-1238.26"/>
<polygon fill="black" stroke="black" points="2179.56,-1241.31 2189.98,-1243.22 2183.03,-1235.23 2179.56,-1241.31"/>
</g>
<!-- NetworkCapacity -->
<g id="node31" class="node"><title>NetworkCapacity</title>
<ellipse fill="none" stroke="black" cx="1869.34" cy="-1125" rx="72.5877" ry="18"/>
<text text-anchor="middle" x="1869.34" y="-1121.3" font-family="Times,serif" font-size="14.00">NetworkCapacity</text>
</g>
<!-- NetworkCapacity&#45;&gt;NumericAttribute -->
<g id="edge30" class="edge"><title>NetworkCapacity&#45;&gt;NumericAttribute</title>
<path fill="none" stroke="black" d="M1940.39,-1121.06C1989.7,-1121.05 2056.01,-1126.76 2108.52,-1152 2147.04,-1170.51 2179.96,-1208.39 2199.11,-1233.99"/>
<polygon fill="black" stroke="black" points="2196.35,-1236.14 2205.07,-1242.16 2202,-1232.02 2196.35,-1236.14"/>
</g>
<!-- NetworkUploadSpeed -->
<g id="node32" class="node"><title>NetworkUploadSpeed</title>
<ellipse fill="none" stroke="black" cx="1869.34" cy="-1071" rx="89.0842" ry="18"/>
<text text-anchor="middle" x="1869.34" y="-1067.3" font-family="Times,serif" font-size="14.00">NetworkUploadSpeed</text>
</g>
<!-- NetworkUploadSpeed&#45;&gt;NumericAttribute -->
<g id="edge31" class="edge"><title>NetworkUploadSpeed&#45;&gt;NumericAttribute</title>
<path fill="none" stroke="black" d="M1951.11,-1063.76C1999.98,-1063.17 2061.69,-1069.49 2108.52,-1098 2159.65,-1129.13 2191.9,-1194.57 2206.94,-1232.06"/>
<polygon fill="black" stroke="black" points="2203.86,-1233.78 2210.73,-1241.84 2210.38,-1231.25 2203.86,-1233.78"/>
</g>
<!-- NetworkDownloadSpeed -->
<g id="node33" class="node"><title>NetworkDownloadSpeed</title>
<ellipse fill="none" stroke="black" cx="1869.34" cy="-1017" rx="99.3824" ry="18"/>
<text text-anchor="middle" x="1869.34" y="-1013.3" font-family="Times,serif" font-size="14.00">NetworkDownloadSpeed</text>
</g>
<!-- NetworkDownloadSpeed&#45;&gt;NumericAttribute -->
<g id="edge32" class="edge"><title>NetworkDownloadSpeed&#45;&gt;NumericAttribute</title>
<path fill="none" stroke="black" d="M1954.68,-1007.68C2003.66,-1006.59 2064.24,-1013.1 2108.52,-1044 2173.31,-1089.2 2201.45,-1184.74 2211.81,-1232.13"/>
<polygon fill="black" stroke="black" points="2208.41,-1232.93 2213.87,-1242.01 2215.26,-1231.51 2208.41,-1232.93"/>
</g>
<!-- PricingModel -->
<g id="node34" class="node"><title>PricingModel</title>
<ellipse fill="none" stroke="black" cx="1869.34" cy="-801" rx="59.5901" ry="18"/>
<text text-anchor="middle" x="1869.34" y="-797.3" font-family="Times,serif" font-size="14.00">PricingModel</text>
</g>
<!-- PricingModel&#45;&gt;ChoiceAttribute -->
<g id="edge33" class="edge"><title>PricingModel&#45;&gt;ChoiceAttribute</title>
<path fill="none" stroke="black" d="M1929.14,-801C1987.14,-801 2076.11,-801 2139.78,-801"/>
<polygon fill="black" stroke="black" points="2140.16,-804.5 2150.16,-801 2140.16,-797.5 2140.16,-804.5"/>
</g>
<!-- Static -->
<g id="node35" class="node"><title>Static</title>
<ellipse fill="none" stroke="black" cx="1869.34" cy="-315" rx="30.5947" ry="18"/>
<text text-anchor="middle" x="1869.34" y="-311.3" font-family="Times,serif" font-size="14.00">Static</text>
</g>
<!-- Static&#45;&gt;OptionAttribute -->
<g id="edge34" class="edge"><title>Static&#45;&gt;OptionAttribute</title>
<path fill="none" stroke="black" d="M1898.58,-309.341C1947.25,-301.319 2047.57,-292.616 2108.52,-342 2147.83,-373.853 2109.38,-413.602 2144.52,-450 2148.43,-454.043 2152.99,-457.486 2157.9,-460.417"/>
<polygon fill="black" stroke="black" points="2156.54,-463.655 2167.03,-465.158 2159.76,-457.443 2156.54,-463.655"/>
</g>
<!-- Dynamic -->
<g id="node36" class="node"><title>Dynamic</title>
<ellipse fill="none" stroke="black" cx="1869.34" cy="-261" rx="43.5923" ry="18"/>
<text text-anchor="middle" x="1869.34" y="-257.3" font-family="Times,serif" font-size="14.00">Dynamic</text>
</g>
<!-- Dynamic&#45;&gt;OptionAttribute -->
<g id="edge35" class="edge"><title>Dynamic&#45;&gt;OptionAttribute</title>
<path fill="none" stroke="black" d="M1908.74,-253.054C1960.86,-244.691 2053.76,-238.742 2108.52,-288 2163.36,-337.323 2096.09,-394.373 2144.52,-450 2148.16,-454.176 2152.5,-457.707 2157.23,-460.693"/>
<polygon fill="black" stroke="black" points="2155.64,-463.809 2166.1,-465.499 2158.98,-457.655 2155.64,-463.809"/>
</g>
<!-- PayAndGo -->
<g id="node37" class="node"><title>PayAndGo</title>
<ellipse fill="none" stroke="black" cx="1343.29" cy="-369" rx="50.0912" ry="18"/>
<text text-anchor="middle" x="1343.29" y="-365.3" font-family="Times,serif" font-size="14.00">PayAndGo</text>
</g>
<!-- PayAndGo&#45;&gt;Static -->
<g id="edge36" class="edge"><title>PayAndGo&#45;&gt;Static</title>
<path fill="none" stroke="black" d="M1391.72,-364.113C1494.2,-353.552 1734.66,-328.775 1829.19,-319.034"/>
<polygon fill="black" stroke="black" points="1829.61,-322.51 1839.2,-318.004 1828.89,-315.547 1829.61,-322.51"/>
</g>
<!-- PayPerResource -->
<g id="node38" class="node"><title>PayPerResource</title>
<ellipse fill="none" stroke="black" cx="1343.29" cy="-315" rx="68.4888" ry="18"/>
<text text-anchor="middle" x="1343.29" y="-311.3" font-family="Times,serif" font-size="14.00">PayPerResource</text>
</g>
<!-- PayPerResource&#45;&gt;Static -->
<g id="edge37" class="edge"><title>PayPerResource&#45;&gt;Static</title>
<path fill="none" stroke="black" d="M1411.73,-315C1522.37,-315 1739.05,-315 1828.38,-315"/>
<polygon fill="black" stroke="black" points="1828.63,-318.5 1838.63,-315 1828.63,-311.5 1828.63,-318.5"/>
</g>
<!-- Subscription -->
<g id="node39" class="node"><title>Subscription</title>
<ellipse fill="none" stroke="black" cx="1343.29" cy="-261" rx="55.4913" ry="18"/>
<text text-anchor="middle" x="1343.29" y="-257.3" font-family="Times,serif" font-size="14.00">Subscription</text>
</g>
<!-- Subscription&#45;&gt;Static -->
<g id="edge38" class="edge"><title>Subscription&#45;&gt;Static</title>
<path fill="none" stroke="black" d="M1396.45,-266.375C1501.28,-277.177 1735.42,-301.303 1828.79,-310.925"/>
<polygon fill="black" stroke="black" points="1828.64,-314.427 1838.95,-311.971 1829.36,-307.464 1828.64,-314.427"/>
</g>
<!-- Price -->
<g id="node40" class="node"><title>Price</title>
<ellipse fill="none" stroke="black" cx="2217.97" cy="-423" rx="28.6953" ry="18"/>
<text text-anchor="middle" x="2217.97" y="-419.3" font-family="Times,serif" font-size="14.00">Price</text>
</g>
<!-- Price&#45;&gt;Attribute -->
<g id="edge39" class="edge"><title>Price&#45;&gt;Attribute</title>
<path fill="none" stroke="black" d="M2244.12,-430.623C2258.37,-435.37 2276.32,-442.077 2291.41,-450 2308.57,-459.007 2326.38,-471.236 2340.57,-481.779"/>
<polygon fill="black" stroke="black" points="2338.81,-484.839 2348.9,-488.082 2343.04,-479.257 2338.81,-484.839"/>
</g>
<!-- DatabaseAsAService -->
<g id="node41" class="node"><title>DatabaseAsAService</title>
<ellipse fill="none" stroke="black" cx="1343.29" cy="-153" rx="85.2851" ry="18"/>
<text text-anchor="middle" x="1343.29" y="-149.3" font-family="Times,serif" font-size="14.00">DatabaseAsAService</text>
</g>
<!-- DatabaseAsAService&#45;&gt;SaaS -->
<g id="edge40" class="edge"><title>DatabaseAsAService&#45;&gt;SaaS</title>
<path fill="none" stroke="black" d="M1428.49,-153C1544.05,-153 1746.99,-153 1830.66,-153"/>
<polygon fill="black" stroke="black" points="1830.72,-156.5 1840.72,-153 1830.72,-149.5 1830.72,-156.5"/>
</g>
<!-- SQLDatabaseAsAService -->
<g id="node42" class="node"><title>SQLDatabaseAsAService</title>
<ellipse fill="none" stroke="black" cx="791.883" cy="-207" rx="102.082" ry="18"/>
<text text-anchor="middle" x="791.883" y="-203.3" font-family="Times,serif" font-size="14.00">SQLDatabaseAsAService</text>
</g>
<!-- SQLDatabaseAsAService&#45;&gt;DatabaseAsAService -->
<g id="edge41" class="edge"><title>SQLDatabaseAsAService&#45;&gt;DatabaseAsAService</title>
<path fill="none" stroke="black" d="M881.459,-198.294C984.559,-188.16 1153.7,-171.536 1255.87,-161.494"/>
<polygon fill="black" stroke="black" points="1256.24,-164.975 1265.85,-160.513 1255.55,-158.008 1256.24,-164.975"/>
</g>
<!-- NoSQLDatabaseAsAService -->
<g id="node43" class="node"><title>NoSQLDatabaseAsAService</title>
<ellipse fill="none" stroke="black" cx="791.883" cy="-153" rx="112.38" ry="18"/>
<text text-anchor="middle" x="791.883" y="-149.3" font-family="Times,serif" font-size="14.00">NoSQLDatabaseAsAService</text>
</g>
<!-- NoSQLDatabaseAsAService&#45;&gt;DatabaseAsAService -->
<g id="edge42" class="edge"><title>NoSQLDatabaseAsAService&#45;&gt;DatabaseAsAService</title>
<path fill="none" stroke="black" d="M904.394,-153C1005.32,-153 1152.34,-153 1247.66,-153"/>
<polygon fill="black" stroke="black" points="1247.87,-156.5 1257.87,-153 1247.87,-149.5 1247.87,-156.5"/>
</g>
<!-- github.com/supermuesli/csdl@examples/Requirement1.py@latest -->
<g id="node44" class="node"><title>github.com/supermuesli/csdl@examples/Requirement1.py@latest</title>
<ellipse fill="none" stroke="black" cx="245.678" cy="-72" rx="245.857" ry="18"/>
<text text-anchor="middle" x="245.678" y="-68.3" font-family="Times,serif" font-size="14.00">github.com/supermuesli/csdl@examples/Requirement1.py@latest</text>
</g>
<!-- github.com/supermuesli/csdl@examples/Requirement1.py@latest&#45;&gt;VMAsAService -->
<g id="edge43" class="edge"><title>github.com/supermuesli/csdl@examples/Requirement1.py@latest&#45;&gt;VMAsAService</title>
<path fill="none" stroke="black" d="M449.707,-61.927C542.361,-57.3301 646.459,-52.1654 715.028,-48.7634"/>
<polygon fill="black" stroke="black" points="715.487,-52.2451 725.301,-48.2537 715.14,-45.2537 715.487,-52.2451"/>
</g>
<!-- github.com/supermuesli/csdl@misc/StaticIp.py@latest -->
<g id="node45" class="node"><title>github.com/supermuesli/csdl@misc/StaticIp.py@latest</title>
<ellipse fill="none" stroke="black" cx="1869.34" cy="-963" rx="206.063" ry="18"/>
<text text-anchor="middle" x="1869.34" y="-959.3" font-family="Times,serif" font-size="14.00">github.com/supermuesli/csdl@misc/StaticIp.py@latest</text>
</g>
<!-- github.com/supermuesli/csdl@misc/StaticIp.py@latest&#45;&gt;NumericAttribute -->
<g id="edge44" class="edge"><title>github.com/supermuesli/csdl@misc/StaticIp.py@latest&#45;&gt;NumericAttribute</title>
<path fill="none" stroke="black" d="M2067.85,-967.878C2082.4,-973.377 2096.19,-980.608 2108.52,-990 2187.05,-1049.81 2208.88,-1175.62 2214.81,-1231.83"/>
<polygon fill="black" stroke="black" points="2211.33,-1232.18 2215.77,-1241.8 2218.3,-1231.51 2211.33,-1232.18"/>
</g>
<!-- github.com/supermuesli/csdl@misc/countries/USA.py@latest -->
<g id="node46" class="node"><title>github.com/supermuesli/csdl@misc/countries/USA.py@latest</title>
<ellipse fill="none" stroke="black" cx="1343.29" cy="-693" rx="231.259" ry="18"/>
<text text-anchor="middle" x="1343.29" y="-689.3" font-family="Times,serif" font-size="14.00">github.com/supermuesli/csdl@misc/countries/USA.py@latest</text>
</g>
<!-- github.com/supermuesli/csdl@misc/countries/USA.py@latest&#45;&gt;NorthAmerica -->
<g id="edge45" class="edge"><title>github.com/supermuesli/csdl@misc/countries/USA.py@latest&#45;&gt;NorthAmerica</title>
<path fill="none" stroke="black" d="M1574.91,-693C1655.34,-693 1739.79,-693 1797.32,-693"/>
<polygon fill="black" stroke="black" points="1797.39,-696.5 1807.39,-693 1797.39,-689.5 1797.39,-696.5"/>
</g>
<!-- github.com/supermuesli/csdl@aws/ec2/EC2.py@latest -->
<g id="node47" class="node"><title>github.com/supermuesli/csdl@aws/ec2/EC2.py@latest</title>
<ellipse fill="none" stroke="black" cx="245.678" cy="-18" rx="206.063" ry="18"/>
<text text-anchor="middle" x="245.678" y="-14.3" font-family="Times,serif" font-size="14.00">github.com/supermuesli/csdl@aws/ec2/EC2.py@latest</text>
</g>
<!-- github.com/supermuesli/csdl@aws/ec2/EC2.py@latest&#45;&gt;VMAsAService -->
<g id="edge46" class="edge"><title>github.com/supermuesli/csdl@aws/ec2/EC2.py@latest&#45;&gt;VMAsAService</title>
<path fill="none" stroke="black" d="M425.248,-26.8595C523.51,-31.7346 640.3,-37.529 714.981,-41.2342"/>
<polygon fill="black" stroke="black" points="715.072,-44.7429 725.233,-41.7429 715.419,-37.7515 715.072,-44.7429"/>
</g>
<!-- github.com/supermuesli/csdl@aws/regions/Region.py@latest -->
<g id="node48" class="node"><title>github.com/supermuesli/csdl@aws/regions/Region.py@latest</title>
<ellipse fill="none" stroke="black" cx="1343.29" cy="-909" rx="229.359" ry="18"/>
<text text-anchor="middle" x="1343.29" y="-905.3" font-family="Times,serif" font-size="14.00">github.com/supermuesli/csdl@aws/regions/Region.py@latest</text>
</g>
<!-- github.com/supermuesli/csdl@aws/regions/Region.py@latest&#45;&gt;Region -->
<g id="edge47" class="edge"><title>github.com/supermuesli/csdl@aws/regions/Region.py@latest&#45;&gt;Region</title>
<path fill="none" stroke="black" d="M1573,-909C1666.74,-909 1766.25,-909 1822.51,-909"/>
<polygon fill="black" stroke="black" points="1822.84,-912.5 1832.84,-909 1822.84,-905.5 1822.84,-912.5"/>
</g>
<!-- github.com/supermuesli/csdl@aws/regions/California.py@latest -->
<g id="node49" class="node"><title>github.com/supermuesli/csdl@aws/regions/California.py@latest</title>
<ellipse fill="none" stroke="black" cx="791.883" cy="-747" rx="239.358" ry="18"/>
<text text-anchor="middle" x="791.883" y="-743.3" font-family="Times,serif" font-size="14.00">github.com/supermuesli/csdl@aws/regions/California.py@latest</text>
</g>
<!-- github.com/supermuesli/csdl@aws/regions/California.py@latest&#45;&gt;github.com/supermuesli/csdl@misc/countries/USA.py@latest -->
<g id="edge48" class="edge"><title>github.com/supermuesli/csdl@aws/regions/California.py@latest&#45;&gt;github.com/supermuesli/csdl@misc/countries/USA.py@latest</title>
<path fill="none" stroke="black" d="M937.951,-732.742C1015.24,-725.145 1110.29,-715.803 1188.81,-708.085"/>
<polygon fill="black" stroke="black" points="1189.18,-711.566 1198.79,-707.104 1188.49,-704.599 1189.18,-711.566"/>
</g>
<!-- github.com/supermuesli/csdl@aws/regions/NorthernVirginia.py@latest -->
<g id="node50" class="node"><title>github.com/supermuesli/csdl@aws/regions/NorthernVirginia.py@latest</title>
<ellipse fill="none" stroke="black" cx="791.883" cy="-693" rx="264.553" ry="18"/>
<text text-anchor="middle" x="791.883" y="-689.3" font-family="Times,serif" font-size="14.00">github.com/supermuesli/csdl@aws/regions/NorthernVirginia.py@latest</text>
</g>
<!-- github.com/supermuesli/csdl@aws/regions/NorthernVirginia.py@latest&#45;&gt;github.com/supermuesli/csdl@misc/countries/USA.py@latest -->
<g id="edge49" class="edge"><title>github.com/supermuesli/csdl@aws/regions/NorthernVirginia.py@latest&#45;&gt;github.com/supermuesli/csdl@misc/countries/USA.py@latest</title>
<path fill="none" stroke="black" d="M1056.72,-693C1071.7,-693 1086.72,-693 1101.61,-693"/>
<polygon fill="black" stroke="black" points="1101.89,-696.5 1111.89,-693 1101.89,-689.5 1101.89,-696.5"/>
</g>
<!-- github.com/supermuesli/csdl@aws/regions/NewYork.py@latest -->
<g id="node51" class="node"><title>github.com/supermuesli/csdl@aws/regions/NewYork.py@latest</title>
<ellipse fill="none" stroke="black" cx="791.883" cy="-639" rx="238.558" ry="18"/>
<text text-anchor="middle" x="791.883" y="-635.3" font-family="Times,serif" font-size="14.00">github.com/supermuesli/csdl@aws/regions/NewYork.py@latest</text>
</g>
<!-- github.com/supermuesli/csdl@aws/regions/NewYork.py@latest&#45;&gt;github.com/supermuesli/csdl@misc/countries/USA.py@latest -->
<g id="edge50" class="edge"><title>github.com/supermuesli/csdl@aws/regions/NewYork.py@latest&#45;&gt;github.com/supermuesli/csdl@misc/countries/USA.py@latest</title>
<path fill="none" stroke="black" d="M937.951,-653.258C1015.24,-660.855 1110.29,-670.197 1188.81,-677.915"/>
<polygon fill="black" stroke="black" points="1188.49,-681.401 1198.79,-678.896 1189.18,-674.434 1188.49,-681.401"/>
</g>
<!-- github.com/supermuesli/csdl@aws/ec2/MachineType.py@latest -->
<g id="node52" class="node"><title>github.com/supermuesli/csdl@aws/ec2/MachineType.py@latest</title>
<ellipse fill="none" stroke="black" cx="1869.34" cy="-747" rx="239.358" ry="18"/>
<text text-anchor="middle" x="1869.34" y="-743.3" font-family="Times,serif" font-size="14.00">github.com/supermuesli/csdl@aws/ec2/MachineType.py@latest</text>
</g>
<!-- github.com/supermuesli/csdl@aws/ec2/MachineType.py@latest&#45;&gt;ChoiceAttribute -->
<g id="edge51" class="edge"><title>github.com/supermuesli/csdl@aws/ec2/MachineType.py@latest&#45;&gt;ChoiceAttribute</title>
<path fill="none" stroke="black" d="M2020.39,-760.975C2049.72,-764.561 2080.16,-768.885 2108.52,-774 2125.6,-777.08 2143.98,-781.304 2160.67,-785.496"/>
<polygon fill="black" stroke="black" points="2160.26,-789.003 2170.82,-788.091 2162,-782.222 2160.26,-789.003"/>
</g>
<!-- github.com/supermuesli/csdl@aws/ec2/A1Large.py@latest -->
<g id="node53" class="node"><title>github.com/supermuesli/csdl@aws/ec2/A1Large.py@latest</title>
<ellipse fill="none" stroke="black" cx="1869.34" cy="-207" rx="221.761" ry="18"/>
<text text-anchor="middle" x="1869.34" y="-203.3" font-family="Times,serif" font-size="14.00">github.com/supermuesli/csdl@aws/ec2/A1Large.py@latest</text>
</g>
<!-- github.com/supermuesli/csdl@aws/ec2/A1Large.py@latest&#45;&gt;OptionAttribute -->
<g id="edge52" class="edge"><title>github.com/supermuesli/csdl@aws/ec2/A1Large.py@latest&#45;&gt;OptionAttribute</title>
<path fill="none" stroke="black" d="M2078.58,-213.02C2089.43,-218.571 2099.54,-225.477 2108.52,-234 2179.12,-300.997 2082.6,-374.914 2144.52,-450 2147.9,-454.102 2151.97,-457.58 2156.44,-460.531"/>
<polygon fill="black" stroke="black" points="2155,-463.736 2165.43,-465.578 2158.42,-457.632 2155,-463.736"/>
</g>
<!-- github.com/supermuesli/csdl@aws/EBS.py@latest -->
<g id="node54" class="node"><title>github.com/supermuesli/csdl@aws/EBS.py@latest</title>
<ellipse fill="none" stroke="black" cx="791.883" cy="-99" rx="191.966" ry="18"/>
<text text-anchor="middle" x="791.883" y="-95.3" font-family="Times,serif" font-size="14.00">github.com/supermuesli/csdl@aws/EBS.py@latest</text>
</g>
<!-- github.com/supermuesli/csdl@aws/EBS.py@latest&#45;&gt;StorageAsAService -->
<g id="edge53" class="edge"><title>github.com/supermuesli/csdl@aws/EBS.py@latest&#45;&gt;StorageAsAService</title>
<path fill="none" stroke="black" d="M983.881,-99C1075.31,-99 1180.42,-99 1253.06,-99"/>
<polygon fill="black" stroke="black" points="1253.09,-102.5 1263.09,-99 1253.09,-95.5001 1253.09,-102.5"/>
</g>
<!-- github.com/supermuesli/csdl@aws/ec2/ElasticIpAmount.py@latest -->
<g id="node55" class="node"><title>github.com/supermuesli/csdl@aws/ec2/ElasticIpAmount.py@latest</title>
<ellipse fill="none" stroke="black" cx="1343.29" cy="-963" rx="250.756" ry="18"/>
<text text-anchor="middle" x="1343.29" y="-959.3" font-family="Times,serif" font-size="14.00">github.com/supermuesli/csdl@aws/ec2/ElasticIpAmount.py@latest</text>
</g>
<!-- github.com/supermuesli/csdl@aws/ec2/ElasticIpAmount.py@latest&#45;&gt;github.com/supermuesli/csdl@misc/StaticIp.py@latest -->
<g id="edge54" class="edge"><title>github.com/supermuesli/csdl@aws/ec2/ElasticIpAmount.py@latest&#45;&gt;github.com/supermuesli/csdl@misc/StaticIp.py@latest</title>
<path fill="none" stroke="black" d="M1594.42,-963C1614.05,-963 1633.76,-963 1653.12,-963"/>
<polygon fill="black" stroke="black" points="1653.21,-966.5 1663.21,-963 1653.21,-959.5 1653.21,-966.5"/>
</g>
</g>
</svg>
