<?xml version="1.0" encoding="UTF-8" standalone="no"?>
<!DOCTYPE svg PUBLIC "-//W3C//DTD SVG 1.1//EN"
 "http://www.w3.org/Graphics/SVG/1.1/DTD/svg11.dtd">
<!-- Generated by graphviz version 2.38.0 (20140413.2041)
 -->
<!-- Title: %3 Pages: 1 -->
<svg width="2669pt" height="2212pt"
 viewBox="0.00 0.00 2669.08 2212.19" xmlns="http://www.w3.org/2000/svg" xmlns:xlink="http://www.w3.org/1999/xlink">
<g id="graph0" class="graph" transform="scale(1 1) rotate(0) translate(4 2208.19)">
<title>%3</title>
<polygon fill="white" stroke="none" points="-4,4 -4,-2208.19 2665.08,-2208.19 2665.08,4 -4,4"/>
<!-- VMAsAService -->
<g id="node1" class="node"><title>VMAsAService</title>
<ellipse fill="none" stroke="black" cx="819.181" cy="-18" rx="67.6881" ry="18"/>
<text text-anchor="middle" x="819.181" y="-14.3" font-family="Times,serif" font-size="14.00">VMAsAService</text>
</g>
<!-- ServerAsAService -->
<g id="node2" class="node"><title>ServerAsAService</title>
<ellipse fill="none" stroke="black" cx="1379.68" cy="-31" rx="76.0865" ry="18"/>
<text text-anchor="middle" x="1379.68" y="-27.3" font-family="Times,serif" font-size="14.00">ServerAsAService</text>
</g>
<!-- VMAsAService&#45;&gt;ServerAsAService -->
<g id="edge1" class="edge"><title>VMAsAService&#45;&gt;ServerAsAService</title>
<path fill="none" stroke="black" d="M886.718,-19.5488C988.255,-21.9122 1181.82,-26.4178 1293.5,-29.0171"/>
<polygon fill="black" stroke="black" points="1293.63,-32.5211 1303.71,-29.2549 1293.79,-25.523 1293.63,-32.5211"/>
</g>
<!-- IaaS -->
<g id="node3" class="node"><title>IaaS</title>
<ellipse fill="none" stroke="black" cx="1961.64" cy="-112" rx="27" ry="18"/>
<text text-anchor="middle" x="1961.64" y="-108.3" font-family="Times,serif" font-size="14.00">IaaS</text>
</g>
<!-- ServerAsAService&#45;&gt;IaaS -->
<g id="edge2" class="edge"><title>ServerAsAService&#45;&gt;IaaS</title>
<path fill="none" stroke="black" d="M1445.52,-40.056C1568.03,-57.166 1829.75,-93.7189 1925.01,-107.025"/>
<polygon fill="black" stroke="black" points="1924.62,-110.504 1935.01,-108.421 1925.59,-103.571 1924.62,-110.504"/>
</g>
<!-- CCS -->
<g id="node5" class="node"><title>CCS</title>
<ellipse fill="none" stroke="black" cx="2366.15" cy="-186" rx="27.0966" ry="18"/>
<text text-anchor="middle" x="2366.15" y="-182.3" font-family="Times,serif" font-size="14.00">CCS</text>
</g>
<!-- IaaS&#45;&gt;CCS -->
<g id="edge4" class="edge"><title>IaaS&#45;&gt;CCS</title>
<path fill="none" stroke="black" d="M1988.34,-115.354C2039.62,-122.211 2158.18,-138.898 2256.71,-159 2281.7,-164.099 2309.63,-171.083 2330.88,-176.67"/>
<polygon fill="black" stroke="black" points="2330.18,-180.103 2340.74,-179.286 2331.97,-173.338 2330.18,-180.103"/>
</g>
<!-- SaaS -->
<g id="node4" class="node"><title>SaaS</title>
<ellipse fill="none" stroke="black" cx="1961.64" cy="-186" rx="28.6953" ry="18"/>
<text text-anchor="middle" x="1961.64" y="-182.3" font-family="Times,serif" font-size="14.00">SaaS</text>
</g>
<!-- SaaS&#45;&gt;CCS -->
<g id="edge3" class="edge"><title>SaaS&#45;&gt;CCS</title>
<path fill="none" stroke="black" d="M1990.3,-186C2061.1,-186 2248.86,-186 2328.55,-186"/>
<polygon fill="black" stroke="black" points="2328.61,-189.5 2338.61,-186 2328.61,-182.5 2328.61,-189.5"/>
</g>
<!-- Attribute -->
<g id="node8" class="node"><title>Attribute</title>
<ellipse fill="none" stroke="black" cx="2517.84" cy="-645" rx="42.4939" ry="18"/>
<text text-anchor="middle" x="2517.84" y="-641.3" font-family="Times,serif" font-size="14.00">Attribute</text>
</g>
<!-- CCS&#45;&gt;Attribute -->
<g id="edge10" class="edge"><title>CCS&#45;&gt;Attribute</title>
<path fill="none" stroke="black" d="M2372.93,-203.712C2395.78,-273.775 2479.95,-531.887 2507.82,-617.329"/>
<polygon fill="black" stroke="black" points="2504.57,-618.671 2511,-627.093 2511.23,-616.501 2504.57,-618.671"/>
</g>
<!-- StorageAsAService -->
<g id="node6" class="node"><title>StorageAsAService</title>
<ellipse fill="none" stroke="black" cx="1379.68" cy="-112" rx="79.8859" ry="18"/>
<text text-anchor="middle" x="1379.68" y="-108.3" font-family="Times,serif" font-size="14.00">StorageAsAService</text>
</g>
<!-- StorageAsAService&#45;&gt;IaaS -->
<g id="edge5" class="edge"><title>StorageAsAService&#45;&gt;IaaS</title>
<path fill="none" stroke="black" d="M1459.8,-112C1586.97,-112 1831.9,-112 1924.23,-112"/>
<polygon fill="black" stroke="black" points="1924.46,-115.5 1934.46,-112 1924.46,-108.5 1924.46,-115.5"/>
</g>
<!-- NumericAttribute -->
<g id="node7" class="node"><title>NumericAttribute</title>
<ellipse fill="none" stroke="black" cx="2366.15" cy="-1725" rx="73.387" ry="18"/>
<text text-anchor="middle" x="2366.15" y="-1721.3" font-family="Times,serif" font-size="14.00">NumericAttribute</text>
</g>
<!-- NumericAttribute&#45;&gt;Attribute -->
<g id="edge6" class="edge"><title>NumericAttribute&#45;&gt;Attribute</title>
<path fill="none" stroke="black" d="M2369.69,-1706.71C2387.3,-1579.62 2491.38,-828.741 2512.93,-673.196"/>
<polygon fill="black" stroke="black" points="2516.44,-673.428 2514.34,-663.042 2509.5,-672.467 2516.44,-673.428"/>
</g>
<!-- object -->
<g id="node12" class="node"><title>object</title>
<ellipse fill="none" stroke="black" cx="2628.59" cy="-645" rx="32.4942" ry="18"/>
<text text-anchor="middle" x="2628.59" y="-641.3" font-family="Times,serif" font-size="14.00">object</text>
</g>
<!-- Attribute&#45;&gt;object -->
<g id="edge11" class="edge"><title>Attribute&#45;&gt;object</title>
<path fill="none" stroke="black" d="M2560.26,-645C2568.54,-645 2577.23,-645 2585.52,-645"/>
<polygon fill="black" stroke="black" points="2585.75,-648.5 2595.75,-645 2585.75,-641.5 2585.75,-648.5"/>
</g>
<!-- ChoiceAttribute -->
<g id="node9" class="node"><title>ChoiceAttribute</title>
<ellipse fill="none" stroke="black" cx="2366.15" cy="-1104" rx="67.6881" ry="18"/>
<text text-anchor="middle" x="2366.15" y="-1100.3" font-family="Times,serif" font-size="14.00">ChoiceAttribute</text>
</g>
<!-- ChoiceAttribute&#45;&gt;Attribute -->
<g id="edge7" class="edge"><title>ChoiceAttribute&#45;&gt;Attribute</title>
<path fill="none" stroke="black" d="M2373.02,-1086.01C2396.01,-1015.52 2480.03,-757.882 2507.84,-672.613"/>
<polygon fill="black" stroke="black" points="2511.24,-673.461 2511.02,-662.869 2504.59,-671.291 2511.24,-673.461"/>
</g>
<!-- BoolAttribute -->
<g id="node10" class="node"><title>BoolAttribute</title>
<ellipse fill="none" stroke="black" cx="2366.15" cy="-672" rx="59.5901" ry="18"/>
<text text-anchor="middle" x="2366.15" y="-668.3" font-family="Times,serif" font-size="14.00">BoolAttribute</text>
</g>
<!-- BoolAttribute&#45;&gt;Attribute -->
<g id="edge8" class="edge"><title>BoolAttribute&#45;&gt;Attribute</title>
<path fill="none" stroke="black" d="M2417.83,-662.859C2434.11,-659.922 2452.1,-656.678 2468.23,-653.768"/>
<polygon fill="black" stroke="black" points="2469.3,-657.131 2478.52,-651.912 2468.06,-650.242 2469.3,-657.131"/>
</g>
<!-- OptionAttribute -->
<g id="node11" class="node"><title>OptionAttribute</title>
<ellipse fill="none" stroke="black" cx="2366.15" cy="-618" rx="66.8882" ry="18"/>
<text text-anchor="middle" x="2366.15" y="-614.3" font-family="Times,serif" font-size="14.00">OptionAttribute</text>
</g>
<!-- OptionAttribute&#45;&gt;Attribute -->
<g id="edge9" class="edge"><title>OptionAttribute&#45;&gt;Attribute</title>
<path fill="none" stroke="black" d="M2422.47,-627.977C2437.62,-630.711 2453.93,-633.652 2468.65,-636.308"/>
<polygon fill="black" stroke="black" points="2468.1,-639.764 2478.56,-638.095 2469.34,-632.875 2468.1,-639.764"/>
</g>
<!-- Region -->
<g id="node13" class="node"><title>Region</title>
<ellipse fill="none" stroke="black" cx="1961.64" cy="-1266" rx="36.2938" ry="18"/>
<text text-anchor="middle" x="1961.64" y="-1262.3" font-family="Times,serif" font-size="14.00">Region</text>
</g>
<!-- Region&#45;&gt;ChoiceAttribute -->
<g id="edge12" class="edge"><title>Region&#45;&gt;ChoiceAttribute</title>
<path fill="none" stroke="black" d="M1996.8,-1271.06C2054.26,-1277.86 2172.24,-1284.36 2256.71,-1239 2301.83,-1214.77 2334.93,-1163 2352.02,-1131.07"/>
<polygon fill="black" stroke="black" points="2355.3,-1132.34 2356.8,-1121.86 2349.09,-1129.12 2355.3,-1132.34"/>
</g>
<!-- NorthAmerica -->
<g id="node14" class="node"><title>NorthAmerica</title>
<ellipse fill="none" stroke="black" cx="1961.64" cy="-942" rx="61.99" ry="18"/>
<text text-anchor="middle" x="1961.64" y="-938.3" font-family="Times,serif" font-size="14.00">NorthAmerica</text>
</g>
<!-- NorthAmerica&#45;&gt;OptionAttribute -->
<g id="edge13" class="edge"><title>NorthAmerica&#45;&gt;OptionAttribute</title>
<path fill="none" stroke="black" d="M2009.29,-953.553C2074.09,-966.529 2190.78,-978.283 2256.71,-915 2344.05,-831.169 2217.22,-739.643 2292.71,-645 2296.02,-640.844 2300.05,-637.327 2304.48,-634.352"/>
<polygon fill="black" stroke="black" points="2306.46,-637.252 2313.43,-629.272 2303.01,-631.163 2306.46,-637.252"/>
</g>
<!-- Australia -->
<g id="node15" class="node"><title>Australia</title>
<ellipse fill="none" stroke="black" cx="1961.64" cy="-888" rx="42.7926" ry="18"/>
<text text-anchor="middle" x="1961.64" y="-884.3" font-family="Times,serif" font-size="14.00">Australia</text>
</g>
<!-- Australia&#45;&gt;OptionAttribute -->
<g id="edge14" class="edge"><title>Australia&#45;&gt;OptionAttribute</title>
<path fill="none" stroke="black" d="M1998.91,-897.183C2060.6,-910.412 2186.09,-926.602 2256.71,-861 2328.01,-794.76 2230.79,-720.086 2292.71,-645 2296.09,-640.898 2300.16,-637.42 2304.63,-634.469"/>
<polygon fill="black" stroke="black" points="2306.61,-637.368 2313.62,-629.422 2303.18,-631.264 2306.61,-637.368"/>
</g>
<!-- Africa -->
<g id="node16" class="node"><title>Africa</title>
<ellipse fill="none" stroke="black" cx="1961.64" cy="-834" rx="33.2948" ry="18"/>
<text text-anchor="middle" x="1961.64" y="-830.3" font-family="Times,serif" font-size="14.00">Africa</text>
</g>
<!-- Africa&#45;&gt;OptionAttribute -->
<g id="edge15" class="edge"><title>Africa&#45;&gt;OptionAttribute</title>
<path fill="none" stroke="black" d="M1991.99,-841.384C2050.32,-854.148 2181.67,-873.06 2256.71,-807 2312.07,-758.264 2244.28,-700.627 2292.71,-645 2296.34,-640.824 2300.69,-637.293 2305.42,-634.307"/>
<polygon fill="black" stroke="black" points="2307.16,-637.345 2314.28,-629.501 2303.83,-631.191 2307.16,-637.345"/>
</g>
<!-- EastAsia -->
<g id="node17" class="node"><title>EastAsia</title>
<ellipse fill="none" stroke="black" cx="1961.64" cy="-780" rx="42.4939" ry="18"/>
<text text-anchor="middle" x="1961.64" y="-776.3" font-family="Times,serif" font-size="14.00">EastAsia</text>
</g>
<!-- EastAsia&#45;&gt;OptionAttribute -->
<g id="edge16" class="edge"><title>EastAsia&#45;&gt;OptionAttribute</title>
<path fill="none" stroke="black" d="M1999.32,-788.244C2059.95,-799.582 2181.78,-812.399 2256.71,-753 2296.36,-721.568 2257.56,-681.398 2292.71,-645 2296.61,-640.957 2301.18,-637.514 2306.08,-634.583"/>
<polygon fill="black" stroke="black" points="2307.95,-637.557 2315.21,-629.842 2304.73,-631.345 2307.95,-637.557"/>
</g>
<!-- SouthAmerica -->
<g id="node18" class="node"><title>SouthAmerica</title>
<ellipse fill="none" stroke="black" cx="1961.64" cy="-726" rx="61.99" ry="18"/>
<text text-anchor="middle" x="1961.64" y="-722.3" font-family="Times,serif" font-size="14.00">SouthAmerica</text>
</g>
<!-- SouthAmerica&#45;&gt;OptionAttribute -->
<g id="edge17" class="edge"><title>SouthAmerica&#45;&gt;OptionAttribute</title>
<path fill="none" stroke="black" d="M2016.76,-734.246C2079.19,-740.929 2182.71,-743.075 2256.71,-699 2281.49,-684.24 2270.1,-662.907 2292.71,-645 2297.61,-641.118 2303.13,-637.754 2308.88,-634.849"/>
<polygon fill="black" stroke="black" points="2310.41,-637.999 2318.04,-630.653 2307.49,-631.634 2310.41,-637.999"/>
</g>
<!-- Europe -->
<g id="node19" class="node"><title>Europe</title>
<ellipse fill="none" stroke="black" cx="1961.64" cy="-672" rx="36.2938" ry="18"/>
<text text-anchor="middle" x="1961.64" y="-668.3" font-family="Times,serif" font-size="14.00">Europe</text>
</g>
<!-- Europe&#45;&gt;OptionAttribute -->
<g id="edge18" class="edge"><title>Europe&#45;&gt;OptionAttribute</title>
<path fill="none" stroke="black" d="M1998.17,-670.488C2053.68,-667.733 2164.2,-660.668 2256.71,-645 2274.14,-642.048 2292.9,-637.777 2309.84,-633.499"/>
<polygon fill="black" stroke="black" points="2310.76,-636.875 2319.57,-630.99 2309.02,-630.096 2310.76,-636.875"/>
</g>
<!-- Antarctica -->
<g id="node20" class="node"><title>Antarctica</title>
<ellipse fill="none" stroke="black" cx="1961.64" cy="-618" rx="47.3916" ry="18"/>
<text text-anchor="middle" x="1961.64" y="-614.3" font-family="Times,serif" font-size="14.00">Antarctica</text>
</g>
<!-- Antarctica&#45;&gt;OptionAttribute -->
<g id="edge19" class="edge"><title>Antarctica&#45;&gt;OptionAttribute</title>
<path fill="none" stroke="black" d="M2009.2,-618C2077.74,-618 2206.54,-618 2288.97,-618"/>
<polygon fill="black" stroke="black" points="2289.04,-621.5 2299.04,-618 2289.04,-614.5 2289.04,-621.5"/>
</g>
<!-- Storage -->
<g id="node21" class="node"><title>Storage</title>
<ellipse fill="none" stroke="black" cx="1961.64" cy="-2184" rx="37.8943" ry="18"/>
<text text-anchor="middle" x="1961.64" y="-2180.3" font-family="Times,serif" font-size="14.00">Storage</text>
</g>
<!-- Storage&#45;&gt;NumericAttribute -->
<g id="edge20" class="edge"><title>Storage&#45;&gt;NumericAttribute</title>
<path fill="none" stroke="black" d="M1995.5,-2191.98C2055.24,-2204.38 2182.33,-2220.7 2256.71,-2157 2319.22,-2103.46 2352.75,-1840.26 2362.28,-1753.09"/>
<polygon fill="black" stroke="black" points="2365.76,-1753.45 2363.35,-1743.13 2358.8,-1752.7 2365.76,-1753.45"/>
</g>
<!-- StorageWriteSpeed -->
<g id="node22" class="node"><title>StorageWriteSpeed</title>
<ellipse fill="none" stroke="black" cx="1961.64" cy="-2130" rx="79.0865" ry="18"/>
<text text-anchor="middle" x="1961.64" y="-2126.3" font-family="Times,serif" font-size="14.00">StorageWriteSpeed</text>
</g>
<!-- StorageWriteSpeed&#45;&gt;NumericAttribute -->
<g id="edge21" class="edge"><title>StorageWriteSpeed&#45;&gt;NumericAttribute</title>
<path fill="none" stroke="black" d="M2020.05,-2142.18C2085.08,-2152.42 2190.56,-2157.76 2256.71,-2103 2311.71,-2057.47 2349.23,-1834 2361.11,-1753.76"/>
<polygon fill="black" stroke="black" points="2364.64,-1753.82 2362.62,-1743.42 2357.72,-1752.81 2364.64,-1753.82"/>
</g>
<!-- StorageReadSpeed -->
<g id="node23" class="node"><title>StorageReadSpeed</title>
<ellipse fill="none" stroke="black" cx="1961.64" cy="-2076" rx="77.1866" ry="18"/>
<text text-anchor="middle" x="1961.64" y="-2072.3" font-family="Times,serif" font-size="14.00">StorageReadSpeed</text>
</g>
<!-- StorageReadSpeed&#45;&gt;NumericAttribute -->
<g id="edge22" class="edge"><title>StorageReadSpeed&#45;&gt;NumericAttribute</title>
<path fill="none" stroke="black" d="M2020.5,-2087.79C2085.2,-2097.46 2189.68,-2102.07 2256.71,-2049 2350.13,-1975.04 2363.71,-1817.65 2365.23,-1753.31"/>
<polygon fill="black" stroke="black" points="2368.73,-1753.16 2365.38,-1743.11 2361.73,-1753.05 2368.73,-1753.16"/>
</g>
<!-- OperatingSystem -->
<g id="node24" class="node"><title>OperatingSystem</title>
<ellipse fill="none" stroke="black" cx="1961.64" cy="-1212" rx="72.2875" ry="18"/>
<text text-anchor="middle" x="1961.64" y="-1208.3" font-family="Times,serif" font-size="14.00">OperatingSystem</text>
</g>
<!-- OperatingSystem&#45;&gt;ChoiceAttribute -->
<g id="edge23" class="edge"><title>OperatingSystem&#45;&gt;ChoiceAttribute</title>
<path fill="none" stroke="black" d="M2032.18,-1216.07C2093.33,-1217.24 2183.72,-1213.02 2256.71,-1185 2289.2,-1172.53 2320.38,-1147.38 2340.91,-1128.4"/>
<polygon fill="black" stroke="black" points="2343.38,-1130.88 2348.23,-1121.46 2338.56,-1125.8 2343.38,-1130.88"/>
</g>
<!-- CpuCores -->
<g id="node25" class="node"><title>CpuCores</title>
<ellipse fill="none" stroke="black" cx="1961.64" cy="-2022" rx="46.2923" ry="18"/>
<text text-anchor="middle" x="1961.64" y="-2018.3" font-family="Times,serif" font-size="14.00">CpuCores</text>
</g>
<!-- CpuCores&#45;&gt;NumericAttribute -->
<g id="edge24" class="edge"><title>CpuCores&#45;&gt;NumericAttribute</title>
<path fill="none" stroke="black" d="M2002.63,-2030.38C2063.85,-2040.79 2181.57,-2050.97 2256.71,-1995 2335.87,-1936.03 2357.37,-1809.77 2363.11,-1753.31"/>
<polygon fill="black" stroke="black" points="2366.6,-1753.58 2364.03,-1743.3 2359.63,-1752.93 2366.6,-1753.58"/>
</g>
<!-- CpuClockSpeed -->
<g id="node26" class="node"><title>CpuClockSpeed</title>
<ellipse fill="none" stroke="black" cx="1961.64" cy="-1968" rx="67.6881" ry="18"/>
<text text-anchor="middle" x="1961.64" y="-1964.3" font-family="Times,serif" font-size="14.00">CpuClockSpeed</text>
</g>
<!-- CpuClockSpeed&#45;&gt;NumericAttribute -->
<g id="edge25" class="edge"><title>CpuClockSpeed&#45;&gt;NumericAttribute</title>
<path fill="none" stroke="black" d="M2018.33,-1977.9C2081.76,-1986.01 2185.76,-1989.39 2256.71,-1941 2321.97,-1896.49 2349.89,-1800.63 2360.1,-1753.02"/>
<polygon fill="black" stroke="black" points="2363.56,-1753.58 2362.12,-1743.09 2356.7,-1752.19 2363.56,-1753.58"/>
</g>
<!-- Ram -->
<g id="node27" class="node"><title>Ram</title>
<ellipse fill="none" stroke="black" cx="1961.64" cy="-1914" rx="27.8951" ry="18"/>
<text text-anchor="middle" x="1961.64" y="-1910.3" font-family="Times,serif" font-size="14.00">Ram</text>
</g>
<!-- Ram&#45;&gt;NumericAttribute -->
<g id="edge26" class="edge"><title>Ram&#45;&gt;NumericAttribute</title>
<path fill="none" stroke="black" d="M1988.87,-1918.64C2043.19,-1926.83 2170.11,-1938.47 2256.71,-1887 2308.3,-1856.34 2340.45,-1790.42 2355.34,-1752.81"/>
<polygon fill="black" stroke="black" points="2358.79,-1753.59 2359.08,-1743 2352.25,-1751.1 2358.79,-1753.59"/>
</g>
<!-- RamClockSpeed -->
<g id="node28" class="node"><title>RamClockSpeed</title>
<ellipse fill="none" stroke="black" cx="1961.64" cy="-1860" rx="70.3881" ry="18"/>
<text text-anchor="middle" x="1961.64" y="-1856.3" font-family="Times,serif" font-size="14.00">RamClockSpeed</text>
</g>
<!-- RamClockSpeed&#45;&gt;NumericAttribute -->
<g id="edge27" class="edge"><title>RamClockSpeed&#45;&gt;NumericAttribute</title>
<path fill="none" stroke="black" d="M2027.55,-1866.29C2089.41,-1869.54 2183.68,-1867.15 2256.71,-1833 2295.42,-1814.9 2328.29,-1776.92 2347.38,-1751.18"/>
<polygon fill="black" stroke="black" points="2350.3,-1753.12 2353.32,-1742.97 2344.62,-1749.02 2350.3,-1753.12"/>
</g>
<!-- RamWriteSpeed -->
<g id="node29" class="node"><title>RamWriteSpeed</title>
<ellipse fill="none" stroke="black" cx="1961.64" cy="-1806" rx="69.5877" ry="18"/>
<text text-anchor="middle" x="1961.64" y="-1802.3" font-family="Times,serif" font-size="14.00">RamWriteSpeed</text>
</g>
<!-- RamWriteSpeed&#45;&gt;NumericAttribute -->
<g id="edge28" class="edge"><title>RamWriteSpeed&#45;&gt;NumericAttribute</title>
<path fill="none" stroke="black" d="M2031.39,-1806.8C2091.83,-1805.84 2181.62,-1800.33 2256.71,-1779 2282.44,-1771.69 2309.37,-1758.32 2329.96,-1746.71"/>
<polygon fill="black" stroke="black" points="2331.74,-1749.72 2338.65,-1741.69 2328.24,-1743.66 2331.74,-1749.72"/>
</g>
<!-- RamReadSpeed -->
<g id="node30" class="node"><title>RamReadSpeed</title>
<ellipse fill="none" stroke="black" cx="1961.64" cy="-1752" rx="67.6881" ry="18"/>
<text text-anchor="middle" x="1961.64" y="-1748.3" font-family="Times,serif" font-size="14.00">RamReadSpeed</text>
</g>
<!-- RamReadSpeed&#45;&gt;NumericAttribute -->
<g id="edge29" class="edge"><title>RamReadSpeed&#45;&gt;NumericAttribute</title>
<path fill="none" stroke="black" d="M2027.31,-1747.66C2097.35,-1742.96 2209.18,-1735.46 2284.81,-1730.39"/>
<polygon fill="black" stroke="black" points="2285.49,-1733.85 2295.23,-1729.69 2285.02,-1726.87 2285.49,-1733.85"/>
</g>
<!-- NetworkCapacity -->
<g id="node31" class="node"><title>NetworkCapacity</title>
<ellipse fill="none" stroke="black" cx="1961.64" cy="-1698" rx="72.5877" ry="18"/>
<text text-anchor="middle" x="1961.64" y="-1694.3" font-family="Times,serif" font-size="14.00">NetworkCapacity</text>
</g>
<!-- NetworkCapacity&#45;&gt;NumericAttribute -->
<g id="edge30" class="edge"><title>NetworkCapacity&#45;&gt;NumericAttribute</title>
<path fill="none" stroke="black" d="M2032.29,-1702.67C2102.56,-1707.39 2210.96,-1714.66 2284.82,-1719.61"/>
<polygon fill="black" stroke="black" points="2284.79,-1723.12 2295,-1720.29 2285.26,-1716.13 2284.79,-1723.12"/>
</g>
<!-- NetworkUploadSpeed -->
<g id="node32" class="node"><title>NetworkUploadSpeed</title>
<ellipse fill="none" stroke="black" cx="1961.64" cy="-1644" rx="89.0842" ry="18"/>
<text text-anchor="middle" x="1961.64" y="-1640.3" font-family="Times,serif" font-size="14.00">NetworkUploadSpeed</text>
</g>
<!-- NetworkUploadSpeed&#45;&gt;NumericAttribute -->
<g id="edge31" class="edge"><title>NetworkUploadSpeed&#45;&gt;NumericAttribute</title>
<path fill="none" stroke="black" d="M2050.72,-1643.65C2109.96,-1645.45 2189.27,-1651.84 2256.71,-1671 2282.44,-1678.31 2309.37,-1691.68 2329.96,-1703.29"/>
<polygon fill="black" stroke="black" points="2328.24,-1706.34 2338.65,-1708.31 2331.74,-1700.28 2328.24,-1706.34"/>
</g>
<!-- NetworkDownloadSpeed -->
<g id="node33" class="node"><title>NetworkDownloadSpeed</title>
<ellipse fill="none" stroke="black" cx="1961.64" cy="-1590" rx="99.3824" ry="18"/>
<text text-anchor="middle" x="1961.64" y="-1586.3" font-family="Times,serif" font-size="14.00">NetworkDownloadSpeed</text>
</g>
<!-- NetworkDownloadSpeed&#45;&gt;NumericAttribute -->
<g id="edge32" class="edge"><title>NetworkDownloadSpeed&#45;&gt;NumericAttribute</title>
<path fill="none" stroke="black" d="M2052.95,-1582.79C2113.34,-1581.6 2193.08,-1587.24 2256.71,-1617 2295.42,-1635.1 2328.29,-1673.08 2347.38,-1698.82"/>
<polygon fill="black" stroke="black" points="2344.62,-1700.98 2353.32,-1707.03 2350.3,-1696.88 2344.62,-1700.98"/>
</g>
<!-- PricingModel -->
<g id="node34" class="node"><title>PricingModel</title>
<ellipse fill="none" stroke="black" cx="1961.64" cy="-1158" rx="59.5901" ry="18"/>
<text text-anchor="middle" x="1961.64" y="-1154.3" font-family="Times,serif" font-size="14.00">PricingModel</text>
</g>
<!-- PricingModel&#45;&gt;ChoiceAttribute -->
<g id="edge33" class="edge"><title>PricingModel&#45;&gt;ChoiceAttribute</title>
<path fill="none" stroke="black" d="M2021,-1155.27C2080.59,-1151.87 2175.58,-1144.74 2256.71,-1131 2274.06,-1128.06 2292.73,-1123.82 2309.6,-1119.56"/>
<polygon fill="black" stroke="black" points="2310.5,-1122.94 2319.31,-1117.06 2308.75,-1116.16 2310.5,-1122.94"/>
</g>
<!-- PayAndGo -->
<g id="node35" class="node"><title>PayAndGo</title>
<ellipse fill="none" stroke="black" cx="1961.64" cy="-564" rx="50.0912" ry="18"/>
<text text-anchor="middle" x="1961.64" y="-560.3" font-family="Times,serif" font-size="14.00">PayAndGo</text>
</g>
<!-- PayAndGo&#45;&gt;OptionAttribute -->
<g id="edge34" class="edge"><title>PayAndGo&#45;&gt;OptionAttribute</title>
<path fill="none" stroke="black" d="M2011.32,-566.194C2069.89,-569.356 2171.03,-576.487 2256.71,-591 2274.14,-593.952 2292.9,-598.223 2309.84,-602.501"/>
<polygon fill="black" stroke="black" points="2309.02,-605.904 2319.57,-605.01 2310.76,-599.125 2309.02,-605.904"/>
</g>
<!-- Subscription -->
<g id="node36" class="node"><title>Subscription</title>
<ellipse fill="none" stroke="black" cx="1961.64" cy="-510" rx="55.4913" ry="18"/>
<text text-anchor="middle" x="1961.64" y="-506.3" font-family="Times,serif" font-size="14.00">Subscription</text>
</g>
<!-- Subscription&#45;&gt;OptionAttribute -->
<g id="edge35" class="edge"><title>Subscription&#45;&gt;OptionAttribute</title>
<path fill="none" stroke="black" d="M2011.83,-502.3C2073.62,-495.219 2180.73,-491.745 2256.71,-537 2281.49,-551.76 2270.1,-573.093 2292.71,-591 2297.61,-594.882 2303.13,-598.246 2308.88,-601.151"/>
<polygon fill="black" stroke="black" points="2307.49,-604.366 2318.04,-605.347 2310.41,-598.001 2307.49,-604.366"/>
</g>
<!-- Price -->
<g id="node37" class="node"><title>Price</title>
<ellipse fill="none" stroke="black" cx="2366.15" cy="-564" rx="28.6953" ry="18"/>
<text text-anchor="middle" x="2366.15" y="-560.3" font-family="Times,serif" font-size="14.00">Price</text>
</g>
<!-- Price&#45;&gt;Attribute -->
<g id="edge36" class="edge"><title>Price&#45;&gt;Attribute</title>
<path fill="none" stroke="black" d="M2392.3,-571.623C2406.56,-576.37 2424.5,-583.077 2439.6,-591 2456.75,-600.007 2474.57,-612.236 2488.76,-622.779"/>
<polygon fill="black" stroke="black" points="2487,-625.839 2497.09,-629.082 2491.22,-620.257 2487,-625.839"/>
</g>
<!-- DatabaseAsAService -->
<g id="node38" class="node"><title>DatabaseAsAService</title>
<ellipse fill="none" stroke="black" cx="1379.68" cy="-207" rx="85.2851" ry="18"/>
<text text-anchor="middle" x="1379.68" y="-203.3" font-family="Times,serif" font-size="14.00">DatabaseAsAService</text>
</g>
<!-- DatabaseAsAService&#45;&gt;SaaS -->
<g id="edge37" class="edge"><title>DatabaseAsAService&#45;&gt;SaaS</title>
<path fill="none" stroke="black" d="M1463.78,-203.991C1591.35,-199.372 1830.38,-190.716 1922.81,-187.37"/>
<polygon fill="black" stroke="black" points="1922.96,-190.867 1932.83,-187.007 1922.7,-183.871 1922.96,-190.867"/>
</g>
<!-- SQLDatabaseAsAService -->
<g id="node39" class="node"><title>SQLDatabaseAsAService</title>
<ellipse fill="none" stroke="black" cx="819.181" cy="-288" rx="102.082" ry="18"/>
<text text-anchor="middle" x="819.181" y="-284.3" font-family="Times,serif" font-size="14.00">SQLDatabaseAsAService</text>
</g>
<!-- SQLDatabaseAsAService&#45;&gt;DatabaseAsAService -->
<g id="edge38" class="edge"><title>SQLDatabaseAsAService&#45;&gt;DatabaseAsAService</title>
<path fill="none" stroke="black" d="M912.857,-280.859C965.719,-276.276 1033.13,-269.574 1092.81,-261 1167.21,-250.31 1251.71,-233.801 1309.43,-221.85"/>
<polygon fill="black" stroke="black" points="1310.45,-225.213 1319.53,-219.749 1309.03,-218.359 1310.45,-225.213"/>
</g>
<!-- NoSQLDatabaseAsAService -->
<g id="node40" class="node"><title>NoSQLDatabaseAsAService</title>
<ellipse fill="none" stroke="black" cx="819.181" cy="-234" rx="112.38" ry="18"/>
<text text-anchor="middle" x="819.181" y="-230.3" font-family="Times,serif" font-size="14.00">NoSQLDatabaseAsAService</text>
</g>
<!-- NoSQLDatabaseAsAService&#45;&gt;DatabaseAsAService -->
<g id="edge39" class="edge"><title>NoSQLDatabaseAsAService&#45;&gt;DatabaseAsAService</title>
<path fill="none" stroke="black" d="M927.205,-228.826C1031.22,-223.798 1187.52,-216.241 1286.26,-211.468"/>
<polygon fill="black" stroke="black" points="1286.7,-214.951 1296.52,-210.972 1286.37,-207.959 1286.7,-214.951"/>
</g>
<!-- github.com/supermuesli/csdl@examples/DatabaseRequirement.py@latest -->
<g id="node41" class="node"><title>github.com/supermuesli/csdl@examples/DatabaseRequirement.py@latest</title>
<ellipse fill="none" stroke="black" cx="819.181" cy="-180" rx="273.751" ry="18"/>
<text text-anchor="middle" x="819.181" y="-176.3" font-family="Times,serif" font-size="14.00">github.com/supermuesli/csdl@examples/DatabaseRequirement.py@latest</text>
</g>
<!-- github.com/supermuesli/csdl@examples/DatabaseRequirement.py@latest&#45;&gt;DatabaseAsAService -->
<g id="edge40" class="edge"><title>github.com/supermuesli/csdl@examples/DatabaseRequirement.py@latest&#45;&gt;DatabaseAsAService</title>
<path fill="none" stroke="black" d="M1040.11,-190.632C1125.77,-194.773 1219.23,-199.291 1286.21,-202.529"/>
<polygon fill="black" stroke="black" points="1286.15,-206.031 1296.31,-203.018 1286.49,-199.039 1286.15,-206.031"/>
</g>
<!-- github.com/supermuesli/csdl@misc/countries/USA.py@latest -->
<g id="node42" class="node"><title>github.com/supermuesli/csdl@misc/countries/USA.py@latest</title>
<ellipse fill="none" stroke="black" cx="1379.68" cy="-942" rx="231.259" ry="18"/>
<text text-anchor="middle" x="1379.68" y="-938.3" font-family="Times,serif" font-size="14.00">github.com/supermuesli/csdl@misc/countries/USA.py@latest</text>
</g>
<!-- github.com/supermuesli/csdl@misc/countries/USA.py@latest&#45;&gt;NorthAmerica -->
<g id="edge41" class="edge"><title>github.com/supermuesli/csdl@misc/countries/USA.py@latest&#45;&gt;NorthAmerica</title>
<path fill="none" stroke="black" d="M1611.15,-942C1710.65,-942 1819.93,-942 1889.34,-942"/>
<polygon fill="black" stroke="black" points="1889.71,-945.5 1899.71,-942 1889.71,-938.5 1889.71,-945.5"/>
</g>
<!-- github.com/supermuesli/csdl@misc/storage/BackupRetentionPeriod.py@latest -->
<g id="node43" class="node"><title>github.com/supermuesli/csdl@misc/storage/BackupRetentionPeriod.py@latest</title>
<ellipse fill="none" stroke="black" cx="1961.64" cy="-1536" rx="290.548" ry="18"/>
<text text-anchor="middle" x="1961.64" y="-1532.3" font-family="Times,serif" font-size="14.00">github.com/supermuesli/csdl@misc/storage/BackupRetentionPeriod.py@latest</text>
</g>
<!-- github.com/supermuesli/csdl@misc/storage/BackupRetentionPeriod.py@latest&#45;&gt;NumericAttribute -->
<g id="edge42" class="edge"><title>github.com/supermuesli/csdl@misc/storage/BackupRetentionPeriod.py@latest&#45;&gt;NumericAttribute</title>
<path fill="none" stroke="black" d="M2217.56,-1544.65C2231.21,-1549.61 2244.37,-1555.67 2256.71,-1563 2308.3,-1593.66 2340.45,-1659.58 2355.34,-1697.19"/>
<polygon fill="black" stroke="black" points="2352.25,-1698.9 2359.08,-1707 2358.79,-1696.41 2352.25,-1698.9"/>
</g>
<!-- github.com/supermuesli/csdl@misc/storage/BackupSnapshotAmount.py@latest -->
<g id="node44" class="node"><title>github.com/supermuesli/csdl@misc/storage/BackupSnapshotAmount.py@latest</title>
<ellipse fill="none" stroke="black" cx="1961.64" cy="-1482" rx="295.148" ry="18"/>
<text text-anchor="middle" x="1961.64" y="-1478.3" font-family="Times,serif" font-size="14.00">github.com/supermuesli/csdl@misc/storage/BackupSnapshotAmount.py@latest</text>
</g>
<!-- github.com/supermuesli/csdl@misc/storage/BackupSnapshotAmount.py@latest&#45;&gt;NumericAttribute -->
<g id="edge43" class="edge"><title>github.com/supermuesli/csdl@misc/storage/BackupSnapshotAmount.py@latest&#45;&gt;NumericAttribute</title>
<path fill="none" stroke="black" d="M2222.62,-1490.49C2234.57,-1495.59 2246.01,-1501.71 2256.71,-1509 2321.97,-1553.51 2349.89,-1649.37 2360.1,-1696.98"/>
<polygon fill="black" stroke="black" points="2356.7,-1697.81 2362.12,-1706.91 2363.56,-1696.42 2356.7,-1697.81"/>
</g>
<!-- github.com/supermuesli/csdl@misc/dataTransfer/In.py@latest -->
<g id="node45" class="node"><title>github.com/supermuesli/csdl@misc/dataTransfer/In.py@latest</title>
<ellipse fill="none" stroke="black" cx="1961.64" cy="-1428" rx="233.159" ry="18"/>
<text text-anchor="middle" x="1961.64" y="-1424.3" font-family="Times,serif" font-size="14.00">github.com/supermuesli/csdl@misc/dataTransfer/In.py@latest</text>
</g>
<!-- github.com/supermuesli/csdl@misc/dataTransfer/In.py@latest&#45;&gt;NumericAttribute -->
<g id="edge44" class="edge"><title>github.com/supermuesli/csdl@misc/dataTransfer/In.py@latest&#45;&gt;NumericAttribute</title>
<path fill="none" stroke="black" d="M2070.55,-1412.08C2130.85,-1409.07 2204.18,-1415.87 2256.71,-1455 2335.87,-1513.97 2357.37,-1640.23 2363.11,-1696.69"/>
<polygon fill="black" stroke="black" points="2359.63,-1697.07 2364.03,-1706.7 2366.6,-1696.42 2359.63,-1697.07"/>
</g>
<!-- github.com/supermuesli/csdl@misc/dataTransfer/Out.py@latest -->
<g id="node46" class="node"><title>github.com/supermuesli/csdl@misc/dataTransfer/Out.py@latest</title>
<ellipse fill="none" stroke="black" cx="1961.64" cy="-1374" rx="239.358" ry="18"/>
<text text-anchor="middle" x="1961.64" y="-1370.3" font-family="Times,serif" font-size="14.00">github.com/supermuesli/csdl@misc/dataTransfer/Out.py@latest</text>
</g>
<!-- github.com/supermuesli/csdl@misc/dataTransfer/Out.py@latest&#45;&gt;NumericAttribute -->
<g id="edge45" class="edge"><title>github.com/supermuesli/csdl@misc/dataTransfer/Out.py@latest&#45;&gt;NumericAttribute</title>
<path fill="none" stroke="black" d="M2061.25,-1357.6C2123.63,-1352.88 2202.44,-1358.04 2256.71,-1401 2350.13,-1474.96 2363.71,-1632.35 2365.23,-1696.69"/>
<polygon fill="black" stroke="black" points="2361.73,-1696.95 2365.38,-1706.89 2368.73,-1696.84 2361.73,-1696.95"/>
</g>
<!-- github.com/supermuesli/csdl@aws/rdsPostgres/AvailabilityZone.py@latest -->
<g id="node47" class="node"><title>github.com/supermuesli/csdl@aws/rdsPostgres/AvailabilityZone.py@latest</title>
<ellipse fill="none" stroke="black" cx="1961.64" cy="-1104" rx="278.351" ry="18"/>
<text text-anchor="middle" x="1961.64" y="-1100.3" font-family="Times,serif" font-size="14.00">github.com/supermuesli/csdl@aws/rdsPostgres/AvailabilityZone.py@latest</text>
</g>
<!-- github.com/supermuesli/csdl@aws/rdsPostgres/AvailabilityZone.py@latest&#45;&gt;ChoiceAttribute -->
<g id="edge46" class="edge"><title>github.com/supermuesli/csdl@aws/rdsPostgres/AvailabilityZone.py@latest&#45;&gt;ChoiceAttribute</title>
<path fill="none" stroke="black" d="M2240,-1104C2257.15,-1104 2273.43,-1104 2288.24,-1104"/>
<polygon fill="black" stroke="black" points="2288.25,-1107.5 2298.25,-1104 2288.25,-1100.5 2288.25,-1107.5"/>
</g>
<!-- github.com/supermuesli/csdl@aws/rdsPostgres/SingleAZ.py@latest -->
<g id="node48" class="node"><title>github.com/supermuesli/csdl@aws/rdsPostgres/SingleAZ.py@latest</title>
<ellipse fill="none" stroke="black" cx="1961.64" cy="-456" rx="252.655" ry="18"/>
<text text-anchor="middle" x="1961.64" y="-452.3" font-family="Times,serif" font-size="14.00">github.com/supermuesli/csdl@aws/rdsPostgres/SingleAZ.py@latest</text>
</g>
<!-- github.com/supermuesli/csdl@aws/rdsPostgres/SingleAZ.py@latest&#45;&gt;OptionAttribute -->
<g id="edge47" class="edge"><title>github.com/supermuesli/csdl@aws/rdsPostgres/SingleAZ.py@latest&#45;&gt;OptionAttribute</title>
<path fill="none" stroke="black" d="M2062.66,-439.473C2124.82,-434.924 2202.87,-440.322 2256.71,-483 2296.36,-514.432 2257.56,-554.602 2292.71,-591 2296.61,-595.043 2301.18,-598.486 2306.08,-601.417"/>
<polygon fill="black" stroke="black" points="2304.73,-604.655 2315.21,-606.158 2307.95,-598.443 2304.73,-604.655"/>
</g>
<!-- github.com/supermuesli/csdl@aws/rdsPostgres/MultiAZ.py@latest -->
<g id="node49" class="node"><title>github.com/supermuesli/csdl@aws/rdsPostgres/MultiAZ.py@latest</title>
<ellipse fill="none" stroke="black" cx="1961.64" cy="-402" rx="250.456" ry="18"/>
<text text-anchor="middle" x="1961.64" y="-398.3" font-family="Times,serif" font-size="14.00">github.com/supermuesli/csdl@aws/rdsPostgres/MultiAZ.py@latest</text>
</g>
<!-- github.com/supermuesli/csdl@aws/rdsPostgres/MultiAZ.py@latest&#45;&gt;OptionAttribute -->
<g id="edge48" class="edge"><title>github.com/supermuesli/csdl@aws/rdsPostgres/MultiAZ.py@latest&#45;&gt;OptionAttribute</title>
<path fill="none" stroke="black" d="M2049.08,-385.121C2113.98,-377.74 2200.91,-379.878 2256.71,-429 2312.07,-477.736 2244.28,-535.373 2292.71,-591 2296.34,-595.176 2300.69,-598.707 2305.42,-601.693"/>
<polygon fill="black" stroke="black" points="2303.83,-604.809 2314.28,-606.499 2307.16,-598.655 2303.83,-604.809"/>
</g>
<!-- github.com/supermuesli/csdl@aws/ec2/EC2.py@latest -->
<g id="node50" class="node"><title>github.com/supermuesli/csdl@aws/ec2/EC2.py@latest</title>
<ellipse fill="none" stroke="black" cx="254.777" cy="-18" rx="206.063" ry="18"/>
<text text-anchor="middle" x="254.777" y="-14.3" font-family="Times,serif" font-size="14.00">github.com/supermuesli/csdl@aws/ec2/EC2.py@latest</text>
</g>
<!-- github.com/supermuesli/csdl@aws/ec2/EC2.py@latest&#45;&gt;VMAsAService -->
<g id="edge49" class="edge"><title>github.com/supermuesli/csdl@aws/ec2/EC2.py@latest&#45;&gt;VMAsAService</title>
<path fill="none" stroke="black" d="M461.205,-18C558.704,-18 669.336,-18 741.253,-18"/>
<polygon fill="black" stroke="black" points="741.576,-21.5001 751.576,-18 741.576,-14.5001 741.576,-21.5001"/>
</g>
<!-- github.com/supermuesli/csdl@aws/regions/Region.py@latest -->
<g id="node51" class="node"><title>github.com/supermuesli/csdl@aws/regions/Region.py@latest</title>
<ellipse fill="none" stroke="black" cx="1379.68" cy="-1266" rx="229.359" ry="18"/>
<text text-anchor="middle" x="1379.68" y="-1262.3" font-family="Times,serif" font-size="14.00">github.com/supermuesli/csdl@aws/regions/Region.py@latest</text>
</g>
<!-- github.com/supermuesli/csdl@aws/regions/Region.py@latest&#45;&gt;Region -->
<g id="edge50" class="edge"><title>github.com/supermuesli/csdl@aws/regions/Region.py@latest&#45;&gt;Region</title>
<path fill="none" stroke="black" d="M1609.48,-1266C1722.85,-1266 1849.29,-1266 1915.14,-1266"/>
<polygon fill="black" stroke="black" points="1915.18,-1269.5 1925.18,-1266 1915.18,-1262.5 1915.18,-1269.5"/>
</g>
<!-- github.com/supermuesli/csdl@aws/regions/California.py@latest -->
<g id="node52" class="node"><title>github.com/supermuesli/csdl@aws/regions/California.py@latest</title>
<ellipse fill="none" stroke="black" cx="819.181" cy="-996" rx="239.358" ry="18"/>
<text text-anchor="middle" x="819.181" y="-992.3" font-family="Times,serif" font-size="14.00">github.com/supermuesli/csdl@aws/regions/California.py@latest</text>
</g>
<!-- github.com/supermuesli/csdl@aws/regions/California.py@latest&#45;&gt;github.com/supermuesli/csdl@misc/countries/USA.py@latest -->
<g id="edge51" class="edge"><title>github.com/supermuesli/csdl@aws/regions/California.py@latest&#45;&gt;github.com/supermuesli/csdl@misc/countries/USA.py@latest</title>
<path fill="none" stroke="black" d="M966.921,-981.812C1045.95,-974.171 1143.42,-964.747 1223.69,-956.986"/>
<polygon fill="black" stroke="black" points="1224.27,-960.446 1233.89,-956 1223.6,-953.478 1224.27,-960.446"/>
</g>
<!-- github.com/supermuesli/csdl@aws/regions/NorthernVirginia.py@latest -->
<g id="node53" class="node"><title>github.com/supermuesli/csdl@aws/regions/NorthernVirginia.py@latest</title>
<ellipse fill="none" stroke="black" cx="819.181" cy="-942" rx="264.553" ry="18"/>
<text text-anchor="middle" x="819.181" y="-938.3" font-family="Times,serif" font-size="14.00">github.com/supermuesli/csdl@aws/regions/NorthernVirginia.py@latest</text>
</g>
<!-- github.com/supermuesli/csdl@aws/regions/NorthernVirginia.py@latest&#45;&gt;github.com/supermuesli/csdl@misc/countries/USA.py@latest -->
<g id="edge52" class="edge"><title>github.com/supermuesli/csdl@aws/regions/NorthernVirginia.py@latest&#45;&gt;github.com/supermuesli/csdl@misc/countries/USA.py@latest</title>
<path fill="none" stroke="black" d="M1083.9,-942C1101.84,-942 1119.87,-942 1137.69,-942"/>
<polygon fill="black" stroke="black" points="1138.15,-945.5 1148.15,-942 1138.15,-938.5 1138.15,-945.5"/>
</g>
<!-- github.com/supermuesli/csdl@aws/regions/NewYork.py@latest -->
<g id="node54" class="node"><title>github.com/supermuesli/csdl@aws/regions/NewYork.py@latest</title>
<ellipse fill="none" stroke="black" cx="819.181" cy="-888" rx="238.558" ry="18"/>
<text text-anchor="middle" x="819.181" y="-884.3" font-family="Times,serif" font-size="14.00">github.com/supermuesli/csdl@aws/regions/NewYork.py@latest</text>
</g>
<!-- github.com/supermuesli/csdl@aws/regions/NewYork.py@latest&#45;&gt;github.com/supermuesli/csdl@misc/countries/USA.py@latest -->
<g id="edge53" class="edge"><title>github.com/supermuesli/csdl@aws/regions/NewYork.py@latest&#45;&gt;github.com/supermuesli/csdl@misc/countries/USA.py@latest</title>
<path fill="none" stroke="black" d="M966.921,-902.188C1045.95,-909.829 1143.42,-919.253 1223.69,-927.014"/>
<polygon fill="black" stroke="black" points="1223.6,-930.522 1233.89,-928 1224.27,-923.554 1223.6,-930.522"/>
</g>
<!-- github.com/supermuesli/csdl@aws/ec2/MachineType.py@latest -->
<g id="node55" class="node"><title>github.com/supermuesli/csdl@aws/ec2/MachineType.py@latest</title>
<ellipse fill="none" stroke="black" cx="1961.64" cy="-1050" rx="239.358" ry="18"/>
<text text-anchor="middle" x="1961.64" y="-1046.3" font-family="Times,serif" font-size="14.00">github.com/supermuesli/csdl@aws/ec2/MachineType.py@latest</text>
</g>
<!-- github.com/supermuesli/csdl@aws/ec2/MachineType.py@latest&#45;&gt;ChoiceAttribute -->
<g id="edge54" class="edge"><title>github.com/supermuesli/csdl@aws/ec2/MachineType.py@latest&#45;&gt;ChoiceAttribute</title>
<path fill="none" stroke="black" d="M2140.87,-1061.97C2179.22,-1065.77 2219.43,-1070.69 2256.71,-1077 2274.06,-1079.94 2292.73,-1084.18 2309.6,-1088.44"/>
<polygon fill="black" stroke="black" points="2308.75,-1091.84 2319.31,-1090.94 2310.5,-1085.06 2308.75,-1091.84"/>
</g>
<!-- github.com/supermuesli/csdl@aws/ec2/A1Large.py@latest -->
<g id="node56" class="node"><title>github.com/supermuesli/csdl@aws/ec2/A1Large.py@latest</title>
<ellipse fill="none" stroke="black" cx="1961.64" cy="-348" rx="221.761" ry="18"/>
<text text-anchor="middle" x="1961.64" y="-344.3" font-family="Times,serif" font-size="14.00">github.com/supermuesli/csdl@aws/ec2/A1Large.py@latest</text>
</g>
<!-- github.com/supermuesli/csdl@aws/ec2/A1Large.py@latest&#45;&gt;OptionAttribute -->
<g id="edge55" class="edge"><title>github.com/supermuesli/csdl@aws/ec2/A1Large.py@latest&#45;&gt;OptionAttribute</title>
<path fill="none" stroke="black" d="M2042.5,-331.22C2108.48,-322.383 2200.18,-322.484 2256.71,-375 2328.01,-441.24 2230.79,-515.914 2292.71,-591 2296.09,-595.102 2300.16,-598.58 2304.63,-601.531"/>
<polygon fill="black" stroke="black" points="2303.18,-604.736 2313.62,-606.578 2306.61,-598.632 2303.18,-604.736"/>
</g>
<!-- github.com/supermuesli/csdl@aws/EBS.py@latest -->
<g id="node57" class="node"><title>github.com/supermuesli/csdl@aws/EBS.py@latest</title>
<ellipse fill="none" stroke="black" cx="819.181" cy="-126" rx="191.966" ry="18"/>
<text text-anchor="middle" x="819.181" y="-122.3" font-family="Times,serif" font-size="14.00">github.com/supermuesli/csdl@aws/EBS.py@latest</text>
</g>
<!-- github.com/supermuesli/csdl@aws/EBS.py@latest&#45;&gt;StorageAsAService -->
<g id="edge56" class="edge"><title>github.com/supermuesli/csdl@aws/EBS.py@latest&#45;&gt;StorageAsAService</title>
<path fill="none" stroke="black" d="M1004.6,-121.377C1100.54,-118.972 1213.42,-116.143 1289.9,-114.226"/>
<polygon fill="black" stroke="black" points="1290.07,-117.723 1299.97,-113.973 1289.89,-110.725 1290.07,-117.723"/>
</g>
<!-- github.com/supermuesli/csdl@misc/StaticIp.py@latest -->
<g id="node58" class="node"><title>github.com/supermuesli/csdl@misc/StaticIp.py@latest</title>
<ellipse fill="none" stroke="black" cx="1961.64" cy="-1320" rx="206.063" ry="18"/>
<text text-anchor="middle" x="1961.64" y="-1316.3" font-family="Times,serif" font-size="14.00">github.com/supermuesli/csdl@misc/StaticIp.py@latest</text>
</g>
<!-- github.com/supermuesli/csdl@misc/StaticIp.py@latest&#45;&gt;NumericAttribute -->
<g id="edge57" class="edge"><title>github.com/supermuesli/csdl@misc/StaticIp.py@latest&#45;&gt;NumericAttribute</title>
<path fill="none" stroke="black" d="M2051.27,-1303.78C2115.39,-1297.31 2200.33,-1300.33 2256.71,-1347 2311.71,-1392.53 2349.23,-1616 2361.11,-1696.24"/>
<polygon fill="black" stroke="black" points="2357.72,-1697.19 2362.62,-1706.58 2364.64,-1696.18 2357.72,-1697.19"/>
</g>
<!-- github.com/supermuesli/csdl@aws/ec2/ElasticIpAmount.py@latest -->
<g id="node59" class="node"><title>github.com/supermuesli/csdl@aws/ec2/ElasticIpAmount.py@latest</title>
<ellipse fill="none" stroke="black" cx="1379.68" cy="-1320" rx="250.756" ry="18"/>
<text text-anchor="middle" x="1379.68" y="-1316.3" font-family="Times,serif" font-size="14.00">github.com/supermuesli/csdl@aws/ec2/ElasticIpAmount.py@latest</text>
</g>
<!-- github.com/supermuesli/csdl@aws/ec2/ElasticIpAmount.py@latest&#45;&gt;github.com/supermuesli/csdl@misc/StaticIp.py@latest -->
<g id="edge58" class="edge"><title>github.com/supermuesli/csdl@aws/ec2/ElasticIpAmount.py@latest&#45;&gt;github.com/supermuesli/csdl@misc/StaticIp.py@latest</title>
<path fill="none" stroke="black" d="M1630.84,-1320C1668.81,-1320 1707.71,-1320 1744.87,-1320"/>
<polygon fill="black" stroke="black" points="1745.3,-1323.5 1755.3,-1320 1745.3,-1316.5 1745.3,-1323.5"/>
</g>
<!-- github.com/supermuesli/csdl@aws/s3/S3.py@latest -->
<g id="node60" class="node"><title>github.com/supermuesli/csdl@aws/s3/S3.py@latest</title>
<ellipse fill="none" stroke="black" cx="819.181" cy="-72" rx="194.965" ry="18"/>
<text text-anchor="middle" x="819.181" y="-68.3" font-family="Times,serif" font-size="14.00">github.com/supermuesli/csdl@aws/s3/S3.py@latest</text>
</g>
<!-- github.com/supermuesli/csdl@aws/s3/S3.py@latest&#45;&gt;StorageAsAService -->
<g id="edge59" class="edge"><title>github.com/supermuesli/csdl@aws/s3/S3.py@latest&#45;&gt;StorageAsAService</title>
<path fill="none" stroke="black" d="M973.902,-83.0096C1076.76,-90.3765 1208.32,-99.7985 1293.05,-105.867"/>
<polygon fill="black" stroke="black" points="1292.92,-109.366 1303.14,-106.59 1293.42,-102.384 1292.92,-109.366"/>
</g>
<!-- github.com/supermuesli/csdl@aws/s3/S3Type.py@latest -->
<g id="node61" class="node"><title>github.com/supermuesli/csdl@aws/s3/S3Type.py@latest</title>
<ellipse fill="none" stroke="black" cx="1961.64" cy="-996" rx="213.362" ry="18"/>
<text text-anchor="middle" x="1961.64" y="-992.3" font-family="Times,serif" font-size="14.00">github.com/supermuesli/csdl@aws/s3/S3Type.py@latest</text>
</g>
<!-- github.com/supermuesli/csdl@aws/s3/S3Type.py@latest&#45;&gt;ChoiceAttribute -->
<g id="edge60" class="edge"><title>github.com/supermuesli/csdl@aws/s3/S3Type.py@latest&#45;&gt;ChoiceAttribute</title>
<path fill="none" stroke="black" d="M2168.84,-1000.41C2198.93,-1005.19 2229.07,-1012.39 2256.71,-1023 2289.2,-1035.47 2320.38,-1060.62 2340.91,-1079.6"/>
<polygon fill="black" stroke="black" points="2338.56,-1082.2 2348.23,-1086.54 2343.38,-1077.12 2338.56,-1082.2"/>
</g>
<!-- github.com/supermuesli/csdl@aws/s3/Standard.py@latest -->
<g id="node62" class="node"><title>github.com/supermuesli/csdl@aws/s3/Standard.py@latest</title>
<ellipse fill="none" stroke="black" cx="1961.64" cy="-294" rx="217.162" ry="18"/>
<text text-anchor="middle" x="1961.64" y="-290.3" font-family="Times,serif" font-size="14.00">github.com/supermuesli/csdl@aws/s3/Standard.py@latest</text>
</g>
<!-- github.com/supermuesli/csdl@aws/s3/Standard.py@latest&#45;&gt;OptionAttribute -->
<g id="edge61" class="edge"><title>github.com/supermuesli/csdl@aws/s3/Standard.py@latest&#45;&gt;OptionAttribute</title>
<path fill="none" stroke="black" d="M2039.99,-277.169C2106.44,-267.644 2200.21,-266.77 2256.71,-321 2344.05,-404.831 2217.22,-496.357 2292.71,-591 2296.02,-595.156 2300.05,-598.673 2304.48,-601.648"/>
<polygon fill="black" stroke="black" points="2303.01,-604.837 2313.43,-606.728 2306.46,-598.748 2303.01,-604.837"/>
</g>
<!-- github.com/supermuesli/csdl@aws/s3/StandardInfreqAccess.py@latest -->
<g id="node63" class="node"><title>github.com/supermuesli/csdl@aws/s3/StandardInfreqAccess.py@latest</title>
<ellipse fill="none" stroke="black" cx="1961.64" cy="-240" rx="263.453" ry="18"/>
<text text-anchor="middle" x="1961.64" y="-236.3" font-family="Times,serif" font-size="14.00">github.com/supermuesli/csdl@aws/s3/StandardInfreqAccess.py@latest</text>
</g>
<!-- github.com/supermuesli/csdl@aws/s3/StandardInfreqAccess.py@latest&#45;&gt;OptionAttribute -->
<g id="edge62" class="edge"><title>github.com/supermuesli/csdl@aws/s3/StandardInfreqAccess.py@latest&#45;&gt;OptionAttribute</title>
<path fill="none" stroke="black" d="M2040.6,-222.821C2107.23,-213.144 2200.9,-212.245 2256.71,-267 2308.42,-317.733 2248.16,-533.875 2292.71,-591 2295.98,-595.192 2299.97,-598.734 2304.38,-601.725"/>
<polygon fill="black" stroke="black" points="2302.89,-604.903 2313.31,-606.827 2306.36,-598.825 2302.89,-604.903"/>
</g>
<!-- github.com/supermuesli/csdl@aws/rdsPostgres/Postgresql.py@latest -->
<g id="node64" class="node"><title>github.com/supermuesli/csdl@aws/rdsPostgres/Postgresql.py@latest</title>
<ellipse fill="none" stroke="black" cx="254.777" cy="-288" rx="254.555" ry="18"/>
<text text-anchor="middle" x="254.777" y="-284.3" font-family="Times,serif" font-size="14.00">github.com/supermuesli/csdl@aws/rdsPostgres/Postgresql.py@latest</text>
</g>
<!-- github.com/supermuesli/csdl@aws/rdsPostgres/Postgresql.py@latest&#45;&gt;SQLDatabaseAsAService -->
<g id="edge63" class="edge"><title>github.com/supermuesli/csdl@aws/rdsPostgres/Postgresql.py@latest&#45;&gt;SQLDatabaseAsAService</title>
<path fill="none" stroke="black" d="M509.83,-288C578.894,-288 650.163,-288 706.763,-288"/>
<polygon fill="black" stroke="black" points="706.796,-291.5 716.796,-288 706.796,-284.5 706.796,-291.5"/>
</g>
</g>
</svg>
