<?xml version="1.0" encoding="UTF-8" standalone="no"?>
<!DOCTYPE svg PUBLIC "-//W3C//DTD SVG 1.1//EN"
 "http://www.w3.org/Graphics/SVG/1.1/DTD/svg11.dtd">
<!-- Generated by graphviz version 2.38.0 (20140413.2041)
 -->
<!-- Title: %3 Pages: 1 -->
<svg width="2566pt" height="1853pt"
 viewBox="0.00 0.00 2566.39 1853.00" xmlns="http://www.w3.org/2000/svg" xmlns:xlink="http://www.w3.org/1999/xlink">
<g id="graph0" class="graph" transform="scale(1 1) rotate(0) translate(4 1849)">
<title>%3</title>
<polygon fill="white" stroke="none" points="-4,4 -4,-1849 2562.39,-1849 2562.39,4 -4,4"/>
<!-- VMAsAService -->
<g id="node1" class="node"><title>VMAsAService</title>
<ellipse fill="none" stroke="black" cx="775.634" cy="-45" rx="67.6881" ry="18"/>
<text text-anchor="middle" x="775.634" y="-41.3" font-family="Times,serif" font-size="14.00">VMAsAService</text>
</g>
<!-- ServerAsAService -->
<g id="node2" class="node"><title>ServerAsAService</title>
<ellipse fill="none" stroke="black" cx="1326.39" cy="-45" rx="76.0865" ry="18"/>
<text text-anchor="middle" x="1326.39" y="-41.3" font-family="Times,serif" font-size="14.00">ServerAsAService</text>
</g>
<!-- VMAsAService&#45;&gt;ServerAsAService -->
<g id="edge1" class="edge"><title>VMAsAService&#45;&gt;ServerAsAService</title>
<path fill="none" stroke="black" d="M843.374,-45C942.95,-45 1130.39,-45 1239.88,-45"/>
<polygon fill="black" stroke="black" points="1239.9,-48.5001 1249.9,-45 1239.9,-41.5001 1239.9,-48.5001"/>
</g>
<!-- IaaS -->
<g id="node3" class="node"><title>IaaS</title>
<ellipse fill="none" stroke="black" cx="1891.44" cy="-99" rx="27" ry="18"/>
<text text-anchor="middle" x="1891.44" y="-95.3" font-family="Times,serif" font-size="14.00">IaaS</text>
</g>
<!-- ServerAsAService&#45;&gt;IaaS -->
<g id="edge2" class="edge"><title>ServerAsAService&#45;&gt;IaaS</title>
<path fill="none" stroke="black" d="M1397.28,-51.7028C1518.25,-63.3043 1762.51,-86.7304 1854.4,-95.543"/>
<polygon fill="black" stroke="black" points="1854.29,-99.0486 1864.58,-96.5194 1854.96,-92.0806 1854.29,-99.0486"/>
</g>
<!-- CCS -->
<g id="node5" class="node"><title>CCS</title>
<ellipse fill="none" stroke="black" cx="2263.46" cy="-153" rx="27.0966" ry="18"/>
<text text-anchor="middle" x="2263.46" y="-149.3" font-family="Times,serif" font-size="14.00">CCS</text>
</g>
<!-- IaaS&#45;&gt;CCS -->
<g id="edge4" class="edge"><title>IaaS&#45;&gt;CCS</title>
<path fill="none" stroke="black" d="M1918.6,-100.474C1965.88,-103.409 2068.58,-111.031 2154.02,-126 2179.15,-130.402 2207.07,-137.405 2228.29,-143.175"/>
<polygon fill="black" stroke="black" points="2227.55,-146.603 2238.12,-145.893 2229.42,-139.856 2227.55,-146.603"/>
</g>
<!-- SaaS -->
<g id="node4" class="node"><title>SaaS</title>
<ellipse fill="none" stroke="black" cx="1891.44" cy="-153" rx="28.6953" ry="18"/>
<text text-anchor="middle" x="1891.44" y="-149.3" font-family="Times,serif" font-size="14.00">SaaS</text>
</g>
<!-- SaaS&#45;&gt;CCS -->
<g id="edge3" class="edge"><title>SaaS&#45;&gt;CCS</title>
<path fill="none" stroke="black" d="M1920.25,-153C1986.09,-153 2151.51,-153 2225.59,-153"/>
<polygon fill="black" stroke="black" points="2225.83,-156.5 2235.83,-153 2225.83,-149.5 2225.83,-156.5"/>
</g>
<!-- Attribute -->
<g id="node8" class="node"><title>Attribute</title>
<ellipse fill="none" stroke="black" cx="2415.15" cy="-585" rx="42.4939" ry="18"/>
<text text-anchor="middle" x="2415.15" y="-581.3" font-family="Times,serif" font-size="14.00">Attribute</text>
</g>
<!-- CCS&#45;&gt;Attribute -->
<g id="edge10" class="edge"><title>CCS&#45;&gt;Attribute</title>
<path fill="none" stroke="black" d="M2270.52,-170.47C2293.59,-237.076 2376.19,-475.441 2404.53,-557.225"/>
<polygon fill="black" stroke="black" points="2401.28,-558.531 2407.86,-566.834 2407.89,-556.239 2401.28,-558.531"/>
</g>
<!-- StorageAsAService -->
<g id="node6" class="node"><title>StorageAsAService</title>
<ellipse fill="none" stroke="black" cx="1326.39" cy="-99" rx="79.8859" ry="18"/>
<text text-anchor="middle" x="1326.39" y="-95.3" font-family="Times,serif" font-size="14.00">StorageAsAService</text>
</g>
<!-- StorageAsAService&#45;&gt;IaaS -->
<g id="edge5" class="edge"><title>StorageAsAService&#45;&gt;IaaS</title>
<path fill="none" stroke="black" d="M1406.57,-99C1530.27,-99 1764.49,-99 1854.22,-99"/>
<polygon fill="black" stroke="black" points="1854.43,-102.5 1864.43,-99 1854.43,-95.5001 1854.43,-102.5"/>
</g>
<!-- NumericAttribute -->
<g id="node7" class="node"><title>NumericAttribute</title>
<ellipse fill="none" stroke="black" cx="2263.46" cy="-1476" rx="73.387" ry="18"/>
<text text-anchor="middle" x="2263.46" y="-1472.3" font-family="Times,serif" font-size="14.00">NumericAttribute</text>
</g>
<!-- NumericAttribute&#45;&gt;Attribute -->
<g id="edge6" class="edge"><title>NumericAttribute&#45;&gt;Attribute</title>
<path fill="none" stroke="black" d="M2267.52,-1457.8C2286.33,-1345.82 2386.32,-750.683 2409.4,-613.308"/>
<polygon fill="black" stroke="black" points="2412.89,-613.615 2411.1,-603.173 2405.99,-612.455 2412.89,-613.615"/>
</g>
<!-- object -->
<g id="node12" class="node"><title>object</title>
<ellipse fill="none" stroke="black" cx="2525.9" cy="-585" rx="32.4942" ry="18"/>
<text text-anchor="middle" x="2525.9" y="-581.3" font-family="Times,serif" font-size="14.00">object</text>
</g>
<!-- Attribute&#45;&gt;object -->
<g id="edge11" class="edge"><title>Attribute&#45;&gt;object</title>
<path fill="none" stroke="black" d="M2457.57,-585C2465.84,-585 2474.54,-585 2482.83,-585"/>
<polygon fill="black" stroke="black" points="2483.06,-588.5 2493.06,-585 2483.06,-581.5 2483.06,-588.5"/>
</g>
<!-- ChoiceAttribute -->
<g id="node9" class="node"><title>ChoiceAttribute</title>
<ellipse fill="none" stroke="black" cx="2263.46" cy="-990" rx="67.6881" ry="18"/>
<text text-anchor="middle" x="2263.46" y="-986.3" font-family="Times,serif" font-size="14.00">ChoiceAttribute</text>
</g>
<!-- ChoiceAttribute&#45;&gt;Attribute -->
<g id="edge7" class="edge"><title>ChoiceAttribute&#45;&gt;Attribute</title>
<path fill="none" stroke="black" d="M2271.09,-972.075C2294.8,-907.905 2375.58,-689.357 2404.09,-612.225"/>
<polygon fill="black" stroke="black" points="2407.42,-613.311 2407.6,-602.718 2400.85,-610.884 2407.42,-613.311"/>
</g>
<!-- BoolAttribute -->
<g id="node10" class="node"><title>BoolAttribute</title>
<ellipse fill="none" stroke="black" cx="2263.46" cy="-612" rx="59.5901" ry="18"/>
<text text-anchor="middle" x="2263.46" y="-608.3" font-family="Times,serif" font-size="14.00">BoolAttribute</text>
</g>
<!-- BoolAttribute&#45;&gt;Attribute -->
<g id="edge8" class="edge"><title>BoolAttribute&#45;&gt;Attribute</title>
<path fill="none" stroke="black" d="M2315.14,-602.859C2331.42,-599.922 2349.41,-596.678 2365.54,-593.768"/>
<polygon fill="black" stroke="black" points="2366.61,-597.131 2375.83,-591.912 2365.37,-590.242 2366.61,-597.131"/>
</g>
<!-- NameAttribute -->
<g id="node11" class="node"><title>NameAttribute</title>
<ellipse fill="none" stroke="black" cx="2263.46" cy="-558" rx="63.8893" ry="18"/>
<text text-anchor="middle" x="2263.46" y="-554.3" font-family="Times,serif" font-size="14.00">NameAttribute</text>
</g>
<!-- NameAttribute&#45;&gt;Attribute -->
<g id="edge9" class="edge"><title>NameAttribute&#45;&gt;Attribute</title>
<path fill="none" stroke="black" d="M2317.66,-567.595C2333.23,-570.403 2350.16,-573.458 2365.43,-576.213"/>
<polygon fill="black" stroke="black" points="2365.24,-579.735 2375.71,-578.065 2366.49,-572.846 2365.24,-579.735"/>
</g>
<!-- Region -->
<g id="node13" class="node"><title>Region</title>
<ellipse fill="none" stroke="black" cx="1891.44" cy="-1125" rx="36.2938" ry="18"/>
<text text-anchor="middle" x="1891.44" y="-1121.3" font-family="Times,serif" font-size="14.00">Region</text>
</g>
<!-- Region&#45;&gt;ChoiceAttribute -->
<g id="edge12" class="edge"><title>Region&#45;&gt;ChoiceAttribute</title>
<path fill="none" stroke="black" d="M1927.42,-1128.53C1979.52,-1132.26 2079.37,-1133.43 2154.02,-1098 2192.62,-1079.68 2225.52,-1041.76 2244.65,-1016.09"/>
<polygon fill="black" stroke="black" points="2247.55,-1018.05 2250.59,-1007.9 2241.89,-1013.93 2247.55,-1018.05"/>
</g>
<!-- NorthAmerica -->
<g id="node14" class="node"><title>NorthAmerica</title>
<ellipse fill="none" stroke="black" cx="1891.44" cy="-855" rx="61.99" ry="18"/>
<text text-anchor="middle" x="1891.44" y="-851.3" font-family="Times,serif" font-size="14.00">NorthAmerica</text>
</g>
<!-- NorthAmerica&#45;&gt;NameAttribute -->
<g id="edge13" class="edge"><title>NorthAmerica&#45;&gt;NameAttribute</title>
<path fill="none" stroke="black" d="M1940.89,-865.852C1999.56,-875.867 2097.53,-882.047 2154.02,-828 2232.91,-752.525 2121.32,-669.856 2190.02,-585 2193.61,-580.566 2198,-576.861 2202.83,-573.764"/>
<polygon fill="black" stroke="black" points="2204.81,-576.671 2211.93,-568.82 2201.47,-570.521 2204.81,-576.671"/>
</g>
<!-- Australia -->
<g id="node15" class="node"><title>Australia</title>
<ellipse fill="none" stroke="black" cx="1891.44" cy="-801" rx="42.7926" ry="18"/>
<text text-anchor="middle" x="1891.44" y="-797.3" font-family="Times,serif" font-size="14.00">Australia</text>
</g>
<!-- Australia&#45;&gt;NameAttribute -->
<g id="edge14" class="edge"><title>Australia&#45;&gt;NameAttribute</title>
<path fill="none" stroke="black" d="M1929.57,-809.536C1985.84,-820.078 2092.64,-830.347 2154.02,-774 2217.01,-716.17 2134.86,-650.34 2190.02,-585 2193.85,-580.467 2198.51,-576.694 2203.61,-573.554"/>
<polygon fill="black" stroke="black" points="2205.32,-576.608 2212.53,-568.845 2202.06,-570.417 2205.32,-576.608"/>
</g>
<!-- Africa -->
<g id="node16" class="node"><title>Africa</title>
<ellipse fill="none" stroke="black" cx="1891.44" cy="-747" rx="33.2948" ry="18"/>
<text text-anchor="middle" x="1891.44" y="-743.3" font-family="Times,serif" font-size="14.00">Africa</text>
</g>
<!-- Africa&#45;&gt;NameAttribute -->
<g id="edge15" class="edge"><title>Africa&#45;&gt;NameAttribute</title>
<path fill="none" stroke="black" d="M1922.48,-753.77C1975.91,-763.909 2088.04,-776.313 2154.02,-720 2201.25,-679.687 2148.27,-630.968 2190.02,-585 2194.01,-580.608 2198.78,-576.928 2203.94,-573.844"/>
<polygon fill="black" stroke="black" points="2205.66,-576.898 2212.94,-569.198 2202.45,-570.678 2205.66,-576.898"/>
</g>
<!-- EastAsia -->
<g id="node17" class="node"><title>EastAsia</title>
<ellipse fill="none" stroke="black" cx="1891.44" cy="-693" rx="42.4939" ry="18"/>
<text text-anchor="middle" x="1891.44" y="-689.3" font-family="Times,serif" font-size="14.00">EastAsia</text>
</g>
<!-- EastAsia&#45;&gt;NameAttribute -->
<g id="edge16" class="edge"><title>EastAsia&#45;&gt;NameAttribute</title>
<path fill="none" stroke="black" d="M1930.33,-700.035C1985.21,-708.004 2087.51,-714.262 2154.02,-666 2185.9,-642.863 2161.32,-611.988 2190.02,-585 2194.57,-580.716 2199.87,-577.097 2205.49,-574.043"/>
<polygon fill="black" stroke="black" points="2207.03,-577.186 2214.52,-569.694 2203.99,-570.879 2207.03,-577.186"/>
</g>
<!-- SouthAmerica -->
<g id="node18" class="node"><title>SouthAmerica</title>
<ellipse fill="none" stroke="black" cx="1891.44" cy="-639" rx="61.99" ry="18"/>
<text text-anchor="middle" x="1891.44" y="-635.3" font-family="Times,serif" font-size="14.00">SouthAmerica</text>
</g>
<!-- SouthAmerica&#45;&gt;NameAttribute -->
<g id="edge17" class="edge"><title>SouthAmerica&#45;&gt;NameAttribute</title>
<path fill="none" stroke="black" d="M1952.48,-641.762C2006.93,-642.211 2088.44,-637.674 2154.02,-612 2172.64,-604.708 2172.47,-594.591 2190.02,-585 2196.5,-581.46 2203.53,-578.195 2210.59,-575.25"/>
<polygon fill="black" stroke="black" points="2212.18,-578.384 2220.18,-571.436 2209.6,-571.88 2212.18,-578.384"/>
</g>
<!-- Europe -->
<g id="node19" class="node"><title>Europe</title>
<ellipse fill="none" stroke="black" cx="1891.44" cy="-585" rx="36.2938" ry="18"/>
<text text-anchor="middle" x="1891.44" y="-581.3" font-family="Times,serif" font-size="14.00">Europe</text>
</g>
<!-- Europe&#45;&gt;NameAttribute -->
<g id="edge18" class="edge"><title>Europe&#45;&gt;NameAttribute</title>
<path fill="none" stroke="black" d="M1927.59,-582.436C1987.84,-578.039 2111.99,-568.98 2191.03,-563.212"/>
<polygon fill="black" stroke="black" points="2191.68,-566.675 2201.39,-562.456 2191.17,-559.693 2191.68,-566.675"/>
</g>
<!-- Antarctica -->
<g id="node20" class="node"><title>Antarctica</title>
<ellipse fill="none" stroke="black" cx="1891.44" cy="-531" rx="47.3916" ry="18"/>
<text text-anchor="middle" x="1891.44" y="-527.3" font-family="Times,serif" font-size="14.00">Antarctica</text>
</g>
<!-- Antarctica&#45;&gt;NameAttribute -->
<g id="edge19" class="edge"><title>Antarctica&#45;&gt;NameAttribute</title>
<path fill="none" stroke="black" d="M1938.18,-534.338C2001.53,-538.96 2116.57,-547.354 2191.22,-552.801"/>
<polygon fill="black" stroke="black" points="2191.24,-556.312 2201.47,-553.55 2191.75,-549.331 2191.24,-556.312"/>
</g>
<!-- Currency -->
<g id="node21" class="node"><title>Currency</title>
<ellipse fill="none" stroke="black" cx="1891.44" cy="-1071" rx="43.5923" ry="18"/>
<text text-anchor="middle" x="1891.44" y="-1067.3" font-family="Times,serif" font-size="14.00">Currency</text>
</g>
<!-- Currency&#45;&gt;ChoiceAttribute -->
<g id="edge20" class="edge"><title>Currency&#45;&gt;ChoiceAttribute</title>
<path fill="none" stroke="black" d="M1935.01,-1071.24C1987.52,-1070.49 2079.04,-1065.76 2154.02,-1044 2179.71,-1036.55 2206.64,-1023.17 2227.23,-1011.6"/>
<polygon fill="black" stroke="black" points="2229.01,-1014.62 2235.94,-1006.6 2225.52,-1008.54 2229.01,-1014.62"/>
</g>
<!-- Storage -->
<g id="node22" class="node"><title>Storage</title>
<ellipse fill="none" stroke="black" cx="1891.44" cy="-1827" rx="37.8943" ry="18"/>
<text text-anchor="middle" x="1891.44" y="-1823.3" font-family="Times,serif" font-size="14.00">Storage</text>
</g>
<!-- Storage&#45;&gt;NumericAttribute -->
<g id="edge21" class="edge"><title>Storage&#45;&gt;NumericAttribute</title>
<path fill="none" stroke="black" d="M1926.43,-1834.11C1980.85,-1843.39 2088.1,-1852.8 2154.02,-1800 2247.02,-1725.51 2260.84,-1568.43 2262.48,-1504.23"/>
<polygon fill="black" stroke="black" points="2265.98,-1504.12 2262.65,-1494.06 2258.98,-1504 2265.98,-1504.12"/>
</g>
<!-- StorageWriteSpeed -->
<g id="node23" class="node"><title>StorageWriteSpeed</title>
<ellipse fill="none" stroke="black" cx="1891.44" cy="-1773" rx="79.0865" ry="18"/>
<text text-anchor="middle" x="1891.44" y="-1769.3" font-family="Times,serif" font-size="14.00">StorageWriteSpeed</text>
</g>
<!-- StorageWriteSpeed&#45;&gt;NumericAttribute -->
<g id="edge22" class="edge"><title>StorageWriteSpeed&#45;&gt;NumericAttribute</title>
<path fill="none" stroke="black" d="M1955.8,-1783.57C2013.27,-1789.51 2097.42,-1788.66 2154.02,-1746 2232.85,-1686.59 2254.52,-1560.56 2260.36,-1504.23"/>
<polygon fill="black" stroke="black" points="2263.85,-1504.53 2261.3,-1494.25 2256.88,-1503.87 2263.85,-1504.53"/>
</g>
<!-- StorageReadSpeed -->
<g id="node24" class="node"><title>StorageReadSpeed</title>
<ellipse fill="none" stroke="black" cx="1891.44" cy="-1719" rx="77.1866" ry="18"/>
<text text-anchor="middle" x="1891.44" y="-1715.3" font-family="Times,serif" font-size="14.00">StorageReadSpeed</text>
</g>
<!-- StorageReadSpeed&#45;&gt;NumericAttribute -->
<g id="edge23" class="edge"><title>StorageReadSpeed&#45;&gt;NumericAttribute</title>
<path fill="none" stroke="black" d="M1956.93,-1728.63C2013.79,-1733.59 2096.35,-1731.81 2154.02,-1692 2219.03,-1647.12 2247.07,-1551.44 2257.36,-1503.94"/>
<polygon fill="black" stroke="black" points="2260.81,-1504.53 2259.4,-1494.03 2253.95,-1503.12 2260.81,-1504.53"/>
</g>
<!-- OperatingSystem -->
<g id="node25" class="node"><title>OperatingSystem</title>
<ellipse fill="none" stroke="black" cx="1891.44" cy="-1017" rx="72.2875" ry="18"/>
<text text-anchor="middle" x="1891.44" y="-1013.3" font-family="Times,serif" font-size="14.00">OperatingSystem</text>
</g>
<!-- OperatingSystem&#45;&gt;ChoiceAttribute -->
<g id="edge24" class="edge"><title>OperatingSystem&#45;&gt;ChoiceAttribute</title>
<path fill="none" stroke="black" d="M1961.17,-1011.98C2025.55,-1007.29 2121.51,-1000.28 2187.76,-995.451"/>
<polygon fill="black" stroke="black" points="2188.41,-998.913 2198.12,-994.695 2187.9,-991.932 2188.41,-998.913"/>
</g>
<!-- CpuCores -->
<g id="node26" class="node"><title>CpuCores</title>
<ellipse fill="none" stroke="black" cx="1891.44" cy="-1665" rx="46.2923" ry="18"/>
<text text-anchor="middle" x="1891.44" y="-1661.3" font-family="Times,serif" font-size="14.00">CpuCores</text>
</g>
<!-- CpuCores&#45;&gt;NumericAttribute -->
<g id="edge25" class="edge"><title>CpuCores&#45;&gt;NumericAttribute</title>
<path fill="none" stroke="black" d="M1935.29,-1671.12C1990.13,-1676.73 2086.16,-1678.85 2154.02,-1638 2205.44,-1607.05 2237.65,-1541.25 2252.6,-1503.73"/>
<polygon fill="black" stroke="black" points="2256.04,-1504.53 2256.36,-1493.94 2249.5,-1502.02 2256.04,-1504.53"/>
</g>
<!-- CpuClockSpeed -->
<g id="node27" class="node"><title>CpuClockSpeed</title>
<ellipse fill="none" stroke="black" cx="1891.44" cy="-1611" rx="67.6881" ry="18"/>
<text text-anchor="middle" x="1891.44" y="-1607.3" font-family="Times,serif" font-size="14.00">CpuClockSpeed</text>
</g>
<!-- CpuClockSpeed&#45;&gt;NumericAttribute -->
<g id="edge26" class="edge"><title>CpuClockSpeed&#45;&gt;NumericAttribute</title>
<path fill="none" stroke="black" d="M1956.38,-1616C2011.39,-1617.67 2091.53,-1613.65 2154.02,-1584 2192.62,-1565.68 2225.52,-1527.76 2244.65,-1502.09"/>
<polygon fill="black" stroke="black" points="2247.55,-1504.05 2250.59,-1493.9 2241.89,-1499.93 2247.55,-1504.05"/>
</g>
<!-- Ram -->
<g id="node28" class="node"><title>Ram</title>
<ellipse fill="none" stroke="black" cx="1891.44" cy="-1557" rx="27.8951" ry="18"/>
<text text-anchor="middle" x="1891.44" y="-1553.3" font-family="Times,serif" font-size="14.00">Ram</text>
</g>
<!-- Ram&#45;&gt;NumericAttribute -->
<g id="edge27" class="edge"><title>Ram&#45;&gt;NumericAttribute</title>
<path fill="none" stroke="black" d="M1919.4,-1557.36C1967.52,-1557.32 2070.93,-1554.11 2154.02,-1530 2179.53,-1522.6 2206.27,-1509.35 2226.81,-1497.83"/>
<polygon fill="black" stroke="black" points="2228.56,-1500.87 2235.5,-1492.86 2225.08,-1494.79 2228.56,-1500.87"/>
</g>
<!-- RamClockSpeed -->
<g id="node29" class="node"><title>RamClockSpeed</title>
<ellipse fill="none" stroke="black" cx="1891.44" cy="-1503" rx="70.3881" ry="18"/>
<text text-anchor="middle" x="1891.44" y="-1499.3" font-family="Times,serif" font-size="14.00">RamClockSpeed</text>
</g>
<!-- RamClockSpeed&#45;&gt;NumericAttribute -->
<g id="edge28" class="edge"><title>RamClockSpeed&#45;&gt;NumericAttribute</title>
<path fill="none" stroke="black" d="M1959.45,-1498.11C2022.24,-1493.53 2116.17,-1486.67 2182.78,-1481.81"/>
<polygon fill="black" stroke="black" points="2183.09,-1485.3 2192.81,-1481.08 2182.58,-1478.32 2183.09,-1485.3"/>
</g>
<!-- RamWriteSpeed -->
<g id="node30" class="node"><title>RamWriteSpeed</title>
<ellipse fill="none" stroke="black" cx="1891.44" cy="-1449" rx="69.5877" ry="18"/>
<text text-anchor="middle" x="1891.44" y="-1445.3" font-family="Times,serif" font-size="14.00">RamWriteSpeed</text>
</g>
<!-- RamWriteSpeed&#45;&gt;NumericAttribute -->
<g id="edge29" class="edge"><title>RamWriteSpeed&#45;&gt;NumericAttribute</title>
<path fill="none" stroke="black" d="M1958.59,-1453.83C2021.37,-1458.41 2115.81,-1465.3 2182.72,-1470.18"/>
<polygon fill="black" stroke="black" points="2182.57,-1473.68 2192.8,-1470.92 2183.08,-1466.7 2182.57,-1473.68"/>
</g>
<!-- RamReadSpeed -->
<g id="node31" class="node"><title>RamReadSpeed</title>
<ellipse fill="none" stroke="black" cx="1891.44" cy="-1395" rx="67.6881" ry="18"/>
<text text-anchor="middle" x="1891.44" y="-1391.3" font-family="Times,serif" font-size="14.00">RamReadSpeed</text>
</g>
<!-- RamReadSpeed&#45;&gt;NumericAttribute -->
<g id="edge30" class="edge"><title>RamReadSpeed&#45;&gt;NumericAttribute</title>
<path fill="none" stroke="black" d="M1959.27,-1395.34C2012.88,-1397.17 2089.57,-1403.3 2154.02,-1422 2179.53,-1429.4 2206.27,-1442.65 2226.81,-1454.17"/>
<polygon fill="black" stroke="black" points="2225.08,-1457.21 2235.5,-1459.14 2228.56,-1451.13 2225.08,-1457.21"/>
</g>
<!-- NetworkCapacity -->
<g id="node32" class="node"><title>NetworkCapacity</title>
<ellipse fill="none" stroke="black" cx="1891.44" cy="-1341" rx="72.5877" ry="18"/>
<text text-anchor="middle" x="1891.44" y="-1337.3" font-family="Times,serif" font-size="14.00">NetworkCapacity</text>
</g>
<!-- NetworkCapacity&#45;&gt;NumericAttribute -->
<g id="edge31" class="edge"><title>NetworkCapacity&#45;&gt;NumericAttribute</title>
<path fill="none" stroke="black" d="M1961.35,-1335.87C2016.14,-1334.59 2093.39,-1339.23 2154.02,-1368 2192.62,-1386.32 2225.52,-1424.24 2244.65,-1449.91"/>
<polygon fill="black" stroke="black" points="2241.89,-1452.07 2250.59,-1458.1 2247.55,-1447.95 2241.89,-1452.07"/>
</g>
<!-- NetworkUploadSpeed -->
<g id="node33" class="node"><title>NetworkUploadSpeed</title>
<ellipse fill="none" stroke="black" cx="1891.44" cy="-1287" rx="89.0842" ry="18"/>
<text text-anchor="middle" x="1891.44" y="-1283.3" font-family="Times,serif" font-size="14.00">NetworkUploadSpeed</text>
</g>
<!-- NetworkUploadSpeed&#45;&gt;NumericAttribute -->
<g id="edge32" class="edge"><title>NetworkUploadSpeed&#45;&gt;NumericAttribute</title>
<path fill="none" stroke="black" d="M1969.69,-1278.36C2024.86,-1275.96 2098.77,-1280.74 2154.02,-1314 2205.44,-1344.95 2237.65,-1410.75 2252.6,-1448.27"/>
<polygon fill="black" stroke="black" points="2249.5,-1449.98 2256.36,-1458.06 2256.04,-1447.47 2249.5,-1449.98"/>
</g>
<!-- NetworkDownloadSpeed -->
<g id="node34" class="node"><title>NetworkDownloadSpeed</title>
<ellipse fill="none" stroke="black" cx="1891.44" cy="-1233" rx="99.3824" ry="18"/>
<text text-anchor="middle" x="1891.44" y="-1229.3" font-family="Times,serif" font-size="14.00">NetworkDownloadSpeed</text>
</g>
<!-- NetworkDownloadSpeed&#45;&gt;NumericAttribute -->
<g id="edge33" class="edge"><title>NetworkDownloadSpeed&#45;&gt;NumericAttribute</title>
<path fill="none" stroke="black" d="M1971.6,-1222.29C2027.33,-1218.97 2101.14,-1223.5 2154.02,-1260 2219.03,-1304.88 2247.07,-1400.56 2257.36,-1448.06"/>
<polygon fill="black" stroke="black" points="2253.95,-1448.88 2259.4,-1457.97 2260.81,-1447.47 2253.95,-1448.88"/>
</g>
<!-- Price -->
<g id="node35" class="node"><title>Price</title>
<ellipse fill="none" stroke="black" cx="2263.46" cy="-504" rx="28.6953" ry="18"/>
<text text-anchor="middle" x="2263.46" y="-500.3" font-family="Times,serif" font-size="14.00">Price</text>
</g>
<!-- Price&#45;&gt;Attribute -->
<g id="edge34" class="edge"><title>Price&#45;&gt;Attribute</title>
<path fill="none" stroke="black" d="M2289.61,-511.623C2303.87,-516.37 2321.81,-523.077 2336.91,-531 2354.06,-540.007 2371.88,-552.236 2386.07,-562.779"/>
<polygon fill="black" stroke="black" points="2384.31,-565.839 2394.4,-569.082 2388.53,-560.257 2384.31,-565.839"/>
</g>
<!-- PricingModel -->
<g id="node36" class="node"><title>PricingModel</title>
<ellipse fill="none" stroke="black" cx="1891.44" cy="-963" rx="59.5901" ry="18"/>
<text text-anchor="middle" x="1891.44" y="-959.3" font-family="Times,serif" font-size="14.00">PricingModel</text>
</g>
<!-- PricingModel&#45;&gt;ChoiceAttribute -->
<g id="edge35" class="edge"><title>PricingModel&#45;&gt;ChoiceAttribute</title>
<path fill="none" stroke="black" d="M1949.85,-967.189C2013.89,-971.862 2117.7,-979.437 2187.96,-984.564"/>
<polygon fill="black" stroke="black" points="2187.84,-988.064 2198.07,-985.301 2188.35,-981.083 2187.84,-988.064"/>
</g>
<!-- Static -->
<g id="node37" class="node"><title>Static</title>
<ellipse fill="none" stroke="black" cx="1891.44" cy="-477" rx="30.5947" ry="18"/>
<text text-anchor="middle" x="1891.44" y="-473.3" font-family="Times,serif" font-size="14.00">Static</text>
</g>
<!-- Static&#45;&gt;NameAttribute -->
<g id="edge36" class="edge"><title>Static&#45;&gt;NameAttribute</title>
<path fill="none" stroke="black" d="M1921.88,-475.044C1971.59,-472.815 2074.52,-472.875 2154.02,-504 2172.64,-511.292 2172.47,-521.409 2190.02,-531 2196.5,-534.54 2203.53,-537.805 2210.59,-540.75"/>
<polygon fill="black" stroke="black" points="2209.6,-544.12 2220.18,-544.564 2212.18,-537.616 2209.6,-544.12"/>
</g>
<!-- Dynamic -->
<g id="node38" class="node"><title>Dynamic</title>
<ellipse fill="none" stroke="black" cx="1891.44" cy="-423" rx="43.5923" ry="18"/>
<text text-anchor="middle" x="1891.44" y="-419.3" font-family="Times,serif" font-size="14.00">Dynamic</text>
</g>
<!-- Dynamic&#45;&gt;NameAttribute -->
<g id="edge37" class="edge"><title>Dynamic&#45;&gt;NameAttribute</title>
<path fill="none" stroke="black" d="M1931.71,-415.766C1986.91,-407.895 2088.06,-402.14 2154.02,-450 2185.9,-473.137 2161.32,-504.012 2190.02,-531 2194.57,-535.284 2199.87,-538.903 2205.49,-541.957"/>
<polygon fill="black" stroke="black" points="2203.99,-545.121 2214.52,-546.306 2207.03,-538.814 2203.99,-545.121"/>
</g>
<!-- PayAndGo -->
<g id="node39" class="node"><title>PayAndGo</title>
<ellipse fill="none" stroke="black" cx="1326.39" cy="-531" rx="50.0912" ry="18"/>
<text text-anchor="middle" x="1326.39" y="-527.3" font-family="Times,serif" font-size="14.00">PayAndGo</text>
</g>
<!-- PayAndGo&#45;&gt;Static -->
<g id="edge38" class="edge"><title>PayAndGo&#45;&gt;Static</title>
<path fill="none" stroke="black" d="M1374.91,-526.443C1483.99,-515.981 1750.67,-490.405 1851.22,-480.762"/>
<polygon fill="black" stroke="black" points="1851.63,-484.238 1861.25,-479.799 1850.96,-477.27 1851.63,-484.238"/>
</g>
<!-- PayPerResource -->
<g id="node40" class="node"><title>PayPerResource</title>
<ellipse fill="none" stroke="black" cx="1326.39" cy="-477" rx="68.4888" ry="18"/>
<text text-anchor="middle" x="1326.39" y="-473.3" font-family="Times,serif" font-size="14.00">PayPerResource</text>
</g>
<!-- PayPerResource&#45;&gt;Static -->
<g id="edge39" class="edge"><title>PayPerResource&#45;&gt;Static</title>
<path fill="none" stroke="black" d="M1394.75,-477C1513.2,-477 1755.26,-477 1850.59,-477"/>
<polygon fill="black" stroke="black" points="1850.68,-480.5 1860.68,-477 1850.68,-473.5 1850.68,-480.5"/>
</g>
<!-- Subscription -->
<g id="node41" class="node"><title>Subscription</title>
<ellipse fill="none" stroke="black" cx="1326.39" cy="-423" rx="55.4913" ry="18"/>
<text text-anchor="middle" x="1326.39" y="-419.3" font-family="Times,serif" font-size="14.00">Subscription</text>
</g>
<!-- Subscription&#45;&gt;Static -->
<g id="edge40" class="edge"><title>Subscription&#45;&gt;Static</title>
<path fill="none" stroke="black" d="M1379.6,-428.008C1491.39,-438.729 1751.79,-463.702 1851.05,-473.222"/>
<polygon fill="black" stroke="black" points="1850.95,-476.729 1861.24,-474.2 1851.62,-469.761 1850.95,-476.729"/>
</g>
<!-- Euro -->
<g id="node42" class="node"><title>Euro</title>
<ellipse fill="none" stroke="black" cx="1891.44" cy="-369" rx="27.8951" ry="18"/>
<text text-anchor="middle" x="1891.44" y="-365.3" font-family="Times,serif" font-size="14.00">Euro</text>
</g>
<!-- Euro&#45;&gt;NameAttribute -->
<g id="edge41" class="edge"><title>Euro&#45;&gt;NameAttribute</title>
<path fill="none" stroke="black" d="M1917.99,-363.103C1969.38,-352.867 2086.13,-338.057 2154.02,-396 2201.25,-436.313 2148.27,-485.032 2190.02,-531 2194.01,-535.392 2198.78,-539.072 2203.94,-542.156"/>
<polygon fill="black" stroke="black" points="2202.45,-545.322 2212.94,-546.802 2205.66,-539.102 2202.45,-545.322"/>
</g>
<!-- UsDollar -->
<g id="node43" class="node"><title>UsDollar</title>
<ellipse fill="none" stroke="black" cx="1891.44" cy="-315" rx="42.7926" ry="18"/>
<text text-anchor="middle" x="1891.44" y="-311.3" font-family="Times,serif" font-size="14.00">UsDollar</text>
</g>
<!-- UsDollar&#45;&gt;NameAttribute -->
<g id="edge42" class="edge"><title>UsDollar&#45;&gt;NameAttribute</title>
<path fill="none" stroke="black" d="M1929.57,-306.464C1985.84,-295.922 2092.64,-285.653 2154.02,-342 2217.01,-399.83 2134.86,-465.66 2190.02,-531 2193.85,-535.533 2198.51,-539.306 2203.61,-542.446"/>
<polygon fill="black" stroke="black" points="2202.06,-545.583 2212.53,-547.155 2205.32,-539.392 2202.06,-545.583"/>
</g>
<!-- JapaneseYen -->
<g id="node44" class="node"><title>JapaneseYen</title>
<ellipse fill="none" stroke="black" cx="1891.44" cy="-261" rx="56.59" ry="18"/>
<text text-anchor="middle" x="1891.44" y="-257.3" font-family="Times,serif" font-size="14.00">JapaneseYen</text>
</g>
<!-- JapaneseYen&#45;&gt;NameAttribute -->
<g id="edge43" class="edge"><title>JapaneseYen&#45;&gt;NameAttribute</title>
<path fill="none" stroke="black" d="M1938.09,-250.633C1996.41,-240.347 2096.62,-233.085 2154.02,-288 2232.91,-363.475 2121.32,-446.144 2190.02,-531 2193.61,-535.434 2198,-539.139 2202.83,-542.236"/>
<polygon fill="black" stroke="black" points="2201.47,-545.479 2211.93,-547.18 2204.81,-539.329 2201.47,-545.479"/>
</g>
<!-- DatabaseAsAService -->
<g id="node45" class="node"><title>DatabaseAsAService</title>
<ellipse fill="none" stroke="black" cx="1326.39" cy="-153" rx="85.2851" ry="18"/>
<text text-anchor="middle" x="1326.39" y="-149.3" font-family="Times,serif" font-size="14.00">DatabaseAsAService</text>
</g>
<!-- DatabaseAsAService&#45;&gt;SaaS -->
<g id="edge44" class="edge"><title>DatabaseAsAService&#45;&gt;SaaS</title>
<path fill="none" stroke="black" d="M1411.68,-153C1535.79,-153 1762.68,-153 1852.44,-153"/>
<polygon fill="black" stroke="black" points="1852.69,-156.5 1862.69,-153 1852.69,-149.5 1852.69,-156.5"/>
</g>
<!-- SQLDatabaseAsAService -->
<g id="node46" class="node"><title>SQLDatabaseAsAService</title>
<ellipse fill="none" stroke="black" cx="775.634" cy="-207" rx="102.082" ry="18"/>
<text text-anchor="middle" x="775.634" y="-203.3" font-family="Times,serif" font-size="14.00">SQLDatabaseAsAService</text>
</g>
<!-- SQLDatabaseAsAService&#45;&gt;DatabaseAsAService -->
<g id="edge45" class="edge"><title>SQLDatabaseAsAService&#45;&gt;DatabaseAsAService</title>
<path fill="none" stroke="black" d="M865.106,-198.294C967.937,-188.175 1136.54,-171.583 1238.63,-161.537"/>
<polygon fill="black" stroke="black" points="1239,-165.018 1248.61,-160.556 1238.31,-158.052 1239,-165.018"/>
</g>
<!-- NoSQLDatabaseAsAService -->
<g id="node47" class="node"><title>NoSQLDatabaseAsAService</title>
<ellipse fill="none" stroke="black" cx="775.634" cy="-153" rx="112.38" ry="18"/>
<text text-anchor="middle" x="775.634" y="-149.3" font-family="Times,serif" font-size="14.00">NoSQLDatabaseAsAService</text>
</g>
<!-- NoSQLDatabaseAsAService&#45;&gt;DatabaseAsAService -->
<g id="edge46" class="edge"><title>NoSQLDatabaseAsAService&#45;&gt;DatabaseAsAService</title>
<path fill="none" stroke="black" d="M888.344,-153C989.181,-153 1135.89,-153 1230.99,-153"/>
<polygon fill="black" stroke="black" points="1231.17,-156.5 1241.17,-153 1231.17,-149.5 1231.17,-156.5"/>
</g>
<!-- github.com/supermuesli/csdl@examples/Requirement1.py@latest -->
<g id="node48" class="node"><title>github.com/supermuesli/csdl@examples/Requirement1.py@latest</title>
<ellipse fill="none" stroke="black" cx="245.678" cy="-72" rx="245.857" ry="18"/>
<text text-anchor="middle" x="245.678" y="-68.3" font-family="Times,serif" font-size="14.00">github.com/supermuesli/csdl@examples/Requirement1.py@latest</text>
</g>
<!-- github.com/supermuesli/csdl@examples/Requirement1.py@latest&#45;&gt;VMAsAService -->
<g id="edge47" class="edge"><title>github.com/supermuesli/csdl@examples/Requirement1.py@latest&#45;&gt;VMAsAService</title>
<path fill="none" stroke="black" d="M447.782,-61.7154C535.605,-57.2241 633.286,-52.2286 698.791,-48.8787"/>
<polygon fill="black" stroke="black" points="699.214,-52.3617 709.022,-48.3555 698.856,-45.3709 699.214,-52.3617"/>
</g>
<!-- github.com/supermuesli/csdl@misc/StaticIp.py@latest -->
<g id="node49" class="node"><title>github.com/supermuesli/csdl@misc/StaticIp.py@latest</title>
<ellipse fill="none" stroke="black" cx="1891.44" cy="-1179" rx="206.063" ry="18"/>
<text text-anchor="middle" x="1891.44" y="-1175.3" font-family="Times,serif" font-size="14.00">github.com/supermuesli/csdl@misc/StaticIp.py@latest</text>
</g>
<!-- github.com/supermuesli/csdl@misc/StaticIp.py@latest&#45;&gt;NumericAttribute -->
<g id="edge48" class="edge"><title>github.com/supermuesli/csdl@misc/StaticIp.py@latest&#45;&gt;NumericAttribute</title>
<path fill="none" stroke="black" d="M2097.2,-1177.98C2117.64,-1184.2 2137.07,-1193.22 2154.02,-1206 2232.85,-1265.41 2254.52,-1391.44 2260.36,-1447.77"/>
<polygon fill="black" stroke="black" points="2256.88,-1448.13 2261.3,-1457.75 2263.85,-1447.47 2256.88,-1448.13"/>
</g>
<!-- github.com/supermuesli/csdl@aws/ec2/A1Large.py@latest -->
<g id="node50" class="node"><title>github.com/supermuesli/csdl@aws/ec2/A1Large.py@latest</title>
<ellipse fill="none" stroke="black" cx="245.678" cy="-18" rx="221.761" ry="18"/>
<text text-anchor="middle" x="245.678" y="-14.3" font-family="Times,serif" font-size="14.00">github.com/supermuesli/csdl@aws/ec2/A1Large.py@latest</text>
</g>
<!-- github.com/supermuesli/csdl@aws/ec2/A1Large.py@latest&#45;&gt;VMAsAService -->
<g id="edge49" class="edge"><title>github.com/supermuesli/csdl@aws/ec2/A1Large.py@latest&#45;&gt;VMAsAService</title>
<path fill="none" stroke="black" d="M433.559,-27.5572C524.834,-32.2251 629.59,-37.5823 698.656,-41.1144"/>
<polygon fill="black" stroke="black" points="698.838,-44.6282 709.004,-41.6436 699.195,-37.6373 698.838,-44.6282"/>
</g>
<!-- github.com/supermuesli/csdl@aws/regions/Region.py@latest -->
<g id="node51" class="node"><title>github.com/supermuesli/csdl@aws/regions/Region.py@latest</title>
<ellipse fill="none" stroke="black" cx="1891.44" cy="-909" rx="229.359" ry="18"/>
<text text-anchor="middle" x="1891.44" y="-905.3" font-family="Times,serif" font-size="14.00">github.com/supermuesli/csdl@aws/regions/Region.py@latest</text>
</g>
<!-- github.com/supermuesli/csdl@aws/regions/Region.py@latest&#45;&gt;ChoiceAttribute -->
<g id="edge50" class="edge"><title>github.com/supermuesli/csdl@aws/regions/Region.py@latest&#45;&gt;ChoiceAttribute</title>
<path fill="none" stroke="black" d="M2076.99,-919.643C2103.14,-923.575 2129.47,-928.875 2154.02,-936 2179.71,-943.455 2206.64,-956.83 2227.23,-968.403"/>
<polygon fill="black" stroke="black" points="2225.52,-971.456 2235.94,-973.398 2229.01,-965.385 2225.52,-971.456"/>
</g>
<!-- github.com/supermuesli/csdl@misc/countries/USA.py@latest -->
<g id="node52" class="node"><title>github.com/supermuesli/csdl@misc/countries/USA.py@latest</title>
<ellipse fill="none" stroke="black" cx="1326.39" cy="-855" rx="231.259" ry="18"/>
<text text-anchor="middle" x="1326.39" y="-851.3" font-family="Times,serif" font-size="14.00">github.com/supermuesli/csdl@misc/countries/USA.py@latest</text>
</g>
<!-- github.com/supermuesli/csdl@misc/countries/USA.py@latest&#45;&gt;NorthAmerica -->
<g id="edge51" class="edge"><title>github.com/supermuesli/csdl@misc/countries/USA.py@latest&#45;&gt;NorthAmerica</title>
<path fill="none" stroke="black" d="M1558.03,-855C1651.86,-855 1753.5,-855 1819.35,-855"/>
<polygon fill="black" stroke="black" points="1819.61,-858.5 1829.61,-855 1819.61,-851.5 1819.61,-858.5"/>
</g>
<!-- github.com/supermuesli/csdl@aws/regions/California.py@latest -->
<g id="node53" class="node"><title>github.com/supermuesli/csdl@aws/regions/California.py@latest</title>
<ellipse fill="none" stroke="black" cx="775.634" cy="-909" rx="239.358" ry="18"/>
<text text-anchor="middle" x="775.634" y="-905.3" font-family="Times,serif" font-size="14.00">github.com/supermuesli/csdl@aws/regions/California.py@latest</text>
</g>
<!-- github.com/supermuesli/csdl@aws/regions/California.py@latest&#45;&gt;github.com/supermuesli/csdl@misc/countries/USA.py@latest -->
<g id="edge52" class="edge"><title>github.com/supermuesli/csdl@aws/regions/California.py@latest&#45;&gt;github.com/supermuesli/csdl@misc/countries/USA.py@latest</title>
<path fill="none" stroke="black" d="M921.89,-894.706C999.083,-887.11 1093.94,-877.776 1172.28,-870.067"/>
<polygon fill="black" stroke="black" points="1172.63,-873.549 1182.24,-869.087 1171.94,-866.583 1172.63,-873.549"/>
</g>
<!-- github.com/supermuesli/csdl@aws/regions/EastVirginia.py@latest -->
<g id="node54" class="node"><title>github.com/supermuesli/csdl@aws/regions/EastVirginia.py@latest</title>
<ellipse fill="none" stroke="black" cx="775.634" cy="-855" rx="248.056" ry="18"/>
<text text-anchor="middle" x="775.634" y="-851.3" font-family="Times,serif" font-size="14.00">github.com/supermuesli/csdl@aws/regions/EastVirginia.py@latest</text>
</g>
<!-- github.com/supermuesli/csdl@aws/regions/EastVirginia.py@latest&#45;&gt;github.com/supermuesli/csdl@misc/countries/USA.py@latest -->
<g id="edge53" class="edge"><title>github.com/supermuesli/csdl@aws/regions/EastVirginia.py@latest&#45;&gt;github.com/supermuesli/csdl@misc/countries/USA.py@latest</title>
<path fill="none" stroke="black" d="M1024.12,-855C1044.3,-855 1064.68,-855 1084.82,-855"/>
<polygon fill="black" stroke="black" points="1085,-858.5 1095,-855 1085,-851.5 1085,-858.5"/>
</g>
<!-- github.com/supermuesli/csdl@aws/regions/NewYork.py@latest -->
<g id="node55" class="node"><title>github.com/supermuesli/csdl@aws/regions/NewYork.py@latest</title>
<ellipse fill="none" stroke="black" cx="775.634" cy="-801" rx="238.558" ry="18"/>
<text text-anchor="middle" x="775.634" y="-797.3" font-family="Times,serif" font-size="14.00">github.com/supermuesli/csdl@aws/regions/NewYork.py@latest</text>
</g>
<!-- github.com/supermuesli/csdl@aws/regions/NewYork.py@latest&#45;&gt;github.com/supermuesli/csdl@misc/countries/USA.py@latest -->
<g id="edge54" class="edge"><title>github.com/supermuesli/csdl@aws/regions/NewYork.py@latest&#45;&gt;github.com/supermuesli/csdl@misc/countries/USA.py@latest</title>
<path fill="none" stroke="black" d="M921.531,-815.258C998.725,-822.855 1093.66,-832.197 1172.09,-839.915"/>
<polygon fill="black" stroke="black" points="1171.76,-843.399 1182.06,-840.896 1172.45,-836.433 1171.76,-843.399"/>
</g>
<!-- github.com/supermuesli/csdl@aws/EBS.py@latest -->
<g id="node56" class="node"><title>github.com/supermuesli/csdl@aws/EBS.py@latest</title>
<ellipse fill="none" stroke="black" cx="775.634" cy="-99" rx="191.966" ry="18"/>
<text text-anchor="middle" x="775.634" y="-95.3" font-family="Times,serif" font-size="14.00">github.com/supermuesli/csdl@aws/EBS.py@latest</text>
</g>
<!-- github.com/supermuesli/csdl@aws/EBS.py@latest&#45;&gt;StorageAsAService -->
<g id="edge55" class="edge"><title>github.com/supermuesli/csdl@aws/EBS.py@latest&#45;&gt;StorageAsAService</title>
<path fill="none" stroke="black" d="M967.407,-99C1058.73,-99 1163.71,-99 1236.26,-99"/>
<polygon fill="black" stroke="black" points="1236.28,-102.5 1246.28,-99 1236.28,-95.5001 1236.28,-102.5"/>
</g>
<!-- github.com/supermuesli/csdl@aws/ec2/ElasticIpAmount.py@latest -->
<g id="node57" class="node"><title>github.com/supermuesli/csdl@aws/ec2/ElasticIpAmount.py@latest</title>
<ellipse fill="none" stroke="black" cx="1326.39" cy="-1179" rx="250.756" ry="18"/>
<text text-anchor="middle" x="1326.39" y="-1175.3" font-family="Times,serif" font-size="14.00">github.com/supermuesli/csdl@aws/ec2/ElasticIpAmount.py@latest</text>
</g>
<!-- github.com/supermuesli/csdl@aws/ec2/ElasticIpAmount.py@latest&#45;&gt;github.com/supermuesli/csdl@misc/StaticIp.py@latest -->
<g id="edge56" class="edge"><title>github.com/supermuesli/csdl@aws/ec2/ElasticIpAmount.py@latest&#45;&gt;github.com/supermuesli/csdl@misc/StaticIp.py@latest</title>
<path fill="none" stroke="black" d="M1577.63,-1179C1610.1,-1179 1643.12,-1179 1674.96,-1179"/>
<polygon fill="black" stroke="black" points="1675.25,-1182.5 1685.25,-1179 1675.25,-1175.5 1675.25,-1182.5"/>
</g>
<!-- github.com/supermuesli/csdl@misc/currencies/AllCurrencies.py@latest -->
<g id="node58" class="node"><title>github.com/supermuesli/csdl@misc/currencies/AllCurrencies.py@latest</title>
<ellipse fill="none" stroke="black" cx="1326.39" cy="-1071" rx="266.453" ry="18"/>
<text text-anchor="middle" x="1326.39" y="-1067.3" font-family="Times,serif" font-size="14.00">github.com/supermuesli/csdl@misc/currencies/AllCurrencies.py@latest</text>
</g>
<!-- github.com/supermuesli/csdl@misc/currencies/AllCurrencies.py@latest&#45;&gt;Currency -->
<g id="edge57" class="edge"><title>github.com/supermuesli/csdl@misc/currencies/AllCurrencies.py@latest&#45;&gt;Currency</title>
<path fill="none" stroke="black" d="M1593.25,-1071C1685.73,-1071 1780.47,-1071 1837.39,-1071"/>
<polygon fill="black" stroke="black" points="1837.57,-1074.5 1847.57,-1071 1837.57,-1067.5 1837.57,-1074.5"/>
</g>
<!-- github.com/supermuesli/csdl@misc/currencies/IndianRupee.py@latest -->
<g id="node59" class="node"><title>github.com/supermuesli/csdl@misc/currencies/IndianRupee.py@latest</title>
<ellipse fill="none" stroke="black" cx="1891.44" cy="-207" rx="262.653" ry="18"/>
<text text-anchor="middle" x="1891.44" y="-203.3" font-family="Times,serif" font-size="14.00">github.com/supermuesli/csdl@misc/currencies/IndianRupee.py@latest</text>
</g>
<!-- github.com/supermuesli/csdl@misc/currencies/IndianRupee.py@latest&#45;&gt;NameAttribute -->
<g id="edge58" class="edge"><title>github.com/supermuesli/csdl@misc/currencies/IndianRupee.py@latest&#45;&gt;NameAttribute</title>
<path fill="none" stroke="black" d="M1986.21,-190.19C2042.31,-185.865 2110.87,-191.608 2154.02,-234 2248.87,-327.182 2107.73,-426.558 2190.02,-531 2193.55,-535.481 2197.9,-539.218 2202.71,-542.335"/>
<polygon fill="black" stroke="black" points="2201.32,-545.566 2211.78,-547.302 2204.69,-539.427 2201.32,-545.566"/>
</g>
</g>
</svg>
