<?xml version="1.0" encoding="UTF-8" standalone="no"?>
<!DOCTYPE svg PUBLIC "-//W3C//DTD SVG 1.1//EN"
 "http://www.w3.org/Graphics/SVG/1.1/DTD/svg11.dtd">
<!-- Generated by graphviz version 2.38.0 (20140413.2041)
 -->
<!-- Title: %3 Pages: 1 -->
<svg width="326pt" height="98pt"
 viewBox="0.00 0.00 326.38 98.00" xmlns="http://www.w3.org/2000/svg" xmlns:xlink="http://www.w3.org/1999/xlink">
<g id="graph0" class="graph" transform="scale(1 1) rotate(0) translate(4 94)">
<title>%3</title>
<polygon fill="white" stroke="none" points="-4,4 -4,-94 322.383,-94 322.383,4 -4,4"/>
<!-- IaaS -->
<g id="node1" class="node"><title>IaaS</title>
<ellipse fill="none" stroke="black" cx="27" cy="-45" rx="27" ry="18"/>
<text text-anchor="middle" x="27" y="-41.3" font-family="Times,serif" font-size="14.00">IaaS</text>
</g>
<!-- Price -->
<g id="node2" class="node"><title>Price</title>
<ellipse fill="none" stroke="black" cx="126.397" cy="-72" rx="28.6953" ry="18"/>
<text text-anchor="middle" x="126.397" y="-68.3" font-family="Times,serif" font-size="14.00">Price</text>
</g>
<!-- IaaS&#45;&gt;Price -->
<g id="edge1" class="edge"><title>IaaS&#45;&gt;Price</title>
<path fill="none" stroke="red" d="M52.0756,-51.6742C63.5436,-54.8533 77.4837,-58.7177 90.1171,-62.2199"/>
<polygon fill="red" stroke="red" points="89.3248,-65.6322 99.8964,-64.9309 91.1948,-58.8866 89.3248,-65.6322"/>
</g>
<!-- Region -->
<g id="node4" class="node"><title>Region</title>
<ellipse fill="none" stroke="black" cx="126.397" cy="-18" rx="36.2938" ry="18"/>
<text text-anchor="middle" x="126.397" y="-14.3" font-family="Times,serif" font-size="14.00">Region</text>
</g>
<!-- IaaS&#45;&gt;Region -->
<g id="edge3" class="edge"><title>IaaS&#45;&gt;Region</title>
<path fill="none" stroke="red" d="M52.0756,-38.3258C61.8228,-35.6238 73.3559,-32.4266 84.3547,-29.3776"/>
<polygon fill="red" stroke="red" points="85.5372,-32.6818 94.2387,-26.6375 83.6671,-25.9362 85.5372,-32.6818"/>
</g>
<!-- PricingModel -->
<g id="node3" class="node"><title>PricingModel</title>
<ellipse fill="none" stroke="black" cx="258.588" cy="-72" rx="59.5901" ry="18"/>
<text text-anchor="middle" x="258.588" y="-68.3" font-family="Times,serif" font-size="14.00">PricingModel</text>
</g>
<!-- Price&#45;&gt;PricingModel -->
<g id="edge2" class="edge"><title>Price&#45;&gt;PricingModel</title>
<path fill="none" stroke="red" d="M155.007,-72C164.979,-72 176.731,-72 188.655,-72"/>
<polygon fill="red" stroke="red" points="188.676,-75.5001 198.676,-72 188.676,-68.5001 188.676,-75.5001"/>
</g>
</g>
</svg>
