<?xml version="1.0" encoding="UTF-8" standalone="no"?>
<!DOCTYPE svg PUBLIC "-//W3C//DTD SVG 1.1//EN"
 "http://www.w3.org/Graphics/SVG/1.1/DTD/svg11.dtd">
<!-- Generated by graphviz version 2.38.0 (20140413.2041)
 -->
<!-- Title: %3 Pages: 1 -->
<svg width="482pt" height="44pt"
 viewBox="0.00 0.00 481.66 44.00" xmlns="http://www.w3.org/2000/svg" xmlns:xlink="http://www.w3.org/1999/xlink">
<g id="graph0" class="graph" transform="scale(1 1) rotate(0) translate(4 40)">
<title>%3</title>
<polygon fill="white" stroke="none" points="-4,4 -4,-40 477.664,-40 477.664,4 -4,4"/>
<!-- NoSQLDatabaseAsAService -->
<g id="node1" class="node"><title>NoSQLDatabaseAsAService</title>
<ellipse fill="none" stroke="black" cx="112.44" cy="-18" rx="112.38" ry="18"/>
<text text-anchor="middle" x="112.44" y="-14.3" font-family="Times,serif" font-size="14.00">NoSQLDatabaseAsAService</text>
</g>
<!-- Price -->
<g id="node2" class="node"><title>Price</title>
<ellipse fill="none" stroke="black" cx="289.478" cy="-18" rx="28.6953" ry="18"/>
<text text-anchor="middle" x="289.478" y="-14.3" font-family="Times,serif" font-size="14.00">Price</text>
</g>
<!-- NoSQLDatabaseAsAService&#45;&gt;Price -->
<g id="edge1" class="edge"><title>NoSQLDatabaseAsAService&#45;&gt;Price</title>
<path fill="none" stroke="red" d="M225.285,-18C234.221,-18 242.79,-18 250.576,-18"/>
<polygon fill="red" stroke="red" points="250.67,-21.5001 260.67,-18 250.67,-14.5001 250.67,-21.5001"/>
</g>
<!-- PricingModel -->
<g id="node3" class="node"><title>PricingModel</title>
<ellipse fill="none" stroke="black" cx="413.87" cy="-18" rx="59.5901" ry="18"/>
<text text-anchor="middle" x="413.87" y="-14.3" font-family="Times,serif" font-size="14.00">PricingModel</text>
</g>
<!-- Price&#45;&gt;PricingModel -->
<g id="edge2" class="edge"><title>Price&#45;&gt;PricingModel</title>
<path fill="none" stroke="red" d="M318.25,-18C325.937,-18 334.638,-18 343.574,-18"/>
<polygon fill="red" stroke="red" points="343.721,-21.5001 353.721,-18 343.721,-14.5001 343.721,-21.5001"/>
</g>
</g>
</svg>
