<?xml version="1.0" encoding="UTF-8" standalone="no"?>
<!DOCTYPE svg PUBLIC "-//W3C//DTD SVG 1.1//EN"
 "http://www.w3.org/Graphics/SVG/1.1/DTD/svg11.dtd">
<!-- Generated by graphviz version 2.38.0 (20140413.2041)
 -->
<!-- Title: %3 Pages: 1 -->
<svg width="482pt" height="98pt"
 viewBox="0.00 0.00 481.66 98.00" xmlns="http://www.w3.org/2000/svg" xmlns:xlink="http://www.w3.org/1999/xlink">
<g id="graph0" class="graph" transform="scale(1 1) rotate(0) translate(4 94)">
<title>%3</title>
<polygon fill="white" stroke="none" points="-4,4 -4,-94 477.664,-94 477.664,4 -4,4"/>
<!-- NoSQLDatabaseAsAService -->
<g id="node1" class="node"><title>NoSQLDatabaseAsAService</title>
<ellipse fill="none" stroke="black" cx="112.44" cy="-45" rx="112.38" ry="18"/>
<text text-anchor="middle" x="112.44" y="-41.3" font-family="Times,serif" font-size="14.00">NoSQLDatabaseAsAService</text>
</g>
<!-- Price -->
<g id="node2" class="node"><title>Price</title>
<ellipse fill="none" stroke="black" cx="289.478" cy="-45" rx="28.6953" ry="18"/>
<text text-anchor="middle" x="289.478" y="-41.3" font-family="Times,serif" font-size="14.00">Price</text>
</g>
<!-- NoSQLDatabaseAsAService&#45;&gt;Price -->
<g id="edge1" class="edge"><title>NoSQLDatabaseAsAService&#45;&gt;Price</title>
<path fill="none" stroke="red" d="M225.285,-45C234.221,-45 242.79,-45 250.576,-45"/>
<polygon fill="red" stroke="red" points="250.67,-48.5001 260.67,-45 250.67,-41.5001 250.67,-48.5001"/>
</g>
<!-- Currency -->
<g id="node3" class="node"><title>Currency</title>
<ellipse fill="none" stroke="black" cx="413.87" cy="-72" rx="43.5923" ry="18"/>
<text text-anchor="middle" x="413.87" y="-68.3" font-family="Times,serif" font-size="14.00">Currency</text>
</g>
<!-- Price&#45;&gt;Currency -->
<g id="edge2" class="edge"><title>Price&#45;&gt;Currency</title>
<path fill="none" stroke="red" d="M316.734,-50.7922C330.81,-53.8975 348.596,-57.8211 365.031,-61.4466"/>
<polygon fill="red" stroke="red" points="364.524,-64.919 375.044,-63.6555 366.032,-58.0833 364.524,-64.919"/>
</g>
<!-- PricingModel -->
<g id="node4" class="node"><title>PricingModel</title>
<ellipse fill="none" stroke="black" cx="413.87" cy="-18" rx="59.5901" ry="18"/>
<text text-anchor="middle" x="413.87" y="-14.3" font-family="Times,serif" font-size="14.00">PricingModel</text>
</g>
<!-- Price&#45;&gt;PricingModel -->
<g id="edge3" class="edge"><title>Price&#45;&gt;PricingModel</title>
<path fill="none" stroke="red" d="M316.734,-39.2078C327.928,-36.7383 341.469,-33.7513 354.81,-30.8082"/>
<polygon fill="red" stroke="red" points="355.919,-34.1476 364.931,-28.5755 354.411,-27.312 355.919,-34.1476"/>
</g>
</g>
</svg>
