<?xml version="1.0" encoding="UTF-8" standalone="no"?>
<!DOCTYPE svg PUBLIC "-//W3C//DTD SVG 1.1//EN"
 "http://www.w3.org/Graphics/SVG/1.1/DTD/svg11.dtd">
<!-- Generated by graphviz version 2.38.0 (20140413.2041)
 -->
<!-- Title: %3 Pages: 1 -->
<svg width="280pt" height="44pt"
 viewBox="0.00 0.00 280.18 44.00" xmlns="http://www.w3.org/2000/svg" xmlns:xlink="http://www.w3.org/1999/xlink">
<g id="graph0" class="graph" transform="scale(1 1) rotate(0) translate(4 40)">
<title>%3</title>
<polygon fill="white" stroke="none" points="-4,4 -4,-40 276.182,-40 276.182,4 -4,4"/>
<!-- Price -->
<g id="node1" class="node"><title>Price</title>
<ellipse fill="none" stroke="black" cx="28.5975" cy="-18" rx="28.6953" ry="18"/>
<text text-anchor="middle" x="28.5975" y="-14.3" font-family="Times,serif" font-size="14.00">Price</text>
</g>
<!-- Currency -->
<g id="node2" class="node"><title>Currency</title>
<ellipse fill="none" stroke="black" cx="136.741" cy="-18" rx="43.5923" ry="18"/>
<text text-anchor="middle" x="136.741" y="-14.3" font-family="Times,serif" font-size="14.00">Currency</text>
</g>
<!-- Price&#45;&gt;Currency -->
<g id="edge1" class="edge"><title>Price&#45;&gt;Currency</title>
<path fill="none" stroke="red" d="M57.2084,-18C65.1524,-18 74.0939,-18 83.0221,-18"/>
<polygon fill="red" stroke="red" points="83.0428,-21.5001 93.0427,-18 83.0427,-14.5001 83.0428,-21.5001"/>
</g>
<!-- Euro -->
<g id="node3" class="node"><title>Euro</title>
<ellipse fill="none" stroke="black" cx="244.235" cy="-18" rx="27.8951" ry="18"/>
<text text-anchor="middle" x="244.235" y="-14.3" font-family="Times,serif" font-size="14.00">Euro</text>
</g>
<!-- Currency&#45;&gt;Euro -->
<g id="edge2" class="edge"><title>Currency&#45;&gt;Euro</title>
<path fill="none" stroke="red" d="M180.345,-18C188.869,-18 197.761,-18 206.083,-18"/>
<polygon fill="red" stroke="red" points="206.249,-21.5001 216.249,-18 206.249,-14.5001 206.249,-21.5001"/>
</g>
</g>
</svg>
