<?xml version="1.0" encoding="UTF-8" standalone="no"?>
<!DOCTYPE svg PUBLIC "-//W3C//DTD SVG 1.1//EN"
 "http://www.w3.org/Graphics/SVG/1.1/DTD/svg11.dtd">
<!-- Generated by graphviz version 2.38.0 (20140413.2041)
 -->
<!-- Title: %3 Pages: 1 -->
<svg width="313pt" height="98pt"
 viewBox="0.00 0.00 312.68 98.00" xmlns="http://www.w3.org/2000/svg" xmlns:xlink="http://www.w3.org/1999/xlink">
<g id="graph0" class="graph" transform="scale(1 1) rotate(0) translate(4 94)">
<title>%3</title>
<polygon fill="white" stroke="none" points="-4,4 -4,-94 308.679,-94 308.679,4 -4,4"/>
<!-- Price -->
<g id="node1" class="node"><title>Price</title>
<ellipse fill="none" stroke="black" cx="28.5975" cy="-45" rx="28.6953" ry="18"/>
<text text-anchor="middle" x="28.5975" y="-41.3" font-family="Times,serif" font-size="14.00">Price</text>
</g>
<!-- Currency -->
<g id="node2" class="node"><title>Currency</title>
<ellipse fill="none" stroke="black" cx="152.99" cy="-72" rx="43.5923" ry="18"/>
<text text-anchor="middle" x="152.99" y="-68.3" font-family="Times,serif" font-size="14.00">Currency</text>
</g>
<!-- Price&#45;&gt;Currency -->
<g id="edge1" class="edge"><title>Price&#45;&gt;Currency</title>
<path fill="none" stroke="red" d="M55.8537,-50.7922C69.9302,-53.8975 87.7159,-57.8211 104.151,-61.4466"/>
<polygon fill="red" stroke="red" points="103.644,-64.919 114.164,-63.6555 105.152,-58.0833 103.644,-64.919"/>
</g>
<!-- PricingModel -->
<g id="node4" class="node"><title>PricingModel</title>
<ellipse fill="none" stroke="black" cx="152.99" cy="-18" rx="59.5901" ry="18"/>
<text text-anchor="middle" x="152.99" y="-14.3" font-family="Times,serif" font-size="14.00">PricingModel</text>
</g>
<!-- Price&#45;&gt;PricingModel -->
<g id="edge3" class="edge"><title>Price&#45;&gt;PricingModel</title>
<path fill="none" stroke="red" d="M55.8537,-39.2078C67.0481,-36.7383 80.5885,-33.7513 93.9296,-30.8082"/>
<polygon fill="red" stroke="red" points="95.0393,-34.1476 104.051,-28.5755 93.5313,-27.312 95.0393,-34.1476"/>
</g>
<!-- Euro -->
<g id="node3" class="node"><title>Euro</title>
<ellipse fill="none" stroke="black" cx="276.732" cy="-72" rx="27.8951" ry="18"/>
<text text-anchor="middle" x="276.732" y="-68.3" font-family="Times,serif" font-size="14.00">Euro</text>
</g>
<!-- Currency&#45;&gt;Euro -->
<g id="edge2" class="edge"><title>Currency&#45;&gt;Euro</title>
<path fill="none" stroke="red" d="M196.569,-72C210.204,-72 225.188,-72 238.417,-72"/>
<polygon fill="red" stroke="red" points="238.59,-75.5001 248.59,-72 238.59,-68.5001 238.59,-75.5001"/>
</g>
</g>
</svg>
