<?xml version="1.0" encoding="UTF-8" standalone="no"?>
<!DOCTYPE svg PUBLIC "-//W3C//DTD SVG 1.1//EN"
 "http://www.w3.org/Graphics/SVG/1.1/DTD/svg11.dtd">
<!-- Generated by graphviz version 2.38.0 (20140413.2041)
 -->
<!-- Title: %3 Pages: 1 -->
<svg width="314pt" height="98pt"
 viewBox="0.00 0.00 313.98 98.00" xmlns="http://www.w3.org/2000/svg" xmlns:xlink="http://www.w3.org/1999/xlink">
<g id="graph0" class="graph" transform="scale(1 1) rotate(0) translate(4 94)">
<title>%3</title>
<polygon fill="white" stroke="none" points="-4,4 -4,-94 309.979,-94 309.979,4 -4,4"/>
<!-- SaaS -->
<g id="node1" class="node"><title>SaaS</title>
<ellipse fill="none" stroke="black" cx="28.5975" cy="-45" rx="28.6953" ry="18"/>
<text text-anchor="middle" x="28.5975" y="-41.3" font-family="Times,serif" font-size="14.00">SaaS</text>
</g>
<!-- Price -->
<g id="node2" class="node"><title>Price</title>
<ellipse fill="none" stroke="black" cx="121.792" cy="-45" rx="28.6953" ry="18"/>
<text text-anchor="middle" x="121.792" y="-41.3" font-family="Times,serif" font-size="14.00">Price</text>
</g>
<!-- SaaS&#45;&gt;Price -->
<g id="edge1" class="edge"><title>SaaS&#45;&gt;Price</title>
<path fill="none" stroke="red" d="M57.4545,-45C65.4981,-45 74.4144,-45 82.9563,-45"/>
<polygon fill="red" stroke="red" points="83.106,-48.5001 93.106,-45 83.1059,-41.5001 83.106,-48.5001"/>
</g>
<!-- Currency -->
<g id="node3" class="node"><title>Currency</title>
<ellipse fill="none" stroke="black" cx="246.185" cy="-72" rx="43.5923" ry="18"/>
<text text-anchor="middle" x="246.185" y="-68.3" font-family="Times,serif" font-size="14.00">Currency</text>
</g>
<!-- Price&#45;&gt;Currency -->
<g id="edge2" class="edge"><title>Price&#45;&gt;Currency</title>
<path fill="none" stroke="red" d="M149.049,-50.7922C163.125,-53.8975 180.911,-57.8211 197.345,-61.4466"/>
<polygon fill="red" stroke="red" points="196.839,-64.919 207.358,-63.6555 198.347,-58.0833 196.839,-64.919"/>
</g>
<!-- PricingModel -->
<g id="node4" class="node"><title>PricingModel</title>
<ellipse fill="none" stroke="black" cx="246.185" cy="-18" rx="59.5901" ry="18"/>
<text text-anchor="middle" x="246.185" y="-14.3" font-family="Times,serif" font-size="14.00">PricingModel</text>
</g>
<!-- Price&#45;&gt;PricingModel -->
<g id="edge3" class="edge"><title>Price&#45;&gt;PricingModel</title>
<path fill="none" stroke="red" d="M149.049,-39.2078C160.243,-36.7383 173.783,-33.7513 187.124,-30.8082"/>
<polygon fill="red" stroke="red" points="188.234,-34.1476 197.245,-28.5755 186.726,-27.312 188.234,-34.1476"/>
</g>
</g>
</svg>
