<?xml version="1.0" encoding="UTF-8" standalone="no"?>
<!DOCTYPE svg PUBLIC "-//W3C//DTD SVG 1.1//EN"
 "http://www.w3.org/Graphics/SVG/1.1/DTD/svg11.dtd">
<!-- Generated by graphviz version 2.38.0 (20140413.2041)
 -->
<!-- Title: %3 Pages: 1 -->
<svg width="314pt" height="44pt"
 viewBox="0.00 0.00 313.98 44.00" xmlns="http://www.w3.org/2000/svg" xmlns:xlink="http://www.w3.org/1999/xlink">
<g id="graph0" class="graph" transform="scale(1 1) rotate(0) translate(4 40)">
<title>%3</title>
<polygon fill="white" stroke="none" points="-4,4 -4,-40 309.979,-40 309.979,4 -4,4"/>
<!-- SaaS -->
<g id="node1" class="node"><title>SaaS</title>
<ellipse fill="none" stroke="black" cx="28.5975" cy="-18" rx="28.6953" ry="18"/>
<text text-anchor="middle" x="28.5975" y="-14.3" font-family="Times,serif" font-size="14.00">SaaS</text>
</g>
<!-- Price -->
<g id="node2" class="node"><title>Price</title>
<ellipse fill="none" stroke="black" cx="121.792" cy="-18" rx="28.6953" ry="18"/>
<text text-anchor="middle" x="121.792" y="-14.3" font-family="Times,serif" font-size="14.00">Price</text>
</g>
<!-- SaaS&#45;&gt;Price -->
<g id="edge1" class="edge"><title>SaaS&#45;&gt;Price</title>
<path fill="none" stroke="red" d="M57.4545,-18C65.4981,-18 74.4144,-18 82.9563,-18"/>
<polygon fill="red" stroke="red" points="83.106,-21.5001 93.106,-18 83.1059,-14.5001 83.106,-21.5001"/>
</g>
<!-- PricingModel -->
<g id="node3" class="node"><title>PricingModel</title>
<ellipse fill="none" stroke="black" cx="246.185" cy="-18" rx="59.5901" ry="18"/>
<text text-anchor="middle" x="246.185" y="-14.3" font-family="Times,serif" font-size="14.00">PricingModel</text>
</g>
<!-- Price&#45;&gt;PricingModel -->
<g id="edge2" class="edge"><title>Price&#45;&gt;PricingModel</title>
<path fill="none" stroke="red" d="M150.565,-18C158.252,-18 166.953,-18 175.889,-18"/>
<polygon fill="red" stroke="red" points="176.036,-21.5001 186.036,-18 176.036,-14.5001 176.036,-21.5001"/>
</g>
</g>
</svg>
