<?xml version="1.0" encoding="UTF-8" standalone="no"?>
<!DOCTYPE svg PUBLIC "-//W3C//DTD SVG 1.1//EN"
 "http://www.w3.org/Graphics/SVG/1.1/DTD/svg11.dtd">
<!-- Generated by graphviz version 2.38.0 (20140413.2041)
 -->
<!-- Title: %3 Pages: 1 -->
<svg width="590pt" height="626pt"
 viewBox="0.00 0.00 589.55 625.97" xmlns="http://www.w3.org/2000/svg" xmlns:xlink="http://www.w3.org/1999/xlink">
<g id="graph0" class="graph" transform="scale(1 1) rotate(0) translate(4 621.966)">
<title>%3</title>
<polygon fill="white" stroke="none" points="-4,4 -4,-621.966 585.555,-621.966 585.555,4 -4,4"/>
<!-- ServerAsAService -->
<g id="node1" class="node"><title>ServerAsAService</title>
<ellipse fill="none" stroke="black" cx="76.0433" cy="-315" rx="76.0865" ry="18"/>
<text text-anchor="middle" x="76.0433" y="-311.3" font-family="Times,serif" font-size="14.00">ServerAsAService</text>
</g>
<!-- Region -->
<g id="node2" class="node"><title>Region</title>
<ellipse fill="none" stroke="black" cx="502.262" cy="-446" rx="36.2938" ry="18"/>
<text text-anchor="middle" x="502.262" y="-442.3" font-family="Times,serif" font-size="14.00">Region</text>
</g>
<!-- ServerAsAService&#45;&gt;Region -->
<g id="edge1" class="edge"><title>ServerAsAService&#45;&gt;Region</title>
<path fill="none" stroke="red" d="M77.9986,-332.998C81.7601,-383.39 100.082,-526.037 188.087,-585 261.52,-634.2 307.046,-622.755 386.969,-585 435.82,-561.923 470.825,-506.597 488.4,-473.12"/>
<polygon fill="red" stroke="red" points="491.677,-474.397 493.091,-463.897 485.438,-471.224 491.677,-474.397"/>
</g>
<!-- OperatingSystem -->
<g id="node3" class="node"><title>OperatingSystem</title>
<ellipse fill="none" stroke="black" cx="287.528" cy="-558" rx="72.2875" ry="18"/>
<text text-anchor="middle" x="287.528" y="-554.3" font-family="Times,serif" font-size="14.00">OperatingSystem</text>
</g>
<!-- ServerAsAService&#45;&gt;OperatingSystem -->
<g id="edge2" class="edge"><title>ServerAsAService&#45;&gt;OperatingSystem</title>
<path fill="none" stroke="red" d="M81.1053,-333.23C91.3565,-374.892 122.283,-477.589 188.087,-531 195.878,-537.324 205.039,-542.171 214.582,-545.886"/>
<polygon fill="red" stroke="red" points="213.622,-549.257 224.216,-549.236 215.921,-542.646 213.622,-549.257"/>
</g>
<!-- CpuCores -->
<g id="node4" class="node"><title>CpuCores</title>
<ellipse fill="none" stroke="black" cx="287.528" cy="-504" rx="46.2923" ry="18"/>
<text text-anchor="middle" x="287.528" y="-500.3" font-family="Times,serif" font-size="14.00">CpuCores</text>
</g>
<!-- ServerAsAService&#45;&gt;CpuCores -->
<g id="edge3" class="edge"><title>ServerAsAService&#45;&gt;CpuCores</title>
<path fill="none" stroke="red" d="M84.2813,-332.93C98.774,-366.512 134.619,-438.926 188.087,-477 201.231,-486.36 217.479,-492.477 232.959,-496.475"/>
<polygon fill="red" stroke="red" points="232.448,-499.949 242.981,-498.808 234.035,-493.132 232.448,-499.949"/>
</g>
<!-- CpuClockSpeed -->
<g id="node5" class="node"><title>CpuClockSpeed</title>
<ellipse fill="none" stroke="black" cx="287.528" cy="-450" rx="67.6881" ry="18"/>
<text text-anchor="middle" x="287.528" y="-446.3" font-family="Times,serif" font-size="14.00">CpuClockSpeed</text>
</g>
<!-- ServerAsAService&#45;&gt;CpuClockSpeed -->
<g id="edge4" class="edge"><title>ServerAsAService&#45;&gt;CpuClockSpeed</title>
<path fill="none" stroke="red" d="M90.4366,-332.755C109.502,-356.784 146.769,-399.365 188.087,-423 198.362,-428.878 209.977,-433.526 221.533,-437.187"/>
<polygon fill="red" stroke="red" points="220.614,-440.565 231.196,-440.035 222.593,-433.851 220.614,-440.565"/>
</g>
<!-- Ram -->
<g id="node6" class="node"><title>Ram</title>
<ellipse fill="none" stroke="black" cx="287.528" cy="-396" rx="27.8951" ry="18"/>
<text text-anchor="middle" x="287.528" y="-392.3" font-family="Times,serif" font-size="14.00">Ram</text>
</g>
<!-- ServerAsAService&#45;&gt;Ram -->
<g id="edge5" class="edge"><title>ServerAsAService&#45;&gt;Ram</title>
<path fill="none" stroke="red" d="M107.011,-331.452C128.986,-343.048 159.8,-358.348 188.087,-369 208.471,-376.676 231.973,-383.205 250.901,-387.919"/>
<polygon fill="red" stroke="red" points="250.075,-391.32 260.618,-390.281 251.728,-384.518 250.075,-391.32"/>
</g>
<!-- RamClockSpeed -->
<g id="node7" class="node"><title>RamClockSpeed</title>
<ellipse fill="none" stroke="black" cx="287.528" cy="-342" rx="70.3881" ry="18"/>
<text text-anchor="middle" x="287.528" y="-338.3" font-family="Times,serif" font-size="14.00">RamClockSpeed</text>
</g>
<!-- ServerAsAService&#45;&gt;RamClockSpeed -->
<g id="edge6" class="edge"><title>ServerAsAService&#45;&gt;RamClockSpeed</title>
<path fill="none" stroke="red" d="M143.325,-323.543C165.984,-326.463 191.431,-329.743 214.518,-332.719"/>
<polygon fill="red" stroke="red" points="214.231,-336.211 224.596,-334.018 215.126,-329.268 214.231,-336.211"/>
</g>
<!-- RamWriteSpeed -->
<g id="node8" class="node"><title>RamWriteSpeed</title>
<ellipse fill="none" stroke="black" cx="287.528" cy="-288" rx="69.5877" ry="18"/>
<text text-anchor="middle" x="287.528" y="-284.3" font-family="Times,serif" font-size="14.00">RamWriteSpeed</text>
</g>
<!-- ServerAsAService&#45;&gt;RamWriteSpeed -->
<g id="edge7" class="edge"><title>ServerAsAService&#45;&gt;RamWriteSpeed</title>
<path fill="none" stroke="red" d="M143.325,-306.457C166.088,-303.523 191.665,-300.227 214.837,-297.24"/>
<polygon fill="red" stroke="red" points="215.479,-300.686 224.95,-295.937 214.584,-293.744 215.479,-300.686"/>
</g>
<!-- RamReadSpeed -->
<g id="node9" class="node"><title>RamReadSpeed</title>
<ellipse fill="none" stroke="black" cx="287.528" cy="-234" rx="67.6881" ry="18"/>
<text text-anchor="middle" x="287.528" y="-230.3" font-family="Times,serif" font-size="14.00">RamReadSpeed</text>
</g>
<!-- ServerAsAService&#45;&gt;RamReadSpeed -->
<g id="edge8" class="edge"><title>ServerAsAService&#45;&gt;RamReadSpeed</title>
<path fill="none" stroke="red" d="M107.011,-298.548C128.986,-286.952 159.8,-271.652 188.087,-261 200.377,-256.371 213.802,-252.16 226.674,-248.512"/>
<polygon fill="red" stroke="red" points="227.671,-251.868 236.381,-245.835 225.81,-245.12 227.671,-251.868"/>
</g>
<!-- StorageAsAService -->
<g id="node10" class="node"><title>StorageAsAService</title>
<ellipse fill="none" stroke="black" cx="287.528" cy="-180" rx="79.8859" ry="18"/>
<text text-anchor="middle" x="287.528" y="-176.3" font-family="Times,serif" font-size="14.00">StorageAsAService</text>
</g>
<!-- ServerAsAService&#45;&gt;StorageAsAService -->
<g id="edge9" class="edge"><title>ServerAsAService&#45;&gt;StorageAsAService</title>
<path fill="none" stroke="red" d="M90.4366,-297.245C109.502,-273.216 146.769,-230.635 188.087,-207 196.739,-202.05 206.342,-197.972 216.06,-194.622"/>
<polygon fill="red" stroke="red" points="217.329,-197.891 225.785,-191.508 215.194,-191.224 217.329,-197.891"/>
</g>
<!-- NetworkCapacity -->
<g id="node14" class="node"><title>NetworkCapacity</title>
<ellipse fill="none" stroke="black" cx="287.528" cy="-126" rx="72.5877" ry="18"/>
<text text-anchor="middle" x="287.528" y="-122.3" font-family="Times,serif" font-size="14.00">NetworkCapacity</text>
</g>
<!-- ServerAsAService&#45;&gt;NetworkCapacity -->
<g id="edge14" class="edge"><title>ServerAsAService&#45;&gt;NetworkCapacity</title>
<path fill="none" stroke="red" d="M84.2813,-297.07C98.774,-263.488 134.619,-191.074 188.087,-153 196.51,-147.002 206.208,-142.335 216.162,-138.705"/>
<polygon fill="red" stroke="red" points="217.356,-141.996 225.75,-135.532 215.157,-135.351 217.356,-141.996"/>
</g>
<!-- NetworkUploadSpeed -->
<g id="node15" class="node"><title>NetworkUploadSpeed</title>
<ellipse fill="none" stroke="black" cx="287.528" cy="-72" rx="89.0842" ry="18"/>
<text text-anchor="middle" x="287.528" y="-68.3" font-family="Times,serif" font-size="14.00">NetworkUploadSpeed</text>
</g>
<!-- ServerAsAService&#45;&gt;NetworkUploadSpeed -->
<g id="edge15" class="edge"><title>ServerAsAService&#45;&gt;NetworkUploadSpeed</title>
<path fill="none" stroke="red" d="M81.1053,-296.77C91.3565,-255.108 122.283,-152.411 188.087,-99 193.952,-94.2395 200.593,-90.3158 207.589,-87.0821"/>
<polygon fill="red" stroke="red" points="209.391,-90.1256 217.309,-83.0866 206.73,-83.6512 209.391,-90.1256"/>
</g>
<!-- NetworkDownloadSpeed -->
<g id="node16" class="node"><title>NetworkDownloadSpeed</title>
<ellipse fill="none" stroke="black" cx="287.528" cy="-18" rx="99.3824" ry="18"/>
<text text-anchor="middle" x="287.528" y="-14.3" font-family="Times,serif" font-size="14.00">NetworkDownloadSpeed</text>
</g>
<!-- ServerAsAService&#45;&gt;NetworkDownloadSpeed -->
<g id="edge16" class="edge"><title>ServerAsAService&#45;&gt;NetworkDownloadSpeed</title>
<path fill="none" stroke="red" d="M79.0529,-296.751C85.3988,-248.141 109.497,-114.508 188.087,-45 192.791,-40.8394 198.079,-37.3133 203.699,-34.3258"/>
<polygon fill="red" stroke="red" points="205.209,-37.4837 212.768,-30.0607 202.23,-31.1493 205.209,-37.4837"/>
</g>
<!-- StorageAsAService&#45;&gt;Region -->
<g id="edge10" class="edge"><title>StorageAsAService&#45;&gt;Region</title>
<path fill="none" stroke="red" d="M354.862,-189.793C366.443,-193.744 377.723,-199.272 386.969,-207 404.608,-221.743 464.408,-359.235 489.755,-418.752"/>
<polygon fill="red" stroke="red" points="486.662,-420.424 493.793,-428.259 493.105,-417.687 486.662,-420.424"/>
</g>
<!-- Storage -->
<g id="node11" class="node"><title>Storage</title>
<ellipse fill="none" stroke="black" cx="502.262" cy="-234" rx="37.8943" ry="18"/>
<text text-anchor="middle" x="502.262" y="-230.3" font-family="Times,serif" font-size="14.00">Storage</text>
</g>
<!-- StorageAsAService&#45;&gt;Storage -->
<g id="edge11" class="edge"><title>StorageAsAService&#45;&gt;Storage</title>
<path fill="none" stroke="red" d="M341.387,-193.418C377.519,-202.589 424.789,-214.588 458.539,-223.155"/>
<polygon fill="red" stroke="red" points="457.998,-226.629 468.552,-225.697 459.72,-219.844 457.998,-226.629"/>
</g>
<!-- StorageWriteSpeed -->
<g id="node12" class="node"><title>StorageWriteSpeed</title>
<ellipse fill="none" stroke="black" cx="502.262" cy="-180" rx="79.0865" ry="18"/>
<text text-anchor="middle" x="502.262" y="-176.3" font-family="Times,serif" font-size="14.00">StorageWriteSpeed</text>
</g>
<!-- StorageAsAService&#45;&gt;StorageWriteSpeed -->
<g id="edge12" class="edge"><title>StorageAsAService&#45;&gt;StorageWriteSpeed</title>
<path fill="none" stroke="red" d="M367.742,-180C382.331,-180 397.651,-180 412.5,-180"/>
<polygon fill="red" stroke="red" points="412.69,-183.5 422.69,-180 412.69,-176.5 412.69,-183.5"/>
</g>
<!-- StorageReadSpeed -->
<g id="node13" class="node"><title>StorageReadSpeed</title>
<ellipse fill="none" stroke="black" cx="502.262" cy="-126" rx="77.1866" ry="18"/>
<text text-anchor="middle" x="502.262" y="-122.3" font-family="Times,serif" font-size="14.00">StorageReadSpeed</text>
</g>
<!-- StorageAsAService&#45;&gt;StorageReadSpeed -->
<g id="edge13" class="edge"><title>StorageAsAService&#45;&gt;StorageReadSpeed</title>
<path fill="none" stroke="red" d="M341.387,-166.582C371.145,-159.029 408.458,-149.557 439.551,-141.664"/>
<polygon fill="red" stroke="red" points="440.579,-145.015 449.41,-139.162 438.857,-138.23 440.579,-145.015"/>
</g>
</g>
</svg>
