<?xml version="1.0" encoding="UTF-8" standalone="no"?>
<!DOCTYPE svg PUBLIC "-//W3C//DTD SVG 1.1//EN"
 "http://www.w3.org/Graphics/SVG/1.1/DTD/svg11.dtd">
<!-- Generated by graphviz version 2.38.0 (20140413.2041)
 -->
<!-- Title: %3 Pages: 1 -->
<svg width="395pt" height="746pt"
 viewBox="0.00 0.00 394.97 746.00" xmlns="http://www.w3.org/2000/svg" xmlns:xlink="http://www.w3.org/1999/xlink">
<g id="graph0" class="graph" transform="scale(1 1) rotate(0) translate(4 742)">
<title>%3</title>
<polygon fill="white" stroke="none" points="-4,4 -4,-742 390.969,-742 390.969,4 -4,4"/>
<!-- ServerAsAService -->
<g id="node1" class="node"><title>ServerAsAService</title>
<ellipse fill="none" stroke="black" cx="76.0433" cy="-369" rx="76.0865" ry="18"/>
<text text-anchor="middle" x="76.0433" y="-365.3" font-family="Times,serif" font-size="14.00">ServerAsAService</text>
</g>
<!-- Region -->
<g id="node2" class="node"><title>Region</title>
<ellipse fill="none" stroke="black" cx="287.528" cy="-720" rx="36.2938" ry="18"/>
<text text-anchor="middle" x="287.528" y="-716.3" font-family="Times,serif" font-size="14.00">Region</text>
</g>
<!-- ServerAsAService&#45;&gt;Region -->
<g id="edge1" class="edge"><title>ServerAsAService&#45;&gt;Region</title>
<path fill="none" stroke="red" d="M77.6337,-387.161C80.4261,-441.915 96.4248,-606.894 188.087,-693 202.363,-706.411 222.663,-713.275 241.123,-716.745"/>
<polygon fill="red" stroke="red" points="240.713,-720.224 251.14,-718.343 241.816,-713.311 240.713,-720.224"/>
</g>
<!-- OperatingSystem -->
<g id="node3" class="node"><title>OperatingSystem</title>
<ellipse fill="none" stroke="black" cx="287.528" cy="-666" rx="72.2875" ry="18"/>
<text text-anchor="middle" x="287.528" y="-662.3" font-family="Times,serif" font-size="14.00">OperatingSystem</text>
</g>
<!-- ServerAsAService&#45;&gt;OperatingSystem -->
<g id="edge2" class="edge"><title>ServerAsAService&#45;&gt;OperatingSystem</title>
<path fill="none" stroke="red" d="M79.0529,-387.249C85.3988,-435.859 109.497,-569.492 188.087,-639 195.504,-645.56 204.373,-650.543 213.706,-654.324"/>
<polygon fill="red" stroke="red" points="212.564,-657.633 223.158,-657.719 214.93,-651.045 212.564,-657.633"/>
</g>
<!-- CpuCores -->
<g id="node4" class="node"><title>CpuCores</title>
<ellipse fill="none" stroke="black" cx="287.528" cy="-612" rx="46.2923" ry="18"/>
<text text-anchor="middle" x="287.528" y="-608.3" font-family="Times,serif" font-size="14.00">CpuCores</text>
</g>
<!-- ServerAsAService&#45;&gt;CpuCores -->
<g id="edge3" class="edge"><title>ServerAsAService&#45;&gt;CpuCores</title>
<path fill="none" stroke="red" d="M81.1053,-387.23C91.3565,-428.892 122.283,-531.589 188.087,-585 200.615,-595.169 216.685,-601.52 232.192,-605.483"/>
<polygon fill="red" stroke="red" points="231.733,-608.967 242.259,-607.758 233.276,-602.139 231.733,-608.967"/>
</g>
<!-- CpuClockSpeed -->
<g id="node5" class="node"><title>CpuClockSpeed</title>
<ellipse fill="none" stroke="black" cx="287.528" cy="-558" rx="67.6881" ry="18"/>
<text text-anchor="middle" x="287.528" y="-554.3" font-family="Times,serif" font-size="14.00">CpuClockSpeed</text>
</g>
<!-- ServerAsAService&#45;&gt;CpuClockSpeed -->
<g id="edge4" class="edge"><title>ServerAsAService&#45;&gt;CpuClockSpeed</title>
<path fill="none" stroke="red" d="M84.2813,-386.93C98.774,-420.512 134.619,-492.926 188.087,-531 197.242,-537.519 207.903,-542.466 218.761,-546.218"/>
<polygon fill="red" stroke="red" points="217.733,-549.564 228.322,-549.218 219.828,-542.885 217.733,-549.564"/>
</g>
<!-- Ram -->
<g id="node6" class="node"><title>Ram</title>
<ellipse fill="none" stroke="black" cx="287.528" cy="-504" rx="27.8951" ry="18"/>
<text text-anchor="middle" x="287.528" y="-500.3" font-family="Times,serif" font-size="14.00">Ram</text>
</g>
<!-- ServerAsAService&#45;&gt;Ram -->
<g id="edge5" class="edge"><title>ServerAsAService&#45;&gt;Ram</title>
<path fill="none" stroke="red" d="M90.4366,-386.755C109.502,-410.784 146.769,-453.365 188.087,-477 207.124,-487.89 230.761,-494.561 250.101,-498.547"/>
<polygon fill="red" stroke="red" points="249.582,-502.011 260.061,-500.445 250.893,-495.135 249.582,-502.011"/>
</g>
<!-- RamClockSpeed -->
<g id="node7" class="node"><title>RamClockSpeed</title>
<ellipse fill="none" stroke="black" cx="287.528" cy="-450" rx="70.3881" ry="18"/>
<text text-anchor="middle" x="287.528" y="-446.3" font-family="Times,serif" font-size="14.00">RamClockSpeed</text>
</g>
<!-- ServerAsAService&#45;&gt;RamClockSpeed -->
<g id="edge6" class="edge"><title>ServerAsAService&#45;&gt;RamClockSpeed</title>
<path fill="none" stroke="red" d="M107.011,-385.452C128.986,-397.048 159.8,-412.348 188.087,-423 199.995,-427.485 212.968,-431.578 225.471,-435.146"/>
<polygon fill="red" stroke="red" points="224.797,-438.591 235.368,-437.893 226.669,-431.846 224.797,-438.591"/>
</g>
<!-- RamWriteSpeed -->
<g id="node8" class="node"><title>RamWriteSpeed</title>
<ellipse fill="none" stroke="black" cx="287.528" cy="-396" rx="69.5877" ry="18"/>
<text text-anchor="middle" x="287.528" y="-392.3" font-family="Times,serif" font-size="14.00">RamWriteSpeed</text>
</g>
<!-- ServerAsAService&#45;&gt;RamWriteSpeed -->
<g id="edge7" class="edge"><title>ServerAsAService&#45;&gt;RamWriteSpeed</title>
<path fill="none" stroke="red" d="M143.325,-377.543C166.088,-380.477 191.665,-383.773 214.837,-386.76"/>
<polygon fill="red" stroke="red" points="214.584,-390.256 224.95,-388.063 215.479,-383.314 214.584,-390.256"/>
</g>
<!-- RamReadSpeed -->
<g id="node9" class="node"><title>RamReadSpeed</title>
<ellipse fill="none" stroke="black" cx="287.528" cy="-342" rx="67.6881" ry="18"/>
<text text-anchor="middle" x="287.528" y="-338.3" font-family="Times,serif" font-size="14.00">RamReadSpeed</text>
</g>
<!-- ServerAsAService&#45;&gt;RamReadSpeed -->
<g id="edge8" class="edge"><title>ServerAsAService&#45;&gt;RamReadSpeed</title>
<path fill="none" stroke="red" d="M143.325,-360.457C166.61,-357.456 192.839,-354.075 216.427,-351.035"/>
<polygon fill="red" stroke="red" points="216.887,-354.505 226.358,-349.755 215.992,-347.562 216.887,-354.505"/>
</g>
<!-- Storage -->
<g id="node10" class="node"><title>Storage</title>
<ellipse fill="none" stroke="black" cx="287.528" cy="-288" rx="37.8943" ry="18"/>
<text text-anchor="middle" x="287.528" y="-284.3" font-family="Times,serif" font-size="14.00">Storage</text>
</g>
<!-- ServerAsAService&#45;&gt;Storage -->
<g id="edge9" class="edge"><title>ServerAsAService&#45;&gt;Storage</title>
<path fill="none" stroke="red" d="M107.011,-352.548C128.986,-340.952 159.8,-325.652 188.087,-315 205.832,-308.317 225.941,-302.504 243.337,-298.001"/>
<polygon fill="red" stroke="red" points="244.389,-301.345 253.228,-295.504 242.676,-294.558 244.389,-301.345"/>
</g>
<!-- StorageWriteSpeed -->
<g id="node11" class="node"><title>StorageWriteSpeed</title>
<ellipse fill="none" stroke="black" cx="287.528" cy="-234" rx="79.0865" ry="18"/>
<text text-anchor="middle" x="287.528" y="-230.3" font-family="Times,serif" font-size="14.00">StorageWriteSpeed</text>
</g>
<!-- ServerAsAService&#45;&gt;StorageWriteSpeed -->
<g id="edge10" class="edge"><title>ServerAsAService&#45;&gt;StorageWriteSpeed</title>
<path fill="none" stroke="red" d="M90.4366,-351.245C109.502,-327.216 146.769,-284.635 188.087,-261 196.797,-256.017 206.47,-251.918 216.255,-248.555"/>
<polygon fill="red" stroke="red" points="217.581,-251.806 226.044,-245.432 215.453,-245.137 217.581,-251.806"/>
</g>
<!-- StorageReadSpeed -->
<g id="node12" class="node"><title>StorageReadSpeed</title>
<ellipse fill="none" stroke="black" cx="287.528" cy="-180" rx="77.1866" ry="18"/>
<text text-anchor="middle" x="287.528" y="-176.3" font-family="Times,serif" font-size="14.00">StorageReadSpeed</text>
</g>
<!-- ServerAsAService&#45;&gt;StorageReadSpeed -->
<g id="edge11" class="edge"><title>ServerAsAService&#45;&gt;StorageReadSpeed</title>
<path fill="none" stroke="red" d="M84.2813,-351.07C98.774,-317.488 134.619,-245.074 188.087,-207 195.854,-201.469 204.706,-197.07 213.842,-193.572"/>
<polygon fill="red" stroke="red" points="215.133,-196.828 223.433,-190.243 212.838,-190.215 215.133,-196.828"/>
</g>
<!-- NetworkCapacity -->
<g id="node13" class="node"><title>NetworkCapacity</title>
<ellipse fill="none" stroke="black" cx="287.528" cy="-126" rx="72.5877" ry="18"/>
<text text-anchor="middle" x="287.528" y="-122.3" font-family="Times,serif" font-size="14.00">NetworkCapacity</text>
</g>
<!-- ServerAsAService&#45;&gt;NetworkCapacity -->
<g id="edge12" class="edge"><title>ServerAsAService&#45;&gt;NetworkCapacity</title>
<path fill="none" stroke="red" d="M81.1053,-350.77C91.3565,-309.108 122.283,-206.411 188.087,-153 195.826,-146.718 204.918,-141.893 214.393,-138.188"/>
<polygon fill="red" stroke="red" points="215.675,-141.448 223.96,-134.844 213.365,-134.84 215.675,-141.448"/>
</g>
<!-- NetworkUploadSpeed -->
<g id="node14" class="node"><title>NetworkUploadSpeed</title>
<ellipse fill="none" stroke="black" cx="287.528" cy="-72" rx="89.0842" ry="18"/>
<text text-anchor="middle" x="287.528" y="-68.3" font-family="Times,serif" font-size="14.00">NetworkUploadSpeed</text>
</g>
<!-- ServerAsAService&#45;&gt;NetworkUploadSpeed -->
<g id="edge13" class="edge"><title>ServerAsAService&#45;&gt;NetworkUploadSpeed</title>
<path fill="none" stroke="red" d="M79.0529,-350.751C85.3988,-302.141 109.497,-168.508 188.087,-99 193.608,-94.1166 199.934,-90.1074 206.657,-86.8171"/>
<polygon fill="red" stroke="red" points="208.244,-89.9439 216.033,-82.7614 205.465,-83.5192 208.244,-89.9439"/>
</g>
<!-- NetworkDownloadSpeed -->
<g id="node15" class="node"><title>NetworkDownloadSpeed</title>
<ellipse fill="none" stroke="black" cx="287.528" cy="-18" rx="99.3824" ry="18"/>
<text text-anchor="middle" x="287.528" y="-14.3" font-family="Times,serif" font-size="14.00">NetworkDownloadSpeed</text>
</g>
<!-- ServerAsAService&#45;&gt;NetworkDownloadSpeed -->
<g id="edge14" class="edge"><title>ServerAsAService&#45;&gt;NetworkDownloadSpeed</title>
<path fill="none" stroke="red" d="M77.6337,-350.839C80.4261,-296.085 96.4248,-131.106 188.087,-45 192.472,-40.8803 197.426,-37.3784 202.72,-34.403"/>
<polygon fill="red" stroke="red" points="204.487,-37.4345 211.911,-29.8764 201.394,-31.1548 204.487,-37.4345"/>
</g>
</g>
</svg>
