<?xml version="1.0" encoding="UTF-8" standalone="no"?>
<!DOCTYPE svg PUBLIC "-//W3C//DTD SVG 1.1//EN"
 "http://www.w3.org/Graphics/SVG/1.1/DTD/svg11.dtd">
<!-- Generated by graphviz version 2.38.0 (20140413.2041)
 -->
<!-- Title: %3 Pages: 1 -->
<svg width="395pt" height="584pt"
 viewBox="0.00 0.00 394.97 584.00" xmlns="http://www.w3.org/2000/svg" xmlns:xlink="http://www.w3.org/1999/xlink">
<g id="graph0" class="graph" transform="scale(1 1) rotate(0) translate(4 580)">
<title>%3</title>
<polygon fill="white" stroke="none" points="-4,4 -4,-580 390.969,-580 390.969,4 -4,4"/>
<!-- ServerAsAService -->
<g id="node1" class="node"><title>ServerAsAService</title>
<ellipse fill="none" stroke="black" cx="76.0433" cy="-288" rx="76.0865" ry="18"/>
<text text-anchor="middle" x="76.0433" y="-284.3" font-family="Times,serif" font-size="14.00">ServerAsAService</text>
</g>
<!-- Region -->
<g id="node2" class="node"><title>Region</title>
<ellipse fill="none" stroke="black" cx="287.528" cy="-558" rx="36.2938" ry="18"/>
<text text-anchor="middle" x="287.528" y="-554.3" font-family="Times,serif" font-size="14.00">Region</text>
</g>
<!-- ServerAsAService&#45;&gt;Region -->
<g id="edge1" class="edge"><title>ServerAsAService&#45;&gt;Region</title>
<path fill="none" stroke="red" d="M79.9454,-306.084C88.1589,-351.206 115.84,-469.536 188.087,-531 202.892,-543.596 223.082,-550.354 241.325,-553.966"/>
<polygon fill="red" stroke="red" points="240.765,-557.421 251.213,-555.665 241.95,-550.522 240.765,-557.421"/>
</g>
<!-- OperatingSystem -->
<g id="node3" class="node"><title>OperatingSystem</title>
<ellipse fill="none" stroke="black" cx="287.528" cy="-504" rx="72.2875" ry="18"/>
<text text-anchor="middle" x="287.528" y="-500.3" font-family="Times,serif" font-size="14.00">OperatingSystem</text>
</g>
<!-- ServerAsAService&#45;&gt;OperatingSystem -->
<g id="edge2" class="edge"><title>ServerAsAService&#45;&gt;OperatingSystem</title>
<path fill="none" stroke="red" d="M82.4413,-305.938C94.7242,-343.621 128.417,-431.295 188.087,-477 196.243,-483.247 205.753,-488.05 215.586,-491.741"/>
<polygon fill="red" stroke="red" points="214.484,-495.063 225.079,-494.951 216.727,-488.432 214.484,-495.063"/>
</g>
<!-- CpuCores -->
<g id="node4" class="node"><title>CpuCores</title>
<ellipse fill="none" stroke="black" cx="287.528" cy="-450" rx="46.2923" ry="18"/>
<text text-anchor="middle" x="287.528" y="-446.3" font-family="Times,serif" font-size="14.00">CpuCores</text>
</g>
<!-- ServerAsAService&#45;&gt;CpuCores -->
<g id="edge3" class="edge"><title>ServerAsAService&#45;&gt;CpuCores</title>
<path fill="none" stroke="red" d="M86.7857,-305.875C103.564,-334.945 140.72,-392.299 188.087,-423 201.627,-431.777 217.99,-437.726 233.453,-441.748"/>
<polygon fill="red" stroke="red" points="232.908,-445.216 243.446,-444.124 234.527,-438.406 232.908,-445.216"/>
</g>
<!-- CpuClockSpeed -->
<g id="node5" class="node"><title>CpuClockSpeed</title>
<ellipse fill="none" stroke="black" cx="287.528" cy="-396" rx="67.6881" ry="18"/>
<text text-anchor="middle" x="287.528" y="-392.3" font-family="Times,serif" font-size="14.00">CpuClockSpeed</text>
</g>
<!-- ServerAsAService&#45;&gt;CpuClockSpeed -->
<g id="edge4" class="edge"><title>ServerAsAService&#45;&gt;CpuClockSpeed</title>
<path fill="none" stroke="red" d="M96.4865,-305.619C117.609,-323.896 153.045,-352.118 188.087,-369 199.236,-374.371 211.627,-378.821 223.754,-382.453"/>
<polygon fill="red" stroke="red" points="222.817,-385.825 233.393,-385.192 224.731,-379.092 222.817,-385.825"/>
</g>
<!-- Ram -->
<g id="node6" class="node"><title>Ram</title>
<ellipse fill="none" stroke="black" cx="287.528" cy="-342" rx="27.8951" ry="18"/>
<text text-anchor="middle" x="287.528" y="-338.3" font-family="Times,serif" font-size="14.00">Ram</text>
</g>
<!-- ServerAsAService&#45;&gt;Ram -->
<g id="edge5" class="edge"><title>ServerAsAService&#45;&gt;Ram</title>
<path fill="none" stroke="red" d="M128.021,-301.141C166.326,-311.015 217.792,-324.282 251.542,-332.982"/>
<polygon fill="red" stroke="red" points="250.856,-336.419 261.413,-335.526 252.603,-329.641 250.856,-336.419"/>
</g>
<!-- RamClockSpeed -->
<g id="node7" class="node"><title>RamClockSpeed</title>
<ellipse fill="none" stroke="black" cx="287.528" cy="-288" rx="70.3881" ry="18"/>
<text text-anchor="middle" x="287.528" y="-284.3" font-family="Times,serif" font-size="14.00">RamClockSpeed</text>
</g>
<!-- ServerAsAService&#45;&gt;RamClockSpeed -->
<g id="edge6" class="edge"><title>ServerAsAService&#45;&gt;RamClockSpeed</title>
<path fill="none" stroke="red" d="M152.376,-288C170.108,-288 189.064,-288 206.976,-288"/>
<polygon fill="red" stroke="red" points="207.093,-291.5 217.093,-288 207.093,-284.5 207.093,-291.5"/>
</g>
<!-- RamWriteSpeed -->
<g id="node8" class="node"><title>RamWriteSpeed</title>
<ellipse fill="none" stroke="black" cx="287.528" cy="-234" rx="69.5877" ry="18"/>
<text text-anchor="middle" x="287.528" y="-230.3" font-family="Times,serif" font-size="14.00">RamWriteSpeed</text>
</g>
<!-- ServerAsAService&#45;&gt;RamWriteSpeed -->
<g id="edge7" class="edge"><title>ServerAsAService&#45;&gt;RamWriteSpeed</title>
<path fill="none" stroke="red" d="M128.021,-274.859C158.074,-267.112 196.228,-257.277 227.572,-249.197"/>
<polygon fill="red" stroke="red" points="228.68,-252.526 237.49,-246.641 226.933,-245.748 228.68,-252.526"/>
</g>
<!-- RamReadSpeed -->
<g id="node9" class="node"><title>RamReadSpeed</title>
<ellipse fill="none" stroke="black" cx="287.528" cy="-180" rx="67.6881" ry="18"/>
<text text-anchor="middle" x="287.528" y="-176.3" font-family="Times,serif" font-size="14.00">RamReadSpeed</text>
</g>
<!-- ServerAsAService&#45;&gt;RamReadSpeed -->
<g id="edge8" class="edge"><title>ServerAsAService&#45;&gt;RamReadSpeed</title>
<path fill="none" stroke="red" d="M96.4865,-270.381C117.609,-252.104 153.045,-223.882 188.087,-207 199.236,-201.629 211.627,-197.179 223.754,-193.547"/>
<polygon fill="red" stroke="red" points="224.731,-196.908 233.393,-190.808 222.817,-190.175 224.731,-196.908"/>
</g>
<!-- NetworkCapacity -->
<g id="node10" class="node"><title>NetworkCapacity</title>
<ellipse fill="none" stroke="black" cx="287.528" cy="-126" rx="72.5877" ry="18"/>
<text text-anchor="middle" x="287.528" y="-122.3" font-family="Times,serif" font-size="14.00">NetworkCapacity</text>
</g>
<!-- ServerAsAService&#45;&gt;NetworkCapacity -->
<g id="edge9" class="edge"><title>ServerAsAService&#45;&gt;NetworkCapacity</title>
<path fill="none" stroke="red" d="M86.7857,-270.125C103.564,-241.055 140.72,-183.701 188.087,-153 196.933,-147.266 206.984,-142.739 217.202,-139.168"/>
<polygon fill="red" stroke="red" points="218.557,-142.409 227.015,-136.028 216.424,-135.742 218.557,-142.409"/>
</g>
<!-- NetworkUploadSpeed -->
<g id="node11" class="node"><title>NetworkUploadSpeed</title>
<ellipse fill="none" stroke="black" cx="287.528" cy="-72" rx="89.0842" ry="18"/>
<text text-anchor="middle" x="287.528" y="-68.3" font-family="Times,serif" font-size="14.00">NetworkUploadSpeed</text>
</g>
<!-- ServerAsAService&#45;&gt;NetworkUploadSpeed -->
<g id="edge10" class="edge"><title>ServerAsAService&#45;&gt;NetworkUploadSpeed</title>
<path fill="none" stroke="red" d="M82.4413,-270.062C94.7242,-232.379 128.417,-144.705 188.087,-99 194.319,-94.2265 201.341,-90.2965 208.694,-87.0611"/>
<polygon fill="red" stroke="red" points="210.138,-90.2542 218.151,-83.3231 207.564,-83.7444 210.138,-90.2542"/>
</g>
<!-- NetworkDownloadSpeed -->
<g id="node12" class="node"><title>NetworkDownloadSpeed</title>
<ellipse fill="none" stroke="black" cx="287.528" cy="-18" rx="99.3824" ry="18"/>
<text text-anchor="middle" x="287.528" y="-14.3" font-family="Times,serif" font-size="14.00">NetworkDownloadSpeed</text>
</g>
<!-- ServerAsAService&#45;&gt;NetworkDownloadSpeed -->
<g id="edge11" class="edge"><title>ServerAsAService&#45;&gt;NetworkDownloadSpeed</title>
<path fill="none" stroke="red" d="M79.9454,-269.916C88.1589,-224.794 115.84,-106.464 188.087,-45 192.958,-40.8553 198.413,-37.3425 204.19,-34.366"/>
<polygon fill="red" stroke="red" points="205.853,-37.4543 213.495,-30.1162 202.945,-31.087 205.853,-37.4543"/>
</g>
</g>
</svg>
