<?xml version="1.0" encoding="UTF-8" standalone="no"?>
<!DOCTYPE svg PUBLIC "-//W3C//DTD SVG 1.1//EN"
 "http://www.w3.org/Graphics/SVG/1.1/DTD/svg11.dtd">
<!-- Generated by graphviz version 2.38.0 (20140413.2041)
 -->
<!-- Title: %3 Pages: 1 -->
<svg width="551pt" height="827pt"
 viewBox="0.00 0.00 550.56 827.00" xmlns="http://www.w3.org/2000/svg" xmlns:xlink="http://www.w3.org/1999/xlink">
<g id="graph0" class="graph" transform="scale(1 1) rotate(0) translate(4 823)">
<title>%3</title>
<polygon fill="white" stroke="none" points="-4,4 -4,-823 546.558,-823 546.558,4 -4,4"/>
<!-- ServerAsAService -->
<g id="node1" class="node"><title>ServerAsAService</title>
<ellipse fill="none" stroke="black" cx="76.0433" cy="-396" rx="76.0865" ry="18"/>
<text text-anchor="middle" x="76.0433" y="-392.3" font-family="Times,serif" font-size="14.00">ServerAsAService</text>
</g>
<!-- Price -->
<g id="node2" class="node"><title>Price</title>
<ellipse fill="none" stroke="black" cx="287.528" cy="-774" rx="28.6953" ry="18"/>
<text text-anchor="middle" x="287.528" y="-770.3" font-family="Times,serif" font-size="14.00">Price</text>
</g>
<!-- ServerAsAService&#45;&gt;Price -->
<g id="edge1" class="edge"><title>ServerAsAService&#45;&gt;Price</title>
<path fill="none" stroke="red" d="M77.0856,-414.393C78.2556,-472.304 89.9779,-652.617 188.087,-747 204.256,-762.556 228.51,-769.329 248.897,-772.202"/>
<polygon fill="red" stroke="red" points="248.507,-775.68 258.841,-773.347 249.308,-768.726 248.507,-775.68"/>
</g>
<!-- Region -->
<g id="node5" class="node"><title>Region</title>
<ellipse fill="none" stroke="black" cx="287.528" cy="-720" rx="36.2938" ry="18"/>
<text text-anchor="middle" x="287.528" y="-716.3" font-family="Times,serif" font-size="14.00">Region</text>
</g>
<!-- ServerAsAService&#45;&gt;Region -->
<g id="edge4" class="edge"><title>ServerAsAService&#45;&gt;Region</title>
<path fill="none" stroke="red" d="M78.2764,-414.137C82.7904,-465.835 102.948,-615.207 188.087,-693 202.547,-706.213 222.872,-713.05 241.301,-716.553"/>
<polygon fill="red" stroke="red" points="240.864,-720.027 251.295,-718.175 241.986,-713.118 240.864,-720.027"/>
</g>
<!-- OperatingSystem -->
<g id="node6" class="node"><title>OperatingSystem</title>
<ellipse fill="none" stroke="black" cx="287.528" cy="-666" rx="72.2875" ry="18"/>
<text text-anchor="middle" x="287.528" y="-662.3" font-family="Times,serif" font-size="14.00">OperatingSystem</text>
</g>
<!-- ServerAsAService&#45;&gt;OperatingSystem -->
<g id="edge5" class="edge"><title>ServerAsAService&#45;&gt;OperatingSystem</title>
<path fill="none" stroke="red" d="M79.9454,-414.084C88.1589,-459.206 115.84,-577.536 188.087,-639 195.679,-645.459 204.688,-650.384 214.124,-654.136"/>
<polygon fill="red" stroke="red" points="213.071,-657.476 223.665,-657.51 215.405,-650.876 213.071,-657.476"/>
</g>
<!-- CpuCores -->
<g id="node8" class="node"><title>CpuCores</title>
<ellipse fill="none" stroke="black" cx="287.528" cy="-612" rx="46.2923" ry="18"/>
<text text-anchor="middle" x="287.528" y="-608.3" font-family="Times,serif" font-size="14.00">CpuCores</text>
</g>
<!-- ServerAsAService&#45;&gt;CpuCores -->
<g id="edge7" class="edge"><title>ServerAsAService&#45;&gt;CpuCores</title>
<path fill="none" stroke="red" d="M82.4413,-413.938C94.7242,-451.621 128.417,-539.295 188.087,-585 200.897,-594.812 217.048,-601.06 232.543,-605.038"/>
<polygon fill="red" stroke="red" points="232.06,-608.518 242.589,-607.339 233.623,-601.695 232.06,-608.518"/>
</g>
<!-- CpuClockSpeed -->
<g id="node9" class="node"><title>CpuClockSpeed</title>
<ellipse fill="none" stroke="black" cx="287.528" cy="-558" rx="67.6881" ry="18"/>
<text text-anchor="middle" x="287.528" y="-554.3" font-family="Times,serif" font-size="14.00">CpuClockSpeed</text>
</g>
<!-- ServerAsAService&#45;&gt;CpuClockSpeed -->
<g id="edge8" class="edge"><title>ServerAsAService&#45;&gt;CpuClockSpeed</title>
<path fill="none" stroke="red" d="M86.7857,-413.875C103.564,-442.945 140.72,-500.299 188.087,-531 197.691,-537.225 208.714,-542.027 219.829,-545.729"/>
<polygon fill="red" stroke="red" points="219.001,-549.136 229.588,-548.707 221.044,-542.44 219.001,-549.136"/>
</g>
<!-- Ram -->
<g id="node10" class="node"><title>Ram</title>
<ellipse fill="none" stroke="black" cx="287.528" cy="-504" rx="27.8951" ry="18"/>
<text text-anchor="middle" x="287.528" y="-500.3" font-family="Times,serif" font-size="14.00">Ram</text>
</g>
<!-- ServerAsAService&#45;&gt;Ram -->
<g id="edge9" class="edge"><title>ServerAsAService&#45;&gt;Ram</title>
<path fill="none" stroke="red" d="M96.4865,-413.619C117.609,-431.896 153.045,-460.118 188.087,-477 207.71,-486.454 231.182,-493.054 250.284,-497.361"/>
<polygon fill="red" stroke="red" points="249.601,-500.794 260.112,-499.464 251.066,-493.949 249.601,-500.794"/>
</g>
<!-- RamClockSpeed -->
<g id="node11" class="node"><title>RamClockSpeed</title>
<ellipse fill="none" stroke="black" cx="287.528" cy="-450" rx="70.3881" ry="18"/>
<text text-anchor="middle" x="287.528" y="-446.3" font-family="Times,serif" font-size="14.00">RamClockSpeed</text>
</g>
<!-- ServerAsAService&#45;&gt;RamClockSpeed -->
<g id="edge10" class="edge"><title>ServerAsAService&#45;&gt;RamClockSpeed</title>
<path fill="none" stroke="red" d="M128.021,-409.141C158.074,-416.888 196.228,-426.723 227.572,-434.803"/>
<polygon fill="red" stroke="red" points="226.933,-438.252 237.49,-437.359 228.68,-431.474 226.933,-438.252"/>
</g>
<!-- RamWriteSpeed -->
<g id="node12" class="node"><title>RamWriteSpeed</title>
<ellipse fill="none" stroke="black" cx="287.528" cy="-396" rx="69.5877" ry="18"/>
<text text-anchor="middle" x="287.528" y="-392.3" font-family="Times,serif" font-size="14.00">RamWriteSpeed</text>
</g>
<!-- ServerAsAService&#45;&gt;RamWriteSpeed -->
<g id="edge11" class="edge"><title>ServerAsAService&#45;&gt;RamWriteSpeed</title>
<path fill="none" stroke="red" d="M152.376,-396C170.305,-396 189.486,-396 207.572,-396"/>
<polygon fill="red" stroke="red" points="207.784,-399.5 217.784,-396 207.784,-392.5 207.784,-399.5"/>
</g>
<!-- RamReadSpeed -->
<g id="node13" class="node"><title>RamReadSpeed</title>
<ellipse fill="none" stroke="black" cx="287.528" cy="-342" rx="67.6881" ry="18"/>
<text text-anchor="middle" x="287.528" y="-338.3" font-family="Times,serif" font-size="14.00">RamReadSpeed</text>
</g>
<!-- ServerAsAService&#45;&gt;RamReadSpeed -->
<g id="edge12" class="edge"><title>ServerAsAService&#45;&gt;RamReadSpeed</title>
<path fill="none" stroke="red" d="M128.021,-382.859C158.292,-375.056 196.783,-365.134 228.254,-357.021"/>
<polygon fill="red" stroke="red" points="229.396,-360.342 238.206,-354.456 227.649,-353.563 229.396,-360.342"/>
</g>
<!-- Storage -->
<g id="node14" class="node"><title>Storage</title>
<ellipse fill="none" stroke="black" cx="287.528" cy="-288" rx="37.8943" ry="18"/>
<text text-anchor="middle" x="287.528" y="-284.3" font-family="Times,serif" font-size="14.00">Storage</text>
</g>
<!-- ServerAsAService&#45;&gt;Storage -->
<g id="edge13" class="edge"><title>ServerAsAService&#45;&gt;Storage</title>
<path fill="none" stroke="red" d="M96.4865,-378.381C117.609,-360.104 153.045,-331.882 188.087,-315 204.903,-306.899 224.545,-300.893 241.842,-296.63"/>
<polygon fill="red" stroke="red" points="242.777,-300.006 251.716,-294.319 241.182,-293.19 242.777,-300.006"/>
</g>
<!-- StorageWriteSpeed -->
<g id="node15" class="node"><title>StorageWriteSpeed</title>
<ellipse fill="none" stroke="black" cx="287.528" cy="-234" rx="79.0865" ry="18"/>
<text text-anchor="middle" x="287.528" y="-230.3" font-family="Times,serif" font-size="14.00">StorageWriteSpeed</text>
</g>
<!-- ServerAsAService&#45;&gt;StorageWriteSpeed -->
<g id="edge14" class="edge"><title>ServerAsAService&#45;&gt;StorageWriteSpeed</title>
<path fill="none" stroke="red" d="M86.7857,-378.125C103.564,-349.055 140.72,-291.701 188.087,-261 196.144,-255.778 205.2,-251.557 214.471,-248.147"/>
<polygon fill="red" stroke="red" points="215.817,-251.387 224.178,-244.879 213.583,-244.753 215.817,-251.387"/>
</g>
<!-- StorageReadSpeed -->
<g id="node16" class="node"><title>StorageReadSpeed</title>
<ellipse fill="none" stroke="black" cx="287.528" cy="-180" rx="77.1866" ry="18"/>
<text text-anchor="middle" x="287.528" y="-176.3" font-family="Times,serif" font-size="14.00">StorageReadSpeed</text>
</g>
<!-- ServerAsAService&#45;&gt;StorageReadSpeed -->
<g id="edge15" class="edge"><title>ServerAsAService&#45;&gt;StorageReadSpeed</title>
<path fill="none" stroke="red" d="M82.4413,-378.062C94.7242,-340.379 128.417,-252.705 188.087,-207 195.474,-201.342 203.972,-196.869 212.815,-193.333"/>
<polygon fill="red" stroke="red" points="214.28,-196.525 222.509,-189.852 211.914,-189.937 214.28,-196.525"/>
</g>
<!-- NetworkCapacity -->
<g id="node17" class="node"><title>NetworkCapacity</title>
<ellipse fill="none" stroke="black" cx="287.528" cy="-126" rx="72.5877" ry="18"/>
<text text-anchor="middle" x="287.528" y="-122.3" font-family="Times,serif" font-size="14.00">NetworkCapacity</text>
</g>
<!-- ServerAsAService&#45;&gt;NetworkCapacity -->
<g id="edge16" class="edge"><title>ServerAsAService&#45;&gt;NetworkCapacity</title>
<path fill="none" stroke="red" d="M79.9454,-377.916C88.1589,-332.794 115.84,-214.464 188.087,-153 195.628,-146.584 204.568,-141.682 213.935,-137.94"/>
<polygon fill="red" stroke="red" points="215.16,-141.219 223.409,-134.57 212.814,-134.623 215.16,-141.219"/>
</g>
<!-- NetworkUploadSpeed -->
<g id="node18" class="node"><title>NetworkUploadSpeed</title>
<ellipse fill="none" stroke="black" cx="287.528" cy="-72" rx="89.0842" ry="18"/>
<text text-anchor="middle" x="287.528" y="-68.3" font-family="Times,serif" font-size="14.00">NetworkUploadSpeed</text>
</g>
<!-- ServerAsAService&#45;&gt;NetworkUploadSpeed -->
<g id="edge17" class="edge"><title>ServerAsAService&#45;&gt;NetworkUploadSpeed</title>
<path fill="none" stroke="red" d="M78.2764,-377.863C82.7904,-326.165 102.948,-176.793 188.087,-99 193.483,-94.0689 199.697,-90.026 206.323,-86.7129"/>
<polygon fill="red" stroke="red" points="207.84,-89.8694 215.578,-82.6327 205.016,-83.4642 207.84,-89.8694"/>
</g>
<!-- NetworkDownloadSpeed -->
<g id="node19" class="node"><title>NetworkDownloadSpeed</title>
<ellipse fill="none" stroke="black" cx="287.528" cy="-18" rx="99.3824" ry="18"/>
<text text-anchor="middle" x="287.528" y="-14.3" font-family="Times,serif" font-size="14.00">NetworkDownloadSpeed</text>
</g>
<!-- ServerAsAService&#45;&gt;NetworkDownloadSpeed -->
<g id="edge18" class="edge"><title>ServerAsAService&#45;&gt;NetworkDownloadSpeed</title>
<path fill="none" stroke="red" d="M77.0856,-377.607C78.2556,-319.696 89.9779,-139.383 188.087,-45 192.423,-40.8284 197.34,-37.2885 202.609,-34.2859"/>
<polygon fill="red" stroke="red" points="204.376,-37.3158 211.766,-29.7237 201.255,-31.0504 204.376,-37.3158"/>
</g>
<!-- Currency -->
<g id="node3" class="node"><title>Currency</title>
<ellipse fill="none" stroke="black" cx="482.764" cy="-801" rx="43.5923" ry="18"/>
<text text-anchor="middle" x="482.764" y="-797.3" font-family="Times,serif" font-size="14.00">Currency</text>
</g>
<!-- Price&#45;&gt;Currency -->
<g id="edge2" class="edge"><title>Price&#45;&gt;Currency</title>
<path fill="none" stroke="red" d="M315.804,-777.811C345.663,-781.983 394.198,-788.765 431.087,-793.919"/>
<polygon fill="red" stroke="red" points="430.769,-797.409 441.157,-795.326 431.738,-790.476 430.769,-797.409"/>
</g>
<!-- PricingModel -->
<g id="node4" class="node"><title>PricingModel</title>
<ellipse fill="none" stroke="black" cx="482.764" cy="-747" rx="59.5901" ry="18"/>
<text text-anchor="middle" x="482.764" y="-743.3" font-family="Times,serif" font-size="14.00">PricingModel</text>
</g>
<!-- Price&#45;&gt;PricingModel -->
<g id="edge3" class="edge"><title>Price&#45;&gt;PricingModel</title>
<path fill="none" stroke="red" d="M315.804,-770.189C342.222,-766.498 383.258,-760.764 417.914,-755.921"/>
<polygon fill="red" stroke="red" points="418.55,-759.367 427.97,-754.516 417.582,-752.434 418.55,-759.367"/>
</g>
<!-- Linux -->
<g id="node7" class="node"><title>Linux</title>
<ellipse fill="none" stroke="black" cx="482.764" cy="-666" rx="31.6951" ry="18"/>
<text text-anchor="middle" x="482.764" y="-662.3" font-family="Times,serif" font-size="14.00">Linux</text>
</g>
<!-- OperatingSystem&#45;&gt;Linux -->
<g id="edge6" class="edge"><title>OperatingSystem&#45;&gt;Linux</title>
<path fill="none" stroke="red" d="M359.933,-666C387.063,-666 417.046,-666 440.478,-666"/>
<polygon fill="red" stroke="red" points="440.75,-669.5 450.75,-666 440.75,-662.5 440.75,-669.5"/>
</g>
</g>
</svg>
