<?xml version="1.0" encoding="UTF-8" standalone="no"?>
<!DOCTYPE svg PUBLIC "-//W3C//DTD SVG 1.1//EN"
 "http://www.w3.org/Graphics/SVG/1.1/DTD/svg11.dtd">
<!-- Generated by graphviz version 2.38.0 (20140413.2041)
 -->
<!-- Title: %3 Pages: 1 -->
<svg width="461pt" height="98pt"
 viewBox="0.00 0.00 460.87 98.00" xmlns="http://www.w3.org/2000/svg" xmlns:xlink="http://www.w3.org/1999/xlink">
<g id="graph0" class="graph" transform="scale(1 1) rotate(0) translate(4 94)">
<title>%3</title>
<polygon fill="white" stroke="none" points="-4,4 -4,-94 456.866,-94 456.866,4 -4,4"/>
<!-- SQLDatabaseAsAService -->
<g id="node1" class="node"><title>SQLDatabaseAsAService</title>
<ellipse fill="none" stroke="black" cx="102.041" cy="-45" rx="102.082" ry="18"/>
<text text-anchor="middle" x="102.041" y="-41.3" font-family="Times,serif" font-size="14.00">SQLDatabaseAsAService</text>
</g>
<!-- Price -->
<g id="node2" class="node"><title>Price</title>
<ellipse fill="none" stroke="black" cx="268.679" cy="-45" rx="28.6953" ry="18"/>
<text text-anchor="middle" x="268.679" y="-41.3" font-family="Times,serif" font-size="14.00">Price</text>
</g>
<!-- SQLDatabaseAsAService&#45;&gt;Price -->
<g id="edge1" class="edge"><title>SQLDatabaseAsAService&#45;&gt;Price</title>
<path fill="none" stroke="red" d="M204.497,-45C213.414,-45 222.013,-45 229.845,-45"/>
<polygon fill="red" stroke="red" points="230.007,-48.5001 240.007,-45 230.007,-41.5001 230.007,-48.5001"/>
</g>
<!-- Currency -->
<g id="node3" class="node"><title>Currency</title>
<ellipse fill="none" stroke="black" cx="393.072" cy="-72" rx="43.5923" ry="18"/>
<text text-anchor="middle" x="393.072" y="-68.3" font-family="Times,serif" font-size="14.00">Currency</text>
</g>
<!-- Price&#45;&gt;Currency -->
<g id="edge2" class="edge"><title>Price&#45;&gt;Currency</title>
<path fill="none" stroke="red" d="M295.936,-50.7922C310.012,-53.8975 327.798,-57.8211 344.232,-61.4466"/>
<polygon fill="red" stroke="red" points="343.726,-64.919 354.245,-63.6555 345.234,-58.0833 343.726,-64.919"/>
</g>
<!-- PricingModel -->
<g id="node4" class="node"><title>PricingModel</title>
<ellipse fill="none" stroke="black" cx="393.072" cy="-18" rx="59.5901" ry="18"/>
<text text-anchor="middle" x="393.072" y="-14.3" font-family="Times,serif" font-size="14.00">PricingModel</text>
</g>
<!-- Price&#45;&gt;PricingModel -->
<g id="edge3" class="edge"><title>Price&#45;&gt;PricingModel</title>
<path fill="none" stroke="red" d="M295.936,-39.2078C307.13,-36.7383 320.67,-33.7513 334.011,-30.8082"/>
<polygon fill="red" stroke="red" points="335.121,-34.1476 344.132,-28.5755 333.613,-27.312 335.121,-34.1476"/>
</g>
</g>
</svg>
