<?xml version="1.0" encoding="UTF-8" standalone="no"?>
<!DOCTYPE svg PUBLIC "-//W3C//DTD SVG 1.1//EN"
 "http://www.w3.org/Graphics/SVG/1.1/DTD/svg11.dtd">
<!-- Generated by graphviz version 2.38.0 (20140413.2041)
 -->
<!-- Title: %3 Pages: 1 -->
<svg width="461pt" height="44pt"
 viewBox="0.00 0.00 460.87 44.00" xmlns="http://www.w3.org/2000/svg" xmlns:xlink="http://www.w3.org/1999/xlink">
<g id="graph0" class="graph" transform="scale(1 1) rotate(0) translate(4 40)">
<title>%3</title>
<polygon fill="white" stroke="none" points="-4,4 -4,-40 456.866,-40 456.866,4 -4,4"/>
<!-- SQLDatabaseAsAService -->
<g id="node1" class="node"><title>SQLDatabaseAsAService</title>
<ellipse fill="none" stroke="black" cx="102.041" cy="-18" rx="102.082" ry="18"/>
<text text-anchor="middle" x="102.041" y="-14.3" font-family="Times,serif" font-size="14.00">SQLDatabaseAsAService</text>
</g>
<!-- Price -->
<g id="node2" class="node"><title>Price</title>
<ellipse fill="none" stroke="black" cx="268.679" cy="-18" rx="28.6953" ry="18"/>
<text text-anchor="middle" x="268.679" y="-14.3" font-family="Times,serif" font-size="14.00">Price</text>
</g>
<!-- SQLDatabaseAsAService&#45;&gt;Price -->
<g id="edge1" class="edge"><title>SQLDatabaseAsAService&#45;&gt;Price</title>
<path fill="none" stroke="red" d="M204.497,-18C213.414,-18 222.013,-18 229.845,-18"/>
<polygon fill="red" stroke="red" points="230.007,-21.5001 240.007,-18 230.007,-14.5001 230.007,-21.5001"/>
</g>
<!-- PricingModel -->
<g id="node3" class="node"><title>PricingModel</title>
<ellipse fill="none" stroke="black" cx="393.072" cy="-18" rx="59.5901" ry="18"/>
<text text-anchor="middle" x="393.072" y="-14.3" font-family="Times,serif" font-size="14.00">PricingModel</text>
</g>
<!-- Price&#45;&gt;PricingModel -->
<g id="edge2" class="edge"><title>Price&#45;&gt;PricingModel</title>
<path fill="none" stroke="red" d="M297.452,-18C305.139,-18 313.84,-18 322.776,-18"/>
<polygon fill="red" stroke="red" points="322.923,-21.5001 332.923,-18 322.923,-14.5001 322.923,-21.5001"/>
</g>
</g>
</svg>
