<?xml version="1.0" encoding="UTF-8" standalone="no"?>
<!DOCTYPE svg PUBLIC "-//W3C//DTD SVG 1.1//EN"
 "http://www.w3.org/Graphics/SVG/1.1/DTD/svg11.dtd">
<!-- Generated by graphviz version 2.38.0 (20140413.2041)
 -->
<!-- Title: %3 Pages: 1 -->
<svg width="518pt" height="260pt"
 viewBox="0.00 0.00 518.06 260.00" xmlns="http://www.w3.org/2000/svg" xmlns:xlink="http://www.w3.org/1999/xlink">
<g id="graph0" class="graph" transform="scale(1 1) rotate(0) translate(4 256)">
<title>%3</title>
<polygon fill="white" stroke="none" points="-4,4 -4,-256 514.061,-256 514.061,4 -4,4"/>
<!-- StorageAsAService -->
<g id="node1" class="node"><title>StorageAsAService</title>
<ellipse fill="none" stroke="black" cx="79.9429" cy="-126" rx="79.8859" ry="18"/>
<text text-anchor="middle" x="79.9429" y="-122.3" font-family="Times,serif" font-size="14.00">StorageAsAService</text>
</g>
<!-- Price -->
<g id="node2" class="node"><title>Price</title>
<ellipse fill="none" stroke="black" cx="275.179" cy="-234" rx="28.6953" ry="18"/>
<text text-anchor="middle" x="275.179" y="-230.3" font-family="Times,serif" font-size="14.00">Price</text>
</g>
<!-- StorageAsAService&#45;&gt;Price -->
<g id="edge1" class="edge"><title>StorageAsAService&#45;&gt;Price</title>
<path fill="none" stroke="red" d="M101.814,-143.456C124.002,-161.333 160.679,-188.984 195.886,-207 209.378,-213.904 225.034,-219.701 238.784,-224.131"/>
<polygon fill="red" stroke="red" points="237.813,-227.494 248.401,-227.112 239.886,-220.808 237.813,-227.494"/>
</g>
<!-- Region -->
<g id="node4" class="node"><title>Region</title>
<ellipse fill="none" stroke="black" cx="275.179" cy="-180" rx="36.2938" ry="18"/>
<text text-anchor="middle" x="275.179" y="-176.3" font-family="Times,serif" font-size="14.00">Region</text>
</g>
<!-- StorageAsAService&#45;&gt;Region -->
<g id="edge3" class="edge"><title>StorageAsAService&#45;&gt;Region</title>
<path fill="none" stroke="red" d="M130.706,-139.906C162.554,-148.806 203.365,-160.211 233.312,-168.58"/>
<polygon fill="red" stroke="red" points="232.45,-171.973 243.023,-171.294 234.334,-165.231 232.45,-171.973"/>
</g>
<!-- Storage -->
<g id="node5" class="node"><title>Storage</title>
<ellipse fill="none" stroke="black" cx="275.179" cy="-126" rx="37.8943" ry="18"/>
<text text-anchor="middle" x="275.179" y="-122.3" font-family="Times,serif" font-size="14.00">Storage</text>
</g>
<!-- StorageAsAService&#45;&gt;Storage -->
<g id="edge4" class="edge"><title>StorageAsAService&#45;&gt;Storage</title>
<path fill="none" stroke="red" d="M160.097,-126C182.907,-126 207.061,-126 227.242,-126"/>
<polygon fill="red" stroke="red" points="227.405,-129.5 237.405,-126 227.405,-122.5 227.405,-129.5"/>
</g>
<!-- StorageWriteSpeed -->
<g id="node6" class="node"><title>StorageWriteSpeed</title>
<ellipse fill="none" stroke="black" cx="275.179" cy="-72" rx="79.0865" ry="18"/>
<text text-anchor="middle" x="275.179" y="-68.3" font-family="Times,serif" font-size="14.00">StorageWriteSpeed</text>
</g>
<!-- StorageAsAService&#45;&gt;StorageWriteSpeed -->
<g id="edge5" class="edge"><title>StorageAsAService&#45;&gt;StorageWriteSpeed</title>
<path fill="none" stroke="red" d="M130.706,-112.094C156.302,-104.941 187.686,-96.1705 214.568,-88.6584"/>
<polygon fill="red" stroke="red" points="215.56,-92.0153 224.249,-85.953 213.676,-85.2736 215.56,-92.0153"/>
</g>
<!-- StorageReadSpeed -->
<g id="node7" class="node"><title>StorageReadSpeed</title>
<ellipse fill="none" stroke="black" cx="275.179" cy="-18" rx="77.1866" ry="18"/>
<text text-anchor="middle" x="275.179" y="-14.3" font-family="Times,serif" font-size="14.00">StorageReadSpeed</text>
</g>
<!-- StorageAsAService&#45;&gt;StorageReadSpeed -->
<g id="edge6" class="edge"><title>StorageAsAService&#45;&gt;StorageReadSpeed</title>
<path fill="none" stroke="red" d="M101.814,-108.544C124.002,-90.667 160.679,-63.0158 195.886,-45 202.486,-41.6228 209.603,-38.5106 216.762,-35.6938"/>
<polygon fill="red" stroke="red" points="218.371,-38.8283 226.505,-32.0386 215.912,-32.2743 218.371,-38.8283"/>
</g>
<!-- PricingModel -->
<g id="node3" class="node"><title>PricingModel</title>
<ellipse fill="none" stroke="black" cx="450.266" cy="-234" rx="59.5901" ry="18"/>
<text text-anchor="middle" x="450.266" y="-230.3" font-family="Times,serif" font-size="14.00">PricingModel</text>
</g>
<!-- Price&#45;&gt;PricingModel -->
<g id="edge2" class="edge"><title>Price&#45;&gt;PricingModel</title>
<path fill="none" stroke="red" d="M303.988,-234C324.579,-234 353.569,-234 380.242,-234"/>
<polygon fill="red" stroke="red" points="380.329,-237.5 390.329,-234 380.329,-230.5 380.329,-237.5"/>
</g>
</g>
</svg>
