<?xml version="1.0" encoding="UTF-8" standalone="no"?>
<!DOCTYPE svg PUBLIC "-//W3C//DTD SVG 1.1//EN"
 "http://www.w3.org/Graphics/SVG/1.1/DTD/svg11.dtd">
<!-- Generated by graphviz version 2.38.0 (20140413.2041)
 -->
<!-- Title: %3 Pages: 1 -->
<svg width="362pt" height="206pt"
 viewBox="0.00 0.00 362.47 206.00" xmlns="http://www.w3.org/2000/svg" xmlns:xlink="http://www.w3.org/1999/xlink">
<g id="graph0" class="graph" transform="scale(1 1) rotate(0) translate(4 202)">
<title>%3</title>
<polygon fill="white" stroke="none" points="-4,4 -4,-202 358.472,-202 358.472,4 -4,4"/>
<!-- StorageAsAService -->
<g id="node1" class="node"><title>StorageAsAService</title>
<ellipse fill="none" stroke="black" cx="79.9429" cy="-99" rx="79.8859" ry="18"/>
<text text-anchor="middle" x="79.9429" y="-95.3" font-family="Times,serif" font-size="14.00">StorageAsAService</text>
</g>
<!-- Region -->
<g id="node2" class="node"><title>Region</title>
<ellipse fill="none" stroke="black" cx="275.179" cy="-180" rx="36.2938" ry="18"/>
<text text-anchor="middle" x="275.179" y="-176.3" font-family="Times,serif" font-size="14.00">Region</text>
</g>
<!-- StorageAsAService&#45;&gt;Region -->
<g id="edge1" class="edge"><title>StorageAsAService&#45;&gt;Region</title>
<path fill="none" stroke="red" d="M113.724,-115.548C136.496,-126.758 167.694,-141.555 195.886,-153 208.29,-158.036 222.028,-162.98 234.489,-167.233"/>
<polygon fill="red" stroke="red" points="233.564,-170.615 244.158,-170.485 235.795,-163.98 233.564,-170.615"/>
</g>
<!-- Storage -->
<g id="node3" class="node"><title>Storage</title>
<ellipse fill="none" stroke="black" cx="275.179" cy="-126" rx="37.8943" ry="18"/>
<text text-anchor="middle" x="275.179" y="-122.3" font-family="Times,serif" font-size="14.00">Storage</text>
</g>
<!-- StorageAsAService&#45;&gt;Storage -->
<g id="edge2" class="edge"><title>StorageAsAService&#45;&gt;Storage</title>
<path fill="none" stroke="red" d="M148.256,-108.405C174.823,-112.117 204.654,-116.286 228.611,-119.633"/>
<polygon fill="red" stroke="red" points="228.443,-123.143 238.831,-121.061 229.412,-116.211 228.443,-123.143"/>
</g>
<!-- StorageWriteSpeed -->
<g id="node4" class="node"><title>StorageWriteSpeed</title>
<ellipse fill="none" stroke="black" cx="275.179" cy="-72" rx="79.0865" ry="18"/>
<text text-anchor="middle" x="275.179" y="-68.3" font-family="Times,serif" font-size="14.00">StorageWriteSpeed</text>
</g>
<!-- StorageAsAService&#45;&gt;StorageWriteSpeed -->
<g id="edge3" class="edge"><title>StorageAsAService&#45;&gt;StorageWriteSpeed</title>
<path fill="none" stroke="red" d="M148.256,-89.5946C164.041,-87.389 180.979,-85.0224 197.152,-82.7626"/>
<polygon fill="red" stroke="red" points="197.687,-86.222 207.106,-81.3717 196.718,-79.2893 197.687,-86.222"/>
</g>
<!-- StorageReadSpeed -->
<g id="node5" class="node"><title>StorageReadSpeed</title>
<ellipse fill="none" stroke="black" cx="275.179" cy="-18" rx="77.1866" ry="18"/>
<text text-anchor="middle" x="275.179" y="-14.3" font-family="Times,serif" font-size="14.00">StorageReadSpeed</text>
</g>
<!-- StorageAsAService&#45;&gt;StorageReadSpeed -->
<g id="edge4" class="edge"><title>StorageAsAService&#45;&gt;StorageReadSpeed</title>
<path fill="none" stroke="red" d="M113.724,-82.4525C136.496,-71.2425 167.694,-56.4449 195.886,-45 203.463,-41.924 211.537,-38.8821 219.515,-36.0109"/>
<polygon fill="red" stroke="red" points="220.895,-39.2353 229.157,-32.6027 218.562,-32.6355 220.895,-39.2353"/>
</g>
</g>
</svg>
