<?xml version="1.0" encoding="UTF-8" standalone="no"?>
<!DOCTYPE svg PUBLIC "-//W3C//DTD SVG 1.1//EN"
 "http://www.w3.org/Graphics/SVG/1.1/DTD/svg11.dtd">
<!-- Generated by graphviz version 2.38.0 (20140413.2041)
 -->
<!-- Title: %3 Pages: 1 -->
<svg width="534pt" height="827pt"
 viewBox="0.00 0.00 533.66 827.00" xmlns="http://www.w3.org/2000/svg" xmlns:xlink="http://www.w3.org/1999/xlink">
<g id="graph0" class="graph" transform="scale(1 1) rotate(0) translate(4 823)">
<title>%3</title>
<polygon fill="white" stroke="none" points="-4,4 -4,-823 529.66,-823 529.66,4 -4,4"/>
<!-- VMAsAService -->
<g id="node1" class="node"><title>VMAsAService</title>
<ellipse fill="none" stroke="black" cx="67.594" cy="-396" rx="67.6881" ry="18"/>
<text text-anchor="middle" x="67.594" y="-392.3" font-family="Times,serif" font-size="14.00">VMAsAService</text>
</g>
<!-- Price -->
<g id="node2" class="node"><title>Price</title>
<ellipse fill="none" stroke="black" cx="270.629" cy="-774" rx="28.6953" ry="18"/>
<text text-anchor="middle" x="270.629" y="-770.3" font-family="Times,serif" font-size="14.00">Price</text>
</g>
<!-- VMAsAService&#45;&gt;Price -->
<g id="edge1" class="edge"><title>VMAsAService&#45;&gt;Price</title>
<path fill="none" stroke="red" d="M68.1447,-414.356C67.7754,-472.158 74.7736,-652.18 171.188,-747 187.185,-762.733 211.438,-769.508 231.867,-772.337"/>
<polygon fill="red" stroke="red" points="231.507,-775.819 241.835,-773.458 232.289,-768.863 231.507,-775.819"/>
</g>
<!-- Region -->
<g id="node5" class="node"><title>Region</title>
<ellipse fill="none" stroke="black" cx="270.629" cy="-720" rx="36.2938" ry="18"/>
<text text-anchor="middle" x="270.629" y="-716.3" font-family="Times,serif" font-size="14.00">Region</text>
</g>
<!-- VMAsAService&#45;&gt;Region -->
<g id="edge4" class="edge"><title>VMAsAService&#45;&gt;Region</title>
<path fill="none" stroke="red" d="M69.2649,-414.102C72.1846,-465.706 87.7953,-614.852 171.188,-693 185.481,-706.394 205.783,-713.255 224.24,-716.728"/>
<polygon fill="red" stroke="red" points="223.828,-720.207 234.255,-718.329 224.933,-713.294 223.828,-720.207"/>
</g>
<!-- OperatingSystem -->
<g id="node6" class="node"><title>OperatingSystem</title>
<ellipse fill="none" stroke="black" cx="270.629" cy="-666" rx="72.2875" ry="18"/>
<text text-anchor="middle" x="270.629" y="-662.3" font-family="Times,serif" font-size="14.00">OperatingSystem</text>
</g>
<!-- VMAsAService&#45;&gt;OperatingSystem -->
<g id="edge5" class="edge"><title>VMAsAService&#45;&gt;OperatingSystem</title>
<path fill="none" stroke="red" d="M70.8278,-414.053C77.3807,-459.105 100.752,-577.286 171.188,-639 178.636,-645.525 187.522,-650.489 196.864,-654.261"/>
<polygon fill="red" stroke="red" points="195.727,-657.571 206.321,-657.649 198.088,-650.981 195.727,-657.571"/>
</g>
<!-- CpuCores -->
<g id="node7" class="node"><title>CpuCores</title>
<ellipse fill="none" stroke="black" cx="270.629" cy="-612" rx="46.2923" ry="18"/>
<text text-anchor="middle" x="270.629" y="-608.3" font-family="Times,serif" font-size="14.00">CpuCores</text>
</g>
<!-- VMAsAService&#45;&gt;CpuCores -->
<g id="edge6" class="edge"><title>VMAsAService&#45;&gt;CpuCores</title>
<path fill="none" stroke="red" d="M73.2481,-414.206C83.8733,-452.01 113.565,-539.293 171.188,-585 183.83,-595.028 199.933,-601.338 215.435,-605.307"/>
<polygon fill="red" stroke="red" points="214.966,-608.789 225.493,-607.592 216.517,-601.963 214.966,-608.789"/>
</g>
<!-- CpuClockSpeed -->
<g id="node8" class="node"><title>CpuClockSpeed</title>
<ellipse fill="none" stroke="black" cx="270.629" cy="-558" rx="67.6881" ry="18"/>
<text text-anchor="middle" x="270.629" y="-554.3" font-family="Times,serif" font-size="14.00">CpuClockSpeed</text>
</g>
<!-- VMAsAService&#45;&gt;CpuClockSpeed -->
<g id="edge7" class="edge"><title>VMAsAService&#45;&gt;CpuClockSpeed</title>
<path fill="none" stroke="red" d="M77.2358,-413.884C92.2204,-442.968 125.823,-500.341 171.188,-531 180.557,-537.332 191.371,-542.185 202.328,-545.902"/>
<polygon fill="red" stroke="red" points="201.373,-549.271 211.961,-548.886 203.444,-542.584 201.373,-549.271"/>
</g>
<!-- Ram -->
<g id="node9" class="node"><title>Ram</title>
<ellipse fill="none" stroke="black" cx="270.629" cy="-504" rx="27.8951" ry="18"/>
<text text-anchor="middle" x="270.629" y="-500.3" font-family="Times,serif" font-size="14.00">Ram</text>
</g>
<!-- VMAsAService&#45;&gt;Ram -->
<g id="edge8" class="edge"><title>VMAsAService&#45;&gt;Ram</title>
<path fill="none" stroke="red" d="M85.9513,-413.36C105.21,-431.69 137.972,-460.211 171.188,-477 190.628,-486.826 214.093,-493.44 233.237,-497.662"/>
<polygon fill="red" stroke="red" points="232.588,-501.102 243.091,-499.712 234.013,-494.249 232.588,-501.102"/>
</g>
<!-- RamClockSpeed -->
<g id="node10" class="node"><title>RamClockSpeed</title>
<ellipse fill="none" stroke="black" cx="270.629" cy="-450" rx="70.3881" ry="18"/>
<text text-anchor="middle" x="270.629" y="-446.3" font-family="Times,serif" font-size="14.00">RamClockSpeed</text>
</g>
<!-- VMAsAService&#45;&gt;RamClockSpeed -->
<g id="edge9" class="edge"><title>VMAsAService&#45;&gt;RamClockSpeed</title>
<path fill="none" stroke="red" d="M115.728,-408.661C144.297,-416.335 180.972,-426.186 211.353,-434.346"/>
<polygon fill="red" stroke="red" points="210.829,-437.83 221.394,-437.044 212.645,-431.069 210.829,-437.83"/>
</g>
<!-- RamWriteSpeed -->
<g id="node11" class="node"><title>RamWriteSpeed</title>
<ellipse fill="none" stroke="black" cx="270.629" cy="-396" rx="69.5877" ry="18"/>
<text text-anchor="middle" x="270.629" y="-392.3" font-family="Times,serif" font-size="14.00">RamWriteSpeed</text>
</g>
<!-- VMAsAService&#45;&gt;RamWriteSpeed -->
<g id="edge10" class="edge"><title>VMAsAService&#45;&gt;RamWriteSpeed</title>
<path fill="none" stroke="red" d="M135.257,-396C153.097,-396 172.549,-396 190.972,-396"/>
<polygon fill="red" stroke="red" points="191.084,-399.5 201.084,-396 191.084,-392.5 191.084,-399.5"/>
</g>
<!-- RamReadSpeed -->
<g id="node12" class="node"><title>RamReadSpeed</title>
<ellipse fill="none" stroke="black" cx="270.629" cy="-342" rx="67.6881" ry="18"/>
<text text-anchor="middle" x="270.629" y="-338.3" font-family="Times,serif" font-size="14.00">RamReadSpeed</text>
</g>
<!-- VMAsAService&#45;&gt;RamReadSpeed -->
<g id="edge11" class="edge"><title>VMAsAService&#45;&gt;RamReadSpeed</title>
<path fill="none" stroke="red" d="M115.728,-383.339C144.736,-375.548 182.099,-365.511 212.747,-357.279"/>
<polygon fill="red" stroke="red" points="213.693,-360.649 222.443,-354.675 211.877,-353.889 213.693,-360.649"/>
</g>
<!-- Storage -->
<g id="node13" class="node"><title>Storage</title>
<ellipse fill="none" stroke="black" cx="270.629" cy="-288" rx="37.8943" ry="18"/>
<text text-anchor="middle" x="270.629" y="-284.3" font-family="Times,serif" font-size="14.00">Storage</text>
</g>
<!-- VMAsAService&#45;&gt;Storage -->
<g id="edge12" class="edge"><title>VMAsAService&#45;&gt;Storage</title>
<path fill="none" stroke="red" d="M85.9513,-378.64C105.21,-360.31 137.972,-331.789 171.188,-315 187.847,-306.58 207.462,-300.518 224.78,-296.299"/>
<polygon fill="red" stroke="red" points="225.711,-299.676 234.672,-294.024 224.142,-292.854 225.711,-299.676"/>
</g>
<!-- StorageWriteSpeed -->
<g id="node14" class="node"><title>StorageWriteSpeed</title>
<ellipse fill="none" stroke="black" cx="270.629" cy="-234" rx="79.0865" ry="18"/>
<text text-anchor="middle" x="270.629" y="-230.3" font-family="Times,serif" font-size="14.00">StorageWriteSpeed</text>
</g>
<!-- VMAsAService&#45;&gt;StorageWriteSpeed -->
<g id="edge13" class="edge"><title>VMAsAService&#45;&gt;StorageWriteSpeed</title>
<path fill="none" stroke="red" d="M77.2358,-378.116C92.2204,-349.032 125.823,-291.659 171.188,-261 179.034,-255.697 187.894,-251.432 197.003,-248.002"/>
<polygon fill="red" stroke="red" points="198.232,-251.28 206.552,-244.721 195.958,-244.66 198.232,-251.28"/>
</g>
<!-- StorageReadSpeed -->
<g id="node15" class="node"><title>StorageReadSpeed</title>
<ellipse fill="none" stroke="black" cx="270.629" cy="-180" rx="77.1866" ry="18"/>
<text text-anchor="middle" x="270.629" y="-176.3" font-family="Times,serif" font-size="14.00">StorageReadSpeed</text>
</g>
<!-- VMAsAService&#45;&gt;StorageReadSpeed -->
<g id="edge14" class="edge"><title>VMAsAService&#45;&gt;StorageReadSpeed</title>
<path fill="none" stroke="red" d="M73.2481,-377.794C83.8733,-339.99 113.565,-252.707 171.188,-207 178.427,-201.258 186.801,-196.735 195.548,-193.172"/>
<polygon fill="red" stroke="red" points="196.952,-196.385 205.148,-189.671 194.554,-189.809 196.952,-196.385"/>
</g>
<!-- NetworkCapacity -->
<g id="node16" class="node"><title>NetworkCapacity</title>
<ellipse fill="none" stroke="black" cx="270.629" cy="-126" rx="72.5877" ry="18"/>
<text text-anchor="middle" x="270.629" y="-122.3" font-family="Times,serif" font-size="14.00">NetworkCapacity</text>
</g>
<!-- VMAsAService&#45;&gt;NetworkCapacity -->
<g id="edge15" class="edge"><title>VMAsAService&#45;&gt;NetworkCapacity</title>
<path fill="none" stroke="red" d="M70.8278,-377.947C77.3807,-332.895 100.752,-214.714 171.188,-153 178.509,-146.586 187.219,-141.681 196.386,-137.933"/>
<polygon fill="red" stroke="red" points="197.852,-141.125 206.065,-134.432 195.471,-134.543 197.852,-141.125"/>
</g>
<!-- NetworkUploadSpeed -->
<g id="node17" class="node"><title>NetworkUploadSpeed</title>
<ellipse fill="none" stroke="black" cx="270.629" cy="-72" rx="89.0842" ry="18"/>
<text text-anchor="middle" x="270.629" y="-68.3" font-family="Times,serif" font-size="14.00">NetworkUploadSpeed</text>
</g>
<!-- VMAsAService&#45;&gt;NetworkUploadSpeed -->
<g id="edge16" class="edge"><title>VMAsAService&#45;&gt;NetworkUploadSpeed</title>
<path fill="none" stroke="red" d="M69.2649,-377.898C72.1846,-326.294 87.7953,-177.148 171.188,-99 176.478,-94.043 182.59,-89.9808 189.128,-86.654"/>
<polygon fill="red" stroke="red" points="190.574,-89.8413 198.269,-82.5582 187.712,-83.4532 190.574,-89.8413"/>
</g>
<!-- NetworkDownloadSpeed -->
<g id="node18" class="node"><title>NetworkDownloadSpeed</title>
<ellipse fill="none" stroke="black" cx="270.629" cy="-18" rx="99.3824" ry="18"/>
<text text-anchor="middle" x="270.629" y="-14.3" font-family="Times,serif" font-size="14.00">NetworkDownloadSpeed</text>
</g>
<!-- VMAsAService&#45;&gt;NetworkDownloadSpeed -->
<g id="edge17" class="edge"><title>VMAsAService&#45;&gt;NetworkDownloadSpeed</title>
<path fill="none" stroke="red" d="M68.1447,-377.644C67.7754,-319.842 74.7736,-139.82 171.188,-45 175.397,-40.8605 180.178,-37.3412 185.31,-34.3507"/>
<polygon fill="red" stroke="red" points="186.918,-37.4593 194.24,-29.801 183.74,-31.2221 186.918,-37.4593"/>
</g>
<!-- Currency -->
<g id="node3" class="node"><title>Currency</title>
<ellipse fill="none" stroke="black" cx="465.865" cy="-801" rx="43.5923" ry="18"/>
<text text-anchor="middle" x="465.865" y="-797.3" font-family="Times,serif" font-size="14.00">Currency</text>
</g>
<!-- Price&#45;&gt;Currency -->
<g id="edge2" class="edge"><title>Price&#45;&gt;Currency</title>
<path fill="none" stroke="red" d="M298.905,-777.811C328.765,-781.983 377.3,-788.765 414.188,-793.919"/>
<polygon fill="red" stroke="red" points="413.871,-797.409 424.259,-795.326 414.84,-790.476 413.871,-797.409"/>
</g>
<!-- PricingModel -->
<g id="node4" class="node"><title>PricingModel</title>
<ellipse fill="none" stroke="black" cx="465.865" cy="-747" rx="59.5901" ry="18"/>
<text text-anchor="middle" x="465.865" y="-743.3" font-family="Times,serif" font-size="14.00">PricingModel</text>
</g>
<!-- Price&#45;&gt;PricingModel -->
<g id="edge3" class="edge"><title>Price&#45;&gt;PricingModel</title>
<path fill="none" stroke="red" d="M298.905,-770.189C325.323,-766.498 366.359,-760.764 401.015,-755.921"/>
<polygon fill="red" stroke="red" points="401.652,-759.367 411.071,-754.516 400.683,-752.434 401.652,-759.367"/>
</g>
</g>
</svg>
