<?xml version="1.0" encoding="UTF-8" standalone="no"?>
<!DOCTYPE svg PUBLIC "-//W3C//DTD SVG 1.1//EN"
 "http://www.w3.org/Graphics/SVG/1.1/DTD/svg11.dtd">
<!-- Generated by graphviz version 2.38.0 (20140413.2041)
 -->
<!-- Title: %3 Pages: 1 -->
<svg width="573pt" height="626pt"
 viewBox="0.00 0.00 572.66 626.37" xmlns="http://www.w3.org/2000/svg" xmlns:xlink="http://www.w3.org/1999/xlink">
<g id="graph0" class="graph" transform="scale(1 1) rotate(0) translate(4 622.368)">
<title>%3</title>
<polygon fill="white" stroke="none" points="-4,4 -4,-622.368 568.656,-622.368 568.656,4 -4,4"/>
<!-- VMAsAService -->
<g id="node1" class="node"><title>VMAsAService</title>
<ellipse fill="none" stroke="black" cx="67.594" cy="-315" rx="67.6881" ry="18"/>
<text text-anchor="middle" x="67.594" y="-311.3" font-family="Times,serif" font-size="14.00">VMAsAService</text>
</g>
<!-- Region -->
<g id="node2" class="node"><title>Region</title>
<ellipse fill="none" stroke="black" cx="485.363" cy="-446" rx="36.2938" ry="18"/>
<text text-anchor="middle" x="485.363" y="-442.3" font-family="Times,serif" font-size="14.00">Region</text>
</g>
<!-- VMAsAService&#45;&gt;Region -->
<g id="edge1" class="edge"><title>VMAsAService&#45;&gt;Region</title>
<path fill="none" stroke="red" d="M68.9906,-333.306C71.1962,-383.87 85.1244,-525.635 171.188,-585 243.949,-635.189 290.147,-622.755 370.07,-585 418.921,-561.923 453.927,-506.597 471.501,-473.12"/>
<polygon fill="red" stroke="red" points="474.778,-474.397 476.193,-463.897 468.539,-471.224 474.778,-474.397"/>
</g>
<!-- OperatingSystem -->
<g id="node3" class="node"><title>OperatingSystem</title>
<ellipse fill="none" stroke="black" cx="270.629" cy="-558" rx="72.2875" ry="18"/>
<text text-anchor="middle" x="270.629" y="-554.3" font-family="Times,serif" font-size="14.00">OperatingSystem</text>
</g>
<!-- VMAsAService&#45;&gt;OperatingSystem -->
<g id="edge2" class="edge"><title>VMAsAService&#45;&gt;OperatingSystem</title>
<path fill="none" stroke="red" d="M71.9097,-333.204C80.4612,-374.812 107.233,-477.401 171.188,-531 178.828,-537.403 187.863,-542.296 197.312,-546.033"/>
<polygon fill="red" stroke="red" points="196.267,-549.375 206.862,-549.398 198.594,-542.773 196.267,-549.375"/>
</g>
<!-- CpuCores -->
<g id="node4" class="node"><title>CpuCores</title>
<ellipse fill="none" stroke="black" cx="270.629" cy="-504" rx="46.2923" ry="18"/>
<text text-anchor="middle" x="270.629" y="-500.3" font-family="Times,serif" font-size="14.00">CpuCores</text>
</g>
<!-- VMAsAService&#45;&gt;CpuCores -->
<g id="edge3" class="edge"><title>VMAsAService&#45;&gt;CpuCores</title>
<path fill="none" stroke="red" d="M74.8903,-332.922C87.6204,-366.491 119.671,-438.885 171.188,-477 184.16,-486.597 200.358,-492.783 215.846,-496.77"/>
<polygon fill="red" stroke="red" points="215.349,-500.248 225.88,-499.087 216.924,-493.427 215.349,-500.248"/>
</g>
<!-- CpuClockSpeed -->
<g id="node5" class="node"><title>CpuClockSpeed</title>
<ellipse fill="none" stroke="black" cx="270.629" cy="-450" rx="67.6881" ry="18"/>
<text text-anchor="middle" x="270.629" y="-446.3" font-family="Times,serif" font-size="14.00">CpuClockSpeed</text>
</g>
<!-- VMAsAService&#45;&gt;CpuClockSpeed -->
<g id="edge4" class="edge"><title>VMAsAService&#45;&gt;CpuClockSpeed</title>
<path fill="none" stroke="red" d="M80.6534,-332.79C97.9031,-356.861 131.912,-399.49 171.188,-423 181.126,-428.949 192.405,-433.62 203.694,-437.278"/>
<polygon fill="red" stroke="red" points="202.999,-440.723 213.583,-440.238 205.007,-434.017 202.999,-440.723"/>
</g>
<!-- Ram -->
<g id="node6" class="node"><title>Ram</title>
<ellipse fill="none" stroke="black" cx="270.629" cy="-396" rx="27.8951" ry="18"/>
<text text-anchor="middle" x="270.629" y="-392.3" font-family="Times,serif" font-size="14.00">Ram</text>
</g>
<!-- VMAsAService&#45;&gt;Ram -->
<g id="edge5" class="edge"><title>VMAsAService&#45;&gt;Ram</title>
<path fill="none" stroke="red" d="M96.1226,-331.59C116.349,-343.253 144.791,-358.576 171.188,-369 191.447,-377 214.945,-383.542 233.901,-388.182"/>
<polygon fill="red" stroke="red" points="233.098,-391.589 243.637,-390.497 234.718,-384.779 233.098,-391.589"/>
</g>
<!-- RamClockSpeed -->
<g id="node7" class="node"><title>RamClockSpeed</title>
<ellipse fill="none" stroke="black" cx="270.629" cy="-342" rx="70.3881" ry="18"/>
<text text-anchor="middle" x="270.629" y="-338.3" font-family="Times,serif" font-size="14.00">RamClockSpeed</text>
</g>
<!-- VMAsAService&#45;&gt;RamClockSpeed -->
<g id="edge6" class="edge"><title>VMAsAService&#45;&gt;RamClockSpeed</title>
<path fill="none" stroke="red" d="M128.367,-323.028C150.245,-325.966 175.223,-329.321 198.031,-332.384"/>
<polygon fill="red" stroke="red" points="197.619,-335.86 207.996,-333.722 198.551,-328.922 197.619,-335.86"/>
</g>
<!-- RamWriteSpeed -->
<g id="node8" class="node"><title>RamWriteSpeed</title>
<ellipse fill="none" stroke="black" cx="270.629" cy="-288" rx="69.5877" ry="18"/>
<text text-anchor="middle" x="270.629" y="-284.3" font-family="Times,serif" font-size="14.00">RamWriteSpeed</text>
</g>
<!-- VMAsAService&#45;&gt;RamWriteSpeed -->
<g id="edge7" class="edge"><title>VMAsAService&#45;&gt;RamWriteSpeed</title>
<path fill="none" stroke="red" d="M128.367,-306.972C150.346,-304.02 175.454,-300.648 198.346,-297.574"/>
<polygon fill="red" stroke="red" points="198.901,-301.031 208.346,-296.231 197.969,-294.093 198.901,-301.031"/>
</g>
<!-- RamReadSpeed -->
<g id="node9" class="node"><title>RamReadSpeed</title>
<ellipse fill="none" stroke="black" cx="270.629" cy="-234" rx="67.6881" ry="18"/>
<text text-anchor="middle" x="270.629" y="-230.3" font-family="Times,serif" font-size="14.00">RamReadSpeed</text>
</g>
<!-- VMAsAService&#45;&gt;RamReadSpeed -->
<g id="edge8" class="edge"><title>VMAsAService&#45;&gt;RamReadSpeed</title>
<path fill="none" stroke="red" d="M96.1226,-298.41C116.349,-286.747 144.791,-271.424 171.188,-261 183.154,-256.275 196.249,-252.058 208.871,-248.442"/>
<polygon fill="red" stroke="red" points="210.16,-251.717 218.862,-245.672 208.29,-244.971 210.16,-251.717"/>
</g>
<!-- StorageAsAService -->
<g id="node10" class="node"><title>StorageAsAService</title>
<ellipse fill="none" stroke="black" cx="270.629" cy="-180" rx="79.8859" ry="18"/>
<text text-anchor="middle" x="270.629" y="-176.3" font-family="Times,serif" font-size="14.00">StorageAsAService</text>
</g>
<!-- VMAsAService&#45;&gt;StorageAsAService -->
<g id="edge9" class="edge"><title>VMAsAService&#45;&gt;StorageAsAService</title>
<path fill="none" stroke="red" d="M80.6534,-297.21C97.9031,-273.139 131.912,-230.51 171.188,-207 179.627,-201.948 189.034,-197.818 198.592,-194.447"/>
<polygon fill="red" stroke="red" points="199.749,-197.752 208.171,-191.323 197.578,-191.097 199.749,-197.752"/>
</g>
<!-- NetworkCapacity -->
<g id="node14" class="node"><title>NetworkCapacity</title>
<ellipse fill="none" stroke="black" cx="270.629" cy="-126" rx="72.5877" ry="18"/>
<text text-anchor="middle" x="270.629" y="-122.3" font-family="Times,serif" font-size="14.00">NetworkCapacity</text>
</g>
<!-- VMAsAService&#45;&gt;NetworkCapacity -->
<g id="edge14" class="edge"><title>VMAsAService&#45;&gt;NetworkCapacity</title>
<path fill="none" stroke="red" d="M74.8903,-297.078C87.6204,-263.509 119.671,-191.115 171.188,-153 179.308,-146.992 188.693,-142.321 198.376,-138.689"/>
<polygon fill="red" stroke="red" points="199.772,-141.912 208.123,-135.393 197.529,-135.281 199.772,-141.912"/>
</g>
<!-- NetworkUploadSpeed -->
<g id="node15" class="node"><title>NetworkUploadSpeed</title>
<ellipse fill="none" stroke="black" cx="270.629" cy="-72" rx="89.0842" ry="18"/>
<text text-anchor="middle" x="270.629" y="-68.3" font-family="Times,serif" font-size="14.00">NetworkUploadSpeed</text>
</g>
<!-- VMAsAService&#45;&gt;NetworkUploadSpeed -->
<g id="edge15" class="edge"><title>VMAsAService&#45;&gt;NetworkUploadSpeed</title>
<path fill="none" stroke="red" d="M71.9097,-296.796C80.4612,-255.188 107.233,-152.599 171.188,-99 176.884,-94.2262 183.356,-90.2919 190.196,-87.0501"/>
<polygon fill="red" stroke="red" points="191.854,-90.1497 199.714,-83.045 189.139,-83.6977 191.854,-90.1497"/>
</g>
<!-- NetworkDownloadSpeed -->
<g id="node16" class="node"><title>NetworkDownloadSpeed</title>
<ellipse fill="none" stroke="black" cx="270.629" cy="-18" rx="99.3824" ry="18"/>
<text text-anchor="middle" x="270.629" y="-14.3" font-family="Times,serif" font-size="14.00">NetworkDownloadSpeed</text>
</g>
<!-- VMAsAService&#45;&gt;NetworkDownloadSpeed -->
<g id="edge16" class="edge"><title>VMAsAService&#45;&gt;NetworkDownloadSpeed</title>
<path fill="none" stroke="red" d="M69.9885,-296.784C74.7038,-248.258 94.3728,-114.813 171.188,-45 175.835,-40.7762 181.083,-37.2043 186.674,-34.185"/>
<polygon fill="red" stroke="red" points="188.186,-37.3417 195.708,-29.8806 185.175,-31.0223 188.186,-37.3417"/>
</g>
<!-- StorageAsAService&#45;&gt;Region -->
<g id="edge10" class="edge"><title>StorageAsAService&#45;&gt;Region</title>
<path fill="none" stroke="red" d="M337.964,-189.793C349.544,-193.744 360.824,-199.272 370.07,-207 387.709,-221.743 447.509,-359.235 472.857,-418.752"/>
<polygon fill="red" stroke="red" points="469.764,-420.424 476.895,-428.259 476.207,-417.687 469.764,-420.424"/>
</g>
<!-- Storage -->
<g id="node11" class="node"><title>Storage</title>
<ellipse fill="none" stroke="black" cx="485.363" cy="-234" rx="37.8943" ry="18"/>
<text text-anchor="middle" x="485.363" y="-230.3" font-family="Times,serif" font-size="14.00">Storage</text>
</g>
<!-- StorageAsAService&#45;&gt;Storage -->
<g id="edge11" class="edge"><title>StorageAsAService&#45;&gt;Storage</title>
<path fill="none" stroke="red" d="M324.488,-193.418C360.62,-202.589 407.891,-214.588 441.641,-223.155"/>
<polygon fill="red" stroke="red" points="441.1,-226.629 451.653,-225.697 442.822,-219.844 441.1,-226.629"/>
</g>
<!-- StorageWriteSpeed -->
<g id="node12" class="node"><title>StorageWriteSpeed</title>
<ellipse fill="none" stroke="black" cx="485.363" cy="-180" rx="79.0865" ry="18"/>
<text text-anchor="middle" x="485.363" y="-176.3" font-family="Times,serif" font-size="14.00">StorageWriteSpeed</text>
</g>
<!-- StorageAsAService&#45;&gt;StorageWriteSpeed -->
<g id="edge12" class="edge"><title>StorageAsAService&#45;&gt;StorageWriteSpeed</title>
<path fill="none" stroke="red" d="M350.844,-180C365.433,-180 380.752,-180 395.601,-180"/>
<polygon fill="red" stroke="red" points="395.791,-183.5 405.791,-180 395.791,-176.5 395.791,-183.5"/>
</g>
<!-- StorageReadSpeed -->
<g id="node13" class="node"><title>StorageReadSpeed</title>
<ellipse fill="none" stroke="black" cx="485.363" cy="-126" rx="77.1866" ry="18"/>
<text text-anchor="middle" x="485.363" y="-122.3" font-family="Times,serif" font-size="14.00">StorageReadSpeed</text>
</g>
<!-- StorageAsAService&#45;&gt;StorageReadSpeed -->
<g id="edge13" class="edge"><title>StorageAsAService&#45;&gt;StorageReadSpeed</title>
<path fill="none" stroke="red" d="M324.488,-166.582C354.247,-159.029 391.56,-149.557 422.653,-141.664"/>
<polygon fill="red" stroke="red" points="423.68,-145.015 432.512,-139.162 421.958,-138.23 423.68,-145.015"/>
</g>
</g>
</svg>
