<?xml version="1.0" encoding="UTF-8" standalone="no"?>
<!DOCTYPE svg PUBLIC "-//W3C//DTD SVG 1.1//EN"
 "http://www.w3.org/Graphics/SVG/1.1/DTD/svg11.dtd">
<!-- Generated by graphviz version 2.38.0 (20140413.2041)
 -->
<!-- Title: %3 Pages: 1 -->
<svg width="573pt" height="683pt"
 viewBox="0.00 0.00 572.66 683.16" xmlns="http://www.w3.org/2000/svg" xmlns:xlink="http://www.w3.org/1999/xlink">
<g id="graph0" class="graph" transform="scale(1 1) rotate(0) translate(4 679.163)">
<title>%3</title>
<polygon fill="white" stroke="none" points="-4,4 -4,-679.163 568.656,-679.163 568.656,4 -4,4"/>
<!-- VMAsAService -->
<g id="node1" class="node"><title>VMAsAService</title>
<ellipse fill="none" stroke="black" cx="67.594" cy="-369" rx="67.6881" ry="18"/>
<text text-anchor="middle" x="67.594" y="-365.3" font-family="Times,serif" font-size="14.00">VMAsAService</text>
</g>
<!-- Region -->
<g id="node2" class="node"><title>Region</title>
<ellipse fill="none" stroke="black" cx="485.363" cy="-419" rx="36.2938" ry="18"/>
<text text-anchor="middle" x="485.363" y="-415.3" font-family="Times,serif" font-size="14.00">Region</text>
</g>
<!-- VMAsAService&#45;&gt;Region -->
<g id="edge1" class="edge"><title>VMAsAService&#45;&gt;Region</title>
<path fill="none" stroke="red" d="M68.9906,-387.306C71.1962,-437.87 85.1244,-579.635 171.188,-639 243.949,-689.189 294.522,-684.887 370.07,-639 439.986,-596.534 469.084,-495.867 479.436,-446.821"/>
<polygon fill="red" stroke="red" points="482.891,-447.394 481.421,-436.902 476.027,-446.021 482.891,-447.394"/>
</g>
<!-- OperatingSystem -->
<g id="node3" class="node"><title>OperatingSystem</title>
<ellipse fill="none" stroke="black" cx="270.629" cy="-612" rx="72.2875" ry="18"/>
<text text-anchor="middle" x="270.629" y="-608.3" font-family="Times,serif" font-size="14.00">OperatingSystem</text>
</g>
<!-- VMAsAService&#45;&gt;OperatingSystem -->
<g id="edge2" class="edge"><title>VMAsAService&#45;&gt;OperatingSystem</title>
<path fill="none" stroke="red" d="M71.9097,-387.204C80.4612,-428.812 107.233,-531.401 171.188,-585 178.828,-591.403 187.863,-596.296 197.312,-600.033"/>
<polygon fill="red" stroke="red" points="196.267,-603.375 206.862,-603.398 198.594,-596.773 196.267,-603.375"/>
</g>
<!-- CpuCores -->
<g id="node4" class="node"><title>CpuCores</title>
<ellipse fill="none" stroke="black" cx="270.629" cy="-558" rx="46.2923" ry="18"/>
<text text-anchor="middle" x="270.629" y="-554.3" font-family="Times,serif" font-size="14.00">CpuCores</text>
</g>
<!-- VMAsAService&#45;&gt;CpuCores -->
<g id="edge3" class="edge"><title>VMAsAService&#45;&gt;CpuCores</title>
<path fill="none" stroke="red" d="M74.8903,-386.922C87.6204,-420.491 119.671,-492.885 171.188,-531 184.16,-540.597 200.358,-546.783 215.846,-550.77"/>
<polygon fill="red" stroke="red" points="215.349,-554.248 225.88,-553.087 216.924,-547.427 215.349,-554.248"/>
</g>
<!-- CpuClockSpeed -->
<g id="node5" class="node"><title>CpuClockSpeed</title>
<ellipse fill="none" stroke="black" cx="270.629" cy="-504" rx="67.6881" ry="18"/>
<text text-anchor="middle" x="270.629" y="-500.3" font-family="Times,serif" font-size="14.00">CpuClockSpeed</text>
</g>
<!-- VMAsAService&#45;&gt;CpuClockSpeed -->
<g id="edge4" class="edge"><title>VMAsAService&#45;&gt;CpuClockSpeed</title>
<path fill="none" stroke="red" d="M80.6534,-386.79C97.9031,-410.861 131.912,-453.49 171.188,-477 181.126,-482.949 192.405,-487.62 203.694,-491.278"/>
<polygon fill="red" stroke="red" points="202.999,-494.723 213.583,-494.238 205.007,-488.017 202.999,-494.723"/>
</g>
<!-- Ram -->
<g id="node6" class="node"><title>Ram</title>
<ellipse fill="none" stroke="black" cx="270.629" cy="-450" rx="27.8951" ry="18"/>
<text text-anchor="middle" x="270.629" y="-446.3" font-family="Times,serif" font-size="14.00">Ram</text>
</g>
<!-- VMAsAService&#45;&gt;Ram -->
<g id="edge5" class="edge"><title>VMAsAService&#45;&gt;Ram</title>
<path fill="none" stroke="red" d="M96.1226,-385.59C116.349,-397.253 144.791,-412.576 171.188,-423 191.447,-431 214.945,-437.542 233.901,-442.182"/>
<polygon fill="red" stroke="red" points="233.098,-445.589 243.637,-444.497 234.718,-438.779 233.098,-445.589"/>
</g>
<!-- RamClockSpeed -->
<g id="node7" class="node"><title>RamClockSpeed</title>
<ellipse fill="none" stroke="black" cx="270.629" cy="-396" rx="70.3881" ry="18"/>
<text text-anchor="middle" x="270.629" y="-392.3" font-family="Times,serif" font-size="14.00">RamClockSpeed</text>
</g>
<!-- VMAsAService&#45;&gt;RamClockSpeed -->
<g id="edge6" class="edge"><title>VMAsAService&#45;&gt;RamClockSpeed</title>
<path fill="none" stroke="red" d="M128.367,-377.028C150.245,-379.966 175.223,-383.321 198.031,-386.384"/>
<polygon fill="red" stroke="red" points="197.619,-389.86 207.996,-387.722 198.551,-382.922 197.619,-389.86"/>
</g>
<!-- RamWriteSpeed -->
<g id="node8" class="node"><title>RamWriteSpeed</title>
<ellipse fill="none" stroke="black" cx="270.629" cy="-342" rx="69.5877" ry="18"/>
<text text-anchor="middle" x="270.629" y="-338.3" font-family="Times,serif" font-size="14.00">RamWriteSpeed</text>
</g>
<!-- VMAsAService&#45;&gt;RamWriteSpeed -->
<g id="edge7" class="edge"><title>VMAsAService&#45;&gt;RamWriteSpeed</title>
<path fill="none" stroke="red" d="M128.367,-360.972C150.346,-358.02 175.454,-354.648 198.346,-351.574"/>
<polygon fill="red" stroke="red" points="198.901,-355.031 208.346,-350.231 197.969,-348.093 198.901,-355.031"/>
</g>
<!-- RamReadSpeed -->
<g id="node9" class="node"><title>RamReadSpeed</title>
<ellipse fill="none" stroke="black" cx="270.629" cy="-288" rx="67.6881" ry="18"/>
<text text-anchor="middle" x="270.629" y="-284.3" font-family="Times,serif" font-size="14.00">RamReadSpeed</text>
</g>
<!-- VMAsAService&#45;&gt;RamReadSpeed -->
<g id="edge8" class="edge"><title>VMAsAService&#45;&gt;RamReadSpeed</title>
<path fill="none" stroke="red" d="M96.1226,-352.41C116.349,-340.747 144.791,-325.424 171.188,-315 183.154,-310.275 196.249,-306.058 208.871,-302.442"/>
<polygon fill="red" stroke="red" points="210.16,-305.717 218.862,-299.672 208.29,-298.971 210.16,-305.717"/>
</g>
<!-- NetworkCapacity -->
<g id="node10" class="node"><title>NetworkCapacity</title>
<ellipse fill="none" stroke="black" cx="270.629" cy="-234" rx="72.5877" ry="18"/>
<text text-anchor="middle" x="270.629" y="-230.3" font-family="Times,serif" font-size="14.00">NetworkCapacity</text>
</g>
<!-- VMAsAService&#45;&gt;NetworkCapacity -->
<g id="edge9" class="edge"><title>VMAsAService&#45;&gt;NetworkCapacity</title>
<path fill="none" stroke="red" d="M80.6534,-351.21C97.9031,-327.139 131.912,-284.51 171.188,-261 180.443,-255.46 190.862,-251.028 201.369,-247.49"/>
<polygon fill="red" stroke="red" points="202.504,-250.803 211.011,-244.487 200.423,-244.119 202.504,-250.803"/>
</g>
<!-- NetworkUploadSpeed -->
<g id="node11" class="node"><title>NetworkUploadSpeed</title>
<ellipse fill="none" stroke="black" cx="270.629" cy="-180" rx="89.0842" ry="18"/>
<text text-anchor="middle" x="270.629" y="-176.3" font-family="Times,serif" font-size="14.00">NetworkUploadSpeed</text>
</g>
<!-- VMAsAService&#45;&gt;NetworkUploadSpeed -->
<g id="edge10" class="edge"><title>VMAsAService&#45;&gt;NetworkUploadSpeed</title>
<path fill="none" stroke="red" d="M74.8903,-351.078C87.6204,-317.509 119.671,-245.115 171.188,-207 177.549,-202.294 184.685,-198.408 192.133,-195.2"/>
<polygon fill="red" stroke="red" points="193.643,-198.368 201.699,-191.487 191.11,-191.842 193.643,-198.368"/>
</g>
<!-- NetworkDownloadSpeed -->
<g id="node12" class="node"><title>NetworkDownloadSpeed</title>
<ellipse fill="none" stroke="black" cx="270.629" cy="-126" rx="99.3824" ry="18"/>
<text text-anchor="middle" x="270.629" y="-122.3" font-family="Times,serif" font-size="14.00">NetworkDownloadSpeed</text>
</g>
<!-- VMAsAService&#45;&gt;NetworkDownloadSpeed -->
<g id="edge11" class="edge"><title>VMAsAService&#45;&gt;NetworkDownloadSpeed</title>
<path fill="none" stroke="red" d="M71.9097,-350.796C80.4612,-309.188 107.233,-206.599 171.188,-153 176.135,-148.854 181.667,-145.341 187.517,-142.365"/>
<polygon fill="red" stroke="red" points="189.258,-145.42 196.934,-138.117 186.38,-139.039 189.258,-145.42"/>
</g>
<!-- StorageAsAService -->
<g id="node13" class="node"><title>StorageAsAService</title>
<ellipse fill="none" stroke="black" cx="270.629" cy="-72" rx="79.8859" ry="18"/>
<text text-anchor="middle" x="270.629" y="-68.3" font-family="Times,serif" font-size="14.00">StorageAsAService</text>
</g>
<!-- VMAsAService&#45;&gt;StorageAsAService -->
<g id="edge12" class="edge"><title>VMAsAService&#45;&gt;StorageAsAService</title>
<path fill="none" stroke="red" d="M69.9885,-350.784C74.7038,-302.258 94.3728,-168.813 171.188,-99 177.503,-93.2602 184.926,-88.7244 192.816,-85.1428"/>
<polygon fill="red" stroke="red" points="194.274,-88.3294 202.255,-81.3616 191.671,-81.8314 194.274,-88.3294"/>
</g>
<!-- StorageAsAService&#45;&gt;Region -->
<g id="edge13" class="edge"><title>StorageAsAService&#45;&gt;Region</title>
<path fill="none" stroke="red" d="M339.389,-81.3081C350.635,-85.3145 361.429,-90.9866 370.07,-99 414.403,-140.112 461.016,-320.543 477.836,-390.832"/>
<polygon fill="red" stroke="red" points="474.475,-391.829 480.186,-400.752 481.286,-390.215 474.475,-391.829"/>
</g>
<!-- Storage -->
<g id="node14" class="node"><title>Storage</title>
<ellipse fill="none" stroke="black" cx="485.363" cy="-126" rx="37.8943" ry="18"/>
<text text-anchor="middle" x="485.363" y="-122.3" font-family="Times,serif" font-size="14.00">Storage</text>
</g>
<!-- StorageAsAService&#45;&gt;Storage -->
<g id="edge14" class="edge"><title>StorageAsAService&#45;&gt;Storage</title>
<path fill="none" stroke="red" d="M324.488,-85.4177C360.62,-94.5893 407.891,-106.588 441.641,-115.155"/>
<polygon fill="red" stroke="red" points="441.1,-118.629 451.653,-117.697 442.822,-111.844 441.1,-118.629"/>
</g>
<!-- StorageWriteSpeed -->
<g id="node15" class="node"><title>StorageWriteSpeed</title>
<ellipse fill="none" stroke="black" cx="485.363" cy="-72" rx="79.0865" ry="18"/>
<text text-anchor="middle" x="485.363" y="-68.3" font-family="Times,serif" font-size="14.00">StorageWriteSpeed</text>
</g>
<!-- StorageAsAService&#45;&gt;StorageWriteSpeed -->
<g id="edge15" class="edge"><title>StorageAsAService&#45;&gt;StorageWriteSpeed</title>
<path fill="none" stroke="red" d="M350.844,-72C365.433,-72 380.752,-72 395.601,-72"/>
<polygon fill="red" stroke="red" points="395.791,-75.5001 405.791,-72 395.791,-68.5001 395.791,-75.5001"/>
</g>
<!-- StorageReadSpeed -->
<g id="node16" class="node"><title>StorageReadSpeed</title>
<ellipse fill="none" stroke="black" cx="485.363" cy="-18" rx="77.1866" ry="18"/>
<text text-anchor="middle" x="485.363" y="-14.3" font-family="Times,serif" font-size="14.00">StorageReadSpeed</text>
</g>
<!-- StorageAsAService&#45;&gt;StorageReadSpeed -->
<g id="edge16" class="edge"><title>StorageAsAService&#45;&gt;StorageReadSpeed</title>
<path fill="none" stroke="red" d="M324.488,-58.5823C354.247,-51.0286 391.56,-41.557 422.653,-33.6645"/>
<polygon fill="red" stroke="red" points="423.68,-37.0147 432.512,-31.1619 421.958,-30.2299 423.68,-37.0147"/>
</g>
</g>
</svg>
