<?xml version="1.0" encoding="UTF-8" standalone="no"?>
<!DOCTYPE svg PUBLIC "-//W3C//DTD SVG 1.1//EN"
 "http://www.w3.org/Graphics/SVG/1.1/DTD/svg11.dtd">
<!-- Generated by graphviz version 2.38.0 (20140413.2041)
 -->
<!-- Title: %3 Pages: 1 -->
<svg width="378pt" height="746pt"
 viewBox="0.00 0.00 378.07 746.00" xmlns="http://www.w3.org/2000/svg" xmlns:xlink="http://www.w3.org/1999/xlink">
<g id="graph0" class="graph" transform="scale(1 1) rotate(0) translate(4 742)">
<title>%3</title>
<polygon fill="white" stroke="none" points="-4,4 -4,-742 374.07,-742 374.07,4 -4,4"/>
<!-- VMAsAService -->
<g id="node1" class="node"><title>VMAsAService</title>
<ellipse fill="none" stroke="black" cx="67.594" cy="-369" rx="67.6881" ry="18"/>
<text text-anchor="middle" x="67.594" y="-365.3" font-family="Times,serif" font-size="14.00">VMAsAService</text>
</g>
<!-- Region -->
<g id="node2" class="node"><title>Region</title>
<ellipse fill="none" stroke="black" cx="270.629" cy="-720" rx="36.2938" ry="18"/>
<text text-anchor="middle" x="270.629" y="-716.3" font-family="Times,serif" font-size="14.00">Region</text>
</g>
<!-- VMAsAService&#45;&gt;Region -->
<g id="edge1" class="edge"><title>VMAsAService&#45;&gt;Region</title>
<path fill="none" stroke="red" d="M68.6631,-387.125C69.8923,-441.777 81.2454,-606.496 171.188,-693 185.306,-706.578 205.584,-713.465 224.071,-716.907"/>
<polygon fill="red" stroke="red" points="223.684,-720.389 234.107,-718.485 224.772,-713.474 223.684,-720.389"/>
</g>
<!-- OperatingSystem -->
<g id="node3" class="node"><title>OperatingSystem</title>
<ellipse fill="none" stroke="black" cx="270.629" cy="-666" rx="72.2875" ry="18"/>
<text text-anchor="middle" x="270.629" y="-662.3" font-family="Times,serif" font-size="14.00">OperatingSystem</text>
</g>
<!-- VMAsAService&#45;&gt;OperatingSystem -->
<g id="edge2" class="edge"><title>VMAsAService&#45;&gt;OperatingSystem</title>
<path fill="none" stroke="red" d="M69.9885,-387.216C74.7038,-435.742 94.3728,-569.187 171.188,-639 178.516,-645.66 187.334,-650.699 196.644,-654.507"/>
<polygon fill="red" stroke="red" points="195.486,-657.81 206.08,-657.919 197.866,-651.227 195.486,-657.81"/>
</g>
<!-- CpuCores -->
<g id="node4" class="node"><title>CpuCores</title>
<ellipse fill="none" stroke="black" cx="270.629" cy="-612" rx="46.2923" ry="18"/>
<text text-anchor="middle" x="270.629" y="-608.3" font-family="Times,serif" font-size="14.00">CpuCores</text>
</g>
<!-- VMAsAService&#45;&gt;CpuCores -->
<g id="edge3" class="edge"><title>VMAsAService&#45;&gt;CpuCores</title>
<path fill="none" stroke="red" d="M71.9097,-387.204C80.4612,-428.812 107.233,-531.401 171.188,-585 183.555,-595.365 199.579,-601.772 215.093,-605.726"/>
<polygon fill="red" stroke="red" points="214.647,-609.213 225.171,-607.987 216.18,-602.383 214.647,-609.213"/>
</g>
<!-- CpuClockSpeed -->
<g id="node5" class="node"><title>CpuClockSpeed</title>
<ellipse fill="none" stroke="black" cx="270.629" cy="-558" rx="67.6881" ry="18"/>
<text text-anchor="middle" x="270.629" y="-554.3" font-family="Times,serif" font-size="14.00">CpuClockSpeed</text>
</g>
<!-- VMAsAService&#45;&gt;CpuClockSpeed -->
<g id="edge4" class="edge"><title>VMAsAService&#45;&gt;CpuClockSpeed</title>
<path fill="none" stroke="red" d="M74.8903,-386.922C87.6204,-420.491 119.671,-492.885 171.188,-531 180.078,-537.577 190.482,-542.552 201.135,-546.315"/>
<polygon fill="red" stroke="red" points="200.361,-549.741 210.952,-549.441 202.485,-543.072 200.361,-549.741"/>
</g>
<!-- Ram -->
<g id="node6" class="node"><title>Ram</title>
<ellipse fill="none" stroke="black" cx="270.629" cy="-504" rx="27.8951" ry="18"/>
<text text-anchor="middle" x="270.629" y="-500.3" font-family="Times,serif" font-size="14.00">Ram</text>
</g>
<!-- VMAsAService&#45;&gt;Ram -->
<g id="edge5" class="edge"><title>VMAsAService&#45;&gt;Ram</title>
<path fill="none" stroke="red" d="M80.6534,-386.79C97.9031,-410.861 131.912,-453.49 171.188,-477 190.006,-488.264 213.636,-494.948 233.027,-498.847"/>
<polygon fill="red" stroke="red" points="232.55,-502.318 243.019,-500.689 233.82,-495.434 232.55,-502.318"/>
</g>
<!-- RamClockSpeed -->
<g id="node7" class="node"><title>RamClockSpeed</title>
<ellipse fill="none" stroke="black" cx="270.629" cy="-450" rx="70.3881" ry="18"/>
<text text-anchor="middle" x="270.629" y="-446.3" font-family="Times,serif" font-size="14.00">RamClockSpeed</text>
</g>
<!-- VMAsAService&#45;&gt;RamClockSpeed -->
<g id="edge6" class="edge"><title>VMAsAService&#45;&gt;RamClockSpeed</title>
<path fill="none" stroke="red" d="M96.1226,-385.59C116.349,-397.253 144.791,-412.576 171.188,-423 182.894,-427.622 195.68,-431.758 208.047,-435.321"/>
<polygon fill="red" stroke="red" points="207.274,-438.739 217.847,-438.054 209.155,-431.996 207.274,-438.739"/>
</g>
<!-- RamWriteSpeed -->
<g id="node8" class="node"><title>RamWriteSpeed</title>
<ellipse fill="none" stroke="black" cx="270.629" cy="-396" rx="69.5877" ry="18"/>
<text text-anchor="middle" x="270.629" y="-392.3" font-family="Times,serif" font-size="14.00">RamWriteSpeed</text>
</g>
<!-- VMAsAService&#45;&gt;RamWriteSpeed -->
<g id="edge7" class="edge"><title>VMAsAService&#45;&gt;RamWriteSpeed</title>
<path fill="none" stroke="red" d="M128.367,-377.028C150.346,-379.98 175.454,-383.352 198.346,-386.426"/>
<polygon fill="red" stroke="red" points="197.969,-389.907 208.346,-387.769 198.901,-382.969 197.969,-389.907"/>
</g>
<!-- RamReadSpeed -->
<g id="node9" class="node"><title>RamReadSpeed</title>
<ellipse fill="none" stroke="black" cx="270.629" cy="-342" rx="67.6881" ry="18"/>
<text text-anchor="middle" x="270.629" y="-338.3" font-family="Times,serif" font-size="14.00">RamReadSpeed</text>
</g>
<!-- VMAsAService&#45;&gt;RamReadSpeed -->
<g id="edge8" class="edge"><title>VMAsAService&#45;&gt;RamReadSpeed</title>
<path fill="none" stroke="red" d="M128.367,-360.972C150.749,-357.966 176.376,-354.524 199.604,-351.405"/>
<polygon fill="red" stroke="red" points="200.294,-354.844 209.739,-350.043 199.363,-347.906 200.294,-354.844"/>
</g>
<!-- Storage -->
<g id="node10" class="node"><title>Storage</title>
<ellipse fill="none" stroke="black" cx="270.629" cy="-288" rx="37.8943" ry="18"/>
<text text-anchor="middle" x="270.629" y="-284.3" font-family="Times,serif" font-size="14.00">Storage</text>
</g>
<!-- VMAsAService&#45;&gt;Storage -->
<g id="edge9" class="edge"><title>VMAsAService&#45;&gt;Storage</title>
<path fill="none" stroke="red" d="M96.1226,-352.41C116.349,-340.747 144.791,-325.424 171.188,-315 188.687,-308.09 208.602,-302.267 225.92,-297.819"/>
<polygon fill="red" stroke="red" points="226.922,-301.177 235.778,-295.361 225.228,-294.384 226.922,-301.177"/>
</g>
<!-- StorageWriteSpeed -->
<g id="node11" class="node"><title>StorageWriteSpeed</title>
<ellipse fill="none" stroke="black" cx="270.629" cy="-234" rx="79.0865" ry="18"/>
<text text-anchor="middle" x="270.629" y="-230.3" font-family="Times,serif" font-size="14.00">StorageWriteSpeed</text>
</g>
<!-- VMAsAService&#45;&gt;StorageWriteSpeed -->
<g id="edge10" class="edge"><title>VMAsAService&#45;&gt;StorageWriteSpeed</title>
<path fill="none" stroke="red" d="M80.6534,-351.21C97.9031,-327.139 131.912,-284.51 171.188,-261 179.684,-255.914 189.161,-251.762 198.786,-248.379"/>
<polygon fill="red" stroke="red" points="200,-251.665 208.429,-245.246 197.837,-245.007 200,-251.665"/>
</g>
<!-- StorageReadSpeed -->
<g id="node12" class="node"><title>StorageReadSpeed</title>
<ellipse fill="none" stroke="black" cx="270.629" cy="-180" rx="77.1866" ry="18"/>
<text text-anchor="middle" x="270.629" y="-176.3" font-family="Times,serif" font-size="14.00">StorageReadSpeed</text>
</g>
<!-- VMAsAService&#45;&gt;StorageReadSpeed -->
<g id="edge11" class="edge"><title>VMAsAService&#45;&gt;StorageReadSpeed</title>
<path fill="none" stroke="red" d="M74.8903,-351.078C87.6204,-317.509 119.671,-245.115 171.188,-207 178.801,-201.368 187.525,-196.91 196.564,-193.383"/>
<polygon fill="red" stroke="red" points="197.798,-196.659 206.065,-190.033 195.471,-190.057 197.798,-196.659"/>
</g>
<!-- NetworkCapacity -->
<g id="node13" class="node"><title>NetworkCapacity</title>
<ellipse fill="none" stroke="black" cx="270.629" cy="-126" rx="72.5877" ry="18"/>
<text text-anchor="middle" x="270.629" y="-122.3" font-family="Times,serif" font-size="14.00">NetworkCapacity</text>
</g>
<!-- VMAsAService&#45;&gt;NetworkCapacity -->
<g id="edge12" class="edge"><title>VMAsAService&#45;&gt;NetworkCapacity</title>
<path fill="none" stroke="red" d="M71.9097,-350.796C80.4612,-309.188 107.233,-206.599 171.188,-153 178.777,-146.64 187.743,-141.77 197.123,-138.042"/>
<polygon fill="red" stroke="red" points="198.348,-141.321 206.606,-134.683 196.011,-134.723 198.348,-141.321"/>
</g>
<!-- NetworkUploadSpeed -->
<g id="node14" class="node"><title>NetworkUploadSpeed</title>
<ellipse fill="none" stroke="black" cx="270.629" cy="-72" rx="89.0842" ry="18"/>
<text text-anchor="middle" x="270.629" y="-68.3" font-family="Times,serif" font-size="14.00">NetworkUploadSpeed</text>
</g>
<!-- VMAsAService&#45;&gt;NetworkUploadSpeed -->
<g id="edge13" class="edge"><title>VMAsAService&#45;&gt;NetworkUploadSpeed</title>
<path fill="none" stroke="red" d="M69.9885,-350.784C74.7038,-302.258 94.3728,-168.813 171.188,-99 176.598,-94.0834 182.82,-90.0502 189.453,-86.7434"/>
<polygon fill="red" stroke="red" points="190.969,-89.9 198.713,-82.6696 188.151,-83.4925 190.969,-89.9"/>
</g>
<!-- NetworkDownloadSpeed -->
<g id="node15" class="node"><title>NetworkDownloadSpeed</title>
<ellipse fill="none" stroke="black" cx="270.629" cy="-18" rx="99.3824" ry="18"/>
<text text-anchor="middle" x="270.629" y="-14.3" font-family="Times,serif" font-size="14.00">NetworkDownloadSpeed</text>
</g>
<!-- VMAsAService&#45;&gt;NetworkDownloadSpeed -->
<g id="edge14" class="edge"><title>VMAsAService&#45;&gt;NetworkDownloadSpeed</title>
<path fill="none" stroke="red" d="M68.6631,-350.875C69.8923,-296.223 81.2454,-131.504 171.188,-45 175.525,-40.829 180.443,-37.2894 185.712,-34.2872"/>
<polygon fill="red" stroke="red" points="187.479,-37.3171 194.869,-29.7253 184.358,-31.0515 187.479,-37.3171"/>
</g>
</g>
</svg>
