<?xml version="1.0" encoding="UTF-8" standalone="no"?>
<!DOCTYPE svg PUBLIC "-//W3C//DTD SVG 1.1//EN"
 "http://www.w3.org/Graphics/SVG/1.1/DTD/svg11.dtd">
<!-- Generated by graphviz version 2.38.0 (20140413.2041)
 -->
<!-- Title: %3 Pages: 1 -->
<svg width="1337pt" height="422pt"
 viewBox="0.00 0.00 1336.99 422.00" xmlns="http://www.w3.org/2000/svg" xmlns:xlink="http://www.w3.org/1999/xlink">
<g id="graph0" class="graph" transform="scale(1 1) rotate(0) translate(4 418)">
<title>%3</title>
<polygon fill="white" stroke="none" points="-4,4 -4,-418 1332.99,-418 1332.99,4 -4,4"/>
<!-- github.com/supermuesli/csdl@examples/DatabaseRequirement.py@latest -->
<g id="node1" class="node"><title>github.com/supermuesli/csdl@examples/DatabaseRequirement.py@latest</title>
<ellipse fill="none" stroke="black" cx="273.626" cy="-207" rx="273.751" ry="18"/>
<text text-anchor="middle" x="273.626" y="-203.3" font-family="Times,serif" font-size="14.00">github.com/supermuesli/csdl@examples/DatabaseRequirement.py@latest</text>
</g>
<!-- Price -->
<g id="node2" class="node"><title>Price</title>
<ellipse fill="none" stroke="black" cx="878.325" cy="-396" rx="28.6953" ry="18"/>
<text text-anchor="middle" x="878.325" y="-392.3" font-family="Times,serif" font-size="14.00">Price</text>
</g>
<!-- github.com/supermuesli/csdl@examples/DatabaseRequirement.py@latest&#45;&gt;Price -->
<g id="edge1" class="edge"><title>github.com/supermuesli/csdl@examples/DatabaseRequirement.py@latest&#45;&gt;Price</title>
<path fill="none" stroke="red" d="M300.355,-225.047C351.483,-259.844 470.672,-335.715 583.251,-369 672.164,-395.288 782.21,-397.909 839.16,-397.182"/>
<polygon fill="red" stroke="red" points="839.552,-400.676 849.49,-397.005 839.432,-393.677 839.552,-400.676"/>
</g>
<!-- Region -->
<g id="node4" class="node"><title>Region</title>
<ellipse fill="none" stroke="black" cx="878.325" cy="-342" rx="36.2938" ry="18"/>
<text text-anchor="middle" x="878.325" y="-338.3" font-family="Times,serif" font-size="14.00">Region</text>
</g>
<!-- github.com/supermuesli/csdl@examples/DatabaseRequirement.py@latest&#45;&gt;Region -->
<g id="edge3" class="edge"><title>github.com/supermuesli/csdl@examples/DatabaseRequirement.py@latest&#45;&gt;Region</title>
<path fill="none" stroke="red" d="M315.621,-224.99C373.875,-249.705 484.513,-293.532 583.251,-315 669.56,-333.765 772.883,-339.502 831.233,-341.247"/>
<polygon fill="red" stroke="red" points="831.499,-344.755 841.591,-341.528 831.689,-337.758 831.499,-344.755"/>
</g>
<!-- Storage -->
<g id="node5" class="node"><title>Storage</title>
<ellipse fill="none" stroke="black" cx="878.325" cy="-288" rx="37.8943" ry="18"/>
<text text-anchor="middle" x="878.325" y="-284.3" font-family="Times,serif" font-size="14.00">Storage</text>
</g>
<!-- github.com/supermuesli/csdl@examples/DatabaseRequirement.py@latest&#45;&gt;Storage -->
<g id="edge4" class="edge"><title>github.com/supermuesli/csdl@examples/DatabaseRequirement.py@latest&#45;&gt;Storage</title>
<path fill="none" stroke="red" d="M361.136,-224.085C422.845,-235.795 507.9,-250.966 583.251,-261 670.266,-272.587 772.433,-280.753 830.56,-284.89"/>
<polygon fill="red" stroke="red" points="830.32,-288.382 840.541,-285.592 830.811,-281.399 830.32,-288.382"/>
</g>
<!-- github.com/supermuesli/csdl@misc/storage/BackupRetentionPeriod.py@latest -->
<g id="node6" class="node"><title>github.com/supermuesli/csdl@misc/storage/BackupRetentionPeriod.py@latest</title>
<ellipse fill="none" stroke="black" cx="878.325" cy="-234" rx="290.548" ry="18"/>
<text text-anchor="middle" x="878.325" y="-230.3" font-family="Times,serif" font-size="14.00">github.com/supermuesli/csdl@misc/storage/BackupRetentionPeriod.py@latest</text>
</g>
<!-- github.com/supermuesli/csdl@examples/DatabaseRequirement.py@latest&#45;&gt;github.com/supermuesli/csdl@misc/storage/BackupRetentionPeriod.py@latest -->
<g id="edge5" class="edge"><title>github.com/supermuesli/csdl@examples/DatabaseRequirement.py@latest&#45;&gt;github.com/supermuesli/csdl@misc/storage/BackupRetentionPeriod.py@latest</title>
<path fill="none" stroke="red" d="M500.335,-217.111C543.352,-219.039 588.568,-221.064 632.158,-223.017"/>
<polygon fill="red" stroke="red" points="632.167,-226.521 642.313,-223.472 632.48,-219.528 632.167,-226.521"/>
</g>
<!-- github.com/supermuesli/csdl@misc/storage/BackupSnapshotAmount.py@latest -->
<g id="node7" class="node"><title>github.com/supermuesli/csdl@misc/storage/BackupSnapshotAmount.py@latest</title>
<ellipse fill="none" stroke="black" cx="878.325" cy="-180" rx="295.148" ry="18"/>
<text text-anchor="middle" x="878.325" y="-176.3" font-family="Times,serif" font-size="14.00">github.com/supermuesli/csdl@misc/storage/BackupSnapshotAmount.py@latest</text>
</g>
<!-- github.com/supermuesli/csdl@examples/DatabaseRequirement.py@latest&#45;&gt;github.com/supermuesli/csdl@misc/storage/BackupSnapshotAmount.py@latest -->
<g id="edge6" class="edge"><title>github.com/supermuesli/csdl@examples/DatabaseRequirement.py@latest&#45;&gt;github.com/supermuesli/csdl@misc/storage/BackupSnapshotAmount.py@latest</title>
<path fill="none" stroke="red" d="M500.335,-196.889C542.655,-194.993 587.102,-193.002 630.037,-191.078"/>
<polygon fill="red" stroke="red" points="630.207,-194.574 640.04,-190.63 629.894,-187.581 630.207,-194.574"/>
</g>
<!-- github.com/supermuesli/csdl@misc/dataTransfer/In.py@latest -->
<g id="node8" class="node"><title>github.com/supermuesli/csdl@misc/dataTransfer/In.py@latest</title>
<ellipse fill="none" stroke="black" cx="878.325" cy="-126" rx="233.159" ry="18"/>
<text text-anchor="middle" x="878.325" y="-122.3" font-family="Times,serif" font-size="14.00">github.com/supermuesli/csdl@misc/dataTransfer/In.py@latest</text>
</g>
<!-- github.com/supermuesli/csdl@examples/DatabaseRequirement.py@latest&#45;&gt;github.com/supermuesli/csdl@misc/dataTransfer/In.py@latest -->
<g id="edge7" class="edge"><title>github.com/supermuesli/csdl@examples/DatabaseRequirement.py@latest&#45;&gt;github.com/supermuesli/csdl@misc/dataTransfer/In.py@latest</title>
<path fill="none" stroke="red" d="M361.136,-189.915C422.845,-178.205 507.9,-163.034 583.251,-153 621.903,-147.853 663.544,-143.381 702.987,-139.638"/>
<polygon fill="red" stroke="red" points="703.335,-143.12 712.964,-138.702 702.681,-136.151 703.335,-143.12"/>
</g>
<!-- github.com/supermuesli/csdl@misc/dataTransfer/Out.py@latest -->
<g id="node9" class="node"><title>github.com/supermuesli/csdl@misc/dataTransfer/Out.py@latest</title>
<ellipse fill="none" stroke="black" cx="878.325" cy="-72" rx="239.358" ry="18"/>
<text text-anchor="middle" x="878.325" y="-68.3" font-family="Times,serif" font-size="14.00">github.com/supermuesli/csdl@misc/dataTransfer/Out.py@latest</text>
</g>
<!-- github.com/supermuesli/csdl@examples/DatabaseRequirement.py@latest&#45;&gt;github.com/supermuesli/csdl@misc/dataTransfer/Out.py@latest -->
<g id="edge8" class="edge"><title>github.com/supermuesli/csdl@examples/DatabaseRequirement.py@latest&#45;&gt;github.com/supermuesli/csdl@misc/dataTransfer/Out.py@latest</title>
<path fill="none" stroke="red" d="M315.621,-189.01C373.875,-164.295 484.513,-120.468 583.251,-99 612.862,-92.5622 644.474,-87.6578 675.586,-83.922"/>
<polygon fill="red" stroke="red" points="676.138,-87.3815 685.667,-82.7497 675.33,-80.4284 676.138,-87.3815"/>
</g>
<!-- github.com/supermuesli/csdl@aws/rdsPostgres/AvailabilityZone.py@latest -->
<g id="node10" class="node"><title>github.com/supermuesli/csdl@aws/rdsPostgres/AvailabilityZone.py@latest</title>
<ellipse fill="none" stroke="black" cx="878.325" cy="-18" rx="278.351" ry="18"/>
<text text-anchor="middle" x="878.325" y="-14.3" font-family="Times,serif" font-size="14.00">github.com/supermuesli/csdl@aws/rdsPostgres/AvailabilityZone.py@latest</text>
</g>
<!-- github.com/supermuesli/csdl@examples/DatabaseRequirement.py@latest&#45;&gt;github.com/supermuesli/csdl@aws/rdsPostgres/AvailabilityZone.py@latest -->
<g id="edge9" class="edge"><title>github.com/supermuesli/csdl@examples/DatabaseRequirement.py@latest&#45;&gt;github.com/supermuesli/csdl@aws/rdsPostgres/AvailabilityZone.py@latest</title>
<path fill="none" stroke="red" d="M300.355,-188.953C351.483,-154.156 470.672,-78.2847 583.251,-45 603.397,-39.0439 624.627,-34.3028 646.079,-30.5402"/>
<polygon fill="red" stroke="red" points="646.667,-33.9906 655.947,-28.8795 645.505,-27.0876 646.667,-33.9906"/>
</g>
<!-- PricingModel -->
<g id="node3" class="node"><title>PricingModel</title>
<ellipse fill="none" stroke="black" cx="1269.19" cy="-396" rx="59.5901" ry="18"/>
<text text-anchor="middle" x="1269.19" y="-392.3" font-family="Times,serif" font-size="14.00">PricingModel</text>
</g>
<!-- Price&#45;&gt;PricingModel -->
<g id="edge2" class="edge"><title>Price&#45;&gt;PricingModel</title>
<path fill="none" stroke="red" d="M906.98,-396C967.317,-396 1112.31,-396 1199.14,-396"/>
<polygon fill="red" stroke="red" points="1199.17,-399.5 1209.17,-396 1199.17,-392.5 1199.17,-399.5"/>
</g>
</g>
</svg>
