<?xml version="1.0" encoding="UTF-8" standalone="no"?>
<!DOCTYPE svg PUBLIC "-//W3C//DTD SVG 1.1//EN"
 "http://www.w3.org/Graphics/SVG/1.1/DTD/svg11.dtd">
<!-- Generated by graphviz version 2.38.0 (20140413.2041)
 -->
<!-- Title: %3 Pages: 1 -->
<svg width="1337pt" height="368pt"
 viewBox="0.00 0.00 1336.99 368.00" xmlns="http://www.w3.org/2000/svg" xmlns:xlink="http://www.w3.org/1999/xlink">
<g id="graph0" class="graph" transform="scale(1 1) rotate(0) translate(4 364)">
<title>%3</title>
<polygon fill="white" stroke="none" points="-4,4 -4,-364 1332.99,-364 1332.99,4 -4,4"/>
<!-- github.com/supermuesli/csdl@examples/DatabaseRequirement.py@latest -->
<g id="node1" class="node"><title>github.com/supermuesli/csdl@examples/DatabaseRequirement.py@latest</title>
<ellipse fill="none" stroke="black" cx="273.626" cy="-180" rx="273.751" ry="18"/>
<text text-anchor="middle" x="273.626" y="-176.3" font-family="Times,serif" font-size="14.00">github.com/supermuesli/csdl@examples/DatabaseRequirement.py@latest</text>
</g>
<!-- Price -->
<g id="node2" class="node"><title>Price</title>
<ellipse fill="none" stroke="black" cx="878.325" cy="-342" rx="28.6953" ry="18"/>
<text text-anchor="middle" x="878.325" y="-338.3" font-family="Times,serif" font-size="14.00">Price</text>
</g>
<!-- github.com/supermuesli/csdl@examples/DatabaseRequirement.py@latest&#45;&gt;Price -->
<g id="edge1" class="edge"><title>github.com/supermuesli/csdl@examples/DatabaseRequirement.py@latest&#45;&gt;Price</title>
<path fill="none" stroke="red" d="M306.282,-197.953C360.862,-227.951 477.058,-287.664 583.251,-315 673.042,-338.114 782.725,-342.045 839.387,-342.362"/>
<polygon fill="red" stroke="red" points="839.656,-345.862 849.663,-342.382 839.669,-338.862 839.656,-345.862"/>
</g>
<!-- Region -->
<g id="node4" class="node"><title>Region</title>
<ellipse fill="none" stroke="black" cx="878.325" cy="-288" rx="36.2938" ry="18"/>
<text text-anchor="middle" x="878.325" y="-284.3" font-family="Times,serif" font-size="14.00">Region</text>
</g>
<!-- github.com/supermuesli/csdl@examples/DatabaseRequirement.py@latest&#45;&gt;Region -->
<g id="edge3" class="edge"><title>github.com/supermuesli/csdl@examples/DatabaseRequirement.py@latest&#45;&gt;Region</title>
<path fill="none" stroke="red" d="M330.607,-197.682C391.972,-216.358 493.64,-245.238 583.251,-261 670.241,-276.301 773.328,-283.236 831.451,-286.135"/>
<polygon fill="red" stroke="red" points="831.611,-289.647 841.767,-286.631 831.947,-282.655 831.611,-289.647"/>
</g>
<!-- Storage -->
<g id="node5" class="node"><title>Storage</title>
<ellipse fill="none" stroke="black" cx="878.325" cy="-234" rx="37.8943" ry="18"/>
<text text-anchor="middle" x="878.325" y="-230.3" font-family="Times,serif" font-size="14.00">Storage</text>
</g>
<!-- github.com/supermuesli/csdl@examples/DatabaseRequirement.py@latest&#45;&gt;Storage -->
<g id="edge4" class="edge"><title>github.com/supermuesli/csdl@examples/DatabaseRequirement.py@latest&#45;&gt;Storage</title>
<path fill="none" stroke="red" d="M436.534,-194.507C568.945,-206.37 747.43,-222.362 830.798,-229.831"/>
<polygon fill="red" stroke="red" points="830.689,-233.335 840.962,-230.742 831.314,-226.363 830.689,-233.335"/>
</g>
<!-- github.com/supermuesli/csdl@misc/storage/BackupRetentionPeriod.py@latest -->
<g id="node6" class="node"><title>github.com/supermuesli/csdl@misc/storage/BackupRetentionPeriod.py@latest</title>
<ellipse fill="none" stroke="black" cx="878.325" cy="-180" rx="290.548" ry="18"/>
<text text-anchor="middle" x="878.325" y="-176.3" font-family="Times,serif" font-size="14.00">github.com/supermuesli/csdl@misc/storage/BackupRetentionPeriod.py@latest</text>
</g>
<!-- github.com/supermuesli/csdl@examples/DatabaseRequirement.py@latest&#45;&gt;github.com/supermuesli/csdl@misc/storage/BackupRetentionPeriod.py@latest -->
<g id="edge5" class="edge"><title>github.com/supermuesli/csdl@examples/DatabaseRequirement.py@latest&#45;&gt;github.com/supermuesli/csdl@misc/storage/BackupRetentionPeriod.py@latest</title>
<path fill="none" stroke="red" d="M547.321,-180C557.374,-180 567.469,-180 577.562,-180"/>
<polygon fill="red" stroke="red" points="577.653,-183.5 587.653,-180 577.653,-176.5 577.653,-183.5"/>
</g>
<!-- github.com/supermuesli/csdl@misc/storage/BackupSnapshotAmount.py@latest -->
<g id="node7" class="node"><title>github.com/supermuesli/csdl@misc/storage/BackupSnapshotAmount.py@latest</title>
<ellipse fill="none" stroke="black" cx="878.325" cy="-126" rx="295.148" ry="18"/>
<text text-anchor="middle" x="878.325" y="-122.3" font-family="Times,serif" font-size="14.00">github.com/supermuesli/csdl@misc/storage/BackupSnapshotAmount.py@latest</text>
</g>
<!-- github.com/supermuesli/csdl@examples/DatabaseRequirement.py@latest&#45;&gt;github.com/supermuesli/csdl@misc/storage/BackupSnapshotAmount.py@latest -->
<g id="edge6" class="edge"><title>github.com/supermuesli/csdl@examples/DatabaseRequirement.py@latest&#45;&gt;github.com/supermuesli/csdl@misc/storage/BackupSnapshotAmount.py@latest</title>
<path fill="none" stroke="red" d="M436.534,-165.493C518.287,-158.169 617.603,-149.27 701.252,-141.776"/>
<polygon fill="red" stroke="red" points="701.726,-145.247 711.373,-140.869 701.101,-138.275 701.726,-145.247"/>
</g>
<!-- github.com/supermuesli/csdl@misc/dataTransfer/In.py@latest -->
<g id="node8" class="node"><title>github.com/supermuesli/csdl@misc/dataTransfer/In.py@latest</title>
<ellipse fill="none" stroke="black" cx="878.325" cy="-72" rx="233.159" ry="18"/>
<text text-anchor="middle" x="878.325" y="-68.3" font-family="Times,serif" font-size="14.00">github.com/supermuesli/csdl@misc/dataTransfer/In.py@latest</text>
</g>
<!-- github.com/supermuesli/csdl@examples/DatabaseRequirement.py@latest&#45;&gt;github.com/supermuesli/csdl@misc/dataTransfer/In.py@latest -->
<g id="edge7" class="edge"><title>github.com/supermuesli/csdl@examples/DatabaseRequirement.py@latest&#45;&gt;github.com/supermuesli/csdl@misc/dataTransfer/In.py@latest</title>
<path fill="none" stroke="red" d="M330.607,-162.318C391.972,-143.642 493.64,-114.762 583.251,-99 617.406,-92.9925 654.042,-88.2747 689.464,-84.5844"/>
<polygon fill="red" stroke="red" points="689.825,-88.0658 699.419,-83.5706 689.116,-81.1018 689.825,-88.0658"/>
</g>
<!-- github.com/supermuesli/csdl@misc/dataTransfer/Out.py@latest -->
<g id="node9" class="node"><title>github.com/supermuesli/csdl@misc/dataTransfer/Out.py@latest</title>
<ellipse fill="none" stroke="black" cx="878.325" cy="-18" rx="239.358" ry="18"/>
<text text-anchor="middle" x="878.325" y="-14.3" font-family="Times,serif" font-size="14.00">github.com/supermuesli/csdl@misc/dataTransfer/Out.py@latest</text>
</g>
<!-- github.com/supermuesli/csdl@examples/DatabaseRequirement.py@latest&#45;&gt;github.com/supermuesli/csdl@misc/dataTransfer/Out.py@latest -->
<g id="edge8" class="edge"><title>github.com/supermuesli/csdl@examples/DatabaseRequirement.py@latest&#45;&gt;github.com/supermuesli/csdl@misc/dataTransfer/Out.py@latest</title>
<path fill="none" stroke="red" d="M306.282,-162.047C360.862,-132.049 477.058,-72.3364 583.251,-45 610.011,-38.1116 638.537,-32.9268 666.9,-29.0338"/>
<polygon fill="red" stroke="red" points="667.467,-32.4894 676.923,-27.71 666.55,-25.5497 667.467,-32.4894"/>
</g>
<!-- PricingModel -->
<g id="node3" class="node"><title>PricingModel</title>
<ellipse fill="none" stroke="black" cx="1269.19" cy="-342" rx="59.5901" ry="18"/>
<text text-anchor="middle" x="1269.19" y="-338.3" font-family="Times,serif" font-size="14.00">PricingModel</text>
</g>
<!-- Price&#45;&gt;PricingModel -->
<g id="edge2" class="edge"><title>Price&#45;&gt;PricingModel</title>
<path fill="none" stroke="red" d="M906.98,-342C967.317,-342 1112.31,-342 1199.14,-342"/>
<polygon fill="red" stroke="red" points="1199.17,-345.5 1209.17,-342 1199.17,-338.5 1199.17,-345.5"/>
</g>
</g>
</svg>
