<?xml version="1.0" encoding="UTF-8" standalone="no"?>
<!DOCTYPE svg PUBLIC "-//W3C//DTD SVG 1.1//EN"
 "http://www.w3.org/Graphics/SVG/1.1/DTD/svg11.dtd">
<!-- Generated by graphviz version 2.38.0 (20140413.2041)
 -->
<!-- Title: %3 Pages: 1 -->
<svg width="734pt" height="746pt"
 viewBox="0.00 0.00 734.24 746.00" xmlns="http://www.w3.org/2000/svg" xmlns:xlink="http://www.w3.org/1999/xlink">
<g id="graph0" class="graph" transform="scale(1 1) rotate(0) translate(4 742)">
<title>%3</title>
<polygon fill="white" stroke="none" points="-4,4 -4,-742 730.239,-742 730.239,4 -4,4"/>
<!-- github.com/supermuesli/csdl@examples/Requirement1.py@latest -->
<g id="node1" class="node"><title>github.com/supermuesli/csdl@examples/Requirement1.py@latest</title>
<ellipse fill="none" stroke="black" cx="245.678" cy="-369" rx="245.857" ry="18"/>
<text text-anchor="middle" x="245.678" y="-365.3" font-family="Times,serif" font-size="14.00">github.com/supermuesli/csdl@examples/Requirement1.py@latest</text>
</g>
<!-- Region -->
<g id="node2" class="node"><title>Region</title>
<ellipse fill="none" stroke="black" cx="626.798" cy="-720" rx="36.2938" ry="18"/>
<text text-anchor="middle" x="626.798" y="-716.3" font-family="Times,serif" font-size="14.00">Region</text>
</g>
<!-- github.com/supermuesli/csdl@examples/Requirement1.py@latest&#45;&gt;Region -->
<g id="edge1" class="edge"><title>github.com/supermuesli/csdl@examples/Requirement1.py@latest&#45;&gt;Region</title>
<path fill="none" stroke="red" d="M257.101,-387.36C289.481,-442.676 394.19,-609.083 527.356,-693 543.524,-703.188 563.538,-709.584 581.29,-713.575"/>
<polygon fill="red" stroke="red" points="580.934,-717.075 591.434,-715.657 582.342,-710.218 580.934,-717.075"/>
</g>
<!-- OperatingSystem -->
<g id="node3" class="node"><title>OperatingSystem</title>
<ellipse fill="none" stroke="black" cx="626.798" cy="-666" rx="72.2875" ry="18"/>
<text text-anchor="middle" x="626.798" y="-662.3" font-family="Times,serif" font-size="14.00">OperatingSystem</text>
</g>
<!-- github.com/supermuesli/csdl@examples/Requirement1.py@latest&#45;&gt;OperatingSystem -->
<g id="edge2" class="edge"><title>github.com/supermuesli/csdl@examples/Requirement1.py@latest&#45;&gt;OperatingSystem</title>
<path fill="none" stroke="red" d="M260.217,-387.287C297.261,-435.992 405.676,-569.838 527.356,-639 536.97,-644.464 547.746,-648.869 558.546,-652.406"/>
<polygon fill="red" stroke="red" points="557.852,-655.853 568.438,-655.415 559.89,-649.156 557.852,-655.853"/>
</g>
<!-- CpuCores -->
<g id="node4" class="node"><title>CpuCores</title>
<ellipse fill="none" stroke="black" cx="626.798" cy="-612" rx="46.2923" ry="18"/>
<text text-anchor="middle" x="626.798" y="-608.3" font-family="Times,serif" font-size="14.00">CpuCores</text>
</g>
<!-- github.com/supermuesli/csdl@examples/Requirement1.py@latest&#45;&gt;CpuCores -->
<g id="edge3" class="edge"><title>github.com/supermuesli/csdl@examples/Requirement1.py@latest&#45;&gt;CpuCores</title>
<path fill="none" stroke="red" d="M264.657,-387.001C306.784,-428.181 416.712,-529.933 527.356,-585 542.063,-592.319 559.026,-597.878 574.683,-601.992"/>
<polygon fill="red" stroke="red" points="574.198,-605.477 584.746,-604.49 575.884,-598.684 574.198,-605.477"/>
</g>
<!-- CpuClockSpeed -->
<g id="node5" class="node"><title>CpuClockSpeed</title>
<ellipse fill="none" stroke="black" cx="626.798" cy="-558" rx="67.6881" ry="18"/>
<text text-anchor="middle" x="626.798" y="-554.3" font-family="Times,serif" font-size="14.00">CpuClockSpeed</text>
</g>
<!-- github.com/supermuesli/csdl@examples/Requirement1.py@latest&#45;&gt;CpuClockSpeed -->
<g id="edge4" class="edge"><title>github.com/supermuesli/csdl@examples/Requirement1.py@latest&#45;&gt;CpuClockSpeed</title>
<path fill="none" stroke="red" d="M272.595,-387.019C320.759,-419.793 428.193,-489.59 527.356,-531 539.099,-535.903 551.999,-540.18 564.483,-543.796"/>
<polygon fill="red" stroke="red" points="563.803,-547.24 574.376,-546.554 565.683,-540.497 563.803,-547.24"/>
</g>
<!-- Ram -->
<g id="node6" class="node"><title>Ram</title>
<ellipse fill="none" stroke="black" cx="626.798" cy="-504" rx="27.8951" ry="18"/>
<text text-anchor="middle" x="626.798" y="-500.3" font-family="Times,serif" font-size="14.00">Ram</text>
</g>
<!-- github.com/supermuesli/csdl@examples/Requirement1.py@latest&#45;&gt;Ram -->
<g id="edge5" class="edge"><title>github.com/supermuesli/csdl@examples/Requirement1.py@latest&#45;&gt;Ram</title>
<path fill="none" stroke="red" d="M288.998,-386.804C343.533,-409.393 441.545,-448.8 527.356,-477 548.192,-483.847 571.889,-490.384 590.811,-495.31"/>
<polygon fill="red" stroke="red" points="589.949,-498.703 600.506,-497.803 591.692,-491.923 589.949,-498.703"/>
</g>
<!-- RamClockSpeed -->
<g id="node7" class="node"><title>RamClockSpeed</title>
<ellipse fill="none" stroke="black" cx="626.798" cy="-450" rx="70.3881" ry="18"/>
<text text-anchor="middle" x="626.798" y="-446.3" font-family="Times,serif" font-size="14.00">RamClockSpeed</text>
</g>
<!-- github.com/supermuesli/csdl@examples/Requirement1.py@latest&#45;&gt;RamClockSpeed -->
<g id="edge6" class="edge"><title>github.com/supermuesli/csdl@examples/Requirement1.py@latest&#45;&gt;RamClockSpeed</title>
<path fill="none" stroke="red" d="M326.616,-386.079C396.729,-401.059 497.325,-422.551 562.117,-436.395"/>
<polygon fill="red" stroke="red" points="561.688,-439.882 572.199,-438.548 563.151,-433.036 561.688,-439.882"/>
</g>
<!-- RamWriteSpeed -->
<g id="node8" class="node"><title>RamWriteSpeed</title>
<ellipse fill="none" stroke="black" cx="626.798" cy="-396" rx="69.5877" ry="18"/>
<text text-anchor="middle" x="626.798" y="-392.3" font-family="Times,serif" font-size="14.00">RamWriteSpeed</text>
</g>
<!-- github.com/supermuesli/csdl@examples/Requirement1.py@latest&#45;&gt;RamWriteSpeed -->
<g id="edge7" class="edge"><title>github.com/supermuesli/csdl@examples/Requirement1.py@latest&#45;&gt;RamWriteSpeed</title>
<path fill="none" stroke="red" d="M422.365,-381.512C466.981,-384.689 512.627,-387.94 549.347,-390.555"/>
<polygon fill="red" stroke="red" points="549.235,-394.056 559.458,-391.275 549.732,-387.074 549.235,-394.056"/>
</g>
<!-- RamReadSpeed -->
<g id="node9" class="node"><title>RamReadSpeed</title>
<ellipse fill="none" stroke="black" cx="626.798" cy="-342" rx="67.6881" ry="18"/>
<text text-anchor="middle" x="626.798" y="-338.3" font-family="Times,serif" font-size="14.00">RamReadSpeed</text>
</g>
<!-- github.com/supermuesli/csdl@examples/Requirement1.py@latest&#45;&gt;RamReadSpeed -->
<g id="edge8" class="edge"><title>github.com/supermuesli/csdl@examples/Requirement1.py@latest&#45;&gt;RamReadSpeed</title>
<path fill="none" stroke="red" d="M422.365,-356.488C467.689,-353.26 514.077,-349.956 551.089,-347.321"/>
<polygon fill="red" stroke="red" points="551.544,-350.797 561.27,-346.595 551.047,-343.815 551.544,-350.797"/>
</g>
<!-- Storage -->
<g id="node10" class="node"><title>Storage</title>
<ellipse fill="none" stroke="black" cx="626.798" cy="-288" rx="37.8943" ry="18"/>
<text text-anchor="middle" x="626.798" y="-284.3" font-family="Times,serif" font-size="14.00">Storage</text>
</g>
<!-- github.com/supermuesli/csdl@examples/Requirement1.py@latest&#45;&gt;Storage -->
<g id="edge9" class="edge"><title>github.com/supermuesli/csdl@examples/Requirement1.py@latest&#45;&gt;Storage</title>
<path fill="none" stroke="red" d="M326.616,-351.921C404.404,-335.301 519.717,-310.665 582.023,-297.353"/>
<polygon fill="red" stroke="red" points="582.872,-300.75 591.92,-295.238 581.41,-293.905 582.872,-300.75"/>
</g>
<!-- StorageWriteSpeed -->
<g id="node11" class="node"><title>StorageWriteSpeed</title>
<ellipse fill="none" stroke="black" cx="626.798" cy="-234" rx="79.0865" ry="18"/>
<text text-anchor="middle" x="626.798" y="-230.3" font-family="Times,serif" font-size="14.00">StorageWriteSpeed</text>
</g>
<!-- github.com/supermuesli/csdl@examples/Requirement1.py@latest&#45;&gt;StorageWriteSpeed -->
<g id="edge10" class="edge"><title>github.com/supermuesli/csdl@examples/Requirement1.py@latest&#45;&gt;StorageWriteSpeed</title>
<path fill="none" stroke="red" d="M288.998,-351.196C343.533,-328.607 441.545,-289.2 527.356,-261 538.931,-257.196 551.389,-253.488 563.42,-250.099"/>
<polygon fill="red" stroke="red" points="564.697,-253.377 573.397,-247.332 562.826,-246.632 564.697,-253.377"/>
</g>
<!-- StorageReadSpeed -->
<g id="node12" class="node"><title>StorageReadSpeed</title>
<ellipse fill="none" stroke="black" cx="626.798" cy="-180" rx="77.1866" ry="18"/>
<text text-anchor="middle" x="626.798" y="-176.3" font-family="Times,serif" font-size="14.00">StorageReadSpeed</text>
</g>
<!-- github.com/supermuesli/csdl@examples/Requirement1.py@latest&#45;&gt;StorageReadSpeed -->
<g id="edge11" class="edge"><title>github.com/supermuesli/csdl@examples/Requirement1.py@latest&#45;&gt;StorageReadSpeed</title>
<path fill="none" stroke="red" d="M272.595,-350.981C320.759,-318.207 428.193,-248.41 527.356,-207 537.981,-202.563 549.553,-198.64 560.907,-195.254"/>
<polygon fill="red" stroke="red" points="562.152,-198.539 570.8,-192.418 560.223,-191.81 562.152,-198.539"/>
</g>
<!-- NetworkCapacity -->
<g id="node13" class="node"><title>NetworkCapacity</title>
<ellipse fill="none" stroke="black" cx="626.798" cy="-126" rx="72.5877" ry="18"/>
<text text-anchor="middle" x="626.798" y="-122.3" font-family="Times,serif" font-size="14.00">NetworkCapacity</text>
</g>
<!-- github.com/supermuesli/csdl@examples/Requirement1.py@latest&#45;&gt;NetworkCapacity -->
<g id="edge12" class="edge"><title>github.com/supermuesli/csdl@examples/Requirement1.py@latest&#45;&gt;NetworkCapacity</title>
<path fill="none" stroke="red" d="M264.657,-350.999C306.784,-309.819 416.712,-208.067 527.356,-153 537.603,-147.901 548.944,-143.656 560.176,-140.159"/>
<polygon fill="red" stroke="red" points="561.381,-143.453 569.988,-137.276 559.407,-136.737 561.381,-143.453"/>
</g>
<!-- NetworkUploadSpeed -->
<g id="node14" class="node"><title>NetworkUploadSpeed</title>
<ellipse fill="none" stroke="black" cx="626.798" cy="-72" rx="89.0842" ry="18"/>
<text text-anchor="middle" x="626.798" y="-68.3" font-family="Times,serif" font-size="14.00">NetworkUploadSpeed</text>
</g>
<!-- github.com/supermuesli/csdl@examples/Requirement1.py@latest&#45;&gt;NetworkUploadSpeed -->
<g id="edge13" class="edge"><title>github.com/supermuesli/csdl@examples/Requirement1.py@latest&#45;&gt;NetworkUploadSpeed</title>
<path fill="none" stroke="red" d="M260.217,-350.713C297.261,-302.008 405.676,-168.162 527.356,-99 535.22,-94.5305 543.861,-90.7699 552.657,-87.6133"/>
<polygon fill="red" stroke="red" points="553.853,-90.9039 562.232,-84.4201 551.639,-84.2633 553.853,-90.9039"/>
</g>
<!-- NetworkDownloadSpeed -->
<g id="node15" class="node"><title>NetworkDownloadSpeed</title>
<ellipse fill="none" stroke="black" cx="626.798" cy="-18" rx="99.3824" ry="18"/>
<text text-anchor="middle" x="626.798" y="-14.3" font-family="Times,serif" font-size="14.00">NetworkDownloadSpeed</text>
</g>
<!-- github.com/supermuesli/csdl@examples/Requirement1.py@latest&#45;&gt;NetworkDownloadSpeed -->
<g id="edge14" class="edge"><title>github.com/supermuesli/csdl@examples/Requirement1.py@latest&#45;&gt;NetworkDownloadSpeed</title>
<path fill="none" stroke="red" d="M257.101,-350.64C289.481,-295.324 394.19,-128.917 527.356,-45 533.696,-41.0052 540.626,-37.5935 547.78,-34.6812"/>
<polygon fill="red" stroke="red" points="549.488,-37.7802 557.638,-31.0116 547.046,-31.2199 549.488,-37.7802"/>
</g>
</g>
</svg>
