<?xml version="1.0" encoding="UTF-8" standalone="no"?>
<!DOCTYPE svg PUBLIC "-//W3C//DTD SVG 1.1//EN"
 "http://www.w3.org/Graphics/SVG/1.1/DTD/svg11.dtd">
<!-- Generated by graphviz version 2.38.0 (20140413.2041)
 -->
<!-- Title: %3 Pages: 1 -->
<svg width="1142pt" height="704pt"
 viewBox="0.00 0.00 1142.01 703.69" xmlns="http://www.w3.org/2000/svg" xmlns:xlink="http://www.w3.org/1999/xlink">
<g id="graph0" class="graph" transform="scale(1 1) rotate(0) translate(4 699.689)">
<title>%3</title>
<polygon fill="white" stroke="none" points="-4,4 -4,-699.689 1138.01,-699.689 1138.01,4 -4,4"/>
<!-- github.com/supermuesli/csdl@examples/Requirement1.py@latest -->
<g id="node1" class="node"><title>github.com/supermuesli/csdl@examples/Requirement1.py@latest</title>
<ellipse fill="none" stroke="black" cx="245.678" cy="-342" rx="245.857" ry="18"/>
<text text-anchor="middle" x="245.678" y="-338.3" font-family="Times,serif" font-size="14.00">github.com/supermuesli/csdl@examples/Requirement1.py@latest</text>
</g>
<!-- Region -->
<g id="node2" class="node"><title>Region</title>
<ellipse fill="none" stroke="black" cx="1054.71" cy="-500" rx="36.2938" ry="18"/>
<text text-anchor="middle" x="1054.71" y="-496.3" font-family="Times,serif" font-size="14.00">Region</text>
</g>
<!-- github.com/supermuesli/csdl@examples/Requirement1.py@latest&#45;&gt;Region -->
<g id="edge1" class="edge"><title>github.com/supermuesli/csdl@examples/Requirement1.py@latest&#45;&gt;Region</title>
<path fill="none" stroke="red" d="M256.461,-360.031C287.388,-414.862 389.229,-579.486 527.356,-639 695.548,-711.467 773.827,-717.224 939.42,-639 988.271,-615.923 1023.28,-560.597 1040.85,-527.12"/>
<polygon fill="red" stroke="red" points="1044.13,-528.397 1045.54,-517.897 1037.89,-525.224 1044.13,-528.397"/>
</g>
<!-- OperatingSystem -->
<g id="node3" class="node"><title>OperatingSystem</title>
<ellipse fill="none" stroke="black" cx="733.388" cy="-612" rx="72.2875" ry="18"/>
<text text-anchor="middle" x="733.388" y="-608.3" font-family="Times,serif" font-size="14.00">OperatingSystem</text>
</g>
<!-- github.com/supermuesli/csdl@examples/Requirement1.py@latest&#45;&gt;OperatingSystem -->
<g id="edge2" class="edge"><title>github.com/supermuesli/csdl@examples/Requirement1.py@latest&#45;&gt;OperatingSystem</title>
<path fill="none" stroke="red" d="M261.031,-360.301C298.825,-406.999 406.538,-530.719 527.356,-585 565.687,-602.221 611.825,-609.339 650.62,-611.993"/>
<polygon fill="red" stroke="red" points="650.643,-615.5 660.834,-612.601 651.059,-608.512 650.643,-615.5"/>
</g>
<!-- CpuCores -->
<g id="node4" class="node"><title>CpuCores</title>
<ellipse fill="none" stroke="black" cx="733.388" cy="-558" rx="46.2923" ry="18"/>
<text text-anchor="middle" x="733.388" y="-554.3" font-family="Times,serif" font-size="14.00">CpuCores</text>
</g>
<!-- github.com/supermuesli/csdl@examples/Requirement1.py@latest&#45;&gt;CpuCores -->
<g id="edge3" class="edge"><title>github.com/supermuesli/csdl@examples/Requirement1.py@latest&#45;&gt;CpuCores</title>
<path fill="none" stroke="red" d="M266.291,-360.075C309.611,-398.826 418.293,-489.726 527.356,-531 575.75,-549.314 634.635,-555.565 676.863,-557.53"/>
<polygon fill="red" stroke="red" points="676.821,-561.031 686.953,-557.934 677.101,-554.037 676.821,-561.031"/>
</g>
<!-- CpuClockSpeed -->
<g id="node5" class="node"><title>CpuClockSpeed</title>
<ellipse fill="none" stroke="black" cx="733.388" cy="-504" rx="67.6881" ry="18"/>
<text text-anchor="middle" x="733.388" y="-500.3" font-family="Times,serif" font-size="14.00">CpuClockSpeed</text>
</g>
<!-- github.com/supermuesli/csdl@examples/Requirement1.py@latest&#45;&gt;CpuClockSpeed -->
<g id="edge4" class="edge"><title>github.com/supermuesli/csdl@examples/Requirement1.py@latest&#45;&gt;CpuClockSpeed</title>
<path fill="none" stroke="red" d="M276.138,-360.079C325.916,-389.713 430.712,-448.2 527.356,-477 569.138,-489.451 617.413,-496.165 656.621,-499.783"/>
<polygon fill="red" stroke="red" points="656.377,-503.275 666.644,-500.659 656.987,-496.301 656.377,-503.275"/>
</g>
<!-- Ram -->
<g id="node6" class="node"><title>Ram</title>
<ellipse fill="none" stroke="black" cx="733.388" cy="-450" rx="27.8951" ry="18"/>
<text text-anchor="middle" x="733.388" y="-446.3" font-family="Times,serif" font-size="14.00">Ram</text>
</g>
<!-- github.com/supermuesli/csdl@examples/Requirement1.py@latest&#45;&gt;Ram -->
<g id="edge5" class="edge"><title>github.com/supermuesli/csdl@examples/Requirement1.py@latest&#45;&gt;Ram</title>
<path fill="none" stroke="red" d="M298.852,-359.61C354.771,-377.879 446.434,-406.095 527.356,-423 585.551,-435.157 654.243,-442.883 695.505,-446.825"/>
<polygon fill="red" stroke="red" points="695.351,-450.325 705.632,-447.768 696,-443.355 695.351,-450.325"/>
</g>
<!-- RamClockSpeed -->
<g id="node7" class="node"><title>RamClockSpeed</title>
<ellipse fill="none" stroke="black" cx="733.388" cy="-396" rx="70.3881" ry="18"/>
<text text-anchor="middle" x="733.388" y="-392.3" font-family="Times,serif" font-size="14.00">RamClockSpeed</text>
</g>
<!-- github.com/supermuesli/csdl@examples/Requirement1.py@latest&#45;&gt;RamClockSpeed -->
<g id="edge6" class="edge"><title>github.com/supermuesli/csdl@examples/Requirement1.py@latest&#45;&gt;RamClockSpeed</title>
<path fill="none" stroke="red" d="M381.653,-357.006C471.203,-366.962 585.314,-379.649 658.62,-387.799"/>
<polygon fill="red" stroke="red" points="658.361,-391.291 668.686,-388.918 659.134,-384.334 658.361,-391.291"/>
</g>
<!-- RamWriteSpeed -->
<g id="node8" class="node"><title>RamWriteSpeed</title>
<ellipse fill="none" stroke="black" cx="733.388" cy="-342" rx="69.5877" ry="18"/>
<text text-anchor="middle" x="733.388" y="-338.3" font-family="Times,serif" font-size="14.00">RamWriteSpeed</text>
</g>
<!-- github.com/supermuesli/csdl@examples/Requirement1.py@latest&#45;&gt;RamWriteSpeed -->
<g id="edge7" class="edge"><title>github.com/supermuesli/csdl@examples/Requirement1.py@latest&#45;&gt;RamWriteSpeed</title>
<path fill="none" stroke="red" d="M491.668,-342C550.396,-342 608.958,-342 653.614,-342"/>
<polygon fill="red" stroke="red" points="653.79,-345.5 663.79,-342 653.79,-338.5 653.79,-345.5"/>
</g>
<!-- RamReadSpeed -->
<g id="node9" class="node"><title>RamReadSpeed</title>
<ellipse fill="none" stroke="black" cx="733.388" cy="-288" rx="67.6881" ry="18"/>
<text text-anchor="middle" x="733.388" y="-284.3" font-family="Times,serif" font-size="14.00">RamReadSpeed</text>
</g>
<!-- github.com/supermuesli/csdl@examples/Requirement1.py@latest&#45;&gt;RamReadSpeed -->
<g id="edge8" class="edge"><title>github.com/supermuesli/csdl@examples/Requirement1.py@latest&#45;&gt;RamReadSpeed</title>
<path fill="none" stroke="red" d="M381.653,-326.994C472.007,-316.949 587.366,-304.123 660.586,-295.983"/>
<polygon fill="red" stroke="red" points="661.078,-299.45 670.63,-294.866 660.305,-292.493 661.078,-299.45"/>
</g>
<!-- StorageAsAService -->
<g id="node10" class="node"><title>StorageAsAService</title>
<ellipse fill="none" stroke="black" cx="733.388" cy="-234" rx="79.8859" ry="18"/>
<text text-anchor="middle" x="733.388" y="-230.3" font-family="Times,serif" font-size="14.00">StorageAsAService</text>
</g>
<!-- github.com/supermuesli/csdl@examples/Requirement1.py@latest&#45;&gt;StorageAsAService -->
<g id="edge9" class="edge"><title>github.com/supermuesli/csdl@examples/Requirement1.py@latest&#45;&gt;StorageAsAService</title>
<path fill="none" stroke="red" d="M298.852,-324.39C354.771,-306.121 446.434,-277.905 527.356,-261 567.03,-252.712 611.582,-246.483 648.997,-242.109"/>
<polygon fill="red" stroke="red" points="649.813,-245.539 659.35,-240.925 649.017,-238.584 649.813,-245.539"/>
</g>
<!-- NetworkCapacity -->
<g id="node14" class="node"><title>NetworkCapacity</title>
<ellipse fill="none" stroke="black" cx="733.388" cy="-180" rx="72.5877" ry="18"/>
<text text-anchor="middle" x="733.388" y="-176.3" font-family="Times,serif" font-size="14.00">NetworkCapacity</text>
</g>
<!-- github.com/supermuesli/csdl@examples/Requirement1.py@latest&#45;&gt;NetworkCapacity -->
<g id="edge14" class="edge"><title>github.com/supermuesli/csdl@examples/Requirement1.py@latest&#45;&gt;NetworkCapacity</title>
<path fill="none" stroke="red" d="M276.138,-323.921C325.916,-294.287 430.712,-235.8 527.356,-207 567.47,-195.046 613.569,-188.38 651.883,-184.665"/>
<polygon fill="red" stroke="red" points="652.321,-188.14 661.958,-183.738 651.68,-181.169 652.321,-188.14"/>
</g>
<!-- NetworkUploadSpeed -->
<g id="node15" class="node"><title>NetworkUploadSpeed</title>
<ellipse fill="none" stroke="black" cx="733.388" cy="-126" rx="89.0842" ry="18"/>
<text text-anchor="middle" x="733.388" y="-122.3" font-family="Times,serif" font-size="14.00">NetworkUploadSpeed</text>
</g>
<!-- github.com/supermuesli/csdl@examples/Requirement1.py@latest&#45;&gt;NetworkUploadSpeed -->
<g id="edge15" class="edge"><title>github.com/supermuesli/csdl@examples/Requirement1.py@latest&#45;&gt;NetworkUploadSpeed</title>
<path fill="none" stroke="red" d="M266.291,-323.925C309.611,-285.174 418.293,-194.274 527.356,-153 561.204,-140.191 600.184,-133.283 635.008,-129.615"/>
<polygon fill="red" stroke="red" points="635.578,-133.076 645.19,-128.621 634.897,-126.109 635.578,-133.076"/>
</g>
<!-- NetworkDownloadSpeed -->
<g id="node16" class="node"><title>NetworkDownloadSpeed</title>
<ellipse fill="none" stroke="black" cx="733.388" cy="-72" rx="99.3824" ry="18"/>
<text text-anchor="middle" x="733.388" y="-68.3" font-family="Times,serif" font-size="14.00">NetworkDownloadSpeed</text>
</g>
<!-- github.com/supermuesli/csdl@examples/Requirement1.py@latest&#45;&gt;NetworkDownloadSpeed -->
<g id="edge16" class="edge"><title>github.com/supermuesli/csdl@examples/Requirement1.py@latest&#45;&gt;NetworkDownloadSpeed</title>
<path fill="none" stroke="red" d="M261.031,-323.699C298.825,-277.001 406.538,-153.281 527.356,-99 557.129,-85.6236 591.613,-78.3427 623.707,-74.5149"/>
<polygon fill="red" stroke="red" points="624.472,-77.9524 634.034,-73.3901 623.714,-70.9936 624.472,-77.9524"/>
</g>
<!-- github.com/supermuesli/csdl@misc/StaticIp.py@latest -->
<g id="node17" class="node"><title>github.com/supermuesli/csdl@misc/StaticIp.py@latest</title>
<ellipse fill="none" stroke="black" cx="733.388" cy="-18" rx="206.063" ry="18"/>
<text text-anchor="middle" x="733.388" y="-14.3" font-family="Times,serif" font-size="14.00">github.com/supermuesli/csdl@misc/StaticIp.py@latest</text>
</g>
<!-- github.com/supermuesli/csdl@examples/Requirement1.py@latest&#45;&gt;github.com/supermuesli/csdl@misc/StaticIp.py@latest -->
<g id="edge17" class="edge"><title>github.com/supermuesli/csdl@examples/Requirement1.py@latest&#45;&gt;github.com/supermuesli/csdl@misc/StaticIp.py@latest</title>
<path fill="none" stroke="red" d="M257.29,-324.008C289.816,-270.704 394.05,-113.1 527.356,-45 537.495,-39.8206 548.268,-35.51 559.363,-31.9326"/>
<polygon fill="red" stroke="red" points="560.621,-35.2089 569.188,-28.974 558.603,-28.5062 560.621,-35.2089"/>
</g>
<!-- StorageAsAService&#45;&gt;Region -->
<g id="edge10" class="edge"><title>StorageAsAService&#45;&gt;Region</title>
<path fill="none" stroke="red" d="M807.538,-227.257C849.766,-227.1 901.792,-233.69 939.42,-261 958.025,-274.504 1017.28,-412.692 1042.35,-472.573"/>
<polygon fill="red" stroke="red" points="1039.26,-474.26 1046.34,-482.141 1045.72,-471.564 1039.26,-474.26"/>
</g>
<!-- Storage -->
<g id="node11" class="node"><title>Storage</title>
<ellipse fill="none" stroke="black" cx="1054.71" cy="-288" rx="37.8943" ry="18"/>
<text text-anchor="middle" x="1054.71" y="-284.3" font-family="Times,serif" font-size="14.00">Storage</text>
</g>
<!-- StorageAsAService&#45;&gt;Storage -->
<g id="edge11" class="edge"><title>StorageAsAService&#45;&gt;Storage</title>
<path fill="none" stroke="red" d="M805.831,-241.612C845.36,-246.274 895.278,-252.901 939.42,-261 963.484,-265.415 990.1,-271.623 1011.59,-276.974"/>
<polygon fill="red" stroke="red" points="1010.83,-280.392 1021.38,-279.441 1012.54,-273.604 1010.83,-280.392"/>
</g>
<!-- StorageWriteSpeed -->
<g id="node12" class="node"><title>StorageWriteSpeed</title>
<ellipse fill="none" stroke="black" cx="1054.71" cy="-234" rx="79.0865" ry="18"/>
<text text-anchor="middle" x="1054.71" y="-230.3" font-family="Times,serif" font-size="14.00">StorageWriteSpeed</text>
</g>
<!-- StorageAsAService&#45;&gt;StorageWriteSpeed -->
<g id="edge12" class="edge"><title>StorageAsAService&#45;&gt;StorageWriteSpeed</title>
<path fill="none" stroke="red" d="M813.733,-234C859.679,-234 917.625,-234 965.065,-234"/>
<polygon fill="red" stroke="red" points="965.33,-237.5 975.33,-234 965.33,-230.5 965.33,-237.5"/>
</g>
<!-- StorageReadSpeed -->
<g id="node13" class="node"><title>StorageReadSpeed</title>
<ellipse fill="none" stroke="black" cx="1054.71" cy="-180" rx="77.1866" ry="18"/>
<text text-anchor="middle" x="1054.71" y="-176.3" font-family="Times,serif" font-size="14.00">StorageReadSpeed</text>
</g>
<!-- StorageAsAService&#45;&gt;StorageReadSpeed -->
<g id="edge13" class="edge"><title>StorageAsAService&#45;&gt;StorageReadSpeed</title>
<path fill="none" stroke="red" d="M805.831,-226.388C845.36,-221.726 895.278,-215.099 939.42,-207 956.77,-203.817 975.448,-199.701 992.574,-195.647"/>
<polygon fill="red" stroke="red" points="993.549,-199.012 1002.46,-193.274 991.915,-192.206 993.549,-199.012"/>
</g>
</g>
</svg>
