<?xml version="1.0" encoding="UTF-8" standalone="no"?>
<!DOCTYPE svg PUBLIC "-//W3C//DTD SVG 1.1//EN"
 "http://www.w3.org/Graphics/SVG/1.1/DTD/svg11.dtd">
<!-- Generated by graphviz version 2.38.0 (20140413.2041)
 -->
<!-- Title: %3 Pages: 1 -->
<svg width="1142pt" height="679pt"
 viewBox="0.00 0.00 1142.01 678.77" xmlns="http://www.w3.org/2000/svg" xmlns:xlink="http://www.w3.org/1999/xlink">
<g id="graph0" class="graph" transform="scale(1 1) rotate(0) translate(4 674.767)">
<title>%3</title>
<polygon fill="white" stroke="none" points="-4,4 -4,-674.767 1138.01,-674.767 1138.01,4 -4,4"/>
<!-- github.com/supermuesli/csdl@examples/Requirement1.py@latest -->
<g id="node1" class="node"><title>github.com/supermuesli/csdl@examples/Requirement1.py@latest</title>
<ellipse fill="none" stroke="black" cx="245.678" cy="-342" rx="245.857" ry="18"/>
<text text-anchor="middle" x="245.678" y="-338.3" font-family="Times,serif" font-size="14.00">github.com/supermuesli/csdl@examples/Requirement1.py@latest</text>
</g>
<!-- Region -->
<g id="node2" class="node"><title>Region</title>
<ellipse fill="none" stroke="black" cx="1054.71" cy="-419" rx="36.2938" ry="18"/>
<text text-anchor="middle" x="1054.71" y="-415.3" font-family="Times,serif" font-size="14.00">Region</text>
</g>
<!-- github.com/supermuesli/csdl@examples/Requirement1.py@latest&#45;&gt;Region -->
<g id="edge1" class="edge"><title>github.com/supermuesli/csdl@examples/Requirement1.py@latest&#45;&gt;Region</title>
<path fill="none" stroke="red" d="M256.461,-360.031C287.388,-414.862 389.229,-579.486 527.356,-639 611.452,-675.233 861.156,-686.536 939.42,-639 1009.34,-596.534 1038.43,-495.867 1048.79,-446.821"/>
<polygon fill="red" stroke="red" points="1052.24,-447.394 1050.77,-436.902 1045.38,-446.021 1052.24,-447.394"/>
</g>
<!-- OperatingSystem -->
<g id="node3" class="node"><title>OperatingSystem</title>
<ellipse fill="none" stroke="black" cx="733.388" cy="-612" rx="72.2875" ry="18"/>
<text text-anchor="middle" x="733.388" y="-608.3" font-family="Times,serif" font-size="14.00">OperatingSystem</text>
</g>
<!-- github.com/supermuesli/csdl@examples/Requirement1.py@latest&#45;&gt;OperatingSystem -->
<g id="edge2" class="edge"><title>github.com/supermuesli/csdl@examples/Requirement1.py@latest&#45;&gt;OperatingSystem</title>
<path fill="none" stroke="red" d="M261.031,-360.301C298.825,-406.999 406.538,-530.719 527.356,-585 565.687,-602.221 611.825,-609.339 650.62,-611.993"/>
<polygon fill="red" stroke="red" points="650.643,-615.5 660.834,-612.601 651.059,-608.512 650.643,-615.5"/>
</g>
<!-- CpuCores -->
<g id="node4" class="node"><title>CpuCores</title>
<ellipse fill="none" stroke="black" cx="733.388" cy="-558" rx="46.2923" ry="18"/>
<text text-anchor="middle" x="733.388" y="-554.3" font-family="Times,serif" font-size="14.00">CpuCores</text>
</g>
<!-- github.com/supermuesli/csdl@examples/Requirement1.py@latest&#45;&gt;CpuCores -->
<g id="edge3" class="edge"><title>github.com/supermuesli/csdl@examples/Requirement1.py@latest&#45;&gt;CpuCores</title>
<path fill="none" stroke="red" d="M266.291,-360.075C309.611,-398.826 418.293,-489.726 527.356,-531 575.75,-549.314 634.635,-555.565 676.863,-557.53"/>
<polygon fill="red" stroke="red" points="676.821,-561.031 686.953,-557.934 677.101,-554.037 676.821,-561.031"/>
</g>
<!-- CpuClockSpeed -->
<g id="node5" class="node"><title>CpuClockSpeed</title>
<ellipse fill="none" stroke="black" cx="733.388" cy="-504" rx="67.6881" ry="18"/>
<text text-anchor="middle" x="733.388" y="-500.3" font-family="Times,serif" font-size="14.00">CpuClockSpeed</text>
</g>
<!-- github.com/supermuesli/csdl@examples/Requirement1.py@latest&#45;&gt;CpuClockSpeed -->
<g id="edge4" class="edge"><title>github.com/supermuesli/csdl@examples/Requirement1.py@latest&#45;&gt;CpuClockSpeed</title>
<path fill="none" stroke="red" d="M276.138,-360.079C325.916,-389.713 430.712,-448.2 527.356,-477 569.138,-489.451 617.413,-496.165 656.621,-499.783"/>
<polygon fill="red" stroke="red" points="656.377,-503.275 666.644,-500.659 656.987,-496.301 656.377,-503.275"/>
</g>
<!-- Ram -->
<g id="node6" class="node"><title>Ram</title>
<ellipse fill="none" stroke="black" cx="733.388" cy="-450" rx="27.8951" ry="18"/>
<text text-anchor="middle" x="733.388" y="-446.3" font-family="Times,serif" font-size="14.00">Ram</text>
</g>
<!-- github.com/supermuesli/csdl@examples/Requirement1.py@latest&#45;&gt;Ram -->
<g id="edge5" class="edge"><title>github.com/supermuesli/csdl@examples/Requirement1.py@latest&#45;&gt;Ram</title>
<path fill="none" stroke="red" d="M298.852,-359.61C354.771,-377.879 446.434,-406.095 527.356,-423 585.551,-435.157 654.243,-442.883 695.505,-446.825"/>
<polygon fill="red" stroke="red" points="695.351,-450.325 705.632,-447.768 696,-443.355 695.351,-450.325"/>
</g>
<!-- RamClockSpeed -->
<g id="node7" class="node"><title>RamClockSpeed</title>
<ellipse fill="none" stroke="black" cx="733.388" cy="-396" rx="70.3881" ry="18"/>
<text text-anchor="middle" x="733.388" y="-392.3" font-family="Times,serif" font-size="14.00">RamClockSpeed</text>
</g>
<!-- github.com/supermuesli/csdl@examples/Requirement1.py@latest&#45;&gt;RamClockSpeed -->
<g id="edge6" class="edge"><title>github.com/supermuesli/csdl@examples/Requirement1.py@latest&#45;&gt;RamClockSpeed</title>
<path fill="none" stroke="red" d="M381.653,-357.006C471.203,-366.962 585.314,-379.649 658.62,-387.799"/>
<polygon fill="red" stroke="red" points="658.361,-391.291 668.686,-388.918 659.134,-384.334 658.361,-391.291"/>
</g>
<!-- RamWriteSpeed -->
<g id="node8" class="node"><title>RamWriteSpeed</title>
<ellipse fill="none" stroke="black" cx="733.388" cy="-342" rx="69.5877" ry="18"/>
<text text-anchor="middle" x="733.388" y="-338.3" font-family="Times,serif" font-size="14.00">RamWriteSpeed</text>
</g>
<!-- github.com/supermuesli/csdl@examples/Requirement1.py@latest&#45;&gt;RamWriteSpeed -->
<g id="edge7" class="edge"><title>github.com/supermuesli/csdl@examples/Requirement1.py@latest&#45;&gt;RamWriteSpeed</title>
<path fill="none" stroke="red" d="M491.668,-342C550.396,-342 608.958,-342 653.614,-342"/>
<polygon fill="red" stroke="red" points="653.79,-345.5 663.79,-342 653.79,-338.5 653.79,-345.5"/>
</g>
<!-- RamReadSpeed -->
<g id="node9" class="node"><title>RamReadSpeed</title>
<ellipse fill="none" stroke="black" cx="733.388" cy="-288" rx="67.6881" ry="18"/>
<text text-anchor="middle" x="733.388" y="-284.3" font-family="Times,serif" font-size="14.00">RamReadSpeed</text>
</g>
<!-- github.com/supermuesli/csdl@examples/Requirement1.py@latest&#45;&gt;RamReadSpeed -->
<g id="edge8" class="edge"><title>github.com/supermuesli/csdl@examples/Requirement1.py@latest&#45;&gt;RamReadSpeed</title>
<path fill="none" stroke="red" d="M381.653,-326.994C472.007,-316.949 587.366,-304.123 660.586,-295.983"/>
<polygon fill="red" stroke="red" points="661.078,-299.45 670.63,-294.866 660.305,-292.493 661.078,-299.45"/>
</g>
<!-- NetworkCapacity -->
<g id="node10" class="node"><title>NetworkCapacity</title>
<ellipse fill="none" stroke="black" cx="733.388" cy="-234" rx="72.5877" ry="18"/>
<text text-anchor="middle" x="733.388" y="-230.3" font-family="Times,serif" font-size="14.00">NetworkCapacity</text>
</g>
<!-- github.com/supermuesli/csdl@examples/Requirement1.py@latest&#45;&gt;NetworkCapacity -->
<g id="edge9" class="edge"><title>github.com/supermuesli/csdl@examples/Requirement1.py@latest&#45;&gt;NetworkCapacity</title>
<path fill="none" stroke="red" d="M298.852,-324.39C354.771,-306.121 446.434,-277.905 527.356,-261 569.135,-252.272 616.324,-245.828 654.89,-241.429"/>
<polygon fill="red" stroke="red" points="655.463,-244.887 665.013,-240.298 654.686,-237.93 655.463,-244.887"/>
</g>
<!-- NetworkUploadSpeed -->
<g id="node11" class="node"><title>NetworkUploadSpeed</title>
<ellipse fill="none" stroke="black" cx="733.388" cy="-180" rx="89.0842" ry="18"/>
<text text-anchor="middle" x="733.388" y="-176.3" font-family="Times,serif" font-size="14.00">NetworkUploadSpeed</text>
</g>
<!-- github.com/supermuesli/csdl@examples/Requirement1.py@latest&#45;&gt;NetworkUploadSpeed -->
<g id="edge10" class="edge"><title>github.com/supermuesli/csdl@examples/Requirement1.py@latest&#45;&gt;NetworkUploadSpeed</title>
<path fill="none" stroke="red" d="M276.138,-323.921C325.916,-294.287 430.712,-235.8 527.356,-207 562.587,-196.501 602.436,-190.081 637.572,-186.157"/>
<polygon fill="red" stroke="red" points="638.257,-189.604 647.831,-185.067 637.517,-182.643 638.257,-189.604"/>
</g>
<!-- NetworkDownloadSpeed -->
<g id="node12" class="node"><title>NetworkDownloadSpeed</title>
<ellipse fill="none" stroke="black" cx="733.388" cy="-126" rx="99.3824" ry="18"/>
<text text-anchor="middle" x="733.388" y="-122.3" font-family="Times,serif" font-size="14.00">NetworkDownloadSpeed</text>
</g>
<!-- github.com/supermuesli/csdl@examples/Requirement1.py@latest&#45;&gt;NetworkDownloadSpeed -->
<g id="edge11" class="edge"><title>github.com/supermuesli/csdl@examples/Requirement1.py@latest&#45;&gt;NetworkDownloadSpeed</title>
<path fill="none" stroke="red" d="M266.291,-323.925C309.611,-285.174 418.293,-194.274 527.356,-153 558.244,-141.311 593.406,-134.536 625.782,-130.653"/>
<polygon fill="red" stroke="red" points="626.185,-134.13 635.733,-129.539 625.406,-127.174 626.185,-134.13"/>
</g>
<!-- StorageAsAService -->
<g id="node13" class="node"><title>StorageAsAService</title>
<ellipse fill="none" stroke="black" cx="733.388" cy="-72" rx="79.8859" ry="18"/>
<text text-anchor="middle" x="733.388" y="-68.3" font-family="Times,serif" font-size="14.00">StorageAsAService</text>
</g>
<!-- github.com/supermuesli/csdl@examples/Requirement1.py@latest&#45;&gt;StorageAsAService -->
<g id="edge12" class="edge"><title>github.com/supermuesli/csdl@examples/Requirement1.py@latest&#45;&gt;StorageAsAService</title>
<path fill="none" stroke="red" d="M261.031,-323.699C298.825,-277.001 406.538,-153.281 527.356,-99 563.129,-82.9282 605.702,-75.6559 642.76,-72.6"/>
<polygon fill="red" stroke="red" points="643.338,-76.0671 653.055,-71.846 642.826,-69.0858 643.338,-76.0671"/>
</g>
<!-- github.com/supermuesli/csdl@misc/StaticIp.py@latest -->
<g id="node17" class="node"><title>github.com/supermuesli/csdl@misc/StaticIp.py@latest</title>
<ellipse fill="none" stroke="black" cx="733.388" cy="-18" rx="206.063" ry="18"/>
<text text-anchor="middle" x="733.388" y="-14.3" font-family="Times,serif" font-size="14.00">github.com/supermuesli/csdl@misc/StaticIp.py@latest</text>
</g>
<!-- github.com/supermuesli/csdl@examples/Requirement1.py@latest&#45;&gt;github.com/supermuesli/csdl@misc/StaticIp.py@latest -->
<g id="edge17" class="edge"><title>github.com/supermuesli/csdl@examples/Requirement1.py@latest&#45;&gt;github.com/supermuesli/csdl@misc/StaticIp.py@latest</title>
<path fill="none" stroke="red" d="M257.29,-324.008C289.816,-270.704 394.05,-113.1 527.356,-45 537.495,-39.8206 548.268,-35.51 559.363,-31.9326"/>
<polygon fill="red" stroke="red" points="560.621,-35.2089 569.188,-28.974 558.603,-28.5062 560.621,-35.2089"/>
</g>
<!-- StorageAsAService&#45;&gt;Region -->
<g id="edge13" class="edge"><title>StorageAsAService&#45;&gt;Region</title>
<path fill="none" stroke="red" d="M805.172,-63.9321C848.381,-62.8831 902.27,-68.9988 939.42,-99 986.567,-137.075 1031.65,-320.144 1047.62,-390.953"/>
<polygon fill="red" stroke="red" points="1044.25,-391.937 1049.84,-400.936 1051.08,-390.414 1044.25,-391.937"/>
</g>
<!-- Storage -->
<g id="node14" class="node"><title>Storage</title>
<ellipse fill="none" stroke="black" cx="1054.71" cy="-126" rx="37.8943" ry="18"/>
<text text-anchor="middle" x="1054.71" y="-122.3" font-family="Times,serif" font-size="14.00">Storage</text>
</g>
<!-- StorageAsAService&#45;&gt;Storage -->
<g id="edge14" class="edge"><title>StorageAsAService&#45;&gt;Storage</title>
<path fill="none" stroke="red" d="M805.831,-79.6122C845.36,-84.2739 895.278,-90.901 939.42,-99 963.484,-103.415 990.1,-109.623 1011.59,-114.974"/>
<polygon fill="red" stroke="red" points="1010.83,-118.392 1021.38,-117.441 1012.54,-111.604 1010.83,-118.392"/>
</g>
<!-- StorageWriteSpeed -->
<g id="node15" class="node"><title>StorageWriteSpeed</title>
<ellipse fill="none" stroke="black" cx="1054.71" cy="-72" rx="79.0865" ry="18"/>
<text text-anchor="middle" x="1054.71" y="-68.3" font-family="Times,serif" font-size="14.00">StorageWriteSpeed</text>
</g>
<!-- StorageAsAService&#45;&gt;StorageWriteSpeed -->
<g id="edge15" class="edge"><title>StorageAsAService&#45;&gt;StorageWriteSpeed</title>
<path fill="none" stroke="red" d="M813.733,-72C859.679,-72 917.625,-72 965.065,-72"/>
<polygon fill="red" stroke="red" points="965.33,-75.5001 975.33,-72 965.33,-68.5001 965.33,-75.5001"/>
</g>
<!-- StorageReadSpeed -->
<g id="node16" class="node"><title>StorageReadSpeed</title>
<ellipse fill="none" stroke="black" cx="1054.71" cy="-18" rx="77.1866" ry="18"/>
<text text-anchor="middle" x="1054.71" y="-14.3" font-family="Times,serif" font-size="14.00">StorageReadSpeed</text>
</g>
<!-- StorageAsAService&#45;&gt;StorageReadSpeed -->
<g id="edge16" class="edge"><title>StorageAsAService&#45;&gt;StorageReadSpeed</title>
<path fill="none" stroke="red" d="M805.831,-64.3878C845.36,-59.7261 895.278,-53.099 939.42,-45 956.77,-41.8166 975.448,-37.701 992.574,-33.6469"/>
<polygon fill="red" stroke="red" points="993.549,-37.0122 1002.46,-31.2745 991.915,-30.2056 993.549,-37.0122"/>
</g>
</g>
</svg>
