<?xml version="1.0" encoding="UTF-8" standalone="no"?>
<!DOCTYPE svg PUBLIC "-//W3C//DTD SVG 1.1//EN"
 "http://www.w3.org/Graphics/SVG/1.1/DTD/svg11.dtd">
<!-- Generated by graphviz version 2.38.0 (20140413.2041)
 -->
<!-- Title: %3 Pages: 1 -->
<svg width="1103pt" height="854pt"
 viewBox="0.00 0.00 1103.01 854.00" xmlns="http://www.w3.org/2000/svg" xmlns:xlink="http://www.w3.org/1999/xlink">
<g id="graph0" class="graph" transform="scale(1 1) rotate(0) translate(4 850)">
<title>%3</title>
<polygon fill="white" stroke="none" points="-4,4 -4,-850 1099.01,-850 1099.01,4 -4,4"/>
<!-- github.com/supermuesli/csdl@examples/Requirement1.py@latest -->
<g id="node1" class="node"><title>github.com/supermuesli/csdl@examples/Requirement1.py@latest</title>
<ellipse fill="none" stroke="black" cx="245.678" cy="-423" rx="245.857" ry="18"/>
<text text-anchor="middle" x="245.678" y="-419.3" font-family="Times,serif" font-size="14.00">github.com/supermuesli/csdl@examples/Requirement1.py@latest</text>
</g>
<!-- Price -->
<g id="node2" class="node"><title>Price</title>
<ellipse fill="none" stroke="black" cx="733.388" cy="-828" rx="28.6953" ry="18"/>
<text text-anchor="middle" x="733.388" y="-824.3" font-family="Times,serif" font-size="14.00">Price</text>
</g>
<!-- github.com/supermuesli/csdl@examples/Requirement1.py@latest&#45;&gt;Price -->
<g id="edge1" class="edge"><title>github.com/supermuesli/csdl@examples/Requirement1.py@latest&#45;&gt;Price</title>
<path fill="none" stroke="red" d="M253.947,-441.248C279.976,-503.933 375.159,-711.516 527.356,-801 579.395,-831.596 651.521,-833.649 694.9,-831.454"/>
<polygon fill="red" stroke="red" points="695.248,-834.939 705.017,-830.838 694.823,-827.952 695.248,-834.939"/>
</g>
<!-- Region -->
<g id="node4" class="node"><title>Region</title>
<ellipse fill="none" stroke="black" cx="733.388" cy="-774" rx="36.2938" ry="18"/>
<text text-anchor="middle" x="733.388" y="-770.3" font-family="Times,serif" font-size="14.00">Region</text>
</g>
<!-- github.com/supermuesli/csdl@examples/Requirement1.py@latest&#45;&gt;Region -->
<g id="edge3" class="edge"><title>github.com/supermuesli/csdl@examples/Requirement1.py@latest&#45;&gt;Region</title>
<path fill="none" stroke="red" d="M255.961,-440.992C286.162,-497.456 387.785,-671.849 527.356,-747 577.254,-773.867 643.568,-777.867 687.084,-776.985"/>
<polygon fill="red" stroke="red" points="687.198,-780.483 697.09,-776.688 686.991,-773.486 687.198,-780.483"/>
</g>
<!-- OperatingSystem -->
<g id="node5" class="node"><title>OperatingSystem</title>
<ellipse fill="none" stroke="black" cx="733.388" cy="-720" rx="72.2875" ry="18"/>
<text text-anchor="middle" x="733.388" y="-716.3" font-family="Times,serif" font-size="14.00">OperatingSystem</text>
</g>
<!-- github.com/supermuesli/csdl@examples/Requirement1.py@latest&#45;&gt;OperatingSystem -->
<g id="edge4" class="edge"><title>github.com/supermuesli/csdl@examples/Requirement1.py@latest&#45;&gt;OperatingSystem</title>
<path fill="none" stroke="red" d="M258.961,-441.124C294.031,-491.216 400.321,-631.874 527.356,-693 565.519,-711.363 612.044,-718.536 651.123,-720.932"/>
<polygon fill="red" stroke="red" points="651.242,-724.443 661.41,-721.465 651.604,-717.453 651.242,-724.443"/>
</g>
<!-- CpuCores -->
<g id="node6" class="node"><title>CpuCores</title>
<ellipse fill="none" stroke="black" cx="733.388" cy="-666" rx="46.2923" ry="18"/>
<text text-anchor="middle" x="733.388" y="-662.3" font-family="Times,serif" font-size="14.00">CpuCores</text>
</g>
<!-- github.com/supermuesli/csdl@examples/Requirement1.py@latest&#45;&gt;CpuCores -->
<g id="edge5" class="edge"><title>github.com/supermuesli/csdl@examples/Requirement1.py@latest&#45;&gt;CpuCores</title>
<path fill="none" stroke="red" d="M263.262,-441.104C303.668,-483.897 412.356,-591.268 527.356,-639 575.299,-658.899 634.486,-664.933 676.924,-666.417"/>
<polygon fill="red" stroke="red" points="676.972,-669.919 687.064,-666.696 677.164,-662.922 676.972,-669.919"/>
</g>
<!-- CpuClockSpeed -->
<g id="node7" class="node"><title>CpuClockSpeed</title>
<ellipse fill="none" stroke="black" cx="733.388" cy="-612" rx="67.6881" ry="18"/>
<text text-anchor="middle" x="733.388" y="-608.3" font-family="Times,serif" font-size="14.00">CpuClockSpeed</text>
</g>
<!-- github.com/supermuesli/csdl@examples/Requirement1.py@latest&#45;&gt;CpuClockSpeed -->
<g id="edge6" class="edge"><title>github.com/supermuesli/csdl@examples/Requirement1.py@latest&#45;&gt;CpuClockSpeed</title>
<path fill="none" stroke="red" d="M270.264,-440.996C316.66,-475.361 424.264,-550.01 527.356,-585 568.64,-599.012 616.89,-605.806 656.209,-609.077"/>
<polygon fill="red" stroke="red" points="656.024,-612.573 666.264,-609.853 656.563,-605.594 656.024,-612.573"/>
</g>
<!-- Ram -->
<g id="node8" class="node"><title>Ram</title>
<ellipse fill="none" stroke="black" cx="733.388" cy="-558" rx="27.8951" ry="18"/>
<text text-anchor="middle" x="733.388" y="-554.3" font-family="Times,serif" font-size="14.00">Ram</text>
</g>
<!-- github.com/supermuesli/csdl@examples/Requirement1.py@latest&#45;&gt;Ram -->
<g id="edge7" class="edge"><title>github.com/supermuesli/csdl@examples/Requirement1.py@latest&#45;&gt;Ram</title>
<path fill="none" stroke="red" d="M284.332,-440.792C337.339,-465.066 437.542,-508.15 527.356,-531 584.972,-545.658 653.834,-552.65 695.289,-555.76"/>
<polygon fill="red" stroke="red" points="695.242,-559.266 705.466,-556.487 695.741,-552.284 695.242,-559.266"/>
</g>
<!-- RamClockSpeed -->
<g id="node9" class="node"><title>RamClockSpeed</title>
<ellipse fill="none" stroke="black" cx="733.388" cy="-504" rx="70.3881" ry="18"/>
<text text-anchor="middle" x="733.388" y="-500.3" font-family="Times,serif" font-size="14.00">RamClockSpeed</text>
</g>
<!-- github.com/supermuesli/csdl@examples/Requirement1.py@latest&#45;&gt;RamClockSpeed -->
<g id="edge8" class="edge"><title>github.com/supermuesli/csdl@examples/Requirement1.py@latest&#45;&gt;RamClockSpeed</title>
<path fill="none" stroke="red" d="M328.127,-439.99C384.029,-451.327 460.002,-466.096 527.356,-477 570.79,-484.032 619.624,-490.518 658.736,-495.371"/>
<polygon fill="red" stroke="red" points="658.625,-498.883 668.978,-496.631 659.48,-491.936 658.625,-498.883"/>
</g>
<!-- RamWriteSpeed -->
<g id="node10" class="node"><title>RamWriteSpeed</title>
<ellipse fill="none" stroke="black" cx="733.388" cy="-450" rx="69.5877" ry="18"/>
<text text-anchor="middle" x="733.388" y="-446.3" font-family="Times,serif" font-size="14.00">RamWriteSpeed</text>
</g>
<!-- github.com/supermuesli/csdl@examples/Requirement1.py@latest&#45;&gt;RamWriteSpeed -->
<g id="edge9" class="edge"><title>github.com/supermuesli/csdl@examples/Requirement1.py@latest&#45;&gt;RamWriteSpeed</title>
<path fill="none" stroke="red" d="M441.786,-433.846C516.558,-438.002 597.616,-442.508 655.078,-445.702"/>
<polygon fill="red" stroke="red" points="654.988,-449.203 665.167,-446.263 655.377,-442.214 654.988,-449.203"/>
</g>
<!-- RamReadSpeed -->
<g id="node11" class="node"><title>RamReadSpeed</title>
<ellipse fill="none" stroke="black" cx="733.388" cy="-396" rx="67.6881" ry="18"/>
<text text-anchor="middle" x="733.388" y="-392.3" font-family="Times,serif" font-size="14.00">RamReadSpeed</text>
</g>
<!-- github.com/supermuesli/csdl@examples/Requirement1.py@latest&#45;&gt;RamReadSpeed -->
<g id="edge10" class="edge"><title>github.com/supermuesli/csdl@examples/Requirement1.py@latest&#45;&gt;RamReadSpeed</title>
<path fill="none" stroke="red" d="M441.786,-412.154C517.428,-407.949 599.505,-403.387 657.076,-400.186"/>
<polygon fill="red" stroke="red" points="657.384,-403.675 667.175,-399.625 656.996,-396.686 657.384,-403.675"/>
</g>
<!-- Storage -->
<g id="node12" class="node"><title>Storage</title>
<ellipse fill="none" stroke="black" cx="733.388" cy="-342" rx="37.8943" ry="18"/>
<text text-anchor="middle" x="733.388" y="-338.3" font-family="Times,serif" font-size="14.00">Storage</text>
</g>
<!-- github.com/supermuesli/csdl@examples/Requirement1.py@latest&#45;&gt;Storage -->
<g id="edge11" class="edge"><title>github.com/supermuesli/csdl@examples/Requirement1.py@latest&#45;&gt;Storage</title>
<path fill="none" stroke="red" d="M328.127,-406.01C384.029,-394.673 460.002,-379.904 527.356,-369 581.757,-360.193 644.63,-352.241 686.26,-347.284"/>
<polygon fill="red" stroke="red" points="686.847,-350.739 696.368,-346.09 686.026,-343.787 686.847,-350.739"/>
</g>
<!-- StorageWriteSpeed -->
<g id="node13" class="node"><title>StorageWriteSpeed</title>
<ellipse fill="none" stroke="black" cx="733.388" cy="-288" rx="79.0865" ry="18"/>
<text text-anchor="middle" x="733.388" y="-284.3" font-family="Times,serif" font-size="14.00">StorageWriteSpeed</text>
</g>
<!-- github.com/supermuesli/csdl@examples/Requirement1.py@latest&#45;&gt;StorageWriteSpeed -->
<g id="edge12" class="edge"><title>github.com/supermuesli/csdl@examples/Requirement1.py@latest&#45;&gt;StorageWriteSpeed</title>
<path fill="none" stroke="red" d="M284.332,-405.208C337.339,-380.934 437.542,-337.85 527.356,-315 566.158,-305.128 610.061,-298.734 647.257,-294.66"/>
<polygon fill="red" stroke="red" points="647.984,-298.103 657.561,-293.572 647.249,-291.142 647.984,-298.103"/>
</g>
<!-- StorageReadSpeed -->
<g id="node14" class="node"><title>StorageReadSpeed</title>
<ellipse fill="none" stroke="black" cx="733.388" cy="-234" rx="77.1866" ry="18"/>
<text text-anchor="middle" x="733.388" y="-230.3" font-family="Times,serif" font-size="14.00">StorageReadSpeed</text>
</g>
<!-- github.com/supermuesli/csdl@examples/Requirement1.py@latest&#45;&gt;StorageReadSpeed -->
<g id="edge13" class="edge"><title>github.com/supermuesli/csdl@examples/Requirement1.py@latest&#45;&gt;StorageReadSpeed</title>
<path fill="none" stroke="red" d="M270.264,-405.004C316.66,-370.639 424.264,-295.99 527.356,-261 565.27,-248.132 609.058,-241.352 646.409,-237.797"/>
<polygon fill="red" stroke="red" points="647.111,-241.248 656.763,-236.877 646.492,-234.276 647.111,-241.248"/>
</g>
<!-- NetworkCapacity -->
<g id="node15" class="node"><title>NetworkCapacity</title>
<ellipse fill="none" stroke="black" cx="733.388" cy="-180" rx="72.5877" ry="18"/>
<text text-anchor="middle" x="733.388" y="-176.3" font-family="Times,serif" font-size="14.00">NetworkCapacity</text>
</g>
<!-- github.com/supermuesli/csdl@examples/Requirement1.py@latest&#45;&gt;NetworkCapacity -->
<g id="edge14" class="edge"><title>github.com/supermuesli/csdl@examples/Requirement1.py@latest&#45;&gt;NetworkCapacity</title>
<path fill="none" stroke="red" d="M263.262,-404.896C303.668,-362.103 412.356,-254.732 527.356,-207 565.863,-191.018 611.623,-183.979 650.133,-181.059"/>
<polygon fill="red" stroke="red" points="650.532,-184.54 660.273,-180.371 650.059,-177.556 650.532,-184.54"/>
</g>
<!-- NetworkUploadSpeed -->
<g id="node16" class="node"><title>NetworkUploadSpeed</title>
<ellipse fill="none" stroke="black" cx="733.388" cy="-126" rx="89.0842" ry="18"/>
<text text-anchor="middle" x="733.388" y="-122.3" font-family="Times,serif" font-size="14.00">NetworkUploadSpeed</text>
</g>
<!-- github.com/supermuesli/csdl@examples/Requirement1.py@latest&#45;&gt;NetworkUploadSpeed -->
<g id="edge15" class="edge"><title>github.com/supermuesli/csdl@examples/Requirement1.py@latest&#45;&gt;NetworkUploadSpeed</title>
<path fill="none" stroke="red" d="M258.961,-404.876C294.031,-354.784 400.321,-214.126 527.356,-153 560.041,-137.273 598.86,-129.754 633.882,-126.414"/>
<polygon fill="red" stroke="red" points="634.464,-129.877 644.132,-125.543 633.872,-122.902 634.464,-129.877"/>
</g>
<!-- NetworkDownloadSpeed -->
<g id="node17" class="node"><title>NetworkDownloadSpeed</title>
<ellipse fill="none" stroke="black" cx="733.388" cy="-72" rx="99.3824" ry="18"/>
<text text-anchor="middle" x="733.388" y="-68.3" font-family="Times,serif" font-size="14.00">NetworkDownloadSpeed</text>
</g>
<!-- github.com/supermuesli/csdl@examples/Requirement1.py@latest&#45;&gt;NetworkDownloadSpeed -->
<g id="edge16" class="edge"><title>github.com/supermuesli/csdl@examples/Requirement1.py@latest&#45;&gt;NetworkDownloadSpeed</title>
<path fill="none" stroke="red" d="M255.961,-405.008C286.162,-348.544 387.785,-174.151 527.356,-99 556.578,-83.266 591.429,-75.3743 624.034,-71.7129"/>
<polygon fill="red" stroke="red" points="624.47,-75.1868 634.072,-70.7084 623.773,-68.2216 624.47,-75.1868"/>
</g>
<!-- github.com/supermuesli/csdl@misc/StaticIp.py@latest -->
<g id="node18" class="node"><title>github.com/supermuesli/csdl@misc/StaticIp.py@latest</title>
<ellipse fill="none" stroke="black" cx="733.388" cy="-18" rx="206.063" ry="18"/>
<text text-anchor="middle" x="733.388" y="-14.3" font-family="Times,serif" font-size="14.00">github.com/supermuesli/csdl@misc/StaticIp.py@latest</text>
</g>
<!-- github.com/supermuesli/csdl@examples/Requirement1.py@latest&#45;&gt;github.com/supermuesli/csdl@misc/StaticIp.py@latest -->
<g id="edge17" class="edge"><title>github.com/supermuesli/csdl@examples/Requirement1.py@latest&#45;&gt;github.com/supermuesli/csdl@misc/StaticIp.py@latest</title>
<path fill="none" stroke="red" d="M253.947,-404.752C279.976,-342.067 375.159,-134.484 527.356,-45 536.21,-39.7943 545.646,-35.4149 555.422,-31.7421"/>
<polygon fill="red" stroke="red" points="556.606,-35.036 564.892,-28.4334 554.298,-28.4277 556.606,-35.036"/>
</g>
<!-- PricingModel -->
<g id="node3" class="node"><title>PricingModel</title>
<ellipse fill="none" stroke="black" cx="1035.21" cy="-828" rx="59.5901" ry="18"/>
<text text-anchor="middle" x="1035.21" y="-824.3" font-family="Times,serif" font-size="14.00">PricingModel</text>
</g>
<!-- Price&#45;&gt;PricingModel -->
<g id="edge2" class="edge"><title>Price&#45;&gt;PricingModel</title>
<path fill="none" stroke="red" d="M762.058,-828C807.881,-828 900.854,-828 965.295,-828"/>
<polygon fill="red" stroke="red" points="965.381,-831.5 975.381,-828 965.381,-824.5 965.381,-831.5"/>
</g>
</g>
</svg>
