<?xml version="1.0" encoding="UTF-8" standalone="no"?>
<!DOCTYPE svg PUBLIC "-//W3C//DTD SVG 1.1//EN"
 "http://www.w3.org/Graphics/SVG/1.1/DTD/svg11.dtd">
<!-- Generated by graphviz version 2.38.0 (20140413.2041)
 -->
<!-- Title: %3 Pages: 1 -->
<svg width="890pt" height="800pt"
 viewBox="0.00 0.00 889.83 800.00" xmlns="http://www.w3.org/2000/svg" xmlns:xlink="http://www.w3.org/1999/xlink">
<g id="graph0" class="graph" transform="scale(1 1) rotate(0) translate(4 796)">
<title>%3</title>
<polygon fill="white" stroke="none" points="-4,4 -4,-796 885.828,-796 885.828,4 -4,4"/>
<!-- github.com/supermuesli/csdl@examples/Requirement1.py@latest -->
<g id="node1" class="node"><title>github.com/supermuesli/csdl@examples/Requirement1.py@latest</title>
<ellipse fill="none" stroke="black" cx="245.678" cy="-396" rx="245.857" ry="18"/>
<text text-anchor="middle" x="245.678" y="-392.3" font-family="Times,serif" font-size="14.00">github.com/supermuesli/csdl@examples/Requirement1.py@latest</text>
</g>
<!-- Price -->
<g id="node2" class="node"><title>Price</title>
<ellipse fill="none" stroke="black" cx="626.798" cy="-774" rx="28.6953" ry="18"/>
<text text-anchor="middle" x="626.798" y="-770.3" font-family="Times,serif" font-size="14.00">Price</text>
</g>
<!-- github.com/supermuesli/csdl@examples/Requirement1.py@latest&#45;&gt;Price -->
<g id="edge1" class="edge"><title>github.com/supermuesli/csdl@examples/Requirement1.py@latest&#45;&gt;Price</title>
<path fill="none" stroke="red" d="M255.811,-414.239C285.931,-472.466 388.197,-655.433 527.356,-747 545.552,-758.973 568.968,-765.673 588.397,-769.403"/>
<polygon fill="red" stroke="red" points="587.982,-772.883 598.432,-771.14 589.176,-765.986 587.982,-772.883"/>
</g>
<!-- Region -->
<g id="node4" class="node"><title>Region</title>
<ellipse fill="none" stroke="black" cx="626.798" cy="-720" rx="36.2938" ry="18"/>
<text text-anchor="middle" x="626.798" y="-716.3" font-family="Times,serif" font-size="14.00">Region</text>
</g>
<!-- github.com/supermuesli/csdl@examples/Requirement1.py@latest&#45;&gt;Region -->
<g id="edge3" class="edge"><title>github.com/supermuesli/csdl@examples/Requirement1.py@latest&#45;&gt;Region</title>
<path fill="none" stroke="red" d="M258.483,-414.265C293.09,-466.304 399.926,-616.499 527.356,-693 543.741,-702.836 563.789,-709.177 581.507,-713.221"/>
<polygon fill="red" stroke="red" points="581.119,-716.716 591.625,-715.346 582.558,-709.865 581.119,-716.716"/>
</g>
<!-- OperatingSystem -->
<g id="node5" class="node"><title>OperatingSystem</title>
<ellipse fill="none" stroke="black" cx="626.798" cy="-666" rx="72.2875" ry="18"/>
<text text-anchor="middle" x="626.798" y="-662.3" font-family="Times,serif" font-size="14.00">OperatingSystem</text>
</g>
<!-- github.com/supermuesli/csdl@examples/Requirement1.py@latest&#45;&gt;OperatingSystem -->
<g id="edge4" class="edge"><title>github.com/supermuesli/csdl@examples/Requirement1.py@latest&#45;&gt;OperatingSystem</title>
<path fill="none" stroke="red" d="M262.07,-414.006C301.472,-458.947 411.097,-576.894 527.356,-639 537.33,-644.328 548.448,-648.678 559.52,-652.205"/>
<polygon fill="red" stroke="red" points="558.624,-655.59 569.208,-655.098 560.627,-648.883 558.624,-655.59"/>
</g>
<!-- CpuCores -->
<g id="node6" class="node"><title>CpuCores</title>
<ellipse fill="none" stroke="black" cx="626.798" cy="-612" rx="46.2923" ry="18"/>
<text text-anchor="middle" x="626.798" y="-608.3" font-family="Times,serif" font-size="14.00">CpuCores</text>
</g>
<!-- github.com/supermuesli/csdl@examples/Requirement1.py@latest&#45;&gt;CpuCores -->
<g id="edge5" class="edge"><title>github.com/supermuesli/csdl@examples/Requirement1.py@latest&#45;&gt;CpuCores</title>
<path fill="none" stroke="red" d="M268.113,-414.082C313.216,-451.269 422.436,-536.861 527.356,-585 542.287,-591.85 559.312,-597.28 574.957,-601.419"/>
<polygon fill="red" stroke="red" points="574.45,-604.901 585.002,-603.955 576.163,-598.114 574.45,-604.901"/>
</g>
<!-- CpuClockSpeed -->
<g id="node7" class="node"><title>CpuClockSpeed</title>
<ellipse fill="none" stroke="black" cx="626.798" cy="-558" rx="67.6881" ry="18"/>
<text text-anchor="middle" x="626.798" y="-554.3" font-family="Times,serif" font-size="14.00">CpuClockSpeed</text>
</g>
<!-- github.com/supermuesli/csdl@examples/Requirement1.py@latest&#45;&gt;CpuClockSpeed -->
<g id="edge6" class="edge"><title>github.com/supermuesli/csdl@examples/Requirement1.py@latest&#45;&gt;CpuClockSpeed</title>
<path fill="none" stroke="red" d="M279.102,-413.984C330.507,-441.944 434.425,-496.232 527.356,-531 539.657,-535.602 553.086,-539.802 565.958,-543.448"/>
<polygon fill="red" stroke="red" points="565.095,-546.84 575.666,-546.125 566.956,-540.092 565.095,-546.84"/>
</g>
<!-- Ram -->
<g id="node8" class="node"><title>Ram</title>
<ellipse fill="none" stroke="black" cx="626.798" cy="-504" rx="27.8951" ry="18"/>
<text text-anchor="middle" x="626.798" y="-500.3" font-family="Times,serif" font-size="14.00">Ram</text>
</g>
<!-- github.com/supermuesli/csdl@examples/Requirement1.py@latest&#45;&gt;Ram -->
<g id="edge7" class="edge"><title>github.com/supermuesli/csdl@examples/Requirement1.py@latest&#45;&gt;Ram</title>
<path fill="none" stroke="red" d="M306.294,-413.453C363.068,-430.014 450.952,-455.498 527.356,-477 548.468,-482.941 572.174,-489.448 591.032,-494.585"/>
<polygon fill="red" stroke="red" points="590.118,-497.964 600.686,-497.211 591.956,-491.209 590.118,-497.964"/>
</g>
<!-- RamClockSpeed -->
<g id="node9" class="node"><title>RamClockSpeed</title>
<ellipse fill="none" stroke="black" cx="626.798" cy="-450" rx="70.3881" ry="18"/>
<text text-anchor="middle" x="626.798" y="-446.3" font-family="Times,serif" font-size="14.00">RamClockSpeed</text>
</g>
<!-- github.com/supermuesli/csdl@examples/Requirement1.py@latest&#45;&gt;RamClockSpeed -->
<g id="edge8" class="edge"><title>github.com/supermuesli/csdl@examples/Requirement1.py@latest&#45;&gt;RamClockSpeed</title>
<path fill="none" stroke="red" d="M358.888,-411.983C422.403,-421.029 499.904,-432.068 554.995,-439.915"/>
<polygon fill="red" stroke="red" points="554.619,-443.397 565.013,-441.342 555.606,-436.467 554.619,-443.397"/>
</g>
<!-- RamWriteSpeed -->
<g id="node10" class="node"><title>RamWriteSpeed</title>
<ellipse fill="none" stroke="black" cx="626.798" cy="-396" rx="69.5877" ry="18"/>
<text text-anchor="middle" x="626.798" y="-392.3" font-family="Times,serif" font-size="14.00">RamWriteSpeed</text>
</g>
<!-- github.com/supermuesli/csdl@examples/Requirement1.py@latest&#45;&gt;RamWriteSpeed -->
<g id="edge9" class="edge"><title>github.com/supermuesli/csdl@examples/Requirement1.py@latest&#45;&gt;RamWriteSpeed</title>
<path fill="none" stroke="red" d="M491.601,-396C511.234,-396 529.998,-396 546.945,-396"/>
<polygon fill="red" stroke="red" points="547.253,-399.5 557.253,-396 547.253,-392.5 547.253,-399.5"/>
</g>
<!-- RamReadSpeed -->
<g id="node11" class="node"><title>RamReadSpeed</title>
<ellipse fill="none" stroke="black" cx="626.798" cy="-342" rx="67.6881" ry="18"/>
<text text-anchor="middle" x="626.798" y="-338.3" font-family="Times,serif" font-size="14.00">RamReadSpeed</text>
</g>
<!-- github.com/supermuesli/csdl@examples/Requirement1.py@latest&#45;&gt;RamReadSpeed -->
<g id="edge10" class="edge"><title>github.com/supermuesli/csdl@examples/Requirement1.py@latest&#45;&gt;RamReadSpeed</title>
<path fill="none" stroke="red" d="M358.888,-380.017C423.123,-370.868 501.661,-359.681 556.859,-351.819"/>
<polygon fill="red" stroke="red" points="557.478,-355.266 566.885,-350.391 556.491,-348.336 557.478,-355.266"/>
</g>
<!-- Storage -->
<g id="node12" class="node"><title>Storage</title>
<ellipse fill="none" stroke="black" cx="626.798" cy="-288" rx="37.8943" ry="18"/>
<text text-anchor="middle" x="626.798" y="-284.3" font-family="Times,serif" font-size="14.00">Storage</text>
</g>
<!-- github.com/supermuesli/csdl@examples/Requirement1.py@latest&#45;&gt;Storage -->
<g id="edge11" class="edge"><title>github.com/supermuesli/csdl@examples/Requirement1.py@latest&#45;&gt;Storage</title>
<path fill="none" stroke="red" d="M306.294,-378.547C363.068,-361.986 450.952,-336.502 527.356,-315 545.752,-309.823 566.117,-304.217 583.529,-299.461"/>
<polygon fill="red" stroke="red" points="584.674,-302.777 593.402,-296.769 582.833,-296.023 584.674,-302.777"/>
</g>
<!-- StorageWriteSpeed -->
<g id="node13" class="node"><title>StorageWriteSpeed</title>
<ellipse fill="none" stroke="black" cx="626.798" cy="-234" rx="79.0865" ry="18"/>
<text text-anchor="middle" x="626.798" y="-230.3" font-family="Times,serif" font-size="14.00">StorageWriteSpeed</text>
</g>
<!-- github.com/supermuesli/csdl@examples/Requirement1.py@latest&#45;&gt;StorageWriteSpeed -->
<g id="edge12" class="edge"><title>github.com/supermuesli/csdl@examples/Requirement1.py@latest&#45;&gt;StorageWriteSpeed</title>
<path fill="none" stroke="red" d="M279.102,-378.016C330.507,-350.056 434.425,-295.768 527.356,-261 538.379,-256.876 550.306,-253.075 561.928,-249.707"/>
<polygon fill="red" stroke="red" points="562.918,-253.064 571.592,-246.982 561.018,-246.327 562.918,-253.064"/>
</g>
<!-- StorageReadSpeed -->
<g id="node14" class="node"><title>StorageReadSpeed</title>
<ellipse fill="none" stroke="black" cx="626.798" cy="-180" rx="77.1866" ry="18"/>
<text text-anchor="middle" x="626.798" y="-176.3" font-family="Times,serif" font-size="14.00">StorageReadSpeed</text>
</g>
<!-- github.com/supermuesli/csdl@examples/Requirement1.py@latest&#45;&gt;StorageReadSpeed -->
<g id="edge13" class="edge"><title>github.com/supermuesli/csdl@examples/Requirement1.py@latest&#45;&gt;StorageReadSpeed</title>
<path fill="none" stroke="red" d="M268.113,-377.918C313.216,-340.731 422.436,-255.139 527.356,-207 537.51,-202.342 548.631,-198.34 559.629,-194.955"/>
<polygon fill="red" stroke="red" points="560.623,-198.311 569.234,-192.137 558.653,-191.594 560.623,-198.311"/>
</g>
<!-- NetworkCapacity -->
<g id="node15" class="node"><title>NetworkCapacity</title>
<ellipse fill="none" stroke="black" cx="626.798" cy="-126" rx="72.5877" ry="18"/>
<text text-anchor="middle" x="626.798" y="-122.3" font-family="Times,serif" font-size="14.00">NetworkCapacity</text>
</g>
<!-- github.com/supermuesli/csdl@examples/Requirement1.py@latest&#45;&gt;NetworkCapacity -->
<g id="edge14" class="edge"><title>github.com/supermuesli/csdl@examples/Requirement1.py@latest&#45;&gt;NetworkCapacity</title>
<path fill="none" stroke="red" d="M262.07,-377.994C301.472,-333.053 411.097,-215.106 527.356,-153 537.27,-147.704 548.313,-143.375 559.319,-139.859"/>
<polygon fill="red" stroke="red" points="560.375,-143.196 568.95,-136.974 558.367,-136.491 560.375,-143.196"/>
</g>
<!-- NetworkUploadSpeed -->
<g id="node16" class="node"><title>NetworkUploadSpeed</title>
<ellipse fill="none" stroke="black" cx="626.798" cy="-72" rx="89.0842" ry="18"/>
<text text-anchor="middle" x="626.798" y="-68.3" font-family="Times,serif" font-size="14.00">NetworkUploadSpeed</text>
</g>
<!-- github.com/supermuesli/csdl@examples/Requirement1.py@latest&#45;&gt;NetworkUploadSpeed -->
<g id="edge15" class="edge"><title>github.com/supermuesli/csdl@examples/Requirement1.py@latest&#45;&gt;NetworkUploadSpeed</title>
<path fill="none" stroke="red" d="M258.483,-377.735C293.09,-325.696 399.926,-175.501 527.356,-99 534.863,-94.4934 543.139,-90.7206 551.607,-87.5663"/>
<polygon fill="red" stroke="red" points="552.901,-90.8228 561.22,-84.2616 550.625,-84.2031 552.901,-90.8228"/>
</g>
<!-- NetworkDownloadSpeed -->
<g id="node17" class="node"><title>NetworkDownloadSpeed</title>
<ellipse fill="none" stroke="black" cx="626.798" cy="-18" rx="99.3824" ry="18"/>
<text text-anchor="middle" x="626.798" y="-14.3" font-family="Times,serif" font-size="14.00">NetworkDownloadSpeed</text>
</g>
<!-- github.com/supermuesli/csdl@examples/Requirement1.py@latest&#45;&gt;NetworkDownloadSpeed -->
<g id="edge16" class="edge"><title>github.com/supermuesli/csdl@examples/Requirement1.py@latest&#45;&gt;NetworkDownloadSpeed</title>
<path fill="none" stroke="red" d="M255.811,-377.761C285.931,-319.534 388.197,-136.567 527.356,-45 533.514,-40.9483 540.269,-37.5004 547.266,-34.5671"/>
<polygon fill="red" stroke="red" points="548.83,-37.7163 556.922,-30.8778 546.332,-31.1774 548.83,-37.7163"/>
</g>
<!-- PricingModel -->
<g id="node3" class="node"><title>PricingModel</title>
<ellipse fill="none" stroke="black" cx="822.033" cy="-774" rx="59.5901" ry="18"/>
<text text-anchor="middle" x="822.033" y="-770.3" font-family="Times,serif" font-size="14.00">PricingModel</text>
</g>
<!-- Price&#45;&gt;PricingModel -->
<g id="edge2" class="edge"><title>Price&#45;&gt;PricingModel</title>
<path fill="none" stroke="red" d="M655.484,-774C680.546,-774 718.52,-774 751.779,-774"/>
<polygon fill="red" stroke="red" points="751.93,-777.5 761.93,-774 751.93,-770.5 751.93,-777.5"/>
</g>
</g>
</svg>
