<?xml version="1.0" encoding="UTF-8" standalone="no"?>
<!DOCTYPE svg PUBLIC "-//W3C//DTD SVG 1.1//EN"
 "http://www.w3.org/Graphics/SVG/1.1/DTD/svg11.dtd">
<!-- Generated by graphviz version 2.38.0 (20140413.2041)
 -->
<!-- Title: %3 Pages: 1 -->
<svg width="1047pt" height="800pt"
 viewBox="0.00 0.00 1047.11 800.00" xmlns="http://www.w3.org/2000/svg" xmlns:xlink="http://www.w3.org/1999/xlink">
<g id="graph0" class="graph" transform="scale(1 1) rotate(0) translate(4 796)">
<title>%3</title>
<polygon fill="white" stroke="none" points="-4,4 -4,-796 1043.11,-796 1043.11,4 -4,4"/>
<!-- github.com/supermuesli/csdl@examples/Requirement1.py@latest -->
<g id="node1" class="node"><title>github.com/supermuesli/csdl@examples/Requirement1.py@latest</title>
<ellipse fill="none" stroke="black" cx="245.678" cy="-396" rx="245.857" ry="18"/>
<text text-anchor="middle" x="245.678" y="-392.3" font-family="Times,serif" font-size="14.00">github.com/supermuesli/csdl@examples/Requirement1.py@latest</text>
</g>
<!-- Region -->
<g id="node2" class="node"><title>Region</title>
<ellipse fill="none" stroke="black" cx="733.388" cy="-774" rx="36.2938" ry="18"/>
<text text-anchor="middle" x="733.388" y="-770.3" font-family="Times,serif" font-size="14.00">Region</text>
</g>
<!-- github.com/supermuesli/csdl@examples/Requirement1.py@latest&#45;&gt;Region -->
<g id="edge1" class="edge"><title>github.com/supermuesli/csdl@examples/Requirement1.py@latest&#45;&gt;Region</title>
<path fill="none" stroke="red" d="M254.923,-414.199C283.042,-473.917 381.586,-664.772 527.356,-747 576.861,-774.925 643.545,-778.638 687.23,-777.405"/>
<polygon fill="red" stroke="red" points="687.413,-780.901 697.273,-777.023 687.147,-773.906 687.413,-780.901"/>
</g>
<!-- OperatingSystem -->
<g id="node3" class="node"><title>OperatingSystem</title>
<ellipse fill="none" stroke="black" cx="733.388" cy="-720" rx="72.2875" ry="18"/>
<text text-anchor="middle" x="733.388" y="-716.3" font-family="Times,serif" font-size="14.00">OperatingSystem</text>
</g>
<!-- github.com/supermuesli/csdl@examples/Requirement1.py@latest&#45;&gt;OperatingSystem -->
<g id="edge2" class="edge"><title>github.com/supermuesli/csdl@examples/Requirement1.py@latest&#45;&gt;OperatingSystem</title>
<path fill="none" stroke="red" d="M257.29,-413.992C289.816,-467.296 394.05,-624.9 527.356,-693 565.298,-712.383 612.122,-719.597 651.44,-721.76"/>
<polygon fill="red" stroke="red" points="651.378,-725.261 661.526,-722.215 651.694,-718.268 651.378,-725.261"/>
</g>
<!-- CpuCores -->
<g id="node5" class="node"><title>CpuCores</title>
<ellipse fill="none" stroke="black" cx="733.388" cy="-666" rx="46.2923" ry="18"/>
<text text-anchor="middle" x="733.388" y="-662.3" font-family="Times,serif" font-size="14.00">CpuCores</text>
</g>
<!-- github.com/supermuesli/csdl@examples/Requirement1.py@latest&#45;&gt;CpuCores -->
<g id="edge4" class="edge"><title>github.com/supermuesli/csdl@examples/Requirement1.py@latest&#45;&gt;CpuCores</title>
<path fill="none" stroke="red" d="M261.031,-414.301C298.825,-460.999 406.538,-584.719 527.356,-639 574.857,-660.341 634.348,-666.167 676.995,-667.208"/>
<polygon fill="red" stroke="red" points="677.128,-670.71 687.184,-667.374 677.242,-663.711 677.128,-670.71"/>
</g>
<!-- CpuClockSpeed -->
<g id="node6" class="node"><title>CpuClockSpeed</title>
<ellipse fill="none" stroke="black" cx="733.388" cy="-612" rx="67.6881" ry="18"/>
<text text-anchor="middle" x="733.388" y="-608.3" font-family="Times,serif" font-size="14.00">CpuClockSpeed</text>
</g>
<!-- github.com/supermuesli/csdl@examples/Requirement1.py@latest&#45;&gt;CpuClockSpeed -->
<g id="edge5" class="edge"><title>github.com/supermuesli/csdl@examples/Requirement1.py@latest&#45;&gt;CpuClockSpeed</title>
<path fill="none" stroke="red" d="M266.291,-414.075C309.611,-452.826 418.293,-543.726 527.356,-585 568.131,-600.431 616.355,-607.298 655.787,-610.253"/>
<polygon fill="red" stroke="red" points="655.66,-613.752 665.874,-610.939 656.135,-606.769 655.66,-613.752"/>
</g>
<!-- Ram -->
<g id="node7" class="node"><title>Ram</title>
<ellipse fill="none" stroke="black" cx="733.388" cy="-558" rx="27.8951" ry="18"/>
<text text-anchor="middle" x="733.388" y="-554.3" font-family="Times,serif" font-size="14.00">Ram</text>
</g>
<!-- github.com/supermuesli/csdl@examples/Requirement1.py@latest&#45;&gt;Ram -->
<g id="edge6" class="edge"><title>github.com/supermuesli/csdl@examples/Requirement1.py@latest&#45;&gt;Ram</title>
<path fill="none" stroke="red" d="M276.138,-414.079C325.916,-443.713 430.712,-502.2 527.356,-531 584.331,-547.979 653.381,-554.289 695.049,-556.629"/>
<polygon fill="red" stroke="red" points="695.116,-560.137 705.282,-557.154 695.474,-553.146 695.116,-560.137"/>
</g>
<!-- RamClockSpeed -->
<g id="node8" class="node"><title>RamClockSpeed</title>
<ellipse fill="none" stroke="black" cx="733.388" cy="-504" rx="70.3881" ry="18"/>
<text text-anchor="middle" x="733.388" y="-500.3" font-family="Times,serif" font-size="14.00">RamClockSpeed</text>
</g>
<!-- github.com/supermuesli/csdl@examples/Requirement1.py@latest&#45;&gt;RamClockSpeed -->
<g id="edge7" class="edge"><title>github.com/supermuesli/csdl@examples/Requirement1.py@latest&#45;&gt;RamClockSpeed</title>
<path fill="none" stroke="red" d="M298.852,-413.61C354.771,-431.879 446.434,-460.095 527.356,-477 569.78,-485.863 617.783,-492.37 656.671,-496.774"/>
<polygon fill="red" stroke="red" points="656.543,-500.281 666.868,-497.904 657.314,-493.323 656.543,-500.281"/>
</g>
<!-- RamWriteSpeed -->
<g id="node9" class="node"><title>RamWriteSpeed</title>
<ellipse fill="none" stroke="black" cx="733.388" cy="-450" rx="69.5877" ry="18"/>
<text text-anchor="middle" x="733.388" y="-446.3" font-family="Times,serif" font-size="14.00">RamWriteSpeed</text>
</g>
<!-- github.com/supermuesli/csdl@examples/Requirement1.py@latest&#45;&gt;RamWriteSpeed -->
<g id="edge8" class="edge"><title>github.com/supermuesli/csdl@examples/Requirement1.py@latest&#45;&gt;RamWriteSpeed</title>
<path fill="none" stroke="red" d="M381.653,-411.006C471.337,-420.977 585.656,-433.687 658.949,-441.835"/>
<polygon fill="red" stroke="red" points="658.686,-445.328 669.012,-442.954 659.46,-438.37 658.686,-445.328"/>
</g>
<!-- RamReadSpeed -->
<g id="node10" class="node"><title>RamReadSpeed</title>
<ellipse fill="none" stroke="black" cx="733.388" cy="-396" rx="67.6881" ry="18"/>
<text text-anchor="middle" x="733.388" y="-392.3" font-family="Times,serif" font-size="14.00">RamReadSpeed</text>
</g>
<!-- github.com/supermuesli/csdl@examples/Requirement1.py@latest&#45;&gt;RamReadSpeed -->
<g id="edge9" class="edge"><title>github.com/supermuesli/csdl@examples/Requirement1.py@latest&#45;&gt;RamReadSpeed</title>
<path fill="none" stroke="red" d="M491.668,-396C551.162,-396 610.485,-396 655.354,-396"/>
<polygon fill="red" stroke="red" points="655.569,-399.5 665.569,-396 655.569,-392.5 655.569,-399.5"/>
</g>
<!-- Storage -->
<g id="node11" class="node"><title>Storage</title>
<ellipse fill="none" stroke="black" cx="733.388" cy="-342" rx="37.8943" ry="18"/>
<text text-anchor="middle" x="733.388" y="-338.3" font-family="Times,serif" font-size="14.00">Storage</text>
</g>
<!-- github.com/supermuesli/csdl@examples/Requirement1.py@latest&#45;&gt;Storage -->
<g id="edge10" class="edge"><title>github.com/supermuesli/csdl@examples/Requirement1.py@latest&#45;&gt;Storage</title>
<path fill="none" stroke="red" d="M381.653,-380.994C483.52,-369.669 617.169,-354.81 686.383,-347.115"/>
<polygon fill="red" stroke="red" points="686.967,-350.571 696.519,-345.988 686.194,-343.614 686.967,-350.571"/>
</g>
<!-- StorageWriteSpeed -->
<g id="node12" class="node"><title>StorageWriteSpeed</title>
<ellipse fill="none" stroke="black" cx="733.388" cy="-288" rx="79.0865" ry="18"/>
<text text-anchor="middle" x="733.388" y="-284.3" font-family="Times,serif" font-size="14.00">StorageWriteSpeed</text>
</g>
<!-- github.com/supermuesli/csdl@examples/Requirement1.py@latest&#45;&gt;StorageWriteSpeed -->
<g id="edge11" class="edge"><title>github.com/supermuesli/csdl@examples/Requirement1.py@latest&#45;&gt;StorageWriteSpeed</title>
<path fill="none" stroke="red" d="M298.852,-378.39C354.771,-360.121 446.434,-331.905 527.356,-315 567.19,-306.678 611.943,-300.433 649.451,-296.056"/>
<polygon fill="red" stroke="red" points="650.289,-299.483 659.827,-294.871 649.495,-292.529 650.289,-299.483"/>
</g>
<!-- StorageReadSpeed -->
<g id="node13" class="node"><title>StorageReadSpeed</title>
<ellipse fill="none" stroke="black" cx="733.388" cy="-234" rx="77.1866" ry="18"/>
<text text-anchor="middle" x="733.388" y="-230.3" font-family="Times,serif" font-size="14.00">StorageReadSpeed</text>
</g>
<!-- github.com/supermuesli/csdl@examples/Requirement1.py@latest&#45;&gt;StorageReadSpeed -->
<g id="edge12" class="edge"><title>github.com/supermuesli/csdl@examples/Requirement1.py@latest&#45;&gt;StorageReadSpeed</title>
<path fill="none" stroke="red" d="M276.138,-377.921C325.916,-348.287 430.712,-289.8 527.356,-261 565.884,-249.519 609.933,-242.916 647.303,-239.12"/>
<polygon fill="red" stroke="red" points="648.038,-242.565 657.656,-238.122 647.366,-235.598 648.038,-242.565"/>
</g>
<!-- NetworkCapacity -->
<g id="node14" class="node"><title>NetworkCapacity</title>
<ellipse fill="none" stroke="black" cx="733.388" cy="-180" rx="72.5877" ry="18"/>
<text text-anchor="middle" x="733.388" y="-176.3" font-family="Times,serif" font-size="14.00">NetworkCapacity</text>
</g>
<!-- github.com/supermuesli/csdl@examples/Requirement1.py@latest&#45;&gt;NetworkCapacity -->
<g id="edge13" class="edge"><title>github.com/supermuesli/csdl@examples/Requirement1.py@latest&#45;&gt;NetworkCapacity</title>
<path fill="none" stroke="red" d="M266.291,-377.925C309.611,-339.174 418.293,-248.274 527.356,-207 566.349,-192.244 612.154,-185.319 650.568,-182.157"/>
<polygon fill="red" stroke="red" points="650.97,-185.637 660.679,-181.397 650.445,-178.657 650.97,-185.637"/>
</g>
<!-- NetworkUploadSpeed -->
<g id="node15" class="node"><title>NetworkUploadSpeed</title>
<ellipse fill="none" stroke="black" cx="733.388" cy="-126" rx="89.0842" ry="18"/>
<text text-anchor="middle" x="733.388" y="-122.3" font-family="Times,serif" font-size="14.00">NetworkUploadSpeed</text>
</g>
<!-- github.com/supermuesli/csdl@examples/Requirement1.py@latest&#45;&gt;NetworkUploadSpeed -->
<g id="edge14" class="edge"><title>github.com/supermuesli/csdl@examples/Requirement1.py@latest&#45;&gt;NetworkUploadSpeed</title>
<path fill="none" stroke="red" d="M261.031,-377.699C298.825,-331.001 406.538,-207.281 527.356,-153 560.368,-138.169 599.171,-130.831 634.086,-127.385"/>
<polygon fill="red" stroke="red" points="634.653,-130.848 644.303,-126.475 634.032,-123.876 634.653,-130.848"/>
</g>
<!-- NetworkDownloadSpeed -->
<g id="node16" class="node"><title>NetworkDownloadSpeed</title>
<ellipse fill="none" stroke="black" cx="733.388" cy="-72" rx="99.3824" ry="18"/>
<text text-anchor="middle" x="733.388" y="-68.3" font-family="Times,serif" font-size="14.00">NetworkDownloadSpeed</text>
</g>
<!-- github.com/supermuesli/csdl@examples/Requirement1.py@latest&#45;&gt;NetworkDownloadSpeed -->
<g id="edge15" class="edge"><title>github.com/supermuesli/csdl@examples/Requirement1.py@latest&#45;&gt;NetworkDownloadSpeed</title>
<path fill="none" stroke="red" d="M257.29,-378.008C289.816,-324.704 394.05,-167.1 527.356,-99 556.766,-83.976 591.512,-76.2627 623.963,-72.5463"/>
<polygon fill="red" stroke="red" points="624.363,-76.0237 633.952,-71.5175 623.646,-69.0605 624.363,-76.0237"/>
</g>
<!-- github.com/supermuesli/csdl@misc/StaticIp.py@latest -->
<g id="node17" class="node"><title>github.com/supermuesli/csdl@misc/StaticIp.py@latest</title>
<ellipse fill="none" stroke="black" cx="733.388" cy="-18" rx="206.063" ry="18"/>
<text text-anchor="middle" x="733.388" y="-14.3" font-family="Times,serif" font-size="14.00">github.com/supermuesli/csdl@misc/StaticIp.py@latest</text>
</g>
<!-- github.com/supermuesli/csdl@examples/Requirement1.py@latest&#45;&gt;github.com/supermuesli/csdl@misc/StaticIp.py@latest -->
<g id="edge16" class="edge"><title>github.com/supermuesli/csdl@examples/Requirement1.py@latest&#45;&gt;github.com/supermuesli/csdl@misc/StaticIp.py@latest</title>
<path fill="none" stroke="red" d="M254.923,-377.801C283.042,-318.083 381.586,-127.228 527.356,-45 536.539,-39.82 546.313,-35.4732 556.422,-31.8365"/>
<polygon fill="red" stroke="red" points="557.834,-35.0546 566.208,-28.5633 555.614,-28.4161 557.834,-35.0546"/>
</g>
<!-- Linux -->
<g id="node4" class="node"><title>Linux</title>
<ellipse fill="none" stroke="black" cx="1007.27" cy="-720" rx="31.6951" ry="18"/>
<text text-anchor="middle" x="1007.27" y="-716.3" font-family="Times,serif" font-size="14.00">Linux</text>
</g>
<!-- OperatingSystem&#45;&gt;Linux -->
<g id="edge3" class="edge"><title>OperatingSystem&#45;&gt;Linux</title>
<path fill="none" stroke="red" d="M805.821,-720C856.585,-720 922.972,-720 965.13,-720"/>
<polygon fill="red" stroke="red" points="965.302,-723.5 975.302,-720 965.302,-716.5 965.302,-723.5"/>
</g>
</g>
</svg>
