<?xml version="1.0" encoding="UTF-8" standalone="no"?>
<!DOCTYPE svg PUBLIC "-//W3C//DTD SVG 1.1//EN"
 "http://www.w3.org/Graphics/SVG/1.1/DTD/svg11.dtd">
<!-- Generated by graphviz version 2.38.0 (20140413.2041)
 -->
<!-- Title: %3 Pages: 1 -->
<svg width="1258pt" height="368pt"
 viewBox="0.00 0.00 1257.70 368.00" xmlns="http://www.w3.org/2000/svg" xmlns:xlink="http://www.w3.org/1999/xlink">
<g id="graph0" class="graph" transform="scale(1 1) rotate(0) translate(4 364)">
<title>%3</title>
<polygon fill="white" stroke="none" points="-4,4 -4,-364 1253.7,-364 1253.7,4 -4,4"/>
<!-- github.com/supermuesli/csdl@examples/StorageRequirement.py@latest -->
<g id="node1" class="node"><title>github.com/supermuesli/csdl@examples/StorageRequirement.py@latest</title>
<ellipse fill="none" stroke="black" cx="268.426" cy="-180" rx="268.352" ry="18"/>
<text text-anchor="middle" x="268.426" y="-176.3" font-family="Times,serif" font-size="14.00">github.com/supermuesli/csdl@examples/StorageRequirement.py@latest</text>
</g>
<!-- Price -->
<g id="node2" class="node"><title>Price</title>
<ellipse fill="none" stroke="black" cx="833.479" cy="-342" rx="28.6953" ry="18"/>
<text text-anchor="middle" x="833.479" y="-338.3" font-family="Times,serif" font-size="14.00">Price</text>
</g>
<!-- github.com/supermuesli/csdl@examples/StorageRequirement.py@latest&#45;&gt;Price -->
<g id="edge1" class="edge"><title>github.com/supermuesli/csdl@examples/StorageRequirement.py@latest&#45;&gt;Price</title>
<path fill="none" stroke="red" d="M300.971,-198.069C354.798,-227.961 468.689,-287.165 572.852,-315 649.695,-335.534 743.209,-340.603 794.415,-341.761"/>
<polygon fill="red" stroke="red" points="794.614,-345.265 804.678,-341.953 794.745,-338.266 794.614,-345.265"/>
</g>
<!-- Region -->
<g id="node4" class="node"><title>Region</title>
<ellipse fill="none" stroke="black" cx="833.479" cy="-288" rx="36.2938" ry="18"/>
<text text-anchor="middle" x="833.479" y="-284.3" font-family="Times,serif" font-size="14.00">Region</text>
</g>
<!-- github.com/supermuesli/csdl@examples/StorageRequirement.py@latest&#45;&gt;Region -->
<g id="edge3" class="edge"><title>github.com/supermuesli/csdl@examples/StorageRequirement.py@latest&#45;&gt;Region</title>
<path fill="none" stroke="red" d="M325.028,-197.67C385.426,-216.197 485.05,-244.819 572.852,-261 647.068,-274.677 734.59,-281.985 786.702,-285.423"/>
<polygon fill="red" stroke="red" points="786.75,-288.933 796.953,-286.079 787.197,-281.948 786.75,-288.933"/>
</g>
<!-- Storage -->
<g id="node5" class="node"><title>Storage</title>
<ellipse fill="none" stroke="black" cx="833.479" cy="-234" rx="37.8943" ry="18"/>
<text text-anchor="middle" x="833.479" y="-230.3" font-family="Times,serif" font-size="14.00">Storage</text>
</g>
<!-- github.com/supermuesli/csdl@examples/StorageRequirement.py@latest&#45;&gt;Storage -->
<g id="edge4" class="edge"><title>github.com/supermuesli/csdl@examples/StorageRequirement.py@latest&#45;&gt;Storage</title>
<path fill="none" stroke="red" d="M423.283,-194.756C545.28,-206.456 707.857,-222.048 786.29,-229.57"/>
<polygon fill="red" stroke="red" points="786.045,-233.063 796.334,-230.533 786.714,-226.095 786.045,-233.063"/>
</g>
<!-- StorageWriteSpeed -->
<g id="node6" class="node"><title>StorageWriteSpeed</title>
<ellipse fill="none" stroke="black" cx="833.479" cy="-180" rx="79.0865" ry="18"/>
<text text-anchor="middle" x="833.479" y="-176.3" font-family="Times,serif" font-size="14.00">StorageWriteSpeed</text>
</g>
<!-- github.com/supermuesli/csdl@examples/StorageRequirement.py@latest&#45;&gt;StorageWriteSpeed -->
<g id="edge5" class="edge"><title>github.com/supermuesli/csdl@examples/StorageRequirement.py@latest&#45;&gt;StorageWriteSpeed</title>
<path fill="none" stroke="red" d="M536.937,-180C611.596,-180 687.573,-180 743.796,-180"/>
<polygon fill="red" stroke="red" points="744.059,-183.5 754.059,-180 744.059,-176.5 744.059,-183.5"/>
</g>
<!-- StorageReadSpeed -->
<g id="node7" class="node"><title>StorageReadSpeed</title>
<ellipse fill="none" stroke="black" cx="833.479" cy="-126" rx="77.1866" ry="18"/>
<text text-anchor="middle" x="833.479" y="-122.3" font-family="Times,serif" font-size="14.00">StorageReadSpeed</text>
</g>
<!-- github.com/supermuesli/csdl@examples/StorageRequirement.py@latest&#45;&gt;StorageReadSpeed -->
<g id="edge6" class="edge"><title>github.com/supermuesli/csdl@examples/StorageRequirement.py@latest&#45;&gt;StorageReadSpeed</title>
<path fill="none" stroke="red" d="M423.283,-165.244C529.351,-155.072 666.095,-141.957 751.542,-133.762"/>
<polygon fill="red" stroke="red" points="752.083,-137.227 761.703,-132.788 751.414,-130.259 752.083,-137.227"/>
</g>
<!-- github.com/supermuesli/csdl@misc/requests/GETAmount.py@latest -->
<g id="node8" class="node"><title>github.com/supermuesli/csdl@misc/requests/GETAmount.py@latest</title>
<ellipse fill="none" stroke="black" cx="833.479" cy="-72" rx="256.955" ry="18"/>
<text text-anchor="middle" x="833.479" y="-68.3" font-family="Times,serif" font-size="14.00">github.com/supermuesli/csdl@misc/requests/GETAmount.py@latest</text>
</g>
<!-- github.com/supermuesli/csdl@examples/StorageRequirement.py@latest&#45;&gt;github.com/supermuesli/csdl@misc/requests/GETAmount.py@latest -->
<g id="edge7" class="edge"><title>github.com/supermuesli/csdl@examples/StorageRequirement.py@latest&#45;&gt;github.com/supermuesli/csdl@misc/requests/GETAmount.py@latest</title>
<path fill="none" stroke="red" d="M325.028,-162.33C385.426,-143.803 485.05,-115.181 572.852,-99 599.049,-94.1722 626.904,-90.1379 654.274,-86.7873"/>
<polygon fill="red" stroke="red" points="654.819,-90.2472 664.332,-85.5836 653.987,-83.2968 654.819,-90.2472"/>
</g>
<!-- github.com/supermuesli/csdl@misc/requests/POSTAmount.py@latest -->
<g id="node9" class="node"><title>github.com/supermuesli/csdl@misc/requests/POSTAmount.py@latest</title>
<ellipse fill="none" stroke="black" cx="833.479" cy="-18" rx="260.754" ry="18"/>
<text text-anchor="middle" x="833.479" y="-14.3" font-family="Times,serif" font-size="14.00">github.com/supermuesli/csdl@misc/requests/POSTAmount.py@latest</text>
</g>
<!-- github.com/supermuesli/csdl@examples/StorageRequirement.py@latest&#45;&gt;github.com/supermuesli/csdl@misc/requests/POSTAmount.py@latest -->
<g id="edge8" class="edge"><title>github.com/supermuesli/csdl@examples/StorageRequirement.py@latest&#45;&gt;github.com/supermuesli/csdl@misc/requests/POSTAmount.py@latest</title>
<path fill="none" stroke="red" d="M300.971,-161.931C354.798,-132.039 468.689,-72.8348 572.852,-45 592.695,-39.6976 613.649,-35.4264 634.699,-31.9875"/>
<polygon fill="red" stroke="red" points="635.369,-35.4254 644.704,-30.4155 634.282,-28.5103 635.369,-35.4254"/>
</g>
<!-- PricingModel -->
<g id="node3" class="node"><title>PricingModel</title>
<ellipse fill="none" stroke="black" cx="1189.9" cy="-342" rx="59.5901" ry="18"/>
<text text-anchor="middle" x="1189.9" y="-338.3" font-family="Times,serif" font-size="14.00">PricingModel</text>
</g>
<!-- Price&#45;&gt;PricingModel -->
<g id="edge2" class="edge"><title>Price&#45;&gt;PricingModel</title>
<path fill="none" stroke="red" d="M862.29,-342C917.264,-342 1041.29,-342 1119.7,-342"/>
<polygon fill="red" stroke="red" points="1119.98,-345.5 1129.98,-342 1119.98,-338.5 1119.98,-345.5"/>
</g>
</g>
</svg>
