<?xml version="1.0" encoding="UTF-8" standalone="no"?>
<!DOCTYPE svg PUBLIC "-//W3C//DTD SVG 1.1//EN"
 "http://www.w3.org/Graphics/SVG/1.1/DTD/svg11.dtd">
<!-- Generated by graphviz version 2.38.0 (20140413.2041)
 -->
<!-- Title: %3 Pages: 1 -->
<svg width="1215pt" height="368pt"
 viewBox="0.00 0.00 1214.80 368.00" xmlns="http://www.w3.org/2000/svg" xmlns:xlink="http://www.w3.org/1999/xlink">
<g id="graph0" class="graph" transform="scale(1 1) rotate(0) translate(4 364)">
<title>%3</title>
<polygon fill="white" stroke="none" points="-4,4 -4,-364 1210.8,-364 1210.8,4 -4,4"/>
<!-- github.com/supermuesli/csdl@examples/StorageRequirement.py@latest -->
<g id="node1" class="node"><title>github.com/supermuesli/csdl@examples/StorageRequirement.py@latest</title>
<ellipse fill="none" stroke="black" cx="268.426" cy="-180" rx="268.352" ry="18"/>
<text text-anchor="middle" x="268.426" y="-176.3" font-family="Times,serif" font-size="14.00">github.com/supermuesli/csdl@examples/StorageRequirement.py@latest</text>
</g>
<!-- Price -->
<g id="node2" class="node"><title>Price</title>
<ellipse fill="none" stroke="black" cx="812.031" cy="-342" rx="28.6953" ry="18"/>
<text text-anchor="middle" x="812.031" y="-338.3" font-family="Times,serif" font-size="14.00">Price</text>
</g>
<!-- github.com/supermuesli/csdl@examples/StorageRequirement.py@latest&#45;&gt;Price -->
<g id="edge1" class="edge"><title>github.com/supermuesli/csdl@examples/StorageRequirement.py@latest&#45;&gt;Price</title>
<path fill="none" stroke="red" d="M301,-197.964C354.868,-227.702 468.819,-286.683 572.852,-315 641.915,-333.798 725.687,-339.524 773.23,-341.258"/>
<polygon fill="red" stroke="red" points="773.265,-344.761 783.374,-341.587 773.492,-337.765 773.265,-344.761"/>
</g>
<!-- github.com/supermuesli/csdl@aws/regions/Region.py@latest -->
<g id="node4" class="node"><title>github.com/supermuesli/csdl@aws/regions/Region.py@latest</title>
<ellipse fill="none" stroke="black" cx="812.031" cy="-288" rx="229.359" ry="18"/>
<text text-anchor="middle" x="812.031" y="-284.3" font-family="Times,serif" font-size="14.00">github.com/supermuesli/csdl@aws/regions/Region.py@latest</text>
</g>
<!-- github.com/supermuesli/csdl@examples/StorageRequirement.py@latest&#45;&gt;github.com/supermuesli/csdl@aws/regions/Region.py@latest -->
<g id="edge3" class="edge"><title>github.com/supermuesli/csdl@examples/StorageRequirement.py@latest&#45;&gt;github.com/supermuesli/csdl@aws/regions/Region.py@latest</title>
<path fill="none" stroke="red" d="M325.335,-197.596C385.785,-215.991 485.26,-244.438 572.852,-261 597.961,-265.748 624.729,-269.771 650.914,-273.145"/>
<polygon fill="red" stroke="red" points="650.557,-276.627 660.916,-274.406 651.433,-269.682 650.557,-276.627"/>
</g>
<!-- Storage -->
<g id="node5" class="node"><title>Storage</title>
<ellipse fill="none" stroke="black" cx="812.031" cy="-234" rx="37.8943" ry="18"/>
<text text-anchor="middle" x="812.031" y="-230.3" font-family="Times,serif" font-size="14.00">Storage</text>
</g>
<!-- github.com/supermuesli/csdl@examples/StorageRequirement.py@latest&#45;&gt;Storage -->
<g id="edge4" class="edge"><title>github.com/supermuesli/csdl@examples/StorageRequirement.py@latest&#45;&gt;Storage</title>
<path fill="none" stroke="red" d="M419.215,-194.934C535.384,-206.517 688.956,-221.829 764.708,-229.381"/>
<polygon fill="red" stroke="red" points="764.571,-232.885 774.869,-230.394 765.265,-225.92 764.571,-232.885"/>
</g>
<!-- StorageWriteSpeed -->
<g id="node6" class="node"><title>StorageWriteSpeed</title>
<ellipse fill="none" stroke="black" cx="812.031" cy="-180" rx="79.0865" ry="18"/>
<text text-anchor="middle" x="812.031" y="-176.3" font-family="Times,serif" font-size="14.00">StorageWriteSpeed</text>
</g>
<!-- github.com/supermuesli/csdl@examples/StorageRequirement.py@latest&#45;&gt;StorageWriteSpeed -->
<g id="edge5" class="edge"><title>github.com/supermuesli/csdl@examples/StorageRequirement.py@latest&#45;&gt;StorageWriteSpeed</title>
<path fill="none" stroke="red" d="M537.055,-180C604.14,-180 671.484,-180 722.617,-180"/>
<polygon fill="red" stroke="red" points="722.623,-183.5 732.623,-180 722.623,-176.5 722.623,-183.5"/>
</g>
<!-- StorageReadSpeed -->
<g id="node7" class="node"><title>StorageReadSpeed</title>
<ellipse fill="none" stroke="black" cx="812.031" cy="-126" rx="77.1866" ry="18"/>
<text text-anchor="middle" x="812.031" y="-122.3" font-family="Times,serif" font-size="14.00">StorageReadSpeed</text>
</g>
<!-- github.com/supermuesli/csdl@examples/StorageRequirement.py@latest&#45;&gt;StorageReadSpeed -->
<g id="edge6" class="edge"><title>github.com/supermuesli/csdl@examples/StorageRequirement.py@latest&#45;&gt;StorageReadSpeed</title>
<path fill="none" stroke="red" d="M419.215,-165.066C519.898,-155.027 648.678,-142.187 730.54,-134.025"/>
<polygon fill="red" stroke="red" points="730.929,-137.504 740.532,-133.029 730.234,-130.538 730.929,-137.504"/>
</g>
<!-- github.com/supermuesli/csdl@misc/dataTransfer/In.py@latest -->
<g id="node8" class="node"><title>github.com/supermuesli/csdl@misc/dataTransfer/In.py@latest</title>
<ellipse fill="none" stroke="black" cx="812.031" cy="-72" rx="233.159" ry="18"/>
<text text-anchor="middle" x="812.031" y="-68.3" font-family="Times,serif" font-size="14.00">github.com/supermuesli/csdl@misc/dataTransfer/In.py@latest</text>
</g>
<!-- github.com/supermuesli/csdl@examples/StorageRequirement.py@latest&#45;&gt;github.com/supermuesli/csdl@misc/dataTransfer/In.py@latest -->
<g id="edge7" class="edge"><title>github.com/supermuesli/csdl@examples/StorageRequirement.py@latest&#45;&gt;github.com/supermuesli/csdl@misc/dataTransfer/In.py@latest</title>
<path fill="none" stroke="red" d="M325.335,-162.404C385.785,-144.009 485.26,-115.562 572.852,-99 597.58,-94.3245 623.916,-90.3513 649.72,-87.0095"/>
<polygon fill="red" stroke="red" points="650.482,-90.441 659.963,-85.7119 649.603,-83.4965 650.482,-90.441"/>
</g>
<!-- github.com/supermuesli/csdl@misc/dataTransfer/Out.py@latest -->
<g id="node9" class="node"><title>github.com/supermuesli/csdl@misc/dataTransfer/Out.py@latest</title>
<ellipse fill="none" stroke="black" cx="812.031" cy="-18" rx="239.358" ry="18"/>
<text text-anchor="middle" x="812.031" y="-14.3" font-family="Times,serif" font-size="14.00">github.com/supermuesli/csdl@misc/dataTransfer/Out.py@latest</text>
</g>
<!-- github.com/supermuesli/csdl@examples/StorageRequirement.py@latest&#45;&gt;github.com/supermuesli/csdl@misc/dataTransfer/Out.py@latest -->
<g id="edge8" class="edge"><title>github.com/supermuesli/csdl@examples/StorageRequirement.py@latest&#45;&gt;github.com/supermuesli/csdl@misc/dataTransfer/Out.py@latest</title>
<path fill="none" stroke="red" d="M301,-162.036C354.868,-132.298 468.819,-73.3165 572.852,-45 591.832,-39.8341 611.922,-35.6554 632.066,-32.2754"/>
<polygon fill="red" stroke="red" points="632.639,-35.7281 641.954,-30.6795 631.524,-28.8176 632.639,-35.7281"/>
</g>
<!-- PricingModel -->
<g id="node3" class="node"><title>PricingModel</title>
<ellipse fill="none" stroke="black" cx="1147" cy="-342" rx="59.5901" ry="18"/>
<text text-anchor="middle" x="1147" y="-338.3" font-family="Times,serif" font-size="14.00">PricingModel</text>
</g>
<!-- Price&#45;&gt;PricingModel -->
<g id="edge2" class="edge"><title>Price&#45;&gt;PricingModel</title>
<path fill="none" stroke="red" d="M840.848,-342C892.349,-342 1003.95,-342 1076.96,-342"/>
<polygon fill="red" stroke="red" points="1077,-345.5 1087,-342 1077,-338.5 1077,-345.5"/>
</g>
</g>
</svg>
