<?xml version="1.0" encoding="UTF-8" standalone="no"?>
<!DOCTYPE svg PUBLIC "-//W3C//DTD SVG 1.1//EN"
 "http://www.w3.org/Graphics/SVG/1.1/DTD/svg11.dtd">
<!-- Generated by graphviz version 2.38.0 (20140413.2041)
 -->
<!-- Title: %3 Pages: 1 -->
<svg width="1258pt" height="422pt"
 viewBox="0.00 0.00 1257.70 422.00" xmlns="http://www.w3.org/2000/svg" xmlns:xlink="http://www.w3.org/1999/xlink">
<g id="graph0" class="graph" transform="scale(1 1) rotate(0) translate(4 418)">
<title>%3</title>
<polygon fill="white" stroke="none" points="-4,4 -4,-418 1253.7,-418 1253.7,4 -4,4"/>
<!-- github.com/supermuesli/csdl@examples/StorageRequirement.py@latest -->
<g id="node1" class="node"><title>github.com/supermuesli/csdl@examples/StorageRequirement.py@latest</title>
<ellipse fill="none" stroke="black" cx="268.426" cy="-207" rx="268.352" ry="18"/>
<text text-anchor="middle" x="268.426" y="-203.3" font-family="Times,serif" font-size="14.00">github.com/supermuesli/csdl@examples/StorageRequirement.py@latest</text>
</g>
<!-- Price -->
<g id="node2" class="node"><title>Price</title>
<ellipse fill="none" stroke="black" cx="833.479" cy="-396" rx="28.6953" ry="18"/>
<text text-anchor="middle" x="833.479" y="-392.3" font-family="Times,serif" font-size="14.00">Price</text>
</g>
<!-- github.com/supermuesli/csdl@examples/StorageRequirement.py@latest&#45;&gt;Price -->
<g id="edge1" class="edge"><title>github.com/supermuesli/csdl@examples/StorageRequirement.py@latest&#45;&gt;Price</title>
<path fill="none" stroke="red" d="M294.705,-224.938C344.943,-259.544 462.076,-335.095 572.852,-369 649.111,-392.34 743.214,-396.35 794.591,-396.576"/>
<polygon fill="red" stroke="red" points="794.885,-400.076 804.884,-396.573 794.883,-393.076 794.885,-400.076"/>
</g>
<!-- Region -->
<g id="node4" class="node"><title>Region</title>
<ellipse fill="none" stroke="black" cx="833.479" cy="-342" rx="36.2938" ry="18"/>
<text text-anchor="middle" x="833.479" y="-338.3" font-family="Times,serif" font-size="14.00">Region</text>
</g>
<!-- github.com/supermuesli/csdl@examples/StorageRequirement.py@latest&#45;&gt;Region -->
<g id="edge3" class="edge"><title>github.com/supermuesli/csdl@examples/StorageRequirement.py@latest&#45;&gt;Region</title>
<path fill="none" stroke="red" d="M309.732,-224.844C367.006,-249.386 475.782,-293.009 572.852,-315 646.453,-331.674 734.16,-338.08 786.477,-340.521"/>
<polygon fill="red" stroke="red" points="786.626,-344.031 796.77,-340.972 786.932,-337.038 786.626,-344.031"/>
</g>
<!-- Storage -->
<g id="node5" class="node"><title>Storage</title>
<ellipse fill="none" stroke="black" cx="833.479" cy="-288" rx="37.8943" ry="18"/>
<text text-anchor="middle" x="833.479" y="-284.3" font-family="Times,serif" font-size="14.00">Storage</text>
</g>
<!-- github.com/supermuesli/csdl@examples/StorageRequirement.py@latest&#45;&gt;Storage -->
<g id="edge4" class="edge"><title>github.com/supermuesli/csdl@examples/StorageRequirement.py@latest&#45;&gt;Storage</title>
<path fill="none" stroke="red" d="M355.481,-224.031C416.08,-235.602 499.206,-250.631 572.852,-261 647.161,-271.462 733.967,-279.686 786.012,-284.191"/>
<polygon fill="red" stroke="red" points="785.996,-287.702 796.258,-285.068 786.593,-280.728 785.996,-287.702"/>
</g>
<!-- StorageWriteSpeed -->
<g id="node6" class="node"><title>StorageWriteSpeed</title>
<ellipse fill="none" stroke="black" cx="833.479" cy="-234" rx="79.0865" ry="18"/>
<text text-anchor="middle" x="833.479" y="-230.3" font-family="Times,serif" font-size="14.00">StorageWriteSpeed</text>
</g>
<!-- github.com/supermuesli/csdl@examples/StorageRequirement.py@latest&#45;&gt;StorageWriteSpeed -->
<g id="edge5" class="edge"><title>github.com/supermuesli/csdl@examples/StorageRequirement.py@latest&#45;&gt;StorageWriteSpeed</title>
<path fill="none" stroke="red" d="M487.117,-217.439C577.188,-221.758 676.461,-226.518 745.366,-229.823"/>
<polygon fill="red" stroke="red" points="745.576,-233.337 755.733,-230.32 745.912,-226.345 745.576,-233.337"/>
</g>
<!-- StorageReadSpeed -->
<g id="node7" class="node"><title>StorageReadSpeed</title>
<ellipse fill="none" stroke="black" cx="833.479" cy="-180" rx="77.1866" ry="18"/>
<text text-anchor="middle" x="833.479" y="-176.3" font-family="Times,serif" font-size="14.00">StorageReadSpeed</text>
</g>
<!-- github.com/supermuesli/csdl@examples/StorageRequirement.py@latest&#45;&gt;StorageReadSpeed -->
<g id="edge6" class="edge"><title>github.com/supermuesli/csdl@examples/StorageRequirement.py@latest&#45;&gt;StorageReadSpeed</title>
<path fill="none" stroke="red" d="M487.117,-196.561C577.924,-192.207 678.084,-187.404 747.049,-184.097"/>
<polygon fill="red" stroke="red" points="747.597,-187.574 757.418,-183.599 747.262,-180.582 747.597,-187.574"/>
</g>
<!-- github.com/supermuesli/csdl@misc/dataTransfer/Out.py@latest -->
<g id="node8" class="node"><title>github.com/supermuesli/csdl@misc/dataTransfer/Out.py@latest</title>
<ellipse fill="none" stroke="black" cx="833.479" cy="-126" rx="239.358" ry="18"/>
<text text-anchor="middle" x="833.479" y="-122.3" font-family="Times,serif" font-size="14.00">github.com/supermuesli/csdl@misc/dataTransfer/Out.py@latest</text>
</g>
<!-- github.com/supermuesli/csdl@examples/StorageRequirement.py@latest&#45;&gt;github.com/supermuesli/csdl@misc/dataTransfer/Out.py@latest -->
<g id="edge7" class="edge"><title>github.com/supermuesli/csdl@examples/StorageRequirement.py@latest&#45;&gt;github.com/supermuesli/csdl@misc/dataTransfer/Out.py@latest</title>
<path fill="none" stroke="red" d="M355.481,-189.969C416.08,-178.398 499.206,-163.369 572.852,-153 604.471,-148.548 638.353,-144.502 670.857,-140.975"/>
<polygon fill="red" stroke="red" points="671.327,-144.444 680.896,-139.897 670.579,-137.484 671.327,-144.444"/>
</g>
<!-- github.com/supermuesli/csdl@misc/requests/GETAmount.py@latest -->
<g id="node9" class="node"><title>github.com/supermuesli/csdl@misc/requests/GETAmount.py@latest</title>
<ellipse fill="none" stroke="black" cx="833.479" cy="-72" rx="256.955" ry="18"/>
<text text-anchor="middle" x="833.479" y="-68.3" font-family="Times,serif" font-size="14.00">github.com/supermuesli/csdl@misc/requests/GETAmount.py@latest</text>
</g>
<!-- github.com/supermuesli/csdl@examples/StorageRequirement.py@latest&#45;&gt;github.com/supermuesli/csdl@misc/requests/GETAmount.py@latest -->
<g id="edge8" class="edge"><title>github.com/supermuesli/csdl@examples/StorageRequirement.py@latest&#45;&gt;github.com/supermuesli/csdl@misc/requests/GETAmount.py@latest</title>
<path fill="none" stroke="red" d="M309.732,-189.156C367.006,-164.614 475.782,-120.991 572.852,-99 595.674,-93.8298 619.852,-89.6468 643.91,-86.2632"/>
<polygon fill="red" stroke="red" points="644.408,-89.7278 653.844,-84.9096 643.463,-82.7919 644.408,-89.7278"/>
</g>
<!-- github.com/supermuesli/csdl@misc/requests/POSTAmount.py@latest -->
<g id="node10" class="node"><title>github.com/supermuesli/csdl@misc/requests/POSTAmount.py@latest</title>
<ellipse fill="none" stroke="black" cx="833.479" cy="-18" rx="260.754" ry="18"/>
<text text-anchor="middle" x="833.479" y="-14.3" font-family="Times,serif" font-size="14.00">github.com/supermuesli/csdl@misc/requests/POSTAmount.py@latest</text>
</g>
<!-- github.com/supermuesli/csdl@examples/StorageRequirement.py@latest&#45;&gt;github.com/supermuesli/csdl@misc/requests/POSTAmount.py@latest -->
<g id="edge9" class="edge"><title>github.com/supermuesli/csdl@examples/StorageRequirement.py@latest&#45;&gt;github.com/supermuesli/csdl@misc/requests/POSTAmount.py@latest</title>
<path fill="none" stroke="red" d="M294.705,-189.062C344.943,-154.456 462.076,-78.9049 572.852,-45 590.392,-39.6318 608.875,-35.2862 627.565,-31.774"/>
<polygon fill="red" stroke="red" points="628.435,-35.1738 637.658,-29.96 627.197,-28.2842 628.435,-35.1738"/>
</g>
<!-- PricingModel -->
<g id="node3" class="node"><title>PricingModel</title>
<ellipse fill="none" stroke="black" cx="1189.9" cy="-396" rx="59.5901" ry="18"/>
<text text-anchor="middle" x="1189.9" y="-392.3" font-family="Times,serif" font-size="14.00">PricingModel</text>
</g>
<!-- Price&#45;&gt;PricingModel -->
<g id="edge2" class="edge"><title>Price&#45;&gt;PricingModel</title>
<path fill="none" stroke="red" d="M862.29,-396C917.264,-396 1041.29,-396 1119.7,-396"/>
<polygon fill="red" stroke="red" points="1119.98,-399.5 1129.98,-396 1119.98,-392.5 1119.98,-399.5"/>
</g>
</g>
</svg>
