<?xml version="1.0" encoding="UTF-8" standalone="no"?>
<!DOCTYPE svg PUBLIC "-//W3C//DTD SVG 1.1//EN"
 "http://www.w3.org/Graphics/SVG/1.1/DTD/svg11.dtd">
<!-- Generated by graphviz version 2.38.0 (20140413.2041)
 -->
<!-- Title: %3 Pages: 1 -->
<svg width="1258pt" height="476pt"
 viewBox="0.00 0.00 1257.70 476.00" xmlns="http://www.w3.org/2000/svg" xmlns:xlink="http://www.w3.org/1999/xlink">
<g id="graph0" class="graph" transform="scale(1 1) rotate(0) translate(4 472)">
<title>%3</title>
<polygon fill="white" stroke="none" points="-4,4 -4,-472 1253.7,-472 1253.7,4 -4,4"/>
<!-- github.com/supermuesli/csdl@examples/StorageRequirement.py@latest -->
<g id="node1" class="node"><title>github.com/supermuesli/csdl@examples/StorageRequirement.py@latest</title>
<ellipse fill="none" stroke="black" cx="268.426" cy="-234" rx="268.352" ry="18"/>
<text text-anchor="middle" x="268.426" y="-230.3" font-family="Times,serif" font-size="14.00">github.com/supermuesli/csdl@examples/StorageRequirement.py@latest</text>
</g>
<!-- Price -->
<g id="node2" class="node"><title>Price</title>
<ellipse fill="none" stroke="black" cx="833.479" cy="-450" rx="28.6953" ry="18"/>
<text text-anchor="middle" x="833.479" y="-446.3" font-family="Times,serif" font-size="14.00">Price</text>
</g>
<!-- github.com/supermuesli/csdl@examples/StorageRequirement.py@latest&#45;&gt;Price -->
<g id="edge1" class="edge"><title>github.com/supermuesli/csdl@examples/StorageRequirement.py@latest&#45;&gt;Price</title>
<path fill="none" stroke="red" d="M290.48,-251.979C337.48,-290.955 456.028,-382.939 572.852,-423 648.448,-448.923 743.096,-451.944 794.674,-451.314"/>
<polygon fill="red" stroke="red" points="794.764,-454.813 804.701,-451.138 794.641,-447.814 794.764,-454.813"/>
</g>
<!-- Region -->
<g id="node4" class="node"><title>Region</title>
<ellipse fill="none" stroke="black" cx="833.479" cy="-396" rx="36.2938" ry="18"/>
<text text-anchor="middle" x="833.479" y="-392.3" font-family="Times,serif" font-size="14.00">Region</text>
</g>
<!-- github.com/supermuesli/csdl@examples/StorageRequirement.py@latest&#45;&gt;Region -->
<g id="edge3" class="edge"><title>github.com/supermuesli/csdl@examples/StorageRequirement.py@latest&#45;&gt;Region</title>
<path fill="none" stroke="red" d="M300.971,-252.069C354.798,-281.961 468.689,-341.165 572.852,-369 645.964,-388.537 734.169,-394.074 786.665,-395.563"/>
<polygon fill="red" stroke="red" points="786.907,-399.07 796.99,-395.816 787.079,-392.072 786.907,-399.07"/>
</g>
<!-- Storage -->
<g id="node5" class="node"><title>Storage</title>
<ellipse fill="none" stroke="black" cx="833.479" cy="-342" rx="37.8943" ry="18"/>
<text text-anchor="middle" x="833.479" y="-338.3" font-family="Times,serif" font-size="14.00">Storage</text>
</g>
<!-- github.com/supermuesli/csdl@examples/StorageRequirement.py@latest&#45;&gt;Storage -->
<g id="edge4" class="edge"><title>github.com/supermuesli/csdl@examples/StorageRequirement.py@latest&#45;&gt;Storage</title>
<path fill="none" stroke="red" d="M325.028,-251.67C385.426,-270.197 485.05,-298.819 572.852,-315 646.443,-328.562 733.116,-335.862 785.377,-339.335"/>
<polygon fill="red" stroke="red" points="785.469,-342.849 795.673,-340 785.92,-335.863 785.469,-342.849"/>
</g>
<!-- StorageWriteSpeed -->
<g id="node6" class="node"><title>StorageWriteSpeed</title>
<ellipse fill="none" stroke="black" cx="833.479" cy="-288" rx="79.0865" ry="18"/>
<text text-anchor="middle" x="833.479" y="-284.3" font-family="Times,serif" font-size="14.00">StorageWriteSpeed</text>
</g>
<!-- github.com/supermuesli/csdl@examples/StorageRequirement.py@latest&#45;&gt;StorageWriteSpeed -->
<g id="edge5" class="edge"><title>github.com/supermuesli/csdl@examples/StorageRequirement.py@latest&#45;&gt;StorageWriteSpeed</title>
<path fill="none" stroke="red" d="M423.283,-248.756C528.725,-258.868 664.482,-271.888 750.024,-280.092"/>
<polygon fill="red" stroke="red" points="749.914,-283.597 760.202,-281.068 750.582,-276.629 749.914,-283.597"/>
</g>
<!-- StorageReadSpeed -->
<g id="node7" class="node"><title>StorageReadSpeed</title>
<ellipse fill="none" stroke="black" cx="833.479" cy="-234" rx="77.1866" ry="18"/>
<text text-anchor="middle" x="833.479" y="-230.3" font-family="Times,serif" font-size="14.00">StorageReadSpeed</text>
</g>
<!-- github.com/supermuesli/csdl@examples/StorageRequirement.py@latest&#45;&gt;StorageReadSpeed -->
<g id="edge6" class="edge"><title>github.com/supermuesli/csdl@examples/StorageRequirement.py@latest&#45;&gt;StorageReadSpeed</title>
<path fill="none" stroke="red" d="M536.937,-234C612.397,-234 689.204,-234 745.599,-234"/>
<polygon fill="red" stroke="red" points="745.887,-237.5 755.887,-234 745.887,-230.5 745.887,-237.5"/>
</g>
<!-- github.com/supermuesli/csdl@misc/dataTransfer/Out.py@latest -->
<g id="node8" class="node"><title>github.com/supermuesli/csdl@misc/dataTransfer/Out.py@latest</title>
<ellipse fill="none" stroke="black" cx="833.479" cy="-180" rx="239.358" ry="18"/>
<text text-anchor="middle" x="833.479" y="-176.3" font-family="Times,serif" font-size="14.00">github.com/supermuesli/csdl@misc/dataTransfer/Out.py@latest</text>
</g>
<!-- github.com/supermuesli/csdl@examples/StorageRequirement.py@latest&#45;&gt;github.com/supermuesli/csdl@misc/dataTransfer/Out.py@latest -->
<g id="edge7" class="edge"><title>github.com/supermuesli/csdl@examples/StorageRequirement.py@latest&#45;&gt;github.com/supermuesli/csdl@misc/dataTransfer/Out.py@latest</title>
<path fill="none" stroke="red" d="M423.283,-219.244C501.501,-211.743 596.402,-202.641 675.111,-195.093"/>
<polygon fill="red" stroke="red" points="675.498,-198.572 685.118,-194.133 674.83,-191.604 675.498,-198.572"/>
</g>
<!-- github.com/supermuesli/csdl@aws/s3/S3Type.py@latest -->
<g id="node9" class="node"><title>github.com/supermuesli/csdl@aws/s3/S3Type.py@latest</title>
<ellipse fill="none" stroke="black" cx="833.479" cy="-126" rx="213.362" ry="18"/>
<text text-anchor="middle" x="833.479" y="-122.3" font-family="Times,serif" font-size="14.00">github.com/supermuesli/csdl@aws/s3/S3Type.py@latest</text>
</g>
<!-- github.com/supermuesli/csdl@examples/StorageRequirement.py@latest&#45;&gt;github.com/supermuesli/csdl@aws/s3/S3Type.py@latest -->
<g id="edge8" class="edge"><title>github.com/supermuesli/csdl@examples/StorageRequirement.py@latest&#45;&gt;github.com/supermuesli/csdl@aws/s3/S3Type.py@latest</title>
<path fill="none" stroke="red" d="M325.028,-216.33C385.426,-197.803 485.05,-169.181 572.852,-153 602.913,-147.46 635.156,-142.965 666.345,-139.349"/>
<polygon fill="red" stroke="red" points="666.888,-142.81 676.43,-138.206 666.1,-135.855 666.888,-142.81"/>
</g>
<!-- github.com/supermuesli/csdl@misc/requests/GETAmount.py@latest -->
<g id="node10" class="node"><title>github.com/supermuesli/csdl@misc/requests/GETAmount.py@latest</title>
<ellipse fill="none" stroke="black" cx="833.479" cy="-72" rx="256.955" ry="18"/>
<text text-anchor="middle" x="833.479" y="-68.3" font-family="Times,serif" font-size="14.00">github.com/supermuesli/csdl@misc/requests/GETAmount.py@latest</text>
</g>
<!-- github.com/supermuesli/csdl@examples/StorageRequirement.py@latest&#45;&gt;github.com/supermuesli/csdl@misc/requests/GETAmount.py@latest -->
<g id="edge9" class="edge"><title>github.com/supermuesli/csdl@examples/StorageRequirement.py@latest&#45;&gt;github.com/supermuesli/csdl@misc/requests/GETAmount.py@latest</title>
<path fill="none" stroke="red" d="M300.971,-215.931C354.798,-186.039 468.689,-126.835 572.852,-99 592.884,-93.6471 614.048,-89.3452 635.301,-85.8895"/>
<polygon fill="red" stroke="red" points="636.061,-89.3132 645.401,-84.3105 634.98,-82.3972 636.061,-89.3132"/>
</g>
<!-- github.com/supermuesli/csdl@misc/requests/POSTAmount.py@latest -->
<g id="node11" class="node"><title>github.com/supermuesli/csdl@misc/requests/POSTAmount.py@latest</title>
<ellipse fill="none" stroke="black" cx="833.479" cy="-18" rx="260.754" ry="18"/>
<text text-anchor="middle" x="833.479" y="-14.3" font-family="Times,serif" font-size="14.00">github.com/supermuesli/csdl@misc/requests/POSTAmount.py@latest</text>
</g>
<!-- github.com/supermuesli/csdl@examples/StorageRequirement.py@latest&#45;&gt;github.com/supermuesli/csdl@misc/requests/POSTAmount.py@latest -->
<g id="edge10" class="edge"><title>github.com/supermuesli/csdl@examples/StorageRequirement.py@latest&#45;&gt;github.com/supermuesli/csdl@misc/requests/POSTAmount.py@latest</title>
<path fill="none" stroke="red" d="M290.48,-216.021C337.48,-177.045 456.028,-85.0611 572.852,-45 588.709,-39.5625 605.404,-35.1327 622.363,-31.5328"/>
<polygon fill="red" stroke="red" points="623.268,-34.9209 632.375,-29.5079 621.88,-28.0598 623.268,-34.9209"/>
</g>
<!-- PricingModel -->
<g id="node3" class="node"><title>PricingModel</title>
<ellipse fill="none" stroke="black" cx="1189.9" cy="-450" rx="59.5901" ry="18"/>
<text text-anchor="middle" x="1189.9" y="-446.3" font-family="Times,serif" font-size="14.00">PricingModel</text>
</g>
<!-- Price&#45;&gt;PricingModel -->
<g id="edge2" class="edge"><title>Price&#45;&gt;PricingModel</title>
<path fill="none" stroke="red" d="M862.29,-450C917.264,-450 1041.29,-450 1119.7,-450"/>
<polygon fill="red" stroke="red" points="1119.98,-453.5 1129.98,-450 1119.98,-446.5 1119.98,-453.5"/>
</g>
</g>
</svg>
