<?xml version="1.0" encoding="UTF-8" standalone="no"?>
<!DOCTYPE svg PUBLIC "-//W3C//DTD SVG 1.1//EN"
 "http://www.w3.org/Graphics/SVG/1.1/DTD/svg11.dtd">
<!-- Generated by graphviz version 2.38.0 (20140413.2041)
 -->
<!-- Title: %3 Pages: 1 -->
<svg width="1280pt" height="746pt"
 viewBox="0.00 0.00 1279.79 746.00" xmlns="http://www.w3.org/2000/svg" xmlns:xlink="http://www.w3.org/1999/xlink">
<g id="graph0" class="graph" transform="scale(1 1) rotate(0) translate(4 742)">
<title>%3</title>
<polygon fill="white" stroke="none" points="-4,4 -4,-742 1275.79,-742 1275.79,4 -4,4"/>
<!-- github.com/supermuesli/csdl@examples/StorageRequirement.py@latest -->
<g id="node1" class="node"><title>github.com/supermuesli/csdl@examples/StorageRequirement.py@latest</title>
<ellipse fill="none" stroke="black" cx="268.426" cy="-369" rx="268.352" ry="18"/>
<text text-anchor="middle" x="268.426" y="-365.3" font-family="Times,serif" font-size="14.00">github.com/supermuesli/csdl@examples/StorageRequirement.py@latest</text>
</g>
<!-- Price -->
<g id="node2" class="node"><title>Price</title>
<ellipse fill="none" stroke="black" cx="844.528" cy="-720" rx="28.6953" ry="18"/>
<text text-anchor="middle" x="844.528" y="-716.3" font-family="Times,serif" font-size="14.00">Price</text>
</g>
<!-- github.com/supermuesli/csdl@examples/StorageRequirement.py@latest&#45;&gt;Price -->
<g id="edge1" class="edge"><title>github.com/supermuesli/csdl@examples/StorageRequirement.py@latest&#45;&gt;Price</title>
<path fill="none" stroke="red" d="M279.776,-387.2C313.357,-444.281 425.679,-620.303 572.852,-693 648.869,-730.549 751.388,-728.711 805.851,-724.263"/>
<polygon fill="red" stroke="red" points="806.432,-727.725 816.081,-723.349 805.809,-720.753 806.432,-727.725"/>
</g>
<!-- Region -->
<g id="node4" class="node"><title>Region</title>
<ellipse fill="none" stroke="black" cx="844.528" cy="-666" rx="36.2938" ry="18"/>
<text text-anchor="middle" x="844.528" y="-662.3" font-family="Times,serif" font-size="14.00">Region</text>
</g>
<!-- github.com/supermuesli/csdl@examples/StorageRequirement.py@latest&#45;&gt;Region -->
<g id="edge3" class="edge"><title>github.com/supermuesli/csdl@examples/StorageRequirement.py@latest&#45;&gt;Region</title>
<path fill="none" stroke="red" d="M282.705,-386.975C321.055,-437.306 437.886,-579.81 572.852,-639 646.8,-671.43 742.713,-672.585 798.263,-669.775"/>
<polygon fill="red" stroke="red" points="798.701,-673.256 808.484,-669.189 798.3,-666.267 798.701,-673.256"/>
</g>
<!-- Storage -->
<g id="node5" class="node"><title>Storage</title>
<ellipse fill="none" stroke="black" cx="844.528" cy="-612" rx="37.8943" ry="18"/>
<text text-anchor="middle" x="844.528" y="-608.3" font-family="Times,serif" font-size="14.00">Storage</text>
</g>
<!-- github.com/supermuesli/csdl@examples/StorageRequirement.py@latest&#45;&gt;Storage -->
<g id="edge4" class="edge"><title>github.com/supermuesli/csdl@examples/StorageRequirement.py@latest&#45;&gt;Storage</title>
<path fill="none" stroke="red" d="M287.255,-387.01C331.172,-430.082 449.957,-538.877 572.852,-585 647.412,-612.982 741.193,-615.815 796.52,-614.49"/>
<polygon fill="red" stroke="red" points="796.831,-617.982 806.723,-614.187 796.623,-610.985 796.831,-617.982"/>
</g>
<!-- StorageWriteSpeed -->
<g id="node6" class="node"><title>StorageWriteSpeed</title>
<ellipse fill="none" stroke="black" cx="844.528" cy="-558" rx="79.0865" ry="18"/>
<text text-anchor="middle" x="844.528" y="-554.3" font-family="Times,serif" font-size="14.00">StorageWriteSpeed</text>
</g>
<!-- github.com/supermuesli/csdl@examples/StorageRequirement.py@latest&#45;&gt;StorageWriteSpeed -->
<g id="edge5" class="edge"><title>github.com/supermuesli/csdl@examples/StorageRequirement.py@latest&#45;&gt;StorageWriteSpeed</title>
<path fill="none" stroke="red" d="M294.693,-386.979C344.909,-421.657 462.005,-497.328 572.852,-531 631.859,-548.924 701.096,-555.588 754.774,-557.815"/>
<polygon fill="red" stroke="red" points="754.829,-561.319 764.952,-558.192 755.088,-554.324 754.829,-561.319"/>
</g>
<!-- StorageReadSpeed -->
<g id="node7" class="node"><title>StorageReadSpeed</title>
<ellipse fill="none" stroke="black" cx="844.528" cy="-504" rx="77.1866" ry="18"/>
<text text-anchor="middle" x="844.528" y="-500.3" font-family="Times,serif" font-size="14.00">StorageReadSpeed</text>
</g>
<!-- github.com/supermuesli/csdl@examples/StorageRequirement.py@latest&#45;&gt;StorageReadSpeed -->
<g id="edge6" class="edge"><title>github.com/supermuesli/csdl@examples/StorageRequirement.py@latest&#45;&gt;StorageReadSpeed</title>
<path fill="none" stroke="red" d="M309.719,-386.901C366.978,-411.51 475.737,-455.213 572.852,-477 633.783,-490.669 703.984,-497.421 757.623,-500.755"/>
<polygon fill="red" stroke="red" points="757.59,-504.259 767.78,-501.357 758.005,-497.271 757.59,-504.259"/>
</g>
<!-- github.com/supermuesli/csdl@misc/dataTransfer/In.py@latest -->
<g id="node8" class="node"><title>github.com/supermuesli/csdl@misc/dataTransfer/In.py@latest</title>
<ellipse fill="none" stroke="black" cx="844.528" cy="-450" rx="233.159" ry="18"/>
<text text-anchor="middle" x="844.528" y="-446.3" font-family="Times,serif" font-size="14.00">github.com/supermuesli/csdl@misc/dataTransfer/In.py@latest</text>
</g>
<!-- github.com/supermuesli/csdl@examples/StorageRequirement.py@latest&#45;&gt;github.com/supermuesli/csdl@misc/dataTransfer/In.py@latest -->
<g id="edge7" class="edge"><title>github.com/supermuesli/csdl@examples/StorageRequirement.py@latest&#45;&gt;github.com/supermuesli/csdl@misc/dataTransfer/In.py@latest</title>
<path fill="none" stroke="red" d="M355.141,-386.065C415.761,-397.689 499.051,-412.767 572.852,-423 606.806,-427.708 643.266,-431.916 678.081,-435.531"/>
<polygon fill="red" stroke="red" points="678.034,-439.044 688.339,-436.583 678.749,-432.081 678.034,-439.044"/>
</g>
<!-- github.com/supermuesli/csdl@misc/dataTransfer/Out.py@latest -->
<g id="node9" class="node"><title>github.com/supermuesli/csdl@misc/dataTransfer/Out.py@latest</title>
<ellipse fill="none" stroke="black" cx="844.528" cy="-396" rx="239.358" ry="18"/>
<text text-anchor="middle" x="844.528" y="-392.3" font-family="Times,serif" font-size="14.00">github.com/supermuesli/csdl@misc/dataTransfer/Out.py@latest</text>
</g>
<!-- github.com/supermuesli/csdl@examples/StorageRequirement.py@latest&#45;&gt;github.com/supermuesli/csdl@misc/dataTransfer/Out.py@latest -->
<g id="edge8" class="edge"><title>github.com/supermuesli/csdl@examples/StorageRequirement.py@latest&#45;&gt;github.com/supermuesli/csdl@misc/dataTransfer/Out.py@latest</title>
<path fill="none" stroke="red" d="M488.927,-379.323C535.522,-381.514 584.635,-383.824 630.966,-386.003"/>
<polygon fill="red" stroke="red" points="630.965,-389.507 641.118,-386.481 631.294,-382.515 630.965,-389.507"/>
</g>
<!-- github.com/supermuesli/csdl@aws/s3/S3Type.py@latest -->
<g id="node10" class="node"><title>github.com/supermuesli/csdl@aws/s3/S3Type.py@latest</title>
<ellipse fill="none" stroke="black" cx="844.528" cy="-342" rx="213.362" ry="18"/>
<text text-anchor="middle" x="844.528" y="-338.3" font-family="Times,serif" font-size="14.00">github.com/supermuesli/csdl@aws/s3/S3Type.py@latest</text>
</g>
<!-- github.com/supermuesli/csdl@examples/StorageRequirement.py@latest&#45;&gt;github.com/supermuesli/csdl@aws/s3/S3Type.py@latest -->
<g id="edge9" class="edge"><title>github.com/supermuesli/csdl@examples/StorageRequirement.py@latest&#45;&gt;github.com/supermuesli/csdl@aws/s3/S3Type.py@latest</title>
<path fill="none" stroke="red" d="M488.927,-358.677C541.157,-356.221 596.55,-353.615 647.644,-351.212"/>
<polygon fill="red" stroke="red" points="647.978,-354.701 657.803,-350.735 647.649,-347.708 647.978,-354.701"/>
</g>
<!-- github.com/supermuesli/csdl@misc/requests/PUTAmount.py@latest -->
<g id="node11" class="node"><title>github.com/supermuesli/csdl@misc/requests/PUTAmount.py@latest</title>
<ellipse fill="none" stroke="black" cx="844.528" cy="-288" rx="256.155" ry="18"/>
<text text-anchor="middle" x="844.528" y="-284.3" font-family="Times,serif" font-size="14.00">github.com/supermuesli/csdl@misc/requests/PUTAmount.py@latest</text>
</g>
<!-- github.com/supermuesli/csdl@examples/StorageRequirement.py@latest&#45;&gt;github.com/supermuesli/csdl@misc/requests/PUTAmount.py@latest -->
<g id="edge10" class="edge"><title>github.com/supermuesli/csdl@examples/StorageRequirement.py@latest&#45;&gt;github.com/supermuesli/csdl@misc/requests/PUTAmount.py@latest</title>
<path fill="none" stroke="red" d="M355.141,-351.935C415.761,-340.311 499.051,-325.233 572.852,-315 604.965,-310.548 639.319,-306.542 672.403,-303.063"/>
<polygon fill="red" stroke="red" points="673.041,-306.515 682.626,-302 672.317,-299.553 673.041,-306.515"/>
</g>
<!-- github.com/supermuesli/csdl@misc/requests/COPYAmount.py@latest -->
<g id="node12" class="node"><title>github.com/supermuesli/csdl@misc/requests/COPYAmount.py@latest</title>
<ellipse fill="none" stroke="black" cx="844.528" cy="-234" rx="262.653" ry="18"/>
<text text-anchor="middle" x="844.528" y="-230.3" font-family="Times,serif" font-size="14.00">github.com/supermuesli/csdl@misc/requests/COPYAmount.py@latest</text>
</g>
<!-- github.com/supermuesli/csdl@examples/StorageRequirement.py@latest&#45;&gt;github.com/supermuesli/csdl@misc/requests/COPYAmount.py@latest -->
<g id="edge11" class="edge"><title>github.com/supermuesli/csdl@examples/StorageRequirement.py@latest&#45;&gt;github.com/supermuesli/csdl@misc/requests/COPYAmount.py@latest</title>
<path fill="none" stroke="red" d="M309.719,-351.099C366.978,-326.49 475.737,-282.787 572.852,-261 596.65,-255.661 621.862,-251.378 646.949,-247.941"/>
<polygon fill="red" stroke="red" points="647.477,-251.401 656.929,-246.616 646.556,-244.462 647.477,-251.401"/>
</g>
<!-- github.com/supermuesli/csdl@misc/requests/LISTAmount.py@latest -->
<g id="node13" class="node"><title>github.com/supermuesli/csdl@misc/requests/LISTAmount.py@latest</title>
<ellipse fill="none" stroke="black" cx="844.528" cy="-180" rx="258.054" ry="18"/>
<text text-anchor="middle" x="844.528" y="-176.3" font-family="Times,serif" font-size="14.00">github.com/supermuesli/csdl@misc/requests/LISTAmount.py@latest</text>
</g>
<!-- github.com/supermuesli/csdl@examples/StorageRequirement.py@latest&#45;&gt;github.com/supermuesli/csdl@misc/requests/LISTAmount.py@latest -->
<g id="edge12" class="edge"><title>github.com/supermuesli/csdl@examples/StorageRequirement.py@latest&#45;&gt;github.com/supermuesli/csdl@misc/requests/LISTAmount.py@latest</title>
<path fill="none" stroke="red" d="M294.693,-351.021C344.909,-316.343 462.005,-240.672 572.852,-207 591.88,-201.22 611.972,-196.611 632.263,-192.944"/>
<polygon fill="red" stroke="red" points="632.979,-196.372 642.236,-191.218 631.786,-189.475 632.979,-196.372"/>
</g>
<!-- github.com/supermuesli/csdl@misc/requests/GETAmount.py@latest -->
<g id="node14" class="node"><title>github.com/supermuesli/csdl@misc/requests/GETAmount.py@latest</title>
<ellipse fill="none" stroke="black" cx="844.528" cy="-126" rx="256.955" ry="18"/>
<text text-anchor="middle" x="844.528" y="-122.3" font-family="Times,serif" font-size="14.00">github.com/supermuesli/csdl@misc/requests/GETAmount.py@latest</text>
</g>
<!-- github.com/supermuesli/csdl@examples/StorageRequirement.py@latest&#45;&gt;github.com/supermuesli/csdl@misc/requests/GETAmount.py@latest -->
<g id="edge13" class="edge"><title>github.com/supermuesli/csdl@examples/StorageRequirement.py@latest&#45;&gt;github.com/supermuesli/csdl@misc/requests/GETAmount.py@latest</title>
<path fill="none" stroke="red" d="M287.255,-350.99C331.172,-307.918 449.957,-199.123 572.852,-153 588.653,-147.07 605.317,-142.27 622.295,-138.399"/>
<polygon fill="red" stroke="red" points="623.292,-141.764 632.324,-136.225 621.809,-134.923 623.292,-141.764"/>
</g>
<!-- github.com/supermuesli/csdl@misc/requests/SELECTAmount.py@latest -->
<g id="node15" class="node"><title>github.com/supermuesli/csdl@misc/requests/SELECTAmount.py@latest</title>
<ellipse fill="none" stroke="black" cx="844.528" cy="-72" rx="271.852" ry="18"/>
<text text-anchor="middle" x="844.528" y="-68.3" font-family="Times,serif" font-size="14.00">github.com/supermuesli/csdl@misc/requests/SELECTAmount.py@latest</text>
</g>
<!-- github.com/supermuesli/csdl@examples/StorageRequirement.py@latest&#45;&gt;github.com/supermuesli/csdl@misc/requests/SELECTAmount.py@latest -->
<g id="edge14" class="edge"><title>github.com/supermuesli/csdl@examples/StorageRequirement.py@latest&#45;&gt;github.com/supermuesli/csdl@misc/requests/SELECTAmount.py@latest</title>
<path fill="none" stroke="red" d="M282.705,-351.025C321.055,-300.694 437.886,-158.19 572.852,-99 585.381,-93.5054 598.54,-88.9086 612.027,-85.0768"/>
<polygon fill="red" stroke="red" points="613.154,-88.3982 621.901,-82.42 611.335,-81.6386 613.154,-88.3982"/>
</g>
<!-- github.com/supermuesli/csdl@misc/requests/POSTAmount.py@latest -->
<g id="node16" class="node"><title>github.com/supermuesli/csdl@misc/requests/POSTAmount.py@latest</title>
<ellipse fill="none" stroke="black" cx="844.528" cy="-18" rx="260.754" ry="18"/>
<text text-anchor="middle" x="844.528" y="-14.3" font-family="Times,serif" font-size="14.00">github.com/supermuesli/csdl@misc/requests/POSTAmount.py@latest</text>
</g>
<!-- github.com/supermuesli/csdl@examples/StorageRequirement.py@latest&#45;&gt;github.com/supermuesli/csdl@misc/requests/POSTAmount.py@latest -->
<g id="edge15" class="edge"><title>github.com/supermuesli/csdl@examples/StorageRequirement.py@latest&#45;&gt;github.com/supermuesli/csdl@misc/requests/POSTAmount.py@latest</title>
<path fill="none" stroke="red" d="M279.776,-350.8C313.357,-293.719 425.679,-117.697 572.852,-45 584.746,-39.125 597.289,-34.2143 610.194,-30.1269"/>
<polygon fill="red" stroke="red" points="611.549,-33.375 620.129,-27.1593 609.546,-26.6678 611.549,-33.375"/>
</g>
<!-- PricingModel -->
<g id="node3" class="node"><title>PricingModel</title>
<ellipse fill="none" stroke="black" cx="1212" cy="-720" rx="59.5901" ry="18"/>
<text text-anchor="middle" x="1212" y="-716.3" font-family="Times,serif" font-size="14.00">PricingModel</text>
</g>
<!-- Price&#45;&gt;PricingModel -->
<g id="edge2" class="edge"><title>Price&#45;&gt;PricingModel</title>
<path fill="none" stroke="red" d="M873.298,-720C930.008,-720 1060.61,-720 1141.76,-720"/>
<polygon fill="red" stroke="red" points="1141.89,-723.5 1151.89,-720 1141.89,-716.5 1141.89,-723.5"/>
</g>
</g>
</svg>
