<?xml version="1.0" encoding="UTF-8" standalone="no"?>
<!DOCTYPE svg PUBLIC "-//W3C//DTD SVG 1.1//EN"
 "http://www.w3.org/Graphics/SVG/1.1/DTD/svg11.dtd">
<!-- Generated by graphviz version 2.38.0 (20140413.2041)
 -->
<!-- Title: %3 Pages: 1 -->
<svg width="1195pt" height="260pt"
 viewBox="0.00 0.00 1195.30 260.00" xmlns="http://www.w3.org/2000/svg" xmlns:xlink="http://www.w3.org/1999/xlink">
<g id="graph0" class="graph" transform="scale(1 1) rotate(0) translate(4 256)">
<title>%3</title>
<polygon fill="white" stroke="none" points="-4,4 -4,-256 1191.3,-256 1191.3,4 -4,4"/>
<!-- github.com/supermuesli/csdl@examples/StorageRequirement.py@latest -->
<g id="node1" class="node"><title>github.com/supermuesli/csdl@examples/StorageRequirement.py@latest</title>
<ellipse fill="none" stroke="black" cx="268.426" cy="-126" rx="268.352" ry="18"/>
<text text-anchor="middle" x="268.426" y="-122.3" font-family="Times,serif" font-size="14.00">github.com/supermuesli/csdl@examples/StorageRequirement.py@latest</text>
</g>
<!-- Price -->
<g id="node2" class="node"><title>Price</title>
<ellipse fill="none" stroke="black" cx="802.282" cy="-234" rx="28.6953" ry="18"/>
<text text-anchor="middle" x="802.282" y="-230.3" font-family="Times,serif" font-size="14.00">Price</text>
</g>
<!-- github.com/supermuesli/csdl@examples/StorageRequirement.py@latest&#45;&gt;Price -->
<g id="edge1" class="edge"><title>github.com/supermuesli/csdl@examples/StorageRequirement.py@latest&#45;&gt;Price</title>
<path fill="none" stroke="red" d="M325.628,-143.599C386.118,-161.927 485.433,-190.255 572.852,-207 639.44,-219.755 718.174,-227.467 763.658,-231.215"/>
<polygon fill="red" stroke="red" points="763.412,-234.707 773.66,-232.02 763.973,-227.729 763.412,-234.707"/>
</g>
<!-- github.com/supermuesli/csdl@aws/regions/Region.py@latest -->
<g id="node4" class="node"><title>github.com/supermuesli/csdl@aws/regions/Region.py@latest</title>
<ellipse fill="none" stroke="black" cx="802.282" cy="-180" rx="229.359" ry="18"/>
<text text-anchor="middle" x="802.282" y="-176.3" font-family="Times,serif" font-size="14.00">github.com/supermuesli/csdl@aws/regions/Region.py@latest</text>
</g>
<!-- github.com/supermuesli/csdl@examples/StorageRequirement.py@latest&#45;&gt;github.com/supermuesli/csdl@aws/regions/Region.py@latest -->
<g id="edge3" class="edge"><title>github.com/supermuesli/csdl@examples/StorageRequirement.py@latest&#45;&gt;github.com/supermuesli/csdl@aws/regions/Region.py@latest</title>
<path fill="none" stroke="red" d="M417.224,-141.006C490.034,-148.399 577.671,-157.296 650.835,-164.725"/>
<polygon fill="red" stroke="red" points="650.757,-168.235 661.06,-165.763 651.464,-161.271 650.757,-168.235"/>
</g>
<!-- Storage -->
<g id="node5" class="node"><title>Storage</title>
<ellipse fill="none" stroke="black" cx="802.282" cy="-126" rx="37.8943" ry="18"/>
<text text-anchor="middle" x="802.282" y="-122.3" font-family="Times,serif" font-size="14.00">Storage</text>
</g>
<!-- github.com/supermuesli/csdl@examples/StorageRequirement.py@latest&#45;&gt;Storage -->
<g id="edge4" class="edge"><title>github.com/supermuesli/csdl@examples/StorageRequirement.py@latest&#45;&gt;Storage</title>
<path fill="none" stroke="red" d="M536.912,-126C620.712,-126 704.306,-126 754.406,-126"/>
<polygon fill="red" stroke="red" points="754.576,-129.5 764.576,-126 754.576,-122.5 754.576,-129.5"/>
</g>
<!-- StorageWriteSpeed -->
<g id="node6" class="node"><title>StorageWriteSpeed</title>
<ellipse fill="none" stroke="black" cx="802.282" cy="-72" rx="79.0865" ry="18"/>
<text text-anchor="middle" x="802.282" y="-68.3" font-family="Times,serif" font-size="14.00">StorageWriteSpeed</text>
</g>
<!-- github.com/supermuesli/csdl@examples/StorageRequirement.py@latest&#45;&gt;StorageWriteSpeed -->
<g id="edge5" class="edge"><title>github.com/supermuesli/csdl@examples/StorageRequirement.py@latest&#45;&gt;StorageWriteSpeed</title>
<path fill="none" stroke="red" d="M417.224,-110.994C514.799,-101.087 639.004,-88.4763 719.315,-80.3222"/>
<polygon fill="red" stroke="red" points="719.778,-83.7932 729.374,-79.3009 719.071,-76.829 719.778,-83.7932"/>
</g>
<!-- StorageReadSpeed -->
<g id="node7" class="node"><title>StorageReadSpeed</title>
<ellipse fill="none" stroke="black" cx="802.282" cy="-18" rx="77.1866" ry="18"/>
<text text-anchor="middle" x="802.282" y="-14.3" font-family="Times,serif" font-size="14.00">StorageReadSpeed</text>
</g>
<!-- github.com/supermuesli/csdl@examples/StorageRequirement.py@latest&#45;&gt;StorageReadSpeed -->
<g id="edge6" class="edge"><title>github.com/supermuesli/csdl@examples/StorageRequirement.py@latest&#45;&gt;StorageReadSpeed</title>
<path fill="none" stroke="red" d="M325.628,-108.401C386.118,-90.073 485.433,-61.7454 572.852,-45 620.974,-35.7822 675.439,-29.1982 719.114,-24.8406"/>
<polygon fill="red" stroke="red" points="719.503,-28.3193 729.115,-23.8627 718.822,-21.3525 719.503,-28.3193"/>
</g>
<!-- PricingModel -->
<g id="node3" class="node"><title>PricingModel</title>
<ellipse fill="none" stroke="black" cx="1127.51" cy="-234" rx="59.5901" ry="18"/>
<text text-anchor="middle" x="1127.51" y="-230.3" font-family="Times,serif" font-size="14.00">PricingModel</text>
</g>
<!-- Price&#45;&gt;PricingModel -->
<g id="edge2" class="edge"><title>Price&#45;&gt;PricingModel</title>
<path fill="none" stroke="red" d="M831.12,-234C880.962,-234 986.812,-234 1057.32,-234"/>
<polygon fill="red" stroke="red" points="1057.45,-237.5 1067.45,-234 1057.45,-230.5 1057.45,-237.5"/>
</g>
</g>
</svg>
