<?xml version="1.0" encoding="UTF-8" standalone="no"?>
<!DOCTYPE svg PUBLIC "-//W3C//DTD SVG 1.1//EN"
 "http://www.w3.org/Graphics/SVG/1.1/DTD/svg11.dtd">
<!-- Generated by graphviz version 2.38.0 (20140413.2041)
 -->
<!-- Title: %3 Pages: 1 -->
<svg width="1215pt" height="422pt"
 viewBox="0.00 0.00 1214.80 422.00" xmlns="http://www.w3.org/2000/svg" xmlns:xlink="http://www.w3.org/1999/xlink">
<g id="graph0" class="graph" transform="scale(1 1) rotate(0) translate(4 418)">
<title>%3</title>
<polygon fill="white" stroke="none" points="-4,4 -4,-418 1210.8,-418 1210.8,4 -4,4"/>
<!-- github.com/supermuesli/csdl@examples/StorageRequirement.py@latest -->
<g id="node1" class="node"><title>github.com/supermuesli/csdl@examples/StorageRequirement.py@latest</title>
<ellipse fill="none" stroke="black" cx="268.426" cy="-207" rx="268.352" ry="18"/>
<text text-anchor="middle" x="268.426" y="-203.3" font-family="Times,serif" font-size="14.00">github.com/supermuesli/csdl@examples/StorageRequirement.py@latest</text>
</g>
<!-- Price -->
<g id="node2" class="node"><title>Price</title>
<ellipse fill="none" stroke="black" cx="812.031" cy="-396" rx="28.6953" ry="18"/>
<text text-anchor="middle" x="812.031" y="-392.3" font-family="Times,serif" font-size="14.00">Price</text>
</g>
<!-- github.com/supermuesli/csdl@examples/StorageRequirement.py@latest&#45;&gt;Price -->
<g id="edge1" class="edge"><title>github.com/supermuesli/csdl@examples/StorageRequirement.py@latest&#45;&gt;Price</title>
<path fill="none" stroke="red" d="M295.123,-225.115C345.624,-259.684 462.519,-334.672 572.852,-369 641.196,-390.264 725.215,-395.143 772.998,-396.055"/>
<polygon fill="red" stroke="red" points="773.147,-399.558 783.195,-396.199 773.246,-392.558 773.147,-399.558"/>
</g>
<!-- Region -->
<g id="node4" class="node"><title>Region</title>
<ellipse fill="none" stroke="black" cx="812.031" cy="-342" rx="36.2938" ry="18"/>
<text text-anchor="middle" x="812.031" y="-338.3" font-family="Times,serif" font-size="14.00">Region</text>
</g>
<!-- github.com/supermuesli/csdl@examples/StorageRequirement.py@latest&#45;&gt;Region -->
<g id="edge3" class="edge"><title>github.com/supermuesli/csdl@examples/StorageRequirement.py@latest&#45;&gt;Region</title>
<path fill="none" stroke="red" d="M310.245,-224.925C367.68,-249.356 476.158,-292.623 572.852,-315 638.765,-330.253 717.016,-337.022 765.353,-339.931"/>
<polygon fill="red" stroke="red" points="765.31,-343.434 775.493,-340.511 765.709,-336.446 765.31,-343.434"/>
</g>
<!-- Storage -->
<g id="node5" class="node"><title>Storage</title>
<ellipse fill="none" stroke="black" cx="812.031" cy="-288" rx="37.8943" ry="18"/>
<text text-anchor="middle" x="812.031" y="-284.3" font-family="Times,serif" font-size="14.00">Storage</text>
</g>
<!-- github.com/supermuesli/csdl@examples/StorageRequirement.py@latest&#45;&gt;Storage -->
<g id="edge4" class="edge"><title>github.com/supermuesli/csdl@examples/StorageRequirement.py@latest&#45;&gt;Storage</title>
<path fill="none" stroke="red" d="M356.823,-224.065C417.32,-235.506 499.784,-250.367 572.852,-261 639.226,-270.658 716.433,-278.857 764.523,-283.606"/>
<polygon fill="red" stroke="red" points="764.329,-287.104 774.623,-284.595 765.011,-280.137 764.329,-287.104"/>
</g>
<!-- StorageWriteSpeed -->
<g id="node6" class="node"><title>StorageWriteSpeed</title>
<ellipse fill="none" stroke="black" cx="812.031" cy="-234" rx="79.0865" ry="18"/>
<text text-anchor="middle" x="812.031" y="-230.3" font-family="Times,serif" font-size="14.00">StorageWriteSpeed</text>
</g>
<!-- github.com/supermuesli/csdl@examples/StorageRequirement.py@latest&#45;&gt;StorageWriteSpeed -->
<g id="edge5" class="edge"><title>github.com/supermuesli/csdl@examples/StorageRequirement.py@latest&#45;&gt;StorageWriteSpeed</title>
<path fill="none" stroke="red" d="M484.261,-217.71C568.082,-221.889 659.385,-226.44 724.117,-229.667"/>
<polygon fill="red" stroke="red" points="724.111,-233.171 734.273,-230.173 724.46,-226.18 724.111,-233.171"/>
</g>
<!-- StorageReadSpeed -->
<g id="node7" class="node"><title>StorageReadSpeed</title>
<ellipse fill="none" stroke="black" cx="812.031" cy="-180" rx="77.1866" ry="18"/>
<text text-anchor="middle" x="812.031" y="-176.3" font-family="Times,serif" font-size="14.00">StorageReadSpeed</text>
</g>
<!-- github.com/supermuesli/csdl@examples/StorageRequirement.py@latest&#45;&gt;StorageReadSpeed -->
<g id="edge6" class="edge"><title>github.com/supermuesli/csdl@examples/StorageRequirement.py@latest&#45;&gt;StorageReadSpeed</title>
<path fill="none" stroke="red" d="M484.261,-196.29C568.923,-192.07 661.218,-187.468 726.058,-184.236"/>
<polygon fill="red" stroke="red" points="726.41,-187.723 736.223,-183.729 726.061,-180.732 726.41,-187.723"/>
</g>
<!-- github.com/supermuesli/csdl@misc/dataTransfer/In.py@latest -->
<g id="node8" class="node"><title>github.com/supermuesli/csdl@misc/dataTransfer/In.py@latest</title>
<ellipse fill="none" stroke="black" cx="812.031" cy="-126" rx="233.159" ry="18"/>
<text text-anchor="middle" x="812.031" y="-122.3" font-family="Times,serif" font-size="14.00">github.com/supermuesli/csdl@misc/dataTransfer/In.py@latest</text>
</g>
<!-- github.com/supermuesli/csdl@examples/StorageRequirement.py@latest&#45;&gt;github.com/supermuesli/csdl@misc/dataTransfer/In.py@latest -->
<g id="edge7" class="edge"><title>github.com/supermuesli/csdl@examples/StorageRequirement.py@latest&#45;&gt;github.com/supermuesli/csdl@misc/dataTransfer/In.py@latest</title>
<path fill="none" stroke="red" d="M356.823,-189.935C417.32,-178.494 499.784,-163.633 572.852,-153 601.218,-148.872 631.562,-145.011 660.766,-141.572"/>
<polygon fill="red" stroke="red" points="661.516,-145.009 671.043,-140.374 660.705,-138.056 661.516,-145.009"/>
</g>
<!-- github.com/supermuesli/csdl@misc/dataTransfer/Out.py@latest -->
<g id="node9" class="node"><title>github.com/supermuesli/csdl@misc/dataTransfer/Out.py@latest</title>
<ellipse fill="none" stroke="black" cx="812.031" cy="-72" rx="239.358" ry="18"/>
<text text-anchor="middle" x="812.031" y="-68.3" font-family="Times,serif" font-size="14.00">github.com/supermuesli/csdl@misc/dataTransfer/Out.py@latest</text>
</g>
<!-- github.com/supermuesli/csdl@examples/StorageRequirement.py@latest&#45;&gt;github.com/supermuesli/csdl@misc/dataTransfer/Out.py@latest -->
<g id="edge8" class="edge"><title>github.com/supermuesli/csdl@examples/StorageRequirement.py@latest&#45;&gt;github.com/supermuesli/csdl@misc/dataTransfer/Out.py@latest</title>
<path fill="none" stroke="red" d="M310.245,-189.075C367.68,-164.644 476.158,-121.377 572.852,-99 594.219,-94.0553 616.883,-90.0022 639.404,-86.6831"/>
<polygon fill="red" stroke="red" points="639.983,-90.136 649.388,-85.2574 638.994,-83.2063 639.983,-90.136"/>
</g>
<!-- github.com/supermuesli/csdl@aws/s3/S3Type.py@latest -->
<g id="node10" class="node"><title>github.com/supermuesli/csdl@aws/s3/S3Type.py@latest</title>
<ellipse fill="none" stroke="black" cx="812.031" cy="-18" rx="213.362" ry="18"/>
<text text-anchor="middle" x="812.031" y="-14.3" font-family="Times,serif" font-size="14.00">github.com/supermuesli/csdl@aws/s3/S3Type.py@latest</text>
</g>
<!-- github.com/supermuesli/csdl@examples/StorageRequirement.py@latest&#45;&gt;github.com/supermuesli/csdl@aws/s3/S3Type.py@latest -->
<g id="edge9" class="edge"><title>github.com/supermuesli/csdl@examples/StorageRequirement.py@latest&#45;&gt;github.com/supermuesli/csdl@aws/s3/S3Type.py@latest</title>
<path fill="none" stroke="red" d="M295.123,-188.885C345.624,-154.316 462.519,-79.3284 572.852,-45 591.976,-39.0501 612.326,-34.3831 632.766,-30.7269"/>
<polygon fill="red" stroke="red" points="633.535,-34.1463 642.803,-29.012 632.356,-27.2463 633.535,-34.1463"/>
</g>
<!-- PricingModel -->
<g id="node3" class="node"><title>PricingModel</title>
<ellipse fill="none" stroke="black" cx="1147" cy="-396" rx="59.5901" ry="18"/>
<text text-anchor="middle" x="1147" y="-392.3" font-family="Times,serif" font-size="14.00">PricingModel</text>
</g>
<!-- Price&#45;&gt;PricingModel -->
<g id="edge2" class="edge"><title>Price&#45;&gt;PricingModel</title>
<path fill="none" stroke="red" d="M840.848,-396C892.349,-396 1003.95,-396 1076.96,-396"/>
<polygon fill="red" stroke="red" points="1077,-399.5 1087,-396 1077,-392.5 1077,-399.5"/>
</g>
</g>
</svg>
