<?xml version="1.0" encoding="UTF-8" standalone="no"?>
<!DOCTYPE svg PUBLIC "-//W3C//DTD SVG 1.1//EN"
 "http://www.w3.org/Graphics/SVG/1.1/DTD/svg11.dtd">
<!-- Generated by graphviz version 2.38.0 (20140413.2041)
 -->
<!-- Title: %3 Pages: 1 -->
<svg width="1484pt" height="797pt"
 viewBox="0.00 0.00 1483.88 797.00" xmlns="http://www.w3.org/2000/svg" xmlns:xlink="http://www.w3.org/1999/xlink">
<g id="graph0" class="graph" transform="scale(1 1) rotate(0) translate(4 793)">
<title>%3</title>
<polygon fill="white" stroke="none" points="-4,4 -4,-793 1479.88,-793 1479.88,4 -4,4"/>
<!-- github.com/supermuesli/csdl@aws/ec2/A1Large.py@latest -->
<g id="node1" class="node"><title>github.com/supermuesli/csdl@aws/ec2/A1Large.py@latest</title>
<ellipse fill="none" stroke="black" cx="221.63" cy="-423" rx="221.761" ry="18"/>
<text text-anchor="middle" x="221.63" y="-419.3" font-family="Times,serif" font-size="14.00">github.com/supermuesli/csdl@aws/ec2/A1Large.py@latest</text>
</g>
<!-- github.com/supermuesli/csdl@aws/regions/Region.py@latest -->
<g id="node2" class="node"><title>github.com/supermuesli/csdl@aws/regions/Region.py@latest</title>
<ellipse fill="none" stroke="black" cx="1246.45" cy="-771" rx="229.359" ry="18"/>
<text text-anchor="middle" x="1246.45" y="-767.3" font-family="Times,serif" font-size="14.00">github.com/supermuesli/csdl@aws/regions/Region.py@latest</text>
</g>
<!-- github.com/supermuesli/csdl@aws/ec2/A1Large.py@latest&#45;&gt;github.com/supermuesli/csdl@aws/regions/Region.py@latest -->
<g id="edge1" class="edge"><title>github.com/supermuesli/csdl@aws/ec2/A1Large.py@latest&#45;&gt;github.com/supermuesli/csdl@aws/regions/Region.py@latest</title>
<path fill="none" stroke="red" d="M230.427,-441.35C255.987,-498.849 343.477,-675.742 479.261,-744 575.986,-792.623 859.155,-790.355 1052.77,-782.238"/>
<polygon fill="red" stroke="red" points="1052.94,-785.734 1062.78,-781.81 1052.64,-778.74 1052.94,-785.734"/>
</g>
<!-- OperatingSystem -->
<g id="node3" class="node"><title>OperatingSystem</title>
<ellipse fill="none" stroke="black" cx="730.138" cy="-558" rx="72.2875" ry="18"/>
<text text-anchor="middle" x="730.138" y="-554.3" font-family="Times,serif" font-size="14.00">OperatingSystem</text>
</g>
<!-- github.com/supermuesli/csdl@aws/ec2/A1Large.py@latest&#45;&gt;OperatingSystem -->
<g id="edge2" class="edge"><title>github.com/supermuesli/csdl@aws/ec2/A1Large.py@latest&#45;&gt;OperatingSystem</title>
<path fill="none" stroke="red" d="M256.385,-440.971C304.427,-465.663 395.957,-509.464 479.261,-531 534.691,-545.33 598.943,-552.064 648.412,-555.223"/>
<polygon fill="red" stroke="red" points="648.226,-558.718 658.419,-555.826 648.647,-551.731 648.226,-558.718"/>
</g>
<!-- CpuCores -->
<g id="node4" class="node"><title>CpuCores</title>
<ellipse fill="none" stroke="black" cx="730.138" cy="-504" rx="46.2923" ry="18"/>
<text text-anchor="middle" x="730.138" y="-500.3" font-family="Times,serif" font-size="14.00">CpuCores</text>
</g>
<!-- github.com/supermuesli/csdl@aws/ec2/A1Large.py@latest&#45;&gt;CpuCores -->
<g id="edge3" class="edge"><title>github.com/supermuesli/csdl@aws/ec2/A1Large.py@latest&#45;&gt;CpuCores</title>
<path fill="none" stroke="red" d="M294.178,-440.055C345.459,-451.789 416.308,-467.001 479.261,-477 546.186,-487.63 623.871,-495.299 674.631,-499.688"/>
<polygon fill="red" stroke="red" points="674.465,-503.186 684.727,-500.548 675.06,-496.212 674.465,-503.186"/>
</g>
<!-- CpuClockSpeed -->
<g id="node5" class="node"><title>CpuClockSpeed</title>
<ellipse fill="none" stroke="black" cx="730.138" cy="-450" rx="67.6881" ry="18"/>
<text text-anchor="middle" x="730.138" y="-446.3" font-family="Times,serif" font-size="14.00">CpuClockSpeed</text>
</g>
<!-- github.com/supermuesli/csdl@aws/ec2/A1Large.py@latest&#45;&gt;CpuClockSpeed -->
<g id="edge4" class="edge"><title>github.com/supermuesli/csdl@aws/ec2/A1Large.py@latest&#45;&gt;CpuClockSpeed</title>
<path fill="none" stroke="red" d="M407.283,-432.843C492.357,-437.378 588.601,-442.508 653.502,-445.968"/>
<polygon fill="red" stroke="red" points="653.47,-449.471 663.642,-446.509 653.843,-442.481 653.47,-449.471"/>
</g>
<!-- Ram -->
<g id="node6" class="node"><title>Ram</title>
<ellipse fill="none" stroke="black" cx="730.138" cy="-396" rx="27.8951" ry="18"/>
<text text-anchor="middle" x="730.138" y="-392.3" font-family="Times,serif" font-size="14.00">Ram</text>
</g>
<!-- github.com/supermuesli/csdl@aws/ec2/A1Large.py@latest&#45;&gt;Ram -->
<g id="edge5" class="edge"><title>github.com/supermuesli/csdl@aws/ec2/A1Large.py@latest&#45;&gt;Ram</title>
<path fill="none" stroke="red" d="M407.283,-413.157C511.568,-407.598 632.639,-401.144 692.186,-397.97"/>
<polygon fill="red" stroke="red" points="692.43,-401.462 702.229,-397.434 692.057,-394.472 692.43,-401.462"/>
</g>
<!-- RamClockSpeed -->
<g id="node7" class="node"><title>RamClockSpeed</title>
<ellipse fill="none" stroke="black" cx="730.138" cy="-342" rx="70.3881" ry="18"/>
<text text-anchor="middle" x="730.138" y="-338.3" font-family="Times,serif" font-size="14.00">RamClockSpeed</text>
</g>
<!-- github.com/supermuesli/csdl@aws/ec2/A1Large.py@latest&#45;&gt;RamClockSpeed -->
<g id="edge6" class="edge"><title>github.com/supermuesli/csdl@aws/ec2/A1Large.py@latest&#45;&gt;RamClockSpeed</title>
<path fill="none" stroke="red" d="M294.178,-405.945C345.459,-394.211 416.308,-378.999 479.261,-369 537.215,-359.795 603.239,-352.81 652.859,-348.253"/>
<polygon fill="red" stroke="red" points="653.23,-351.734 662.874,-347.346 652.599,-344.762 653.23,-351.734"/>
</g>
<!-- RamWriteSpeed -->
<g id="node8" class="node"><title>RamWriteSpeed</title>
<ellipse fill="none" stroke="black" cx="730.138" cy="-288" rx="69.5877" ry="18"/>
<text text-anchor="middle" x="730.138" y="-284.3" font-family="Times,serif" font-size="14.00">RamWriteSpeed</text>
</g>
<!-- github.com/supermuesli/csdl@aws/ec2/A1Large.py@latest&#45;&gt;RamWriteSpeed -->
<g id="edge7" class="edge"><title>github.com/supermuesli/csdl@aws/ec2/A1Large.py@latest&#45;&gt;RamWriteSpeed</title>
<path fill="none" stroke="red" d="M256.385,-405.029C304.427,-380.337 395.957,-336.536 479.261,-315 535.58,-300.44 601.007,-293.722 650.782,-290.628"/>
<polygon fill="red" stroke="red" points="651.06,-294.117 660.838,-290.038 650.651,-287.129 651.06,-294.117"/>
</g>
<!-- RamReadSpeed -->
<g id="node9" class="node"><title>RamReadSpeed</title>
<ellipse fill="none" stroke="black" cx="730.138" cy="-234" rx="67.6881" ry="18"/>
<text text-anchor="middle" x="730.138" y="-230.3" font-family="Times,serif" font-size="14.00">RamReadSpeed</text>
</g>
<!-- github.com/supermuesli/csdl@aws/ec2/A1Large.py@latest&#45;&gt;RamReadSpeed -->
<g id="edge8" class="edge"><title>github.com/supermuesli/csdl@aws/ec2/A1Large.py@latest&#45;&gt;RamReadSpeed</title>
<path fill="none" stroke="red" d="M243.513,-405.016C285.131,-370.328 382.74,-294.64 479.261,-261 535.058,-241.553 601.746,-235.125 652.189,-233.384"/>
<polygon fill="red" stroke="red" points="652.48,-236.877 662.374,-233.088 652.277,-229.88 652.48,-236.877"/>
</g>
<!-- Storage -->
<g id="node10" class="node"><title>Storage</title>
<ellipse fill="none" stroke="black" cx="1246.45" cy="-717" rx="37.8943" ry="18"/>
<text text-anchor="middle" x="1246.45" y="-713.3" font-family="Times,serif" font-size="14.00">Storage</text>
</g>
<!-- github.com/supermuesli/csdl@aws/ec2/A1Large.py@latest&#45;&gt;Storage -->
<g id="edge9" class="edge"><title>github.com/supermuesli/csdl@aws/ec2/A1Large.py@latest&#45;&gt;Storage</title>
<path fill="none" stroke="red" d="M231.416,-441.053C258.909,-495.177 349.287,-655.989 479.261,-715 608.353,-773.611 1053.7,-736.001 1199.11,-721.774"/>
<polygon fill="red" stroke="red" points="1199.85,-725.218 1209.46,-720.751 1199.16,-718.252 1199.85,-725.218"/>
</g>
<!-- StorageWriteSpeed -->
<g id="node11" class="node"><title>StorageWriteSpeed</title>
<ellipse fill="none" stroke="black" cx="1246.45" cy="-662" rx="79.0865" ry="18"/>
<text text-anchor="middle" x="1246.45" y="-658.3" font-family="Times,serif" font-size="14.00">StorageWriteSpeed</text>
</g>
<!-- github.com/supermuesli/csdl@aws/ec2/A1Large.py@latest&#45;&gt;StorageWriteSpeed -->
<g id="edge10" class="edge"><title>github.com/supermuesli/csdl@aws/ec2/A1Large.py@latest&#45;&gt;StorageWriteSpeed</title>
<path fill="none" stroke="red" d="M239.436,-441.129C277.561,-480.846 375.393,-575.017 479.261,-613 601.384,-657.66 982.421,-662.707 1156.76,-662.582"/>
<polygon fill="red" stroke="red" points="1156.94,-666.082 1166.93,-662.569 1156.93,-659.082 1156.94,-666.082"/>
</g>
<!-- StorageReadSpeed -->
<g id="node12" class="node"><title>StorageReadSpeed</title>
<ellipse fill="none" stroke="black" cx="1246.45" cy="-607" rx="77.1866" ry="18"/>
<text text-anchor="middle" x="1246.45" y="-603.3" font-family="Times,serif" font-size="14.00">StorageReadSpeed</text>
</g>
<!-- github.com/supermuesli/csdl@aws/ec2/A1Large.py@latest&#45;&gt;StorageReadSpeed -->
<g id="edge11" class="edge"><title>github.com/supermuesli/csdl@aws/ec2/A1Large.py@latest&#45;&gt;StorageReadSpeed</title>
<path fill="none" stroke="red" d="M242.659,-441.108C283.525,-476.728 380.983,-555.041 479.261,-585 604.142,-623.07 987.703,-615.705 1160.04,-610.19"/>
<polygon fill="red" stroke="red" points="1160.2,-613.686 1170.08,-609.862 1159.97,-606.69 1160.2,-613.686"/>
</g>
<!-- NetworkCapacity -->
<g id="node13" class="node"><title>NetworkCapacity</title>
<ellipse fill="none" stroke="black" cx="730.138" cy="-180" rx="72.5877" ry="18"/>
<text text-anchor="middle" x="730.138" y="-176.3" font-family="Times,serif" font-size="14.00">NetworkCapacity</text>
</g>
<!-- github.com/supermuesli/csdl@aws/ec2/A1Large.py@latest&#45;&gt;NetworkCapacity -->
<g id="edge12" class="edge"><title>github.com/supermuesli/csdl@aws/ec2/A1Large.py@latest&#45;&gt;NetworkCapacity</title>
<path fill="none" stroke="red" d="M237.095,-405.029C272.876,-362.046 370.544,-253.432 479.261,-207 532.475,-184.273 597.611,-177.846 648.037,-176.932"/>
<polygon fill="red" stroke="red" points="648.281,-180.429 658.241,-176.817 648.203,-173.43 648.281,-180.429"/>
</g>
<!-- NetworkUploadSpeed -->
<g id="node14" class="node"><title>NetworkUploadSpeed</title>
<ellipse fill="none" stroke="black" cx="730.138" cy="-126" rx="89.0842" ry="18"/>
<text text-anchor="middle" x="730.138" y="-122.3" font-family="Times,serif" font-size="14.00">NetworkUploadSpeed</text>
</g>
<!-- github.com/supermuesli/csdl@aws/ec2/A1Large.py@latest&#45;&gt;NetworkUploadSpeed -->
<g id="edge13" class="edge"><title>github.com/supermuesli/csdl@aws/ec2/A1Large.py@latest&#45;&gt;NetworkUploadSpeed</title>
<path fill="none" stroke="red" d="M233.373,-404.736C264.175,-354.279 358.391,-212.766 479.261,-153 526.915,-129.437 585.806,-122.187 634.445,-121.059"/>
<polygon fill="red" stroke="red" points="634.714,-124.555 644.661,-120.907 634.61,-117.556 634.714,-124.555"/>
</g>
<!-- NetworkDownloadSpeed -->
<g id="node15" class="node"><title>NetworkDownloadSpeed</title>
<ellipse fill="none" stroke="black" cx="730.138" cy="-72" rx="99.3824" ry="18"/>
<text text-anchor="middle" x="730.138" y="-68.3" font-family="Times,serif" font-size="14.00">NetworkDownloadSpeed</text>
</g>
<!-- github.com/supermuesli/csdl@aws/ec2/A1Large.py@latest&#45;&gt;NetworkDownloadSpeed -->
<g id="edge14" class="edge"><title>github.com/supermuesli/csdl@aws/ec2/A1Large.py@latest&#45;&gt;NetworkDownloadSpeed</title>
<path fill="none" stroke="red" d="M230.593,-404.898C256.647,-348.106 345.443,-172.849 479.261,-99 523.932,-74.3474 579.928,-66.5827 627.584,-65.4215"/>
<polygon fill="red" stroke="red" points="627.673,-68.9207 637.619,-65.2703 627.567,-61.9215 627.673,-68.9207"/>
</g>
<!-- github.com/supermuesli/csdl@aws/EBS.py@latest -->
<g id="node16" class="node"><title>github.com/supermuesli/csdl@aws/EBS.py@latest</title>
<ellipse fill="none" stroke="black" cx="730.138" cy="-688" rx="191.966" ry="18"/>
<text text-anchor="middle" x="730.138" y="-684.3" font-family="Times,serif" font-size="14.00">github.com/supermuesli/csdl@aws/EBS.py@latest</text>
</g>
<!-- github.com/supermuesli/csdl@aws/ec2/A1Large.py@latest&#45;&gt;github.com/supermuesli/csdl@aws/EBS.py@latest -->
<g id="edge15" class="edge"><title>github.com/supermuesli/csdl@aws/ec2/A1Large.py@latest&#45;&gt;github.com/supermuesli/csdl@aws/EBS.py@latest</title>
<path fill="none" stroke="red" d="M236.042,-441.235C270.539,-486.573 367.517,-604.444 479.261,-656 500.639,-665.864 524.076,-672.994 547.761,-678.104"/>
<polygon fill="red" stroke="red" points="547.062,-681.534 557.559,-680.103 548.461,-674.675 547.062,-681.534"/>
</g>
<!-- github.com/supermuesli/csdl@aws/ec2/ElasticIpAmount.py@latest -->
<g id="node17" class="node"><title>github.com/supermuesli/csdl@aws/ec2/ElasticIpAmount.py@latest</title>
<ellipse fill="none" stroke="black" cx="730.138" cy="-18" rx="250.756" ry="18"/>
<text text-anchor="middle" x="730.138" y="-14.3" font-family="Times,serif" font-size="14.00">github.com/supermuesli/csdl@aws/ec2/ElasticIpAmount.py@latest</text>
</g>
<!-- github.com/supermuesli/csdl@aws/ec2/A1Large.py@latest&#45;&gt;github.com/supermuesli/csdl@aws/ec2/ElasticIpAmount.py@latest -->
<g id="edge20" class="edge"><title>github.com/supermuesli/csdl@aws/ec2/A1Large.py@latest&#45;&gt;github.com/supermuesli/csdl@aws/ec2/ElasticIpAmount.py@latest</title>
<path fill="none" stroke="red" d="M228.712,-404.661C250.667,-341.677 332.396,-133.234 479.261,-45 488.189,-39.6359 497.625,-35.0374 507.397,-31.1083"/>
<polygon fill="red" stroke="red" points="508.737,-34.3434 516.862,-27.5433 506.27,-27.7926 508.737,-34.3434"/>
</g>
<!-- github.com/supermuesli/csdl@aws/EBS.py@latest&#45;&gt;github.com/supermuesli/csdl@aws/regions/Region.py@latest -->
<g id="edge16" class="edge"><title>github.com/supermuesli/csdl@aws/EBS.py@latest&#45;&gt;github.com/supermuesli/csdl@aws/regions/Region.py@latest</title>
<path fill="none" stroke="red" d="M807.303,-704.552C864.739,-716.635 945.567,-732.796 1017.02,-744 1043.37,-748.132 1071.52,-751.947 1098.74,-755.327"/>
<polygon fill="red" stroke="red" points="1098.37,-758.808 1108.72,-756.553 1099.22,-751.86 1098.37,-758.808"/>
</g>
<!-- github.com/supermuesli/csdl@aws/EBS.py@latest&#45;&gt;Storage -->
<g id="edge17" class="edge"><title>github.com/supermuesli/csdl@aws/EBS.py@latest&#45;&gt;Storage</title>
<path fill="none" stroke="red" d="M894.929,-697.236C1000.65,-703.197 1130.74,-710.532 1198.84,-714.372"/>
<polygon fill="red" stroke="red" points="1198.64,-717.867 1208.83,-714.935 1199.04,-710.878 1198.64,-717.867"/>
</g>
<!-- github.com/supermuesli/csdl@aws/EBS.py@latest&#45;&gt;StorageWriteSpeed -->
<g id="edge18" class="edge"><title>github.com/supermuesli/csdl@aws/EBS.py@latest&#45;&gt;StorageWriteSpeed</title>
<path fill="none" stroke="red" d="M899.186,-679.505C985.772,-675.127 1087.74,-669.973 1158.5,-666.396"/>
<polygon fill="red" stroke="red" points="1158.89,-669.88 1168.7,-665.88 1158.54,-662.889 1158.89,-669.88"/>
</g>
<!-- github.com/supermuesli/csdl@aws/EBS.py@latest&#45;&gt;StorageReadSpeed -->
<g id="edge19" class="edge"><title>github.com/supermuesli/csdl@aws/EBS.py@latest&#45;&gt;StorageReadSpeed</title>
<path fill="none" stroke="red" d="M811.934,-671.653C869.065,-660.43 947.544,-645.687 1017.02,-635 1066.29,-627.42 1121.8,-620.577 1165.76,-615.553"/>
<polygon fill="red" stroke="red" points="1166.27,-619.018 1175.82,-614.413 1165.49,-612.062 1166.27,-619.018"/>
</g>
</g>
</svg>
