<?xml version="1.0" encoding="UTF-8" standalone="no"?>
<!DOCTYPE svg PUBLIC "-//W3C//DTD SVG 1.1//EN"
 "http://www.w3.org/Graphics/SVG/1.1/DTD/svg11.dtd">
<!-- Generated by graphviz version 2.38.0 (20140413.2041)
 -->
<!-- Title: %3 Pages: 1 -->
<svg width="1484pt" height="679pt"
 viewBox="0.00 0.00 1483.88 678.88" xmlns="http://www.w3.org/2000/svg" xmlns:xlink="http://www.w3.org/1999/xlink">
<g id="graph0" class="graph" transform="scale(1 1) rotate(0) translate(4 674.879)">
<title>%3</title>
<polygon fill="white" stroke="none" points="-4,4 -4,-674.879 1479.88,-674.879 1479.88,4 -4,4"/>
<!-- github.com/supermuesli/csdl@aws/ec2/A1Large.py@latest -->
<g id="node1" class="node"><title>github.com/supermuesli/csdl@aws/ec2/A1Large.py@latest</title>
<ellipse fill="none" stroke="black" cx="221.63" cy="-342" rx="221.761" ry="18"/>
<text text-anchor="middle" x="221.63" y="-338.3" font-family="Times,serif" font-size="14.00">github.com/supermuesli/csdl@aws/ec2/A1Large.py@latest</text>
</g>
<!-- github.com/supermuesli/csdl@aws/regions/Region.py@latest -->
<g id="node2" class="node"><title>github.com/supermuesli/csdl@aws/regions/Region.py@latest</title>
<ellipse fill="none" stroke="black" cx="1246.45" cy="-419" rx="229.359" ry="18"/>
<text text-anchor="middle" x="1246.45" y="-415.3" font-family="Times,serif" font-size="14.00">github.com/supermuesli/csdl@aws/regions/Region.py@latest</text>
</g>
<!-- github.com/supermuesli/csdl@aws/ec2/A1Large.py@latest&#45;&gt;github.com/supermuesli/csdl@aws/regions/Region.py@latest -->
<g id="edge1" class="edge"><title>github.com/supermuesli/csdl@aws/ec2/A1Large.py@latest&#45;&gt;github.com/supermuesli/csdl@aws/regions/Region.py@latest</title>
<path fill="none" stroke="red" d="M231.317,-360.367C258.531,-415.433 348.2,-579.037 479.261,-639 580.654,-685.39 876.16,-676.916 981.016,-639 1089.58,-599.742 1184.97,-494.322 1225.18,-445.05"/>
<polygon fill="red" stroke="red" points="1228.04,-447.069 1231.59,-437.086 1222.59,-442.678 1228.04,-447.069"/>
</g>
<!-- OperatingSystem -->
<g id="node3" class="node"><title>OperatingSystem</title>
<ellipse fill="none" stroke="black" cx="730.138" cy="-612" rx="72.2875" ry="18"/>
<text text-anchor="middle" x="730.138" y="-608.3" font-family="Times,serif" font-size="14.00">OperatingSystem</text>
</g>
<!-- github.com/supermuesli/csdl@aws/ec2/A1Large.py@latest&#45;&gt;OperatingSystem -->
<g id="edge2" class="edge"><title>github.com/supermuesli/csdl@aws/ec2/A1Large.py@latest&#45;&gt;OperatingSystem</title>
<path fill="none" stroke="red" d="M235.044,-360.12C268.267,-406.94 364.521,-531.978 479.261,-585 532.437,-609.573 598.56,-615.799 649.426,-616.162"/>
<polygon fill="red" stroke="red" points="649.714,-619.662 659.713,-616.158 649.711,-612.662 649.714,-619.662"/>
</g>
<!-- CpuCores -->
<g id="node4" class="node"><title>CpuCores</title>
<ellipse fill="none" stroke="black" cx="730.138" cy="-558" rx="46.2923" ry="18"/>
<text text-anchor="middle" x="730.138" y="-554.3" font-family="Times,serif" font-size="14.00">CpuCores</text>
</g>
<!-- github.com/supermuesli/csdl@aws/ec2/A1Large.py@latest&#45;&gt;CpuCores -->
<g id="edge3" class="edge"><title>github.com/supermuesli/csdl@aws/ec2/A1Large.py@latest&#45;&gt;CpuCores</title>
<path fill="none" stroke="red" d="M239.871,-359.996C278.494,-399.007 376.648,-491.058 479.261,-531 542.922,-555.781 622.176,-560.35 674.14,-560.16"/>
<polygon fill="red" stroke="red" points="674.19,-563.66 684.156,-560.063 674.122,-556.66 674.19,-563.66"/>
</g>
<!-- CpuClockSpeed -->
<g id="node5" class="node"><title>CpuClockSpeed</title>
<ellipse fill="none" stroke="black" cx="730.138" cy="-504" rx="67.6881" ry="18"/>
<text text-anchor="middle" x="730.138" y="-500.3" font-family="Times,serif" font-size="14.00">CpuClockSpeed</text>
</g>
<!-- github.com/supermuesli/csdl@aws/ec2/A1Large.py@latest&#45;&gt;CpuClockSpeed -->
<g id="edge4" class="edge"><title>github.com/supermuesli/csdl@aws/ec2/A1Large.py@latest&#45;&gt;CpuClockSpeed</title>
<path fill="none" stroke="red" d="M248.527,-359.911C293.275,-389.848 388.972,-449.47 479.261,-477 535.684,-494.204 602.197,-500.767 652.409,-503.13"/>
<polygon fill="red" stroke="red" points="652.407,-506.633 662.546,-503.561 652.704,-499.64 652.407,-506.633"/>
</g>
<!-- Ram -->
<g id="node6" class="node"><title>Ram</title>
<ellipse fill="none" stroke="black" cx="730.138" cy="-450" rx="27.8951" ry="18"/>
<text text-anchor="middle" x="730.138" y="-446.3" font-family="Times,serif" font-size="14.00">Ram</text>
</g>
<!-- github.com/supermuesli/csdl@aws/ec2/A1Large.py@latest&#45;&gt;Ram -->
<g id="edge5" class="edge"><title>github.com/supermuesli/csdl@aws/ec2/A1Large.py@latest&#45;&gt;Ram</title>
<path fill="none" stroke="red" d="M268.72,-359.602C319.526,-378.28 404.041,-407.228 479.261,-423 553.86,-438.642 642.998,-445.508 692.099,-448.293"/>
<polygon fill="red" stroke="red" points="692.065,-451.796 702.24,-448.841 692.443,-444.806 692.065,-451.796"/>
</g>
<!-- RamClockSpeed -->
<g id="node7" class="node"><title>RamClockSpeed</title>
<ellipse fill="none" stroke="black" cx="730.138" cy="-396" rx="70.3881" ry="18"/>
<text text-anchor="middle" x="730.138" y="-392.3" font-family="Times,serif" font-size="14.00">RamClockSpeed</text>
</g>
<!-- github.com/supermuesli/csdl@aws/ec2/A1Large.py@latest&#45;&gt;RamClockSpeed -->
<g id="edge6" class="edge"><title>github.com/supermuesli/csdl@aws/ec2/A1Large.py@latest&#45;&gt;RamClockSpeed</title>
<path fill="none" stroke="red" d="M356.704,-356.294C452.071,-366.461 576.646,-379.742 654.786,-388.073"/>
<polygon fill="red" stroke="red" points="654.708,-391.585 665.023,-389.164 655.45,-384.624 654.708,-391.585"/>
</g>
<!-- RamWriteSpeed -->
<g id="node8" class="node"><title>RamWriteSpeed</title>
<ellipse fill="none" stroke="black" cx="730.138" cy="-342" rx="69.5877" ry="18"/>
<text text-anchor="middle" x="730.138" y="-338.3" font-family="Times,serif" font-size="14.00">RamWriteSpeed</text>
</g>
<!-- github.com/supermuesli/csdl@aws/ec2/A1Large.py@latest&#45;&gt;RamWriteSpeed -->
<g id="edge7" class="edge"><title>github.com/supermuesli/csdl@aws/ec2/A1Large.py@latest&#45;&gt;RamWriteSpeed</title>
<path fill="none" stroke="red" d="M443.319,-342C517.103,-342 594.638,-342 650.307,-342"/>
<polygon fill="red" stroke="red" points="650.442,-345.5 660.442,-342 650.441,-338.5 650.442,-345.5"/>
</g>
<!-- RamReadSpeed -->
<g id="node9" class="node"><title>RamReadSpeed</title>
<ellipse fill="none" stroke="black" cx="730.138" cy="-288" rx="67.6881" ry="18"/>
<text text-anchor="middle" x="730.138" y="-284.3" font-family="Times,serif" font-size="14.00">RamReadSpeed</text>
</g>
<!-- github.com/supermuesli/csdl@aws/ec2/A1Large.py@latest&#45;&gt;RamReadSpeed -->
<g id="edge8" class="edge"><title>github.com/supermuesli/csdl@aws/ec2/A1Large.py@latest&#45;&gt;RamReadSpeed</title>
<path fill="none" stroke="red" d="M356.704,-327.706C452.912,-317.449 578.847,-304.023 656.843,-295.708"/>
<polygon fill="red" stroke="red" points="657.479,-299.16 667.052,-294.619 656.737,-292.199 657.479,-299.16"/>
</g>
<!-- NetworkCapacity -->
<g id="node10" class="node"><title>NetworkCapacity</title>
<ellipse fill="none" stroke="black" cx="730.138" cy="-234" rx="72.5877" ry="18"/>
<text text-anchor="middle" x="730.138" y="-230.3" font-family="Times,serif" font-size="14.00">NetworkCapacity</text>
</g>
<!-- github.com/supermuesli/csdl@aws/ec2/A1Large.py@latest&#45;&gt;NetworkCapacity -->
<g id="edge9" class="edge"><title>github.com/supermuesli/csdl@aws/ec2/A1Large.py@latest&#45;&gt;NetworkCapacity</title>
<path fill="none" stroke="red" d="M268.72,-324.398C319.526,-305.72 404.041,-276.772 479.261,-261 535.178,-249.275 599.263,-242.481 648.534,-238.641"/>
<polygon fill="red" stroke="red" points="649.106,-242.108 658.814,-237.866 648.579,-235.128 649.106,-242.108"/>
</g>
<!-- NetworkUploadSpeed -->
<g id="node11" class="node"><title>NetworkUploadSpeed</title>
<ellipse fill="none" stroke="black" cx="730.138" cy="-180" rx="89.0842" ry="18"/>
<text text-anchor="middle" x="730.138" y="-176.3" font-family="Times,serif" font-size="14.00">NetworkUploadSpeed</text>
</g>
<!-- github.com/supermuesli/csdl@aws/ec2/A1Large.py@latest&#45;&gt;NetworkUploadSpeed -->
<g id="edge10" class="edge"><title>github.com/supermuesli/csdl@aws/ec2/A1Large.py@latest&#45;&gt;NetworkUploadSpeed</title>
<path fill="none" stroke="red" d="M248.527,-324.089C293.275,-294.152 388.972,-234.53 479.261,-207 528.06,-192.121 584.407,-185.201 631.228,-182.074"/>
<polygon fill="red" stroke="red" points="631.61,-185.557 641.374,-181.445 631.177,-178.57 631.61,-185.557"/>
</g>
<!-- NetworkDownloadSpeed -->
<g id="node12" class="node"><title>NetworkDownloadSpeed</title>
<ellipse fill="none" stroke="black" cx="730.138" cy="-126" rx="99.3824" ry="18"/>
<text text-anchor="middle" x="730.138" y="-122.3" font-family="Times,serif" font-size="14.00">NetworkDownloadSpeed</text>
</g>
<!-- github.com/supermuesli/csdl@aws/ec2/A1Large.py@latest&#45;&gt;NetworkDownloadSpeed -->
<g id="edge11" class="edge"><title>github.com/supermuesli/csdl@aws/ec2/A1Large.py@latest&#45;&gt;NetworkDownloadSpeed</title>
<path fill="none" stroke="red" d="M239.871,-324.004C278.494,-284.993 376.648,-192.942 479.261,-153 523.679,-135.71 575.688,-128.259 620.722,-125.399"/>
<polygon fill="red" stroke="red" points="621.029,-128.888 630.814,-124.827 620.632,-121.899 621.029,-128.888"/>
</g>
<!-- github.com/supermuesli/csdl@aws/EBS.py@latest -->
<g id="node13" class="node"><title>github.com/supermuesli/csdl@aws/EBS.py@latest</title>
<ellipse fill="none" stroke="black" cx="730.138" cy="-72" rx="191.966" ry="18"/>
<text text-anchor="middle" x="730.138" y="-68.3" font-family="Times,serif" font-size="14.00">github.com/supermuesli/csdl@aws/EBS.py@latest</text>
</g>
<!-- github.com/supermuesli/csdl@aws/ec2/A1Large.py@latest&#45;&gt;github.com/supermuesli/csdl@aws/EBS.py@latest -->
<g id="edge12" class="edge"><title>github.com/supermuesli/csdl@aws/ec2/A1Large.py@latest&#45;&gt;github.com/supermuesli/csdl@aws/EBS.py@latest</title>
<path fill="none" stroke="red" d="M235.044,-323.88C268.267,-277.06 364.521,-152.022 479.261,-99 497.557,-90.5452 517.386,-84.2624 537.598,-79.6431"/>
<polygon fill="red" stroke="red" points="538.504,-83.0284 547.547,-77.5069 537.035,-76.1844 538.504,-83.0284"/>
</g>
<!-- github.com/supermuesli/csdl@aws/ec2/ElasticIpAmount.py@latest -->
<g id="node17" class="node"><title>github.com/supermuesli/csdl@aws/ec2/ElasticIpAmount.py@latest</title>
<ellipse fill="none" stroke="black" cx="730.138" cy="-18" rx="250.756" ry="18"/>
<text text-anchor="middle" x="730.138" y="-14.3" font-family="Times,serif" font-size="14.00">github.com/supermuesli/csdl@aws/ec2/ElasticIpAmount.py@latest</text>
</g>
<!-- github.com/supermuesli/csdl@aws/ec2/A1Large.py@latest&#45;&gt;github.com/supermuesli/csdl@aws/ec2/ElasticIpAmount.py@latest -->
<g id="edge17" class="edge"><title>github.com/supermuesli/csdl@aws/ec2/A1Large.py@latest&#45;&gt;github.com/supermuesli/csdl@aws/ec2/ElasticIpAmount.py@latest</title>
<path fill="none" stroke="red" d="M231.827,-323.884C260.153,-270.236 351.917,-111.768 479.261,-45 489.601,-39.5784 500.51,-34.9951 511.755,-31.1342"/>
<polygon fill="red" stroke="red" points="512.835,-34.4634 521.275,-28.0584 510.683,-27.8024 512.835,-34.4634"/>
</g>
<!-- github.com/supermuesli/csdl@aws/EBS.py@latest&#45;&gt;github.com/supermuesli/csdl@aws/regions/Region.py@latest -->
<g id="edge13" class="edge"><title>github.com/supermuesli/csdl@aws/EBS.py@latest&#45;&gt;github.com/supermuesli/csdl@aws/regions/Region.py@latest</title>
<path fill="none" stroke="red" d="M920.23,-74.4152C941.672,-79.8403 962.456,-87.7422 981.016,-99 1005.68,-113.959 999.588,-130.016 1017.02,-153 1086.9,-245.162 1178.89,-347.051 1221.67,-393.458"/>
<polygon fill="red" stroke="red" points="1219.22,-395.973 1228.58,-400.942 1224.37,-391.222 1219.22,-395.973"/>
</g>
<!-- Storage -->
<g id="node14" class="node"><title>Storage</title>
<ellipse fill="none" stroke="black" cx="1246.45" cy="-126" rx="37.8943" ry="18"/>
<text text-anchor="middle" x="1246.45" y="-122.3" font-family="Times,serif" font-size="14.00">Storage</text>
</g>
<!-- github.com/supermuesli/csdl@aws/EBS.py@latest&#45;&gt;Storage -->
<g id="edge14" class="edge"><title>github.com/supermuesli/csdl@aws/EBS.py@latest&#45;&gt;Storage</title>
<path fill="none" stroke="red" d="M858.601,-85.383C969.265,-97.0022 1123.33,-113.179 1199.32,-121.157"/>
<polygon fill="red" stroke="red" points="1199.2,-124.663 1209.51,-122.227 1199.93,-117.701 1199.2,-124.663"/>
</g>
<!-- StorageWriteSpeed -->
<g id="node15" class="node"><title>StorageWriteSpeed</title>
<ellipse fill="none" stroke="black" cx="1246.45" cy="-72" rx="79.0865" ry="18"/>
<text text-anchor="middle" x="1246.45" y="-68.3" font-family="Times,serif" font-size="14.00">StorageWriteSpeed</text>
</g>
<!-- github.com/supermuesli/csdl@aws/EBS.py@latest&#45;&gt;StorageWriteSpeed -->
<g id="edge15" class="edge"><title>github.com/supermuesli/csdl@aws/EBS.py@latest&#45;&gt;StorageWriteSpeed</title>
<path fill="none" stroke="red" d="M921.917,-72C1002.51,-72 1092.44,-72 1156.99,-72"/>
<polygon fill="red" stroke="red" points="1157.12,-75.5001 1167.12,-72 1157.12,-68.5001 1157.12,-75.5001"/>
</g>
<!-- StorageReadSpeed -->
<g id="node16" class="node"><title>StorageReadSpeed</title>
<ellipse fill="none" stroke="black" cx="1246.45" cy="-18" rx="77.1866" ry="18"/>
<text text-anchor="middle" x="1246.45" y="-14.3" font-family="Times,serif" font-size="14.00">StorageReadSpeed</text>
</g>
<!-- github.com/supermuesli/csdl@aws/EBS.py@latest&#45;&gt;StorageReadSpeed -->
<g id="edge16" class="edge"><title>github.com/supermuesli/csdl@aws/EBS.py@latest&#45;&gt;StorageReadSpeed</title>
<path fill="none" stroke="red" d="M858.601,-58.617C954.695,-48.5275 1083.52,-35.0016 1165.52,-26.3915"/>
<polygon fill="red" stroke="red" points="1165.95,-29.8656 1175.53,-25.3404 1165.22,-22.9039 1165.95,-29.8656"/>
</g>
</g>
</svg>
