<?xml version="1.0" encoding="UTF-8" standalone="no"?>
<!DOCTYPE svg PUBLIC "-//W3C//DTD SVG 1.1//EN"
 "http://www.w3.org/Graphics/SVG/1.1/DTD/svg11.dtd">
<!-- Generated by graphviz version 2.38.0 (20140413.2041)
 -->
<!-- Title: %3 Pages: 1 -->
<svg width="1484pt" height="776pt"
 viewBox="0.00 0.00 1483.88 776.00" xmlns="http://www.w3.org/2000/svg" xmlns:xlink="http://www.w3.org/1999/xlink">
<g id="graph0" class="graph" transform="scale(1 1) rotate(0) translate(4 772)">
<title>%3</title>
<polygon fill="white" stroke="none" points="-4,4 -4,-772 1479.88,-772 1479.88,4 -4,4"/>
<!-- github.com/supermuesli/csdl@aws/ec2/A1Large.py@latest -->
<g id="node1" class="node"><title>github.com/supermuesli/csdl@aws/ec2/A1Large.py@latest</title>
<ellipse fill="none" stroke="black" cx="221.63" cy="-396" rx="221.761" ry="18"/>
<text text-anchor="middle" x="221.63" y="-392.3" font-family="Times,serif" font-size="14.00">github.com/supermuesli/csdl@aws/ec2/A1Large.py@latest</text>
</g>
<!-- github.com/supermuesli/csdl@aws/regions/Region.py@latest -->
<g id="node2" class="node"><title>github.com/supermuesli/csdl@aws/regions/Region.py@latest</title>
<ellipse fill="none" stroke="black" cx="1246.45" cy="-750" rx="229.359" ry="18"/>
<text text-anchor="middle" x="1246.45" y="-746.3" font-family="Times,serif" font-size="14.00">github.com/supermuesli/csdl@aws/regions/Region.py@latest</text>
</g>
<!-- github.com/supermuesli/csdl@aws/ec2/A1Large.py@latest&#45;&gt;github.com/supermuesli/csdl@aws/regions/Region.py@latest -->
<g id="edge1" class="edge"><title>github.com/supermuesli/csdl@aws/ec2/A1Large.py@latest&#45;&gt;github.com/supermuesli/csdl@aws/regions/Region.py@latest</title>
<path fill="none" stroke="red" d="M230.802,-414.197C257.162,-470.408 346.043,-641.54 479.261,-709 571.713,-755.817 834.808,-760.871 1026.97,-757.632"/>
<polygon fill="red" stroke="red" points="1027.28,-761.128 1037.21,-757.451 1027.15,-754.129 1027.28,-761.128"/>
</g>
<!-- OperatingSystem -->
<g id="node3" class="node"><title>OperatingSystem</title>
<ellipse fill="none" stroke="black" cx="730.138" cy="-558" rx="72.2875" ry="18"/>
<text text-anchor="middle" x="730.138" y="-554.3" font-family="Times,serif" font-size="14.00">OperatingSystem</text>
</g>
<!-- github.com/supermuesli/csdl@aws/ec2/A1Large.py@latest&#45;&gt;OperatingSystem -->
<g id="edge2" class="edge"><title>github.com/supermuesli/csdl@aws/ec2/A1Large.py@latest&#45;&gt;OperatingSystem</title>
<path fill="none" stroke="red" d="M248.527,-413.911C293.275,-443.848 388.972,-503.47 479.261,-531 534.024,-547.698 598.293,-554.372 647.937,-556.911"/>
<polygon fill="red" stroke="red" points="647.829,-560.409 657.981,-557.379 648.155,-553.417 647.829,-560.409"/>
</g>
<!-- CpuCores -->
<g id="node4" class="node"><title>CpuCores</title>
<ellipse fill="none" stroke="black" cx="730.138" cy="-504" rx="46.2923" ry="18"/>
<text text-anchor="middle" x="730.138" y="-500.3" font-family="Times,serif" font-size="14.00">CpuCores</text>
</g>
<!-- github.com/supermuesli/csdl@aws/ec2/A1Large.py@latest&#45;&gt;CpuCores -->
<g id="edge3" class="edge"><title>github.com/supermuesli/csdl@aws/ec2/A1Large.py@latest&#45;&gt;CpuCores</title>
<path fill="none" stroke="red" d="M268.72,-413.602C319.526,-432.28 404.041,-461.228 479.261,-477 545.383,-490.864 622.927,-497.835 673.89,-501.178"/>
<polygon fill="red" stroke="red" points="673.831,-504.682 684.032,-501.819 674.272,-497.696 673.831,-504.682"/>
</g>
<!-- CpuClockSpeed -->
<g id="node5" class="node"><title>CpuClockSpeed</title>
<ellipse fill="none" stroke="black" cx="730.138" cy="-450" rx="67.6881" ry="18"/>
<text text-anchor="middle" x="730.138" y="-446.3" font-family="Times,serif" font-size="14.00">CpuClockSpeed</text>
</g>
<!-- github.com/supermuesli/csdl@aws/ec2/A1Large.py@latest&#45;&gt;CpuClockSpeed -->
<g id="edge4" class="edge"><title>github.com/supermuesli/csdl@aws/ec2/A1Large.py@latest&#45;&gt;CpuClockSpeed</title>
<path fill="none" stroke="red" d="M356.704,-410.294C452.912,-420.551 578.847,-433.977 656.843,-442.292"/>
<polygon fill="red" stroke="red" points="656.737,-445.801 667.052,-443.381 657.479,-438.84 656.737,-445.801"/>
</g>
<!-- Ram -->
<g id="node6" class="node"><title>Ram</title>
<ellipse fill="none" stroke="black" cx="730.138" cy="-396" rx="27.8951" ry="18"/>
<text text-anchor="middle" x="730.138" y="-392.3" font-family="Times,serif" font-size="14.00">Ram</text>
</g>
<!-- github.com/supermuesli/csdl@aws/ec2/A1Large.py@latest&#45;&gt;Ram -->
<g id="edge5" class="edge"><title>github.com/supermuesli/csdl@aws/ec2/A1Large.py@latest&#45;&gt;Ram</title>
<path fill="none" stroke="red" d="M443.319,-396C538.093,-396 639.055,-396 691.918,-396"/>
<polygon fill="red" stroke="red" points="692.141,-399.5 702.141,-396 692.141,-392.5 692.141,-399.5"/>
</g>
<!-- RamClockSpeed -->
<g id="node7" class="node"><title>RamClockSpeed</title>
<ellipse fill="none" stroke="black" cx="730.138" cy="-342" rx="70.3881" ry="18"/>
<text text-anchor="middle" x="730.138" y="-338.3" font-family="Times,serif" font-size="14.00">RamClockSpeed</text>
</g>
<!-- github.com/supermuesli/csdl@aws/ec2/A1Large.py@latest&#45;&gt;RamClockSpeed -->
<g id="edge6" class="edge"><title>github.com/supermuesli/csdl@aws/ec2/A1Large.py@latest&#45;&gt;RamClockSpeed</title>
<path fill="none" stroke="red" d="M356.704,-381.706C452.071,-371.539 576.646,-358.258 654.786,-349.927"/>
<polygon fill="red" stroke="red" points="655.45,-353.376 665.023,-348.836 654.708,-346.415 655.45,-353.376"/>
</g>
<!-- RamWriteSpeed -->
<g id="node8" class="node"><title>RamWriteSpeed</title>
<ellipse fill="none" stroke="black" cx="730.138" cy="-288" rx="69.5877" ry="18"/>
<text text-anchor="middle" x="730.138" y="-284.3" font-family="Times,serif" font-size="14.00">RamWriteSpeed</text>
</g>
<!-- github.com/supermuesli/csdl@aws/ec2/A1Large.py@latest&#45;&gt;RamWriteSpeed -->
<g id="edge7" class="edge"><title>github.com/supermuesli/csdl@aws/ec2/A1Large.py@latest&#45;&gt;RamWriteSpeed</title>
<path fill="none" stroke="red" d="M268.72,-378.398C319.526,-359.72 404.041,-330.772 479.261,-315 536.493,-303 602.283,-296.164 651.986,-292.375"/>
<polygon fill="red" stroke="red" points="652.307,-295.861 662.022,-291.634 651.791,-288.88 652.307,-295.861"/>
</g>
<!-- RamReadSpeed -->
<g id="node9" class="node"><title>RamReadSpeed</title>
<ellipse fill="none" stroke="black" cx="730.138" cy="-234" rx="67.6881" ry="18"/>
<text text-anchor="middle" x="730.138" y="-230.3" font-family="Times,serif" font-size="14.00">RamReadSpeed</text>
</g>
<!-- github.com/supermuesli/csdl@aws/ec2/A1Large.py@latest&#45;&gt;RamReadSpeed -->
<g id="edge8" class="edge"><title>github.com/supermuesli/csdl@aws/ec2/A1Large.py@latest&#45;&gt;RamReadSpeed</title>
<path fill="none" stroke="red" d="M248.527,-378.089C293.275,-348.152 388.972,-288.53 479.261,-261 535.684,-243.796 602.197,-237.233 652.409,-234.87"/>
<polygon fill="red" stroke="red" points="652.704,-238.36 662.546,-234.439 652.407,-231.367 652.704,-238.36"/>
</g>
<!-- StorageWriteSpeed -->
<g id="node10" class="node"><title>StorageWriteSpeed</title>
<ellipse fill="none" stroke="black" cx="1246.45" cy="-696" rx="79.0865" ry="18"/>
<text text-anchor="middle" x="1246.45" y="-692.3" font-family="Times,serif" font-size="14.00">StorageWriteSpeed</text>
</g>
<!-- github.com/supermuesli/csdl@aws/ec2/A1Large.py@latest&#45;&gt;StorageWriteSpeed -->
<g id="edge9" class="edge"><title>github.com/supermuesli/csdl@aws/ec2/A1Large.py@latest&#45;&gt;StorageWriteSpeed</title>
<path fill="none" stroke="red" d="M232.077,-414.007C260.765,-466.503 352.717,-619.31 479.261,-677 598.412,-731.32 987.273,-713.343 1160.67,-702.13"/>
<polygon fill="red" stroke="red" points="1161.02,-705.615 1170.77,-701.469 1160.56,-698.63 1161.02,-705.615"/>
</g>
<!-- StorageReadSpeed -->
<g id="node11" class="node"><title>StorageReadSpeed</title>
<ellipse fill="none" stroke="black" cx="1246.45" cy="-588" rx="77.1866" ry="18"/>
<text text-anchor="middle" x="1246.45" y="-584.3" font-family="Times,serif" font-size="14.00">StorageReadSpeed</text>
</g>
<!-- github.com/supermuesli/csdl@aws/ec2/A1Large.py@latest&#45;&gt;StorageReadSpeed -->
<g id="edge10" class="edge"><title>github.com/supermuesli/csdl@aws/ec2/A1Large.py@latest&#45;&gt;StorageReadSpeed</title>
<path fill="none" stroke="red" d="M239.015,-414.188C276.658,-454.443 374.191,-550.257 479.261,-585 603.784,-626.176 991.092,-605.696 1162.45,-594.115"/>
<polygon fill="red" stroke="red" points="1162.69,-597.607 1172.43,-593.435 1162.22,-590.623 1162.69,-597.607"/>
</g>
<!-- NetworkCapacity -->
<g id="node12" class="node"><title>NetworkCapacity</title>
<ellipse fill="none" stroke="black" cx="730.138" cy="-180" rx="72.5877" ry="18"/>
<text text-anchor="middle" x="730.138" y="-176.3" font-family="Times,serif" font-size="14.00">NetworkCapacity</text>
</g>
<!-- github.com/supermuesli/csdl@aws/ec2/A1Large.py@latest&#45;&gt;NetworkCapacity -->
<g id="edge11" class="edge"><title>github.com/supermuesli/csdl@aws/ec2/A1Large.py@latest&#45;&gt;NetworkCapacity</title>
<path fill="none" stroke="red" d="M239.871,-378.004C278.494,-338.993 376.648,-246.942 479.261,-207 532.804,-186.158 597.376,-179.613 647.466,-178.172"/>
<polygon fill="red" stroke="red" points="647.685,-181.668 657.604,-177.944 647.528,-174.67 647.685,-181.668"/>
</g>
<!-- NetworkUploadSpeed -->
<g id="node13" class="node"><title>NetworkUploadSpeed</title>
<ellipse fill="none" stroke="black" cx="730.138" cy="-126" rx="89.0842" ry="18"/>
<text text-anchor="middle" x="730.138" y="-122.3" font-family="Times,serif" font-size="14.00">NetworkUploadSpeed</text>
</g>
<!-- github.com/supermuesli/csdl@aws/ec2/A1Large.py@latest&#45;&gt;NetworkUploadSpeed -->
<g id="edge12" class="edge"><title>github.com/supermuesli/csdl@aws/ec2/A1Large.py@latest&#45;&gt;NetworkUploadSpeed</title>
<path fill="none" stroke="red" d="M235.044,-377.88C268.267,-331.06 364.521,-206.022 479.261,-153 526.964,-130.956 585.086,-123.677 633.266,-122.15"/>
<polygon fill="red" stroke="red" points="633.476,-125.646 643.389,-121.908 633.308,-118.648 633.476,-125.646"/>
</g>
<!-- NetworkDownloadSpeed -->
<g id="node14" class="node"><title>NetworkDownloadSpeed</title>
<ellipse fill="none" stroke="black" cx="730.138" cy="-72" rx="99.3824" ry="18"/>
<text text-anchor="middle" x="730.138" y="-68.3" font-family="Times,serif" font-size="14.00">NetworkDownloadSpeed</text>
</g>
<!-- github.com/supermuesli/csdl@aws/ec2/A1Large.py@latest&#45;&gt;NetworkDownloadSpeed -->
<g id="edge13" class="edge"><title>github.com/supermuesli/csdl@aws/ec2/A1Large.py@latest&#45;&gt;NetworkDownloadSpeed</title>
<path fill="none" stroke="red" d="M231.827,-377.884C260.153,-324.236 351.917,-165.768 479.261,-99 523.724,-75.6871 578.695,-67.8759 625.747,-66.3413"/>
<polygon fill="red" stroke="red" points="626.054,-69.8352 635.969,-66.1012 625.89,-62.8371 626.054,-69.8352"/>
</g>
<!-- github.com/supermuesli/csdl@aws/EBS.py@latest -->
<g id="node15" class="node"><title>github.com/supermuesli/csdl@aws/EBS.py@latest</title>
<ellipse fill="none" stroke="black" cx="730.138" cy="-650" rx="191.966" ry="18"/>
<text text-anchor="middle" x="730.138" y="-646.3" font-family="Times,serif" font-size="14.00">github.com/supermuesli/csdl@aws/EBS.py@latest</text>
</g>
<!-- github.com/supermuesli/csdl@aws/ec2/A1Large.py@latest&#45;&gt;github.com/supermuesli/csdl@aws/EBS.py@latest -->
<g id="edge14" class="edge"><title>github.com/supermuesli/csdl@aws/ec2/A1Large.py@latest&#45;&gt;github.com/supermuesli/csdl@aws/EBS.py@latest</title>
<path fill="none" stroke="red" d="M236.773,-414.009C272.204,-457.656 369.809,-569.087 479.261,-618 501.107,-627.763 525.029,-634.815 549.141,-639.868"/>
<polygon fill="red" stroke="red" points="548.624,-643.333 559.113,-641.845 549.985,-636.467 548.624,-643.333"/>
</g>
<!-- github.com/supermuesli/csdl@aws/ec2/ElasticIpAmount.py@latest -->
<g id="node17" class="node"><title>github.com/supermuesli/csdl@aws/ec2/ElasticIpAmount.py@latest</title>
<ellipse fill="none" stroke="black" cx="730.138" cy="-18" rx="250.756" ry="18"/>
<text text-anchor="middle" x="730.138" y="-14.3" font-family="Times,serif" font-size="14.00">github.com/supermuesli/csdl@aws/ec2/ElasticIpAmount.py@latest</text>
</g>
<!-- github.com/supermuesli/csdl@aws/ec2/A1Large.py@latest&#45;&gt;github.com/supermuesli/csdl@aws/ec2/ElasticIpAmount.py@latest -->
<g id="edge19" class="edge"><title>github.com/supermuesli/csdl@aws/ec2/A1Large.py@latest&#45;&gt;github.com/supermuesli/csdl@aws/ec2/ElasticIpAmount.py@latest</title>
<path fill="none" stroke="red" d="M229.62,-377.701C253.625,-317.67 339.029,-125.955 479.261,-45 488.591,-39.6135 498.447,-35.0148 508.639,-31.1022"/>
<polygon fill="red" stroke="red" points="509.865,-34.3805 518.088,-27.699 507.493,-27.7947 509.865,-34.3805"/>
</g>
<!-- github.com/supermuesli/csdl@aws/EBS.py@latest&#45;&gt;github.com/supermuesli/csdl@aws/regions/Region.py@latest -->
<g id="edge15" class="edge"><title>github.com/supermuesli/csdl@aws/EBS.py@latest&#45;&gt;github.com/supermuesli/csdl@aws/regions/Region.py@latest</title>
<path fill="none" stroke="red" d="M788.948,-667.165C846.341,-683.634 937.068,-708.135 1017.02,-723 1041.19,-727.495 1066.95,-731.39 1092.14,-734.713"/>
<polygon fill="red" stroke="red" points="1091.77,-738.194 1102.13,-736.006 1092.67,-731.252 1091.77,-738.194"/>
</g>
<!-- github.com/supermuesli/csdl@aws/EBS.py@latest&#45;&gt;StorageWriteSpeed -->
<g id="edge17" class="edge"><title>github.com/supermuesli/csdl@aws/EBS.py@latest&#45;&gt;StorageWriteSpeed</title>
<path fill="none" stroke="red" d="M869.64,-662.388C963.033,-670.741 1083.17,-681.486 1162.15,-688.55"/>
<polygon fill="red" stroke="red" points="1162.26,-692.074 1172.53,-689.479 1162.89,-685.102 1162.26,-692.074"/>
</g>
<!-- github.com/supermuesli/csdl@aws/EBS.py@latest&#45;&gt;StorageReadSpeed -->
<g id="edge18" class="edge"><title>github.com/supermuesli/csdl@aws/EBS.py@latest&#45;&gt;StorageReadSpeed</title>
<path fill="none" stroke="red" d="M846.922,-635.713C898.92,-629.326 961.042,-621.734 1017.02,-615 1066.86,-609.003 1122.83,-602.386 1166.89,-597.203"/>
<polygon fill="red" stroke="red" points="1167.44,-600.662 1176.97,-596.019 1166.63,-593.71 1167.44,-600.662"/>
</g>
<!-- Storage -->
<g id="node16" class="node"><title>Storage</title>
<ellipse fill="none" stroke="black" cx="1246.45" cy="-642" rx="37.8943" ry="18"/>
<text text-anchor="middle" x="1246.45" y="-638.3" font-family="Times,serif" font-size="14.00">Storage</text>
</g>
<!-- github.com/supermuesli/csdl@aws/EBS.py@latest&#45;&gt;Storage -->
<g id="edge16" class="edge"><title>github.com/supermuesli/csdl@aws/EBS.py@latest&#45;&gt;Storage</title>
<path fill="none" stroke="red" d="M919.363,-647.072C1019.89,-645.509 1135.59,-643.709 1198.58,-642.729"/>
<polygon fill="red" stroke="red" points="1198.66,-646.228 1208.6,-642.573 1198.55,-639.229 1198.66,-646.228"/>
</g>
</g>
</svg>
