<?xml version="1.0" encoding="UTF-8" standalone="no"?>
<!DOCTYPE svg PUBLIC "-//W3C//DTD SVG 1.1//EN"
 "http://www.w3.org/Graphics/SVG/1.1/DTD/svg11.dtd">
<!-- Generated by graphviz version 2.38.0 (20140413.2041)
 -->
<!-- Title: %3 Pages: 1 -->
<svg width="1639pt" height="759pt"
 viewBox="0.00 0.00 1639.46 759.02" xmlns="http://www.w3.org/2000/svg" xmlns:xlink="http://www.w3.org/1999/xlink">
<g id="graph0" class="graph" transform="scale(1 1) rotate(0) translate(4 755.018)">
<title>%3</title>
<polygon fill="white" stroke="none" points="-4,4 -4,-755.018 1635.46,-755.018 1635.46,4 -4,4"/>
<!-- github.com/supermuesli/csdl@aws/ec2/A1Large.py@latest -->
<g id="node1" class="node"><title>github.com/supermuesli/csdl@aws/ec2/A1Large.py@latest</title>
<ellipse fill="none" stroke="black" cx="221.63" cy="-369" rx="221.761" ry="18"/>
<text text-anchor="middle" x="221.63" y="-365.3" font-family="Times,serif" font-size="14.00">github.com/supermuesli/csdl@aws/ec2/A1Large.py@latest</text>
</g>
<!-- Price -->
<g id="node2" class="node"><title>Price</title>
<ellipse fill="none" stroke="black" cx="1246.45" cy="-712" rx="28.6953" ry="18"/>
<text text-anchor="middle" x="1246.45" y="-708.3" font-family="Times,serif" font-size="14.00">Price</text>
</g>
<!-- github.com/supermuesli/csdl@aws/ec2/A1Large.py@latest&#45;&gt;Price -->
<g id="edge1" class="edge"><title>github.com/supermuesli/csdl@aws/ec2/A1Large.py@latest&#45;&gt;Price</title>
<path fill="none" stroke="red" d="M231.377,-387.348C258.762,-442.409 348.863,-606.403 479.261,-671 733.335,-796.864 1094.59,-741.77 1209.14,-719.624"/>
<polygon fill="red" stroke="red" points="1210.01,-723.021 1219.14,-717.653 1208.65,-716.154 1210.01,-723.021"/>
</g>
<!-- github.com/supermuesli/csdl@aws/regions/Region.py@latest -->
<g id="node4" class="node"><title>github.com/supermuesli/csdl@aws/regions/Region.py@latest</title>
<ellipse fill="none" stroke="black" cx="1246.45" cy="-658" rx="229.359" ry="18"/>
<text text-anchor="middle" x="1246.45" y="-654.3" font-family="Times,serif" font-size="14.00">github.com/supermuesli/csdl@aws/regions/Region.py@latest</text>
</g>
<!-- github.com/supermuesli/csdl@aws/ec2/A1Large.py@latest&#45;&gt;github.com/supermuesli/csdl@aws/regions/Region.py@latest -->
<g id="edge3" class="edge"><title>github.com/supermuesli/csdl@aws/ec2/A1Large.py@latest&#45;&gt;github.com/supermuesli/csdl@aws/regions/Region.py@latest</title>
<path fill="none" stroke="red" d="M232.699,-387.047C262.406,-438.208 355.429,-584.028 479.261,-639 578.576,-683.088 863.035,-678.654 1055.97,-669.666"/>
<polygon fill="red" stroke="red" points="1056.41,-673.149 1066.24,-669.179 1056.08,-666.156 1056.41,-673.149"/>
</g>
<!-- OperatingSystem -->
<g id="node5" class="node"><title>OperatingSystem</title>
<ellipse fill="none" stroke="black" cx="730.138" cy="-558" rx="72.2875" ry="18"/>
<text text-anchor="middle" x="730.138" y="-554.3" font-family="Times,serif" font-size="14.00">OperatingSystem</text>
</g>
<!-- github.com/supermuesli/csdl@aws/ec2/A1Large.py@latest&#45;&gt;OperatingSystem -->
<g id="edge4" class="edge"><title>github.com/supermuesli/csdl@aws/ec2/A1Large.py@latest&#45;&gt;OperatingSystem</title>
<path fill="none" stroke="red" d="M243.513,-386.984C285.131,-421.672 382.74,-497.36 479.261,-531 533.42,-549.876 597.839,-556.486 647.704,-558.45"/>
<polygon fill="red" stroke="red" points="647.682,-561.951 657.795,-558.792 647.919,-554.955 647.682,-561.951"/>
</g>
<!-- CpuCores -->
<g id="node6" class="node"><title>CpuCores</title>
<ellipse fill="none" stroke="black" cx="730.138" cy="-504" rx="46.2923" ry="18"/>
<text text-anchor="middle" x="730.138" y="-500.3" font-family="Times,serif" font-size="14.00">CpuCores</text>
</g>
<!-- github.com/supermuesli/csdl@aws/ec2/A1Large.py@latest&#45;&gt;CpuCores -->
<g id="edge5" class="edge"><title>github.com/supermuesli/csdl@aws/ec2/A1Large.py@latest&#45;&gt;CpuCores</title>
<path fill="none" stroke="red" d="M256.385,-386.971C304.427,-411.663 395.957,-455.464 479.261,-477 544.67,-493.91 622.364,-500.242 673.556,-502.605"/>
<polygon fill="red" stroke="red" points="673.606,-506.111 683.746,-503.04 673.904,-499.117 673.606,-506.111"/>
</g>
<!-- CpuClockSpeed -->
<g id="node7" class="node"><title>CpuClockSpeed</title>
<ellipse fill="none" stroke="black" cx="730.138" cy="-450" rx="67.6881" ry="18"/>
<text text-anchor="middle" x="730.138" y="-446.3" font-family="Times,serif" font-size="14.00">CpuClockSpeed</text>
</g>
<!-- github.com/supermuesli/csdl@aws/ec2/A1Large.py@latest&#45;&gt;CpuClockSpeed -->
<g id="edge6" class="edge"><title>github.com/supermuesli/csdl@aws/ec2/A1Large.py@latest&#45;&gt;CpuClockSpeed</title>
<path fill="none" stroke="red" d="M294.178,-386.055C345.459,-397.789 416.308,-413.001 479.261,-423 538.123,-432.349 605.308,-439.408 655.177,-443.959"/>
<polygon fill="red" stroke="red" points="654.956,-447.453 665.23,-444.864 655.584,-440.481 654.956,-447.453"/>
</g>
<!-- Ram -->
<g id="node8" class="node"><title>Ram</title>
<ellipse fill="none" stroke="black" cx="730.138" cy="-396" rx="27.8951" ry="18"/>
<text text-anchor="middle" x="730.138" y="-392.3" font-family="Times,serif" font-size="14.00">Ram</text>
</g>
<!-- github.com/supermuesli/csdl@aws/ec2/A1Large.py@latest&#45;&gt;Ram -->
<g id="edge7" class="edge"><title>github.com/supermuesli/csdl@aws/ec2/A1Large.py@latest&#45;&gt;Ram</title>
<path fill="none" stroke="red" d="M407.283,-378.843C511.568,-384.402 632.639,-390.856 692.186,-394.03"/>
<polygon fill="red" stroke="red" points="692.057,-397.528 702.229,-394.566 692.43,-390.538 692.057,-397.528"/>
</g>
<!-- RamClockSpeed -->
<g id="node9" class="node"><title>RamClockSpeed</title>
<ellipse fill="none" stroke="black" cx="730.138" cy="-342" rx="70.3881" ry="18"/>
<text text-anchor="middle" x="730.138" y="-338.3" font-family="Times,serif" font-size="14.00">RamClockSpeed</text>
</g>
<!-- github.com/supermuesli/csdl@aws/ec2/A1Large.py@latest&#45;&gt;RamClockSpeed -->
<g id="edge8" class="edge"><title>github.com/supermuesli/csdl@aws/ec2/A1Large.py@latest&#45;&gt;RamClockSpeed</title>
<path fill="none" stroke="red" d="M407.283,-359.157C491.283,-354.679 586.174,-349.621 651.03,-346.164"/>
<polygon fill="red" stroke="red" points="651.376,-349.65 661.175,-345.623 651.003,-342.66 651.376,-349.65"/>
</g>
<!-- RamWriteSpeed -->
<g id="node10" class="node"><title>RamWriteSpeed</title>
<ellipse fill="none" stroke="black" cx="730.138" cy="-288" rx="69.5877" ry="18"/>
<text text-anchor="middle" x="730.138" y="-284.3" font-family="Times,serif" font-size="14.00">RamWriteSpeed</text>
</g>
<!-- github.com/supermuesli/csdl@aws/ec2/A1Large.py@latest&#45;&gt;RamWriteSpeed -->
<g id="edge9" class="edge"><title>github.com/supermuesli/csdl@aws/ec2/A1Large.py@latest&#45;&gt;RamWriteSpeed</title>
<path fill="none" stroke="red" d="M294.178,-351.945C345.459,-340.211 416.308,-324.999 479.261,-315 537.417,-305.763 603.698,-298.762 653.377,-294.206"/>
<polygon fill="red" stroke="red" points="653.756,-297.686 663.4,-293.299 653.125,-290.714 653.756,-297.686"/>
</g>
<!-- RamReadSpeed -->
<g id="node11" class="node"><title>RamReadSpeed</title>
<ellipse fill="none" stroke="black" cx="730.138" cy="-234" rx="67.6881" ry="18"/>
<text text-anchor="middle" x="730.138" y="-230.3" font-family="Times,serif" font-size="14.00">RamReadSpeed</text>
</g>
<!-- github.com/supermuesli/csdl@aws/ec2/A1Large.py@latest&#45;&gt;RamReadSpeed -->
<g id="edge10" class="edge"><title>github.com/supermuesli/csdl@aws/ec2/A1Large.py@latest&#45;&gt;RamReadSpeed</title>
<path fill="none" stroke="red" d="M256.385,-351.029C304.427,-326.337 395.957,-282.536 479.261,-261 536.272,-246.261 602.615,-239.559 652.608,-236.515"/>
<polygon fill="red" stroke="red" points="652.917,-240.003 662.7,-235.937 652.516,-233.015 652.917,-240.003"/>
</g>
<!-- NetworkCapacity -->
<g id="node12" class="node"><title>NetworkCapacity</title>
<ellipse fill="none" stroke="black" cx="730.138" cy="-180" rx="72.5877" ry="18"/>
<text text-anchor="middle" x="730.138" y="-176.3" font-family="Times,serif" font-size="14.00">NetworkCapacity</text>
</g>
<!-- github.com/supermuesli/csdl@aws/ec2/A1Large.py@latest&#45;&gt;NetworkCapacity -->
<g id="edge11" class="edge"><title>github.com/supermuesli/csdl@aws/ec2/A1Large.py@latest&#45;&gt;NetworkCapacity</title>
<path fill="none" stroke="red" d="M243.513,-351.016C285.131,-316.328 382.74,-240.64 479.261,-207 533.227,-188.191 597.381,-181.561 647.171,-179.571"/>
<polygon fill="red" stroke="red" points="647.376,-183.066 657.249,-179.223 647.135,-176.07 647.376,-183.066"/>
</g>
<!-- NetworkUploadSpeed -->
<g id="node13" class="node"><title>NetworkUploadSpeed</title>
<ellipse fill="none" stroke="black" cx="730.138" cy="-126" rx="89.0842" ry="18"/>
<text text-anchor="middle" x="730.138" y="-122.3" font-family="Times,serif" font-size="14.00">NetworkUploadSpeed</text>
</g>
<!-- github.com/supermuesli/csdl@aws/ec2/A1Large.py@latest&#45;&gt;NetworkUploadSpeed -->
<g id="edge12" class="edge"><title>github.com/supermuesli/csdl@aws/ec2/A1Large.py@latest&#45;&gt;NetworkUploadSpeed</title>
<path fill="none" stroke="red" d="M237.095,-351.029C272.876,-308.046 370.544,-199.432 479.261,-153 527.026,-132.6 584.396,-125.334 632.111,-123.398"/>
<polygon fill="red" stroke="red" points="632.262,-126.895 642.14,-123.063 632.028,-119.898 632.262,-126.895"/>
</g>
<!-- NetworkDownloadSpeed -->
<g id="node14" class="node"><title>NetworkDownloadSpeed</title>
<ellipse fill="none" stroke="black" cx="730.138" cy="-72" rx="99.3824" ry="18"/>
<text text-anchor="middle" x="730.138" y="-68.3" font-family="Times,serif" font-size="14.00">NetworkDownloadSpeed</text>
</g>
<!-- github.com/supermuesli/csdl@aws/ec2/A1Large.py@latest&#45;&gt;NetworkDownloadSpeed -->
<g id="edge13" class="edge"><title>github.com/supermuesli/csdl@aws/ec2/A1Large.py@latest&#45;&gt;NetworkDownloadSpeed</title>
<path fill="none" stroke="red" d="M233.373,-350.736C264.175,-300.279 358.391,-158.766 479.261,-99 523.626,-77.0629 577.732,-69.2648 624.237,-67.3831"/>
<polygon fill="red" stroke="red" points="624.461,-70.8778 634.345,-67.0612 624.238,-63.8814 624.461,-70.8778"/>
</g>
<!-- github.com/supermuesli/csdl@aws/EBS.py@latest -->
<g id="node15" class="node"><title>github.com/supermuesli/csdl@aws/EBS.py@latest</title>
<ellipse fill="none" stroke="black" cx="730.138" cy="-612" rx="191.966" ry="18"/>
<text text-anchor="middle" x="730.138" y="-608.3" font-family="Times,serif" font-size="14.00">github.com/supermuesli/csdl@aws/EBS.py@latest</text>
</g>
<!-- github.com/supermuesli/csdl@aws/ec2/A1Large.py@latest&#45;&gt;github.com/supermuesli/csdl@aws/EBS.py@latest -->
<g id="edge14" class="edge"><title>github.com/supermuesli/csdl@aws/ec2/A1Large.py@latest&#45;&gt;github.com/supermuesli/csdl@aws/EBS.py@latest</title>
<path fill="none" stroke="red" d="M237.095,-386.971C272.876,-429.954 370.544,-538.568 479.261,-585 498.4,-593.174 519.081,-599.24 540.066,-603.699"/>
<polygon fill="red" stroke="red" points="539.561,-607.167 550.054,-605.698 540.936,-600.303 539.561,-607.167"/>
</g>
<!-- github.com/supermuesli/csdl@aws/ec2/ElasticIpAmount.py@latest -->
<g id="node19" class="node"><title>github.com/supermuesli/csdl@aws/ec2/ElasticIpAmount.py@latest</title>
<ellipse fill="none" stroke="black" cx="730.138" cy="-18" rx="250.756" ry="18"/>
<text text-anchor="middle" x="730.138" y="-14.3" font-family="Times,serif" font-size="14.00">github.com/supermuesli/csdl@aws/ec2/ElasticIpAmount.py@latest</text>
</g>
<!-- github.com/supermuesli/csdl@aws/ec2/A1Large.py@latest&#45;&gt;github.com/supermuesli/csdl@aws/ec2/ElasticIpAmount.py@latest -->
<g id="edge21" class="edge"><title>github.com/supermuesli/csdl@aws/ec2/A1Large.py@latest&#45;&gt;github.com/supermuesli/csdl@aws/ec2/ElasticIpAmount.py@latest</title>
<path fill="none" stroke="red" d="M230.593,-350.898C256.647,-294.106 345.443,-118.849 479.261,-45 489.085,-39.5782 499.457,-34.9732 510.168,-31.0757"/>
<polygon fill="red" stroke="red" points="511.333,-34.3766 519.663,-27.83 509.068,-27.753 511.333,-34.3766"/>
</g>
<!-- PricingModel -->
<g id="node3" class="node"><title>PricingModel</title>
<ellipse fill="none" stroke="black" cx="1571.67" cy="-712" rx="59.5901" ry="18"/>
<text text-anchor="middle" x="1571.67" y="-708.3" font-family="Times,serif" font-size="14.00">PricingModel</text>
</g>
<!-- Price&#45;&gt;PricingModel -->
<g id="edge2" class="edge"><title>Price&#45;&gt;PricingModel</title>
<path fill="none" stroke="red" d="M1274.45,-708.054C1324.56,-704.977 1433.27,-704.433 1504.14,-706.42"/>
<polygon fill="red" stroke="red" points="1504.2,-709.923 1514.31,-706.731 1504.42,-702.926 1504.2,-709.923"/>
</g>
<!-- Price&#45;&gt;PricingModel -->
<g id="edge16" class="edge"><title>Price&#45;&gt;PricingModel</title>
<path fill="none" stroke="red" d="M1274.45,-715.946C1324.56,-719.023 1433.27,-719.567 1504.14,-717.58"/>
<polygon fill="red" stroke="red" points="1504.42,-721.074 1514.31,-717.269 1504.2,-714.077 1504.42,-721.074"/>
</g>
<!-- github.com/supermuesli/csdl@aws/EBS.py@latest&#45;&gt;Price -->
<g id="edge15" class="edge"><title>github.com/supermuesli/csdl@aws/EBS.py@latest&#45;&gt;Price</title>
<path fill="none" stroke="red" d="M788.948,-629.165C846.341,-645.634 937.068,-670.135 1017.02,-685 1083.67,-697.393 1162.38,-705.224 1207.85,-709.092"/>
<polygon fill="red" stroke="red" points="1207.59,-712.583 1217.84,-709.924 1208.17,-705.607 1207.59,-712.583"/>
</g>
<!-- github.com/supermuesli/csdl@aws/EBS.py@latest&#45;&gt;github.com/supermuesli/csdl@aws/regions/Region.py@latest -->
<g id="edge17" class="edge"><title>github.com/supermuesli/csdl@aws/EBS.py@latest&#45;&gt;github.com/supermuesli/csdl@aws/regions/Region.py@latest</title>
<path fill="none" stroke="red" d="M869.64,-624.388C935.854,-630.31 1015.51,-637.435 1084.41,-643.597"/>
<polygon fill="red" stroke="red" points="1084.23,-647.094 1094.5,-644.499 1084.85,-640.122 1084.23,-647.094"/>
</g>
<!-- Storage -->
<g id="node16" class="node"><title>Storage</title>
<ellipse fill="none" stroke="black" cx="1246.45" cy="-604" rx="37.8943" ry="18"/>
<text text-anchor="middle" x="1246.45" y="-600.3" font-family="Times,serif" font-size="14.00">Storage</text>
</g>
<!-- github.com/supermuesli/csdl@aws/EBS.py@latest&#45;&gt;Storage -->
<g id="edge18" class="edge"><title>github.com/supermuesli/csdl@aws/EBS.py@latest&#45;&gt;Storage</title>
<path fill="none" stroke="red" d="M919.363,-609.072C1019.89,-607.509 1135.59,-605.709 1198.58,-604.729"/>
<polygon fill="red" stroke="red" points="1198.66,-608.228 1208.6,-604.573 1198.55,-601.229 1198.66,-608.228"/>
</g>
<!-- StorageWriteSpeed -->
<g id="node17" class="node"><title>StorageWriteSpeed</title>
<ellipse fill="none" stroke="black" cx="1246.45" cy="-550" rx="79.0865" ry="18"/>
<text text-anchor="middle" x="1246.45" y="-546.3" font-family="Times,serif" font-size="14.00">StorageWriteSpeed</text>
</g>
<!-- github.com/supermuesli/csdl@aws/EBS.py@latest&#45;&gt;StorageWriteSpeed -->
<g id="edge19" class="edge"><title>github.com/supermuesli/csdl@aws/EBS.py@latest&#45;&gt;StorageWriteSpeed</title>
<path fill="none" stroke="red" d="M870.617,-599.698C906.685,-595.759 945.388,-590.865 981.016,-585 997.189,-582.338 1000.86,-579.743 1017.02,-577 1065.05,-568.846 1119.18,-562.332 1162.68,-557.746"/>
<polygon fill="red" stroke="red" points="1163.06,-561.226 1172.65,-556.71 1162.34,-554.263 1163.06,-561.226"/>
</g>
<!-- StorageReadSpeed -->
<g id="node18" class="node"><title>StorageReadSpeed</title>
<ellipse fill="none" stroke="black" cx="1246.45" cy="-496" rx="77.1866" ry="18"/>
<text text-anchor="middle" x="1246.45" y="-492.3" font-family="Times,serif" font-size="14.00">StorageReadSpeed</text>
</g>
<!-- github.com/supermuesli/csdl@aws/EBS.py@latest&#45;&gt;StorageReadSpeed -->
<g id="edge20" class="edge"><title>github.com/supermuesli/csdl@aws/EBS.py@latest&#45;&gt;StorageReadSpeed</title>
<path fill="none" stroke="red" d="M921.569,-610.523C942.661,-604.911 962.996,-596.708 981.016,-585 1007.74,-567.64 990.384,-540.494 1017.02,-523 1060.39,-494.506 1118.6,-487.984 1165.4,-488.47"/>
<polygon fill="red" stroke="red" points="1165.44,-491.971 1175.51,-488.684 1165.59,-484.973 1165.44,-491.971"/>
</g>
</g>
</svg>
