<?xml version="1.0" encoding="UTF-8" standalone="no"?>
<!DOCTYPE svg PUBLIC "-//W3C//DTD SVG 1.1//EN"
 "http://www.w3.org/Graphics/SVG/1.1/DTD/svg11.dtd">
<!-- Generated by graphviz version 2.38.0 (20140413.2041)
 -->
<!-- Title: %3 Pages: 1 -->
<svg width="1521pt" height="260pt"
 viewBox="0.00 0.00 1521.18 260.00" xmlns="http://www.w3.org/2000/svg" xmlns:xlink="http://www.w3.org/1999/xlink">
<g id="graph0" class="graph" transform="scale(1 1) rotate(0) translate(4 256)">
<title>%3</title>
<polygon fill="white" stroke="none" points="-4,4 -4,-256 1517.18,-256 1517.18,4 -4,4"/>
<!-- github.com/supermuesli/csdl@aws/ec2/A1Large.py@latest -->
<g id="node1" class="node"><title>github.com/supermuesli/csdl@aws/ec2/A1Large.py@latest</title>
<ellipse fill="none" stroke="black" cx="221.63" cy="-180" rx="221.761" ry="18"/>
<text text-anchor="middle" x="221.63" y="-176.3" font-family="Times,serif" font-size="14.00">github.com/supermuesli/csdl@aws/ec2/A1Large.py@latest</text>
</g>
<!-- CpuCores -->
<g id="node2" class="node"><title>CpuCores</title>
<ellipse fill="none" stroke="black" cx="670.994" cy="-234" rx="46.2923" ry="18"/>
<text text-anchor="middle" x="670.994" y="-230.3" font-family="Times,serif" font-size="14.00">CpuCores</text>
</g>
<!-- github.com/supermuesli/csdl@aws/ec2/A1Large.py@latest&#45;&gt;CpuCores -->
<g id="edge1" class="edge"><title>github.com/supermuesli/csdl@aws/ec2/A1Large.py@latest&#45;&gt;CpuCores</title>
<path fill="none" stroke="red" d="M346.059,-194.899C434.804,-205.611 550.097,-219.528 616.491,-227.542"/>
<polygon fill="red" stroke="red" points="616.368,-231.052 626.715,-228.776 617.207,-224.103 616.368,-231.052"/>
</g>
<!-- Ram -->
<g id="node3" class="node"><title>Ram</title>
<ellipse fill="none" stroke="black" cx="670.994" cy="-180" rx="27.8951" ry="18"/>
<text text-anchor="middle" x="670.994" y="-176.3" font-family="Times,serif" font-size="14.00">Ram</text>
</g>
<!-- github.com/supermuesli/csdl@aws/ec2/A1Large.py@latest&#45;&gt;Ram -->
<g id="edge2" class="edge"><title>github.com/supermuesli/csdl@aws/ec2/A1Large.py@latest&#45;&gt;Ram</title>
<path fill="none" stroke="red" d="M443.363,-180C516.489,-180 590.035,-180 632.733,-180"/>
<polygon fill="red" stroke="red" points="632.905,-183.5 642.905,-180 632.904,-176.5 632.905,-183.5"/>
</g>
<!-- github.com/supermuesli/csdl@aws/EBS.py@latest -->
<g id="node4" class="node"><title>github.com/supermuesli/csdl@aws/EBS.py@latest</title>
<ellipse fill="none" stroke="black" cx="670.994" cy="-126" rx="191.966" ry="18"/>
<text text-anchor="middle" x="670.994" y="-122.3" font-family="Times,serif" font-size="14.00">github.com/supermuesli/csdl@aws/EBS.py@latest</text>
</g>
<!-- github.com/supermuesli/csdl@aws/ec2/A1Large.py@latest&#45;&gt;github.com/supermuesli/csdl@aws/EBS.py@latest -->
<g id="edge3" class="edge"><title>github.com/supermuesli/csdl@aws/ec2/A1Large.py@latest&#45;&gt;github.com/supermuesli/csdl@aws/EBS.py@latest</title>
<path fill="none" stroke="red" d="M346.059,-165.101C407.061,-157.738 480.606,-148.861 542.191,-141.427"/>
<polygon fill="red" stroke="red" points="542.852,-144.872 552.361,-140.199 542.013,-137.923 542.852,-144.872"/>
</g>
<!-- Price -->
<g id="node5" class="node"><title>Price</title>
<ellipse fill="none" stroke="black" cx="1128.16" cy="-234" rx="28.6953" ry="18"/>
<text text-anchor="middle" x="1128.16" y="-230.3" font-family="Times,serif" font-size="14.00">Price</text>
</g>
<!-- github.com/supermuesli/csdl@aws/EBS.py@latest&#45;&gt;Price -->
<g id="edge4" class="edge"><title>github.com/supermuesli/csdl@aws/EBS.py@latest&#45;&gt;Price</title>
<path fill="none" stroke="red" d="M827.484,-136.5C839.896,-140.736 851.829,-146.142 862.727,-153 887.139,-168.364 874.139,-191.918 898.727,-207 957.748,-243.204 1041.61,-242.752 1089.58,-238.69"/>
<polygon fill="red" stroke="red" points="1090.2,-242.148 1099.83,-237.721 1089.54,-235.179 1090.2,-242.148"/>
</g>
<!-- github.com/supermuesli/csdl@aws/regions/Region.py@latest -->
<g id="node7" class="node"><title>github.com/supermuesli/csdl@aws/regions/Region.py@latest</title>
<ellipse fill="none" stroke="black" cx="1128.16" cy="-180" rx="229.359" ry="18"/>
<text text-anchor="middle" x="1128.16" y="-176.3" font-family="Times,serif" font-size="14.00">github.com/supermuesli/csdl@aws/regions/Region.py@latest</text>
</g>
<!-- github.com/supermuesli/csdl@aws/EBS.py@latest&#45;&gt;github.com/supermuesli/csdl@aws/regions/Region.py@latest -->
<g id="edge6" class="edge"><title>github.com/supermuesli/csdl@aws/EBS.py@latest&#45;&gt;github.com/supermuesli/csdl@aws/regions/Region.py@latest</title>
<path fill="none" stroke="red" d="M790.255,-140.103C825.185,-144.263 863.495,-148.82 898.727,-153 928.298,-156.508 960.024,-160.264 990.14,-163.825"/>
<polygon fill="red" stroke="red" points="989.945,-167.326 1000.29,-165.024 990.767,-160.374 989.945,-167.326"/>
</g>
<!-- Storage -->
<g id="node8" class="node"><title>Storage</title>
<ellipse fill="none" stroke="black" cx="1128.16" cy="-126" rx="37.8943" ry="18"/>
<text text-anchor="middle" x="1128.16" y="-122.3" font-family="Times,serif" font-size="14.00">Storage</text>
</g>
<!-- github.com/supermuesli/csdl@aws/EBS.py@latest&#45;&gt;Storage -->
<g id="edge7" class="edge"><title>github.com/supermuesli/csdl@aws/EBS.py@latest&#45;&gt;Storage</title>
<path fill="none" stroke="red" d="M863.045,-126C942.706,-126 1028.5,-126 1080,-126"/>
<polygon fill="red" stroke="red" points="1080.14,-129.5 1090.14,-126 1080.14,-122.5 1080.14,-129.5"/>
</g>
<!-- StorageWriteSpeed -->
<g id="node9" class="node"><title>StorageWriteSpeed</title>
<ellipse fill="none" stroke="black" cx="1128.16" cy="-72" rx="79.0865" ry="18"/>
<text text-anchor="middle" x="1128.16" y="-68.3" font-family="Times,serif" font-size="14.00">StorageWriteSpeed</text>
</g>
<!-- github.com/supermuesli/csdl@aws/EBS.py@latest&#45;&gt;StorageWriteSpeed -->
<g id="edge8" class="edge"><title>github.com/supermuesli/csdl@aws/EBS.py@latest&#45;&gt;StorageWriteSpeed</title>
<path fill="none" stroke="red" d="M790.255,-111.897C825.185,-107.737 863.495,-103.18 898.727,-99 948.117,-93.1403 1003.52,-86.5914 1047.39,-81.4109"/>
<polygon fill="red" stroke="red" points="1047.9,-84.8747 1057.42,-80.2262 1047.08,-77.923 1047.9,-84.8747"/>
</g>
<!-- StorageReadSpeed -->
<g id="node10" class="node"><title>StorageReadSpeed</title>
<ellipse fill="none" stroke="black" cx="1128.16" cy="-18" rx="77.1866" ry="18"/>
<text text-anchor="middle" x="1128.16" y="-14.3" font-family="Times,serif" font-size="14.00">StorageReadSpeed</text>
</g>
<!-- github.com/supermuesli/csdl@aws/EBS.py@latest&#45;&gt;StorageReadSpeed -->
<g id="edge9" class="edge"><title>github.com/supermuesli/csdl@aws/EBS.py@latest&#45;&gt;StorageReadSpeed</title>
<path fill="none" stroke="red" d="M712.527,-108.371C757.253,-89.6697 831.783,-60.7017 898.727,-45 945.887,-33.9385 999.642,-27.2976 1043.15,-23.3716"/>
<polygon fill="red" stroke="red" points="1043.47,-26.8575 1053.13,-22.5028 1042.86,-19.8839 1043.47,-26.8575"/>
</g>
<!-- PricingModel -->
<g id="node6" class="node"><title>PricingModel</title>
<ellipse fill="none" stroke="black" cx="1453.38" cy="-234" rx="59.5901" ry="18"/>
<text text-anchor="middle" x="1453.38" y="-230.3" font-family="Times,serif" font-size="14.00">PricingModel</text>
</g>
<!-- Price&#45;&gt;PricingModel -->
<g id="edge5" class="edge"><title>Price&#45;&gt;PricingModel</title>
<path fill="none" stroke="red" d="M1156.99,-234C1206.84,-234 1312.69,-234 1383.19,-234"/>
<polygon fill="red" stroke="red" points="1383.32,-237.5 1393.32,-234 1383.32,-230.5 1383.32,-237.5"/>
</g>
</g>
</svg>
