<?xml version="1.0" encoding="UTF-8" standalone="no"?>
<!DOCTYPE svg PUBLIC "-//W3C//DTD SVG 1.1//EN"
 "http://www.w3.org/Graphics/SVG/1.1/DTD/svg11.dtd">
<!-- Generated by graphviz version 2.38.0 (20140413.2041)
 -->
<!-- Title: %3 Pages: 1 -->
<svg width="1184pt" height="719pt"
 viewBox="0.00 0.00 1183.60 719.00" xmlns="http://www.w3.org/2000/svg" xmlns:xlink="http://www.w3.org/1999/xlink">
<g id="graph0" class="graph" transform="scale(1 1) rotate(0) translate(4 715)">
<title>%3</title>
<polygon fill="white" stroke="none" points="-4,4 -4,-715 1179.6,-715 1179.6,4 -4,4"/>
<!-- github.com/supermuesli/csdl@aws/ec2/A1Large.py@latest -->
<g id="node1" class="node"><title>github.com/supermuesli/csdl@aws/ec2/A1Large.py@latest</title>
<ellipse fill="none" stroke="black" cx="221.63" cy="-369" rx="221.761" ry="18"/>
<text text-anchor="middle" x="221.63" y="-365.3" font-family="Times,serif" font-size="14.00">github.com/supermuesli/csdl@aws/ec2/A1Large.py@latest</text>
</g>
<!-- github.com/supermuesli/csdl@aws/Region.py@latest -->
<g id="node2" class="node"><title>github.com/supermuesli/csdl@aws/Region.py@latest</title>
<ellipse fill="none" stroke="black" cx="730.138" cy="-693" rx="200.665" ry="18"/>
<text text-anchor="middle" x="730.138" y="-689.3" font-family="Times,serif" font-size="14.00">github.com/supermuesli/csdl@aws/Region.py@latest</text>
</g>
<!-- github.com/supermuesli/csdl@aws/ec2/A1Large.py@latest&#45;&gt;github.com/supermuesli/csdl@aws/Region.py@latest -->
<g id="edge1" class="edge"><title>github.com/supermuesli/csdl@aws/ec2/A1Large.py@latest&#45;&gt;github.com/supermuesli/csdl@aws/Region.py@latest</title>
<path fill="none" stroke="red" d="M231.827,-387.116C260.153,-440.764 351.917,-599.232 479.261,-666 494.605,-674.045 511.201,-680.245 528.291,-684.977"/>
<polygon fill="red" stroke="red" points="527.847,-688.477 538.405,-687.596 529.602,-681.701 527.847,-688.477"/>
</g>
<!-- OperatingSystem -->
<g id="node3" class="node"><title>OperatingSystem</title>
<ellipse fill="none" stroke="black" cx="730.138" cy="-639" rx="72.2875" ry="18"/>
<text text-anchor="middle" x="730.138" y="-635.3" font-family="Times,serif" font-size="14.00">OperatingSystem</text>
</g>
<!-- github.com/supermuesli/csdl@aws/ec2/A1Large.py@latest&#45;&gt;OperatingSystem -->
<g id="edge2" class="edge"><title>github.com/supermuesli/csdl@aws/ec2/A1Large.py@latest&#45;&gt;OperatingSystem</title>
<path fill="none" stroke="red" d="M235.044,-387.12C268.267,-433.94 364.521,-558.978 479.261,-612 532.437,-636.573 598.56,-642.799 649.426,-643.162"/>
<polygon fill="red" stroke="red" points="649.714,-646.662 659.713,-643.158 649.711,-639.662 649.714,-646.662"/>
</g>
<!-- CpuCores -->
<g id="node4" class="node"><title>CpuCores</title>
<ellipse fill="none" stroke="black" cx="730.138" cy="-585" rx="46.2923" ry="18"/>
<text text-anchor="middle" x="730.138" y="-581.3" font-family="Times,serif" font-size="14.00">CpuCores</text>
</g>
<!-- github.com/supermuesli/csdl@aws/ec2/A1Large.py@latest&#45;&gt;CpuCores -->
<g id="edge3" class="edge"><title>github.com/supermuesli/csdl@aws/ec2/A1Large.py@latest&#45;&gt;CpuCores</title>
<path fill="none" stroke="red" d="M239.871,-386.996C278.494,-426.007 376.648,-518.058 479.261,-558 542.922,-582.781 622.176,-587.35 674.14,-587.16"/>
<polygon fill="red" stroke="red" points="674.19,-590.66 684.156,-587.063 674.122,-583.66 674.19,-590.66"/>
</g>
<!-- CpuClockSpeed -->
<g id="node5" class="node"><title>CpuClockSpeed</title>
<ellipse fill="none" stroke="black" cx="730.138" cy="-531" rx="67.6881" ry="18"/>
<text text-anchor="middle" x="730.138" y="-527.3" font-family="Times,serif" font-size="14.00">CpuClockSpeed</text>
</g>
<!-- github.com/supermuesli/csdl@aws/ec2/A1Large.py@latest&#45;&gt;CpuClockSpeed -->
<g id="edge4" class="edge"><title>github.com/supermuesli/csdl@aws/ec2/A1Large.py@latest&#45;&gt;CpuClockSpeed</title>
<path fill="none" stroke="red" d="M248.527,-386.911C293.275,-416.848 388.972,-476.47 479.261,-504 535.684,-521.204 602.197,-527.767 652.409,-530.13"/>
<polygon fill="red" stroke="red" points="652.407,-533.633 662.546,-530.561 652.704,-526.64 652.407,-533.633"/>
</g>
<!-- Ram -->
<g id="node6" class="node"><title>Ram</title>
<ellipse fill="none" stroke="black" cx="730.138" cy="-477" rx="27.8951" ry="18"/>
<text text-anchor="middle" x="730.138" y="-473.3" font-family="Times,serif" font-size="14.00">Ram</text>
</g>
<!-- github.com/supermuesli/csdl@aws/ec2/A1Large.py@latest&#45;&gt;Ram -->
<g id="edge5" class="edge"><title>github.com/supermuesli/csdl@aws/ec2/A1Large.py@latest&#45;&gt;Ram</title>
<path fill="none" stroke="red" d="M268.72,-386.602C319.526,-405.28 404.041,-434.228 479.261,-450 553.86,-465.642 642.998,-472.508 692.099,-475.293"/>
<polygon fill="red" stroke="red" points="692.065,-478.796 702.24,-475.841 692.443,-471.806 692.065,-478.796"/>
</g>
<!-- RamClockSpeed -->
<g id="node7" class="node"><title>RamClockSpeed</title>
<ellipse fill="none" stroke="black" cx="730.138" cy="-423" rx="70.3881" ry="18"/>
<text text-anchor="middle" x="730.138" y="-419.3" font-family="Times,serif" font-size="14.00">RamClockSpeed</text>
</g>
<!-- github.com/supermuesli/csdl@aws/ec2/A1Large.py@latest&#45;&gt;RamClockSpeed -->
<g id="edge6" class="edge"><title>github.com/supermuesli/csdl@aws/ec2/A1Large.py@latest&#45;&gt;RamClockSpeed</title>
<path fill="none" stroke="red" d="M356.704,-383.294C452.071,-393.461 576.646,-406.742 654.786,-415.073"/>
<polygon fill="red" stroke="red" points="654.708,-418.585 665.023,-416.164 655.45,-411.624 654.708,-418.585"/>
</g>
<!-- RamWriteSpeed -->
<g id="node8" class="node"><title>RamWriteSpeed</title>
<ellipse fill="none" stroke="black" cx="730.138" cy="-369" rx="69.5877" ry="18"/>
<text text-anchor="middle" x="730.138" y="-365.3" font-family="Times,serif" font-size="14.00">RamWriteSpeed</text>
</g>
<!-- github.com/supermuesli/csdl@aws/ec2/A1Large.py@latest&#45;&gt;RamWriteSpeed -->
<g id="edge7" class="edge"><title>github.com/supermuesli/csdl@aws/ec2/A1Large.py@latest&#45;&gt;RamWriteSpeed</title>
<path fill="none" stroke="red" d="M443.319,-369C517.103,-369 594.638,-369 650.307,-369"/>
<polygon fill="red" stroke="red" points="650.442,-372.5 660.442,-369 650.441,-365.5 650.442,-372.5"/>
</g>
<!-- RamReadSpeed -->
<g id="node9" class="node"><title>RamReadSpeed</title>
<ellipse fill="none" stroke="black" cx="730.138" cy="-315" rx="67.6881" ry="18"/>
<text text-anchor="middle" x="730.138" y="-311.3" font-family="Times,serif" font-size="14.00">RamReadSpeed</text>
</g>
<!-- github.com/supermuesli/csdl@aws/ec2/A1Large.py@latest&#45;&gt;RamReadSpeed -->
<g id="edge8" class="edge"><title>github.com/supermuesli/csdl@aws/ec2/A1Large.py@latest&#45;&gt;RamReadSpeed</title>
<path fill="none" stroke="red" d="M356.704,-354.706C452.912,-344.449 578.847,-331.023 656.843,-322.708"/>
<polygon fill="red" stroke="red" points="657.479,-326.16 667.052,-321.619 656.737,-319.199 657.479,-326.16"/>
</g>
<!-- NetworkCapacity -->
<g id="node10" class="node"><title>NetworkCapacity</title>
<ellipse fill="none" stroke="black" cx="730.138" cy="-261" rx="72.5877" ry="18"/>
<text text-anchor="middle" x="730.138" y="-257.3" font-family="Times,serif" font-size="14.00">NetworkCapacity</text>
</g>
<!-- github.com/supermuesli/csdl@aws/ec2/A1Large.py@latest&#45;&gt;NetworkCapacity -->
<g id="edge9" class="edge"><title>github.com/supermuesli/csdl@aws/ec2/A1Large.py@latest&#45;&gt;NetworkCapacity</title>
<path fill="none" stroke="red" d="M268.72,-351.398C319.526,-332.72 404.041,-303.772 479.261,-288 535.178,-276.275 599.263,-269.481 648.534,-265.641"/>
<polygon fill="red" stroke="red" points="649.106,-269.108 658.814,-264.866 648.579,-262.128 649.106,-269.108"/>
</g>
<!-- NetworkUploadSpeed -->
<g id="node11" class="node"><title>NetworkUploadSpeed</title>
<ellipse fill="none" stroke="black" cx="730.138" cy="-207" rx="89.0842" ry="18"/>
<text text-anchor="middle" x="730.138" y="-203.3" font-family="Times,serif" font-size="14.00">NetworkUploadSpeed</text>
</g>
<!-- github.com/supermuesli/csdl@aws/ec2/A1Large.py@latest&#45;&gt;NetworkUploadSpeed -->
<g id="edge10" class="edge"><title>github.com/supermuesli/csdl@aws/ec2/A1Large.py@latest&#45;&gt;NetworkUploadSpeed</title>
<path fill="none" stroke="red" d="M248.527,-351.089C293.275,-321.152 388.972,-261.53 479.261,-234 528.06,-219.121 584.407,-212.201 631.228,-209.074"/>
<polygon fill="red" stroke="red" points="631.61,-212.557 641.374,-208.445 631.177,-205.57 631.61,-212.557"/>
</g>
<!-- NetworkDownloadSpeed -->
<g id="node12" class="node"><title>NetworkDownloadSpeed</title>
<ellipse fill="none" stroke="black" cx="730.138" cy="-153" rx="99.3824" ry="18"/>
<text text-anchor="middle" x="730.138" y="-149.3" font-family="Times,serif" font-size="14.00">NetworkDownloadSpeed</text>
</g>
<!-- github.com/supermuesli/csdl@aws/ec2/A1Large.py@latest&#45;&gt;NetworkDownloadSpeed -->
<g id="edge11" class="edge"><title>github.com/supermuesli/csdl@aws/ec2/A1Large.py@latest&#45;&gt;NetworkDownloadSpeed</title>
<path fill="none" stroke="red" d="M239.871,-351.004C278.494,-311.993 376.648,-219.942 479.261,-180 523.679,-162.71 575.688,-155.259 620.722,-152.399"/>
<polygon fill="red" stroke="red" points="621.029,-155.888 630.814,-151.827 620.632,-148.899 621.029,-155.888"/>
</g>
<!-- github.com/supermuesli/csdl@aws/EBS.py@latest -->
<g id="node13" class="node"><title>github.com/supermuesli/csdl@aws/EBS.py@latest</title>
<ellipse fill="none" stroke="black" cx="730.138" cy="-99" rx="191.966" ry="18"/>
<text text-anchor="middle" x="730.138" y="-95.3" font-family="Times,serif" font-size="14.00">github.com/supermuesli/csdl@aws/EBS.py@latest</text>
</g>
<!-- github.com/supermuesli/csdl@aws/ec2/A1Large.py@latest&#45;&gt;github.com/supermuesli/csdl@aws/EBS.py@latest -->
<g id="edge12" class="edge"><title>github.com/supermuesli/csdl@aws/ec2/A1Large.py@latest&#45;&gt;github.com/supermuesli/csdl@aws/EBS.py@latest</title>
<path fill="none" stroke="red" d="M235.044,-350.88C268.267,-304.06 364.521,-179.022 479.261,-126 497.557,-117.545 517.386,-111.262 537.598,-106.643"/>
<polygon fill="red" stroke="red" points="538.504,-110.028 547.547,-104.507 537.035,-103.184 538.504,-110.028"/>
</g>
<!-- github.com/supermuesli/csdl@aws/ec2/ElasticIpAmount.py@latest -->
<g id="node18" class="node"><title>github.com/supermuesli/csdl@aws/ec2/ElasticIpAmount.py@latest</title>
<ellipse fill="none" stroke="black" cx="730.138" cy="-45" rx="250.756" ry="18"/>
<text text-anchor="middle" x="730.138" y="-41.3" font-family="Times,serif" font-size="14.00">github.com/supermuesli/csdl@aws/ec2/ElasticIpAmount.py@latest</text>
</g>
<!-- github.com/supermuesli/csdl@aws/ec2/A1Large.py@latest&#45;&gt;github.com/supermuesli/csdl@aws/ec2/ElasticIpAmount.py@latest -->
<g id="edge17" class="edge"><title>github.com/supermuesli/csdl@aws/ec2/A1Large.py@latest&#45;&gt;github.com/supermuesli/csdl@aws/ec2/ElasticIpAmount.py@latest</title>
<path fill="none" stroke="red" d="M231.827,-350.884C260.153,-297.236 351.917,-138.768 479.261,-72 489.601,-66.5784 500.51,-61.9951 511.755,-58.1342"/>
<polygon fill="red" stroke="red" points="512.835,-61.4634 521.275,-55.0584 510.683,-54.8024 512.835,-61.4634"/>
</g>
<!-- Region -->
<g id="node14" class="node"><title>Region</title>
<ellipse fill="none" stroke="black" cx="1096.31" cy="-180" rx="36.2938" ry="18"/>
<text text-anchor="middle" x="1096.31" y="-176.3" font-family="Times,serif" font-size="14.00">Region</text>
</g>
<!-- github.com/supermuesli/csdl@aws/EBS.py@latest&#45;&gt;Region -->
<g id="edge13" class="edge"><title>github.com/supermuesli/csdl@aws/EBS.py@latest&#45;&gt;Region</title>
<path fill="none" stroke="red" d="M907.093,-105.984C932.435,-110.422 957.777,-116.837 981.016,-126 999.622,-133.336 999.349,-143.626 1017.02,-153 1028.64,-159.168 1041.96,-164.377 1054.28,-168.524"/>
<polygon fill="red" stroke="red" points="1053.3,-171.886 1063.89,-171.621 1055.45,-165.223 1053.3,-171.886"/>
</g>
<!-- Storage -->
<g id="node15" class="node"><title>Storage</title>
<ellipse fill="none" stroke="black" cx="1096.31" cy="-126" rx="37.8943" ry="18"/>
<text text-anchor="middle" x="1096.31" y="-122.3" font-family="Times,serif" font-size="14.00">Storage</text>
</g>
<!-- github.com/supermuesli/csdl@aws/EBS.py@latest&#45;&gt;Storage -->
<g id="edge14" class="edge"><title>github.com/supermuesli/csdl@aws/EBS.py@latest&#45;&gt;Storage</title>
<path fill="none" stroke="red" d="M881.1,-110.118C941.413,-114.59 1006.58,-119.422 1049,-122.566"/>
<polygon fill="red" stroke="red" points="1048.78,-126.06 1059.01,-123.309 1049.3,-119.079 1048.78,-126.06"/>
</g>
<!-- StorageWriteSpeed -->
<g id="node16" class="node"><title>StorageWriteSpeed</title>
<ellipse fill="none" stroke="black" cx="1096.31" cy="-72" rx="79.0865" ry="18"/>
<text text-anchor="middle" x="1096.31" y="-68.3" font-family="Times,serif" font-size="14.00">StorageWriteSpeed</text>
</g>
<!-- github.com/supermuesli/csdl@aws/EBS.py@latest&#45;&gt;StorageWriteSpeed -->
<g id="edge15" class="edge"><title>github.com/supermuesli/csdl@aws/EBS.py@latest&#45;&gt;StorageWriteSpeed</title>
<path fill="none" stroke="red" d="M881.1,-87.8817C925.193,-84.6126 971.881,-81.1511 1010.38,-78.297"/>
<polygon fill="red" stroke="red" points="1010.78,-81.7769 1020.49,-77.547 1010.26,-74.796 1010.78,-81.7769"/>
</g>
<!-- StorageReadSpeed -->
<g id="node17" class="node"><title>StorageReadSpeed</title>
<ellipse fill="none" stroke="black" cx="1096.31" cy="-18" rx="77.1866" ry="18"/>
<text text-anchor="middle" x="1096.31" y="-14.3" font-family="Times,serif" font-size="14.00">StorageReadSpeed</text>
</g>
<!-- github.com/supermuesli/csdl@aws/EBS.py@latest&#45;&gt;StorageReadSpeed -->
<g id="edge16" class="edge"><title>github.com/supermuesli/csdl@aws/EBS.py@latest&#45;&gt;StorageReadSpeed</title>
<path fill="none" stroke="red" d="M907.093,-92.0157C932.435,-87.5778 957.777,-81.1629 981.016,-72 999.622,-64.664 999.349,-54.3736 1017.02,-45 1023.48,-41.5717 1030.46,-38.4397 1037.51,-35.6216"/>
<polygon fill="red" stroke="red" points="1039.01,-38.7973 1047.11,-31.9749 1036.52,-32.2534 1039.01,-38.7973"/>
</g>
</g>
</svg>
