<?xml version="1.0" encoding="UTF-8" standalone="no"?>
<!DOCTYPE svg PUBLIC "-//W3C//DTD SVG 1.1//EN"
 "http://www.w3.org/Graphics/SVG/1.1/DTD/svg11.dtd">
<!-- Generated by graphviz version 2.38.0 (20140413.2041)
 -->
<!-- Title: %3 Pages: 1 -->
<svg width="1639pt" height="771pt"
 viewBox="0.00 0.00 1639.46 771.00" xmlns="http://www.w3.org/2000/svg" xmlns:xlink="http://www.w3.org/1999/xlink">
<g id="graph0" class="graph" transform="scale(1 1) rotate(0) translate(4 767)">
<title>%3</title>
<polygon fill="white" stroke="none" points="-4,4 -4,-767 1635.46,-767 1635.46,4 -4,4"/>
<!-- github.com/supermuesli/csdl@aws/ec2/A1Large.py@latest -->
<g id="node1" class="node"><title>github.com/supermuesli/csdl@aws/ec2/A1Large.py@latest</title>
<ellipse fill="none" stroke="black" cx="221.63" cy="-369" rx="221.761" ry="18"/>
<text text-anchor="middle" x="221.63" y="-365.3" font-family="Times,serif" font-size="14.00">github.com/supermuesli/csdl@aws/ec2/A1Large.py@latest</text>
</g>
<!-- Price -->
<g id="node2" class="node"><title>Price</title>
<ellipse fill="none" stroke="black" cx="1246.45" cy="-718" rx="28.6953" ry="18"/>
<text text-anchor="middle" x="1246.45" y="-714.3" font-family="Times,serif" font-size="14.00">Price</text>
</g>
<!-- github.com/supermuesli/csdl@aws/ec2/A1Large.py@latest&#45;&gt;Price -->
<g id="edge1" class="edge"><title>github.com/supermuesli/csdl@aws/ec2/A1Large.py@latest&#45;&gt;Price</title>
<path fill="none" stroke="red" d="M231.379,-387.369C258.766,-442.499 348.877,-606.748 479.261,-672 732.914,-798.944 1094.45,-746.59 1209.11,-725.338"/>
<polygon fill="red" stroke="red" points="1209.94,-728.743 1219.11,-723.445 1208.64,-721.865 1209.94,-728.743"/>
</g>
<!-- github.com/supermuesli/csdl@aws/regions/Region.py@latest -->
<g id="node5" class="node"><title>github.com/supermuesli/csdl@aws/regions/Region.py@latest</title>
<ellipse fill="none" stroke="black" cx="1246.45" cy="-664" rx="229.359" ry="18"/>
<text text-anchor="middle" x="1246.45" y="-660.3" font-family="Times,serif" font-size="14.00">github.com/supermuesli/csdl@aws/regions/Region.py@latest</text>
</g>
<!-- github.com/supermuesli/csdl@aws/ec2/A1Large.py@latest&#45;&gt;github.com/supermuesli/csdl@aws/regions/Region.py@latest -->
<g id="edge4" class="edge"><title>github.com/supermuesli/csdl@aws/ec2/A1Large.py@latest&#45;&gt;github.com/supermuesli/csdl@aws/regions/Region.py@latest</title>
<path fill="none" stroke="red" d="M232.72,-386.999C262.485,-438.032 355.645,-583.544 479.261,-639 576.635,-682.683 852.718,-681.445 1045.37,-674.425"/>
<polygon fill="red" stroke="red" points="1045.77,-677.913 1055.63,-674.043 1045.51,-670.918 1045.77,-677.913"/>
</g>
<!-- OperatingSystem -->
<g id="node6" class="node"><title>OperatingSystem</title>
<ellipse fill="none" stroke="black" cx="730.138" cy="-558" rx="72.2875" ry="18"/>
<text text-anchor="middle" x="730.138" y="-554.3" font-family="Times,serif" font-size="14.00">OperatingSystem</text>
</g>
<!-- github.com/supermuesli/csdl@aws/ec2/A1Large.py@latest&#45;&gt;OperatingSystem -->
<g id="edge5" class="edge"><title>github.com/supermuesli/csdl@aws/ec2/A1Large.py@latest&#45;&gt;OperatingSystem</title>
<path fill="none" stroke="red" d="M243.513,-386.984C285.131,-421.672 382.74,-497.36 479.261,-531 533.42,-549.876 597.839,-556.486 647.704,-558.45"/>
<polygon fill="red" stroke="red" points="647.682,-561.951 657.795,-558.792 647.919,-554.955 647.682,-561.951"/>
</g>
<!-- CpuCores -->
<g id="node8" class="node"><title>CpuCores</title>
<ellipse fill="none" stroke="black" cx="730.138" cy="-504" rx="46.2923" ry="18"/>
<text text-anchor="middle" x="730.138" y="-500.3" font-family="Times,serif" font-size="14.00">CpuCores</text>
</g>
<!-- github.com/supermuesli/csdl@aws/ec2/A1Large.py@latest&#45;&gt;CpuCores -->
<g id="edge7" class="edge"><title>github.com/supermuesli/csdl@aws/ec2/A1Large.py@latest&#45;&gt;CpuCores</title>
<path fill="none" stroke="red" d="M256.385,-386.971C304.427,-411.663 395.957,-455.464 479.261,-477 544.67,-493.91 622.364,-500.242 673.556,-502.605"/>
<polygon fill="red" stroke="red" points="673.606,-506.111 683.746,-503.04 673.904,-499.117 673.606,-506.111"/>
</g>
<!-- CpuClockSpeed -->
<g id="node9" class="node"><title>CpuClockSpeed</title>
<ellipse fill="none" stroke="black" cx="730.138" cy="-450" rx="67.6881" ry="18"/>
<text text-anchor="middle" x="730.138" y="-446.3" font-family="Times,serif" font-size="14.00">CpuClockSpeed</text>
</g>
<!-- github.com/supermuesli/csdl@aws/ec2/A1Large.py@latest&#45;&gt;CpuClockSpeed -->
<g id="edge8" class="edge"><title>github.com/supermuesli/csdl@aws/ec2/A1Large.py@latest&#45;&gt;CpuClockSpeed</title>
<path fill="none" stroke="red" d="M294.178,-386.055C345.459,-397.789 416.308,-413.001 479.261,-423 538.123,-432.349 605.308,-439.408 655.177,-443.959"/>
<polygon fill="red" stroke="red" points="654.956,-447.453 665.23,-444.864 655.584,-440.481 654.956,-447.453"/>
</g>
<!-- Ram -->
<g id="node10" class="node"><title>Ram</title>
<ellipse fill="none" stroke="black" cx="730.138" cy="-396" rx="27.8951" ry="18"/>
<text text-anchor="middle" x="730.138" y="-392.3" font-family="Times,serif" font-size="14.00">Ram</text>
</g>
<!-- github.com/supermuesli/csdl@aws/ec2/A1Large.py@latest&#45;&gt;Ram -->
<g id="edge9" class="edge"><title>github.com/supermuesli/csdl@aws/ec2/A1Large.py@latest&#45;&gt;Ram</title>
<path fill="none" stroke="red" d="M407.283,-378.843C511.568,-384.402 632.639,-390.856 692.186,-394.03"/>
<polygon fill="red" stroke="red" points="692.057,-397.528 702.229,-394.566 692.43,-390.538 692.057,-397.528"/>
</g>
<!-- RamClockSpeed -->
<g id="node11" class="node"><title>RamClockSpeed</title>
<ellipse fill="none" stroke="black" cx="730.138" cy="-342" rx="70.3881" ry="18"/>
<text text-anchor="middle" x="730.138" y="-338.3" font-family="Times,serif" font-size="14.00">RamClockSpeed</text>
</g>
<!-- github.com/supermuesli/csdl@aws/ec2/A1Large.py@latest&#45;&gt;RamClockSpeed -->
<g id="edge10" class="edge"><title>github.com/supermuesli/csdl@aws/ec2/A1Large.py@latest&#45;&gt;RamClockSpeed</title>
<path fill="none" stroke="red" d="M407.283,-359.157C491.283,-354.679 586.174,-349.621 651.03,-346.164"/>
<polygon fill="red" stroke="red" points="651.376,-349.65 661.175,-345.623 651.003,-342.66 651.376,-349.65"/>
</g>
<!-- RamWriteSpeed -->
<g id="node12" class="node"><title>RamWriteSpeed</title>
<ellipse fill="none" stroke="black" cx="730.138" cy="-288" rx="69.5877" ry="18"/>
<text text-anchor="middle" x="730.138" y="-284.3" font-family="Times,serif" font-size="14.00">RamWriteSpeed</text>
</g>
<!-- github.com/supermuesli/csdl@aws/ec2/A1Large.py@latest&#45;&gt;RamWriteSpeed -->
<g id="edge11" class="edge"><title>github.com/supermuesli/csdl@aws/ec2/A1Large.py@latest&#45;&gt;RamWriteSpeed</title>
<path fill="none" stroke="red" d="M294.178,-351.945C345.459,-340.211 416.308,-324.999 479.261,-315 537.417,-305.763 603.698,-298.762 653.377,-294.206"/>
<polygon fill="red" stroke="red" points="653.756,-297.686 663.4,-293.299 653.125,-290.714 653.756,-297.686"/>
</g>
<!-- RamReadSpeed -->
<g id="node13" class="node"><title>RamReadSpeed</title>
<ellipse fill="none" stroke="black" cx="730.138" cy="-234" rx="67.6881" ry="18"/>
<text text-anchor="middle" x="730.138" y="-230.3" font-family="Times,serif" font-size="14.00">RamReadSpeed</text>
</g>
<!-- github.com/supermuesli/csdl@aws/ec2/A1Large.py@latest&#45;&gt;RamReadSpeed -->
<g id="edge12" class="edge"><title>github.com/supermuesli/csdl@aws/ec2/A1Large.py@latest&#45;&gt;RamReadSpeed</title>
<path fill="none" stroke="red" d="M256.385,-351.029C304.427,-326.337 395.957,-282.536 479.261,-261 536.272,-246.261 602.615,-239.559 652.608,-236.515"/>
<polygon fill="red" stroke="red" points="652.917,-240.003 662.7,-235.937 652.516,-233.015 652.917,-240.003"/>
</g>
<!-- NetworkCapacity -->
<g id="node14" class="node"><title>NetworkCapacity</title>
<ellipse fill="none" stroke="black" cx="730.138" cy="-180" rx="72.5877" ry="18"/>
<text text-anchor="middle" x="730.138" y="-176.3" font-family="Times,serif" font-size="14.00">NetworkCapacity</text>
</g>
<!-- github.com/supermuesli/csdl@aws/ec2/A1Large.py@latest&#45;&gt;NetworkCapacity -->
<g id="edge13" class="edge"><title>github.com/supermuesli/csdl@aws/ec2/A1Large.py@latest&#45;&gt;NetworkCapacity</title>
<path fill="none" stroke="red" d="M243.513,-351.016C285.131,-316.328 382.74,-240.64 479.261,-207 533.227,-188.191 597.381,-181.561 647.171,-179.571"/>
<polygon fill="red" stroke="red" points="647.376,-183.066 657.249,-179.223 647.135,-176.07 647.376,-183.066"/>
</g>
<!-- NetworkUploadSpeed -->
<g id="node15" class="node"><title>NetworkUploadSpeed</title>
<ellipse fill="none" stroke="black" cx="730.138" cy="-126" rx="89.0842" ry="18"/>
<text text-anchor="middle" x="730.138" y="-122.3" font-family="Times,serif" font-size="14.00">NetworkUploadSpeed</text>
</g>
<!-- github.com/supermuesli/csdl@aws/ec2/A1Large.py@latest&#45;&gt;NetworkUploadSpeed -->
<g id="edge14" class="edge"><title>github.com/supermuesli/csdl@aws/ec2/A1Large.py@latest&#45;&gt;NetworkUploadSpeed</title>
<path fill="none" stroke="red" d="M237.095,-351.029C272.876,-308.046 370.544,-199.432 479.261,-153 527.026,-132.6 584.396,-125.334 632.111,-123.398"/>
<polygon fill="red" stroke="red" points="632.262,-126.895 642.14,-123.063 632.028,-119.898 632.262,-126.895"/>
</g>
<!-- NetworkDownloadSpeed -->
<g id="node16" class="node"><title>NetworkDownloadSpeed</title>
<ellipse fill="none" stroke="black" cx="730.138" cy="-72" rx="99.3824" ry="18"/>
<text text-anchor="middle" x="730.138" y="-68.3" font-family="Times,serif" font-size="14.00">NetworkDownloadSpeed</text>
</g>
<!-- github.com/supermuesli/csdl@aws/ec2/A1Large.py@latest&#45;&gt;NetworkDownloadSpeed -->
<g id="edge15" class="edge"><title>github.com/supermuesli/csdl@aws/ec2/A1Large.py@latest&#45;&gt;NetworkDownloadSpeed</title>
<path fill="none" stroke="red" d="M233.373,-350.736C264.175,-300.279 358.391,-158.766 479.261,-99 523.626,-77.0629 577.732,-69.2648 624.237,-67.3831"/>
<polygon fill="red" stroke="red" points="624.461,-70.8778 634.345,-67.0612 624.238,-63.8814 624.461,-70.8778"/>
</g>
<!-- github.com/supermuesli/csdl@aws/EBS.py@latest -->
<g id="node17" class="node"><title>github.com/supermuesli/csdl@aws/EBS.py@latest</title>
<ellipse fill="none" stroke="black" cx="730.138" cy="-612" rx="191.966" ry="18"/>
<text text-anchor="middle" x="730.138" y="-608.3" font-family="Times,serif" font-size="14.00">github.com/supermuesli/csdl@aws/EBS.py@latest</text>
</g>
<!-- github.com/supermuesli/csdl@aws/ec2/A1Large.py@latest&#45;&gt;github.com/supermuesli/csdl@aws/EBS.py@latest -->
<g id="edge16" class="edge"><title>github.com/supermuesli/csdl@aws/ec2/A1Large.py@latest&#45;&gt;github.com/supermuesli/csdl@aws/EBS.py@latest</title>
<path fill="none" stroke="red" d="M237.095,-386.971C272.876,-429.954 370.544,-538.568 479.261,-585 498.4,-593.174 519.081,-599.24 540.066,-603.699"/>
<polygon fill="red" stroke="red" points="539.561,-607.167 550.054,-605.698 540.936,-600.303 539.561,-607.167"/>
</g>
<!-- github.com/supermuesli/csdl@aws/ec2/ElasticIpAmount.py@latest -->
<g id="node21" class="node"><title>github.com/supermuesli/csdl@aws/ec2/ElasticIpAmount.py@latest</title>
<ellipse fill="none" stroke="black" cx="730.138" cy="-18" rx="250.756" ry="18"/>
<text text-anchor="middle" x="730.138" y="-14.3" font-family="Times,serif" font-size="14.00">github.com/supermuesli/csdl@aws/ec2/ElasticIpAmount.py@latest</text>
</g>
<!-- github.com/supermuesli/csdl@aws/ec2/A1Large.py@latest&#45;&gt;github.com/supermuesli/csdl@aws/ec2/ElasticIpAmount.py@latest -->
<g id="edge24" class="edge"><title>github.com/supermuesli/csdl@aws/ec2/A1Large.py@latest&#45;&gt;github.com/supermuesli/csdl@aws/ec2/ElasticIpAmount.py@latest</title>
<path fill="none" stroke="red" d="M230.593,-350.898C256.647,-294.106 345.443,-118.849 479.261,-45 489.085,-39.5782 499.457,-34.9732 510.168,-31.0757"/>
<polygon fill="red" stroke="red" points="511.333,-34.3766 519.663,-27.83 509.068,-27.753 511.333,-34.3766"/>
</g>
<!-- Currency -->
<g id="node3" class="node"><title>Currency</title>
<ellipse fill="none" stroke="black" cx="1571.67" cy="-745" rx="43.5923" ry="18"/>
<text text-anchor="middle" x="1571.67" y="-741.3" font-family="Times,serif" font-size="14.00">Currency</text>
</g>
<!-- Price&#45;&gt;Currency -->
<g id="edge2" class="edge"><title>Price&#45;&gt;Currency</title>
<path fill="none" stroke="red" d="M1275,-716.322C1329.82,-717.584 1453.17,-727.55 1521.96,-735.937"/>
<polygon fill="red" stroke="red" points="1521.75,-739.438 1532.11,-737.214 1522.63,-732.492 1521.75,-739.438"/>
</g>
<!-- Price&#45;&gt;Currency -->
<g id="edge18" class="edge"><title>Price&#45;&gt;Currency</title>
<path fill="none" stroke="red" d="M1273.62,-724.081C1326.66,-731.841 1447.69,-742.369 1517.8,-745.732"/>
<polygon fill="red" stroke="red" points="1518.03,-749.246 1528.18,-746.192 1518.34,-742.253 1518.03,-749.246"/>
</g>
<!-- PricingModel -->
<g id="node4" class="node"><title>PricingModel</title>
<ellipse fill="none" stroke="black" cx="1571.67" cy="-691" rx="59.5901" ry="18"/>
<text text-anchor="middle" x="1571.67" y="-687.3" font-family="Times,serif" font-size="14.00">PricingModel</text>
</g>
<!-- Price&#45;&gt;PricingModel -->
<g id="edge3" class="edge"><title>Price&#45;&gt;PricingModel</title>
<path fill="none" stroke="red" d="M1273.62,-711.919C1322.76,-704.73 1430.25,-695.165 1501.55,-691.123"/>
<polygon fill="red" stroke="red" points="1502,-694.603 1511.79,-690.567 1501.62,-687.614 1502,-694.603"/>
</g>
<!-- Price&#45;&gt;PricingModel -->
<g id="edge19" class="edge"><title>Price&#45;&gt;PricingModel</title>
<path fill="none" stroke="red" d="M1275,-719.678C1326.8,-718.485 1439.8,-709.521 1510.13,-701.46"/>
<polygon fill="red" stroke="red" points="1510.67,-704.922 1520.19,-700.279 1509.85,-697.97 1510.67,-704.922"/>
</g>
<!-- Linux -->
<g id="node7" class="node"><title>Linux</title>
<ellipse fill="none" stroke="black" cx="1246.45" cy="-448" rx="31.6951" ry="18"/>
<text text-anchor="middle" x="1246.45" y="-444.3" font-family="Times,serif" font-size="14.00">Linux</text>
</g>
<!-- OperatingSystem&#45;&gt;Linux -->
<g id="edge6" class="edge"><title>OperatingSystem&#45;&gt;Linux</title>
<path fill="none" stroke="red" d="M795.547,-565.644C849.12,-568.764 925.339,-565.408 981.016,-531 1006.19,-515.445 991.925,-490.681 1017.02,-475 1074.75,-438.918 1156.9,-438.921 1205.34,-442.948"/>
<polygon fill="red" stroke="red" points="1205.15,-446.445 1215.43,-443.887 1205.8,-439.476 1205.15,-446.445"/>
</g>
<!-- github.com/supermuesli/csdl@aws/EBS.py@latest&#45;&gt;Price -->
<g id="edge17" class="edge"><title>github.com/supermuesli/csdl@aws/EBS.py@latest&#45;&gt;Price</title>
<path fill="none" stroke="red" d="M784.302,-629.308C841.276,-647.238 934.653,-674.849 1017.02,-691 1083.55,-704.046 1162.3,-711.663 1207.8,-715.314"/>
<polygon fill="red" stroke="red" points="1207.57,-718.807 1217.81,-716.096 1208.11,-711.828 1207.57,-718.807"/>
</g>
<!-- github.com/supermuesli/csdl@aws/EBS.py@latest&#45;&gt;github.com/supermuesli/csdl@aws/regions/Region.py@latest -->
<g id="edge20" class="edge"><title>github.com/supermuesli/csdl@aws/EBS.py@latest&#45;&gt;github.com/supermuesli/csdl@aws/regions/Region.py@latest</title>
<path fill="none" stroke="red" d="M861.252,-625.155C932.307,-632.34 1020.64,-641.271 1094.69,-648.758"/>
<polygon fill="red" stroke="red" points="1094.74,-652.28 1105.04,-649.804 1095.44,-645.316 1094.74,-652.28"/>
</g>
<!-- Storage -->
<g id="node18" class="node"><title>Storage</title>
<ellipse fill="none" stroke="black" cx="1246.45" cy="-610" rx="37.8943" ry="18"/>
<text text-anchor="middle" x="1246.45" y="-606.3" font-family="Times,serif" font-size="14.00">Storage</text>
</g>
<!-- github.com/supermuesli/csdl@aws/EBS.py@latest&#45;&gt;Storage -->
<g id="edge21" class="edge"><title>github.com/supermuesli/csdl@aws/EBS.py@latest&#45;&gt;Storage</title>
<path fill="none" stroke="red" d="M921.917,-611.258C1021.63,-610.87 1135.65,-610.427 1198.19,-610.184"/>
<polygon fill="red" stroke="red" points="1198.53,-613.683 1208.52,-610.144 1198.5,-606.683 1198.53,-613.683"/>
</g>
<!-- StorageWriteSpeed -->
<g id="node19" class="node"><title>StorageWriteSpeed</title>
<ellipse fill="none" stroke="black" cx="1246.45" cy="-556" rx="79.0865" ry="18"/>
<text text-anchor="middle" x="1246.45" y="-552.3" font-family="Times,serif" font-size="14.00">StorageWriteSpeed</text>
</g>
<!-- github.com/supermuesli/csdl@aws/EBS.py@latest&#45;&gt;StorageWriteSpeed -->
<g id="edge22" class="edge"><title>github.com/supermuesli/csdl@aws/EBS.py@latest&#45;&gt;StorageWriteSpeed</title>
<path fill="none" stroke="red" d="M856.98,-598.442C896.667,-594.156 940.675,-589.392 981.016,-585 1042.57,-578.3 1112.17,-570.664 1164.51,-564.91"/>
<polygon fill="red" stroke="red" points="1165.18,-568.357 1174.74,-563.785 1164.42,-561.399 1165.18,-568.357"/>
</g>
<!-- StorageReadSpeed -->
<g id="node20" class="node"><title>StorageReadSpeed</title>
<ellipse fill="none" stroke="black" cx="1246.45" cy="-502" rx="77.1866" ry="18"/>
<text text-anchor="middle" x="1246.45" y="-498.3" font-family="Times,serif" font-size="14.00">StorageReadSpeed</text>
</g>
<!-- github.com/supermuesli/csdl@aws/EBS.py@latest&#45;&gt;StorageReadSpeed -->
<g id="edge23" class="edge"><title>github.com/supermuesli/csdl@aws/EBS.py@latest&#45;&gt;StorageReadSpeed</title>
<path fill="none" stroke="red" d="M920.737,-609.802C942.032,-604.328 962.643,-596.355 981.016,-585 1006.19,-569.445 991.925,-544.681 1017.02,-529 1060.63,-501.742 1118.18,-495.077 1164.61,-495.184"/>
<polygon fill="red" stroke="red" points="1164.59,-498.684 1174.64,-495.312 1164.68,-491.685 1164.59,-498.684"/>
</g>
</g>
</svg>
