<?xml version="1.0" encoding="UTF-8" standalone="no"?>
<!DOCTYPE svg PUBLIC "-//W3C//DTD SVG 1.1//EN"
 "http://www.w3.org/Graphics/SVG/1.1/DTD/svg11.dtd">
<!-- Generated by graphviz version 2.38.0 (20140413.2041)
 -->
<!-- Title: %3 Pages: 1 -->
<svg width="1113pt" height="746pt"
 viewBox="0.00 0.00 1113.41 746.00" xmlns="http://www.w3.org/2000/svg" xmlns:xlink="http://www.w3.org/1999/xlink">
<g id="graph0" class="graph" transform="scale(1 1) rotate(0) translate(4 742)">
<title>%3</title>
<polygon fill="white" stroke="none" points="-4,4 -4,-742 1109.41,-742 1109.41,4 -4,4"/>
<!-- github.com/supermuesli/csdl@aws/ec2/EC2.py@latest -->
<g id="node1" class="node"><title>github.com/supermuesli/csdl@aws/ec2/EC2.py@latest</title>
<ellipse fill="none" stroke="black" cx="206.032" cy="-369" rx="206.063" ry="18"/>
<text text-anchor="middle" x="206.032" y="-365.3" font-family="Times,serif" font-size="14.00">github.com/supermuesli/csdl@aws/ec2/EC2.py@latest</text>
</g>
<!-- Price -->
<g id="node2" class="node"><title>Price</title>
<ellipse fill="none" stroke="black" cx="698.941" cy="-720" rx="28.6953" ry="18"/>
<text text-anchor="middle" x="698.941" y="-716.3" font-family="Times,serif" font-size="14.00">Price</text>
</g>
<!-- github.com/supermuesli/csdl@aws/ec2/EC2.py@latest&#45;&gt;Price -->
<g id="edge1" class="edge"><title>github.com/supermuesli/csdl@aws/ec2/EC2.py@latest&#45;&gt;Price</title>
<path fill="none" stroke="red" d="M214.176,-387.079C237.654,-443.802 318.429,-618.877 448.063,-693 515.218,-731.398 609.199,-729.562 660.644,-724.802"/>
<polygon fill="red" stroke="red" points="661.052,-728.279 670.648,-723.789 660.346,-721.315 661.052,-728.279"/>
</g>
<!-- github.com/supermuesli/csdl@aws/regions/Region.py@latest -->
<g id="node4" class="node"><title>github.com/supermuesli/csdl@aws/regions/Region.py@latest</title>
<ellipse fill="none" stroke="black" cx="698.941" cy="-666" rx="229.359" ry="18"/>
<text text-anchor="middle" x="698.941" y="-662.3" font-family="Times,serif" font-size="14.00">github.com/supermuesli/csdl@aws/regions/Region.py@latest</text>
</g>
<!-- github.com/supermuesli/csdl@aws/ec2/EC2.py@latest&#45;&gt;github.com/supermuesli/csdl@aws/regions/Region.py@latest -->
<g id="edge3" class="edge"><title>github.com/supermuesli/csdl@aws/ec2/EC2.py@latest&#45;&gt;github.com/supermuesli/csdl@aws/regions/Region.py@latest</title>
<path fill="none" stroke="red" d="M216.812,-387.251C244.94,-437.672 331.545,-579.103 448.063,-639 460.242,-645.261 473.19,-650.392 486.536,-654.577"/>
<polygon fill="red" stroke="red" points="485.737,-657.99 496.318,-657.459 487.715,-651.276 485.737,-657.99"/>
</g>
<!-- OperatingSystem -->
<g id="node5" class="node"><title>OperatingSystem</title>
<ellipse fill="none" stroke="black" cx="698.941" cy="-612" rx="72.2875" ry="18"/>
<text text-anchor="middle" x="698.941" y="-608.3" font-family="Times,serif" font-size="14.00">OperatingSystem</text>
</g>
<!-- github.com/supermuesli/csdl@aws/ec2/EC2.py@latest&#45;&gt;OperatingSystem -->
<g id="edge4" class="edge"><title>github.com/supermuesli/csdl@aws/ec2/EC2.py@latest&#45;&gt;OperatingSystem</title>
<path fill="none" stroke="red" d="M220.35,-386.972C253.361,-429.957 343.872,-538.576 448.063,-585 501.385,-608.758 567.218,-615.058 617.923,-615.659"/>
<polygon fill="red" stroke="red" points="618.162,-619.16 628.178,-615.706 618.195,-612.16 618.162,-619.16"/>
</g>
<!-- CpuClockSpeed -->
<g id="node6" class="node"><title>CpuClockSpeed</title>
<ellipse fill="none" stroke="black" cx="698.941" cy="-558" rx="67.6881" ry="18"/>
<text text-anchor="middle" x="698.941" y="-554.3" font-family="Times,serif" font-size="14.00">CpuClockSpeed</text>
</g>
<!-- github.com/supermuesli/csdl@aws/ec2/EC2.py@latest&#45;&gt;CpuClockSpeed -->
<g id="edge5" class="edge"><title>github.com/supermuesli/csdl@aws/ec2/EC2.py@latest&#45;&gt;CpuClockSpeed</title>
<path fill="none" stroke="red" d="M226.427,-387.007C265.133,-421.734 356.17,-497.488 448.063,-531 503.768,-551.315 570.742,-557.671 621.325,-559.162"/>
<polygon fill="red" stroke="red" points="621.457,-562.666 631.537,-559.405 621.623,-555.668 621.457,-562.666"/>
</g>
<!-- RamClockSpeed -->
<g id="node7" class="node"><title>RamClockSpeed</title>
<ellipse fill="none" stroke="black" cx="698.941" cy="-504" rx="70.3881" ry="18"/>
<text text-anchor="middle" x="698.941" y="-500.3" font-family="Times,serif" font-size="14.00">RamClockSpeed</text>
</g>
<!-- github.com/supermuesli/csdl@aws/ec2/EC2.py@latest&#45;&gt;RamClockSpeed -->
<g id="edge6" class="edge"><title>github.com/supermuesli/csdl@aws/ec2/EC2.py@latest&#45;&gt;RamClockSpeed</title>
<path fill="none" stroke="red" d="M238.205,-386.819C283.044,-411.54 369.058,-455.607 448.063,-477 504.015,-492.151 569.187,-498.848 618.942,-501.785"/>
<polygon fill="red" stroke="red" points="618.82,-505.284 628.998,-502.34 619.206,-498.294 618.82,-505.284"/>
</g>
<!-- RamWriteSpeed -->
<g id="node8" class="node"><title>RamWriteSpeed</title>
<ellipse fill="none" stroke="black" cx="698.941" cy="-450" rx="69.5877" ry="18"/>
<text text-anchor="middle" x="698.941" y="-446.3" font-family="Times,serif" font-size="14.00">RamWriteSpeed</text>
</g>
<!-- github.com/supermuesli/csdl@aws/ec2/EC2.py@latest&#45;&gt;RamWriteSpeed -->
<g id="edge7" class="edge"><title>github.com/supermuesli/csdl@aws/ec2/EC2.py@latest&#45;&gt;RamWriteSpeed</title>
<path fill="none" stroke="red" d="M273.651,-386.05C321.824,-397.857 388.621,-413.162 448.063,-423 506.158,-432.615 572.443,-439.596 622.138,-444.048"/>
<polygon fill="red" stroke="red" points="621.896,-447.54 632.165,-444.932 622.511,-440.567 621.896,-447.54"/>
</g>
<!-- RamReadSpeed -->
<g id="node9" class="node"><title>RamReadSpeed</title>
<ellipse fill="none" stroke="black" cx="698.941" cy="-396" rx="67.6881" ry="18"/>
<text text-anchor="middle" x="698.941" y="-392.3" font-family="Times,serif" font-size="14.00">RamReadSpeed</text>
</g>
<!-- github.com/supermuesli/csdl@aws/ec2/EC2.py@latest&#45;&gt;RamReadSpeed -->
<g id="edge8" class="edge"><title>github.com/supermuesli/csdl@aws/ec2/EC2.py@latest&#45;&gt;RamReadSpeed</title>
<path fill="none" stroke="red" d="M380.799,-378.557C463.532,-383.107 558.175,-388.313 622.379,-391.844"/>
<polygon fill="red" stroke="red" points="622.238,-395.342 632.415,-392.396 622.622,-388.352 622.238,-395.342"/>
</g>
<!-- StorageWriteSpeed -->
<g id="node10" class="node"><title>StorageWriteSpeed</title>
<ellipse fill="none" stroke="black" cx="698.941" cy="-342" rx="79.0865" ry="18"/>
<text text-anchor="middle" x="698.941" y="-338.3" font-family="Times,serif" font-size="14.00">StorageWriteSpeed</text>
</g>
<!-- github.com/supermuesli/csdl@aws/ec2/EC2.py@latest&#45;&gt;StorageWriteSpeed -->
<g id="edge9" class="edge"><title>github.com/supermuesli/csdl@aws/ec2/EC2.py@latest&#45;&gt;StorageWriteSpeed</title>
<path fill="none" stroke="red" d="M380.799,-359.443C459.081,-355.137 548.027,-350.245 611.759,-346.74"/>
<polygon fill="red" stroke="red" points="611.973,-350.234 621.766,-346.19 611.589,-343.244 611.973,-350.234"/>
</g>
<!-- StorageReadSpeed -->
<g id="node11" class="node"><title>StorageReadSpeed</title>
<ellipse fill="none" stroke="black" cx="698.941" cy="-288" rx="77.1866" ry="18"/>
<text text-anchor="middle" x="698.941" y="-284.3" font-family="Times,serif" font-size="14.00">StorageReadSpeed</text>
</g>
<!-- github.com/supermuesli/csdl@aws/ec2/EC2.py@latest&#45;&gt;StorageReadSpeed -->
<g id="edge10" class="edge"><title>github.com/supermuesli/csdl@aws/ec2/EC2.py@latest&#45;&gt;StorageReadSpeed</title>
<path fill="none" stroke="red" d="M273.651,-351.95C321.824,-340.143 388.621,-324.838 448.063,-315 503.525,-305.821 566.451,-299.042 615.281,-294.573"/>
<polygon fill="red" stroke="red" points="615.834,-298.038 625.479,-293.654 615.205,-291.066 615.834,-298.038"/>
</g>
<!-- NetworkCapacity -->
<g id="node12" class="node"><title>NetworkCapacity</title>
<ellipse fill="none" stroke="black" cx="698.941" cy="-234" rx="72.5877" ry="18"/>
<text text-anchor="middle" x="698.941" y="-230.3" font-family="Times,serif" font-size="14.00">NetworkCapacity</text>
</g>
<!-- github.com/supermuesli/csdl@aws/ec2/EC2.py@latest&#45;&gt;NetworkCapacity -->
<g id="edge11" class="edge"><title>github.com/supermuesli/csdl@aws/ec2/EC2.py@latest&#45;&gt;NetworkCapacity</title>
<path fill="none" stroke="red" d="M238.205,-351.181C283.044,-326.46 369.058,-282.393 448.063,-261 503.03,-246.116 566.895,-239.39 616.3,-236.373"/>
<polygon fill="red" stroke="red" points="616.514,-239.867 626.297,-235.801 616.114,-232.878 616.514,-239.867"/>
</g>
<!-- NetworkUploadSpeed -->
<g id="node13" class="node"><title>NetworkUploadSpeed</title>
<ellipse fill="none" stroke="black" cx="698.941" cy="-180" rx="89.0842" ry="18"/>
<text text-anchor="middle" x="698.941" y="-176.3" font-family="Times,serif" font-size="14.00">NetworkUploadSpeed</text>
</g>
<!-- github.com/supermuesli/csdl@aws/ec2/EC2.py@latest&#45;&gt;NetworkUploadSpeed -->
<g id="edge12" class="edge"><title>github.com/supermuesli/csdl@aws/ec2/EC2.py@latest&#45;&gt;NetworkUploadSpeed</title>
<path fill="none" stroke="red" d="M226.427,-350.993C265.133,-316.266 356.17,-240.512 448.063,-207 496.088,-189.486 552.489,-182.347 599.542,-179.756"/>
<polygon fill="red" stroke="red" points="599.924,-183.241 609.741,-179.256 599.582,-176.25 599.924,-183.241"/>
</g>
<!-- NetworkDownloadSpeed -->
<g id="node14" class="node"><title>NetworkDownloadSpeed</title>
<ellipse fill="none" stroke="black" cx="698.941" cy="-126" rx="99.3824" ry="18"/>
<text text-anchor="middle" x="698.941" y="-122.3" font-family="Times,serif" font-size="14.00">NetworkDownloadSpeed</text>
</g>
<!-- github.com/supermuesli/csdl@aws/ec2/EC2.py@latest&#45;&gt;NetworkDownloadSpeed -->
<g id="edge13" class="edge"><title>github.com/supermuesli/csdl@aws/ec2/EC2.py@latest&#45;&gt;NetworkDownloadSpeed</title>
<path fill="none" stroke="red" d="M220.35,-351.028C253.361,-308.043 343.872,-199.424 448.063,-153 492.251,-133.312 545.03,-125.612 590.672,-123.21"/>
<polygon fill="red" stroke="red" points="591.064,-126.696 600.898,-122.753 590.752,-119.703 591.064,-126.696"/>
</g>
<!-- github.com/supermuesli/csdl@aws/ec2/MachineType.py@latest -->
<g id="node15" class="node"><title>github.com/supermuesli/csdl@aws/ec2/MachineType.py@latest</title>
<ellipse fill="none" stroke="black" cx="698.941" cy="-72" rx="239.358" ry="18"/>
<text text-anchor="middle" x="698.941" y="-68.3" font-family="Times,serif" font-size="14.00">github.com/supermuesli/csdl@aws/ec2/MachineType.py@latest</text>
</g>
<!-- github.com/supermuesli/csdl@aws/ec2/EC2.py@latest&#45;&gt;github.com/supermuesli/csdl@aws/ec2/MachineType.py@latest -->
<g id="edge14" class="edge"><title>github.com/supermuesli/csdl@aws/ec2/EC2.py@latest&#45;&gt;github.com/supermuesli/csdl@aws/ec2/MachineType.py@latest</title>
<path fill="none" stroke="red" d="M216.812,-350.749C244.94,-300.328 331.545,-158.897 448.063,-99 459.505,-93.1182 471.626,-88.2331 484.118,-84.1931"/>
<polygon fill="red" stroke="red" points="485.19,-87.5255 493.738,-81.2659 483.152,-80.8287 485.19,-87.5255"/>
</g>
<!-- github.com/supermuesli/csdl@aws/ec2/ElasticIpAmount.py@latest -->
<g id="node16" class="node"><title>github.com/supermuesli/csdl@aws/ec2/ElasticIpAmount.py@latest</title>
<ellipse fill="none" stroke="black" cx="698.941" cy="-18" rx="250.756" ry="18"/>
<text text-anchor="middle" x="698.941" y="-14.3" font-family="Times,serif" font-size="14.00">github.com/supermuesli/csdl@aws/ec2/ElasticIpAmount.py@latest</text>
</g>
<!-- github.com/supermuesli/csdl@aws/ec2/EC2.py@latest&#45;&gt;github.com/supermuesli/csdl@aws/ec2/ElasticIpAmount.py@latest -->
<g id="edge15" class="edge"><title>github.com/supermuesli/csdl@aws/ec2/EC2.py@latest&#45;&gt;github.com/supermuesli/csdl@aws/ec2/ElasticIpAmount.py@latest</title>
<path fill="none" stroke="red" d="M214.176,-350.921C237.654,-294.198 318.429,-119.123 448.063,-45 457.489,-39.6107 467.443,-35.014 477.733,-31.1067"/>
<polygon fill="red" stroke="red" points="479.027,-34.3614 487.273,-27.7092 476.678,-27.7671 479.027,-34.3614"/>
</g>
<!-- PricingModel -->
<g id="node3" class="node"><title>PricingModel</title>
<ellipse fill="none" stroke="black" cx="1045.61" cy="-720" rx="59.5901" ry="18"/>
<text text-anchor="middle" x="1045.61" y="-716.3" font-family="Times,serif" font-size="14.00">PricingModel</text>
</g>
<!-- Price&#45;&gt;PricingModel -->
<g id="edge2" class="edge"><title>Price&#45;&gt;PricingModel</title>
<path fill="none" stroke="red" d="M727.565,-720C780.811,-720 899.103,-720 975.18,-720"/>
<polygon fill="red" stroke="red" points="975.624,-723.5 985.624,-720 975.624,-716.5 975.624,-723.5"/>
</g>
</g>
</svg>
