<?xml version="1.0" encoding="UTF-8" standalone="no"?>
<!DOCTYPE svg PUBLIC "-//W3C//DTD SVG 1.1//EN"
 "http://www.w3.org/Graphics/SVG/1.1/DTD/svg11.dtd">
<!-- Generated by graphviz version 2.38.0 (20140413.2041)
 -->
<!-- Title: %3 Pages: 1 -->
<svg width="1113pt" height="908pt"
 viewBox="0.00 0.00 1113.41 908.00" xmlns="http://www.w3.org/2000/svg" xmlns:xlink="http://www.w3.org/1999/xlink">
<g id="graph0" class="graph" transform="scale(1 1) rotate(0) translate(4 904)">
<title>%3</title>
<polygon fill="white" stroke="none" points="-4,4 -4,-904 1109.41,-904 1109.41,4 -4,4"/>
<!-- github.com/supermuesli/csdl@aws/ec2/EC2.py@latest -->
<g id="node1" class="node"><title>github.com/supermuesli/csdl@aws/ec2/EC2.py@latest</title>
<ellipse fill="none" stroke="black" cx="206.032" cy="-450" rx="206.063" ry="18"/>
<text text-anchor="middle" x="206.032" y="-446.3" font-family="Times,serif" font-size="14.00">github.com/supermuesli/csdl@aws/ec2/EC2.py@latest</text>
</g>
<!-- Price -->
<g id="node2" class="node"><title>Price</title>
<ellipse fill="none" stroke="black" cx="698.941" cy="-882" rx="28.6953" ry="18"/>
<text text-anchor="middle" x="698.941" y="-878.3" font-family="Times,serif" font-size="14.00">Price</text>
</g>
<!-- github.com/supermuesli/csdl@aws/ec2/EC2.py@latest&#45;&gt;Price -->
<g id="edge1" class="edge"><title>github.com/supermuesli/csdl@aws/ec2/EC2.py@latest&#45;&gt;Price</title>
<path fill="none" stroke="red" d="M211.586,-468.201C229.036,-533.735 298.312,-758.846 448.063,-855 513.501,-897.017 608.933,-893.617 660.881,-887.673"/>
<polygon fill="red" stroke="red" points="661.481,-891.125 670.975,-886.422 660.62,-884.179 661.481,-891.125"/>
</g>
<!-- github.com/supermuesli/csdl@aws/regions/Region.py@latest -->
<g id="node4" class="node"><title>github.com/supermuesli/csdl@aws/regions/Region.py@latest</title>
<ellipse fill="none" stroke="black" cx="698.941" cy="-828" rx="229.359" ry="18"/>
<text text-anchor="middle" x="698.941" y="-824.3" font-family="Times,serif" font-size="14.00">github.com/supermuesli/csdl@aws/regions/Region.py@latest</text>
</g>
<!-- github.com/supermuesli/csdl@aws/ec2/EC2.py@latest&#45;&gt;github.com/supermuesli/csdl@aws/regions/Region.py@latest -->
<g id="edge3" class="edge"><title>github.com/supermuesli/csdl@aws/ec2/EC2.py@latest&#45;&gt;github.com/supermuesli/csdl@aws/regions/Region.py@latest</title>
<path fill="none" stroke="red" d="M213.248,-468.272C234.707,-528.219 311.928,-719.703 448.063,-801 458.705,-807.355 470.062,-812.632 481.844,-816.992"/>
<polygon fill="red" stroke="red" points="480.783,-820.329 491.378,-820.296 483.075,-813.715 480.783,-820.329"/>
</g>
<!-- OperatingSystem -->
<g id="node5" class="node"><title>OperatingSystem</title>
<ellipse fill="none" stroke="black" cx="698.941" cy="-774" rx="72.2875" ry="18"/>
<text text-anchor="middle" x="698.941" y="-770.3" font-family="Times,serif" font-size="14.00">OperatingSystem</text>
</g>
<!-- github.com/supermuesli/csdl@aws/ec2/EC2.py@latest&#45;&gt;OperatingSystem -->
<g id="edge4" class="edge"><title>github.com/supermuesli/csdl@aws/ec2/EC2.py@latest&#45;&gt;OperatingSystem</title>
<path fill="none" stroke="red" d="M215.348,-468.097C241.053,-521.692 324.988,-680.028 448.063,-747 500.793,-775.693 569.016,-781.344 620.85,-780.432"/>
<polygon fill="red" stroke="red" points="621.084,-783.927 630.989,-780.167 620.901,-776.93 621.084,-783.927"/>
</g>
<!-- CpuCores -->
<g id="node6" class="node"><title>CpuCores</title>
<ellipse fill="none" stroke="black" cx="698.941" cy="-720" rx="46.2923" ry="18"/>
<text text-anchor="middle" x="698.941" y="-716.3" font-family="Times,serif" font-size="14.00">CpuCores</text>
</g>
<!-- github.com/supermuesli/csdl@aws/ec2/EC2.py@latest&#45;&gt;CpuCores -->
<g id="edge5" class="edge"><title>github.com/supermuesli/csdl@aws/ec2/EC2.py@latest&#45;&gt;CpuCores</title>
<path fill="none" stroke="red" d="M218.401,-468.113C248.905,-514.917 337.765,-639.917 448.063,-693 510.173,-722.891 590.777,-726.174 643.402,-724.304"/>
<polygon fill="red" stroke="red" points="643.699,-727.795 653.54,-723.868 643.398,-720.801 643.699,-727.795"/>
</g>
<!-- CpuClockSpeed -->
<g id="node7" class="node"><title>CpuClockSpeed</title>
<ellipse fill="none" stroke="black" cx="698.941" cy="-666" rx="67.6881" ry="18"/>
<text text-anchor="middle" x="698.941" y="-662.3" font-family="Times,serif" font-size="14.00">CpuClockSpeed</text>
</g>
<!-- github.com/supermuesli/csdl@aws/ec2/EC2.py@latest&#45;&gt;CpuClockSpeed -->
<g id="edge6" class="edge"><title>github.com/supermuesli/csdl@aws/ec2/EC2.py@latest&#45;&gt;CpuClockSpeed</title>
<path fill="none" stroke="red" d="M222.98,-468.007C258.766,-507.039 350.041,-599.129 448.063,-639 503.271,-661.456 570.701,-667.635 621.595,-668.514"/>
<polygon fill="red" stroke="red" points="621.832,-672.017 631.869,-668.624 621.907,-665.017 621.832,-672.017"/>
</g>
<!-- Ram -->
<g id="node8" class="node"><title>Ram</title>
<ellipse fill="none" stroke="black" cx="698.941" cy="-612" rx="27.8951" ry="18"/>
<text text-anchor="middle" x="698.941" y="-608.3" font-family="Times,serif" font-size="14.00">Ram</text>
</g>
<!-- github.com/supermuesli/csdl@aws/ec2/EC2.py@latest&#45;&gt;Ram -->
<g id="edge7" class="edge"><title>github.com/supermuesli/csdl@aws/ec2/EC2.py@latest&#45;&gt;Ram</title>
<path fill="none" stroke="red" d="M231.168,-467.949C272.918,-497.94 362.396,-557.644 448.063,-585 520.866,-608.248 611.016,-612.323 660.697,-612.578"/>
<polygon fill="red" stroke="red" points="660.956,-616.078 670.957,-612.579 660.957,-609.078 660.956,-616.078"/>
</g>
<!-- RamClockSpeed -->
<g id="node9" class="node"><title>RamClockSpeed</title>
<ellipse fill="none" stroke="black" cx="698.941" cy="-558" rx="70.3881" ry="18"/>
<text text-anchor="middle" x="698.941" y="-554.3" font-family="Times,serif" font-size="14.00">RamClockSpeed</text>
</g>
<!-- github.com/supermuesli/csdl@aws/ec2/EC2.py@latest&#45;&gt;RamClockSpeed -->
<g id="edge8" class="edge"><title>github.com/supermuesli/csdl@aws/ec2/EC2.py@latest&#45;&gt;RamClockSpeed</title>
<path fill="none" stroke="red" d="M250.211,-467.684C297.834,-486.433 377.13,-515.442 448.063,-531 504.884,-543.463 570.29,-550.267 619.93,-553.927"/>
<polygon fill="red" stroke="red" points="619.734,-557.422 629.957,-554.64 620.23,-550.44 619.734,-557.422"/>
</g>
<!-- RamWriteSpeed -->
<g id="node10" class="node"><title>RamWriteSpeed</title>
<ellipse fill="none" stroke="black" cx="698.941" cy="-504" rx="69.5877" ry="18"/>
<text text-anchor="middle" x="698.941" y="-500.3" font-family="Times,serif" font-size="14.00">RamWriteSpeed</text>
</g>
<!-- github.com/supermuesli/csdl@aws/ec2/EC2.py@latest&#45;&gt;RamWriteSpeed -->
<g id="edge9" class="edge"><title>github.com/supermuesli/csdl@aws/ec2/EC2.py@latest&#45;&gt;RamWriteSpeed</title>
<path fill="none" stroke="red" d="M333.055,-464.211C370.103,-468.364 410.708,-472.89 448.063,-477 507.407,-483.53 574.695,-490.792 624.484,-496.139"/>
<polygon fill="red" stroke="red" points="624.2,-499.629 634.517,-497.216 624.947,-492.669 624.2,-499.629"/>
</g>
<!-- RamReadSpeed -->
<g id="node11" class="node"><title>RamReadSpeed</title>
<ellipse fill="none" stroke="black" cx="698.941" cy="-450" rx="67.6881" ry="18"/>
<text text-anchor="middle" x="698.941" y="-446.3" font-family="Times,serif" font-size="14.00">RamReadSpeed</text>
</g>
<!-- github.com/supermuesli/csdl@aws/ec2/EC2.py@latest&#45;&gt;RamReadSpeed -->
<g id="edge10" class="edge"><title>github.com/supermuesli/csdl@aws/ec2/EC2.py@latest&#45;&gt;RamReadSpeed</title>
<path fill="none" stroke="red" d="M412.377,-450C486.209,-450 565.018,-450 621.099,-450"/>
<polygon fill="red" stroke="red" points="621.3,-453.5 631.3,-450 621.3,-446.5 621.3,-453.5"/>
</g>
<!-- Storage -->
<g id="node12" class="node"><title>Storage</title>
<ellipse fill="none" stroke="black" cx="698.941" cy="-396" rx="37.8943" ry="18"/>
<text text-anchor="middle" x="698.941" y="-392.3" font-family="Times,serif" font-size="14.00">Storage</text>
</g>
<!-- github.com/supermuesli/csdl@aws/ec2/EC2.py@latest&#45;&gt;Storage -->
<g id="edge11" class="edge"><title>github.com/supermuesli/csdl@aws/ec2/EC2.py@latest&#45;&gt;Storage</title>
<path fill="none" stroke="red" d="M333.055,-435.789C370.103,-431.636 410.708,-427.11 448.063,-423 519.127,-415.18 601.583,-406.31 651.739,-400.937"/>
<polygon fill="red" stroke="red" points="652.365,-404.391 661.936,-399.846 651.62,-397.43 652.365,-404.391"/>
</g>
<!-- StorageWriteSpeed -->
<g id="node13" class="node"><title>StorageWriteSpeed</title>
<ellipse fill="none" stroke="black" cx="698.941" cy="-342" rx="79.0865" ry="18"/>
<text text-anchor="middle" x="698.941" y="-338.3" font-family="Times,serif" font-size="14.00">StorageWriteSpeed</text>
</g>
<!-- github.com/supermuesli/csdl@aws/ec2/EC2.py@latest&#45;&gt;StorageWriteSpeed -->
<g id="edge12" class="edge"><title>github.com/supermuesli/csdl@aws/ec2/EC2.py@latest&#45;&gt;StorageWriteSpeed</title>
<path fill="none" stroke="red" d="M250.211,-432.316C297.834,-413.567 377.13,-384.558 448.063,-369 501.681,-357.24 562.944,-350.518 611.391,-346.722"/>
<polygon fill="red" stroke="red" points="611.819,-350.2 621.527,-345.956 611.291,-343.22 611.819,-350.2"/>
</g>
<!-- StorageReadSpeed -->
<g id="node14" class="node"><title>StorageReadSpeed</title>
<ellipse fill="none" stroke="black" cx="698.941" cy="-288" rx="77.1866" ry="18"/>
<text text-anchor="middle" x="698.941" y="-284.3" font-family="Times,serif" font-size="14.00">StorageReadSpeed</text>
</g>
<!-- github.com/supermuesli/csdl@aws/ec2/EC2.py@latest&#45;&gt;StorageReadSpeed -->
<g id="edge13" class="edge"><title>github.com/supermuesli/csdl@aws/ec2/EC2.py@latest&#45;&gt;StorageReadSpeed</title>
<path fill="none" stroke="red" d="M231.168,-432.051C272.918,-402.06 362.396,-342.356 448.063,-315 500.645,-298.209 562.277,-291.419 611.174,-288.847"/>
<polygon fill="red" stroke="red" points="611.585,-292.332 621.407,-288.36 611.252,-285.34 611.585,-292.332"/>
</g>
<!-- NetworkCapacity -->
<g id="node15" class="node"><title>NetworkCapacity</title>
<ellipse fill="none" stroke="black" cx="698.941" cy="-234" rx="72.5877" ry="18"/>
<text text-anchor="middle" x="698.941" y="-230.3" font-family="Times,serif" font-size="14.00">NetworkCapacity</text>
</g>
<!-- github.com/supermuesli/csdl@aws/ec2/EC2.py@latest&#45;&gt;NetworkCapacity -->
<g id="edge14" class="edge"><title>github.com/supermuesli/csdl@aws/ec2/EC2.py@latest&#45;&gt;NetworkCapacity</title>
<path fill="none" stroke="red" d="M222.98,-431.993C258.766,-392.961 350.041,-300.871 448.063,-261 501.475,-239.275 566.327,-232.784 616.576,-231.589"/>
<polygon fill="red" stroke="red" points="616.807,-235.086 626.745,-231.414 616.686,-228.087 616.807,-235.086"/>
</g>
<!-- NetworkUploadSpeed -->
<g id="node16" class="node"><title>NetworkUploadSpeed</title>
<ellipse fill="none" stroke="black" cx="698.941" cy="-180" rx="89.0842" ry="18"/>
<text text-anchor="middle" x="698.941" y="-176.3" font-family="Times,serif" font-size="14.00">NetworkUploadSpeed</text>
</g>
<!-- github.com/supermuesli/csdl@aws/ec2/EC2.py@latest&#45;&gt;NetworkUploadSpeed -->
<g id="edge15" class="edge"><title>github.com/supermuesli/csdl@aws/ec2/EC2.py@latest&#45;&gt;NetworkUploadSpeed</title>
<path fill="none" stroke="red" d="M218.401,-431.887C248.905,-385.083 337.765,-260.083 448.063,-207 495.69,-184.079 554.192,-176.804 602.614,-175.5"/>
<polygon fill="red" stroke="red" points="602.854,-178.997 612.786,-175.309 602.722,-171.998 602.854,-178.997"/>
</g>
<!-- NetworkDownloadSpeed -->
<g id="node17" class="node"><title>NetworkDownloadSpeed</title>
<ellipse fill="none" stroke="black" cx="698.941" cy="-126" rx="99.3824" ry="18"/>
<text text-anchor="middle" x="698.941" y="-122.3" font-family="Times,serif" font-size="14.00">NetworkDownloadSpeed</text>
</g>
<!-- github.com/supermuesli/csdl@aws/ec2/EC2.py@latest&#45;&gt;NetworkDownloadSpeed -->
<g id="edge16" class="edge"><title>github.com/supermuesli/csdl@aws/ec2/EC2.py@latest&#45;&gt;NetworkDownloadSpeed</title>
<path fill="none" stroke="red" d="M215.348,-431.903C241.053,-378.308 324.988,-219.972 448.063,-153 492.701,-128.71 548.442,-120.933 595.944,-119.671"/>
<polygon fill="red" stroke="red" points="596.011,-123.171 605.949,-119.497 595.889,-116.172 596.011,-123.171"/>
</g>
<!-- ChoiceAttribute -->
<g id="node18" class="node"><title>ChoiceAttribute</title>
<ellipse fill="none" stroke="black" cx="698.941" cy="-72" rx="67.6881" ry="18"/>
<text text-anchor="middle" x="698.941" y="-68.3" font-family="Times,serif" font-size="14.00">ChoiceAttribute</text>
</g>
<!-- github.com/supermuesli/csdl@aws/ec2/EC2.py@latest&#45;&gt;ChoiceAttribute -->
<g id="edge17" class="edge"><title>github.com/supermuesli/csdl@aws/ec2/EC2.py@latest&#45;&gt;ChoiceAttribute</title>
<path fill="none" stroke="red" d="M213.248,-431.728C234.707,-371.781 311.928,-180.297 448.063,-99 501.711,-66.9628 573.529,-62.3194 626.402,-64.4471"/>
<polygon fill="red" stroke="red" points="626.553,-67.9587 636.713,-64.9568 626.898,-60.9672 626.553,-67.9587"/>
</g>
<!-- github.com/supermuesli/csdl@aws/ec2/ElasticIpAmount.py@latest -->
<g id="node19" class="node"><title>github.com/supermuesli/csdl@aws/ec2/ElasticIpAmount.py@latest</title>
<ellipse fill="none" stroke="black" cx="698.941" cy="-18" rx="250.756" ry="18"/>
<text text-anchor="middle" x="698.941" y="-14.3" font-family="Times,serif" font-size="14.00">github.com/supermuesli/csdl@aws/ec2/ElasticIpAmount.py@latest</text>
</g>
<!-- github.com/supermuesli/csdl@aws/ec2/EC2.py@latest&#45;&gt;github.com/supermuesli/csdl@aws/ec2/ElasticIpAmount.py@latest -->
<g id="edge18" class="edge"><title>github.com/supermuesli/csdl@aws/ec2/EC2.py@latest&#45;&gt;github.com/supermuesli/csdl@aws/ec2/ElasticIpAmount.py@latest</title>
<path fill="none" stroke="red" d="M211.586,-431.799C229.036,-366.265 298.312,-141.154 448.063,-45 456.307,-39.707 465.026,-35.1347 474.075,-31.1975"/>
<polygon fill="red" stroke="red" points="475.67,-34.3273 483.617,-27.3207 473.035,-27.8421 475.67,-34.3273"/>
</g>
<!-- PricingModel -->
<g id="node3" class="node"><title>PricingModel</title>
<ellipse fill="none" stroke="black" cx="1045.61" cy="-882" rx="59.5901" ry="18"/>
<text text-anchor="middle" x="1045.61" y="-878.3" font-family="Times,serif" font-size="14.00">PricingModel</text>
</g>
<!-- Price&#45;&gt;PricingModel -->
<g id="edge2" class="edge"><title>Price&#45;&gt;PricingModel</title>
<path fill="none" stroke="red" d="M727.565,-882C780.811,-882 899.103,-882 975.18,-882"/>
<polygon fill="red" stroke="red" points="975.624,-885.5 985.624,-882 975.624,-878.5 975.624,-885.5"/>
</g>
</g>
</svg>
