<?xml version="1.0" encoding="UTF-8" standalone="no"?>
<!DOCTYPE svg PUBLIC "-//W3C//DTD SVG 1.1//EN"
 "http://www.w3.org/Graphics/SVG/1.1/DTD/svg11.dtd">
<!-- Generated by graphviz version 2.38.0 (20140413.2041)
 -->
<!-- Title: %3 Pages: 1 -->
<svg width="1016pt" height="314pt"
 viewBox="0.00 0.00 1015.92 314.00" xmlns="http://www.w3.org/2000/svg" xmlns:xlink="http://www.w3.org/1999/xlink">
<g id="graph0" class="graph" transform="scale(1 1) rotate(0) translate(4 310)">
<title>%3</title>
<polygon fill="white" stroke="none" points="-4,4 -4,-310 1011.92,-310 1011.92,4 -4,4"/>
<!-- github.com/supermuesli/csdl@aws/s3/S3.py@latest -->
<g id="node1" class="node"><title>github.com/supermuesli/csdl@aws/s3/S3.py@latest</title>
<ellipse fill="none" stroke="black" cx="194.983" cy="-153" rx="194.965" ry="18"/>
<text text-anchor="middle" x="194.983" y="-149.3" font-family="Times,serif" font-size="14.00">github.com/supermuesli/csdl@aws/s3/S3.py@latest</text>
</g>
<!-- Price -->
<g id="node2" class="node"><title>Price</title>
<ellipse fill="none" stroke="black" cx="639.146" cy="-288" rx="28.6953" ry="18"/>
<text text-anchor="middle" x="639.146" y="-284.3" font-family="Times,serif" font-size="14.00">Price</text>
</g>
<!-- github.com/supermuesli/csdl@aws/s3/S3.py@latest&#45;&gt;Price -->
<g id="edge1" class="edge"><title>github.com/supermuesli/csdl@aws/s3/S3.py@latest&#45;&gt;Price</title>
<path fill="none" stroke="red" d="M226.025,-170.867C268.832,-195.435 350.567,-239.09 425.965,-261 485.427,-278.279 557.451,-284.504 600.442,-286.744"/>
<polygon fill="red" stroke="red" points="600.306,-290.241 610.461,-287.22 600.639,-283.249 600.306,-290.241"/>
</g>
<!-- Region -->
<g id="node4" class="node"><title>Region</title>
<ellipse fill="none" stroke="black" cx="639.146" cy="-234" rx="36.2938" ry="18"/>
<text text-anchor="middle" x="639.146" y="-230.3" font-family="Times,serif" font-size="14.00">Region</text>
</g>
<!-- github.com/supermuesli/csdl@aws/s3/S3.py@latest&#45;&gt;Region -->
<g id="edge3" class="edge"><title>github.com/supermuesli/csdl@aws/s3/S3.py@latest&#45;&gt;Region</title>
<path fill="none" stroke="red" d="M260.538,-170.056C306.429,-181.714 369.662,-196.836 425.965,-207 483.188,-217.33 549.794,-225.125 592.895,-229.621"/>
<polygon fill="red" stroke="red" points="592.753,-233.124 603.058,-230.665 593.469,-226.161 592.753,-233.124"/>
</g>
<!-- Storage -->
<g id="node5" class="node"><title>Storage</title>
<ellipse fill="none" stroke="black" cx="639.146" cy="-180" rx="37.8943" ry="18"/>
<text text-anchor="middle" x="639.146" y="-176.3" font-family="Times,serif" font-size="14.00">Storage</text>
</g>
<!-- github.com/supermuesli/csdl@aws/s3/S3.py@latest&#45;&gt;Storage -->
<g id="edge4" class="edge"><title>github.com/supermuesli/csdl@aws/s3/S3.py@latest&#45;&gt;Storage</title>
<path fill="none" stroke="red" d="M358.117,-162.9C441.012,-167.962 535.834,-173.752 591.144,-177.13"/>
<polygon fill="red" stroke="red" points="591.138,-180.636 601.333,-177.752 591.564,-173.649 591.138,-180.636"/>
</g>
<!-- StorageWriteSpeed -->
<g id="node6" class="node"><title>StorageWriteSpeed</title>
<ellipse fill="none" stroke="black" cx="639.146" cy="-126" rx="79.0865" ry="18"/>
<text text-anchor="middle" x="639.146" y="-122.3" font-family="Times,serif" font-size="14.00">StorageWriteSpeed</text>
</g>
<!-- github.com/supermuesli/csdl@aws/s3/S3.py@latest&#45;&gt;StorageWriteSpeed -->
<g id="edge5" class="edge"><title>github.com/supermuesli/csdl@aws/s3/S3.py@latest&#45;&gt;StorageWriteSpeed</title>
<path fill="none" stroke="red" d="M358.117,-143.1C423.898,-139.083 497.189,-134.607 552.287,-131.243"/>
<polygon fill="red" stroke="red" points="552.59,-134.731 562.358,-130.628 552.163,-127.744 552.59,-134.731"/>
</g>
<!-- StorageReadSpeed -->
<g id="node7" class="node"><title>StorageReadSpeed</title>
<ellipse fill="none" stroke="black" cx="639.146" cy="-72" rx="77.1866" ry="18"/>
<text text-anchor="middle" x="639.146" y="-68.3" font-family="Times,serif" font-size="14.00">StorageReadSpeed</text>
</g>
<!-- github.com/supermuesli/csdl@aws/s3/S3.py@latest&#45;&gt;StorageReadSpeed -->
<g id="edge6" class="edge"><title>github.com/supermuesli/csdl@aws/s3/S3.py@latest&#45;&gt;StorageReadSpeed</title>
<path fill="none" stroke="red" d="M260.538,-135.944C306.429,-124.286 369.662,-109.164 425.965,-99 469.163,-91.2019 517.709,-84.8486 557.452,-80.2684"/>
<polygon fill="red" stroke="red" points="558.081,-83.7196 567.622,-79.1128 557.29,-76.7643 558.081,-83.7196"/>
</g>
<!-- github.com/supermuesli/csdl@aws/s3/S3Type.py@latest -->
<g id="node8" class="node"><title>github.com/supermuesli/csdl@aws/s3/S3Type.py@latest</title>
<ellipse fill="none" stroke="black" cx="639.146" cy="-18" rx="213.362" ry="18"/>
<text text-anchor="middle" x="639.146" y="-14.3" font-family="Times,serif" font-size="14.00">github.com/supermuesli/csdl@aws/s3/S3Type.py@latest</text>
</g>
<!-- github.com/supermuesli/csdl@aws/s3/S3.py@latest&#45;&gt;github.com/supermuesli/csdl@aws/s3/S3Type.py@latest -->
<g id="edge7" class="edge"><title>github.com/supermuesli/csdl@aws/s3/S3.py@latest&#45;&gt;github.com/supermuesli/csdl@aws/s3/S3Type.py@latest</title>
<path fill="none" stroke="red" d="M226.025,-135.133C268.832,-110.565 350.567,-66.9101 425.965,-45 443.195,-39.9934 461.478,-35.9149 479.805,-32.5924"/>
<polygon fill="red" stroke="red" points="480.432,-36.0359 489.684,-30.8733 479.232,-29.1395 480.432,-36.0359"/>
</g>
<!-- PricingModel -->
<g id="node3" class="node"><title>PricingModel</title>
<ellipse fill="none" stroke="black" cx="948.122" cy="-288" rx="59.5901" ry="18"/>
<text text-anchor="middle" x="948.122" y="-284.3" font-family="Times,serif" font-size="14.00">PricingModel</text>
</g>
<!-- Price&#45;&gt;PricingModel -->
<g id="edge2" class="edge"><title>Price&#45;&gt;PricingModel</title>
<path fill="none" stroke="red" d="M667.93,-288C714.931,-288 811.477,-288 877.751,-288"/>
<polygon fill="red" stroke="red" points="878.115,-291.5 888.115,-288 878.115,-284.5 878.115,-291.5"/>
</g>
</g>
</svg>
