<?xml version="1.0" encoding="UTF-8" standalone="no"?>
<!DOCTYPE svg PUBLIC "-//W3C//DTD SVG 1.1//EN"
 "http://www.w3.org/Graphics/SVG/1.1/DTD/svg11.dtd">
<!-- Generated by graphviz version 2.38.0 (20140413.2041)
 -->
<!-- Title: %3 Pages: 1 -->
<svg width="1048pt" height="314pt"
 viewBox="0.00 0.00 1048.41 314.00" xmlns="http://www.w3.org/2000/svg" xmlns:xlink="http://www.w3.org/1999/xlink">
<g id="graph0" class="graph" transform="scale(1 1) rotate(0) translate(4 310)">
<title>%3</title>
<polygon fill="white" stroke="none" points="-4,4 -4,-310 1044.41,-310 1044.41,4 -4,4"/>
<!-- github.com/supermuesli/csdl@aws/s3/S3.py@latest -->
<g id="node1" class="node"><title>github.com/supermuesli/csdl@aws/s3/S3.py@latest</title>
<ellipse fill="none" stroke="black" cx="194.983" cy="-153" rx="194.965" ry="18"/>
<text text-anchor="middle" x="194.983" y="-149.3" font-family="Times,serif" font-size="14.00">github.com/supermuesli/csdl@aws/s3/S3.py@latest</text>
</g>
<!-- Price -->
<g id="node2" class="node"><title>Price</title>
<ellipse fill="none" stroke="black" cx="655.395" cy="-288" rx="28.6953" ry="18"/>
<text text-anchor="middle" x="655.395" y="-284.3" font-family="Times,serif" font-size="14.00">Price</text>
</g>
<!-- github.com/supermuesli/csdl@aws/s3/S3.py@latest&#45;&gt;Price -->
<g id="edge1" class="edge"><title>github.com/supermuesli/csdl@aws/s3/S3.py@latest&#45;&gt;Price</title>
<path fill="none" stroke="red" d="M225.998,-170.96C268.773,-195.64 350.47,-239.426 425.965,-261 491.332,-279.679 570.778,-285.455 616.671,-287.229"/>
<polygon fill="red" stroke="red" points="616.648,-290.73 626.762,-287.575 616.888,-283.734 616.648,-290.73"/>
</g>
<!-- github.com/supermuesli/csdl@aws/regions/Region.py@latest -->
<g id="node4" class="node"><title>github.com/supermuesli/csdl@aws/regions/Region.py@latest</title>
<ellipse fill="none" stroke="black" cx="655.395" cy="-234" rx="229.359" ry="18"/>
<text text-anchor="middle" x="655.395" y="-230.3" font-family="Times,serif" font-size="14.00">github.com/supermuesli/csdl@aws/regions/Region.py@latest</text>
</g>
<!-- github.com/supermuesli/csdl@aws/s3/S3.py@latest&#45;&gt;github.com/supermuesli/csdl@aws/regions/Region.py@latest -->
<g id="edge3" class="edge"><title>github.com/supermuesli/csdl@aws/s3/S3.py@latest&#45;&gt;github.com/supermuesli/csdl@aws/regions/Region.py@latest</title>
<path fill="none" stroke="red" d="M260.018,-170.086C305.935,-181.834 369.415,-197.052 425.965,-207 450.791,-211.367 477.262,-215.222 503.057,-218.552"/>
<polygon fill="red" stroke="red" points="502.927,-222.064 513.288,-219.851 503.808,-215.12 502.927,-222.064"/>
</g>
<!-- Storage -->
<g id="node5" class="node"><title>Storage</title>
<ellipse fill="none" stroke="black" cx="655.395" cy="-180" rx="37.8943" ry="18"/>
<text text-anchor="middle" x="655.395" y="-176.3" font-family="Times,serif" font-size="14.00">Storage</text>
</g>
<!-- github.com/supermuesli/csdl@aws/s3/S3.py@latest&#45;&gt;Storage -->
<g id="edge4" class="edge"><title>github.com/supermuesli/csdl@aws/s3/S3.py@latest&#45;&gt;Storage</title>
<path fill="none" stroke="red" d="M359.862,-162.652C447.693,-167.825 549.488,-173.821 607.48,-177.237"/>
<polygon fill="red" stroke="red" points="607.597,-180.75 617.785,-177.844 608.008,-173.762 607.597,-180.75"/>
</g>
<!-- StorageWriteSpeed -->
<g id="node6" class="node"><title>StorageWriteSpeed</title>
<ellipse fill="none" stroke="black" cx="655.395" cy="-126" rx="79.0865" ry="18"/>
<text text-anchor="middle" x="655.395" y="-122.3" font-family="Times,serif" font-size="14.00">StorageWriteSpeed</text>
</g>
<!-- github.com/supermuesli/csdl@aws/s3/S3.py@latest&#45;&gt;StorageWriteSpeed -->
<g id="edge5" class="edge"><title>github.com/supermuesli/csdl@aws/s3/S3.py@latest&#45;&gt;StorageWriteSpeed</title>
<path fill="none" stroke="red" d="M359.862,-143.348C430.175,-139.206 509.438,-134.538 568.012,-131.088"/>
<polygon fill="red" stroke="red" points="568.556,-134.562 578.333,-130.48 568.144,-127.574 568.556,-134.562"/>
</g>
<!-- StorageReadSpeed -->
<g id="node7" class="node"><title>StorageReadSpeed</title>
<ellipse fill="none" stroke="black" cx="655.395" cy="-72" rx="77.1866" ry="18"/>
<text text-anchor="middle" x="655.395" y="-68.3" font-family="Times,serif" font-size="14.00">StorageReadSpeed</text>
</g>
<!-- github.com/supermuesli/csdl@aws/s3/S3.py@latest&#45;&gt;StorageReadSpeed -->
<g id="edge6" class="edge"><title>github.com/supermuesli/csdl@aws/s3/S3.py@latest&#45;&gt;StorageReadSpeed</title>
<path fill="none" stroke="red" d="M260.018,-135.914C305.935,-124.166 369.415,-108.948 425.965,-99 474.403,-90.4789 529.103,-83.9076 572.83,-79.3822"/>
<polygon fill="red" stroke="red" points="573.247,-82.858 582.841,-78.362 572.537,-75.8941 573.247,-82.858"/>
</g>
<!-- github.com/supermuesli/csdl@aws/s3/S3Type.py@latest -->
<g id="node8" class="node"><title>github.com/supermuesli/csdl@aws/s3/S3Type.py@latest</title>
<ellipse fill="none" stroke="black" cx="655.395" cy="-18" rx="213.362" ry="18"/>
<text text-anchor="middle" x="655.395" y="-14.3" font-family="Times,serif" font-size="14.00">github.com/supermuesli/csdl@aws/s3/S3Type.py@latest</text>
</g>
<!-- github.com/supermuesli/csdl@aws/s3/S3.py@latest&#45;&gt;github.com/supermuesli/csdl@aws/s3/S3Type.py@latest -->
<g id="edge7" class="edge"><title>github.com/supermuesli/csdl@aws/s3/S3.py@latest&#45;&gt;github.com/supermuesli/csdl@aws/s3/S3Type.py@latest</title>
<path fill="none" stroke="red" d="M225.998,-135.04C268.773,-110.36 350.47,-66.5737 425.965,-45 445.186,-39.5074 465.625,-35.1304 486.069,-31.6429"/>
<polygon fill="red" stroke="red" points="486.798,-35.0704 496.101,-30.0013 485.667,-28.1623 486.798,-35.0704"/>
</g>
<!-- PricingModel -->
<g id="node3" class="node"><title>PricingModel</title>
<ellipse fill="none" stroke="black" cx="980.619" cy="-288" rx="59.5901" ry="18"/>
<text text-anchor="middle" x="980.619" y="-284.3" font-family="Times,serif" font-size="14.00">PricingModel</text>
</g>
<!-- Price&#45;&gt;PricingModel -->
<g id="edge2" class="edge"><title>Price&#45;&gt;PricingModel</title>
<path fill="none" stroke="red" d="M684.233,-288C734.075,-288 839.925,-288 910.428,-288"/>
<polygon fill="red" stroke="red" points="910.563,-291.5 920.563,-288 910.563,-284.5 910.563,-291.5"/>
</g>
</g>
</svg>
