<?xml version="1.0" encoding="UTF-8" standalone="no"?>
<!DOCTYPE svg PUBLIC "-//W3C//DTD SVG 1.1//EN"
 "http://www.w3.org/Graphics/SVG/1.1/DTD/svg11.dtd">
<!-- Generated by graphviz version 2.38.0 (20140413.2041)
 -->
<!-- Title: %3 Pages: 1 -->
<svg width="1042pt" height="260pt"
 viewBox="0.00 0.00 1041.91 260.00" xmlns="http://www.w3.org/2000/svg" xmlns:xlink="http://www.w3.org/1999/xlink">
<g id="graph0" class="graph" transform="scale(1 1) rotate(0) translate(4 256)">
<title>%3</title>
<polygon fill="white" stroke="none" points="-4,4 -4,-256 1037.91,-256 1037.91,4 -4,4"/>
<!-- github.com/supermuesli/csdl@aws/EBS.py@latest -->
<g id="node1" class="node"><title>github.com/supermuesli/csdl@aws/EBS.py@latest</title>
<ellipse fill="none" stroke="black" cx="191.733" cy="-126" rx="191.966" ry="18"/>
<text text-anchor="middle" x="191.733" y="-122.3" font-family="Times,serif" font-size="14.00">github.com/supermuesli/csdl@aws/EBS.py@latest</text>
</g>
<!-- Price -->
<g id="node2" class="node"><title>Price</title>
<ellipse fill="none" stroke="black" cx="648.896" cy="-234" rx="28.6953" ry="18"/>
<text text-anchor="middle" x="648.896" y="-230.3" font-family="Times,serif" font-size="14.00">Price</text>
</g>
<!-- github.com/supermuesli/csdl@aws/EBS.py@latest&#45;&gt;Price -->
<g id="edge1" class="edge"><title>github.com/supermuesli/csdl@aws/EBS.py@latest&#45;&gt;Price</title>
<path fill="none" stroke="red" d="M233.267,-143.629C277.992,-162.33 352.522,-191.298 419.466,-207 485.473,-222.482 564.397,-229.304 610.074,-232.143"/>
<polygon fill="red" stroke="red" points="609.932,-235.641 620.121,-232.737 610.345,-228.653 609.932,-235.641"/>
</g>
<!-- github.com/supermuesli/csdl@aws/regions/Region.py@latest -->
<g id="node4" class="node"><title>github.com/supermuesli/csdl@aws/regions/Region.py@latest</title>
<ellipse fill="none" stroke="black" cx="648.896" cy="-180" rx="229.359" ry="18"/>
<text text-anchor="middle" x="648.896" y="-176.3" font-family="Times,serif" font-size="14.00">github.com/supermuesli/csdl@aws/regions/Region.py@latest</text>
</g>
<!-- github.com/supermuesli/csdl@aws/EBS.py@latest&#45;&gt;github.com/supermuesli/csdl@aws/regions/Region.py@latest -->
<g id="edge3" class="edge"><title>github.com/supermuesli/csdl@aws/EBS.py@latest&#45;&gt;github.com/supermuesli/csdl@aws/regions/Region.py@latest</title>
<path fill="none" stroke="red" d="M310.995,-140.103C345.924,-144.263 384.234,-148.82 419.466,-153 449.037,-156.508 480.763,-160.264 510.88,-163.825"/>
<polygon fill="red" stroke="red" points="510.684,-167.326 521.026,-165.024 511.506,-160.374 510.684,-167.326"/>
</g>
<!-- Storage -->
<g id="node5" class="node"><title>Storage</title>
<ellipse fill="none" stroke="black" cx="648.896" cy="-126" rx="37.8943" ry="18"/>
<text text-anchor="middle" x="648.896" y="-122.3" font-family="Times,serif" font-size="14.00">Storage</text>
</g>
<!-- github.com/supermuesli/csdl@aws/EBS.py@latest&#45;&gt;Storage -->
<g id="edge4" class="edge"><title>github.com/supermuesli/csdl@aws/EBS.py@latest&#45;&gt;Storage</title>
<path fill="none" stroke="red" d="M383.785,-126C463.445,-126 549.237,-126 600.736,-126"/>
<polygon fill="red" stroke="red" points="600.878,-129.5 610.878,-126 600.878,-122.5 600.878,-129.5"/>
</g>
<!-- StorageWriteSpeed -->
<g id="node6" class="node"><title>StorageWriteSpeed</title>
<ellipse fill="none" stroke="black" cx="648.896" cy="-72" rx="79.0865" ry="18"/>
<text text-anchor="middle" x="648.896" y="-68.3" font-family="Times,serif" font-size="14.00">StorageWriteSpeed</text>
</g>
<!-- github.com/supermuesli/csdl@aws/EBS.py@latest&#45;&gt;StorageWriteSpeed -->
<g id="edge5" class="edge"><title>github.com/supermuesli/csdl@aws/EBS.py@latest&#45;&gt;StorageWriteSpeed</title>
<path fill="none" stroke="red" d="M310.995,-111.897C345.924,-107.737 384.234,-103.18 419.466,-99 468.857,-93.1403 524.258,-86.5914 568.13,-81.4109"/>
<polygon fill="red" stroke="red" points="568.643,-84.8747 578.164,-80.2262 567.822,-77.923 568.643,-84.8747"/>
</g>
<!-- StorageReadSpeed -->
<g id="node7" class="node"><title>StorageReadSpeed</title>
<ellipse fill="none" stroke="black" cx="648.896" cy="-18" rx="77.1866" ry="18"/>
<text text-anchor="middle" x="648.896" y="-14.3" font-family="Times,serif" font-size="14.00">StorageReadSpeed</text>
</g>
<!-- github.com/supermuesli/csdl@aws/EBS.py@latest&#45;&gt;StorageReadSpeed -->
<g id="edge6" class="edge"><title>github.com/supermuesli/csdl@aws/EBS.py@latest&#45;&gt;StorageReadSpeed</title>
<path fill="none" stroke="red" d="M233.267,-108.371C277.992,-89.6697 352.522,-60.7017 419.466,-45 466.627,-33.9385 520.381,-27.2976 563.892,-23.3716"/>
<polygon fill="red" stroke="red" points="564.207,-26.8575 573.866,-22.5028 563.6,-19.8839 564.207,-26.8575"/>
</g>
<!-- PricingModel -->
<g id="node3" class="node"><title>PricingModel</title>
<ellipse fill="none" stroke="black" cx="974.12" cy="-234" rx="59.5901" ry="18"/>
<text text-anchor="middle" x="974.12" y="-230.3" font-family="Times,serif" font-size="14.00">PricingModel</text>
</g>
<!-- Price&#45;&gt;PricingModel -->
<g id="edge2" class="edge"><title>Price&#45;&gt;PricingModel</title>
<path fill="none" stroke="red" d="M677.733,-234C727.576,-234 833.426,-234 903.929,-234"/>
<polygon fill="red" stroke="red" points="904.064,-237.5 914.064,-234 904.064,-230.5 904.064,-237.5"/>
</g>
</g>
</svg>
