<?xml version="1.0" encoding="UTF-8" standalone="no"?>
<!DOCTYPE svg PUBLIC "-//W3C//DTD SVG 1.1//EN"
 "http://www.w3.org/Graphics/SVG/1.1/DTD/svg11.dtd">
<!-- Generated by graphviz version 2.38.0 (20140413.2041)
 -->
<!-- Title: %3 Pages: 1 -->
<svg width="886pt" height="206pt"
 viewBox="0.00 0.00 886.33 206.00" xmlns="http://www.w3.org/2000/svg" xmlns:xlink="http://www.w3.org/1999/xlink">
<g id="graph0" class="graph" transform="scale(1 1) rotate(0) translate(4 202)">
<title>%3</title>
<polygon fill="white" stroke="none" points="-4,4 -4,-202 882.325,-202 882.325,4 -4,4"/>
<!-- github.com/supermuesli/csdl@aws/EBS.py@latest -->
<g id="node1" class="node"><title>github.com/supermuesli/csdl@aws/EBS.py@latest</title>
<ellipse fill="none" stroke="black" cx="191.733" cy="-99" rx="191.966" ry="18"/>
<text text-anchor="middle" x="191.733" y="-95.3" font-family="Times,serif" font-size="14.00">github.com/supermuesli/csdl@aws/EBS.py@latest</text>
</g>
<!-- github.com/supermuesli/csdl@aws/regions/Region.py@latest -->
<g id="node2" class="node"><title>github.com/supermuesli/csdl@aws/regions/Region.py@latest</title>
<ellipse fill="none" stroke="black" cx="648.896" cy="-180" rx="229.359" ry="18"/>
<text text-anchor="middle" x="648.896" y="-176.3" font-family="Times,serif" font-size="14.00">github.com/supermuesli/csdl@aws/regions/Region.py@latest</text>
</g>
<!-- github.com/supermuesli/csdl@aws/EBS.py@latest&#45;&gt;github.com/supermuesli/csdl@aws/regions/Region.py@latest -->
<g id="edge1" class="edge"><title>github.com/supermuesli/csdl@aws/EBS.py@latest&#45;&gt;github.com/supermuesli/csdl@aws/regions/Region.py@latest</title>
<path fill="none" stroke="red" d="M255.363,-115.988C300.661,-127.766 363.489,-143.061 419.466,-153 444.198,-157.391 470.567,-161.255 496.275,-164.585"/>
<polygon fill="red" stroke="red" points="496.111,-168.092 506.472,-165.883 496.994,-161.148 496.111,-168.092"/>
</g>
<!-- Storage -->
<g id="node3" class="node"><title>Storage</title>
<ellipse fill="none" stroke="black" cx="648.896" cy="-126" rx="37.8943" ry="18"/>
<text text-anchor="middle" x="648.896" y="-122.3" font-family="Times,serif" font-size="14.00">Storage</text>
</g>
<!-- github.com/supermuesli/csdl@aws/EBS.py@latest&#45;&gt;Storage -->
<g id="edge2" class="edge"><title>github.com/supermuesli/csdl@aws/EBS.py@latest&#45;&gt;Storage</title>
<path fill="none" stroke="red" d="M354.167,-108.576C441.523,-113.758 543.119,-119.785 601.031,-123.22"/>
<polygon fill="red" stroke="red" points="601.133,-126.732 611.322,-123.831 601.547,-119.744 601.133,-126.732"/>
</g>
<!-- StorageWriteSpeed -->
<g id="node4" class="node"><title>StorageWriteSpeed</title>
<ellipse fill="none" stroke="black" cx="648.896" cy="-72" rx="79.0865" ry="18"/>
<text text-anchor="middle" x="648.896" y="-68.3" font-family="Times,serif" font-size="14.00">StorageWriteSpeed</text>
</g>
<!-- github.com/supermuesli/csdl@aws/EBS.py@latest&#45;&gt;StorageWriteSpeed -->
<g id="edge3" class="edge"><title>github.com/supermuesli/csdl@aws/EBS.py@latest&#45;&gt;StorageWriteSpeed</title>
<path fill="none" stroke="red" d="M354.167,-89.4238C424.101,-85.2754 503.16,-80.5856 561.627,-77.1174"/>
<polygon fill="red" stroke="red" points="562.154,-80.5924 571.929,-76.5063 561.739,-73.6047 562.154,-80.5924"/>
</g>
<!-- StorageReadSpeed -->
<g id="node5" class="node"><title>StorageReadSpeed</title>
<ellipse fill="none" stroke="black" cx="648.896" cy="-18" rx="77.1866" ry="18"/>
<text text-anchor="middle" x="648.896" y="-14.3" font-family="Times,serif" font-size="14.00">StorageReadSpeed</text>
</g>
<!-- github.com/supermuesli/csdl@aws/EBS.py@latest&#45;&gt;StorageReadSpeed -->
<g id="edge4" class="edge"><title>github.com/supermuesli/csdl@aws/EBS.py@latest&#45;&gt;StorageReadSpeed</title>
<path fill="none" stroke="red" d="M255.363,-82.0122C300.661,-70.2342 363.489,-54.9394 419.466,-45 467.89,-36.4017 522.59,-29.8275 566.32,-25.3199"/>
<polygon fill="red" stroke="red" points="566.735,-28.7958 576.331,-24.3042 566.029,-21.8315 566.735,-28.7958"/>
</g>
</g>
</svg>
