<?xml version="1.0" encoding="UTF-8" standalone="no"?>
<!DOCTYPE svg PUBLIC "-//W3C//DTD SVG 1.1//EN"
 "http://www.w3.org/Graphics/SVG/1.1/DTD/svg11.dtd">
<!-- Generated by graphviz version 2.38.0 (20140413.2041)
 -->
<!-- Title: %3 Pages: 1 -->
<svg width="586pt" height="206pt"
 viewBox="0.00 0.00 586.05 206.00" xmlns="http://www.w3.org/2000/svg" xmlns:xlink="http://www.w3.org/1999/xlink">
<g id="graph0" class="graph" transform="scale(1 1) rotate(0) translate(4 202)">
<title>%3</title>
<polygon fill="white" stroke="none" points="-4,4 -4,-202 582.052,-202 582.052,4 -4,4"/>
<!-- github.com/supermuesli/csdl@aws/EBS.py@latest -->
<g id="node1" class="node"><title>github.com/supermuesli/csdl@aws/EBS.py@latest</title>
<ellipse fill="none" stroke="black" cx="191.733" cy="-99" rx="191.966" ry="18"/>
<text text-anchor="middle" x="191.733" y="-95.3" font-family="Times,serif" font-size="14.00">github.com/supermuesli/csdl@aws/EBS.py@latest</text>
</g>
<!-- Region -->
<g id="node2" class="node"><title>Region</title>
<ellipse fill="none" stroke="black" cx="498.759" cy="-180" rx="36.2938" ry="18"/>
<text text-anchor="middle" x="498.759" y="-176.3" font-family="Times,serif" font-size="14.00">Region</text>
</g>
<!-- github.com/supermuesli/csdl@aws/EBS.py@latest&#45;&gt;Region -->
<g id="edge1" class="edge"><title>github.com/supermuesli/csdl@aws/EBS.py@latest&#45;&gt;Region</title>
<path fill="none" stroke="red" d="M256.676,-115.98C316.782,-131.941 404.974,-155.361 456.362,-169.007"/>
<polygon fill="red" stroke="red" points="455.566,-172.417 466.13,-171.601 457.363,-165.651 455.566,-172.417"/>
</g>
<!-- Storage -->
<g id="node3" class="node"><title>Storage</title>
<ellipse fill="none" stroke="black" cx="498.759" cy="-126" rx="37.8943" ry="18"/>
<text text-anchor="middle" x="498.759" y="-122.3" font-family="Times,serif" font-size="14.00">Storage</text>
</g>
<!-- github.com/supermuesli/csdl@aws/EBS.py@latest&#45;&gt;Storage -->
<g id="edge2" class="edge"><title>github.com/supermuesli/csdl@aws/EBS.py@latest&#45;&gt;Storage</title>
<path fill="none" stroke="red" d="M331.857,-111.315C374.771,-115.113 419.111,-119.038 451.143,-121.874"/>
<polygon fill="red" stroke="red" points="451.244,-125.396 461.514,-122.792 451.862,-118.424 451.244,-125.396"/>
</g>
<!-- StorageWriteSpeed -->
<g id="node4" class="node"><title>StorageWriteSpeed</title>
<ellipse fill="none" stroke="black" cx="498.759" cy="-72" rx="79.0865" ry="18"/>
<text text-anchor="middle" x="498.759" y="-68.3" font-family="Times,serif" font-size="14.00">StorageWriteSpeed</text>
</g>
<!-- github.com/supermuesli/csdl@aws/EBS.py@latest&#45;&gt;StorageWriteSpeed -->
<g id="edge3" class="edge"><title>github.com/supermuesli/csdl@aws/EBS.py@latest&#45;&gt;StorageWriteSpeed</title>
<path fill="none" stroke="red" d="M331.857,-86.6852C360.154,-84.1804 389.07,-81.6208 414.67,-79.3548"/>
<polygon fill="red" stroke="red" points="415.027,-82.837 424.679,-78.4688 414.41,-75.8642 415.027,-82.837"/>
</g>
<!-- StorageReadSpeed -->
<g id="node5" class="node"><title>StorageReadSpeed</title>
<ellipse fill="none" stroke="black" cx="498.759" cy="-18" rx="77.1866" ry="18"/>
<text text-anchor="middle" x="498.759" y="-14.3" font-family="Times,serif" font-size="14.00">StorageReadSpeed</text>
</g>
<!-- github.com/supermuesli/csdl@aws/EBS.py@latest&#45;&gt;StorageReadSpeed -->
<g id="edge4" class="edge"><title>github.com/supermuesli/csdl@aws/EBS.py@latest&#45;&gt;StorageReadSpeed</title>
<path fill="none" stroke="red" d="M256.676,-82.0197C309.85,-67.8994 385.006,-47.9417 437.214,-34.0778"/>
<polygon fill="red" stroke="red" points="438.243,-37.4258 447.01,-31.4764 436.447,-30.6603 438.243,-37.4258"/>
</g>
</g>
</svg>
