<?xml version="1.0" encoding="UTF-8" standalone="no"?>
<!DOCTYPE svg PUBLIC "-//W3C//DTD SVG 1.1//EN"
 "http://www.w3.org/Graphics/SVG/1.1/DTD/svg11.dtd">
<!-- Generated by graphviz version 2.38.0 (20140413.2041)
 -->
<!-- Title: %3 Pages: 1 -->
<svg width="1265pt" height="206pt"
 viewBox="0.00 0.00 1265.49 206.00" xmlns="http://www.w3.org/2000/svg" xmlns:xlink="http://www.w3.org/1999/xlink">
<g id="graph0" class="graph" transform="scale(1 1) rotate(0) translate(4 202)">
<title>%3</title>
<polygon fill="white" stroke="none" points="-4,4 -4,-202 1261.49,-202 1261.49,4 -4,4"/>
<!-- github.com/supermuesli/csdl@aws/rdsPostgres/Postgresql.py@latest -->
<g id="node1" class="node"><title>github.com/supermuesli/csdl@aws/rdsPostgres/Postgresql.py@latest</title>
<ellipse fill="none" stroke="black" cx="254.777" cy="-126" rx="254.555" ry="18"/>
<text text-anchor="middle" x="254.777" y="-122.3" font-family="Times,serif" font-size="14.00">github.com/supermuesli/csdl@aws/rdsPostgres/Postgresql.py@latest</text>
</g>
<!-- Price -->
<g id="node2" class="node"><title>Price</title>
<ellipse fill="none" stroke="black" cx="823.73" cy="-180" rx="28.6953" ry="18"/>
<text text-anchor="middle" x="823.73" y="-176.3" font-family="Times,serif" font-size="14.00">Price</text>
</g>
<!-- github.com/supermuesli/csdl@aws/rdsPostgres/Postgresql.py@latest&#45;&gt;Price -->
<g id="edge1" class="edge"><title>github.com/supermuesli/csdl@aws/rdsPostgres/Postgresql.py@latest&#45;&gt;Price</title>
<path fill="none" stroke="red" d="M407.338,-140.436C535.47,-152.64 709.88,-169.251 785.369,-176.442"/>
<polygon fill="red" stroke="red" points="785.062,-179.928 795.349,-177.392 785.726,-172.96 785.062,-179.928"/>
</g>
<!-- Attribute -->
<g id="node4" class="node"><title>Attribute</title>
<ellipse fill="none" stroke="black" cx="823.73" cy="-126" rx="42.4939" ry="18"/>
<text text-anchor="middle" x="823.73" y="-122.3" font-family="Times,serif" font-size="14.00">Attribute</text>
</g>
<!-- github.com/supermuesli/csdl@aws/rdsPostgres/Postgresql.py@latest&#45;&gt;Attribute -->
<g id="edge3" class="edge"><title>github.com/supermuesli/csdl@aws/rdsPostgres/Postgresql.py@latest&#45;&gt;Attribute</title>
<path fill="none" stroke="red" d="M435.944,-113.331C554.153,-111.347 700.127,-112.917 774.392,-118.04"/>
<polygon fill="red" stroke="red" points="774.584,-121.565 784.817,-118.822 775.107,-114.584 774.584,-121.565"/>
</g>
<!-- github.com/supermuesli/csdl@aws/rdsPostgres/Postgresql.py@latest&#45;&gt;Attribute -->
<g id="edge4" class="edge"><title>github.com/supermuesli/csdl@aws/rdsPostgres/Postgresql.py@latest&#45;&gt;Attribute</title>
<path fill="none" stroke="red" d="M509.818,-126C607.923,-126 710.782,-126 770.71,-126"/>
<polygon fill="red" stroke="red" points="771.03,-129.5 781.029,-126 771.029,-122.5 771.03,-129.5"/>
</g>
<!-- github.com/supermuesli/csdl@aws/rdsPostgres/Postgresql.py@latest&#45;&gt;Attribute -->
<g id="edge5" class="edge"><title>github.com/supermuesli/csdl@aws/rdsPostgres/Postgresql.py@latest&#45;&gt;Attribute</title>
<path fill="none" stroke="red" d="M435.944,-138.669C554.153,-140.653 700.127,-139.083 774.392,-133.96"/>
<polygon fill="red" stroke="red" points="775.107,-137.416 784.817,-133.178 774.584,-130.435 775.107,-137.416"/>
</g>
<!-- github.com/supermuesli/csdl@aws/regions/Region.py@latest -->
<g id="node5" class="node"><title>github.com/supermuesli/csdl@aws/regions/Region.py@latest</title>
<ellipse fill="none" stroke="black" cx="823.73" cy="-72" rx="229.359" ry="18"/>
<text text-anchor="middle" x="823.73" y="-68.3" font-family="Times,serif" font-size="14.00">github.com/supermuesli/csdl@aws/regions/Region.py@latest</text>
</g>
<!-- github.com/supermuesli/csdl@aws/rdsPostgres/Postgresql.py@latest&#45;&gt;github.com/supermuesli/csdl@aws/regions/Region.py@latest -->
<g id="edge6" class="edge"><title>github.com/supermuesli/csdl@aws/rdsPostgres/Postgresql.py@latest&#45;&gt;github.com/supermuesli/csdl@aws/regions/Region.py@latest</title>
<path fill="none" stroke="red" d="M407.338,-111.564C487.552,-103.924 585.901,-94.557 666.765,-86.8551"/>
<polygon fill="red" stroke="red" points="667.418,-90.3088 677.041,-85.8763 666.755,-83.3403 667.418,-90.3088"/>
</g>
<!-- github.com/supermuesli/csdl@aws/rdsPostgres/AvailabilityZone.py@latest -->
<g id="node6" class="node"><title>github.com/supermuesli/csdl@aws/rdsPostgres/AvailabilityZone.py@latest</title>
<ellipse fill="none" stroke="black" cx="823.73" cy="-18" rx="278.351" ry="18"/>
<text text-anchor="middle" x="823.73" y="-14.3" font-family="Times,serif" font-size="14.00">github.com/supermuesli/csdl@aws/rdsPostgres/AvailabilityZone.py@latest</text>
</g>
<!-- github.com/supermuesli/csdl@aws/rdsPostgres/Postgresql.py@latest&#45;&gt;github.com/supermuesli/csdl@aws/rdsPostgres/AvailabilityZone.py@latest -->
<g id="edge7" class="edge"><title>github.com/supermuesli/csdl@aws/rdsPostgres/Postgresql.py@latest&#45;&gt;github.com/supermuesli/csdl@aws/rdsPostgres/AvailabilityZone.py@latest</title>
<path fill="none" stroke="red" d="M308.263,-108.321C365.814,-89.6468 461.217,-60.7687 545.555,-45 572.009,-40.0538 600.064,-35.9821 627.772,-32.6383"/>
<polygon fill="red" stroke="red" points="628.439,-36.0841 637.961,-31.4391 627.62,-29.1321 628.439,-36.0841"/>
</g>
<!-- PricingModel -->
<g id="node3" class="node"><title>PricingModel</title>
<ellipse fill="none" stroke="black" cx="1197.7" cy="-180" rx="59.5901" ry="18"/>
<text text-anchor="middle" x="1197.7" y="-176.3" font-family="Times,serif" font-size="14.00">PricingModel</text>
</g>
<!-- Price&#45;&gt;PricingModel -->
<g id="edge2" class="edge"><title>Price&#45;&gt;PricingModel</title>
<path fill="none" stroke="red" d="M852.384,-180C910.086,-180 1044.8,-180 1127.59,-180"/>
<polygon fill="red" stroke="red" points="1127.66,-183.5 1137.66,-180 1127.66,-176.5 1127.66,-183.5"/>
</g>
</g>
</svg>
